G04 #@! TF.GenerationSoftware,KiCad,Pcbnew,(2016-12-18 revision 3ffa37c)-master*
G04 #@! TF.CreationDate,2016-12-20T15:26:01-08:00*
G04 #@! TF.ProjectId,badge-routed,62616467652D726F757465642E6B6963,rev?*
G04 #@! TF.FileFunction,Legend,Top*
G04 #@! TF.FilePolarity,Positive*
%FSLAX46Y46*%
G04 Gerber Fmt 4.6, Leading zero omitted, Abs format (unit mm)*
G04 Created by KiCad (PCBNEW (2016-12-18 revision 3ffa37c)-master) date Tuesday, December 20, 2016 'PMt' 03:26:01 PM*
%MOMM*%
%LPD*%
G01*
G04 APERTURE LIST*
%ADD10C,0.150000*%
%ADD11C,0.300000*%
%ADD12C,0.200000*%
%ADD13C,0.152400*%
%ADD14C,0.127000*%
G04 APERTURE END LIST*
D10*
D11*
X45321428Y-65178571D02*
X44821428Y-64464285D01*
X44464285Y-65178571D02*
X44464285Y-63678571D01*
X45035714Y-63678571D01*
X45178571Y-63750000D01*
X45250000Y-63821428D01*
X45321428Y-63964285D01*
X45321428Y-64178571D01*
X45250000Y-64321428D01*
X45178571Y-64392857D01*
X45035714Y-64464285D01*
X44464285Y-64464285D01*
X45964285Y-64392857D02*
X46464285Y-64392857D01*
X46678571Y-65178571D02*
X45964285Y-65178571D01*
X45964285Y-63678571D01*
X46678571Y-63678571D01*
X47250000Y-65107142D02*
X47464285Y-65178571D01*
X47821428Y-65178571D01*
X47964285Y-65107142D01*
X48035714Y-65035714D01*
X48107142Y-64892857D01*
X48107142Y-64750000D01*
X48035714Y-64607142D01*
X47964285Y-64535714D01*
X47821428Y-64464285D01*
X47535714Y-64392857D01*
X47392857Y-64321428D01*
X47321428Y-64250000D01*
X47250000Y-64107142D01*
X47250000Y-63964285D01*
X47321428Y-63821428D01*
X47392857Y-63750000D01*
X47535714Y-63678571D01*
X47892857Y-63678571D01*
X48107142Y-63750000D01*
X48750000Y-64392857D02*
X49250000Y-64392857D01*
X49464285Y-65178571D02*
X48750000Y-65178571D01*
X48750000Y-63678571D01*
X49464285Y-63678571D01*
X49892857Y-63678571D02*
X50750000Y-63678571D01*
X50321428Y-65178571D02*
X50321428Y-63678571D01*
D12*
X72000000Y-40500000D02*
X72000000Y-42000000D01*
X84000000Y-40500000D02*
X72000000Y-40500000D01*
X84000000Y-58000000D02*
X84000000Y-40500000D01*
X72000000Y-58000000D02*
X84000000Y-58000000D01*
X72000000Y-41000000D02*
X72000000Y-58000000D01*
D11*
X148250000Y-80178571D02*
X148250000Y-81250000D01*
X148178571Y-81464285D01*
X148035714Y-81607142D01*
X147821428Y-81678571D01*
X147678571Y-81678571D01*
X148750000Y-80178571D02*
X149607142Y-80178571D01*
X149178571Y-81678571D02*
X149178571Y-80178571D01*
X150035714Y-81250000D02*
X150750000Y-81250000D01*
X149892857Y-81678571D02*
X150392857Y-80178571D01*
X150892857Y-81678571D01*
X152178571Y-80250000D02*
X152035714Y-80178571D01*
X151821428Y-80178571D01*
X151607142Y-80250000D01*
X151464285Y-80392857D01*
X151392857Y-80535714D01*
X151321428Y-80821428D01*
X151321428Y-81035714D01*
X151392857Y-81321428D01*
X151464285Y-81464285D01*
X151607142Y-81607142D01*
X151821428Y-81678571D01*
X151964285Y-81678571D01*
X152178571Y-81607142D01*
X152250000Y-81535714D01*
X152250000Y-81035714D01*
X151964285Y-81035714D01*
X100909285Y-154035714D02*
X100837857Y-154107142D01*
X100623571Y-154178571D01*
X100480714Y-154178571D01*
X100266428Y-154107142D01*
X100123571Y-153964285D01*
X100052142Y-153821428D01*
X99980714Y-153535714D01*
X99980714Y-153321428D01*
X100052142Y-153035714D01*
X100123571Y-152892857D01*
X100266428Y-152750000D01*
X100480714Y-152678571D01*
X100623571Y-152678571D01*
X100837857Y-152750000D01*
X100909285Y-152821428D01*
X101552142Y-154178571D02*
X101552142Y-152678571D01*
X101552142Y-153392857D02*
X102409285Y-153392857D01*
X102409285Y-154178571D02*
X102409285Y-152678571D01*
X103052142Y-153750000D02*
X103766428Y-153750000D01*
X102909285Y-154178571D02*
X103409285Y-152678571D01*
X103909285Y-154178571D01*
X105266428Y-154178571D02*
X104766428Y-153464285D01*
X104409285Y-154178571D02*
X104409285Y-152678571D01*
X104980714Y-152678571D01*
X105123571Y-152750000D01*
X105195000Y-152821428D01*
X105266428Y-152964285D01*
X105266428Y-153178571D01*
X105195000Y-153321428D01*
X105123571Y-153392857D01*
X104980714Y-153464285D01*
X104409285Y-153464285D01*
X106695000Y-152750000D02*
X106552142Y-152678571D01*
X106337857Y-152678571D01*
X106123571Y-152750000D01*
X105980714Y-152892857D01*
X105909285Y-153035714D01*
X105837857Y-153321428D01*
X105837857Y-153535714D01*
X105909285Y-153821428D01*
X105980714Y-153964285D01*
X106123571Y-154107142D01*
X106337857Y-154178571D01*
X106480714Y-154178571D01*
X106695000Y-154107142D01*
X106766428Y-154035714D01*
X106766428Y-153535714D01*
X106480714Y-153535714D01*
X107409285Y-154178571D02*
X107409285Y-152678571D01*
X108123571Y-154178571D02*
X108123571Y-152678571D01*
X108980714Y-154178571D01*
X108980714Y-152678571D01*
X110480714Y-152750000D02*
X110337857Y-152678571D01*
X110123571Y-152678571D01*
X109909285Y-152750000D01*
X109766428Y-152892857D01*
X109695000Y-153035714D01*
X109623571Y-153321428D01*
X109623571Y-153535714D01*
X109695000Y-153821428D01*
X109766428Y-153964285D01*
X109909285Y-154107142D01*
X110123571Y-154178571D01*
X110266428Y-154178571D01*
X110480714Y-154107142D01*
X110552142Y-154035714D01*
X110552142Y-153535714D01*
X110266428Y-153535714D01*
X100909285Y-161535714D02*
X100837857Y-161607142D01*
X100623571Y-161678571D01*
X100480714Y-161678571D01*
X100266428Y-161607142D01*
X100123571Y-161464285D01*
X100052142Y-161321428D01*
X99980714Y-161035714D01*
X99980714Y-160821428D01*
X100052142Y-160535714D01*
X100123571Y-160392857D01*
X100266428Y-160250000D01*
X100480714Y-160178571D01*
X100623571Y-160178571D01*
X100837857Y-160250000D01*
X100909285Y-160321428D01*
X101552142Y-161678571D02*
X101552142Y-160178571D01*
X101552142Y-160892857D02*
X102409285Y-160892857D01*
X102409285Y-161678571D02*
X102409285Y-160178571D01*
X103909285Y-160250000D02*
X103766428Y-160178571D01*
X103552142Y-160178571D01*
X103337857Y-160250000D01*
X103195000Y-160392857D01*
X103123571Y-160535714D01*
X103052142Y-160821428D01*
X103052142Y-161035714D01*
X103123571Y-161321428D01*
X103195000Y-161464285D01*
X103337857Y-161607142D01*
X103552142Y-161678571D01*
X103695000Y-161678571D01*
X103909285Y-161607142D01*
X103980714Y-161535714D01*
X103980714Y-161035714D01*
X103695000Y-161035714D01*
X105766428Y-161678571D02*
X105766428Y-160178571D01*
X106123571Y-160178571D01*
X106337857Y-160250000D01*
X106480714Y-160392857D01*
X106552142Y-160535714D01*
X106623571Y-160821428D01*
X106623571Y-161035714D01*
X106552142Y-161321428D01*
X106480714Y-161464285D01*
X106337857Y-161607142D01*
X106123571Y-161678571D01*
X105766428Y-161678571D01*
X107552142Y-160178571D02*
X107837857Y-160178571D01*
X107980714Y-160250000D01*
X108123571Y-160392857D01*
X108195000Y-160678571D01*
X108195000Y-161178571D01*
X108123571Y-161464285D01*
X107980714Y-161607142D01*
X107837857Y-161678571D01*
X107552142Y-161678571D01*
X107409285Y-161607142D01*
X107266428Y-161464285D01*
X107195000Y-161178571D01*
X107195000Y-160678571D01*
X107266428Y-160392857D01*
X107409285Y-160250000D01*
X107552142Y-160178571D01*
X108837857Y-161678571D02*
X108837857Y-160178571D01*
X109695000Y-161678571D01*
X109695000Y-160178571D01*
X110409285Y-160892857D02*
X110909285Y-160892857D01*
X111123571Y-161678571D02*
X110409285Y-161678571D01*
X110409285Y-160178571D01*
X111123571Y-160178571D01*
X100052142Y-148178571D02*
X100052142Y-146678571D01*
X100623571Y-146678571D01*
X100766428Y-146750000D01*
X100837857Y-146821428D01*
X100909285Y-146964285D01*
X100909285Y-147178571D01*
X100837857Y-147321428D01*
X100766428Y-147392857D01*
X100623571Y-147464285D01*
X100052142Y-147464285D01*
X101409285Y-146678571D02*
X101766428Y-148178571D01*
X102052142Y-147107142D01*
X102337857Y-148178571D01*
X102695000Y-146678571D01*
X104123571Y-148178571D02*
X103623571Y-147464285D01*
X103266428Y-148178571D02*
X103266428Y-146678571D01*
X103837857Y-146678571D01*
X103980714Y-146750000D01*
X104052142Y-146821428D01*
X104123571Y-146964285D01*
X104123571Y-147178571D01*
X104052142Y-147321428D01*
X103980714Y-147392857D01*
X103837857Y-147464285D01*
X103266428Y-147464285D01*
X106195000Y-146678571D02*
X106480714Y-146678571D01*
X106623571Y-146750000D01*
X106766428Y-146892857D01*
X106837857Y-147178571D01*
X106837857Y-147678571D01*
X106766428Y-147964285D01*
X106623571Y-148107142D01*
X106480714Y-148178571D01*
X106195000Y-148178571D01*
X106052142Y-148107142D01*
X105909285Y-147964285D01*
X105837857Y-147678571D01*
X105837857Y-147178571D01*
X105909285Y-146892857D01*
X106052142Y-146750000D01*
X106195000Y-146678571D01*
X107480714Y-148178571D02*
X107480714Y-146678571D01*
X108337857Y-148178571D02*
X107695000Y-147321428D01*
X108337857Y-146678571D02*
X107480714Y-147535714D01*
X66035714Y-62392857D02*
X65535714Y-62392857D01*
X65535714Y-63178571D02*
X65535714Y-61678571D01*
X66250000Y-61678571D01*
X66607142Y-61678571D02*
X67464285Y-61678571D01*
X67035714Y-63178571D02*
X67035714Y-61678571D01*
X67964285Y-63178571D02*
X67964285Y-61678571D01*
X68321428Y-61678571D01*
X68535714Y-61750000D01*
X68678571Y-61892857D01*
X68750000Y-62035714D01*
X68821428Y-62321428D01*
X68821428Y-62535714D01*
X68750000Y-62821428D01*
X68678571Y-62964285D01*
X68535714Y-63107142D01*
X68321428Y-63178571D01*
X67964285Y-63178571D01*
X69464285Y-63178571D02*
X69464285Y-61678571D01*
X130552142Y-64178571D02*
X130552142Y-65392857D01*
X130623571Y-65535714D01*
X130695000Y-65607142D01*
X130837857Y-65678571D01*
X131123571Y-65678571D01*
X131266428Y-65607142D01*
X131337857Y-65535714D01*
X131409285Y-65392857D01*
X131409285Y-64178571D01*
X132052142Y-65250000D02*
X132766428Y-65250000D01*
X131909285Y-65678571D02*
X132409285Y-64178571D01*
X132909285Y-65678571D01*
X134266428Y-65678571D02*
X133766428Y-64964285D01*
X133409285Y-65678571D02*
X133409285Y-64178571D01*
X133980714Y-64178571D01*
X134123571Y-64250000D01*
X134195000Y-64321428D01*
X134266428Y-64464285D01*
X134266428Y-64678571D01*
X134195000Y-64821428D01*
X134123571Y-64892857D01*
X133980714Y-64964285D01*
X133409285Y-64964285D01*
X134695000Y-64178571D02*
X135552142Y-64178571D01*
X135123571Y-65678571D02*
X135123571Y-64178571D01*
X138052142Y-65678571D02*
X137552142Y-64964285D01*
X137195000Y-65678571D02*
X137195000Y-64178571D01*
X137766428Y-64178571D01*
X137909285Y-64250000D01*
X137980714Y-64321428D01*
X138052142Y-64464285D01*
X138052142Y-64678571D01*
X137980714Y-64821428D01*
X137909285Y-64892857D01*
X137766428Y-64964285D01*
X137195000Y-64964285D01*
X138552142Y-64178571D02*
X139552142Y-65678571D01*
X139552142Y-64178571D02*
X138552142Y-65678571D01*
X130552142Y-58678571D02*
X130552142Y-59892857D01*
X130623571Y-60035714D01*
X130695000Y-60107142D01*
X130837857Y-60178571D01*
X131123571Y-60178571D01*
X131266428Y-60107142D01*
X131337857Y-60035714D01*
X131409285Y-59892857D01*
X131409285Y-58678571D01*
X132052142Y-59750000D02*
X132766428Y-59750000D01*
X131909285Y-60178571D02*
X132409285Y-58678571D01*
X132909285Y-60178571D01*
X134266428Y-60178571D02*
X133766428Y-59464285D01*
X133409285Y-60178571D02*
X133409285Y-58678571D01*
X133980714Y-58678571D01*
X134123571Y-58750000D01*
X134195000Y-58821428D01*
X134266428Y-58964285D01*
X134266428Y-59178571D01*
X134195000Y-59321428D01*
X134123571Y-59392857D01*
X133980714Y-59464285D01*
X133409285Y-59464285D01*
X134695000Y-58678571D02*
X135552142Y-58678571D01*
X135123571Y-60178571D02*
X135123571Y-58678571D01*
X136980714Y-58678571D02*
X137837857Y-58678571D01*
X137409285Y-60178571D02*
X137409285Y-58678571D01*
X138195000Y-58678571D02*
X139195000Y-60178571D01*
X139195000Y-58678571D02*
X138195000Y-60178571D01*
X146480714Y-110107142D02*
X146695000Y-110178571D01*
X147052142Y-110178571D01*
X147195000Y-110107142D01*
X147266428Y-110035714D01*
X147337857Y-109892857D01*
X147337857Y-109750000D01*
X147266428Y-109607142D01*
X147195000Y-109535714D01*
X147052142Y-109464285D01*
X146766428Y-109392857D01*
X146623571Y-109321428D01*
X146552142Y-109250000D01*
X146480714Y-109107142D01*
X146480714Y-108964285D01*
X146552142Y-108821428D01*
X146623571Y-108750000D01*
X146766428Y-108678571D01*
X147123571Y-108678571D01*
X147337857Y-108750000D01*
X147980714Y-110178571D02*
X147980714Y-108678571D01*
X148337857Y-108678571D01*
X148552142Y-108750000D01*
X148695000Y-108892857D01*
X148766428Y-109035714D01*
X148837857Y-109321428D01*
X148837857Y-109535714D01*
X148766428Y-109821428D01*
X148695000Y-109964285D01*
X148552142Y-110107142D01*
X148337857Y-110178571D01*
X147980714Y-110178571D01*
X150552142Y-109750000D02*
X151266428Y-109750000D01*
X150409285Y-110178571D02*
X150909285Y-108678571D01*
X151409285Y-110178571D01*
X152766428Y-110035714D02*
X152695000Y-110107142D01*
X152480714Y-110178571D01*
X152337857Y-110178571D01*
X152123571Y-110107142D01*
X151980714Y-109964285D01*
X151909285Y-109821428D01*
X151837857Y-109535714D01*
X151837857Y-109321428D01*
X151909285Y-109035714D01*
X151980714Y-108892857D01*
X152123571Y-108750000D01*
X152337857Y-108678571D01*
X152480714Y-108678571D01*
X152695000Y-108750000D01*
X152766428Y-108821428D01*
X153195000Y-108678571D02*
X154052142Y-108678571D01*
X153623571Y-110178571D02*
X153623571Y-108678571D01*
X147409285Y-103678571D02*
X146909285Y-102964285D01*
X146552142Y-103678571D02*
X146552142Y-102178571D01*
X147123571Y-102178571D01*
X147266428Y-102250000D01*
X147337857Y-102321428D01*
X147409285Y-102464285D01*
X147409285Y-102678571D01*
X147337857Y-102821428D01*
X147266428Y-102892857D01*
X147123571Y-102964285D01*
X146552142Y-102964285D01*
X148552142Y-102892857D02*
X148052142Y-102892857D01*
X148052142Y-103678571D02*
X148052142Y-102178571D01*
X148766428Y-102178571D01*
X150266428Y-102178571D02*
X151123571Y-102178571D01*
X150695000Y-103678571D02*
X150695000Y-102178571D01*
X151480714Y-102178571D02*
X152480714Y-103678571D01*
X152480714Y-102178571D02*
X151480714Y-103678571D01*
X147409285Y-98178571D02*
X146909285Y-97464285D01*
X146552142Y-98178571D02*
X146552142Y-96678571D01*
X147123571Y-96678571D01*
X147266428Y-96750000D01*
X147337857Y-96821428D01*
X147409285Y-96964285D01*
X147409285Y-97178571D01*
X147337857Y-97321428D01*
X147266428Y-97392857D01*
X147123571Y-97464285D01*
X146552142Y-97464285D01*
X148552142Y-97392857D02*
X148052142Y-97392857D01*
X148052142Y-98178571D02*
X148052142Y-96678571D01*
X148766428Y-96678571D01*
X151337857Y-98178571D02*
X150837857Y-97464285D01*
X150480714Y-98178571D02*
X150480714Y-96678571D01*
X151052142Y-96678571D01*
X151195000Y-96750000D01*
X151266428Y-96821428D01*
X151337857Y-96964285D01*
X151337857Y-97178571D01*
X151266428Y-97321428D01*
X151195000Y-97392857D01*
X151052142Y-97464285D01*
X150480714Y-97464285D01*
X151837857Y-96678571D02*
X152837857Y-98178571D01*
X152837857Y-96678571D02*
X151837857Y-98178571D01*
D10*
X142000000Y-98000000D02*
X141500000Y-97500000D01*
X142000000Y-97000000D02*
X142000000Y-98000000D01*
X141500000Y-97500000D02*
X142000000Y-97000000D01*
X142000000Y-97500000D02*
X142500000Y-97500000D01*
X141500000Y-97000000D02*
X141500000Y-98000000D01*
X141800000Y-97550000D02*
X141750000Y-97500000D01*
X141800000Y-97300000D02*
X141800000Y-97550000D01*
X141600000Y-97500000D02*
X141800000Y-97300000D01*
X141900000Y-97800000D02*
X141600000Y-97500000D01*
X141900000Y-97200000D02*
X141900000Y-97800000D01*
X139850000Y-96450000D02*
X143450000Y-96450000D01*
X139850000Y-98550000D02*
X143450000Y-98550000D01*
X134900000Y-96625000D02*
X136100000Y-96625000D01*
X136100000Y-98375000D02*
X134900000Y-98375000D01*
X70000000Y-106000000D02*
X70000000Y-100000000D01*
X76000000Y-106000000D02*
X70000000Y-106000000D01*
X76000000Y-100000000D02*
X76000000Y-106000000D01*
X70000000Y-100000000D02*
X76000000Y-100000000D01*
X139850000Y-110550000D02*
X143450000Y-110550000D01*
X139850000Y-108450000D02*
X143450000Y-108450000D01*
X141900000Y-109200000D02*
X141900000Y-109800000D01*
X141900000Y-109800000D02*
X141600000Y-109500000D01*
X141600000Y-109500000D02*
X141800000Y-109300000D01*
X141800000Y-109300000D02*
X141800000Y-109550000D01*
X141800000Y-109550000D02*
X141750000Y-109500000D01*
X141500000Y-109000000D02*
X141500000Y-110000000D01*
X142000000Y-109500000D02*
X142500000Y-109500000D01*
X141500000Y-109500000D02*
X142000000Y-109000000D01*
X142000000Y-109000000D02*
X142000000Y-110000000D01*
X142000000Y-110000000D02*
X141500000Y-109500000D01*
X142000000Y-103500000D02*
X141500000Y-103000000D01*
X142000000Y-102500000D02*
X142000000Y-103500000D01*
X141500000Y-103000000D02*
X142000000Y-102500000D01*
X142000000Y-103000000D02*
X142500000Y-103000000D01*
X141500000Y-102500000D02*
X141500000Y-103500000D01*
X141800000Y-103050000D02*
X141750000Y-103000000D01*
X141800000Y-102800000D02*
X141800000Y-103050000D01*
X141600000Y-103000000D02*
X141800000Y-102800000D01*
X141900000Y-103300000D02*
X141600000Y-103000000D01*
X141900000Y-102700000D02*
X141900000Y-103300000D01*
X139850000Y-101950000D02*
X143450000Y-101950000D01*
X139850000Y-104050000D02*
X143450000Y-104050000D01*
X129325000Y-155480000D02*
X129325000Y-156480000D01*
X131025000Y-156480000D02*
X131025000Y-155480000D01*
X89350000Y-172000000D02*
X89350000Y-171000000D01*
X87650000Y-171000000D02*
X87650000Y-172000000D01*
X54395000Y-151035000D02*
X54395000Y-152035000D01*
X56095000Y-152035000D02*
X56095000Y-151035000D01*
X42125000Y-131080000D02*
X42125000Y-130080000D01*
X40425000Y-130080000D02*
X40425000Y-131080000D01*
X31150000Y-100750000D02*
X31150000Y-101750000D01*
X32850000Y-101750000D02*
X32850000Y-100750000D01*
X38950000Y-73525000D02*
X38950000Y-72525000D01*
X37250000Y-72525000D02*
X37250000Y-73525000D01*
X63920000Y-45220000D02*
X63920000Y-46220000D01*
X65620000Y-46220000D02*
X65620000Y-45220000D01*
X95750000Y-39790000D02*
X94750000Y-39790000D01*
X94750000Y-41490000D02*
X95750000Y-41490000D01*
X140500000Y-117850000D02*
X141500000Y-117850000D01*
X141500000Y-116150000D02*
X140500000Y-116150000D01*
X154185000Y-138138000D02*
X153185000Y-138138000D01*
X153185000Y-139838000D02*
X154185000Y-139838000D01*
X140470000Y-122770000D02*
X141470000Y-122770000D01*
X141470000Y-121070000D02*
X140470000Y-121070000D01*
X121750000Y-115400000D02*
X120750000Y-115400000D01*
X120750000Y-117100000D02*
X121750000Y-117100000D01*
X156630000Y-100870000D02*
X156630000Y-101870000D01*
X158330000Y-101870000D02*
X158330000Y-100870000D01*
X67810000Y-88050000D02*
X66810000Y-88050000D01*
X66810000Y-89750000D02*
X67810000Y-89750000D01*
X76000000Y-89850000D02*
X77000000Y-89850000D01*
X77000000Y-88150000D02*
X76000000Y-88150000D01*
X81850000Y-96500000D02*
X81850000Y-95500000D01*
X80150000Y-95500000D02*
X80150000Y-96500000D01*
X97450000Y-87500000D02*
X97450000Y-86500000D01*
X95750000Y-86500000D02*
X95750000Y-87500000D01*
X95650000Y-70500000D02*
X95650000Y-71500000D01*
X97350000Y-71500000D02*
X97350000Y-70500000D01*
X101000000Y-78350000D02*
X102000000Y-78350000D01*
X102000000Y-76650000D02*
X101000000Y-76650000D01*
X102000000Y-71650000D02*
X101000000Y-71650000D01*
X101000000Y-73350000D02*
X102000000Y-73350000D01*
X97500000Y-67850000D02*
X98500000Y-67850000D01*
X98500000Y-66150000D02*
X97500000Y-66150000D01*
X98000000Y-56150000D02*
X97000000Y-56150000D01*
X97000000Y-57850000D02*
X98000000Y-57850000D01*
X101000000Y-89350000D02*
X102000000Y-89350000D01*
X102000000Y-87650000D02*
X101000000Y-87650000D01*
X105000000Y-171850000D02*
X106000000Y-171850000D01*
X106000000Y-170150000D02*
X105000000Y-170150000D01*
X116500000Y-162850000D02*
X117500000Y-162850000D01*
X117500000Y-161150000D02*
X116500000Y-161150000D01*
X104000000Y-124150000D02*
X103000000Y-124150000D01*
X103000000Y-125850000D02*
X104000000Y-125850000D01*
X146800000Y-130450000D02*
X146800000Y-131450000D01*
X148500000Y-131450000D02*
X148500000Y-130450000D01*
X141350000Y-46500000D02*
X141350000Y-45500000D01*
X139650000Y-45500000D02*
X139650000Y-46500000D01*
X151550000Y-72120000D02*
X151550000Y-73120000D01*
X153250000Y-73120000D02*
X153250000Y-72120000D01*
X112649100Y-174817460D02*
X112649100Y-168412460D01*
X121349100Y-173587460D02*
X112649100Y-173587460D01*
X121349100Y-168412460D02*
X121349100Y-174817460D01*
X112649100Y-168412460D02*
X121349100Y-168412460D01*
X112649100Y-174817460D02*
X121349100Y-174817460D01*
X86600000Y-154375000D02*
X85400000Y-154375000D01*
X85400000Y-152625000D02*
X86600000Y-152625000D01*
X111160000Y-136285000D02*
X112360000Y-136285000D01*
X112360000Y-138035000D02*
X111160000Y-138035000D01*
X134875000Y-55400000D02*
X134875000Y-56600000D01*
X133125000Y-56600000D02*
X133125000Y-55400000D01*
X125900000Y-54125000D02*
X127100000Y-54125000D01*
X127100000Y-55875000D02*
X125900000Y-55875000D01*
X85400000Y-146625000D02*
X86600000Y-146625000D01*
X86600000Y-148375000D02*
X85400000Y-148375000D01*
X136100000Y-103875000D02*
X134900000Y-103875000D01*
X134900000Y-102125000D02*
X136100000Y-102125000D01*
X85400000Y-123125000D02*
X86600000Y-123125000D01*
X86600000Y-124875000D02*
X85400000Y-124875000D01*
X82600000Y-124875000D02*
X81400000Y-124875000D01*
X81400000Y-123125000D02*
X82600000Y-123125000D01*
X121150000Y-68475000D02*
X122350000Y-68475000D01*
X122350000Y-70225000D02*
X121150000Y-70225000D01*
X111575000Y-125913000D02*
X110375000Y-125913000D01*
X110375000Y-124163000D02*
X111575000Y-124163000D01*
X85400000Y-160125000D02*
X86600000Y-160125000D01*
X86600000Y-161875000D02*
X85400000Y-161875000D01*
X150935000Y-124780000D02*
X150935000Y-123580000D01*
X152685000Y-123580000D02*
X152685000Y-124780000D01*
X80125000Y-103600000D02*
X80125000Y-102400000D01*
X81875000Y-102400000D02*
X81875000Y-103600000D01*
X136600000Y-87875000D02*
X135400000Y-87875000D01*
X135400000Y-86125000D02*
X136600000Y-86125000D01*
X134900000Y-108625000D02*
X136100000Y-108625000D01*
X136100000Y-110375000D02*
X134900000Y-110375000D01*
X73270000Y-61230000D02*
X85970000Y-61230000D01*
X85970000Y-61230000D02*
X85970000Y-63770000D01*
X85970000Y-63770000D02*
X73270000Y-63770000D01*
X70450000Y-60950000D02*
X72000000Y-60950000D01*
X73270000Y-61230000D02*
X73270000Y-63770000D01*
X72000000Y-64050000D02*
X70450000Y-64050000D01*
X70450000Y-64050000D02*
X70450000Y-60950000D01*
X140720000Y-129360000D02*
X140720000Y-132260000D01*
X140720000Y-132260000D02*
X141220000Y-132260000D01*
X141220000Y-132260000D02*
X141220000Y-129360000D01*
X141220000Y-129360000D02*
X140720000Y-129360000D01*
X140770000Y-129110000D02*
G75*
G03X140770000Y-129110000I-100000J0D01*
G01*
X140770000Y-136730000D02*
G75*
G03X140770000Y-136730000I-100000J0D01*
G01*
X141220000Y-136980000D02*
X140720000Y-136980000D01*
X141220000Y-139880000D02*
X141220000Y-136980000D01*
X140720000Y-139880000D02*
X141220000Y-139880000D01*
X140720000Y-136980000D02*
X140720000Y-139880000D01*
X117600000Y-45100000D02*
X106600000Y-45100000D01*
X106100000Y-44700000D02*
X106100000Y-39600000D01*
X106600000Y-39100000D02*
X117600000Y-39100000D01*
X118100000Y-39600000D02*
X118100000Y-44700000D01*
X110100000Y-42600000D02*
X108600000Y-42600000D01*
X108600000Y-42600000D02*
X108600000Y-41600000D01*
X108600000Y-41600000D02*
X111100000Y-41600000D01*
X111100000Y-41600000D02*
X111100000Y-42600000D01*
X111100000Y-42600000D02*
X110100000Y-42600000D01*
X106600000Y-45100000D02*
X106100000Y-45100000D01*
X106100000Y-45100000D02*
X106100000Y-44600000D01*
X106100000Y-44600000D02*
X106100000Y-39100000D01*
X106100000Y-39100000D02*
X106600000Y-39100000D01*
X117100000Y-39100000D02*
X118100000Y-39100000D01*
X118100000Y-39100000D02*
X118100000Y-39600000D01*
X118100000Y-39600000D02*
X118100000Y-45100000D01*
X118100000Y-45100000D02*
X117600000Y-45100000D01*
X95000000Y-153000000D02*
X95500000Y-153500000D01*
X95000000Y-154000000D02*
X95000000Y-153000000D01*
X95500000Y-153500000D02*
X95000000Y-154000000D01*
X95000000Y-153500000D02*
X94500000Y-153500000D01*
X95500000Y-154000000D02*
X95500000Y-153000000D01*
X95200000Y-153450000D02*
X95250000Y-153500000D01*
X95200000Y-153700000D02*
X95200000Y-153450000D01*
X95400000Y-153500000D02*
X95200000Y-153700000D01*
X95100000Y-153200000D02*
X95400000Y-153500000D01*
X95100000Y-153800000D02*
X95100000Y-153200000D01*
X97150000Y-154550000D02*
X93550000Y-154550000D01*
X97150000Y-152450000D02*
X93550000Y-152450000D01*
X92850000Y-162050000D02*
X96450000Y-162050000D01*
X92850000Y-159950000D02*
X96450000Y-159950000D01*
X94900000Y-160700000D02*
X94900000Y-161300000D01*
X94900000Y-161300000D02*
X94600000Y-161000000D01*
X94600000Y-161000000D02*
X94800000Y-160800000D01*
X94800000Y-160800000D02*
X94800000Y-161050000D01*
X94800000Y-161050000D02*
X94750000Y-161000000D01*
X94500000Y-160500000D02*
X94500000Y-161500000D01*
X95000000Y-161000000D02*
X95500000Y-161000000D01*
X94500000Y-161000000D02*
X95000000Y-160500000D01*
X95000000Y-160500000D02*
X95000000Y-161500000D01*
X95000000Y-161500000D02*
X94500000Y-161000000D01*
X74460000Y-158750000D02*
G75*
G03X74460000Y-158750000I-8500000J0D01*
G01*
X112125000Y-56175000D02*
X112125000Y-56825000D01*
X117875000Y-56175000D02*
X117875000Y-56825000D01*
X117875000Y-66825000D02*
X117875000Y-66175000D01*
X112125000Y-66825000D02*
X112125000Y-66175000D01*
X112125000Y-56175000D02*
X117875000Y-56175000D01*
X112125000Y-66825000D02*
X117875000Y-66825000D01*
X112125000Y-56825000D02*
X110525000Y-56825000D01*
X124350000Y-60550000D02*
X127950000Y-60550000D01*
X124350000Y-58450000D02*
X127950000Y-58450000D01*
X126400000Y-59200000D02*
X126400000Y-59800000D01*
X126400000Y-59800000D02*
X126100000Y-59500000D01*
X126100000Y-59500000D02*
X126300000Y-59300000D01*
X126300000Y-59300000D02*
X126300000Y-59550000D01*
X126300000Y-59550000D02*
X126250000Y-59500000D01*
X126000000Y-59000000D02*
X126000000Y-60000000D01*
X126500000Y-59500000D02*
X127000000Y-59500000D01*
X126000000Y-59500000D02*
X126500000Y-59000000D01*
X126500000Y-59000000D02*
X126500000Y-60000000D01*
X126500000Y-60000000D02*
X126000000Y-59500000D01*
X162250000Y-75625000D02*
X162250000Y-74625000D01*
X155250000Y-75625000D02*
X162250000Y-75625000D01*
X155250000Y-70425000D02*
X162250000Y-70425000D01*
X131120000Y-43120000D02*
X138120000Y-43120000D01*
X131120000Y-48320000D02*
X138120000Y-48320000D01*
X138120000Y-48320000D02*
X138120000Y-47320000D01*
D13*
X88491754Y-98750070D02*
G75*
G02X88491754Y-98750070I76200J0D01*
G01*
X88999500Y-105426460D02*
X88999500Y-106000500D01*
X88999500Y-106000500D02*
X89573540Y-106000500D01*
X97000500Y-106000500D02*
X97000500Y-105426460D01*
X97000500Y-97999500D02*
X96426460Y-97999500D01*
X88999500Y-97999500D02*
X88999500Y-98522740D01*
X89554490Y-98714764D02*
X89714764Y-98554490D01*
X96426460Y-106000500D02*
X97000500Y-106000500D01*
X97000500Y-98573540D02*
X97000500Y-97999500D01*
X89573540Y-97999500D02*
X88999500Y-97999500D01*
D10*
X50650000Y-61700000D02*
X50650000Y-61950000D01*
X50650000Y-61950000D02*
X44350000Y-61950000D01*
X44350000Y-61950000D02*
X44350000Y-61700000D01*
X50650000Y-57200000D02*
X50650000Y-59800000D01*
X44350000Y-55300000D02*
X44350000Y-55050000D01*
X44350000Y-55050000D02*
X50650000Y-55050000D01*
X50650000Y-55050000D02*
X50650000Y-55300000D01*
X44350000Y-59800000D02*
X44350000Y-57200000D01*
X49150000Y-58500000D02*
G75*
G03X49150000Y-58500000I-1650000J0D01*
G01*
X160020000Y-92180000D02*
X139700000Y-92180000D01*
X159480000Y-91630000D02*
X140260000Y-91630000D01*
X160020000Y-83080000D02*
X139700000Y-83080000D01*
X159480000Y-83630000D02*
X152110000Y-83630000D01*
X147610000Y-83630000D02*
X140260000Y-83630000D01*
X152110000Y-83630000D02*
X152110000Y-83080000D01*
X147610000Y-83630000D02*
X147610000Y-83080000D01*
X160020000Y-92180000D02*
X160020000Y-83080000D01*
X159480000Y-91630000D02*
X159480000Y-83630000D01*
X139700000Y-92180000D02*
X139700000Y-83080000D01*
X140260000Y-91630000D02*
X140260000Y-83630000D01*
X160020000Y-92180000D02*
X159480000Y-91630000D01*
X139700000Y-92180000D02*
X140260000Y-91630000D01*
X160020000Y-83080000D02*
X159480000Y-83630000D01*
X139700000Y-83080000D02*
X140260000Y-83630000D01*
X95301120Y-79300360D02*
X95301120Y-83600580D01*
X97698880Y-79300360D02*
X97698880Y-83699640D01*
X97698880Y-60800360D02*
X97698880Y-65199640D01*
X95301120Y-60800360D02*
X95301120Y-65100580D01*
X95301120Y-73800360D02*
X95301120Y-78100580D01*
X97698880Y-73800360D02*
X97698880Y-78199640D01*
X97698880Y-90174760D02*
X97698880Y-94574040D01*
X95301120Y-90174760D02*
X95301120Y-94474980D01*
X92850000Y-148550000D02*
X96450000Y-148550000D01*
X92850000Y-146450000D02*
X96450000Y-146450000D01*
X94900000Y-147200000D02*
X94900000Y-147800000D01*
X94900000Y-147800000D02*
X94600000Y-147500000D01*
X94600000Y-147500000D02*
X94800000Y-147300000D01*
X94800000Y-147300000D02*
X94800000Y-147550000D01*
X94800000Y-147550000D02*
X94750000Y-147500000D01*
X94500000Y-147000000D02*
X94500000Y-148000000D01*
X95000000Y-147500000D02*
X95500000Y-147500000D01*
X94500000Y-147500000D02*
X95000000Y-147000000D01*
X95000000Y-147000000D02*
X95000000Y-148000000D01*
X95000000Y-148000000D02*
X94500000Y-147500000D01*
X124350000Y-66050000D02*
X127950000Y-66050000D01*
X124350000Y-63950000D02*
X127950000Y-63950000D01*
X126400000Y-64700000D02*
X126400000Y-65300000D01*
X126400000Y-65300000D02*
X126100000Y-65000000D01*
X126100000Y-65000000D02*
X126300000Y-64800000D01*
X126300000Y-64800000D02*
X126300000Y-65050000D01*
X126300000Y-65050000D02*
X126250000Y-65000000D01*
X126000000Y-64500000D02*
X126000000Y-65500000D01*
X126500000Y-65000000D02*
X127000000Y-65000000D01*
X126000000Y-65000000D02*
X126500000Y-64500000D01*
X126500000Y-64500000D02*
X126500000Y-65500000D01*
X126500000Y-65500000D02*
X126000000Y-65000000D01*
X34575000Y-75828000D02*
X34575000Y-74828000D01*
X27575000Y-75828000D02*
X34575000Y-75828000D01*
X27575000Y-70628000D02*
X34575000Y-70628000D01*
X21900000Y-98500000D02*
X28900000Y-98500000D01*
X21900000Y-103700000D02*
X28900000Y-103700000D01*
X28900000Y-103700000D02*
X28900000Y-102700000D01*
X36480000Y-133080000D02*
X36480000Y-132080000D01*
X29480000Y-133080000D02*
X36480000Y-133080000D01*
X29480000Y-127880000D02*
X36480000Y-127880000D01*
X44165000Y-148835000D02*
X51165000Y-148835000D01*
X44165000Y-154035000D02*
X51165000Y-154035000D01*
X51165000Y-154035000D02*
X51165000Y-153035000D01*
X98750000Y-174050000D02*
X98750000Y-173050000D01*
X91750000Y-174050000D02*
X98750000Y-174050000D01*
X91750000Y-168850000D02*
X98750000Y-168850000D01*
X133620000Y-153280000D02*
X140620000Y-153280000D01*
X133620000Y-158480000D02*
X140620000Y-158480000D01*
X140620000Y-158480000D02*
X140620000Y-157480000D01*
X162210000Y-133080000D02*
X162210000Y-132080000D01*
X155210000Y-133080000D02*
X162210000Y-133080000D01*
X155210000Y-127880000D02*
X162210000Y-127880000D01*
X160290000Y-98670000D02*
X167290000Y-98670000D01*
X160290000Y-103870000D02*
X167290000Y-103870000D01*
X167290000Y-103870000D02*
X167290000Y-102870000D01*
X91750000Y-30420000D02*
X98750000Y-30420000D01*
X91750000Y-35620000D02*
X98750000Y-35620000D01*
X98750000Y-35620000D02*
X98750000Y-34620000D01*
X53650000Y-43120000D02*
X60650000Y-43120000D01*
X53650000Y-48320000D02*
X60650000Y-48320000D01*
X60650000Y-48320000D02*
X60650000Y-47320000D01*
X61004000Y-145865000D02*
X60496000Y-145865000D01*
X59861000Y-147008000D02*
X61639000Y-147008000D01*
X61004000Y-145992000D02*
X61004000Y-145865000D01*
X60496000Y-145865000D02*
X60496000Y-145992000D01*
X61639000Y-145992000D02*
X61004000Y-145992000D01*
X61639000Y-147008000D02*
X61639000Y-145992000D01*
X59861000Y-145992000D02*
X59861000Y-147008000D01*
X60496000Y-145992000D02*
X59861000Y-145992000D01*
X59452380Y-101238095D02*
X58452380Y-101238095D01*
X58452380Y-100857142D01*
X58500000Y-100761904D01*
X58547619Y-100714285D01*
X58642857Y-100666666D01*
X58785714Y-100666666D01*
X58880952Y-100714285D01*
X58928571Y-100761904D01*
X58976190Y-100857142D01*
X58976190Y-101238095D01*
X58547619Y-100285714D02*
X58500000Y-100238095D01*
X58452380Y-100142857D01*
X58452380Y-99904761D01*
X58500000Y-99809523D01*
X58547619Y-99761904D01*
X58642857Y-99714285D01*
X58738095Y-99714285D01*
X58880952Y-99761904D01*
X59452380Y-100333333D01*
X59452380Y-99714285D01*
X141261904Y-95952380D02*
X141261904Y-94952380D01*
X141500000Y-94952380D01*
X141642857Y-95000000D01*
X141738095Y-95095238D01*
X141785714Y-95190476D01*
X141833333Y-95380952D01*
X141833333Y-95523809D01*
X141785714Y-95714285D01*
X141738095Y-95809523D01*
X141642857Y-95904761D01*
X141500000Y-95952380D01*
X141261904Y-95952380D01*
X142404761Y-95380952D02*
X142309523Y-95333333D01*
X142261904Y-95285714D01*
X142214285Y-95190476D01*
X142214285Y-95142857D01*
X142261904Y-95047619D01*
X142309523Y-95000000D01*
X142404761Y-94952380D01*
X142595238Y-94952380D01*
X142690476Y-95000000D01*
X142738095Y-95047619D01*
X142785714Y-95142857D01*
X142785714Y-95190476D01*
X142738095Y-95285714D01*
X142690476Y-95333333D01*
X142595238Y-95380952D01*
X142404761Y-95380952D01*
X142309523Y-95428571D01*
X142261904Y-95476190D01*
X142214285Y-95571428D01*
X142214285Y-95761904D01*
X142261904Y-95857142D01*
X142309523Y-95904761D01*
X142404761Y-95952380D01*
X142595238Y-95952380D01*
X142690476Y-95904761D01*
X142738095Y-95857142D01*
X142785714Y-95761904D01*
X142785714Y-95571428D01*
X142738095Y-95476190D01*
X142690476Y-95428571D01*
X142595238Y-95380952D01*
X134857142Y-95852380D02*
X134523809Y-95376190D01*
X134285714Y-95852380D02*
X134285714Y-94852380D01*
X134666666Y-94852380D01*
X134761904Y-94900000D01*
X134809523Y-94947619D01*
X134857142Y-95042857D01*
X134857142Y-95185714D01*
X134809523Y-95280952D01*
X134761904Y-95328571D01*
X134666666Y-95376190D01*
X134285714Y-95376190D01*
X135809523Y-95852380D02*
X135238095Y-95852380D01*
X135523809Y-95852380D02*
X135523809Y-94852380D01*
X135428571Y-94995238D01*
X135333333Y-95090476D01*
X135238095Y-95138095D01*
X136428571Y-94852380D02*
X136523809Y-94852380D01*
X136619047Y-94900000D01*
X136666666Y-94947619D01*
X136714285Y-95042857D01*
X136761904Y-95233333D01*
X136761904Y-95471428D01*
X136714285Y-95661904D01*
X136666666Y-95757142D01*
X136619047Y-95804761D01*
X136523809Y-95852380D01*
X136428571Y-95852380D01*
X136333333Y-95804761D01*
X136285714Y-95757142D01*
X136238095Y-95661904D01*
X136190476Y-95471428D01*
X136190476Y-95233333D01*
X136238095Y-95042857D01*
X136285714Y-94947619D01*
X136333333Y-94900000D01*
X136428571Y-94852380D01*
X72523809Y-108056190D02*
X72523809Y-108532380D01*
X72190476Y-107532380D02*
X72523809Y-108056190D01*
X72857142Y-107532380D01*
X73714285Y-108532380D02*
X73142857Y-108532380D01*
X73428571Y-108532380D02*
X73428571Y-107532380D01*
X73333333Y-107675238D01*
X73238095Y-107770476D01*
X73142857Y-107818095D01*
X141261904Y-107952380D02*
X141261904Y-106952380D01*
X141500000Y-106952380D01*
X141642857Y-107000000D01*
X141738095Y-107095238D01*
X141785714Y-107190476D01*
X141833333Y-107380952D01*
X141833333Y-107523809D01*
X141785714Y-107714285D01*
X141738095Y-107809523D01*
X141642857Y-107904761D01*
X141500000Y-107952380D01*
X141261904Y-107952380D01*
X142214285Y-107047619D02*
X142261904Y-107000000D01*
X142357142Y-106952380D01*
X142595238Y-106952380D01*
X142690476Y-107000000D01*
X142738095Y-107047619D01*
X142785714Y-107142857D01*
X142785714Y-107238095D01*
X142738095Y-107380952D01*
X142166666Y-107952380D01*
X142785714Y-107952380D01*
X141261904Y-101452380D02*
X141261904Y-100452380D01*
X141500000Y-100452380D01*
X141642857Y-100500000D01*
X141738095Y-100595238D01*
X141785714Y-100690476D01*
X141833333Y-100880952D01*
X141833333Y-101023809D01*
X141785714Y-101214285D01*
X141738095Y-101309523D01*
X141642857Y-101404761D01*
X141500000Y-101452380D01*
X141261904Y-101452380D01*
X142166666Y-100452380D02*
X142833333Y-100452380D01*
X142404761Y-101452380D01*
X149238095Y-143500000D02*
X149142857Y-143452380D01*
X149000000Y-143452380D01*
X148857142Y-143500000D01*
X148761904Y-143595238D01*
X148714285Y-143690476D01*
X148666666Y-143880952D01*
X148666666Y-144023809D01*
X148714285Y-144214285D01*
X148761904Y-144309523D01*
X148857142Y-144404761D01*
X149000000Y-144452380D01*
X149095238Y-144452380D01*
X149238095Y-144404761D01*
X149285714Y-144357142D01*
X149285714Y-144023809D01*
X149095238Y-144023809D01*
X149714285Y-144452380D02*
X149714285Y-143452380D01*
X150285714Y-144452380D01*
X150285714Y-143452380D01*
X150761904Y-144452380D02*
X150761904Y-143452380D01*
X151000000Y-143452380D01*
X151142857Y-143500000D01*
X151238095Y-143595238D01*
X151285714Y-143690476D01*
X151333333Y-143880952D01*
X151333333Y-144023809D01*
X151285714Y-144214285D01*
X151238095Y-144309523D01*
X151142857Y-144404761D01*
X151000000Y-144452380D01*
X150761904Y-144452380D01*
X143357142Y-143452380D02*
X143690476Y-144452380D01*
X144023809Y-143452380D01*
X144690476Y-143928571D02*
X144833333Y-143976190D01*
X144880952Y-144023809D01*
X144928571Y-144119047D01*
X144928571Y-144261904D01*
X144880952Y-144357142D01*
X144833333Y-144404761D01*
X144738095Y-144452380D01*
X144357142Y-144452380D01*
X144357142Y-143452380D01*
X144690476Y-143452380D01*
X144785714Y-143500000D01*
X144833333Y-143547619D01*
X144880952Y-143642857D01*
X144880952Y-143738095D01*
X144833333Y-143833333D01*
X144785714Y-143880952D01*
X144690476Y-143928571D01*
X144357142Y-143928571D01*
X145309523Y-144166666D02*
X145785714Y-144166666D01*
X145214285Y-144452380D02*
X145547619Y-143452380D01*
X145880952Y-144452380D01*
X146071428Y-143452380D02*
X146642857Y-143452380D01*
X146357142Y-144452380D02*
X146357142Y-143452380D01*
X91242380Y-138042380D02*
X91242380Y-137042380D01*
X91623333Y-137042380D01*
X91718571Y-137090000D01*
X91766190Y-137137619D01*
X91813809Y-137232857D01*
X91813809Y-137375714D01*
X91766190Y-137470952D01*
X91718571Y-137518571D01*
X91623333Y-137566190D01*
X91242380Y-137566190D01*
X92099523Y-137042380D02*
X92670952Y-137042380D01*
X92385238Y-138042380D02*
X92385238Y-137042380D01*
X92956666Y-137756666D02*
X93432857Y-137756666D01*
X92861428Y-138042380D02*
X93194761Y-137042380D01*
X93528095Y-138042380D01*
X94290000Y-137375714D02*
X94290000Y-138042380D01*
X94051904Y-136994761D02*
X93813809Y-137709047D01*
X94432857Y-137709047D01*
X132632142Y-156146666D02*
X132679761Y-156194285D01*
X132727380Y-156337142D01*
X132727380Y-156432380D01*
X132679761Y-156575238D01*
X132584523Y-156670476D01*
X132489285Y-156718095D01*
X132298809Y-156765714D01*
X132155952Y-156765714D01*
X131965476Y-156718095D01*
X131870238Y-156670476D01*
X131775000Y-156575238D01*
X131727380Y-156432380D01*
X131727380Y-156337142D01*
X131775000Y-156194285D01*
X131822619Y-156146666D01*
X131727380Y-155241904D02*
X131727380Y-155718095D01*
X132203571Y-155765714D01*
X132155952Y-155718095D01*
X132108333Y-155622857D01*
X132108333Y-155384761D01*
X132155952Y-155289523D01*
X132203571Y-155241904D01*
X132298809Y-155194285D01*
X132536904Y-155194285D01*
X132632142Y-155241904D01*
X132679761Y-155289523D01*
X132727380Y-155384761D01*
X132727380Y-155622857D01*
X132679761Y-155718095D01*
X132632142Y-155765714D01*
X90957142Y-171666666D02*
X91004761Y-171714285D01*
X91052380Y-171857142D01*
X91052380Y-171952380D01*
X91004761Y-172095238D01*
X90909523Y-172190476D01*
X90814285Y-172238095D01*
X90623809Y-172285714D01*
X90480952Y-172285714D01*
X90290476Y-172238095D01*
X90195238Y-172190476D01*
X90100000Y-172095238D01*
X90052380Y-171952380D01*
X90052380Y-171857142D01*
X90100000Y-171714285D01*
X90147619Y-171666666D01*
X90052380Y-170809523D02*
X90052380Y-171000000D01*
X90100000Y-171095238D01*
X90147619Y-171142857D01*
X90290476Y-171238095D01*
X90480952Y-171285714D01*
X90861904Y-171285714D01*
X90957142Y-171238095D01*
X91004761Y-171190476D01*
X91052380Y-171095238D01*
X91052380Y-170904761D01*
X91004761Y-170809523D01*
X90957142Y-170761904D01*
X90861904Y-170714285D01*
X90623809Y-170714285D01*
X90528571Y-170761904D01*
X90480952Y-170809523D01*
X90433333Y-170904761D01*
X90433333Y-171095238D01*
X90480952Y-171190476D01*
X90528571Y-171238095D01*
X90623809Y-171285714D01*
X57702142Y-151701666D02*
X57749761Y-151749285D01*
X57797380Y-151892142D01*
X57797380Y-151987380D01*
X57749761Y-152130238D01*
X57654523Y-152225476D01*
X57559285Y-152273095D01*
X57368809Y-152320714D01*
X57225952Y-152320714D01*
X57035476Y-152273095D01*
X56940238Y-152225476D01*
X56845000Y-152130238D01*
X56797380Y-151987380D01*
X56797380Y-151892142D01*
X56845000Y-151749285D01*
X56892619Y-151701666D01*
X56797380Y-151368333D02*
X56797380Y-150701666D01*
X57797380Y-151130238D01*
X43732142Y-130746666D02*
X43779761Y-130794285D01*
X43827380Y-130937142D01*
X43827380Y-131032380D01*
X43779761Y-131175238D01*
X43684523Y-131270476D01*
X43589285Y-131318095D01*
X43398809Y-131365714D01*
X43255952Y-131365714D01*
X43065476Y-131318095D01*
X42970238Y-131270476D01*
X42875000Y-131175238D01*
X42827380Y-131032380D01*
X42827380Y-130937142D01*
X42875000Y-130794285D01*
X42922619Y-130746666D01*
X43255952Y-130175238D02*
X43208333Y-130270476D01*
X43160714Y-130318095D01*
X43065476Y-130365714D01*
X43017857Y-130365714D01*
X42922619Y-130318095D01*
X42875000Y-130270476D01*
X42827380Y-130175238D01*
X42827380Y-129984761D01*
X42875000Y-129889523D01*
X42922619Y-129841904D01*
X43017857Y-129794285D01*
X43065476Y-129794285D01*
X43160714Y-129841904D01*
X43208333Y-129889523D01*
X43255952Y-129984761D01*
X43255952Y-130175238D01*
X43303571Y-130270476D01*
X43351190Y-130318095D01*
X43446428Y-130365714D01*
X43636904Y-130365714D01*
X43732142Y-130318095D01*
X43779761Y-130270476D01*
X43827380Y-130175238D01*
X43827380Y-129984761D01*
X43779761Y-129889523D01*
X43732142Y-129841904D01*
X43636904Y-129794285D01*
X43446428Y-129794285D01*
X43351190Y-129841904D01*
X43303571Y-129889523D01*
X43255952Y-129984761D01*
X34457142Y-101416666D02*
X34504761Y-101464285D01*
X34552380Y-101607142D01*
X34552380Y-101702380D01*
X34504761Y-101845238D01*
X34409523Y-101940476D01*
X34314285Y-101988095D01*
X34123809Y-102035714D01*
X33980952Y-102035714D01*
X33790476Y-101988095D01*
X33695238Y-101940476D01*
X33600000Y-101845238D01*
X33552380Y-101702380D01*
X33552380Y-101607142D01*
X33600000Y-101464285D01*
X33647619Y-101416666D01*
X34552380Y-100940476D02*
X34552380Y-100750000D01*
X34504761Y-100654761D01*
X34457142Y-100607142D01*
X34314285Y-100511904D01*
X34123809Y-100464285D01*
X33742857Y-100464285D01*
X33647619Y-100511904D01*
X33600000Y-100559523D01*
X33552380Y-100654761D01*
X33552380Y-100845238D01*
X33600000Y-100940476D01*
X33647619Y-100988095D01*
X33742857Y-101035714D01*
X33980952Y-101035714D01*
X34076190Y-100988095D01*
X34123809Y-100940476D01*
X34171428Y-100845238D01*
X34171428Y-100654761D01*
X34123809Y-100559523D01*
X34076190Y-100511904D01*
X33980952Y-100464285D01*
X40557142Y-73667857D02*
X40604761Y-73715476D01*
X40652380Y-73858333D01*
X40652380Y-73953571D01*
X40604761Y-74096428D01*
X40509523Y-74191666D01*
X40414285Y-74239285D01*
X40223809Y-74286904D01*
X40080952Y-74286904D01*
X39890476Y-74239285D01*
X39795238Y-74191666D01*
X39700000Y-74096428D01*
X39652380Y-73953571D01*
X39652380Y-73858333D01*
X39700000Y-73715476D01*
X39747619Y-73667857D01*
X40652380Y-72715476D02*
X40652380Y-73286904D01*
X40652380Y-73001190D02*
X39652380Y-73001190D01*
X39795238Y-73096428D01*
X39890476Y-73191666D01*
X39938095Y-73286904D01*
X39652380Y-72096428D02*
X39652380Y-72001190D01*
X39700000Y-71905952D01*
X39747619Y-71858333D01*
X39842857Y-71810714D01*
X40033333Y-71763095D01*
X40271428Y-71763095D01*
X40461904Y-71810714D01*
X40557142Y-71858333D01*
X40604761Y-71905952D01*
X40652380Y-72001190D01*
X40652380Y-72096428D01*
X40604761Y-72191666D01*
X40557142Y-72239285D01*
X40461904Y-72286904D01*
X40271428Y-72334523D01*
X40033333Y-72334523D01*
X39842857Y-72286904D01*
X39747619Y-72239285D01*
X39700000Y-72191666D01*
X39652380Y-72096428D01*
X67227142Y-46362857D02*
X67274761Y-46410476D01*
X67322380Y-46553333D01*
X67322380Y-46648571D01*
X67274761Y-46791428D01*
X67179523Y-46886666D01*
X67084285Y-46934285D01*
X66893809Y-46981904D01*
X66750952Y-46981904D01*
X66560476Y-46934285D01*
X66465238Y-46886666D01*
X66370000Y-46791428D01*
X66322380Y-46648571D01*
X66322380Y-46553333D01*
X66370000Y-46410476D01*
X66417619Y-46362857D01*
X67322380Y-45410476D02*
X67322380Y-45981904D01*
X67322380Y-45696190D02*
X66322380Y-45696190D01*
X66465238Y-45791428D01*
X66560476Y-45886666D01*
X66608095Y-45981904D01*
X67322380Y-44458095D02*
X67322380Y-45029523D01*
X67322380Y-44743809D02*
X66322380Y-44743809D01*
X66465238Y-44839047D01*
X66560476Y-44934285D01*
X66608095Y-45029523D01*
X94607142Y-38897142D02*
X94559523Y-38944761D01*
X94416666Y-38992380D01*
X94321428Y-38992380D01*
X94178571Y-38944761D01*
X94083333Y-38849523D01*
X94035714Y-38754285D01*
X93988095Y-38563809D01*
X93988095Y-38420952D01*
X94035714Y-38230476D01*
X94083333Y-38135238D01*
X94178571Y-38040000D01*
X94321428Y-37992380D01*
X94416666Y-37992380D01*
X94559523Y-38040000D01*
X94607142Y-38087619D01*
X95559523Y-38992380D02*
X94988095Y-38992380D01*
X95273809Y-38992380D02*
X95273809Y-37992380D01*
X95178571Y-38135238D01*
X95083333Y-38230476D01*
X94988095Y-38278095D01*
X95940476Y-38087619D02*
X95988095Y-38040000D01*
X96083333Y-37992380D01*
X96321428Y-37992380D01*
X96416666Y-38040000D01*
X96464285Y-38087619D01*
X96511904Y-38182857D01*
X96511904Y-38278095D01*
X96464285Y-38420952D01*
X95892857Y-38992380D01*
X96511904Y-38992380D01*
X140357142Y-115257142D02*
X140309523Y-115304761D01*
X140166666Y-115352380D01*
X140071428Y-115352380D01*
X139928571Y-115304761D01*
X139833333Y-115209523D01*
X139785714Y-115114285D01*
X139738095Y-114923809D01*
X139738095Y-114780952D01*
X139785714Y-114590476D01*
X139833333Y-114495238D01*
X139928571Y-114400000D01*
X140071428Y-114352380D01*
X140166666Y-114352380D01*
X140309523Y-114400000D01*
X140357142Y-114447619D01*
X141309523Y-115352380D02*
X140738095Y-115352380D01*
X141023809Y-115352380D02*
X141023809Y-114352380D01*
X140928571Y-114495238D01*
X140833333Y-114590476D01*
X140738095Y-114638095D01*
X141642857Y-114352380D02*
X142261904Y-114352380D01*
X141928571Y-114733333D01*
X142071428Y-114733333D01*
X142166666Y-114780952D01*
X142214285Y-114828571D01*
X142261904Y-114923809D01*
X142261904Y-115161904D01*
X142214285Y-115257142D01*
X142166666Y-115304761D01*
X142071428Y-115352380D01*
X141785714Y-115352380D01*
X141690476Y-115304761D01*
X141642857Y-115257142D01*
X153042142Y-137245142D02*
X152994523Y-137292761D01*
X152851666Y-137340380D01*
X152756428Y-137340380D01*
X152613571Y-137292761D01*
X152518333Y-137197523D01*
X152470714Y-137102285D01*
X152423095Y-136911809D01*
X152423095Y-136768952D01*
X152470714Y-136578476D01*
X152518333Y-136483238D01*
X152613571Y-136388000D01*
X152756428Y-136340380D01*
X152851666Y-136340380D01*
X152994523Y-136388000D01*
X153042142Y-136435619D01*
X153994523Y-137340380D02*
X153423095Y-137340380D01*
X153708809Y-137340380D02*
X153708809Y-136340380D01*
X153613571Y-136483238D01*
X153518333Y-136578476D01*
X153423095Y-136626095D01*
X154851666Y-136673714D02*
X154851666Y-137340380D01*
X154613571Y-136292761D02*
X154375476Y-137007047D01*
X154994523Y-137007047D01*
X140327142Y-120177142D02*
X140279523Y-120224761D01*
X140136666Y-120272380D01*
X140041428Y-120272380D01*
X139898571Y-120224761D01*
X139803333Y-120129523D01*
X139755714Y-120034285D01*
X139708095Y-119843809D01*
X139708095Y-119700952D01*
X139755714Y-119510476D01*
X139803333Y-119415238D01*
X139898571Y-119320000D01*
X140041428Y-119272380D01*
X140136666Y-119272380D01*
X140279523Y-119320000D01*
X140327142Y-119367619D01*
X141279523Y-120272380D02*
X140708095Y-120272380D01*
X140993809Y-120272380D02*
X140993809Y-119272380D01*
X140898571Y-119415238D01*
X140803333Y-119510476D01*
X140708095Y-119558095D01*
X142184285Y-119272380D02*
X141708095Y-119272380D01*
X141660476Y-119748571D01*
X141708095Y-119700952D01*
X141803333Y-119653333D01*
X142041428Y-119653333D01*
X142136666Y-119700952D01*
X142184285Y-119748571D01*
X142231904Y-119843809D01*
X142231904Y-120081904D01*
X142184285Y-120177142D01*
X142136666Y-120224761D01*
X142041428Y-120272380D01*
X141803333Y-120272380D01*
X141708095Y-120224761D01*
X141660476Y-120177142D01*
X120607142Y-114507142D02*
X120559523Y-114554761D01*
X120416666Y-114602380D01*
X120321428Y-114602380D01*
X120178571Y-114554761D01*
X120083333Y-114459523D01*
X120035714Y-114364285D01*
X119988095Y-114173809D01*
X119988095Y-114030952D01*
X120035714Y-113840476D01*
X120083333Y-113745238D01*
X120178571Y-113650000D01*
X120321428Y-113602380D01*
X120416666Y-113602380D01*
X120559523Y-113650000D01*
X120607142Y-113697619D01*
X121559523Y-114602380D02*
X120988095Y-114602380D01*
X121273809Y-114602380D02*
X121273809Y-113602380D01*
X121178571Y-113745238D01*
X121083333Y-113840476D01*
X120988095Y-113888095D01*
X121892857Y-113602380D02*
X122559523Y-113602380D01*
X122130952Y-114602380D01*
X159937142Y-101536666D02*
X159984761Y-101584285D01*
X160032380Y-101727142D01*
X160032380Y-101822380D01*
X159984761Y-101965238D01*
X159889523Y-102060476D01*
X159794285Y-102108095D01*
X159603809Y-102155714D01*
X159460952Y-102155714D01*
X159270476Y-102108095D01*
X159175238Y-102060476D01*
X159080000Y-101965238D01*
X159032380Y-101822380D01*
X159032380Y-101727142D01*
X159080000Y-101584285D01*
X159127619Y-101536666D01*
X159032380Y-101203333D02*
X159032380Y-100584285D01*
X159413333Y-100917619D01*
X159413333Y-100774761D01*
X159460952Y-100679523D01*
X159508571Y-100631904D01*
X159603809Y-100584285D01*
X159841904Y-100584285D01*
X159937142Y-100631904D01*
X159984761Y-100679523D01*
X160032380Y-100774761D01*
X160032380Y-101060476D01*
X159984761Y-101155714D01*
X159937142Y-101203333D01*
X66667142Y-87157142D02*
X66619523Y-87204761D01*
X66476666Y-87252380D01*
X66381428Y-87252380D01*
X66238571Y-87204761D01*
X66143333Y-87109523D01*
X66095714Y-87014285D01*
X66048095Y-86823809D01*
X66048095Y-86680952D01*
X66095714Y-86490476D01*
X66143333Y-86395238D01*
X66238571Y-86300000D01*
X66381428Y-86252380D01*
X66476666Y-86252380D01*
X66619523Y-86300000D01*
X66667142Y-86347619D01*
X67048095Y-86347619D02*
X67095714Y-86300000D01*
X67190952Y-86252380D01*
X67429047Y-86252380D01*
X67524285Y-86300000D01*
X67571904Y-86347619D01*
X67619523Y-86442857D01*
X67619523Y-86538095D01*
X67571904Y-86680952D01*
X67000476Y-87252380D01*
X67619523Y-87252380D01*
X68238571Y-86252380D02*
X68333809Y-86252380D01*
X68429047Y-86300000D01*
X68476666Y-86347619D01*
X68524285Y-86442857D01*
X68571904Y-86633333D01*
X68571904Y-86871428D01*
X68524285Y-87061904D01*
X68476666Y-87157142D01*
X68429047Y-87204761D01*
X68333809Y-87252380D01*
X68238571Y-87252380D01*
X68143333Y-87204761D01*
X68095714Y-87157142D01*
X68048095Y-87061904D01*
X68000476Y-86871428D01*
X68000476Y-86633333D01*
X68048095Y-86442857D01*
X68095714Y-86347619D01*
X68143333Y-86300000D01*
X68238571Y-86252380D01*
X75857142Y-87257142D02*
X75809523Y-87304761D01*
X75666666Y-87352380D01*
X75571428Y-87352380D01*
X75428571Y-87304761D01*
X75333333Y-87209523D01*
X75285714Y-87114285D01*
X75238095Y-86923809D01*
X75238095Y-86780952D01*
X75285714Y-86590476D01*
X75333333Y-86495238D01*
X75428571Y-86400000D01*
X75571428Y-86352380D01*
X75666666Y-86352380D01*
X75809523Y-86400000D01*
X75857142Y-86447619D01*
X76238095Y-86447619D02*
X76285714Y-86400000D01*
X76380952Y-86352380D01*
X76619047Y-86352380D01*
X76714285Y-86400000D01*
X76761904Y-86447619D01*
X76809523Y-86542857D01*
X76809523Y-86638095D01*
X76761904Y-86780952D01*
X76190476Y-87352380D01*
X76809523Y-87352380D01*
X77761904Y-87352380D02*
X77190476Y-87352380D01*
X77476190Y-87352380D02*
X77476190Y-86352380D01*
X77380952Y-86495238D01*
X77285714Y-86590476D01*
X77190476Y-86638095D01*
X83457142Y-96642857D02*
X83504761Y-96690476D01*
X83552380Y-96833333D01*
X83552380Y-96928571D01*
X83504761Y-97071428D01*
X83409523Y-97166666D01*
X83314285Y-97214285D01*
X83123809Y-97261904D01*
X82980952Y-97261904D01*
X82790476Y-97214285D01*
X82695238Y-97166666D01*
X82600000Y-97071428D01*
X82552380Y-96928571D01*
X82552380Y-96833333D01*
X82600000Y-96690476D01*
X82647619Y-96642857D01*
X82647619Y-96261904D02*
X82600000Y-96214285D01*
X82552380Y-96119047D01*
X82552380Y-95880952D01*
X82600000Y-95785714D01*
X82647619Y-95738095D01*
X82742857Y-95690476D01*
X82838095Y-95690476D01*
X82980952Y-95738095D01*
X83552380Y-96309523D01*
X83552380Y-95690476D01*
X82647619Y-95309523D02*
X82600000Y-95261904D01*
X82552380Y-95166666D01*
X82552380Y-94928571D01*
X82600000Y-94833333D01*
X82647619Y-94785714D01*
X82742857Y-94738095D01*
X82838095Y-94738095D01*
X82980952Y-94785714D01*
X83552380Y-95357142D01*
X83552380Y-94738095D01*
X94857142Y-87642857D02*
X94904761Y-87690476D01*
X94952380Y-87833333D01*
X94952380Y-87928571D01*
X94904761Y-88071428D01*
X94809523Y-88166666D01*
X94714285Y-88214285D01*
X94523809Y-88261904D01*
X94380952Y-88261904D01*
X94190476Y-88214285D01*
X94095238Y-88166666D01*
X94000000Y-88071428D01*
X93952380Y-87928571D01*
X93952380Y-87833333D01*
X94000000Y-87690476D01*
X94047619Y-87642857D01*
X94047619Y-87261904D02*
X94000000Y-87214285D01*
X93952380Y-87119047D01*
X93952380Y-86880952D01*
X94000000Y-86785714D01*
X94047619Y-86738095D01*
X94142857Y-86690476D01*
X94238095Y-86690476D01*
X94380952Y-86738095D01*
X94952380Y-87309523D01*
X94952380Y-86690476D01*
X93952380Y-86357142D02*
X93952380Y-85738095D01*
X94333333Y-86071428D01*
X94333333Y-85928571D01*
X94380952Y-85833333D01*
X94428571Y-85785714D01*
X94523809Y-85738095D01*
X94761904Y-85738095D01*
X94857142Y-85785714D01*
X94904761Y-85833333D01*
X94952380Y-85928571D01*
X94952380Y-86214285D01*
X94904761Y-86309523D01*
X94857142Y-86357142D01*
X94757142Y-71642857D02*
X94804761Y-71690476D01*
X94852380Y-71833333D01*
X94852380Y-71928571D01*
X94804761Y-72071428D01*
X94709523Y-72166666D01*
X94614285Y-72214285D01*
X94423809Y-72261904D01*
X94280952Y-72261904D01*
X94090476Y-72214285D01*
X93995238Y-72166666D01*
X93900000Y-72071428D01*
X93852380Y-71928571D01*
X93852380Y-71833333D01*
X93900000Y-71690476D01*
X93947619Y-71642857D01*
X93947619Y-71261904D02*
X93900000Y-71214285D01*
X93852380Y-71119047D01*
X93852380Y-70880952D01*
X93900000Y-70785714D01*
X93947619Y-70738095D01*
X94042857Y-70690476D01*
X94138095Y-70690476D01*
X94280952Y-70738095D01*
X94852380Y-71309523D01*
X94852380Y-70690476D01*
X94185714Y-69833333D02*
X94852380Y-69833333D01*
X93804761Y-70071428D02*
X94519047Y-70309523D01*
X94519047Y-69690476D01*
X100857142Y-75757142D02*
X100809523Y-75804761D01*
X100666666Y-75852380D01*
X100571428Y-75852380D01*
X100428571Y-75804761D01*
X100333333Y-75709523D01*
X100285714Y-75614285D01*
X100238095Y-75423809D01*
X100238095Y-75280952D01*
X100285714Y-75090476D01*
X100333333Y-74995238D01*
X100428571Y-74900000D01*
X100571428Y-74852380D01*
X100666666Y-74852380D01*
X100809523Y-74900000D01*
X100857142Y-74947619D01*
X101238095Y-74947619D02*
X101285714Y-74900000D01*
X101380952Y-74852380D01*
X101619047Y-74852380D01*
X101714285Y-74900000D01*
X101761904Y-74947619D01*
X101809523Y-75042857D01*
X101809523Y-75138095D01*
X101761904Y-75280952D01*
X101190476Y-75852380D01*
X101809523Y-75852380D01*
X102714285Y-74852380D02*
X102238095Y-74852380D01*
X102190476Y-75328571D01*
X102238095Y-75280952D01*
X102333333Y-75233333D01*
X102571428Y-75233333D01*
X102666666Y-75280952D01*
X102714285Y-75328571D01*
X102761904Y-75423809D01*
X102761904Y-75661904D01*
X102714285Y-75757142D01*
X102666666Y-75804761D01*
X102571428Y-75852380D01*
X102333333Y-75852380D01*
X102238095Y-75804761D01*
X102190476Y-75757142D01*
X100857142Y-70757142D02*
X100809523Y-70804761D01*
X100666666Y-70852380D01*
X100571428Y-70852380D01*
X100428571Y-70804761D01*
X100333333Y-70709523D01*
X100285714Y-70614285D01*
X100238095Y-70423809D01*
X100238095Y-70280952D01*
X100285714Y-70090476D01*
X100333333Y-69995238D01*
X100428571Y-69900000D01*
X100571428Y-69852380D01*
X100666666Y-69852380D01*
X100809523Y-69900000D01*
X100857142Y-69947619D01*
X101238095Y-69947619D02*
X101285714Y-69900000D01*
X101380952Y-69852380D01*
X101619047Y-69852380D01*
X101714285Y-69900000D01*
X101761904Y-69947619D01*
X101809523Y-70042857D01*
X101809523Y-70138095D01*
X101761904Y-70280952D01*
X101190476Y-70852380D01*
X101809523Y-70852380D01*
X102666666Y-69852380D02*
X102476190Y-69852380D01*
X102380952Y-69900000D01*
X102333333Y-69947619D01*
X102238095Y-70090476D01*
X102190476Y-70280952D01*
X102190476Y-70661904D01*
X102238095Y-70757142D01*
X102285714Y-70804761D01*
X102380952Y-70852380D01*
X102571428Y-70852380D01*
X102666666Y-70804761D01*
X102714285Y-70757142D01*
X102761904Y-70661904D01*
X102761904Y-70423809D01*
X102714285Y-70328571D01*
X102666666Y-70280952D01*
X102571428Y-70233333D01*
X102380952Y-70233333D01*
X102285714Y-70280952D01*
X102238095Y-70328571D01*
X102190476Y-70423809D01*
X92857142Y-66857142D02*
X92809523Y-66904761D01*
X92666666Y-66952380D01*
X92571428Y-66952380D01*
X92428571Y-66904761D01*
X92333333Y-66809523D01*
X92285714Y-66714285D01*
X92238095Y-66523809D01*
X92238095Y-66380952D01*
X92285714Y-66190476D01*
X92333333Y-66095238D01*
X92428571Y-66000000D01*
X92571428Y-65952380D01*
X92666666Y-65952380D01*
X92809523Y-66000000D01*
X92857142Y-66047619D01*
X93238095Y-66047619D02*
X93285714Y-66000000D01*
X93380952Y-65952380D01*
X93619047Y-65952380D01*
X93714285Y-66000000D01*
X93761904Y-66047619D01*
X93809523Y-66142857D01*
X93809523Y-66238095D01*
X93761904Y-66380952D01*
X93190476Y-66952380D01*
X93809523Y-66952380D01*
X94142857Y-65952380D02*
X94809523Y-65952380D01*
X94380952Y-66952380D01*
X96857142Y-55257142D02*
X96809523Y-55304761D01*
X96666666Y-55352380D01*
X96571428Y-55352380D01*
X96428571Y-55304761D01*
X96333333Y-55209523D01*
X96285714Y-55114285D01*
X96238095Y-54923809D01*
X96238095Y-54780952D01*
X96285714Y-54590476D01*
X96333333Y-54495238D01*
X96428571Y-54400000D01*
X96571428Y-54352380D01*
X96666666Y-54352380D01*
X96809523Y-54400000D01*
X96857142Y-54447619D01*
X97238095Y-54447619D02*
X97285714Y-54400000D01*
X97380952Y-54352380D01*
X97619047Y-54352380D01*
X97714285Y-54400000D01*
X97761904Y-54447619D01*
X97809523Y-54542857D01*
X97809523Y-54638095D01*
X97761904Y-54780952D01*
X97190476Y-55352380D01*
X97809523Y-55352380D01*
X98380952Y-54780952D02*
X98285714Y-54733333D01*
X98238095Y-54685714D01*
X98190476Y-54590476D01*
X98190476Y-54542857D01*
X98238095Y-54447619D01*
X98285714Y-54400000D01*
X98380952Y-54352380D01*
X98571428Y-54352380D01*
X98666666Y-54400000D01*
X98714285Y-54447619D01*
X98761904Y-54542857D01*
X98761904Y-54590476D01*
X98714285Y-54685714D01*
X98666666Y-54733333D01*
X98571428Y-54780952D01*
X98380952Y-54780952D01*
X98285714Y-54828571D01*
X98238095Y-54876190D01*
X98190476Y-54971428D01*
X98190476Y-55161904D01*
X98238095Y-55257142D01*
X98285714Y-55304761D01*
X98380952Y-55352380D01*
X98571428Y-55352380D01*
X98666666Y-55304761D01*
X98714285Y-55257142D01*
X98761904Y-55161904D01*
X98761904Y-54971428D01*
X98714285Y-54876190D01*
X98666666Y-54828571D01*
X98571428Y-54780952D01*
X100857142Y-86757142D02*
X100809523Y-86804761D01*
X100666666Y-86852380D01*
X100571428Y-86852380D01*
X100428571Y-86804761D01*
X100333333Y-86709523D01*
X100285714Y-86614285D01*
X100238095Y-86423809D01*
X100238095Y-86280952D01*
X100285714Y-86090476D01*
X100333333Y-85995238D01*
X100428571Y-85900000D01*
X100571428Y-85852380D01*
X100666666Y-85852380D01*
X100809523Y-85900000D01*
X100857142Y-85947619D01*
X101238095Y-85947619D02*
X101285714Y-85900000D01*
X101380952Y-85852380D01*
X101619047Y-85852380D01*
X101714285Y-85900000D01*
X101761904Y-85947619D01*
X101809523Y-86042857D01*
X101809523Y-86138095D01*
X101761904Y-86280952D01*
X101190476Y-86852380D01*
X101809523Y-86852380D01*
X102285714Y-86852380D02*
X102476190Y-86852380D01*
X102571428Y-86804761D01*
X102619047Y-86757142D01*
X102714285Y-86614285D01*
X102761904Y-86423809D01*
X102761904Y-86042857D01*
X102714285Y-85947619D01*
X102666666Y-85900000D01*
X102571428Y-85852380D01*
X102380952Y-85852380D01*
X102285714Y-85900000D01*
X102238095Y-85947619D01*
X102190476Y-86042857D01*
X102190476Y-86280952D01*
X102238095Y-86376190D01*
X102285714Y-86423809D01*
X102380952Y-86471428D01*
X102571428Y-86471428D01*
X102666666Y-86423809D01*
X102714285Y-86376190D01*
X102761904Y-86280952D01*
X104857142Y-173457142D02*
X104809523Y-173504761D01*
X104666666Y-173552380D01*
X104571428Y-173552380D01*
X104428571Y-173504761D01*
X104333333Y-173409523D01*
X104285714Y-173314285D01*
X104238095Y-173123809D01*
X104238095Y-172980952D01*
X104285714Y-172790476D01*
X104333333Y-172695238D01*
X104428571Y-172600000D01*
X104571428Y-172552380D01*
X104666666Y-172552380D01*
X104809523Y-172600000D01*
X104857142Y-172647619D01*
X105190476Y-172552380D02*
X105809523Y-172552380D01*
X105476190Y-172933333D01*
X105619047Y-172933333D01*
X105714285Y-172980952D01*
X105761904Y-173028571D01*
X105809523Y-173123809D01*
X105809523Y-173361904D01*
X105761904Y-173457142D01*
X105714285Y-173504761D01*
X105619047Y-173552380D01*
X105333333Y-173552380D01*
X105238095Y-173504761D01*
X105190476Y-173457142D01*
X106428571Y-172552380D02*
X106523809Y-172552380D01*
X106619047Y-172600000D01*
X106666666Y-172647619D01*
X106714285Y-172742857D01*
X106761904Y-172933333D01*
X106761904Y-173171428D01*
X106714285Y-173361904D01*
X106666666Y-173457142D01*
X106619047Y-173504761D01*
X106523809Y-173552380D01*
X106428571Y-173552380D01*
X106333333Y-173504761D01*
X106285714Y-173457142D01*
X106238095Y-173361904D01*
X106190476Y-173171428D01*
X106190476Y-172933333D01*
X106238095Y-172742857D01*
X106285714Y-172647619D01*
X106333333Y-172600000D01*
X106428571Y-172552380D01*
X116357142Y-160257142D02*
X116309523Y-160304761D01*
X116166666Y-160352380D01*
X116071428Y-160352380D01*
X115928571Y-160304761D01*
X115833333Y-160209523D01*
X115785714Y-160114285D01*
X115738095Y-159923809D01*
X115738095Y-159780952D01*
X115785714Y-159590476D01*
X115833333Y-159495238D01*
X115928571Y-159400000D01*
X116071428Y-159352380D01*
X116166666Y-159352380D01*
X116309523Y-159400000D01*
X116357142Y-159447619D01*
X116690476Y-159352380D02*
X117309523Y-159352380D01*
X116976190Y-159733333D01*
X117119047Y-159733333D01*
X117214285Y-159780952D01*
X117261904Y-159828571D01*
X117309523Y-159923809D01*
X117309523Y-160161904D01*
X117261904Y-160257142D01*
X117214285Y-160304761D01*
X117119047Y-160352380D01*
X116833333Y-160352380D01*
X116738095Y-160304761D01*
X116690476Y-160257142D01*
X118261904Y-160352380D02*
X117690476Y-160352380D01*
X117976190Y-160352380D02*
X117976190Y-159352380D01*
X117880952Y-159495238D01*
X117785714Y-159590476D01*
X117690476Y-159638095D01*
X102857142Y-123257142D02*
X102809523Y-123304761D01*
X102666666Y-123352380D01*
X102571428Y-123352380D01*
X102428571Y-123304761D01*
X102333333Y-123209523D01*
X102285714Y-123114285D01*
X102238095Y-122923809D01*
X102238095Y-122780952D01*
X102285714Y-122590476D01*
X102333333Y-122495238D01*
X102428571Y-122400000D01*
X102571428Y-122352380D01*
X102666666Y-122352380D01*
X102809523Y-122400000D01*
X102857142Y-122447619D01*
X103190476Y-122352380D02*
X103809523Y-122352380D01*
X103476190Y-122733333D01*
X103619047Y-122733333D01*
X103714285Y-122780952D01*
X103761904Y-122828571D01*
X103809523Y-122923809D01*
X103809523Y-123161904D01*
X103761904Y-123257142D01*
X103714285Y-123304761D01*
X103619047Y-123352380D01*
X103333333Y-123352380D01*
X103238095Y-123304761D01*
X103190476Y-123257142D01*
X104190476Y-122447619D02*
X104238095Y-122400000D01*
X104333333Y-122352380D01*
X104571428Y-122352380D01*
X104666666Y-122400000D01*
X104714285Y-122447619D01*
X104761904Y-122542857D01*
X104761904Y-122638095D01*
X104714285Y-122780952D01*
X104142857Y-123352380D01*
X104761904Y-123352380D01*
X150107142Y-131116666D02*
X150154761Y-131164285D01*
X150202380Y-131307142D01*
X150202380Y-131402380D01*
X150154761Y-131545238D01*
X150059523Y-131640476D01*
X149964285Y-131688095D01*
X149773809Y-131735714D01*
X149630952Y-131735714D01*
X149440476Y-131688095D01*
X149345238Y-131640476D01*
X149250000Y-131545238D01*
X149202380Y-131402380D01*
X149202380Y-131307142D01*
X149250000Y-131164285D01*
X149297619Y-131116666D01*
X149535714Y-130259523D02*
X150202380Y-130259523D01*
X149154761Y-130497619D02*
X149869047Y-130735714D01*
X149869047Y-130116666D01*
X142957142Y-46166666D02*
X143004761Y-46214285D01*
X143052380Y-46357142D01*
X143052380Y-46452380D01*
X143004761Y-46595238D01*
X142909523Y-46690476D01*
X142814285Y-46738095D01*
X142623809Y-46785714D01*
X142480952Y-46785714D01*
X142290476Y-46738095D01*
X142195238Y-46690476D01*
X142100000Y-46595238D01*
X142052380Y-46452380D01*
X142052380Y-46357142D01*
X142100000Y-46214285D01*
X142147619Y-46166666D01*
X143052380Y-45214285D02*
X143052380Y-45785714D01*
X143052380Y-45500000D02*
X142052380Y-45500000D01*
X142195238Y-45595238D01*
X142290476Y-45690476D01*
X142338095Y-45785714D01*
X154857142Y-72786666D02*
X154904761Y-72834285D01*
X154952380Y-72977142D01*
X154952380Y-73072380D01*
X154904761Y-73215238D01*
X154809523Y-73310476D01*
X154714285Y-73358095D01*
X154523809Y-73405714D01*
X154380952Y-73405714D01*
X154190476Y-73358095D01*
X154095238Y-73310476D01*
X154000000Y-73215238D01*
X153952380Y-73072380D01*
X153952380Y-72977142D01*
X154000000Y-72834285D01*
X154047619Y-72786666D01*
X154047619Y-72405714D02*
X154000000Y-72358095D01*
X153952380Y-72262857D01*
X153952380Y-72024761D01*
X154000000Y-71929523D01*
X154047619Y-71881904D01*
X154142857Y-71834285D01*
X154238095Y-71834285D01*
X154380952Y-71881904D01*
X154952380Y-72453333D01*
X154952380Y-71834285D01*
X116261904Y-168002380D02*
X116261904Y-167002380D01*
X116642857Y-167002380D01*
X116738095Y-167050000D01*
X116785714Y-167097619D01*
X116833333Y-167192857D01*
X116833333Y-167335714D01*
X116785714Y-167430952D01*
X116738095Y-167478571D01*
X116642857Y-167526190D01*
X116261904Y-167526190D01*
X117690476Y-167335714D02*
X117690476Y-168002380D01*
X117452380Y-166954761D02*
X117214285Y-167669047D01*
X117833333Y-167669047D01*
X77380952Y-137952380D02*
X77380952Y-136952380D01*
X77761904Y-136952380D01*
X77857142Y-137000000D01*
X77904761Y-137047619D01*
X77952380Y-137142857D01*
X77952380Y-137285714D01*
X77904761Y-137380952D01*
X77857142Y-137428571D01*
X77761904Y-137476190D01*
X77380952Y-137476190D01*
X78238095Y-136952380D02*
X78809523Y-136952380D01*
X78523809Y-137952380D02*
X78523809Y-136952380D01*
X79714285Y-137857142D02*
X79666666Y-137904761D01*
X79523809Y-137952380D01*
X79428571Y-137952380D01*
X79285714Y-137904761D01*
X79190476Y-137809523D01*
X79142857Y-137714285D01*
X79095238Y-137523809D01*
X79095238Y-137380952D01*
X79142857Y-137190476D01*
X79190476Y-137095238D01*
X79285714Y-137000000D01*
X79428571Y-136952380D01*
X79523809Y-136952380D01*
X79666666Y-137000000D01*
X79714285Y-137047619D01*
X80571428Y-137285714D02*
X80571428Y-137952380D01*
X80333333Y-136904761D02*
X80095238Y-137619047D01*
X80714285Y-137619047D01*
X72904761Y-53404761D02*
X73047619Y-53452380D01*
X73285714Y-53452380D01*
X73380952Y-53404761D01*
X73428571Y-53357142D01*
X73476190Y-53261904D01*
X73476190Y-53166666D01*
X73428571Y-53071428D01*
X73380952Y-53023809D01*
X73285714Y-52976190D01*
X73095238Y-52928571D01*
X73000000Y-52880952D01*
X72952380Y-52833333D01*
X72904761Y-52738095D01*
X72904761Y-52642857D01*
X72952380Y-52547619D01*
X73000000Y-52500000D01*
X73095238Y-52452380D01*
X73333333Y-52452380D01*
X73476190Y-52500000D01*
X73904761Y-53452380D02*
X73904761Y-52452380D01*
X74285714Y-52452380D01*
X74380952Y-52500000D01*
X74428571Y-52547619D01*
X74476190Y-52642857D01*
X74476190Y-52785714D01*
X74428571Y-52880952D01*
X74380952Y-52928571D01*
X74285714Y-52976190D01*
X73904761Y-52976190D01*
X74904761Y-53452380D02*
X74904761Y-52452380D01*
X75142857Y-53547619D02*
X75904761Y-53547619D01*
X76714285Y-53357142D02*
X76666666Y-53404761D01*
X76523809Y-53452380D01*
X76428571Y-53452380D01*
X76285714Y-53404761D01*
X76190476Y-53309523D01*
X76142857Y-53214285D01*
X76095238Y-53023809D01*
X76095238Y-52880952D01*
X76142857Y-52690476D01*
X76190476Y-52595238D01*
X76285714Y-52500000D01*
X76428571Y-52452380D01*
X76523809Y-52452380D01*
X76666666Y-52500000D01*
X76714285Y-52547619D01*
X77142857Y-53452380D02*
X77142857Y-52452380D01*
X77142857Y-52928571D02*
X77714285Y-52928571D01*
X77714285Y-53452380D02*
X77714285Y-52452380D01*
X78714285Y-53452380D02*
X78142857Y-53452380D01*
X78428571Y-53452380D02*
X78428571Y-52452380D01*
X78333333Y-52595238D01*
X78238095Y-52690476D01*
X78142857Y-52738095D01*
X78904761Y-53547619D02*
X79666666Y-53547619D01*
X79904761Y-53452380D02*
X79904761Y-52452380D01*
X80238095Y-53166666D01*
X80571428Y-52452380D01*
X80571428Y-53452380D01*
X81238095Y-52452380D02*
X81428571Y-52452380D01*
X81523809Y-52500000D01*
X81619047Y-52595238D01*
X81666666Y-52785714D01*
X81666666Y-53119047D01*
X81619047Y-53309523D01*
X81523809Y-53404761D01*
X81428571Y-53452380D01*
X81238095Y-53452380D01*
X81142857Y-53404761D01*
X81047619Y-53309523D01*
X81000000Y-53119047D01*
X81000000Y-52785714D01*
X81047619Y-52595238D01*
X81142857Y-52500000D01*
X81238095Y-52452380D01*
X82047619Y-53404761D02*
X82190476Y-53452380D01*
X82428571Y-53452380D01*
X82523809Y-53404761D01*
X82571428Y-53357142D01*
X82619047Y-53261904D01*
X82619047Y-53166666D01*
X82571428Y-53071428D01*
X82523809Y-53023809D01*
X82428571Y-52976190D01*
X82238095Y-52928571D01*
X82142857Y-52880952D01*
X82095238Y-52833333D01*
X82047619Y-52738095D01*
X82047619Y-52642857D01*
X82095238Y-52547619D01*
X82142857Y-52500000D01*
X82238095Y-52452380D01*
X82476190Y-52452380D01*
X82619047Y-52500000D01*
X83047619Y-53452380D02*
X83047619Y-52452380D01*
X72904761Y-42404761D02*
X73047619Y-42452380D01*
X73285714Y-42452380D01*
X73380952Y-42404761D01*
X73428571Y-42357142D01*
X73476190Y-42261904D01*
X73476190Y-42166666D01*
X73428571Y-42071428D01*
X73380952Y-42023809D01*
X73285714Y-41976190D01*
X73095238Y-41928571D01*
X73000000Y-41880952D01*
X72952380Y-41833333D01*
X72904761Y-41738095D01*
X72904761Y-41642857D01*
X72952380Y-41547619D01*
X73000000Y-41500000D01*
X73095238Y-41452380D01*
X73333333Y-41452380D01*
X73476190Y-41500000D01*
X73904761Y-42452380D02*
X73904761Y-41452380D01*
X74285714Y-41452380D01*
X74380952Y-41500000D01*
X74428571Y-41547619D01*
X74476190Y-41642857D01*
X74476190Y-41785714D01*
X74428571Y-41880952D01*
X74380952Y-41928571D01*
X74285714Y-41976190D01*
X73904761Y-41976190D01*
X74904761Y-42452380D02*
X74904761Y-41452380D01*
X75142857Y-42547619D02*
X75904761Y-42547619D01*
X76714285Y-42357142D02*
X76666666Y-42404761D01*
X76523809Y-42452380D01*
X76428571Y-42452380D01*
X76285714Y-42404761D01*
X76190476Y-42309523D01*
X76142857Y-42214285D01*
X76095238Y-42023809D01*
X76095238Y-41880952D01*
X76142857Y-41690476D01*
X76190476Y-41595238D01*
X76285714Y-41500000D01*
X76428571Y-41452380D01*
X76523809Y-41452380D01*
X76666666Y-41500000D01*
X76714285Y-41547619D01*
X77142857Y-42452380D02*
X77142857Y-41452380D01*
X77142857Y-41928571D02*
X77714285Y-41928571D01*
X77714285Y-42452380D02*
X77714285Y-41452380D01*
X78714285Y-42452380D02*
X78142857Y-42452380D01*
X78428571Y-42452380D02*
X78428571Y-41452380D01*
X78333333Y-41595238D01*
X78238095Y-41690476D01*
X78142857Y-41738095D01*
X78904761Y-42547619D02*
X79666666Y-42547619D01*
X79904761Y-42452380D02*
X79904761Y-41452380D01*
X80238095Y-42166666D01*
X80571428Y-41452380D01*
X80571428Y-42452380D01*
X81047619Y-42452380D02*
X81047619Y-41452380D01*
X81476190Y-42404761D02*
X81619047Y-42452380D01*
X81857142Y-42452380D01*
X81952380Y-42404761D01*
X82000000Y-42357142D01*
X82047619Y-42261904D01*
X82047619Y-42166666D01*
X82000000Y-42071428D01*
X81952380Y-42023809D01*
X81857142Y-41976190D01*
X81666666Y-41928571D01*
X81571428Y-41880952D01*
X81523809Y-41833333D01*
X81476190Y-41738095D01*
X81476190Y-41642857D01*
X81523809Y-41547619D01*
X81571428Y-41500000D01*
X81666666Y-41452380D01*
X81904761Y-41452380D01*
X82047619Y-41500000D01*
X82666666Y-41452380D02*
X82857142Y-41452380D01*
X82952380Y-41500000D01*
X83047619Y-41595238D01*
X83095238Y-41785714D01*
X83095238Y-42119047D01*
X83047619Y-42309523D01*
X82952380Y-42404761D01*
X82857142Y-42452380D01*
X82666666Y-42452380D01*
X82571428Y-42404761D01*
X82476190Y-42309523D01*
X82428571Y-42119047D01*
X82428571Y-41785714D01*
X82476190Y-41595238D01*
X82571428Y-41500000D01*
X82666666Y-41452380D01*
X72833333Y-47904761D02*
X72976190Y-47952380D01*
X73214285Y-47952380D01*
X73309523Y-47904761D01*
X73357142Y-47857142D01*
X73404761Y-47761904D01*
X73404761Y-47666666D01*
X73357142Y-47571428D01*
X73309523Y-47523809D01*
X73214285Y-47476190D01*
X73023809Y-47428571D01*
X72928571Y-47380952D01*
X72880952Y-47333333D01*
X72833333Y-47238095D01*
X72833333Y-47142857D01*
X72880952Y-47047619D01*
X72928571Y-47000000D01*
X73023809Y-46952380D01*
X73261904Y-46952380D01*
X73404761Y-47000000D01*
X73833333Y-47952380D02*
X73833333Y-46952380D01*
X74214285Y-46952380D01*
X74309523Y-47000000D01*
X74357142Y-47047619D01*
X74404761Y-47142857D01*
X74404761Y-47285714D01*
X74357142Y-47380952D01*
X74309523Y-47428571D01*
X74214285Y-47476190D01*
X73833333Y-47476190D01*
X74833333Y-47952380D02*
X74833333Y-46952380D01*
X75071428Y-48047619D02*
X75833333Y-48047619D01*
X76642857Y-47857142D02*
X76595238Y-47904761D01*
X76452380Y-47952380D01*
X76357142Y-47952380D01*
X76214285Y-47904761D01*
X76119047Y-47809523D01*
X76071428Y-47714285D01*
X76023809Y-47523809D01*
X76023809Y-47380952D01*
X76071428Y-47190476D01*
X76119047Y-47095238D01*
X76214285Y-47000000D01*
X76357142Y-46952380D01*
X76452380Y-46952380D01*
X76595238Y-47000000D01*
X76642857Y-47047619D01*
X77071428Y-47952380D02*
X77071428Y-46952380D01*
X77071428Y-47428571D02*
X77642857Y-47428571D01*
X77642857Y-47952380D02*
X77642857Y-46952380D01*
X78642857Y-47952380D02*
X78071428Y-47952380D01*
X78357142Y-47952380D02*
X78357142Y-46952380D01*
X78261904Y-47095238D01*
X78166666Y-47190476D01*
X78071428Y-47238095D01*
X78833333Y-48047619D02*
X79595238Y-48047619D01*
X79785714Y-47904761D02*
X79928571Y-47952380D01*
X80166666Y-47952380D01*
X80261904Y-47904761D01*
X80309523Y-47857142D01*
X80357142Y-47761904D01*
X80357142Y-47666666D01*
X80309523Y-47571428D01*
X80261904Y-47523809D01*
X80166666Y-47476190D01*
X79976190Y-47428571D01*
X79880952Y-47380952D01*
X79833333Y-47333333D01*
X79785714Y-47238095D01*
X79785714Y-47142857D01*
X79833333Y-47047619D01*
X79880952Y-47000000D01*
X79976190Y-46952380D01*
X80214285Y-46952380D01*
X80357142Y-47000000D01*
X81357142Y-47857142D02*
X81309523Y-47904761D01*
X81166666Y-47952380D01*
X81071428Y-47952380D01*
X80928571Y-47904761D01*
X80833333Y-47809523D01*
X80785714Y-47714285D01*
X80738095Y-47523809D01*
X80738095Y-47380952D01*
X80785714Y-47190476D01*
X80833333Y-47095238D01*
X80928571Y-47000000D01*
X81071428Y-46952380D01*
X81166666Y-46952380D01*
X81309523Y-47000000D01*
X81357142Y-47047619D01*
X82261904Y-47952380D02*
X81785714Y-47952380D01*
X81785714Y-46952380D01*
X82595238Y-47952380D02*
X82595238Y-46952380D01*
X83166666Y-47952380D02*
X82738095Y-47380952D01*
X83166666Y-46952380D02*
X82595238Y-47523809D01*
X77352380Y-34152380D02*
X76876190Y-34152380D01*
X76876190Y-33152380D01*
X77685714Y-33628571D02*
X78019047Y-33628571D01*
X78161904Y-34152380D02*
X77685714Y-34152380D01*
X77685714Y-33152380D01*
X78161904Y-33152380D01*
X78590476Y-34152380D02*
X78590476Y-33152380D01*
X78828571Y-33152380D01*
X78971428Y-33200000D01*
X79066666Y-33295238D01*
X79114285Y-33390476D01*
X79161904Y-33580952D01*
X79161904Y-33723809D01*
X79114285Y-33914285D01*
X79066666Y-34009523D01*
X78971428Y-34104761D01*
X78828571Y-34152380D01*
X78590476Y-34152380D01*
X79352380Y-34247619D02*
X80114285Y-34247619D01*
X80923809Y-34057142D02*
X80876190Y-34104761D01*
X80733333Y-34152380D01*
X80638095Y-34152380D01*
X80495238Y-34104761D01*
X80400000Y-34009523D01*
X80352380Y-33914285D01*
X80304761Y-33723809D01*
X80304761Y-33580952D01*
X80352380Y-33390476D01*
X80400000Y-33295238D01*
X80495238Y-33200000D01*
X80638095Y-33152380D01*
X80733333Y-33152380D01*
X80876190Y-33200000D01*
X80923809Y-33247619D01*
X81352380Y-34152380D02*
X81352380Y-33152380D01*
X81352380Y-33628571D02*
X81923809Y-33628571D01*
X81923809Y-34152380D02*
X81923809Y-33152380D01*
X82352380Y-33866666D02*
X82828571Y-33866666D01*
X82257142Y-34152380D02*
X82590476Y-33152380D01*
X82923809Y-34152380D01*
X83257142Y-34152380D02*
X83257142Y-33152380D01*
X83733333Y-34152380D02*
X83733333Y-33152380D01*
X84304761Y-34152380D01*
X84304761Y-33152380D01*
X84542857Y-34247619D02*
X85304761Y-34247619D01*
X85733333Y-33152380D02*
X85923809Y-33152380D01*
X86019047Y-33200000D01*
X86114285Y-33295238D01*
X86161904Y-33485714D01*
X86161904Y-33819047D01*
X86114285Y-34009523D01*
X86019047Y-34104761D01*
X85923809Y-34152380D01*
X85733333Y-34152380D01*
X85638095Y-34104761D01*
X85542857Y-34009523D01*
X85495238Y-33819047D01*
X85495238Y-33485714D01*
X85542857Y-33295238D01*
X85638095Y-33200000D01*
X85733333Y-33152380D01*
X86590476Y-33152380D02*
X86590476Y-33961904D01*
X86638095Y-34057142D01*
X86685714Y-34104761D01*
X86780952Y-34152380D01*
X86971428Y-34152380D01*
X87066666Y-34104761D01*
X87114285Y-34057142D01*
X87161904Y-33961904D01*
X87161904Y-33152380D01*
X87495238Y-33152380D02*
X88066666Y-33152380D01*
X87780952Y-34152380D02*
X87780952Y-33152380D01*
X101880952Y-137952380D02*
X101880952Y-136952380D01*
X102261904Y-136952380D01*
X102357142Y-137000000D01*
X102404761Y-137047619D01*
X102452380Y-137142857D01*
X102452380Y-137285714D01*
X102404761Y-137380952D01*
X102357142Y-137428571D01*
X102261904Y-137476190D01*
X101880952Y-137476190D01*
X102738095Y-136952380D02*
X103309523Y-136952380D01*
X103023809Y-137952380D02*
X103023809Y-136952380D01*
X103642857Y-137952380D02*
X103642857Y-136952380D01*
X103880952Y-136952380D01*
X104023809Y-137000000D01*
X104119047Y-137095238D01*
X104166666Y-137190476D01*
X104214285Y-137380952D01*
X104214285Y-137523809D01*
X104166666Y-137714285D01*
X104119047Y-137809523D01*
X104023809Y-137904761D01*
X103880952Y-137952380D01*
X103642857Y-137952380D01*
X105071428Y-136952380D02*
X104880952Y-136952380D01*
X104785714Y-137000000D01*
X104738095Y-137047619D01*
X104642857Y-137190476D01*
X104595238Y-137380952D01*
X104595238Y-137761904D01*
X104642857Y-137857142D01*
X104690476Y-137904761D01*
X104785714Y-137952380D01*
X104976190Y-137952380D01*
X105071428Y-137904761D01*
X105119047Y-137857142D01*
X105166666Y-137761904D01*
X105166666Y-137523809D01*
X105119047Y-137428571D01*
X105071428Y-137380952D01*
X104976190Y-137333333D01*
X104785714Y-137333333D01*
X104690476Y-137380952D01*
X104642857Y-137428571D01*
X104595238Y-137523809D01*
X96250952Y-138042380D02*
X96250952Y-137042380D01*
X96631904Y-137042380D01*
X96727142Y-137090000D01*
X96774761Y-137137619D01*
X96822380Y-137232857D01*
X96822380Y-137375714D01*
X96774761Y-137470952D01*
X96727142Y-137518571D01*
X96631904Y-137566190D01*
X96250952Y-137566190D01*
X97108095Y-137042380D02*
X97679523Y-137042380D01*
X97393809Y-138042380D02*
X97393809Y-137042380D01*
X98346190Y-137518571D02*
X98489047Y-137566190D01*
X98536666Y-137613809D01*
X98584285Y-137709047D01*
X98584285Y-137851904D01*
X98536666Y-137947142D01*
X98489047Y-137994761D01*
X98393809Y-138042380D01*
X98012857Y-138042380D01*
X98012857Y-137042380D01*
X98346190Y-137042380D01*
X98441428Y-137090000D01*
X98489047Y-137137619D01*
X98536666Y-137232857D01*
X98536666Y-137328095D01*
X98489047Y-137423333D01*
X98441428Y-137470952D01*
X98346190Y-137518571D01*
X98012857Y-137518571D01*
X99536666Y-138042380D02*
X98965238Y-138042380D01*
X99250952Y-138042380D02*
X99250952Y-137042380D01*
X99155714Y-137185238D01*
X99060476Y-137280476D01*
X98965238Y-137328095D01*
X72380952Y-137952380D02*
X72380952Y-136952380D01*
X72761904Y-136952380D01*
X72857142Y-137000000D01*
X72904761Y-137047619D01*
X72952380Y-137142857D01*
X72952380Y-137285714D01*
X72904761Y-137380952D01*
X72857142Y-137428571D01*
X72761904Y-137476190D01*
X72380952Y-137476190D01*
X73238095Y-136952380D02*
X73809523Y-136952380D01*
X73523809Y-137952380D02*
X73523809Y-136952380D01*
X74714285Y-137857142D02*
X74666666Y-137904761D01*
X74523809Y-137952380D01*
X74428571Y-137952380D01*
X74285714Y-137904761D01*
X74190476Y-137809523D01*
X74142857Y-137714285D01*
X74095238Y-137523809D01*
X74095238Y-137380952D01*
X74142857Y-137190476D01*
X74190476Y-137095238D01*
X74285714Y-137000000D01*
X74428571Y-136952380D01*
X74523809Y-136952380D01*
X74666666Y-137000000D01*
X74714285Y-137047619D01*
X75047619Y-136952380D02*
X75666666Y-136952380D01*
X75333333Y-137333333D01*
X75476190Y-137333333D01*
X75571428Y-137380952D01*
X75619047Y-137428571D01*
X75666666Y-137523809D01*
X75666666Y-137761904D01*
X75619047Y-137857142D01*
X75571428Y-137904761D01*
X75476190Y-137952380D01*
X75190476Y-137952380D01*
X75095238Y-137904761D01*
X75047619Y-137857142D01*
X67590952Y-137922380D02*
X67590952Y-136922380D01*
X67971904Y-136922380D01*
X68067142Y-136970000D01*
X68114761Y-137017619D01*
X68162380Y-137112857D01*
X68162380Y-137255714D01*
X68114761Y-137350952D01*
X68067142Y-137398571D01*
X67971904Y-137446190D01*
X67590952Y-137446190D01*
X68448095Y-136922380D02*
X69019523Y-136922380D01*
X68733809Y-137922380D02*
X68733809Y-136922380D01*
X69924285Y-137827142D02*
X69876666Y-137874761D01*
X69733809Y-137922380D01*
X69638571Y-137922380D01*
X69495714Y-137874761D01*
X69400476Y-137779523D01*
X69352857Y-137684285D01*
X69305238Y-137493809D01*
X69305238Y-137350952D01*
X69352857Y-137160476D01*
X69400476Y-137065238D01*
X69495714Y-136970000D01*
X69638571Y-136922380D01*
X69733809Y-136922380D01*
X69876666Y-136970000D01*
X69924285Y-137017619D01*
X70876666Y-137922380D02*
X70305238Y-137922380D01*
X70590952Y-137922380D02*
X70590952Y-136922380D01*
X70495714Y-137065238D01*
X70400476Y-137160476D01*
X70305238Y-137208095D01*
X85357142Y-156052380D02*
X85023809Y-155576190D01*
X84785714Y-156052380D02*
X84785714Y-155052380D01*
X85166666Y-155052380D01*
X85261904Y-155100000D01*
X85309523Y-155147619D01*
X85357142Y-155242857D01*
X85357142Y-155385714D01*
X85309523Y-155480952D01*
X85261904Y-155528571D01*
X85166666Y-155576190D01*
X84785714Y-155576190D01*
X86309523Y-156052380D02*
X85738095Y-156052380D01*
X86023809Y-156052380D02*
X86023809Y-155052380D01*
X85928571Y-155195238D01*
X85833333Y-155290476D01*
X85738095Y-155338095D01*
X87166666Y-155052380D02*
X86976190Y-155052380D01*
X86880952Y-155100000D01*
X86833333Y-155147619D01*
X86738095Y-155290476D01*
X86690476Y-155480952D01*
X86690476Y-155861904D01*
X86738095Y-155957142D01*
X86785714Y-156004761D01*
X86880952Y-156052380D01*
X87071428Y-156052380D01*
X87166666Y-156004761D01*
X87214285Y-155957142D01*
X87261904Y-155861904D01*
X87261904Y-155623809D01*
X87214285Y-155528571D01*
X87166666Y-155480952D01*
X87071428Y-155433333D01*
X86880952Y-155433333D01*
X86785714Y-155480952D01*
X86738095Y-155528571D01*
X86690476Y-155623809D01*
X111117142Y-139712380D02*
X110783809Y-139236190D01*
X110545714Y-139712380D02*
X110545714Y-138712380D01*
X110926666Y-138712380D01*
X111021904Y-138760000D01*
X111069523Y-138807619D01*
X111117142Y-138902857D01*
X111117142Y-139045714D01*
X111069523Y-139140952D01*
X111021904Y-139188571D01*
X110926666Y-139236190D01*
X110545714Y-139236190D01*
X112069523Y-139712380D02*
X111498095Y-139712380D01*
X111783809Y-139712380D02*
X111783809Y-138712380D01*
X111688571Y-138855238D01*
X111593333Y-138950476D01*
X111498095Y-138998095D01*
X112974285Y-138712380D02*
X112498095Y-138712380D01*
X112450476Y-139188571D01*
X112498095Y-139140952D01*
X112593333Y-139093333D01*
X112831428Y-139093333D01*
X112926666Y-139140952D01*
X112974285Y-139188571D01*
X113021904Y-139283809D01*
X113021904Y-139521904D01*
X112974285Y-139617142D01*
X112926666Y-139664761D01*
X112831428Y-139712380D01*
X112593333Y-139712380D01*
X112498095Y-139664761D01*
X112450476Y-139617142D01*
X135857142Y-55452380D02*
X135523809Y-54976190D01*
X135285714Y-55452380D02*
X135285714Y-54452380D01*
X135666666Y-54452380D01*
X135761904Y-54500000D01*
X135809523Y-54547619D01*
X135857142Y-54642857D01*
X135857142Y-54785714D01*
X135809523Y-54880952D01*
X135761904Y-54928571D01*
X135666666Y-54976190D01*
X135285714Y-54976190D01*
X136809523Y-55452380D02*
X136238095Y-55452380D01*
X136523809Y-55452380D02*
X136523809Y-54452380D01*
X136428571Y-54595238D01*
X136333333Y-54690476D01*
X136238095Y-54738095D01*
X137666666Y-54785714D02*
X137666666Y-55452380D01*
X137428571Y-54404761D02*
X137190476Y-55119047D01*
X137809523Y-55119047D01*
X125857142Y-51952380D02*
X125523809Y-51476190D01*
X125285714Y-51952380D02*
X125285714Y-50952380D01*
X125666666Y-50952380D01*
X125761904Y-51000000D01*
X125809523Y-51047619D01*
X125857142Y-51142857D01*
X125857142Y-51285714D01*
X125809523Y-51380952D01*
X125761904Y-51428571D01*
X125666666Y-51476190D01*
X125285714Y-51476190D01*
X126809523Y-51952380D02*
X126238095Y-51952380D01*
X126523809Y-51952380D02*
X126523809Y-50952380D01*
X126428571Y-51095238D01*
X126333333Y-51190476D01*
X126238095Y-51238095D01*
X127142857Y-50952380D02*
X127761904Y-50952380D01*
X127428571Y-51333333D01*
X127571428Y-51333333D01*
X127666666Y-51380952D01*
X127714285Y-51428571D01*
X127761904Y-51523809D01*
X127761904Y-51761904D01*
X127714285Y-51857142D01*
X127666666Y-51904761D01*
X127571428Y-51952380D01*
X127285714Y-51952380D01*
X127190476Y-51904761D01*
X127142857Y-51857142D01*
X85357142Y-145852380D02*
X85023809Y-145376190D01*
X84785714Y-145852380D02*
X84785714Y-144852380D01*
X85166666Y-144852380D01*
X85261904Y-144900000D01*
X85309523Y-144947619D01*
X85357142Y-145042857D01*
X85357142Y-145185714D01*
X85309523Y-145280952D01*
X85261904Y-145328571D01*
X85166666Y-145376190D01*
X84785714Y-145376190D01*
X86309523Y-145852380D02*
X85738095Y-145852380D01*
X86023809Y-145852380D02*
X86023809Y-144852380D01*
X85928571Y-144995238D01*
X85833333Y-145090476D01*
X85738095Y-145138095D01*
X86690476Y-144947619D02*
X86738095Y-144900000D01*
X86833333Y-144852380D01*
X87071428Y-144852380D01*
X87166666Y-144900000D01*
X87214285Y-144947619D01*
X87261904Y-145042857D01*
X87261904Y-145138095D01*
X87214285Y-145280952D01*
X86642857Y-145852380D01*
X87261904Y-145852380D01*
X135333333Y-101352380D02*
X135000000Y-100876190D01*
X134761904Y-101352380D02*
X134761904Y-100352380D01*
X135142857Y-100352380D01*
X135238095Y-100400000D01*
X135285714Y-100447619D01*
X135333333Y-100542857D01*
X135333333Y-100685714D01*
X135285714Y-100780952D01*
X135238095Y-100828571D01*
X135142857Y-100876190D01*
X134761904Y-100876190D01*
X136285714Y-101352380D02*
X135714285Y-101352380D01*
X136000000Y-101352380D02*
X136000000Y-100352380D01*
X135904761Y-100495238D01*
X135809523Y-100590476D01*
X135714285Y-100638095D01*
X85357142Y-122352380D02*
X85023809Y-121876190D01*
X84785714Y-122352380D02*
X84785714Y-121352380D01*
X85166666Y-121352380D01*
X85261904Y-121400000D01*
X85309523Y-121447619D01*
X85357142Y-121542857D01*
X85357142Y-121685714D01*
X85309523Y-121780952D01*
X85261904Y-121828571D01*
X85166666Y-121876190D01*
X84785714Y-121876190D01*
X86309523Y-122352380D02*
X85738095Y-122352380D01*
X86023809Y-122352380D02*
X86023809Y-121352380D01*
X85928571Y-121495238D01*
X85833333Y-121590476D01*
X85738095Y-121638095D01*
X87261904Y-122352380D02*
X86690476Y-122352380D01*
X86976190Y-122352380D02*
X86976190Y-121352380D01*
X86880952Y-121495238D01*
X86785714Y-121590476D01*
X86690476Y-121638095D01*
X81833333Y-122352380D02*
X81500000Y-121876190D01*
X81261904Y-122352380D02*
X81261904Y-121352380D01*
X81642857Y-121352380D01*
X81738095Y-121400000D01*
X81785714Y-121447619D01*
X81833333Y-121542857D01*
X81833333Y-121685714D01*
X81785714Y-121780952D01*
X81738095Y-121828571D01*
X81642857Y-121876190D01*
X81261904Y-121876190D01*
X82214285Y-121447619D02*
X82261904Y-121400000D01*
X82357142Y-121352380D01*
X82595238Y-121352380D01*
X82690476Y-121400000D01*
X82738095Y-121447619D01*
X82785714Y-121542857D01*
X82785714Y-121638095D01*
X82738095Y-121780952D01*
X82166666Y-122352380D01*
X82785714Y-122352380D01*
X121583333Y-67702380D02*
X121250000Y-67226190D01*
X121011904Y-67702380D02*
X121011904Y-66702380D01*
X121392857Y-66702380D01*
X121488095Y-66750000D01*
X121535714Y-66797619D01*
X121583333Y-66892857D01*
X121583333Y-67035714D01*
X121535714Y-67130952D01*
X121488095Y-67178571D01*
X121392857Y-67226190D01*
X121011904Y-67226190D01*
X121916666Y-66702380D02*
X122535714Y-66702380D01*
X122202380Y-67083333D01*
X122345238Y-67083333D01*
X122440476Y-67130952D01*
X122488095Y-67178571D01*
X122535714Y-67273809D01*
X122535714Y-67511904D01*
X122488095Y-67607142D01*
X122440476Y-67654761D01*
X122345238Y-67702380D01*
X122059523Y-67702380D01*
X121964285Y-67654761D01*
X121916666Y-67607142D01*
X110808333Y-123390380D02*
X110475000Y-122914190D01*
X110236904Y-123390380D02*
X110236904Y-122390380D01*
X110617857Y-122390380D01*
X110713095Y-122438000D01*
X110760714Y-122485619D01*
X110808333Y-122580857D01*
X110808333Y-122723714D01*
X110760714Y-122818952D01*
X110713095Y-122866571D01*
X110617857Y-122914190D01*
X110236904Y-122914190D01*
X111665476Y-122723714D02*
X111665476Y-123390380D01*
X111427380Y-122342761D02*
X111189285Y-123057047D01*
X111808333Y-123057047D01*
X85833333Y-159352380D02*
X85500000Y-158876190D01*
X85261904Y-159352380D02*
X85261904Y-158352380D01*
X85642857Y-158352380D01*
X85738095Y-158400000D01*
X85785714Y-158447619D01*
X85833333Y-158542857D01*
X85833333Y-158685714D01*
X85785714Y-158780952D01*
X85738095Y-158828571D01*
X85642857Y-158876190D01*
X85261904Y-158876190D01*
X86738095Y-158352380D02*
X86261904Y-158352380D01*
X86214285Y-158828571D01*
X86261904Y-158780952D01*
X86357142Y-158733333D01*
X86595238Y-158733333D01*
X86690476Y-158780952D01*
X86738095Y-158828571D01*
X86785714Y-158923809D01*
X86785714Y-159161904D01*
X86738095Y-159257142D01*
X86690476Y-159304761D01*
X86595238Y-159352380D01*
X86357142Y-159352380D01*
X86261904Y-159304761D01*
X86214285Y-159257142D01*
X154362380Y-124346666D02*
X153886190Y-124680000D01*
X154362380Y-124918095D02*
X153362380Y-124918095D01*
X153362380Y-124537142D01*
X153410000Y-124441904D01*
X153457619Y-124394285D01*
X153552857Y-124346666D01*
X153695714Y-124346666D01*
X153790952Y-124394285D01*
X153838571Y-124441904D01*
X153886190Y-124537142D01*
X153886190Y-124918095D01*
X153362380Y-123489523D02*
X153362380Y-123680000D01*
X153410000Y-123775238D01*
X153457619Y-123822857D01*
X153600476Y-123918095D01*
X153790952Y-123965714D01*
X154171904Y-123965714D01*
X154267142Y-123918095D01*
X154314761Y-123870476D01*
X154362380Y-123775238D01*
X154362380Y-123584761D01*
X154314761Y-123489523D01*
X154267142Y-123441904D01*
X154171904Y-123394285D01*
X153933809Y-123394285D01*
X153838571Y-123441904D01*
X153790952Y-123489523D01*
X153743333Y-123584761D01*
X153743333Y-123775238D01*
X153790952Y-123870476D01*
X153838571Y-123918095D01*
X153933809Y-123965714D01*
X79352380Y-103166666D02*
X78876190Y-103500000D01*
X79352380Y-103738095D02*
X78352380Y-103738095D01*
X78352380Y-103357142D01*
X78400000Y-103261904D01*
X78447619Y-103214285D01*
X78542857Y-103166666D01*
X78685714Y-103166666D01*
X78780952Y-103214285D01*
X78828571Y-103261904D01*
X78876190Y-103357142D01*
X78876190Y-103738095D01*
X78352380Y-102833333D02*
X78352380Y-102166666D01*
X79352380Y-102595238D01*
X135833333Y-85352380D02*
X135500000Y-84876190D01*
X135261904Y-85352380D02*
X135261904Y-84352380D01*
X135642857Y-84352380D01*
X135738095Y-84400000D01*
X135785714Y-84447619D01*
X135833333Y-84542857D01*
X135833333Y-84685714D01*
X135785714Y-84780952D01*
X135738095Y-84828571D01*
X135642857Y-84876190D01*
X135261904Y-84876190D01*
X136404761Y-84780952D02*
X136309523Y-84733333D01*
X136261904Y-84685714D01*
X136214285Y-84590476D01*
X136214285Y-84542857D01*
X136261904Y-84447619D01*
X136309523Y-84400000D01*
X136404761Y-84352380D01*
X136595238Y-84352380D01*
X136690476Y-84400000D01*
X136738095Y-84447619D01*
X136785714Y-84542857D01*
X136785714Y-84590476D01*
X136738095Y-84685714D01*
X136690476Y-84733333D01*
X136595238Y-84780952D01*
X136404761Y-84780952D01*
X136309523Y-84828571D01*
X136261904Y-84876190D01*
X136214285Y-84971428D01*
X136214285Y-85161904D01*
X136261904Y-85257142D01*
X136309523Y-85304761D01*
X136404761Y-85352380D01*
X136595238Y-85352380D01*
X136690476Y-85304761D01*
X136738095Y-85257142D01*
X136785714Y-85161904D01*
X136785714Y-84971428D01*
X136738095Y-84876190D01*
X136690476Y-84828571D01*
X136595238Y-84780952D01*
X135333333Y-107852380D02*
X135000000Y-107376190D01*
X134761904Y-107852380D02*
X134761904Y-106852380D01*
X135142857Y-106852380D01*
X135238095Y-106900000D01*
X135285714Y-106947619D01*
X135333333Y-107042857D01*
X135333333Y-107185714D01*
X135285714Y-107280952D01*
X135238095Y-107328571D01*
X135142857Y-107376190D01*
X134761904Y-107376190D01*
X135809523Y-107852380D02*
X136000000Y-107852380D01*
X136095238Y-107804761D01*
X136142857Y-107757142D01*
X136238095Y-107614285D01*
X136285714Y-107423809D01*
X136285714Y-107042857D01*
X136238095Y-106947619D01*
X136190476Y-106900000D01*
X136095238Y-106852380D01*
X135904761Y-106852380D01*
X135809523Y-106900000D01*
X135761904Y-106947619D01*
X135714285Y-107042857D01*
X135714285Y-107280952D01*
X135761904Y-107376190D01*
X135809523Y-107423809D01*
X135904761Y-107471428D01*
X136095238Y-107471428D01*
X136190476Y-107423809D01*
X136238095Y-107376190D01*
X136285714Y-107280952D01*
X77611904Y-66762380D02*
X77611904Y-65762380D01*
X77992857Y-65762380D01*
X78088095Y-65810000D01*
X78135714Y-65857619D01*
X78183333Y-65952857D01*
X78183333Y-66095714D01*
X78135714Y-66190952D01*
X78088095Y-66238571D01*
X77992857Y-66286190D01*
X77611904Y-66286190D01*
X78516666Y-65762380D02*
X79135714Y-65762380D01*
X78802380Y-66143333D01*
X78945238Y-66143333D01*
X79040476Y-66190952D01*
X79088095Y-66238571D01*
X79135714Y-66333809D01*
X79135714Y-66571904D01*
X79088095Y-66667142D01*
X79040476Y-66714761D01*
X78945238Y-66762380D01*
X78659523Y-66762380D01*
X78564285Y-66714761D01*
X78516666Y-66667142D01*
X139681904Y-127712380D02*
X139681904Y-128521904D01*
X139729523Y-128617142D01*
X139777142Y-128664761D01*
X139872380Y-128712380D01*
X140062857Y-128712380D01*
X140158095Y-128664761D01*
X140205714Y-128617142D01*
X140253333Y-128521904D01*
X140253333Y-127712380D01*
X141253333Y-128712380D02*
X140681904Y-128712380D01*
X140967619Y-128712380D02*
X140967619Y-127712380D01*
X140872380Y-127855238D01*
X140777142Y-127950476D01*
X140681904Y-127998095D01*
X142158095Y-127712380D02*
X141681904Y-127712380D01*
X141634285Y-128188571D01*
X141681904Y-128140952D01*
X141777142Y-128093333D01*
X142015238Y-128093333D01*
X142110476Y-128140952D01*
X142158095Y-128188571D01*
X142205714Y-128283809D01*
X142205714Y-128521904D01*
X142158095Y-128617142D01*
X142110476Y-128664761D01*
X142015238Y-128712380D01*
X141777142Y-128712380D01*
X141681904Y-128664761D01*
X141634285Y-128617142D01*
X139681904Y-135332380D02*
X139681904Y-136141904D01*
X139729523Y-136237142D01*
X139777142Y-136284761D01*
X139872380Y-136332380D01*
X140062857Y-136332380D01*
X140158095Y-136284761D01*
X140205714Y-136237142D01*
X140253333Y-136141904D01*
X140253333Y-135332380D01*
X141253333Y-136332380D02*
X140681904Y-136332380D01*
X140967619Y-136332380D02*
X140967619Y-135332380D01*
X140872380Y-135475238D01*
X140777142Y-135570476D01*
X140681904Y-135618095D01*
X142110476Y-135332380D02*
X141920000Y-135332380D01*
X141824761Y-135380000D01*
X141777142Y-135427619D01*
X141681904Y-135570476D01*
X141634285Y-135760952D01*
X141634285Y-136141904D01*
X141681904Y-136237142D01*
X141729523Y-136284761D01*
X141824761Y-136332380D01*
X142015238Y-136332380D01*
X142110476Y-136284761D01*
X142158095Y-136237142D01*
X142205714Y-136141904D01*
X142205714Y-135903809D01*
X142158095Y-135808571D01*
X142110476Y-135760952D01*
X142015238Y-135713333D01*
X141824761Y-135713333D01*
X141729523Y-135760952D01*
X141681904Y-135808571D01*
X141634285Y-135903809D01*
X111385714Y-37766666D02*
X111861904Y-37766666D01*
X111290476Y-38052380D02*
X111623809Y-37052380D01*
X111957142Y-38052380D01*
X112814285Y-38052380D02*
X112242857Y-38052380D01*
X112528571Y-38052380D02*
X112528571Y-37052380D01*
X112433333Y-37195238D01*
X112338095Y-37290476D01*
X112242857Y-37338095D01*
X94261904Y-151452380D02*
X94261904Y-150452380D01*
X94500000Y-150452380D01*
X94642857Y-150500000D01*
X94738095Y-150595238D01*
X94785714Y-150690476D01*
X94833333Y-150880952D01*
X94833333Y-151023809D01*
X94785714Y-151214285D01*
X94738095Y-151309523D01*
X94642857Y-151404761D01*
X94500000Y-151452380D01*
X94261904Y-151452380D01*
X95738095Y-150452380D02*
X95261904Y-150452380D01*
X95214285Y-150928571D01*
X95261904Y-150880952D01*
X95357142Y-150833333D01*
X95595238Y-150833333D01*
X95690476Y-150880952D01*
X95738095Y-150928571D01*
X95785714Y-151023809D01*
X95785714Y-151261904D01*
X95738095Y-151357142D01*
X95690476Y-151404761D01*
X95595238Y-151452380D01*
X95357142Y-151452380D01*
X95261904Y-151404761D01*
X95214285Y-151357142D01*
X94261904Y-159452380D02*
X94261904Y-158452380D01*
X94500000Y-158452380D01*
X94642857Y-158500000D01*
X94738095Y-158595238D01*
X94785714Y-158690476D01*
X94833333Y-158880952D01*
X94833333Y-159023809D01*
X94785714Y-159214285D01*
X94738095Y-159309523D01*
X94642857Y-159404761D01*
X94500000Y-159452380D01*
X94261904Y-159452380D01*
X95690476Y-158452380D02*
X95500000Y-158452380D01*
X95404761Y-158500000D01*
X95357142Y-158547619D01*
X95261904Y-158690476D01*
X95214285Y-158880952D01*
X95214285Y-159261904D01*
X95261904Y-159357142D01*
X95309523Y-159404761D01*
X95404761Y-159452380D01*
X95595238Y-159452380D01*
X95690476Y-159404761D01*
X95738095Y-159357142D01*
X95785714Y-159261904D01*
X95785714Y-159023809D01*
X95738095Y-158928571D01*
X95690476Y-158880952D01*
X95595238Y-158833333D01*
X95404761Y-158833333D01*
X95309523Y-158880952D01*
X95261904Y-158928571D01*
X95214285Y-159023809D01*
X137006904Y-73727380D02*
X137006904Y-72727380D01*
X137387857Y-72727380D01*
X137483095Y-72775000D01*
X137530714Y-72822619D01*
X137578333Y-72917857D01*
X137578333Y-73060714D01*
X137530714Y-73155952D01*
X137483095Y-73203571D01*
X137387857Y-73251190D01*
X137006904Y-73251190D01*
X138530714Y-73727380D02*
X137959285Y-73727380D01*
X138245000Y-73727380D02*
X138245000Y-72727380D01*
X138149761Y-72870238D01*
X138054523Y-72965476D01*
X137959285Y-73013095D01*
X64698095Y-162964761D02*
X64840952Y-163012380D01*
X65079047Y-163012380D01*
X65174285Y-162964761D01*
X65221904Y-162917142D01*
X65269523Y-162821904D01*
X65269523Y-162726666D01*
X65221904Y-162631428D01*
X65174285Y-162583809D01*
X65079047Y-162536190D01*
X64888571Y-162488571D01*
X64793333Y-162440952D01*
X64745714Y-162393333D01*
X64698095Y-162298095D01*
X64698095Y-162202857D01*
X64745714Y-162107619D01*
X64793333Y-162060000D01*
X64888571Y-162012380D01*
X65126666Y-162012380D01*
X65269523Y-162060000D01*
X65698095Y-163012380D02*
X65698095Y-162012380D01*
X66079047Y-162012380D01*
X66174285Y-162060000D01*
X66221904Y-162107619D01*
X66269523Y-162202857D01*
X66269523Y-162345714D01*
X66221904Y-162440952D01*
X66174285Y-162488571D01*
X66079047Y-162536190D01*
X65698095Y-162536190D01*
X67221904Y-163012380D02*
X66650476Y-163012380D01*
X66936190Y-163012380D02*
X66936190Y-162012380D01*
X66840952Y-162155238D01*
X66745714Y-162250476D01*
X66650476Y-162298095D01*
X113761904Y-54702380D02*
X113761904Y-55511904D01*
X113809523Y-55607142D01*
X113857142Y-55654761D01*
X113952380Y-55702380D01*
X114142857Y-55702380D01*
X114238095Y-55654761D01*
X114285714Y-55607142D01*
X114333333Y-55511904D01*
X114333333Y-54702380D01*
X115333333Y-55702380D02*
X114761904Y-55702380D01*
X115047619Y-55702380D02*
X115047619Y-54702380D01*
X114952380Y-54845238D01*
X114857142Y-54940476D01*
X114761904Y-54988095D01*
X116190476Y-55035714D02*
X116190476Y-55702380D01*
X115952380Y-54654761D02*
X115714285Y-55369047D01*
X116333333Y-55369047D01*
X121761904Y-59952380D02*
X121761904Y-58952380D01*
X122000000Y-58952380D01*
X122142857Y-59000000D01*
X122238095Y-59095238D01*
X122285714Y-59190476D01*
X122333333Y-59380952D01*
X122333333Y-59523809D01*
X122285714Y-59714285D01*
X122238095Y-59809523D01*
X122142857Y-59904761D01*
X122000000Y-59952380D01*
X121761904Y-59952380D01*
X122666666Y-58952380D02*
X123285714Y-58952380D01*
X122952380Y-59333333D01*
X123095238Y-59333333D01*
X123190476Y-59380952D01*
X123238095Y-59428571D01*
X123285714Y-59523809D01*
X123285714Y-59761904D01*
X123238095Y-59857142D01*
X123190476Y-59904761D01*
X123095238Y-59952380D01*
X122809523Y-59952380D01*
X122714285Y-59904761D01*
X122666666Y-59857142D01*
X157988095Y-68977380D02*
X157988095Y-69786904D01*
X158035714Y-69882142D01*
X158083333Y-69929761D01*
X158178571Y-69977380D01*
X158369047Y-69977380D01*
X158464285Y-69929761D01*
X158511904Y-69882142D01*
X158559523Y-69786904D01*
X158559523Y-68977380D01*
X158988095Y-69072619D02*
X159035714Y-69025000D01*
X159130952Y-68977380D01*
X159369047Y-68977380D01*
X159464285Y-69025000D01*
X159511904Y-69072619D01*
X159559523Y-69167857D01*
X159559523Y-69263095D01*
X159511904Y-69405952D01*
X158940476Y-69977380D01*
X159559523Y-69977380D01*
X133858095Y-41672380D02*
X133858095Y-42481904D01*
X133905714Y-42577142D01*
X133953333Y-42624761D01*
X134048571Y-42672380D01*
X134239047Y-42672380D01*
X134334285Y-42624761D01*
X134381904Y-42577142D01*
X134429523Y-42481904D01*
X134429523Y-41672380D01*
X135429523Y-42672380D02*
X134858095Y-42672380D01*
X135143809Y-42672380D02*
X135143809Y-41672380D01*
X135048571Y-41815238D01*
X134953333Y-41910476D01*
X134858095Y-41958095D01*
D14*
X92056571Y-107443619D02*
X92056571Y-108266095D01*
X92092857Y-108362857D01*
X92129142Y-108411238D01*
X92201714Y-108459619D01*
X92346857Y-108459619D01*
X92419428Y-108411238D01*
X92455714Y-108362857D01*
X92492000Y-108266095D01*
X92492000Y-107443619D01*
X93254000Y-108459619D02*
X92818571Y-108459619D01*
X93036285Y-108459619D02*
X93036285Y-107443619D01*
X92963714Y-107588761D01*
X92891142Y-107685523D01*
X92818571Y-107733904D01*
X93508000Y-107443619D02*
X93979714Y-107443619D01*
X93725714Y-107830666D01*
X93834571Y-107830666D01*
X93907142Y-107879047D01*
X93943428Y-107927428D01*
X93979714Y-108024190D01*
X93979714Y-108266095D01*
X93943428Y-108362857D01*
X93907142Y-108411238D01*
X93834571Y-108459619D01*
X93616857Y-108459619D01*
X93544285Y-108411238D01*
X93508000Y-108362857D01*
X89902428Y-110259619D02*
X89902428Y-109243619D01*
X90156428Y-109969333D01*
X90410428Y-109243619D01*
X90410428Y-110259619D01*
X90773285Y-110259619D02*
X90773285Y-109243619D01*
X91208714Y-110259619D02*
X90882142Y-109679047D01*
X91208714Y-109243619D02*
X90773285Y-109824190D01*
X91462714Y-109243619D02*
X91644142Y-110259619D01*
X91789285Y-109533904D01*
X91934428Y-110259619D01*
X92115857Y-109243619D01*
X92551285Y-109243619D02*
X92623857Y-109243619D01*
X92696428Y-109292000D01*
X92732714Y-109340380D01*
X92769000Y-109437142D01*
X92805285Y-109630666D01*
X92805285Y-109872571D01*
X92769000Y-110066095D01*
X92732714Y-110162857D01*
X92696428Y-110211238D01*
X92623857Y-110259619D01*
X92551285Y-110259619D01*
X92478714Y-110211238D01*
X92442428Y-110162857D01*
X92406142Y-110066095D01*
X92369857Y-109872571D01*
X92369857Y-109630666D01*
X92406142Y-109437142D01*
X92442428Y-109340380D01*
X92478714Y-109292000D01*
X92551285Y-109243619D01*
X93531000Y-110259619D02*
X93095571Y-110259619D01*
X93313285Y-110259619D02*
X93313285Y-109243619D01*
X93240714Y-109388761D01*
X93168142Y-109485523D01*
X93095571Y-109533904D01*
X93785000Y-109243619D02*
X94293000Y-109243619D01*
X93785000Y-110259619D01*
X94293000Y-110259619D01*
X94982428Y-110259619D02*
X94547000Y-110259619D01*
X94764714Y-110259619D02*
X94764714Y-109243619D01*
X94692142Y-109388761D01*
X94619571Y-109485523D01*
X94547000Y-109533904D01*
X95272714Y-109340380D02*
X95309000Y-109292000D01*
X95381571Y-109243619D01*
X95563000Y-109243619D01*
X95635571Y-109292000D01*
X95671857Y-109340380D01*
X95708142Y-109437142D01*
X95708142Y-109533904D01*
X95671857Y-109679047D01*
X95236428Y-110259619D01*
X95708142Y-110259619D01*
X96143571Y-109679047D02*
X96071000Y-109630666D01*
X96034714Y-109582285D01*
X95998428Y-109485523D01*
X95998428Y-109437142D01*
X96034714Y-109340380D01*
X96071000Y-109292000D01*
X96143571Y-109243619D01*
X96288714Y-109243619D01*
X96361285Y-109292000D01*
X96397571Y-109340380D01*
X96433857Y-109437142D01*
X96433857Y-109485523D01*
X96397571Y-109582285D01*
X96361285Y-109630666D01*
X96288714Y-109679047D01*
X96143571Y-109679047D01*
X96071000Y-109727428D01*
X96034714Y-109775809D01*
X95998428Y-109872571D01*
X95998428Y-110066095D01*
X96034714Y-110162857D01*
X96071000Y-110211238D01*
X96143571Y-110259619D01*
X96288714Y-110259619D01*
X96361285Y-110211238D01*
X96397571Y-110162857D01*
X96433857Y-110066095D01*
X96433857Y-109872571D01*
X96397571Y-109775809D01*
X96361285Y-109727428D01*
X96288714Y-109679047D01*
D10*
X46116666Y-52154761D02*
X46259523Y-52202380D01*
X46497619Y-52202380D01*
X46592857Y-52154761D01*
X46640476Y-52107142D01*
X46688095Y-52011904D01*
X46688095Y-51916666D01*
X46640476Y-51821428D01*
X46592857Y-51773809D01*
X46497619Y-51726190D01*
X46307142Y-51678571D01*
X46211904Y-51630952D01*
X46164285Y-51583333D01*
X46116666Y-51488095D01*
X46116666Y-51392857D01*
X46164285Y-51297619D01*
X46211904Y-51250000D01*
X46307142Y-51202380D01*
X46545238Y-51202380D01*
X46688095Y-51250000D01*
X47021428Y-51202380D02*
X47259523Y-52202380D01*
X47450000Y-51488095D01*
X47640476Y-52202380D01*
X47878571Y-51202380D01*
X48783333Y-52202380D02*
X48211904Y-52202380D01*
X48497619Y-52202380D02*
X48497619Y-51202380D01*
X48402380Y-51345238D01*
X48307142Y-51440476D01*
X48211904Y-51488095D01*
X149526666Y-93432380D02*
X149526666Y-94146666D01*
X149479047Y-94289523D01*
X149383809Y-94384761D01*
X149240952Y-94432380D01*
X149145714Y-94432380D01*
X149955238Y-93527619D02*
X150002857Y-93480000D01*
X150098095Y-93432380D01*
X150336190Y-93432380D01*
X150431428Y-93480000D01*
X150479047Y-93527619D01*
X150526666Y-93622857D01*
X150526666Y-93718095D01*
X150479047Y-93860952D01*
X149907619Y-94432380D01*
X150526666Y-94432380D01*
X94153300Y-81666666D02*
X94153300Y-82142857D01*
X93153300Y-82142857D01*
X93248539Y-81380952D02*
X93200920Y-81333333D01*
X93153300Y-81238095D01*
X93153300Y-81000000D01*
X93200920Y-80904761D01*
X93248539Y-80857142D01*
X93343777Y-80809523D01*
X93439015Y-80809523D01*
X93581872Y-80857142D01*
X94153300Y-81428571D01*
X94153300Y-80809523D01*
X94153300Y-63166666D02*
X94153300Y-63642857D01*
X93153300Y-63642857D01*
X93486634Y-62404761D02*
X94153300Y-62404761D01*
X93105681Y-62642857D02*
X93819967Y-62880952D01*
X93819967Y-62261904D01*
X94153300Y-76166666D02*
X94153300Y-76642857D01*
X93153300Y-76642857D01*
X93153300Y-75928571D02*
X93153300Y-75309523D01*
X93534253Y-75642857D01*
X93534253Y-75500000D01*
X93581872Y-75404761D01*
X93629491Y-75357142D01*
X93724729Y-75309523D01*
X93962824Y-75309523D01*
X94058062Y-75357142D01*
X94105681Y-75404761D01*
X94153300Y-75500000D01*
X94153300Y-75785714D01*
X94105681Y-75880952D01*
X94058062Y-75928571D01*
X94153300Y-92541066D02*
X94153300Y-93017257D01*
X93153300Y-93017257D01*
X94153300Y-91683923D02*
X94153300Y-92255352D01*
X94153300Y-91969638D02*
X93153300Y-91969638D01*
X93296158Y-92064876D01*
X93391396Y-92160114D01*
X93439015Y-92255352D01*
X94261904Y-145952380D02*
X94261904Y-144952380D01*
X94500000Y-144952380D01*
X94642857Y-145000000D01*
X94738095Y-145095238D01*
X94785714Y-145190476D01*
X94833333Y-145380952D01*
X94833333Y-145523809D01*
X94785714Y-145714285D01*
X94738095Y-145809523D01*
X94642857Y-145904761D01*
X94500000Y-145952380D01*
X94261904Y-145952380D01*
X95785714Y-145952380D02*
X95214285Y-145952380D01*
X95500000Y-145952380D02*
X95500000Y-144952380D01*
X95404761Y-145095238D01*
X95309523Y-145190476D01*
X95214285Y-145238095D01*
X121761904Y-65452380D02*
X121761904Y-64452380D01*
X122000000Y-64452380D01*
X122142857Y-64500000D01*
X122238095Y-64595238D01*
X122285714Y-64690476D01*
X122333333Y-64880952D01*
X122333333Y-65023809D01*
X122285714Y-65214285D01*
X122238095Y-65309523D01*
X122142857Y-65404761D01*
X122000000Y-65452380D01*
X121761904Y-65452380D01*
X123190476Y-64785714D02*
X123190476Y-65452380D01*
X122952380Y-64404761D02*
X122714285Y-65119047D01*
X123333333Y-65119047D01*
X29836904Y-69180380D02*
X29836904Y-69989904D01*
X29884523Y-70085142D01*
X29932142Y-70132761D01*
X30027380Y-70180380D01*
X30217857Y-70180380D01*
X30313095Y-70132761D01*
X30360714Y-70085142D01*
X30408333Y-69989904D01*
X30408333Y-69180380D01*
X31408333Y-70180380D02*
X30836904Y-70180380D01*
X31122619Y-70180380D02*
X31122619Y-69180380D01*
X31027380Y-69323238D01*
X30932142Y-69418476D01*
X30836904Y-69466095D01*
X32027380Y-69180380D02*
X32122619Y-69180380D01*
X32217857Y-69228000D01*
X32265476Y-69275619D01*
X32313095Y-69370857D01*
X32360714Y-69561333D01*
X32360714Y-69799428D01*
X32313095Y-69989904D01*
X32265476Y-70085142D01*
X32217857Y-70132761D01*
X32122619Y-70180380D01*
X32027380Y-70180380D01*
X31932142Y-70132761D01*
X31884523Y-70085142D01*
X31836904Y-69989904D01*
X31789285Y-69799428D01*
X31789285Y-69561333D01*
X31836904Y-69370857D01*
X31884523Y-69275619D01*
X31932142Y-69228000D01*
X32027380Y-69180380D01*
X24638095Y-97052380D02*
X24638095Y-97861904D01*
X24685714Y-97957142D01*
X24733333Y-98004761D01*
X24828571Y-98052380D01*
X25019047Y-98052380D01*
X25114285Y-98004761D01*
X25161904Y-97957142D01*
X25209523Y-97861904D01*
X25209523Y-97052380D01*
X25733333Y-98052380D02*
X25923809Y-98052380D01*
X26019047Y-98004761D01*
X26066666Y-97957142D01*
X26161904Y-97814285D01*
X26209523Y-97623809D01*
X26209523Y-97242857D01*
X26161904Y-97147619D01*
X26114285Y-97100000D01*
X26019047Y-97052380D01*
X25828571Y-97052380D01*
X25733333Y-97100000D01*
X25685714Y-97147619D01*
X25638095Y-97242857D01*
X25638095Y-97480952D01*
X25685714Y-97576190D01*
X25733333Y-97623809D01*
X25828571Y-97671428D01*
X26019047Y-97671428D01*
X26114285Y-97623809D01*
X26161904Y-97576190D01*
X26209523Y-97480952D01*
X32218095Y-126432380D02*
X32218095Y-127241904D01*
X32265714Y-127337142D01*
X32313333Y-127384761D01*
X32408571Y-127432380D01*
X32599047Y-127432380D01*
X32694285Y-127384761D01*
X32741904Y-127337142D01*
X32789523Y-127241904D01*
X32789523Y-126432380D01*
X33408571Y-126860952D02*
X33313333Y-126813333D01*
X33265714Y-126765714D01*
X33218095Y-126670476D01*
X33218095Y-126622857D01*
X33265714Y-126527619D01*
X33313333Y-126480000D01*
X33408571Y-126432380D01*
X33599047Y-126432380D01*
X33694285Y-126480000D01*
X33741904Y-126527619D01*
X33789523Y-126622857D01*
X33789523Y-126670476D01*
X33741904Y-126765714D01*
X33694285Y-126813333D01*
X33599047Y-126860952D01*
X33408571Y-126860952D01*
X33313333Y-126908571D01*
X33265714Y-126956190D01*
X33218095Y-127051428D01*
X33218095Y-127241904D01*
X33265714Y-127337142D01*
X33313333Y-127384761D01*
X33408571Y-127432380D01*
X33599047Y-127432380D01*
X33694285Y-127384761D01*
X33741904Y-127337142D01*
X33789523Y-127241904D01*
X33789523Y-127051428D01*
X33741904Y-126956190D01*
X33694285Y-126908571D01*
X33599047Y-126860952D01*
X46903095Y-147387380D02*
X46903095Y-148196904D01*
X46950714Y-148292142D01*
X46998333Y-148339761D01*
X47093571Y-148387380D01*
X47284047Y-148387380D01*
X47379285Y-148339761D01*
X47426904Y-148292142D01*
X47474523Y-148196904D01*
X47474523Y-147387380D01*
X47855476Y-147387380D02*
X48522142Y-147387380D01*
X48093571Y-148387380D01*
X94488095Y-167402380D02*
X94488095Y-168211904D01*
X94535714Y-168307142D01*
X94583333Y-168354761D01*
X94678571Y-168402380D01*
X94869047Y-168402380D01*
X94964285Y-168354761D01*
X95011904Y-168307142D01*
X95059523Y-168211904D01*
X95059523Y-167402380D01*
X95964285Y-167402380D02*
X95773809Y-167402380D01*
X95678571Y-167450000D01*
X95630952Y-167497619D01*
X95535714Y-167640476D01*
X95488095Y-167830952D01*
X95488095Y-168211904D01*
X95535714Y-168307142D01*
X95583333Y-168354761D01*
X95678571Y-168402380D01*
X95869047Y-168402380D01*
X95964285Y-168354761D01*
X96011904Y-168307142D01*
X96059523Y-168211904D01*
X96059523Y-167973809D01*
X96011904Y-167878571D01*
X95964285Y-167830952D01*
X95869047Y-167783333D01*
X95678571Y-167783333D01*
X95583333Y-167830952D01*
X95535714Y-167878571D01*
X95488095Y-167973809D01*
X136358095Y-151832380D02*
X136358095Y-152641904D01*
X136405714Y-152737142D01*
X136453333Y-152784761D01*
X136548571Y-152832380D01*
X136739047Y-152832380D01*
X136834285Y-152784761D01*
X136881904Y-152737142D01*
X136929523Y-152641904D01*
X136929523Y-151832380D01*
X137881904Y-151832380D02*
X137405714Y-151832380D01*
X137358095Y-152308571D01*
X137405714Y-152260952D01*
X137500952Y-152213333D01*
X137739047Y-152213333D01*
X137834285Y-152260952D01*
X137881904Y-152308571D01*
X137929523Y-152403809D01*
X137929523Y-152641904D01*
X137881904Y-152737142D01*
X137834285Y-152784761D01*
X137739047Y-152832380D01*
X137500952Y-152832380D01*
X137405714Y-152784761D01*
X137358095Y-152737142D01*
X157948095Y-126432380D02*
X157948095Y-127241904D01*
X157995714Y-127337142D01*
X158043333Y-127384761D01*
X158138571Y-127432380D01*
X158329047Y-127432380D01*
X158424285Y-127384761D01*
X158471904Y-127337142D01*
X158519523Y-127241904D01*
X158519523Y-126432380D01*
X159424285Y-126765714D02*
X159424285Y-127432380D01*
X159186190Y-126384761D02*
X158948095Y-127099047D01*
X159567142Y-127099047D01*
X163028095Y-97222380D02*
X163028095Y-98031904D01*
X163075714Y-98127142D01*
X163123333Y-98174761D01*
X163218571Y-98222380D01*
X163409047Y-98222380D01*
X163504285Y-98174761D01*
X163551904Y-98127142D01*
X163599523Y-98031904D01*
X163599523Y-97222380D01*
X163980476Y-97222380D02*
X164599523Y-97222380D01*
X164266190Y-97603333D01*
X164409047Y-97603333D01*
X164504285Y-97650952D01*
X164551904Y-97698571D01*
X164599523Y-97793809D01*
X164599523Y-98031904D01*
X164551904Y-98127142D01*
X164504285Y-98174761D01*
X164409047Y-98222380D01*
X164123333Y-98222380D01*
X164028095Y-98174761D01*
X163980476Y-98127142D01*
X94011904Y-28972380D02*
X94011904Y-29781904D01*
X94059523Y-29877142D01*
X94107142Y-29924761D01*
X94202380Y-29972380D01*
X94392857Y-29972380D01*
X94488095Y-29924761D01*
X94535714Y-29877142D01*
X94583333Y-29781904D01*
X94583333Y-28972380D01*
X95583333Y-29972380D02*
X95011904Y-29972380D01*
X95297619Y-29972380D02*
X95297619Y-28972380D01*
X95202380Y-29115238D01*
X95107142Y-29210476D01*
X95011904Y-29258095D01*
X95964285Y-29067619D02*
X96011904Y-29020000D01*
X96107142Y-28972380D01*
X96345238Y-28972380D01*
X96440476Y-29020000D01*
X96488095Y-29067619D01*
X96535714Y-29162857D01*
X96535714Y-29258095D01*
X96488095Y-29400952D01*
X95916666Y-29972380D01*
X96535714Y-29972380D01*
X55911904Y-41672380D02*
X55911904Y-42481904D01*
X55959523Y-42577142D01*
X56007142Y-42624761D01*
X56102380Y-42672380D01*
X56292857Y-42672380D01*
X56388095Y-42624761D01*
X56435714Y-42577142D01*
X56483333Y-42481904D01*
X56483333Y-41672380D01*
X57483333Y-42672380D02*
X56911904Y-42672380D01*
X57197619Y-42672380D02*
X57197619Y-41672380D01*
X57102380Y-41815238D01*
X57007142Y-41910476D01*
X56911904Y-41958095D01*
X58435714Y-42672380D02*
X57864285Y-42672380D01*
X58150000Y-42672380D02*
X58150000Y-41672380D01*
X58054761Y-41815238D01*
X57959523Y-41910476D01*
X57864285Y-41958095D01*
X60527761Y-149079619D02*
X60432523Y-149032000D01*
X60337285Y-148936761D01*
X60194428Y-148793904D01*
X60099190Y-148746285D01*
X60003952Y-148746285D01*
X60051571Y-148984380D02*
X59956333Y-148936761D01*
X59861095Y-148841523D01*
X59813476Y-148651047D01*
X59813476Y-148317714D01*
X59861095Y-148127238D01*
X59956333Y-148032000D01*
X60051571Y-147984380D01*
X60242047Y-147984380D01*
X60337285Y-148032000D01*
X60432523Y-148127238D01*
X60480142Y-148317714D01*
X60480142Y-148651047D01*
X60432523Y-148841523D01*
X60337285Y-148936761D01*
X60242047Y-148984380D01*
X60051571Y-148984380D01*
X61432523Y-148984380D02*
X60861095Y-148984380D01*
X61146809Y-148984380D02*
X61146809Y-147984380D01*
X61051571Y-148127238D01*
X60956333Y-148222476D01*
X60861095Y-148270095D01*
M02*
