M48
;DRILL file {KiCad (2016-12-18 revision 3ffa37c)-master} date Tuesday, December 20, 2016 'PMt' 03:26:12 PM
;FORMAT={2:4/ absolute / inch / suppress leading zeros}
FMAT,2
INCH,TZ
T1C0.012
T2C0.020
T3C0.022
T4C0.030
T5C0.031
T6C0.039
T7C0.040
%
G90
G05
M72
T1
X12533Y-40944
X13253Y-29898
X14779Y-50508
X19621Y-51582
X19621Y-59709
X20991Y-24063
X21669Y-28315
X22540Y-18512
X22725Y-34462
X23622Y-21654
X24331Y-57603
X26867Y-17350
X29331Y-25492
X30107Y-39807
X30652Y-35684
X30652Y-37912
X31194Y-34630
X31194Y-36832
X31250Y-20781
X31398Y-23425
X32323Y-66417
X32323Y-68031
X32382Y-23031
X33087Y-40328
X33432Y-38426
X33670Y-42601
X33939Y-49695
X34065Y-36181
X34108Y-37737
X34195Y-40619
X34477Y-39419
X34566Y-37463
X34648Y-40403
X34789Y-38577
X35371Y-34265
X35443Y-41948
X35574Y-39834
X35657Y-37823
X35657Y-39008
X35734Y-42218
X36128Y-36686
X36379Y-36998
X36379Y-42022
X36496Y-65354
X36631Y-41299
X36676Y-42299
X36744Y-58780
X36961Y-41972
X37047Y-40551
X37313Y-59320
X37431Y-40329
X37533Y-42081
X37893Y-59628
X37894Y-38140
X37955Y-41972
X37955Y-43826
X38115Y-57445
X38228Y-65354
X38392Y-43023
X38696Y-35766
X38725Y-34265
X39112Y-38698
X39121Y-38135
X39124Y-40060
X39255Y-37574
X39432Y-39019
X39709Y-40375
X40028Y-40040
X40256Y-24213
X40256Y-24902
X40301Y-26900
X40739Y-48060
X40779Y-29528
X40779Y-34329
X41200Y-48335
X41437Y-23524
X41663Y-31394
X41840Y-46766
X41886Y-40521
X42313Y-49189
X42315Y-30333
X42421Y-22539
X42421Y-23031
X43559Y-46766
X45394Y-26772
X45807Y-65138
X46327Y-67221
X47090Y-61902
X47090Y-63780
X47982Y-46419
X48307Y-29134
X48572Y-50044
X48583Y-61902
X49187Y-54478
X50553Y-54874
X50787Y-16142
X52519Y-62691
X54482Y-55298
X55201Y-49165
X55828Y-17618
X56338Y-19008
X56761Y-55192
X57499Y-51122
X57500Y-48250
X57637Y-52047
X58023Y-46063
X58161Y-49264
X59000Y-29083
X59055Y-55094
X59441Y-46063
X60835Y-40817
X61468Y-40402
T4
X24000Y-62500
X27937Y-62500
T5
X27248Y-54909
X29134Y-54921
X30709Y-17323
X30709Y-19488
X30709Y-21654
X31102Y-54921
X32441Y-14055
X36531Y-54957
X38531Y-54957
X40748Y-54921
X57087Y-57480
X59055Y-57480
T6
X55315Y-28091
X55315Y-28937
X55315Y-29783
T7
X20669Y-30291
X20669Y-31291
X20669Y-32291
X20669Y-33291
X20669Y-34291
X20669Y-35291
X20669Y-36291
X20669Y-37291
X20669Y-38291
X20669Y-39291
X20669Y-40291
X20669Y-41291
X20669Y-42291
X20669Y-43291
X20669Y-44291
X20669Y-45291
X20669Y-46291
X20669Y-47291
X20669Y-48291
X20669Y-49291
X21669Y-30291
X21669Y-31291
X21669Y-32291
X21669Y-33291
X21669Y-34291
X21669Y-35291
X21669Y-36291
X21669Y-37291
X21669Y-38291
X21669Y-39291
X21669Y-40291
X21669Y-41291
X21669Y-42291
X21669Y-43291
X21669Y-44291
X21669Y-45291
X21669Y-46291
X21669Y-47291
X21669Y-48291
X21669Y-49291
X28346Y-24606
X29346Y-24606
X30346Y-24606
X31346Y-24606
X32346Y-24606
X33346Y-24606
X57000Y-34000
X57000Y-35000
X58000Y-34000
X58000Y-35000
X59000Y-34000
X59000Y-35000
X60000Y-34000
X60000Y-35000
X61000Y-34000
X61000Y-35000
T2
X44685Y-67899G85X44685Y-67643
G05
X47441Y-67899G85X47441Y-67643
G05
T3
X45019Y-66708G85X45137Y-66708
G05
X46988Y-66708G85X47106Y-66708
G05
T0
M30
