G04 #@! TF.GenerationSoftware,KiCad,Pcbnew,(2016-12-18 revision 3ffa37c)-master*
G04 #@! TF.CreationDate,2016-12-20T15:26:01-08:00*
G04 #@! TF.ProjectId,badge-routed,62616467652D726F757465642E6B6963,rev?*
G04 #@! TF.FileFunction,Copper,L1,Top,Mixed*
G04 #@! TF.FilePolarity,Positive*
%FSLAX46Y46*%
G04 Gerber Fmt 4.6, Leading zero omitted, Abs format (unit mm)*
G04 Created by KiCad (PCBNEW (2016-12-18 revision 3ffa37c)-master) date Tuesday, December 20, 2016 'PMt' 03:26:01 PM*
%MOMM*%
%LPD*%
G01*
G04 APERTURE LIST*
%ADD10C,0.150000*%
%ADD11O,1.727200X1.727200*%
%ADD12R,1.727200X1.727200*%
%ADD13R,1.597660X1.800860*%
%ADD14R,0.700000X1.300000*%
%ADD15R,1.000000X4.100000*%
%ADD16R,0.700000X4.100000*%
%ADD17R,1.500000X1.500000*%
%ADD18R,1.250000X1.500000*%
%ADD19R,1.500000X1.250000*%
%ADD20O,1.000000X1.550000*%
%ADD21O,1.250000X0.950000*%
%ADD22R,0.400000X1.350000*%
%ADD23C,1.500000*%
%ADD24R,1.300000X0.700000*%
%ADD25R,1.727200X2.032000*%
%ADD26O,1.727200X2.032000*%
%ADD27R,1.060000X0.650000*%
%ADD28R,0.500000X1.000000*%
%ADD29C,1.524000*%
%ADD30R,1.750000X0.450000*%
%ADD31R,1.600000X1.000000*%
%ADD32R,0.406400X0.406400*%
%ADD33O,2.819400X2.946400*%
%ADD34R,2.667000X2.667000*%
%ADD35R,0.304800X0.406400*%
%ADD36R,0.406400X0.304800*%
%ADD37R,1.550000X1.300000*%
%ADD38R,1.399540X1.150620*%
%ADD39R,0.599440X1.000760*%
%ADD40C,0.400000*%
%ADD41C,0.800000*%
%ADD42C,0.130000*%
%ADD43C,0.250000*%
%ADD44C,0.230000*%
%ADD45C,0.152400*%
%ADD46C,1.000000*%
%ADD47C,0.900000*%
G04 APERTURE END LIST*
D10*
D11*
X55040000Y-76940000D03*
X52500000Y-76940000D03*
X55040000Y-79480000D03*
X52500000Y-79480000D03*
X55040000Y-82020000D03*
X52500000Y-82020000D03*
X55040000Y-84560000D03*
X52500000Y-84560000D03*
X55040000Y-87100000D03*
X52500000Y-87100000D03*
X55040000Y-89640000D03*
X52500000Y-89640000D03*
X55040000Y-92180000D03*
X52500000Y-92180000D03*
X55040000Y-94720000D03*
X52500000Y-94720000D03*
X55040000Y-97260000D03*
X52500000Y-97260000D03*
X55040000Y-99800000D03*
X52500000Y-99800000D03*
X55040000Y-102340000D03*
X52500000Y-102340000D03*
X55040000Y-104880000D03*
X52500000Y-104880000D03*
X55040000Y-107420000D03*
X52500000Y-107420000D03*
X55040000Y-109960000D03*
X52500000Y-109960000D03*
X55040000Y-112500000D03*
X52500000Y-112500000D03*
X55040000Y-115040000D03*
X52500000Y-115040000D03*
X55040000Y-117580000D03*
X52500000Y-117580000D03*
X55040000Y-120120000D03*
X52500000Y-120120000D03*
X55040000Y-122660000D03*
X52500000Y-122660000D03*
X55040000Y-125200000D03*
D12*
X52500000Y-125200000D03*
D13*
X140580140Y-97500000D03*
X143419860Y-97500000D03*
D14*
X136450000Y-97500000D03*
X134550000Y-97500000D03*
D15*
X73000000Y-103000000D03*
D16*
X71500000Y-103000000D03*
X74500000Y-103000000D03*
D13*
X143419860Y-109500000D03*
X140580140Y-109500000D03*
X140580140Y-103000000D03*
X143419860Y-103000000D03*
D17*
X150000000Y-146000000D03*
X145000000Y-146000000D03*
X92790000Y-139590000D03*
D18*
X130175000Y-157230000D03*
X130175000Y-154730000D03*
X88500000Y-170250000D03*
X88500000Y-172750000D03*
X55245000Y-152785000D03*
X55245000Y-150285000D03*
X41275000Y-129330000D03*
X41275000Y-131830000D03*
X32000000Y-102500000D03*
X32000000Y-100000000D03*
X38100000Y-71775000D03*
X38100000Y-74275000D03*
X64770000Y-46970000D03*
X64770000Y-44470000D03*
D19*
X94000000Y-40640000D03*
X96500000Y-40640000D03*
X142250000Y-117000000D03*
X139750000Y-117000000D03*
X152435000Y-138988000D03*
X154935000Y-138988000D03*
X142220000Y-121920000D03*
X139720000Y-121920000D03*
X120000000Y-116250000D03*
X122500000Y-116250000D03*
D18*
X157480000Y-102620000D03*
X157480000Y-100120000D03*
D19*
X66060000Y-88900000D03*
X68560000Y-88900000D03*
X77750000Y-89000000D03*
X75250000Y-89000000D03*
D18*
X81000000Y-94750000D03*
X81000000Y-97250000D03*
X96600000Y-85750000D03*
X96600000Y-88250000D03*
X96500000Y-72250000D03*
X96500000Y-69750000D03*
D19*
X102750000Y-77500000D03*
X100250000Y-77500000D03*
X100250000Y-72500000D03*
X102750000Y-72500000D03*
X99250000Y-67000000D03*
X96750000Y-67000000D03*
X96250000Y-57000000D03*
X98750000Y-57000000D03*
X102750000Y-88500000D03*
X100250000Y-88500000D03*
X106750000Y-171000000D03*
X104250000Y-171000000D03*
X118250000Y-162000000D03*
X115750000Y-162000000D03*
X102250000Y-125000000D03*
X104750000Y-125000000D03*
D18*
X147650000Y-132200000D03*
X147650000Y-129700000D03*
X140500000Y-44750000D03*
X140500000Y-47250000D03*
X152400000Y-73870000D03*
X152400000Y-71370000D03*
D20*
X120499100Y-172137460D03*
X113499100Y-172137460D03*
D21*
X119499100Y-169437460D03*
X114499100Y-169437460D03*
D22*
X118299100Y-169437460D03*
X117649100Y-169437460D03*
X116999100Y-169437460D03*
X116349100Y-169437460D03*
X115699100Y-169437460D03*
D23*
X79000000Y-139500000D03*
X78000000Y-55000000D03*
X78000000Y-44000000D03*
X78000000Y-49500000D03*
X82400000Y-35700000D03*
X103500000Y-139500000D03*
X97870000Y-139590000D03*
X74000000Y-139500000D03*
X69210000Y-139470000D03*
D14*
X85050000Y-153500000D03*
X86950000Y-153500000D03*
X112710000Y-137160000D03*
X110810000Y-137160000D03*
D24*
X134000000Y-56950000D03*
X134000000Y-55050000D03*
D14*
X127450000Y-55000000D03*
X125550000Y-55000000D03*
X86950000Y-147500000D03*
X85050000Y-147500000D03*
X134550000Y-103000000D03*
X136450000Y-103000000D03*
X86950000Y-124000000D03*
X85050000Y-124000000D03*
X81050000Y-124000000D03*
X82950000Y-124000000D03*
X122700000Y-69350000D03*
X120800000Y-69350000D03*
X110025000Y-125038000D03*
X111925000Y-125038000D03*
X86950000Y-161000000D03*
X85050000Y-161000000D03*
D24*
X151810000Y-123230000D03*
X151810000Y-125130000D03*
X81000000Y-102050000D03*
X81000000Y-103950000D03*
D14*
X135050000Y-87000000D03*
X136950000Y-87000000D03*
X136450000Y-109500000D03*
X134550000Y-109500000D03*
D25*
X72000000Y-62500000D03*
D26*
X74540000Y-62500000D03*
X77080000Y-62500000D03*
X79620000Y-62500000D03*
X82160000Y-62500000D03*
X84700000Y-62500000D03*
D27*
X142070000Y-129860000D03*
X142070000Y-131760000D03*
X139870000Y-131760000D03*
X139870000Y-130810000D03*
X139870000Y-129860000D03*
X139870000Y-137480000D03*
X139870000Y-138430000D03*
X139870000Y-139380000D03*
X142070000Y-139380000D03*
X142070000Y-137480000D03*
D28*
X107000000Y-44000000D03*
X107000000Y-40200000D03*
X117200000Y-40200000D03*
X117200000Y-44000000D03*
X117200000Y-42100000D03*
X107000000Y-42100000D03*
X112100000Y-40200000D03*
X112100000Y-44000000D03*
D13*
X96419860Y-153500000D03*
X93580140Y-153500000D03*
X96419860Y-161000000D03*
X93580140Y-161000000D03*
D29*
X140500000Y-75650000D03*
X140500000Y-73500000D03*
X140500000Y-71350000D03*
X60960000Y-158750000D03*
X70960000Y-158750000D03*
D30*
X111400000Y-57275000D03*
X111400000Y-57925000D03*
X111400000Y-58575000D03*
X111400000Y-59225000D03*
X111400000Y-59875000D03*
X111400000Y-60525000D03*
X111400000Y-61175000D03*
X111400000Y-61825000D03*
X111400000Y-62475000D03*
X111400000Y-63125000D03*
X111400000Y-63775000D03*
X111400000Y-64425000D03*
X111400000Y-65075000D03*
X111400000Y-65725000D03*
X118600000Y-65725000D03*
X118600000Y-65075000D03*
X118600000Y-64425000D03*
X118600000Y-63775000D03*
X118600000Y-63125000D03*
X118600000Y-62475000D03*
X118600000Y-61825000D03*
X118600000Y-61175000D03*
X118600000Y-60525000D03*
X118600000Y-59875000D03*
X118600000Y-59225000D03*
X118600000Y-58575000D03*
X118600000Y-57925000D03*
X118600000Y-57275000D03*
D13*
X127919860Y-59500000D03*
X125080140Y-59500000D03*
D31*
X156250000Y-71425000D03*
X156250000Y-74625000D03*
X161250000Y-71425000D03*
X161250000Y-74625000D03*
X137120000Y-47320000D03*
X137120000Y-44120000D03*
X132120000Y-47320000D03*
X132120000Y-44120000D03*
D32*
X94749806Y-104749804D03*
X94749806Y-103749806D03*
X95749804Y-103749806D03*
X95749804Y-104749804D03*
D33*
X91500130Y-103399794D03*
D34*
X94499870Y-100500130D03*
D35*
X89750070Y-98275090D03*
X90250196Y-98275090D03*
X90750068Y-98275090D03*
X91250194Y-98275090D03*
X91750066Y-98275090D03*
X92250192Y-98275090D03*
X92750064Y-98275090D03*
X93249936Y-98275090D03*
X93749808Y-98275090D03*
X94249934Y-98275090D03*
X94749806Y-98275090D03*
X95249932Y-98275090D03*
X95749804Y-98275090D03*
X96249930Y-98275090D03*
D36*
X96724910Y-98750070D03*
X96724910Y-99250196D03*
X96724910Y-99750068D03*
X96724910Y-100250194D03*
X96724910Y-100750066D03*
X96724910Y-101250192D03*
X96724910Y-101750064D03*
X96724910Y-102249936D03*
X96724910Y-102749808D03*
X96724910Y-103249934D03*
X96724910Y-103749806D03*
X96724910Y-104249932D03*
X96724910Y-104749804D03*
X96724910Y-105249930D03*
D35*
X96249930Y-105724910D03*
X95749804Y-105724910D03*
X95249932Y-105724910D03*
X94749806Y-105724910D03*
X94249934Y-105724910D03*
X93749808Y-105724910D03*
X93249936Y-105724910D03*
X92750064Y-105724910D03*
X92250192Y-105724910D03*
X91750066Y-105724910D03*
X91250194Y-105724910D03*
X90750068Y-105724910D03*
X90250196Y-105724910D03*
X89750070Y-105724910D03*
D36*
X89275090Y-105249930D03*
X89275090Y-104749804D03*
X89275090Y-104249932D03*
X89275090Y-103749806D03*
X89275090Y-103249934D03*
X89275090Y-102749808D03*
X89275090Y-102249936D03*
X89275090Y-101750064D03*
X89275090Y-101250192D03*
X89275090Y-100750066D03*
X89275090Y-100250194D03*
X89275090Y-99750068D03*
X89275090Y-99250196D03*
D32*
X89275090Y-98750070D03*
D37*
X51475000Y-60750000D03*
X43525000Y-60750000D03*
X51475000Y-56250000D03*
X43525000Y-56250000D03*
D12*
X154940000Y-86360000D03*
D11*
X154940000Y-88900000D03*
X152400000Y-86360000D03*
X152400000Y-88900000D03*
X149860000Y-86360000D03*
X149860000Y-88900000D03*
X147320000Y-86360000D03*
X147320000Y-88900000D03*
X144780000Y-86360000D03*
X144780000Y-88900000D03*
D38*
X96500000Y-83125600D03*
X96500000Y-79874400D03*
X96500000Y-61374400D03*
X96500000Y-64625600D03*
X96500000Y-77625600D03*
X96500000Y-74374400D03*
X96500000Y-90748800D03*
X96500000Y-94000000D03*
D13*
X96419860Y-147500000D03*
X93580140Y-147500000D03*
X127919860Y-65000000D03*
X125080140Y-65000000D03*
D31*
X28575000Y-71628000D03*
X28575000Y-74828000D03*
X33575000Y-71628000D03*
X33575000Y-74828000D03*
X27900000Y-102700000D03*
X27900000Y-99500000D03*
X22900000Y-102700000D03*
X22900000Y-99500000D03*
X30480000Y-128880000D03*
X30480000Y-132080000D03*
X35480000Y-128880000D03*
X35480000Y-132080000D03*
X50165000Y-153035000D03*
X50165000Y-149835000D03*
X45165000Y-153035000D03*
X45165000Y-149835000D03*
X92750000Y-169850000D03*
X92750000Y-173050000D03*
X97750000Y-169850000D03*
X97750000Y-173050000D03*
X139620000Y-157480000D03*
X139620000Y-154280000D03*
X134620000Y-157480000D03*
X134620000Y-154280000D03*
X156210000Y-128880000D03*
X156210000Y-132080000D03*
X161210000Y-128880000D03*
X161210000Y-132080000D03*
X166290000Y-102870000D03*
X166290000Y-99670000D03*
X161290000Y-102870000D03*
X161290000Y-99670000D03*
X97750000Y-34620000D03*
X97750000Y-31420000D03*
X92750000Y-34620000D03*
X92750000Y-31420000D03*
X59650000Y-47320000D03*
X59650000Y-44120000D03*
X54650000Y-47320000D03*
X54650000Y-44120000D03*
D39*
X60750000Y-145550040D03*
X60099760Y-147449960D03*
X61400240Y-147449960D03*
D40*
X102250000Y-63250000D03*
X102250000Y-61500000D03*
X82100000Y-168700000D03*
X82100000Y-172800000D03*
D41*
X149860000Y-73870000D03*
X53316000Y-61119900D03*
X124935300Y-138374700D03*
X146397900Y-132200000D03*
X147729600Y-125130000D03*
X143099600Y-48280300D03*
X110638800Y-118785600D03*
X107475100Y-124940400D03*
X119608900Y-162000000D03*
X87571400Y-100124000D03*
X84916200Y-97601100D03*
D40*
X123373100Y-127112700D03*
D41*
X121875000Y-117903500D03*
X150000000Y-139938300D03*
X55040000Y-71919700D03*
X156129000Y-102620000D03*
X119608900Y-157230000D03*
X103577500Y-75000000D03*
X103577500Y-87196300D03*
X102365300Y-68326200D03*
X77855900Y-96295900D03*
X77855900Y-90636300D03*
X150979400Y-117000000D03*
X154519900Y-103675800D03*
X140211700Y-124878600D03*
X147378200Y-117000000D03*
X57251200Y-47019500D03*
X37539800Y-128289800D03*
X31833700Y-103996800D03*
X49838300Y-131018200D03*
X49838300Y-151660100D03*
X123400100Y-157230000D03*
X76470600Y-101109300D03*
X33663500Y-75940500D03*
X95074900Y-102436500D03*
X98288900Y-90845400D03*
X99343500Y-98294000D03*
X98361200Y-87032800D03*
X89843200Y-87032800D03*
X88364100Y-97984400D03*
X60000000Y-55000000D03*
X57721800Y-87533100D03*
X99373900Y-101752800D03*
X100156400Y-99108800D03*
X79375600Y-52784900D03*
X85521600Y-108206800D03*
X96405600Y-111318700D03*
X96405600Y-106610100D03*
X93156900Y-107438500D03*
D40*
X74500000Y-64750000D03*
X107750000Y-58500000D03*
D41*
X93041600Y-104899800D03*
X61800100Y-146312300D03*
X90764000Y-107234200D03*
X86854600Y-103172600D03*
X90024000Y-106548700D03*
D40*
X82250000Y-58500000D03*
X107750000Y-57250000D03*
D41*
X99367700Y-96863000D03*
D40*
X105250000Y-59750000D03*
X79750000Y-59500000D03*
D41*
X99707600Y-95438000D03*
X88005700Y-102623800D03*
X84040500Y-102432300D03*
X90358200Y-101177200D03*
X86633400Y-95852700D03*
X105824300Y-79741300D03*
X104647800Y-122771700D03*
X87796600Y-95157100D03*
X86525200Y-91899700D03*
X79233100Y-93553100D03*
X79233100Y-87960400D03*
X95333000Y-106886000D03*
X93882200Y-106610100D03*
X94100000Y-103000000D03*
X96250600Y-96876500D03*
X92402500Y-93973900D03*
X86205400Y-126226300D03*
X97514900Y-109277500D03*
X107479500Y-77044600D03*
X117669700Y-170742300D03*
D40*
X115300000Y-68000000D03*
X116350000Y-165450000D03*
X92700000Y-166000000D03*
X97100000Y-166000000D03*
D41*
X68241500Y-44070000D03*
X144173400Y-140186500D03*
X146047300Y-129849300D03*
X141803400Y-44750000D03*
X91763900Y-93183300D03*
X92402700Y-106736300D03*
X100861200Y-102552800D03*
X146050000Y-122554700D03*
X103477400Y-122073600D03*
X128404900Y-139380000D03*
X96248200Y-151455000D03*
X94774900Y-150673700D03*
X96813200Y-145911100D03*
X93329500Y-149301300D03*
D40*
X122700000Y-74000000D03*
D41*
X138384800Y-140457200D03*
X133398200Y-159234600D03*
D40*
X129000000Y-41000000D03*
D41*
X106274600Y-118785600D03*
X90568600Y-99080300D03*
X90568600Y-96070800D03*
X106390400Y-102924600D03*
X101672300Y-101701100D03*
D42*
X96500000Y-40640000D02*
X96500000Y-44500000D01*
X77750000Y-56750000D02*
X72000000Y-62500000D01*
X84250000Y-56750000D02*
X77750000Y-56750000D01*
X96500000Y-44500000D02*
X84250000Y-56750000D01*
X98750000Y-57000000D02*
X102000000Y-57000000D01*
X102250000Y-63250000D02*
X102250000Y-67000000D01*
X102250000Y-57250000D02*
X102250000Y-61500000D01*
X102000000Y-57000000D02*
X102250000Y-57250000D01*
X97750000Y-34620000D02*
X96880000Y-34620000D01*
D43*
X94140000Y-43000000D02*
X96500000Y-40640000D01*
X93000000Y-43000000D02*
X94140000Y-43000000D01*
X92000000Y-42000000D02*
X93000000Y-43000000D01*
X92000000Y-39500000D02*
X92000000Y-42000000D01*
D44*
X96880000Y-34620000D02*
X92000000Y-39500000D01*
D42*
X116175000Y-61175000D02*
X116175000Y-63775000D01*
X116250000Y-63750000D02*
X116250000Y-63775000D01*
X116200000Y-63750000D02*
X116250000Y-63750000D01*
X116175000Y-63775000D02*
X116200000Y-63750000D01*
X111400000Y-61175000D02*
X116175000Y-61175000D01*
X116175000Y-61175000D02*
X116250000Y-61250000D01*
X118600000Y-59225000D02*
X117025000Y-59225000D01*
X116825000Y-61825000D02*
X118600000Y-61825000D01*
X116250000Y-61250000D02*
X116825000Y-61825000D01*
X116250000Y-60000000D02*
X116250000Y-61250000D01*
X117025000Y-59225000D02*
X116250000Y-60000000D01*
X99250000Y-67000000D02*
X102250000Y-67000000D01*
X60099760Y-147449960D02*
X60099760Y-152999760D01*
X72100000Y-165000000D02*
X82100000Y-165000000D01*
X60099760Y-152999760D02*
X72100000Y-165000000D01*
X85050000Y-147500000D02*
X83500000Y-147500000D01*
X82100000Y-148900000D02*
X82100000Y-165200000D01*
X83500000Y-147500000D02*
X82100000Y-148900000D01*
X86950000Y-161000000D02*
X88600000Y-161000000D01*
X89000000Y-161400000D02*
X89000000Y-164800000D01*
X88600000Y-161000000D02*
X89000000Y-161400000D01*
X88500000Y-172750000D02*
X82150000Y-172750000D01*
X89780140Y-164800000D02*
X93580140Y-161000000D01*
X82300000Y-164800000D02*
X89000000Y-164800000D01*
X89000000Y-164800000D02*
X89780140Y-164800000D01*
X82100000Y-165000000D02*
X82300000Y-164800000D01*
X82100000Y-168700000D02*
X82100000Y-165200000D01*
X82100000Y-165200000D02*
X82100000Y-165000000D01*
X82150000Y-172750000D02*
X82100000Y-172800000D01*
D45*
X89275090Y-99250196D02*
X89850196Y-99250196D01*
X89824932Y-99750068D02*
X89275090Y-99750068D01*
X89900000Y-99675000D02*
X89824932Y-99750068D01*
X89900000Y-99300000D02*
X89900000Y-99675000D01*
X89850196Y-99250196D02*
X89900000Y-99300000D01*
D43*
X56195300Y-150729500D02*
X59474800Y-147450000D01*
X56195300Y-152785000D02*
X56195300Y-150729500D01*
X60099800Y-147450000D02*
X59474800Y-147450000D01*
X152400000Y-86360000D02*
X149860000Y-86360000D01*
X51475000Y-60750000D02*
X43525000Y-60750000D01*
X52945200Y-61119900D02*
X52575300Y-60750000D01*
X53316000Y-61119900D02*
X52945200Y-61119900D01*
X51475000Y-60750000D02*
X52575300Y-60750000D01*
X97253400Y-100750100D02*
X97253400Y-101750100D01*
X96898400Y-100750100D02*
X97253400Y-100750100D01*
X96898400Y-100750100D02*
X96724900Y-100750100D01*
X96724900Y-100750100D02*
X96196400Y-100750100D01*
X96724900Y-99750100D02*
X96196400Y-99750100D01*
X94499900Y-100500100D02*
X96158700Y-100500100D01*
X96196400Y-100500100D02*
X96158700Y-100500100D01*
X96196400Y-100750100D02*
X96196400Y-100500100D01*
X96196400Y-100500100D02*
X96196400Y-99750100D01*
X61125300Y-46970000D02*
X60775300Y-47320000D01*
X64770000Y-46970000D02*
X61125300Y-46970000D01*
X59650000Y-47320000D02*
X60775300Y-47320000D01*
X164339400Y-102044700D02*
X165164700Y-102870000D01*
X159005600Y-102044700D02*
X164339400Y-102044700D01*
X158430300Y-102620000D02*
X159005600Y-102044700D01*
X166290000Y-102870000D02*
X165164700Y-102870000D01*
X137669400Y-156654700D02*
X138494700Y-157480000D01*
X131700600Y-156654700D02*
X137669400Y-156654700D01*
X131125300Y-157230000D02*
X131700600Y-156654700D01*
X139620000Y-157480000D02*
X138494700Y-157480000D01*
X55720200Y-152785000D02*
X56195300Y-152785000D01*
X55720200Y-152785000D02*
X55245000Y-152785000D01*
X51540300Y-152785000D02*
X51290300Y-153035000D01*
X55245000Y-152785000D02*
X51540300Y-152785000D01*
X50165000Y-153035000D02*
X51290300Y-153035000D01*
X29225300Y-102500000D02*
X29025300Y-102700000D01*
X32000000Y-102500000D02*
X29225300Y-102500000D01*
X27900000Y-102700000D02*
X29025300Y-102700000D01*
X138315300Y-47250000D02*
X138245300Y-47320000D01*
X140500000Y-47250000D02*
X138315300Y-47250000D01*
X137120000Y-47320000D02*
X138245300Y-47320000D01*
X160084700Y-132888000D02*
X160084700Y-132080000D01*
X154935000Y-138037700D02*
X160084700Y-132888000D01*
X154935000Y-138988000D02*
X154935000Y-138037700D01*
X161210000Y-132080000D02*
X160084700Y-132080000D01*
X41275000Y-131830000D02*
X40324700Y-131830000D01*
X35480000Y-132080000D02*
X34354700Y-132080000D01*
X35253300Y-74275000D02*
X34700300Y-74828000D01*
X38100000Y-74275000D02*
X35253300Y-74275000D01*
X161250000Y-74625000D02*
X160124700Y-74625000D01*
X152400000Y-73870000D02*
X149860000Y-73870000D01*
X159299300Y-73799600D02*
X160124700Y-74625000D01*
X153420700Y-73799600D02*
X159299300Y-73799600D01*
X153350300Y-73870000D02*
X153420700Y-73799600D01*
X152400000Y-73870000D02*
X153350300Y-73870000D01*
X119800300Y-59225000D02*
X119800300Y-58575000D01*
X118600000Y-58575000D02*
X119800300Y-58575000D01*
X118600000Y-63775000D02*
X117399700Y-63775000D01*
X117399700Y-63775000D02*
X116250000Y-63775000D01*
X124990600Y-138430000D02*
X124935300Y-138374700D01*
X139870000Y-138430000D02*
X124990600Y-138430000D01*
X142220000Y-121920000D02*
X142220000Y-122870300D01*
X139870000Y-130810000D02*
X139014700Y-130810000D01*
X151810000Y-125130000D02*
X147729600Y-125130000D01*
X147650000Y-132200000D02*
X146397900Y-132200000D01*
X118299100Y-169437500D02*
X117649100Y-169437500D01*
X119499100Y-169437500D02*
X118299100Y-169437500D01*
X120499100Y-172137500D02*
X113499100Y-172137500D01*
X104250000Y-171000000D02*
X104250000Y-171950300D01*
X104250000Y-171950300D02*
X104250000Y-172137500D01*
X99787800Y-172137500D02*
X104250000Y-172137500D01*
X98875300Y-173050000D02*
X99787800Y-172137500D01*
X104250000Y-172137500D02*
X113499100Y-172137500D01*
X142480600Y-48280300D02*
X141450300Y-47250000D01*
X143099600Y-48280300D02*
X142480600Y-48280300D01*
X140500000Y-47250000D02*
X141450300Y-47250000D01*
X105884900Y-124940400D02*
X105825300Y-125000000D01*
X107475100Y-124940400D02*
X105884900Y-124940400D01*
X104750000Y-125000000D02*
X105825300Y-125000000D01*
X122500000Y-116250000D02*
X122500000Y-117200300D01*
X118250000Y-162000000D02*
X119608900Y-162000000D01*
X75150000Y-87949700D02*
X66060000Y-87949700D01*
X75250000Y-88049700D02*
X75150000Y-87949700D01*
X75250000Y-89000000D02*
X75250000Y-88049700D01*
X139014700Y-127112700D02*
X139014700Y-130810000D01*
X139014700Y-127112700D02*
X123373100Y-127112700D01*
X121875000Y-117825300D02*
X122500000Y-117200300D01*
X121875000Y-117903500D02*
X121875000Y-117825300D01*
X154935000Y-138988000D02*
X154935000Y-139938300D01*
X154935000Y-139938300D02*
X150000000Y-139938300D01*
X112726200Y-66948300D02*
X102298300Y-66948300D01*
X102250000Y-67000000D02*
X102250000Y-66996600D01*
X102250000Y-66996600D02*
X102298300Y-66948300D01*
X116250000Y-63775000D02*
X115899500Y-63775000D01*
X115899500Y-63775000D02*
X112726200Y-66948300D01*
X102250000Y-67000000D02*
X102250000Y-67000000D01*
X38100000Y-74275000D02*
X39050300Y-74275000D01*
X41405600Y-71919700D02*
X39050300Y-74275000D01*
X55040000Y-71919700D02*
X41405600Y-71919700D01*
X52500000Y-125200000D02*
X51311100Y-125200000D01*
X98271900Y-173050000D02*
X98875300Y-173050000D01*
X98271900Y-173050000D02*
X97750000Y-173050000D01*
X90575700Y-173875400D02*
X89450300Y-172750000D01*
X95799300Y-173875400D02*
X90575700Y-173875400D01*
X96624700Y-173050000D02*
X95799300Y-173875400D01*
X97750000Y-173050000D02*
X96624700Y-173050000D01*
X88500000Y-172750000D02*
X89450300Y-172750000D01*
X157955200Y-102620000D02*
X158430300Y-102620000D01*
X157955200Y-102620000D02*
X157480000Y-102620000D01*
X157480000Y-102620000D02*
X156129000Y-102620000D01*
X130650200Y-157230000D02*
X131125300Y-157230000D01*
X130650200Y-157230000D02*
X130175000Y-157230000D01*
X102750000Y-77500000D02*
X102750000Y-75000000D01*
X102750000Y-75000000D02*
X102750000Y-72500000D01*
X103224100Y-87549700D02*
X103577500Y-87196300D01*
X102750000Y-87549700D02*
X103224100Y-87549700D01*
X102750000Y-75000000D02*
X103577500Y-75000000D01*
X102750000Y-88500000D02*
X102750000Y-87549700D01*
X102250000Y-68210900D02*
X102365300Y-68326200D01*
X102250000Y-67000000D02*
X102250000Y-68210900D01*
X118600000Y-59225000D02*
X119687700Y-59225000D01*
X119687700Y-59225000D02*
X119800300Y-59225000D01*
X81475200Y-97250000D02*
X81950300Y-97250000D01*
X81475200Y-97250000D02*
X81000000Y-97250000D01*
X78810000Y-97250000D02*
X77855900Y-96295900D01*
X81000000Y-97250000D02*
X78810000Y-97250000D01*
X75250000Y-89000000D02*
X75250000Y-89950300D01*
X77169900Y-89950300D02*
X77855900Y-90636300D01*
X75250000Y-89950300D02*
X77169900Y-89950300D01*
X155073200Y-103675800D02*
X156129000Y-102620000D01*
X154519900Y-103675800D02*
X155073200Y-103675800D01*
X139014700Y-126075600D02*
X140211700Y-124878600D01*
X139014700Y-127112700D02*
X139014700Y-126075600D01*
X142220000Y-122870300D02*
X140211700Y-124878600D01*
X142250000Y-117000000D02*
X147378200Y-117000000D01*
X147378200Y-117000000D02*
X150979400Y-117000000D01*
X58224200Y-47019500D02*
X58524700Y-47320000D01*
X57251200Y-47019500D02*
X58224200Y-47019500D01*
X59650000Y-47320000D02*
X58524700Y-47320000D01*
X32000000Y-103830500D02*
X31833700Y-103996800D01*
X32000000Y-102500000D02*
X32000000Y-103830500D01*
X34354700Y-128230100D02*
X34354700Y-132080000D01*
X34533100Y-128051700D02*
X34354700Y-128230100D01*
X37301700Y-128051700D02*
X34533100Y-128051700D01*
X37539800Y-128289800D02*
X37301700Y-128051700D01*
X37539800Y-129045100D02*
X37539800Y-128289800D01*
X40324700Y-131830000D02*
X37539800Y-129045100D01*
X50165000Y-151986800D02*
X50165000Y-153035000D01*
X49838300Y-151660100D02*
X50165000Y-151986800D01*
X49026500Y-131830000D02*
X49838300Y-131018200D01*
X41275000Y-131830000D02*
X49026500Y-131830000D01*
X49838300Y-126672800D02*
X51311100Y-125200000D01*
X49838300Y-131018200D02*
X49838300Y-126672800D01*
X130175000Y-157230000D02*
X123400100Y-157230000D01*
X123400100Y-157230000D02*
X119608900Y-157230000D01*
X76390700Y-101109300D02*
X74500000Y-103000000D01*
X76470600Y-101109300D02*
X76390700Y-101109300D01*
X33575000Y-74828000D02*
X34137700Y-74828000D01*
X34137700Y-74828000D02*
X34700300Y-74828000D01*
X33663500Y-75302200D02*
X33663500Y-75940500D01*
X34137700Y-74828000D02*
X33663500Y-75302200D01*
X66060000Y-88900000D02*
X66060000Y-88062300D01*
X66060000Y-88062300D02*
X66060000Y-87949700D01*
X56228900Y-78118600D02*
X56228900Y-76940000D01*
X66060000Y-87949700D02*
X56228900Y-78118600D01*
X55040000Y-76940000D02*
X56228900Y-76940000D01*
X96876600Y-101750100D02*
X97253400Y-101750100D01*
X96876600Y-101750100D02*
X96724900Y-101750100D01*
X102750000Y-88500000D02*
X102750000Y-89450300D01*
X120992900Y-118785600D02*
X110638800Y-118785600D01*
X121875000Y-117903500D02*
X120992900Y-118785600D01*
X94499900Y-100500100D02*
X92841100Y-100500100D01*
X89275100Y-99750100D02*
X89275100Y-100250200D01*
X95509900Y-102436500D02*
X95074900Y-102436500D01*
X96196300Y-101750100D02*
X95509900Y-102436500D01*
X96724900Y-101750100D02*
X96196300Y-101750100D01*
X87697600Y-100250200D02*
X87571400Y-100124000D01*
X89275100Y-100250200D02*
X87697600Y-100250200D01*
X89275100Y-100250200D02*
X89803600Y-100250200D01*
X82301400Y-97601100D02*
X81950300Y-97250000D01*
X84916200Y-97601100D02*
X82301400Y-97601100D01*
X92250200Y-104149900D02*
X92250200Y-105724900D01*
X91500100Y-103399800D02*
X92250200Y-104149900D01*
X91500100Y-103399800D02*
X91500100Y-101601300D01*
X101354900Y-90845400D02*
X98288900Y-90845400D01*
X102750000Y-89450300D02*
X101354900Y-90845400D01*
X90469700Y-100250200D02*
X91660500Y-101440900D01*
X89803600Y-100250200D02*
X90469700Y-100250200D01*
X92601300Y-100500100D02*
X91660500Y-101440900D01*
X92841100Y-100500100D02*
X92601300Y-100500100D01*
X91660500Y-101440900D02*
X91500100Y-101601300D01*
X100400900Y-98294000D02*
X99343500Y-98294000D01*
X102899900Y-100793000D02*
X100400900Y-98294000D01*
X102899900Y-102299100D02*
X102899900Y-100793000D01*
X98419500Y-106779500D02*
X102899900Y-102299100D01*
X97395000Y-106779500D02*
X98419500Y-106779500D01*
X95967200Y-108207300D02*
X97395000Y-106779500D01*
X90635000Y-108207300D02*
X95967200Y-108207300D01*
X89270500Y-106842800D02*
X90635000Y-108207300D01*
X89270500Y-106204500D02*
X89270500Y-106842800D01*
X89750100Y-105724900D02*
X89270500Y-106204500D01*
X88601900Y-97746600D02*
X90750100Y-97746600D01*
X88364100Y-97984400D02*
X88601900Y-97746600D01*
X98361200Y-87032800D02*
X89843200Y-87032800D01*
X90750100Y-98275100D02*
X90750100Y-97746600D01*
X96500000Y-94000000D02*
X96500000Y-94900600D01*
X96724900Y-100250200D02*
X97253400Y-100250200D01*
X97253400Y-95654000D02*
X97253400Y-100250200D01*
X96500000Y-94900600D02*
X97253400Y-95654000D01*
X55040000Y-84560000D02*
X56228900Y-84560000D01*
X78000000Y-55000000D02*
X60000000Y-55000000D01*
X57721800Y-86052900D02*
X56228900Y-84560000D01*
X57721800Y-87533100D02*
X57721800Y-86052900D01*
X97594300Y-102749800D02*
X96724900Y-102749800D01*
X98167900Y-102176200D02*
X97594300Y-102749800D01*
X98167900Y-93216700D02*
X98167900Y-102176200D01*
X97409200Y-92458000D02*
X98167900Y-93216700D01*
X91334700Y-92458000D02*
X97409200Y-92458000D01*
X91140200Y-92652500D02*
X91334700Y-92458000D01*
X85399900Y-92652500D02*
X91140200Y-92652500D01*
X85115000Y-92367600D02*
X85399900Y-92652500D01*
X62556300Y-92367600D02*
X85115000Y-92367600D01*
X57721800Y-87533100D02*
X62556300Y-92367600D01*
X43525000Y-56250000D02*
X51475000Y-56250000D01*
X51475000Y-56250000D02*
X51475000Y-57225300D01*
X96724900Y-103249900D02*
X97253400Y-103249900D01*
X97731100Y-103249900D02*
X97253400Y-103249900D01*
X98618200Y-102362800D02*
X97731100Y-103249900D01*
X98618200Y-92198200D02*
X98618200Y-102362800D01*
X107453000Y-92198200D02*
X98618200Y-92198200D01*
X110751200Y-88900000D02*
X107453000Y-92198200D01*
X144780000Y-88900000D02*
X110751200Y-88900000D01*
X52876600Y-57225300D02*
X51475000Y-57225300D01*
X87616600Y-91965300D02*
X52876600Y-57225300D01*
X98385300Y-91965300D02*
X87616600Y-91965300D01*
X98618200Y-92198200D02*
X98385300Y-91965300D01*
X99310200Y-101816500D02*
X99373900Y-101752800D01*
X99310200Y-102366800D02*
X99310200Y-101816500D01*
X97927200Y-103749800D02*
X99310200Y-102366800D01*
X96724900Y-103749800D02*
X97927200Y-103749800D01*
X78000000Y-51409300D02*
X78000000Y-49500000D01*
X79375600Y-52784900D02*
X78000000Y-51409300D01*
X96344400Y-105819400D02*
X96249900Y-105724900D01*
X98689800Y-105819400D02*
X96344400Y-105819400D01*
X102413500Y-102095700D02*
X98689800Y-105819400D01*
X102413500Y-101365900D02*
X102413500Y-102095700D01*
X100156400Y-99108800D02*
X102413500Y-101365900D01*
X95749800Y-105724900D02*
X95749800Y-106253400D01*
X96048900Y-106253400D02*
X96405600Y-106610100D01*
X95749800Y-106253400D02*
X96048900Y-106253400D01*
X88633500Y-111318700D02*
X96405600Y-111318700D01*
X85521600Y-108206800D02*
X88633500Y-111318700D01*
X111446700Y-126013300D02*
X97870000Y-139590000D01*
X111925000Y-126013300D02*
X111446700Y-126013300D01*
X111925000Y-125038000D02*
X111925000Y-126013300D01*
X91250200Y-105724900D02*
X91250200Y-106253400D01*
X92750100Y-106057900D02*
X92750100Y-105724900D01*
X93156900Y-106464700D02*
X92750100Y-106057900D01*
X93156900Y-107351900D02*
X93156900Y-106464700D01*
X94749800Y-106425100D02*
X94749800Y-105724900D01*
X94607600Y-106567300D02*
X94749800Y-106425100D01*
X94607600Y-106910600D02*
X94607600Y-106567300D01*
X94166300Y-107351900D02*
X94607600Y-106910600D01*
X93156900Y-107351900D02*
X94166300Y-107351900D01*
X93113600Y-107395200D02*
X93156900Y-107438500D01*
X93018400Y-107490400D02*
X93113600Y-107395200D01*
X92131100Y-107490400D02*
X93018400Y-107490400D01*
X91250200Y-106609500D02*
X92131100Y-107490400D01*
X91250200Y-106253400D02*
X91250200Y-106609500D01*
X93113600Y-107395200D02*
X93156900Y-107351900D01*
D42*
X111400000Y-58575000D02*
X107825000Y-58575000D01*
X74540000Y-64710000D02*
X74540000Y-62500000D01*
X74500000Y-64750000D02*
X74540000Y-64710000D01*
X107825000Y-58575000D02*
X107750000Y-58500000D01*
D43*
X93249900Y-105724900D02*
X93249900Y-105196400D01*
X93041600Y-104988100D02*
X93041600Y-104899800D01*
X93249900Y-105196400D02*
X93041600Y-104988100D01*
X78213000Y-146312300D02*
X61800100Y-146312300D01*
X104512900Y-120012400D02*
X78213000Y-146312300D01*
X123362300Y-120012400D02*
X104512900Y-120012400D01*
X133874700Y-109500000D02*
X123362300Y-120012400D01*
X134550000Y-109500000D02*
X133874700Y-109500000D01*
X90750100Y-107220300D02*
X90764000Y-107234200D01*
X90750100Y-105724900D02*
X90750100Y-107220300D01*
X90250200Y-106322500D02*
X90024000Y-106548700D01*
X90250200Y-105724900D02*
X90250200Y-106322500D01*
X86854600Y-102749200D02*
X86854600Y-103172600D01*
X87853700Y-101750100D02*
X86854600Y-102749200D01*
X89275100Y-101750100D02*
X87853700Y-101750100D01*
D42*
X111400000Y-57275000D02*
X107775000Y-57275000D01*
X82160000Y-58590000D02*
X82160000Y-62500000D01*
X82250000Y-58500000D02*
X82160000Y-58590000D01*
X107775000Y-57275000D02*
X107750000Y-57250000D01*
D43*
X99686100Y-96863000D02*
X99367700Y-96863000D01*
X103350200Y-100527100D02*
X99686100Y-96863000D01*
X103350200Y-102485700D02*
X103350200Y-100527100D01*
X98437500Y-107398400D02*
X103350200Y-102485700D01*
X97731300Y-107398400D02*
X98437500Y-107398400D01*
X96472100Y-108657600D02*
X97731300Y-107398400D01*
X90448400Y-108657600D02*
X96472100Y-108657600D01*
X88817100Y-107026300D02*
X90448400Y-108657600D01*
X88817100Y-105707900D02*
X88817100Y-107026300D01*
X89275100Y-105249900D02*
X88817100Y-105707900D01*
D42*
X79620000Y-62500000D02*
X79620000Y-59630000D01*
X105375000Y-59875000D02*
X111400000Y-59875000D01*
X105250000Y-59750000D02*
X105375000Y-59875000D01*
X79620000Y-59630000D02*
X79750000Y-59500000D01*
D43*
X89275100Y-104749800D02*
X88746600Y-104749800D01*
X103800500Y-99530900D02*
X99707600Y-95438000D01*
X103800500Y-102672300D02*
X103800500Y-99530900D01*
X98624000Y-107848800D02*
X103800500Y-102672300D01*
X97917800Y-107848800D02*
X98624000Y-107848800D01*
X96658700Y-109107900D02*
X97917800Y-107848800D01*
X90261800Y-109107900D02*
X96658700Y-109107900D01*
X88357000Y-107203100D02*
X90261800Y-109107900D01*
X88357000Y-105139400D02*
X88357000Y-107203100D01*
X88746600Y-104749800D02*
X88357000Y-105139400D01*
X154940000Y-88900000D02*
X153751100Y-88900000D01*
X136950000Y-87000000D02*
X137625300Y-87000000D01*
X138300600Y-87675300D02*
X145969000Y-87675300D01*
X137625300Y-87000000D02*
X138300600Y-87675300D01*
X153751100Y-88528400D02*
X153751100Y-88900000D01*
X152898000Y-87675300D02*
X153751100Y-88528400D01*
X145969000Y-87675300D02*
X152898000Y-87675300D01*
X145969000Y-89409200D02*
X145969000Y-87675300D01*
X144408000Y-90970200D02*
X145969000Y-89409200D01*
X116642100Y-90970200D02*
X144408000Y-90970200D01*
X98240300Y-109372000D02*
X116642100Y-90970200D01*
X98240300Y-109578000D02*
X98240300Y-109372000D01*
X97809800Y-110008500D02*
X98240300Y-109578000D01*
X89888600Y-110008500D02*
X97809800Y-110008500D01*
X87400800Y-107520700D02*
X89888600Y-110008500D01*
X87400800Y-104807000D02*
X87400800Y-107520700D01*
X88408300Y-103799500D02*
X87400800Y-104807000D01*
X88886000Y-103799500D02*
X88408300Y-103799500D01*
X88935700Y-103749800D02*
X88886000Y-103799500D01*
X89275100Y-103749800D02*
X88935700Y-103749800D01*
X152400000Y-88900000D02*
X151211100Y-88900000D01*
X89275100Y-103249900D02*
X88746600Y-103249900D01*
X151211100Y-89318600D02*
X151211100Y-88900000D01*
X145756700Y-94773000D02*
X151211100Y-89318600D01*
X113476200Y-94773000D02*
X145756700Y-94773000D01*
X98690600Y-109558600D02*
X113476200Y-94773000D01*
X98690600Y-109764600D02*
X98690600Y-109558600D01*
X97996400Y-110458800D02*
X98690600Y-109764600D01*
X89702000Y-110458800D02*
X97996400Y-110458800D01*
X86950500Y-107707300D02*
X89702000Y-110458800D01*
X86950500Y-104607400D02*
X86950500Y-107707300D01*
X88208700Y-103349200D02*
X86950500Y-104607400D01*
X88647300Y-103349200D02*
X88208700Y-103349200D01*
X88746600Y-103249900D02*
X88647300Y-103349200D01*
X81000000Y-103950000D02*
X81000000Y-103274700D01*
X83198100Y-103274700D02*
X84040500Y-102432300D01*
X81000000Y-103274700D02*
X83198100Y-103274700D01*
X88131700Y-102749800D02*
X88005700Y-102623800D01*
X89275100Y-102749800D02*
X88131700Y-102749800D01*
X55040000Y-89640000D02*
X56228900Y-89640000D01*
X89275100Y-102249900D02*
X89803600Y-102249900D01*
X89803600Y-101731800D02*
X90358200Y-101177200D01*
X89803600Y-102249900D02*
X89803600Y-101731800D01*
X78973300Y-95852700D02*
X86633400Y-95852700D01*
X77745400Y-94624800D02*
X78973300Y-95852700D01*
X61213700Y-94624800D02*
X77745400Y-94624800D01*
X56228900Y-89640000D02*
X61213700Y-94624800D01*
X81050000Y-124000000D02*
X81725300Y-124000000D01*
X120000000Y-116250000D02*
X120000000Y-117200300D01*
X84516300Y-124975300D02*
X85736800Y-124975300D01*
X84075700Y-124534700D02*
X84516300Y-124975300D01*
X84075700Y-123627500D02*
X84075700Y-124534700D01*
X83472800Y-123024600D02*
X84075700Y-123627500D01*
X82447500Y-123024600D02*
X83472800Y-123024600D01*
X81725300Y-123746800D02*
X82447500Y-123024600D01*
X81725300Y-124000000D02*
X81725300Y-123746800D01*
X119724900Y-117475400D02*
X120000000Y-117200300D01*
X95571500Y-117475400D02*
X119724900Y-117475400D01*
X88071600Y-124975300D02*
X95571500Y-117475400D01*
X85736800Y-124975300D02*
X88071600Y-124975300D01*
X85736800Y-110366800D02*
X85736800Y-124975300D01*
X84796300Y-109426300D02*
X85736800Y-110366800D01*
X84796300Y-104168200D02*
X84796300Y-109426300D01*
X87664800Y-101299700D02*
X84796300Y-104168200D01*
X88489900Y-101299700D02*
X87664800Y-101299700D01*
X88539400Y-101250200D02*
X88489900Y-101299700D01*
X89275100Y-101250200D02*
X88539400Y-101250200D01*
X89275100Y-100750100D02*
X88746600Y-100750100D01*
X85050000Y-124000000D02*
X85050000Y-123024700D01*
X84346000Y-122320700D02*
X85050000Y-123024700D01*
X84346000Y-103981600D02*
X84346000Y-122320700D01*
X87478200Y-100849400D02*
X84346000Y-103981600D01*
X88242400Y-100849400D02*
X87478200Y-100849400D01*
X88341700Y-100750100D02*
X88242400Y-100849400D01*
X88746600Y-100750100D02*
X88341700Y-100750100D01*
X60750000Y-148540000D02*
X60750000Y-145550000D01*
X70960000Y-158750000D02*
X60750000Y-148540000D01*
X60750000Y-145550000D02*
X61375000Y-145550000D01*
X61705300Y-145219700D02*
X61375000Y-145550000D01*
X61705300Y-145219600D02*
X61705300Y-145219700D01*
X78668800Y-145219600D02*
X61705300Y-145219600D01*
X104377400Y-119511000D02*
X78668800Y-145219600D01*
X121371400Y-119511000D02*
X104377400Y-119511000D01*
X136450000Y-104432400D02*
X121371400Y-119511000D01*
X136450000Y-103000000D02*
X136450000Y-104432400D01*
X61400200Y-147450000D02*
X62025200Y-147450000D01*
X110025000Y-125038000D02*
X109349700Y-125038000D01*
X88717600Y-145670100D02*
X109349700Y-125038000D01*
X79717500Y-145670100D02*
X88717600Y-145670100D01*
X77937600Y-147450000D02*
X79717500Y-145670100D01*
X62025200Y-147450000D02*
X77937600Y-147450000D01*
D42*
X125080140Y-59500000D02*
X122000000Y-59500000D01*
X120975000Y-60525000D02*
X118600000Y-60525000D01*
X122000000Y-59500000D02*
X120975000Y-60525000D01*
X118600000Y-61175000D02*
X121255140Y-61175000D01*
X121255140Y-61175000D02*
X125080140Y-65000000D01*
D43*
X54650000Y-47320000D02*
X55775300Y-47320000D01*
X97750000Y-31420000D02*
X96624700Y-31420000D01*
X96624700Y-33182200D02*
X96624700Y-31420000D01*
X83912300Y-45894600D02*
X96624700Y-33182200D01*
X57200700Y-45894600D02*
X83912300Y-45894600D01*
X55775300Y-47320000D02*
X57200700Y-45894600D01*
D42*
X82400000Y-35700000D02*
X92300000Y-35700000D01*
X92300000Y-35700000D02*
X92750000Y-35250000D01*
X92750000Y-35250000D02*
X92750000Y-34620000D01*
D43*
X29700300Y-67268400D02*
X29700300Y-74828000D01*
X53674000Y-43294700D02*
X29700300Y-67268400D01*
X57699400Y-43294700D02*
X53674000Y-43294700D01*
X58524700Y-44120000D02*
X57699400Y-43294700D01*
X59650000Y-44120000D02*
X58524700Y-44120000D01*
X28575000Y-74828000D02*
X29700300Y-74828000D01*
X160084700Y-102950000D02*
X160084700Y-128880000D01*
X160164700Y-102870000D02*
X160084700Y-102950000D01*
X161290000Y-102870000D02*
X160164700Y-102870000D01*
X161210000Y-128880000D02*
X160084700Y-128880000D01*
X140745300Y-146419400D02*
X155084700Y-132080000D01*
X140745300Y-154280000D02*
X140745300Y-146419400D01*
X139620000Y-154280000D02*
X140745300Y-154280000D01*
X156210000Y-132080000D02*
X155084700Y-132080000D01*
X110420000Y-158305300D02*
X98875300Y-169850000D01*
X132669400Y-158305300D02*
X110420000Y-158305300D01*
X133494700Y-157480000D02*
X132669400Y-158305300D01*
X134620000Y-157480000D02*
X133494700Y-157480000D01*
X97750000Y-169850000D02*
X98875300Y-169850000D01*
X89900100Y-171325400D02*
X91624700Y-173050000D01*
X65242500Y-171325400D02*
X89900100Y-171325400D01*
X45027800Y-151110700D02*
X65242500Y-171325400D01*
X44609000Y-151110700D02*
X45027800Y-151110700D01*
X44039600Y-150541300D02*
X44609000Y-151110700D01*
X44039600Y-149124800D02*
X44039600Y-150541300D01*
X44154800Y-149009600D02*
X44039600Y-149124800D01*
X48214300Y-149009600D02*
X44154800Y-149009600D01*
X49039700Y-149835000D02*
X48214300Y-149009600D01*
X50165000Y-149835000D02*
X49039700Y-149835000D01*
X92750000Y-173050000D02*
X91624700Y-173050000D01*
X22900000Y-102700000D02*
X21774700Y-102700000D01*
X33575000Y-71628000D02*
X32449700Y-71628000D01*
X21774700Y-90307900D02*
X21774700Y-102700000D01*
X31519900Y-80562700D02*
X21774700Y-90307900D01*
X31519900Y-79925800D02*
X31519900Y-80562700D01*
X31999400Y-79446300D02*
X31519900Y-79925800D01*
X31999400Y-73454000D02*
X31999400Y-79446300D01*
X32224600Y-73228800D02*
X31999400Y-73454000D01*
X32224600Y-73041400D02*
X32224600Y-73228800D01*
X32449700Y-72816300D02*
X32224600Y-73041400D01*
X32449700Y-71628000D02*
X32449700Y-72816300D01*
X136450000Y-109500000D02*
X140580100Y-109500000D01*
X93580100Y-147500000D02*
X86950000Y-147500000D01*
X165164700Y-82414400D02*
X157375300Y-74625000D01*
X165164700Y-99670000D02*
X165164700Y-82414400D01*
X166290000Y-99670000D02*
X165164700Y-99670000D01*
X156250000Y-74625000D02*
X157375300Y-74625000D01*
X102250000Y-125000000D02*
X102250000Y-124049700D01*
X118600000Y-64425000D02*
X117399700Y-64425000D01*
X105824300Y-75443100D02*
X105824300Y-79741300D01*
X116842400Y-64425000D02*
X105824300Y-75443100D01*
X117399700Y-64425000D02*
X116842400Y-64425000D01*
X103369800Y-124049700D02*
X104647800Y-122771700D01*
X102250000Y-124049700D02*
X103369800Y-124049700D01*
X81000000Y-102050000D02*
X81000000Y-101374700D01*
X83722000Y-101374700D02*
X81000000Y-101374700D01*
X87850200Y-97246500D02*
X83722000Y-101374700D01*
X93059200Y-97246500D02*
X87850200Y-97246500D01*
X93749800Y-97937100D02*
X93059200Y-97246500D01*
X93749800Y-98275100D02*
X93749800Y-97937100D01*
X68560000Y-88900000D02*
X68560000Y-89850300D01*
X70609400Y-91899700D02*
X86525200Y-91899700D01*
X68560000Y-89850300D02*
X70609400Y-91899700D01*
X92523400Y-95157100D02*
X87796600Y-95157100D01*
X95249900Y-97883600D02*
X92523400Y-95157100D01*
X95249900Y-98275100D02*
X95249900Y-97883600D01*
X77750000Y-89000000D02*
X77750000Y-88049700D01*
X77839300Y-87960400D02*
X79233100Y-87960400D01*
X77750000Y-88049700D02*
X77839300Y-87960400D01*
X95749800Y-98275100D02*
X95749800Y-97746600D01*
X92710000Y-94706800D02*
X95749800Y-97746600D01*
X92102100Y-94706800D02*
X92710000Y-94706800D01*
X90948400Y-93553100D02*
X92102100Y-94706800D01*
X79233100Y-93553100D02*
X90948400Y-93553100D01*
X95249900Y-105724900D02*
X95249900Y-106253400D01*
X95249900Y-106802900D02*
X95333000Y-106886000D01*
X95249900Y-106253400D02*
X95249900Y-106802900D01*
X94249900Y-105724900D02*
X94249900Y-106253400D01*
X94238900Y-106253400D02*
X94249900Y-106253400D01*
X93882200Y-106610100D02*
X94238900Y-106253400D01*
X93348000Y-93973900D02*
X92402500Y-93973900D01*
X96250600Y-96876500D02*
X93348000Y-93973900D01*
X79000000Y-133431700D02*
X86205400Y-126226300D01*
X79000000Y-139500000D02*
X79000000Y-133431700D01*
X93766900Y-103449900D02*
X94100000Y-103000000D01*
X93766900Y-105707800D02*
X93766900Y-103449900D01*
X93749800Y-105724900D02*
X93766900Y-105707800D01*
X97234200Y-109558200D02*
X97514900Y-109277500D01*
X90075200Y-109558200D02*
X97234200Y-109558200D01*
X87851100Y-107334100D02*
X90075200Y-109558200D01*
X87851100Y-104993600D02*
X87851100Y-107334100D01*
X88594800Y-104249900D02*
X87851100Y-104993600D01*
X89275100Y-104249900D02*
X88594800Y-104249900D01*
D42*
X126225300Y-58929500D02*
X126225300Y-55000000D01*
D43*
X126795800Y-59500000D02*
X126225300Y-58929500D01*
X125550000Y-55000000D02*
X126225300Y-55000000D01*
X127919900Y-59500000D02*
X126795800Y-59500000D01*
D42*
X134000000Y-56950000D02*
X134000000Y-58919860D01*
X134000000Y-58919860D02*
X127919860Y-65000000D01*
D43*
X159299400Y-72250300D02*
X160124700Y-71425000D01*
X155313100Y-72250300D02*
X159299400Y-72250300D01*
X132120000Y-49057200D02*
X155313100Y-72250300D01*
X132120000Y-47320000D02*
X132120000Y-49057200D01*
X161250000Y-71425000D02*
X160124700Y-71425000D01*
X36605300Y-145600600D02*
X36605300Y-128880000D01*
X44039700Y-153035000D02*
X36605300Y-145600600D01*
X45165000Y-153035000D02*
X44039700Y-153035000D01*
X35480000Y-128880000D02*
X36605300Y-128880000D01*
X27900000Y-99500000D02*
X29025300Y-99500000D01*
X30480000Y-132080000D02*
X31605300Y-132080000D01*
X32980000Y-130705300D02*
X31605300Y-132080000D01*
X32980000Y-99138900D02*
X32980000Y-130705300D01*
X32765700Y-98924600D02*
X32980000Y-99138900D01*
X29600700Y-98924600D02*
X32765700Y-98924600D01*
X29025300Y-99500000D02*
X29600700Y-98924600D01*
X96600000Y-89748200D02*
X96600000Y-88250000D01*
X96500000Y-89848200D02*
X96600000Y-89748200D01*
X96500000Y-90748800D02*
X96500000Y-89848200D01*
X97800300Y-88500000D02*
X97550300Y-88250000D01*
X100250000Y-88500000D02*
X97800300Y-88500000D01*
X96600000Y-88250000D02*
X97550300Y-88250000D01*
X99049100Y-77625600D02*
X99174700Y-77500000D01*
X96500000Y-77625600D02*
X99049100Y-77625600D01*
X100250000Y-77500000D02*
X99174700Y-77500000D01*
X96500000Y-79874400D02*
X96500000Y-77625600D01*
X96500000Y-74374400D02*
X96500000Y-72250000D01*
X97700300Y-72500000D02*
X97450300Y-72250000D01*
X100250000Y-72500000D02*
X97700300Y-72500000D01*
X96500000Y-72250000D02*
X97450300Y-72250000D01*
D42*
X96750000Y-67000000D02*
X96750000Y-64875600D01*
X96750000Y-64875600D02*
X96500000Y-64625600D01*
X96750000Y-67000000D02*
X96750000Y-69500000D01*
X96750000Y-69500000D02*
X96500000Y-69750000D01*
D43*
X96600000Y-84126200D02*
X96600000Y-85750000D01*
X96500000Y-84026200D02*
X96600000Y-84126200D01*
X96500000Y-83125600D02*
X96500000Y-84026200D01*
X107261500Y-77044600D02*
X107479500Y-77044600D01*
X106391400Y-76174500D02*
X107261500Y-77044600D01*
X106391400Y-75512900D02*
X106391400Y-76174500D01*
X112642600Y-69261700D02*
X106391400Y-75512900D01*
X117036700Y-69261700D02*
X112642600Y-69261700D01*
X118972900Y-67325500D02*
X117036700Y-69261700D01*
X118972900Y-66097900D02*
X118972900Y-67325500D01*
X118600000Y-65725000D02*
X118972900Y-66097900D01*
X117365200Y-170437800D02*
X117669700Y-170742300D01*
X116999100Y-170437800D02*
X117365200Y-170437800D01*
X116999100Y-169437500D02*
X116999100Y-170437800D01*
D42*
X116349100Y-169437460D02*
X116349100Y-166200900D01*
X117225000Y-65075000D02*
X118600000Y-65075000D01*
X116800000Y-65500000D02*
X117225000Y-65075000D01*
X116800000Y-66500000D02*
X116800000Y-65500000D01*
X115300000Y-68000000D02*
X116800000Y-66500000D01*
X116349100Y-166200900D02*
X116350000Y-165450000D01*
X92700000Y-166000000D02*
X92700000Y-169800000D01*
X92700000Y-169800000D02*
X92750000Y-169850000D01*
X98818260Y-150000000D02*
X98818260Y-164281740D01*
X98818260Y-164281740D02*
X97100000Y-166000000D01*
X96419860Y-147500000D02*
X96419860Y-147601600D01*
X96419860Y-147601600D02*
X98818260Y-150000000D01*
D43*
X75641500Y-31300000D02*
X75641500Y-36670000D01*
X75641500Y-36670000D02*
X68241500Y-44070000D01*
X135050000Y-87000000D02*
X135725300Y-87000000D01*
X90250200Y-98275100D02*
X89750100Y-98275100D01*
X89750100Y-98275100D02*
X89275100Y-98750100D01*
X89275100Y-98750100D02*
X88746600Y-98750100D01*
X63344400Y-44945300D02*
X63819700Y-44470000D01*
X56600600Y-44945300D02*
X63344400Y-44945300D01*
X55775300Y-44120000D02*
X56600600Y-44945300D01*
X54650000Y-44120000D02*
X55775300Y-44120000D01*
X64770000Y-44470000D02*
X63819700Y-44470000D01*
X92750000Y-31420000D02*
X93875300Y-31420000D01*
X94000000Y-40640000D02*
X94000000Y-39689700D01*
X131575300Y-154280000D02*
X131125300Y-154730000D01*
X134620000Y-154280000D02*
X131575300Y-154280000D01*
X130175000Y-154730000D02*
X131125300Y-154730000D01*
X45165000Y-149835000D02*
X46290300Y-149835000D01*
X55245000Y-150285000D02*
X54294700Y-150285000D01*
X30724400Y-100325300D02*
X31049700Y-100000000D01*
X24850600Y-100325300D02*
X30724400Y-100325300D01*
X24025300Y-99500000D02*
X24850600Y-100325300D01*
X22900000Y-99500000D02*
X24025300Y-99500000D01*
X32000000Y-100000000D02*
X31049700Y-100000000D01*
X89850300Y-169850000D02*
X89450300Y-170250000D01*
X92750000Y-169850000D02*
X89850300Y-169850000D01*
X30480000Y-128880000D02*
X29354700Y-128880000D01*
X41275000Y-129330000D02*
X40324700Y-129330000D01*
X28575000Y-71628000D02*
X27449700Y-71628000D01*
X38100000Y-71775000D02*
X37149700Y-71775000D01*
X49039600Y-153702200D02*
X49039600Y-150660300D01*
X54087400Y-158750000D02*
X49039600Y-153702200D01*
X60960000Y-158750000D02*
X54087400Y-158750000D01*
X47115600Y-150660300D02*
X49039600Y-150660300D01*
X46290300Y-149835000D02*
X47115600Y-150660300D01*
X53919400Y-150660300D02*
X54294700Y-150285000D01*
X49039600Y-150660300D02*
X53919400Y-150660300D01*
X142630000Y-71370000D02*
X152400000Y-71370000D01*
X140500000Y-73500000D02*
X142630000Y-71370000D01*
X130175000Y-154730000D02*
X129224700Y-154730000D01*
X66120300Y-44070000D02*
X65720300Y-44470000D01*
X68241500Y-44070000D02*
X66120300Y-44070000D01*
X64770000Y-44470000D02*
X65720300Y-44470000D01*
X141597500Y-74597500D02*
X140500000Y-73500000D01*
X141597500Y-85162800D02*
X141597500Y-74597500D01*
X152925400Y-85162800D02*
X141597500Y-85162800D01*
X153751100Y-85988500D02*
X152925400Y-85162800D01*
X153751100Y-86360000D02*
X153751100Y-85988500D01*
X135725300Y-86746800D02*
X135725300Y-87000000D01*
X137309300Y-85162800D02*
X135725300Y-86746800D01*
X141597500Y-85162800D02*
X137309300Y-85162800D01*
X134550000Y-103000000D02*
X134550000Y-102024700D01*
X94575300Y-39689700D02*
X98876600Y-35388400D01*
X94000000Y-39689700D02*
X94575300Y-39689700D01*
X94700600Y-30594700D02*
X93875300Y-31420000D01*
X98686200Y-30594700D02*
X94700600Y-30594700D01*
X98876600Y-30785100D02*
X98686200Y-30594700D01*
X98876600Y-35388400D02*
X98876600Y-30785100D01*
X92500000Y-31300000D02*
X75641500Y-31300000D01*
X93875300Y-35294700D02*
X93630000Y-35540000D01*
X93875300Y-31420000D02*
X93875300Y-35294700D01*
X54650000Y-44120000D02*
X53524700Y-44120000D01*
X36177300Y-61467400D02*
X53524700Y-44120000D01*
X36177300Y-70802600D02*
X36177300Y-61467400D01*
X38550400Y-127555700D02*
X40324700Y-129330000D01*
X34353000Y-127555700D02*
X38550400Y-127555700D01*
X33508100Y-128400600D02*
X34353000Y-127555700D01*
X33508100Y-130840300D02*
X33508100Y-128400600D01*
X31413100Y-132935300D02*
X33508100Y-130840300D01*
X29530300Y-132935300D02*
X31413100Y-132935300D01*
X29354700Y-132759700D02*
X29530300Y-132935300D01*
X29354700Y-128880000D02*
X29354700Y-132759700D01*
X55040000Y-125200000D02*
X53851100Y-125200000D01*
X53851100Y-124308300D02*
X53851100Y-125200000D01*
X53553900Y-124011100D02*
X53851100Y-124308300D01*
X45643600Y-124011100D02*
X53553900Y-124011100D01*
X40324700Y-129330000D02*
X45643600Y-124011100D01*
X88975200Y-170250000D02*
X89450300Y-170250000D01*
X88975200Y-170250000D02*
X88500000Y-170250000D01*
X72460000Y-170250000D02*
X60960000Y-158750000D01*
X88500000Y-170250000D02*
X72460000Y-170250000D01*
X154351500Y-86360000D02*
X153751100Y-86360000D01*
X154351500Y-86360000D02*
X154940000Y-86360000D01*
X154940000Y-86360000D02*
X154940000Y-87548900D01*
X147174900Y-129700000D02*
X146699700Y-129700000D01*
X147174900Y-129700000D02*
X147650000Y-129700000D01*
X156137400Y-88374800D02*
X156137400Y-96406400D01*
X155311500Y-87548900D02*
X156137400Y-88374800D01*
X154940000Y-87548900D02*
X155311500Y-87548900D01*
X157480000Y-97749000D02*
X156137400Y-96406400D01*
X157480000Y-100120000D02*
X157480000Y-97749000D01*
X145637600Y-96406400D02*
X144544000Y-97500000D01*
X156137400Y-96406400D02*
X145637600Y-96406400D01*
X148740600Y-129700000D02*
X147650000Y-129700000D01*
X152785400Y-125655200D02*
X148740600Y-129700000D01*
X152785400Y-122666200D02*
X152785400Y-125655200D01*
X149576400Y-119457200D02*
X152785400Y-122666200D01*
X140320100Y-119457200D02*
X149576400Y-119457200D01*
X138674600Y-117811700D02*
X140320100Y-119457200D01*
X138674600Y-114245300D02*
X138674600Y-117811700D01*
X142295800Y-110624100D02*
X138674600Y-114245300D01*
X142295800Y-109500000D02*
X142295800Y-110624100D01*
X36177300Y-70802600D02*
X37149700Y-71775000D01*
X32557200Y-70802600D02*
X34732400Y-70802600D01*
X31300200Y-72059600D02*
X32557200Y-70802600D01*
X31300200Y-73896900D02*
X31300200Y-72059600D01*
X29543700Y-75653400D02*
X31300200Y-73896900D01*
X27576200Y-75653400D02*
X29543700Y-75653400D01*
X27449700Y-75526900D02*
X27576200Y-75653400D01*
X27449700Y-71628000D02*
X27449700Y-75526900D01*
X34732400Y-70802600D02*
X36177300Y-70802600D01*
X78499900Y-93915800D02*
X78499900Y-93228700D01*
X79334100Y-94750000D02*
X78499900Y-93915800D01*
X81000000Y-94750000D02*
X79334100Y-94750000D01*
X129224700Y-154730000D02*
X121994700Y-147500000D01*
X96419900Y-147500000D02*
X121994700Y-147500000D01*
X136859900Y-147500000D02*
X144173400Y-140186500D01*
X121994700Y-147500000D02*
X136859900Y-147500000D01*
X146036600Y-129860000D02*
X146047300Y-129849300D01*
X142070000Y-129860000D02*
X146036600Y-129860000D01*
X146550400Y-129849300D02*
X146699700Y-129700000D01*
X146047300Y-129849300D02*
X146550400Y-129849300D01*
X142949700Y-109500000D02*
X142949700Y-103000000D01*
X143419900Y-109500000D02*
X142949700Y-109500000D01*
X142949700Y-109500000D02*
X142295800Y-109500000D01*
X143419900Y-103000000D02*
X142949700Y-103000000D01*
X142949700Y-103000000D02*
X142295800Y-103000000D01*
X143419900Y-97500000D02*
X143982000Y-97500000D01*
X143982000Y-97500000D02*
X144544000Y-97500000D01*
X143982000Y-98973800D02*
X141406800Y-101549000D01*
X143982000Y-97500000D02*
X143982000Y-98973800D01*
X142295800Y-102438000D02*
X141406800Y-101549000D01*
X142295800Y-103000000D02*
X142295800Y-102438000D01*
X135025700Y-101549000D02*
X134550000Y-102024700D01*
X141406800Y-101549000D02*
X135025700Y-101549000D01*
X53770000Y-88429100D02*
X32449700Y-88429100D01*
X32449700Y-74106100D02*
X32449700Y-88429100D01*
X32915200Y-73640600D02*
X32449700Y-74106100D01*
X33339300Y-73640600D02*
X32915200Y-73640600D01*
X34732400Y-72247500D02*
X33339300Y-73640600D01*
X34732400Y-70802600D02*
X34732400Y-72247500D01*
X32449700Y-91075600D02*
X24025300Y-99500000D01*
X32449700Y-88429100D02*
X32449700Y-91075600D01*
X70650200Y-108772400D02*
X70650200Y-106107800D01*
X55411500Y-124011100D02*
X70650200Y-108772400D01*
X55040000Y-124011100D02*
X55411500Y-124011100D01*
X53770000Y-90073300D02*
X53770000Y-88429100D01*
X54525700Y-90829000D02*
X53770000Y-90073300D01*
X55371400Y-90829000D02*
X54525700Y-90829000D01*
X70650200Y-106107800D02*
X55371400Y-90829000D01*
X55040000Y-125200000D02*
X55040000Y-124011100D01*
X140500000Y-44750000D02*
X141450300Y-44750000D01*
X141450300Y-44750000D02*
X141803400Y-44750000D01*
X55808500Y-88429100D02*
X53770000Y-88429100D01*
X60608100Y-93228700D02*
X55808500Y-88429100D01*
X78499900Y-93228700D02*
X60608100Y-93228700D01*
X78909400Y-92819200D02*
X78499900Y-93228700D01*
X84929700Y-92819200D02*
X78909400Y-92819200D01*
X85213300Y-93102800D02*
X84929700Y-92819200D01*
X91683400Y-93102800D02*
X85213300Y-93102800D01*
X91763900Y-93183300D02*
X91683400Y-93102800D01*
X91750100Y-105724900D02*
X91750100Y-106253400D01*
X92233000Y-106736300D02*
X92402700Y-106736300D01*
X91750100Y-106253400D02*
X92233000Y-106736300D01*
X97457300Y-102249900D02*
X96724900Y-102249900D01*
X97717600Y-101989600D02*
X97457300Y-102249900D01*
X97717600Y-93403300D02*
X97717600Y-101989600D01*
X97392900Y-93078600D02*
X97717600Y-93403300D01*
X91868600Y-93078600D02*
X97392900Y-93078600D01*
X91763900Y-93183300D02*
X91868600Y-93078600D01*
X87919600Y-98750100D02*
X88746600Y-98750100D01*
X86216100Y-100453600D02*
X87919600Y-98750100D01*
X86216100Y-101289300D02*
X86216100Y-100453600D01*
X81397600Y-106107800D02*
X86216100Y-101289300D01*
X70650200Y-106107800D02*
X81397600Y-106107800D01*
X96724900Y-105249900D02*
X97253400Y-105249900D01*
X151810000Y-123230000D02*
X151810000Y-122554700D01*
X151810000Y-122554700D02*
X146050000Y-122554700D01*
X105037100Y-120513900D02*
X103477400Y-122073600D01*
X144009200Y-120513900D02*
X105037100Y-120513900D01*
X146050000Y-122554700D02*
X144009200Y-120513900D01*
X100720700Y-102693300D02*
X100861200Y-102552800D01*
X100257400Y-102693300D02*
X100720700Y-102693300D01*
X100257400Y-102693400D02*
X100257400Y-102693300D01*
X97700900Y-105249900D02*
X100257400Y-102693400D01*
X97253400Y-105249900D02*
X97700900Y-105249900D01*
X154343500Y-101456200D02*
X139750000Y-116049700D01*
X158378500Y-101456200D02*
X154343500Y-101456200D01*
X160164700Y-99670000D02*
X158378500Y-101456200D01*
X161290000Y-99670000D02*
X160164700Y-99670000D01*
X139750000Y-117000000D02*
X139750000Y-116049700D01*
X133245300Y-49545600D02*
X155124700Y-71425000D01*
X133245300Y-44120000D02*
X133245300Y-49545600D01*
X132120000Y-44120000D02*
X133245300Y-44120000D01*
X156250000Y-71425000D02*
X155687400Y-71425000D01*
X155687400Y-71425000D02*
X155124700Y-71425000D01*
X163240600Y-100495300D02*
X162415300Y-99670000D01*
X167288900Y-100495300D02*
X163240600Y-100495300D01*
X167415400Y-100368800D02*
X167288900Y-100495300D01*
X167415400Y-82290600D02*
X167415400Y-100368800D01*
X165615100Y-80490300D02*
X167415400Y-82290600D01*
X165615100Y-73991400D02*
X165615100Y-80490300D01*
X162208200Y-70584500D02*
X165615100Y-73991400D01*
X156527900Y-70584500D02*
X162208200Y-70584500D01*
X155687400Y-71425000D02*
X156527900Y-70584500D01*
X161290000Y-99670000D02*
X162415300Y-99670000D01*
X139442400Y-139380000D02*
X139014700Y-139380000D01*
X139442400Y-139380000D02*
X139870000Y-139380000D01*
X142932300Y-133967000D02*
X140725300Y-131760000D01*
X142932300Y-137953700D02*
X142932300Y-133967000D01*
X142556100Y-138329900D02*
X142932300Y-137953700D01*
X141775400Y-138329900D02*
X142556100Y-138329900D01*
X140725300Y-139380000D02*
X141775400Y-138329900D01*
X139870000Y-139380000D02*
X140725300Y-139380000D01*
X139870000Y-131760000D02*
X140725300Y-131760000D01*
X141640700Y-130775400D02*
X140725300Y-129860000D01*
X140725300Y-131690800D02*
X140725300Y-131760000D01*
X141640700Y-130775400D02*
X140725300Y-131690800D01*
X139870000Y-129860000D02*
X140297700Y-129860000D01*
X140297700Y-129860000D02*
X140725300Y-129860000D01*
X143177000Y-120969700D02*
X139720000Y-120969700D01*
X143295400Y-121088100D02*
X143177000Y-120969700D01*
X143295400Y-126862300D02*
X143295400Y-121088100D01*
X140297700Y-129860000D02*
X143295400Y-126862300D01*
X139720000Y-121920000D02*
X139720000Y-120969700D01*
X139014700Y-139380000D02*
X128404900Y-139380000D01*
X139750000Y-117000000D02*
X139750000Y-117950300D01*
X155084700Y-128880000D02*
X154137000Y-128880000D01*
X152241600Y-130775400D02*
X154137000Y-128880000D01*
X141640700Y-130775400D02*
X152241600Y-130775400D01*
X156210000Y-128880000D02*
X155655500Y-128880000D01*
X155655500Y-128880000D02*
X155084700Y-128880000D01*
X147150600Y-144924700D02*
X146075300Y-146000000D01*
X150873300Y-144924700D02*
X147150600Y-144924700D01*
X162335400Y-133462600D02*
X150873300Y-144924700D01*
X162335400Y-131420200D02*
X162335400Y-133462600D01*
X161280200Y-130365000D02*
X162335400Y-131420200D01*
X157140500Y-130365000D02*
X161280200Y-130365000D01*
X155655500Y-128880000D02*
X157140500Y-130365000D01*
X145000000Y-146000000D02*
X146075300Y-146000000D01*
X154137000Y-123380900D02*
X154137000Y-128880000D01*
X148706400Y-117950300D02*
X154137000Y-123380900D01*
X139750000Y-117950300D02*
X148706400Y-117950300D01*
X86950000Y-153500000D02*
X87625300Y-153500000D01*
X96419900Y-153500000D02*
X97544000Y-153500000D01*
X96572200Y-151455000D02*
X96248200Y-151455000D01*
X97544000Y-152426800D02*
X96572200Y-151455000D01*
X97544000Y-153500000D02*
X97544000Y-152426800D01*
X90451600Y-150673700D02*
X94774900Y-150673700D01*
X87625300Y-153500000D02*
X90451600Y-150673700D01*
X112710000Y-137160000D02*
X113385300Y-137160000D01*
X85050000Y-153500000D02*
X85050000Y-152524700D01*
X105441900Y-145911100D02*
X96813200Y-145911100D01*
X113705300Y-137647700D02*
X105441900Y-145911100D01*
X113705300Y-137480000D02*
X113705300Y-137647700D01*
X139870000Y-137480000D02*
X113705300Y-137480000D01*
X113705300Y-137480000D02*
X113385300Y-137160000D01*
X88273400Y-149301300D02*
X93329500Y-149301300D01*
X85050000Y-152524700D02*
X88273400Y-149301300D01*
X96419900Y-161000000D02*
X95295800Y-161000000D01*
X110810000Y-137160000D02*
X110134700Y-137160000D01*
X95295800Y-151178600D02*
X95295800Y-161000000D01*
X95500200Y-150974200D02*
X95295800Y-151178600D01*
X95500200Y-150373200D02*
X95500200Y-150974200D01*
X95295800Y-150168800D02*
X95500200Y-150373200D01*
X95295800Y-146402800D02*
X95295800Y-150168800D01*
X99878000Y-141820600D02*
X95295800Y-146402800D01*
X105474100Y-141820600D02*
X99878000Y-141820600D01*
X110134700Y-137160000D02*
X105474100Y-141820600D01*
D42*
X122700000Y-69350000D02*
X122700000Y-73800000D01*
X122700000Y-73800000D02*
X122700000Y-74000000D01*
X122700000Y-69350000D02*
X122700000Y-64250000D01*
X122350000Y-63900000D02*
X122350000Y-63930000D01*
X122700000Y-64250000D02*
X122350000Y-63900000D01*
X120895000Y-62475000D02*
X121220000Y-62800000D01*
X118600000Y-62475000D02*
X120895000Y-62475000D01*
X137730000Y-58780000D02*
X134000000Y-55050000D01*
X137730000Y-66610000D02*
X137730000Y-58780000D01*
X135190000Y-69150000D02*
X137730000Y-66610000D01*
X125030000Y-69150000D02*
X135190000Y-69150000D01*
X123760000Y-67880000D02*
X125030000Y-69150000D01*
X123760000Y-65340000D02*
X123760000Y-67880000D01*
X121220000Y-62800000D02*
X122350000Y-63930000D01*
X122350000Y-63930000D02*
X122750000Y-64330000D01*
X122750000Y-64330000D02*
X123760000Y-65340000D01*
X127450000Y-55000000D02*
X133950000Y-55000000D01*
X133950000Y-55000000D02*
X134000000Y-55050000D01*
D43*
X117565100Y-159234600D02*
X115750000Y-161049700D01*
X133398200Y-159234600D02*
X117565100Y-159234600D01*
X115750000Y-162000000D02*
X115750000Y-161049700D01*
X99501100Y-170049700D02*
X106750000Y-170049700D01*
X98875400Y-170675400D02*
X99501100Y-170049700D01*
X96737500Y-170675400D02*
X98875400Y-170675400D01*
X94704200Y-168642100D02*
X96737500Y-170675400D01*
X94704200Y-153500000D02*
X94704200Y-168642100D01*
X93580100Y-153500000D02*
X94704200Y-153500000D01*
X157335400Y-133137300D02*
X152435000Y-138037700D01*
X157335400Y-131432800D02*
X157335400Y-133137300D01*
X157157200Y-131254600D02*
X157335400Y-131432800D01*
X153556600Y-131254600D02*
X157157200Y-131254600D01*
X145431200Y-139380000D02*
X153556600Y-131254600D01*
X142070000Y-139380000D02*
X145431200Y-139380000D01*
X152435000Y-138988000D02*
X152435000Y-138037700D01*
X140992800Y-140457200D02*
X142070000Y-139380000D01*
X138384800Y-140457200D02*
X140992800Y-140457200D01*
X106957800Y-170437800D02*
X106750000Y-170645600D01*
X115699100Y-170437800D02*
X106957800Y-170437800D01*
X106750000Y-171000000D02*
X106750000Y-170645600D01*
X106750000Y-170645600D02*
X106750000Y-170049700D01*
X115699100Y-169937600D02*
X115699100Y-170437800D01*
X115699100Y-169937600D02*
X115699100Y-169437500D01*
X115699100Y-163001200D02*
X115750000Y-162950300D01*
X115699100Y-169437500D02*
X115699100Y-163001200D01*
X115750000Y-162000000D02*
X115750000Y-162950300D01*
X142070000Y-137480000D02*
X141214700Y-137480000D01*
X85050000Y-161000000D02*
X85725300Y-161000000D01*
X139861200Y-136126500D02*
X141214700Y-137480000D01*
X104923000Y-136126500D02*
X139861200Y-136126500D01*
X94845400Y-146204100D02*
X104923000Y-136126500D01*
X94845400Y-148811200D02*
X94845400Y-146204100D01*
X93483000Y-150173600D02*
X94845400Y-148811200D01*
X88777100Y-150173600D02*
X93483000Y-150173600D01*
X85725300Y-153225400D02*
X88777100Y-150173600D01*
X85725300Y-161000000D02*
X85725300Y-153225400D01*
D42*
X129000000Y-41000000D02*
X134630000Y-41000000D01*
X134630000Y-41000000D02*
X137120000Y-43490000D01*
X137120000Y-43490000D02*
X137120000Y-44120000D01*
D43*
X82950000Y-124000000D02*
X83625300Y-124000000D01*
X137120000Y-44120000D02*
X135994700Y-44120000D01*
X83625300Y-124721300D02*
X83625300Y-124000000D01*
X84329700Y-125425700D02*
X83625300Y-124721300D01*
X97825800Y-125425700D02*
X84329700Y-125425700D01*
X104465900Y-118785600D02*
X97825800Y-125425700D01*
X106274600Y-118785600D02*
X104465900Y-118785600D01*
D42*
X103600000Y-42200000D02*
X103700000Y-42100000D01*
D46*
X103700000Y-42100000D02*
X107000000Y-42100000D01*
X103750000Y-42050000D02*
X96400000Y-49400000D01*
D47*
X96400000Y-49400000D02*
X96400000Y-57050000D01*
D42*
X96250000Y-57000000D02*
X96250000Y-56245000D01*
D46*
X96500000Y-61374400D02*
X96500000Y-57250000D01*
D42*
X96500000Y-57250000D02*
X96250000Y-57000000D01*
X118600000Y-63125000D02*
X119925000Y-63125000D01*
X120800000Y-64000000D02*
X120800000Y-69350000D01*
X119925000Y-63125000D02*
X120800000Y-64000000D01*
D43*
X94249900Y-98275100D02*
X94249900Y-97746600D01*
X73000000Y-103000000D02*
X73000000Y-100624700D01*
X73244100Y-100380600D02*
X73000000Y-100624700D01*
X83799700Y-100380600D02*
X73244100Y-100380600D01*
X87384100Y-96796200D02*
X83799700Y-100380600D01*
X93299500Y-96796200D02*
X87384100Y-96796200D01*
X94249900Y-97746600D02*
X93299500Y-96796200D01*
X71500000Y-103000000D02*
X71500000Y-100624700D01*
X90845300Y-98803600D02*
X90568600Y-99080300D01*
X94749800Y-98803600D02*
X90845300Y-98803600D01*
X94749800Y-98275100D02*
X94749800Y-98803600D01*
X72641300Y-99483400D02*
X71500000Y-100624700D01*
X84059900Y-99483400D02*
X72641300Y-99483400D01*
X87472500Y-96070800D02*
X84059900Y-99483400D01*
X90568600Y-96070800D02*
X87472500Y-96070800D01*
X86950000Y-124000000D02*
X87625300Y-124000000D01*
X140580100Y-103000000D02*
X139456000Y-103000000D01*
X138455300Y-101999300D02*
X139456000Y-103000000D01*
X135972800Y-101999300D02*
X138455300Y-101999300D01*
X135675600Y-102296500D02*
X135972800Y-101999300D01*
X135675600Y-103342500D02*
X135675600Y-102296500D01*
X128424800Y-110593300D02*
X135675600Y-103342500D01*
X101032000Y-110593300D02*
X128424800Y-110593300D01*
X87625300Y-124000000D02*
X101032000Y-110593300D01*
X108924700Y-62500000D02*
X84700000Y-62500000D01*
X110199700Y-63775000D02*
X108924700Y-62500000D01*
X111400000Y-63775000D02*
X110199700Y-63775000D01*
X134550000Y-97500000D02*
X133874700Y-97500000D01*
X111815000Y-97500000D02*
X133874700Y-97500000D01*
X106390400Y-102924600D02*
X111815000Y-97500000D01*
X100500200Y-101701100D02*
X101672300Y-101701100D01*
X99760500Y-102440800D02*
X100500200Y-101701100D01*
X99760500Y-102553400D02*
X99760500Y-102440800D01*
X98064000Y-104249900D02*
X99760500Y-102553400D01*
X96724900Y-104249900D02*
X98064000Y-104249900D01*
X136450000Y-97500000D02*
X140580100Y-97500000D01*
M02*
