G04 #@! TF.GenerationSoftware,KiCad,Pcbnew,(2016-12-18 revision 3ffa37c)-master*
G04 #@! TF.CreationDate,2016-12-20T15:26:01-08:00*
G04 #@! TF.ProjectId,badge-routed,62616467652D726F757465642E6B6963,rev?*
G04 #@! TF.FileFunction,Paste,Top*
G04 #@! TF.FilePolarity,Positive*
%FSLAX46Y46*%
G04 Gerber Fmt 4.6, Leading zero omitted, Abs format (unit mm)*
G04 Created by KiCad (PCBNEW (2016-12-18 revision 3ffa37c)-master) date Tuesday, December 20, 2016 'PMt' 03:26:01 PM*
%MOMM*%
%LPD*%
G01*
G04 APERTURE LIST*
%ADD10C,0.150000*%
%ADD11R,1.597660X1.800860*%
%ADD12R,0.700000X1.300000*%
%ADD13R,1.000000X4.100000*%
%ADD14R,0.700000X4.100000*%
%ADD15R,1.250000X1.500000*%
%ADD16R,1.500000X1.250000*%
%ADD17R,0.400000X1.350000*%
%ADD18R,1.300000X0.700000*%
%ADD19R,1.060000X0.650000*%
%ADD20R,0.500000X1.000000*%
%ADD21R,1.750000X0.450000*%
%ADD22R,1.600000X1.000000*%
%ADD23R,0.406400X0.406400*%
%ADD24O,2.819400X2.946400*%
%ADD25R,2.667000X2.667000*%
%ADD26R,0.304800X0.406400*%
%ADD27R,0.406400X0.304800*%
%ADD28R,1.550000X1.300000*%
%ADD29R,1.399540X1.150620*%
%ADD30R,0.599440X1.000760*%
G04 APERTURE END LIST*
D10*
D11*
X140580140Y-97500000D03*
X143419860Y-97500000D03*
D12*
X136450000Y-97500000D03*
X134550000Y-97500000D03*
D13*
X73000000Y-103000000D03*
D14*
X71500000Y-103000000D03*
X74500000Y-103000000D03*
D11*
X143419860Y-109500000D03*
X140580140Y-109500000D03*
X140580140Y-103000000D03*
X143419860Y-103000000D03*
D15*
X130175000Y-157230000D03*
X130175000Y-154730000D03*
X88500000Y-170250000D03*
X88500000Y-172750000D03*
X55245000Y-152785000D03*
X55245000Y-150285000D03*
X41275000Y-129330000D03*
X41275000Y-131830000D03*
X32000000Y-102500000D03*
X32000000Y-100000000D03*
X38100000Y-71775000D03*
X38100000Y-74275000D03*
X64770000Y-46970000D03*
X64770000Y-44470000D03*
D16*
X94000000Y-40640000D03*
X96500000Y-40640000D03*
X142250000Y-117000000D03*
X139750000Y-117000000D03*
X152435000Y-138988000D03*
X154935000Y-138988000D03*
X142220000Y-121920000D03*
X139720000Y-121920000D03*
X120000000Y-116250000D03*
X122500000Y-116250000D03*
D15*
X157480000Y-102620000D03*
X157480000Y-100120000D03*
D16*
X66060000Y-88900000D03*
X68560000Y-88900000D03*
X77750000Y-89000000D03*
X75250000Y-89000000D03*
D15*
X81000000Y-94750000D03*
X81000000Y-97250000D03*
X96600000Y-85750000D03*
X96600000Y-88250000D03*
X96500000Y-72250000D03*
X96500000Y-69750000D03*
D16*
X102750000Y-77500000D03*
X100250000Y-77500000D03*
X100250000Y-72500000D03*
X102750000Y-72500000D03*
X99250000Y-67000000D03*
X96750000Y-67000000D03*
X96250000Y-57000000D03*
X98750000Y-57000000D03*
X102750000Y-88500000D03*
X100250000Y-88500000D03*
X106750000Y-171000000D03*
X104250000Y-171000000D03*
X118250000Y-162000000D03*
X115750000Y-162000000D03*
X102250000Y-125000000D03*
X104750000Y-125000000D03*
D15*
X147650000Y-132200000D03*
X147650000Y-129700000D03*
X140500000Y-44750000D03*
X140500000Y-47250000D03*
X152400000Y-73870000D03*
X152400000Y-71370000D03*
D17*
X118299100Y-169437460D03*
X117649100Y-169437460D03*
X116999100Y-169437460D03*
X116349100Y-169437460D03*
X115699100Y-169437460D03*
D12*
X85050000Y-153500000D03*
X86950000Y-153500000D03*
X112710000Y-137160000D03*
X110810000Y-137160000D03*
D18*
X134000000Y-56950000D03*
X134000000Y-55050000D03*
D12*
X127450000Y-55000000D03*
X125550000Y-55000000D03*
X86950000Y-147500000D03*
X85050000Y-147500000D03*
X134550000Y-103000000D03*
X136450000Y-103000000D03*
X86950000Y-124000000D03*
X85050000Y-124000000D03*
X81050000Y-124000000D03*
X82950000Y-124000000D03*
X122700000Y-69350000D03*
X120800000Y-69350000D03*
X110025000Y-125038000D03*
X111925000Y-125038000D03*
X86950000Y-161000000D03*
X85050000Y-161000000D03*
D18*
X151810000Y-123230000D03*
X151810000Y-125130000D03*
X81000000Y-102050000D03*
X81000000Y-103950000D03*
D12*
X135050000Y-87000000D03*
X136950000Y-87000000D03*
X136450000Y-109500000D03*
X134550000Y-109500000D03*
D19*
X142070000Y-129860000D03*
X142070000Y-131760000D03*
X139870000Y-131760000D03*
X139870000Y-130810000D03*
X139870000Y-129860000D03*
X139870000Y-137480000D03*
X139870000Y-138430000D03*
X139870000Y-139380000D03*
X142070000Y-139380000D03*
X142070000Y-137480000D03*
D20*
X107000000Y-44000000D03*
X107000000Y-40200000D03*
X117200000Y-40200000D03*
X117200000Y-44000000D03*
X117200000Y-42100000D03*
X107000000Y-42100000D03*
X112100000Y-40200000D03*
X112100000Y-44000000D03*
D11*
X96419860Y-153500000D03*
X93580140Y-153500000D03*
X96419860Y-161000000D03*
X93580140Y-161000000D03*
D21*
X111400000Y-57275000D03*
X111400000Y-57925000D03*
X111400000Y-58575000D03*
X111400000Y-59225000D03*
X111400000Y-59875000D03*
X111400000Y-60525000D03*
X111400000Y-61175000D03*
X111400000Y-61825000D03*
X111400000Y-62475000D03*
X111400000Y-63125000D03*
X111400000Y-63775000D03*
X111400000Y-64425000D03*
X111400000Y-65075000D03*
X111400000Y-65725000D03*
X118600000Y-65725000D03*
X118600000Y-65075000D03*
X118600000Y-64425000D03*
X118600000Y-63775000D03*
X118600000Y-63125000D03*
X118600000Y-62475000D03*
X118600000Y-61825000D03*
X118600000Y-61175000D03*
X118600000Y-60525000D03*
X118600000Y-59875000D03*
X118600000Y-59225000D03*
X118600000Y-58575000D03*
X118600000Y-57925000D03*
X118600000Y-57275000D03*
D11*
X127919860Y-59500000D03*
X125080140Y-59500000D03*
D22*
X156250000Y-71425000D03*
X156250000Y-74625000D03*
X161250000Y-71425000D03*
X161250000Y-74625000D03*
X137120000Y-47320000D03*
X137120000Y-44120000D03*
X132120000Y-47320000D03*
X132120000Y-44120000D03*
D23*
X94749806Y-104749804D03*
X94749806Y-103749806D03*
X95749804Y-103749806D03*
X95749804Y-104749804D03*
D24*
X91500130Y-103399794D03*
D25*
X94499870Y-100500130D03*
D26*
X89750070Y-98275090D03*
X90250196Y-98275090D03*
X90750068Y-98275090D03*
X91250194Y-98275090D03*
X91750066Y-98275090D03*
X92250192Y-98275090D03*
X92750064Y-98275090D03*
X93249936Y-98275090D03*
X93749808Y-98275090D03*
X94249934Y-98275090D03*
X94749806Y-98275090D03*
X95249932Y-98275090D03*
X95749804Y-98275090D03*
X96249930Y-98275090D03*
D27*
X96724910Y-98750070D03*
X96724910Y-99250196D03*
X96724910Y-99750068D03*
X96724910Y-100250194D03*
X96724910Y-100750066D03*
X96724910Y-101250192D03*
X96724910Y-101750064D03*
X96724910Y-102249936D03*
X96724910Y-102749808D03*
X96724910Y-103249934D03*
X96724910Y-103749806D03*
X96724910Y-104249932D03*
X96724910Y-104749804D03*
X96724910Y-105249930D03*
D26*
X96249930Y-105724910D03*
X95749804Y-105724910D03*
X95249932Y-105724910D03*
X94749806Y-105724910D03*
X94249934Y-105724910D03*
X93749808Y-105724910D03*
X93249936Y-105724910D03*
X92750064Y-105724910D03*
X92250192Y-105724910D03*
X91750066Y-105724910D03*
X91250194Y-105724910D03*
X90750068Y-105724910D03*
X90250196Y-105724910D03*
X89750070Y-105724910D03*
D27*
X89275090Y-105249930D03*
X89275090Y-104749804D03*
X89275090Y-104249932D03*
X89275090Y-103749806D03*
X89275090Y-103249934D03*
X89275090Y-102749808D03*
X89275090Y-102249936D03*
X89275090Y-101750064D03*
X89275090Y-101250192D03*
X89275090Y-100750066D03*
X89275090Y-100250194D03*
X89275090Y-99750068D03*
X89275090Y-99250196D03*
D23*
X89275090Y-98750070D03*
D28*
X51475000Y-60750000D03*
X43525000Y-60750000D03*
X51475000Y-56250000D03*
X43525000Y-56250000D03*
D29*
X96500000Y-83125600D03*
X96500000Y-79874400D03*
X96500000Y-61374400D03*
X96500000Y-64625600D03*
X96500000Y-77625600D03*
X96500000Y-74374400D03*
X96500000Y-90748800D03*
X96500000Y-94000000D03*
D11*
X96419860Y-147500000D03*
X93580140Y-147500000D03*
X127919860Y-65000000D03*
X125080140Y-65000000D03*
D22*
X28575000Y-71628000D03*
X28575000Y-74828000D03*
X33575000Y-71628000D03*
X33575000Y-74828000D03*
X27900000Y-102700000D03*
X27900000Y-99500000D03*
X22900000Y-102700000D03*
X22900000Y-99500000D03*
X30480000Y-128880000D03*
X30480000Y-132080000D03*
X35480000Y-128880000D03*
X35480000Y-132080000D03*
X50165000Y-153035000D03*
X50165000Y-149835000D03*
X45165000Y-153035000D03*
X45165000Y-149835000D03*
X92750000Y-169850000D03*
X92750000Y-173050000D03*
X97750000Y-169850000D03*
X97750000Y-173050000D03*
X139620000Y-157480000D03*
X139620000Y-154280000D03*
X134620000Y-157480000D03*
X134620000Y-154280000D03*
X156210000Y-128880000D03*
X156210000Y-132080000D03*
X161210000Y-128880000D03*
X161210000Y-132080000D03*
X166290000Y-102870000D03*
X166290000Y-99670000D03*
X161290000Y-102870000D03*
X161290000Y-99670000D03*
X97750000Y-34620000D03*
X97750000Y-31420000D03*
X92750000Y-34620000D03*
X92750000Y-31420000D03*
X59650000Y-47320000D03*
X59650000Y-44120000D03*
X54650000Y-47320000D03*
X54650000Y-44120000D03*
D30*
X60750000Y-145550040D03*
X60099760Y-147449960D03*
X61400240Y-147449960D03*
M02*
