G04 #@! TF.GenerationSoftware,KiCad,Pcbnew,(2016-12-18 revision 3ffa37c)-master*
G04 #@! TF.CreationDate,2017-02-07T21:51:00-08:00*
G04 #@! TF.ProjectId,badge-kicad,62616467652D6B696361642E6B696361,rev?*
G04 #@! TF.FileFunction,Copper,L2,Bot,Mixed*
G04 #@! TF.FilePolarity,Positive*
%FSLAX46Y46*%
G04 Gerber Fmt 4.6, Leading zero omitted, Abs format (unit mm)*
G04 Created by KiCad (PCBNEW (2016-12-18 revision 3ffa37c)-master) date Tuesday, February 07, 2017 'PMt' 09:51:00 PM*
%MOMM*%
%LPD*%
G01*
G04 APERTURE LIST*
%ADD10C,0.150000*%
%ADD11R,0.398780X1.348740*%
%ADD12O,0.899160X1.597660*%
%ADD13R,1.597660X1.399540*%
%ADD14R,1.899920X1.899920*%
%ADD15O,0.500000X1.200000*%
%ADD16C,1.500000*%
%ADD17C,1.524000*%
%ADD18R,3.400000X1.600000*%
%ADD19R,3.500000X1.000000*%
%ADD20C,1.050000*%
%ADD21R,1.050000X1.050000*%
%ADD22O,1.727200X1.727200*%
%ADD23R,1.727200X1.727200*%
%ADD24O,1.727200X2.032000*%
%ADD25R,1.727200X2.032000*%
%ADD26R,1.000000X0.800000*%
%ADD27R,0.700000X1.500000*%
%ADD28C,0.600000*%
%ADD29C,0.250000*%
%ADD30C,0.254000*%
G04 APERTURE END LIST*
D10*
D11*
X188427940Y-122792000D03*
X187777700Y-122792000D03*
X187130000Y-122792000D03*
X186482300Y-122792000D03*
X185832060Y-122792000D03*
D12*
X190429460Y-125461540D03*
X183830540Y-125461540D03*
D13*
X190327860Y-122792000D03*
X183932140Y-122792000D03*
D14*
X188328880Y-125466620D03*
X185931120Y-125466620D03*
D15*
X190430000Y-125462000D03*
X183830000Y-125462000D03*
D16*
X128530000Y-110162000D03*
X128530000Y-107762000D03*
X125530000Y-110162000D03*
X193688000Y-104610000D03*
X207912000Y-97498000D03*
X212230000Y-97498000D03*
X125530000Y-107762000D03*
X122330000Y-110162000D03*
X149780000Y-72012000D03*
X122330000Y-107762000D03*
X119530000Y-107762000D03*
D17*
X206930000Y-76762000D03*
X214530000Y-76762000D03*
D18*
X120305000Y-72562000D03*
X120305000Y-65762000D03*
D19*
X114755000Y-70162000D03*
X114755000Y-68162000D03*
D20*
X135180000Y-109642000D03*
X140260000Y-109642000D03*
X138990000Y-109642000D03*
X137720000Y-109642000D03*
X136450000Y-109642000D03*
X140260000Y-110912000D03*
X138990000Y-110912000D03*
X137720000Y-110912000D03*
X136450000Y-110912000D03*
D21*
X135180000Y-110912000D03*
D22*
X106940000Y-63640000D03*
X104400000Y-63640000D03*
X106940000Y-66180000D03*
X104400000Y-66180000D03*
X106940000Y-68720000D03*
X104400000Y-68720000D03*
X106940000Y-71260000D03*
X104400000Y-71260000D03*
X106940000Y-73800000D03*
X104400000Y-73800000D03*
X106940000Y-76340000D03*
X104400000Y-76340000D03*
X106940000Y-78880000D03*
X104400000Y-78880000D03*
X106940000Y-81420000D03*
X104400000Y-81420000D03*
X106940000Y-83960000D03*
X104400000Y-83960000D03*
X106940000Y-86500000D03*
X104400000Y-86500000D03*
X106940000Y-89040000D03*
X104400000Y-89040000D03*
X106940000Y-91580000D03*
X104400000Y-91580000D03*
X106940000Y-94120000D03*
X104400000Y-94120000D03*
X106940000Y-96660000D03*
X104400000Y-96660000D03*
X106940000Y-99200000D03*
X104400000Y-99200000D03*
X106940000Y-101740000D03*
X104400000Y-101740000D03*
X106940000Y-104280000D03*
X104400000Y-104280000D03*
X106940000Y-106820000D03*
X104400000Y-106820000D03*
X106940000Y-109360000D03*
X104400000Y-109360000D03*
X106940000Y-111900000D03*
D23*
X104400000Y-111900000D03*
D24*
X144330000Y-110262000D03*
X146870000Y-110262000D03*
X149410000Y-110262000D03*
X151950000Y-110262000D03*
X154490000Y-110262000D03*
D25*
X157030000Y-110262000D03*
D26*
X110930000Y-122987000D03*
X103630000Y-122987000D03*
X103630000Y-125187000D03*
X110930000Y-125187000D03*
D27*
X105030000Y-122337000D03*
X106530000Y-122337000D03*
X109530000Y-122337000D03*
D24*
X194210000Y-115162000D03*
X191670000Y-115162000D03*
D25*
X189130000Y-115162000D03*
D17*
X126730000Y-88712000D03*
X126730000Y-86562000D03*
X126730000Y-84412000D03*
D28*
X206030000Y-86762000D03*
X189130000Y-108203100D03*
X119583400Y-98377600D03*
X115754600Y-77605500D03*
X118373600Y-56012000D03*
X121837500Y-123512000D03*
X117338200Y-97434300D03*
X117061400Y-87498200D03*
X170847100Y-56879900D03*
X175568800Y-78874000D03*
X177576700Y-107929400D03*
X139759900Y-93380200D03*
X154318000Y-93942000D03*
X188044900Y-84116000D03*
X153330000Y-85022000D03*
X152446600Y-66213000D03*
X155780000Y-82912000D03*
X167280000Y-69147300D03*
X154980000Y-83662000D03*
X165943800Y-66311100D03*
X160580000Y-86637000D03*
X147070000Y-95132000D03*
X190386000Y-93688000D03*
X190386000Y-72352000D03*
X132663700Y-85825900D03*
X179318000Y-102159200D03*
X155459700Y-89328100D03*
X136233700Y-91041200D03*
X154317100Y-90526900D03*
X138370000Y-90414800D03*
X154230000Y-68862000D03*
X154700000Y-85652000D03*
X129090200Y-106043100D03*
X127118900Y-94937800D03*
X144330000Y-94962000D03*
X170502000Y-70809700D03*
X141168000Y-104213800D03*
X158271800Y-89451200D03*
X144220600Y-107099600D03*
X155107700Y-92244800D03*
X117466200Y-76340000D03*
X137309300Y-89531400D03*
X112404900Y-82690000D03*
X125890700Y-89838300D03*
X106146300Y-100389000D03*
X139506200Y-92579800D03*
X148130600Y-99991100D03*
X141010600Y-93411900D03*
X148270000Y-93942000D03*
X153280000Y-94212000D03*
X158960000Y-98992000D03*
X164557900Y-103837000D03*
X178882700Y-110337000D03*
X179890900Y-110987000D03*
X149580000Y-91872000D03*
X157150000Y-87482000D03*
X122381500Y-53589500D03*
X122984400Y-80762300D03*
X174112200Y-108387000D03*
X175980000Y-94439400D03*
X149505000Y-83937000D03*
X151280000Y-83062000D03*
X160330000Y-82212000D03*
X165205000Y-83912000D03*
X162580000Y-87362000D03*
X162580000Y-89012000D03*
X182048300Y-94582400D03*
X144410000Y-87862000D03*
X178934200Y-87694400D03*
X165093300Y-101611400D03*
X127824700Y-106677400D03*
X113459200Y-87125900D03*
X114725600Y-96702300D03*
X175995000Y-58469600D03*
X173230500Y-118738800D03*
X157505200Y-121338400D03*
X164030000Y-124051500D03*
X144880000Y-93512000D03*
X145855000Y-83037000D03*
X190451400Y-120602700D03*
X182048000Y-88310100D03*
X143455000Y-91512000D03*
X106255500Y-92850000D03*
X112501000Y-98355300D03*
X137571800Y-101133200D03*
X143974600Y-82317100D03*
X142298300Y-89965600D03*
X151801500Y-81154700D03*
X187985000Y-72780200D03*
X190119600Y-59314500D03*
X141199100Y-66295000D03*
X124088600Y-72025900D03*
X179790000Y-99522000D03*
X167190000Y-100782000D03*
X148680000Y-100732000D03*
X143450000Y-98362000D03*
D29*
X188328880Y-125466620D02*
X190424380Y-125466620D01*
X190424380Y-125466620D02*
X190429460Y-125461540D01*
X185931120Y-125466620D02*
X183835620Y-125466620D01*
X183835620Y-125466620D02*
X183830540Y-125461540D01*
X188333960Y-125461540D02*
X188328880Y-125466620D01*
X185926040Y-125461540D02*
X185931120Y-125466620D01*
X206030000Y-83262000D02*
X206030000Y-86762000D01*
X212530000Y-76762000D02*
X206030000Y-83262000D01*
X214530000Y-76762000D02*
X212530000Y-76762000D01*
X188328900Y-125500700D02*
X188328900Y-125466600D01*
X188745200Y-125917000D02*
X188328900Y-125500700D01*
X189130000Y-120569000D02*
X190327900Y-121766900D01*
X189130000Y-115162000D02*
X189130000Y-120569000D01*
X108128900Y-65611200D02*
X112679700Y-70162000D01*
X108128900Y-63640000D02*
X108128900Y-65611200D01*
X106940000Y-63640000D02*
X108128900Y-63640000D01*
X114755000Y-70162000D02*
X112679700Y-70162000D01*
X155841100Y-109741900D02*
X155841100Y-110262000D01*
X155008100Y-108908900D02*
X155841100Y-109741900D01*
X148867500Y-108908900D02*
X155008100Y-108908900D01*
X148140000Y-109636400D02*
X148867500Y-108908900D01*
X148140000Y-110829600D02*
X148140000Y-109636400D01*
X147160500Y-111809100D02*
X148140000Y-110829600D01*
X138617100Y-111809100D02*
X147160500Y-111809100D01*
X137720000Y-110912000D02*
X138617100Y-111809100D01*
X157030000Y-110262000D02*
X155841100Y-110262000D01*
X185931100Y-123890700D02*
X185832100Y-123791700D01*
X185931100Y-125466600D02*
X185931100Y-123890700D01*
X188081000Y-125917000D02*
X188745200Y-125917000D01*
X187656800Y-125917000D02*
X187206400Y-125466600D01*
X188081000Y-125917000D02*
X187656800Y-125917000D01*
X185931100Y-125466600D02*
X187206400Y-125466600D01*
X185444100Y-123791700D02*
X185832100Y-123791700D01*
X185056200Y-123403800D02*
X185444100Y-123791700D01*
X185056200Y-122792000D02*
X185056200Y-123403800D01*
X183932100Y-122792000D02*
X185056200Y-122792000D01*
X190327900Y-122279400D02*
X190327900Y-121766900D01*
X190327900Y-122279400D02*
X190327900Y-122792000D01*
X188745200Y-125399800D02*
X188745200Y-125917000D01*
X190327900Y-123817100D02*
X188745200Y-125399800D01*
X190327900Y-122792000D02*
X190327900Y-123817100D01*
X185832100Y-122792000D02*
X185832100Y-123291800D01*
X186482300Y-122792000D02*
X186482300Y-123791700D01*
X185832100Y-123541800D02*
X185832100Y-123791700D01*
X185832100Y-123291800D02*
X185832100Y-123541800D01*
X186082000Y-123791700D02*
X186482300Y-123791700D01*
X185832100Y-123541800D02*
X186082000Y-123791700D01*
X189130000Y-103662000D02*
X189130000Y-108203100D01*
X206030000Y-86762000D02*
X189130000Y-103662000D01*
X189130000Y-108203100D02*
X189130000Y-115162000D01*
X114755000Y-76605900D02*
X115754600Y-77605500D01*
X114755000Y-70162000D02*
X114755000Y-76605900D01*
X119583400Y-107708600D02*
X119583400Y-98377600D01*
X119530000Y-107762000D02*
X119583400Y-107708600D01*
X118373600Y-64543400D02*
X118373600Y-56012000D01*
X116830300Y-66086700D02*
X118373600Y-64543400D01*
X116830300Y-68162000D02*
X116830300Y-66086700D01*
X114755000Y-68162000D02*
X116830300Y-68162000D01*
X122330000Y-110162000D02*
X121837500Y-110654500D01*
X121837500Y-110654500D02*
X121837500Y-123512000D01*
X116830300Y-87267100D02*
X117061400Y-87498200D01*
X116830300Y-68162000D02*
X116830300Y-87267100D01*
X175568800Y-61601600D02*
X170847100Y-56879900D01*
X175568800Y-78874000D02*
X175568800Y-61601600D01*
X117338200Y-107161900D02*
X117338200Y-97434300D01*
X120830800Y-110654500D02*
X117338200Y-107161900D01*
X121837500Y-110654500D02*
X120830800Y-110654500D01*
X188044900Y-98305700D02*
X188044900Y-84116000D01*
X178421200Y-107929400D02*
X188044900Y-98305700D01*
X188427900Y-117936100D02*
X178421200Y-107929400D01*
X188427900Y-122792000D02*
X188427900Y-117936100D01*
X178421200Y-107929400D02*
X177576700Y-107929400D01*
X143980000Y-97062000D02*
X152530000Y-97012000D01*
X152530000Y-97012000D02*
X154318000Y-93942000D01*
X141630000Y-95787000D02*
X143980000Y-97062000D01*
X141635900Y-93947700D02*
X141630000Y-95787000D01*
X141635900Y-93152800D02*
X141635900Y-93947700D01*
X141231400Y-92748300D02*
X141635900Y-93152800D01*
X140391800Y-92748300D02*
X141231400Y-92748300D01*
X139759900Y-93380200D02*
X140391800Y-92748300D01*
X153330000Y-66962000D02*
X153330000Y-85022000D01*
X152446600Y-66213000D02*
X153330000Y-66962000D01*
X167280000Y-71931600D02*
X155780000Y-82912000D01*
X167280000Y-69147300D02*
X167280000Y-71931600D01*
X154750200Y-77504700D02*
X154730000Y-82862000D01*
X154730000Y-82862000D02*
X154980000Y-83662000D01*
X165943800Y-66311100D02*
X154750200Y-77504700D01*
X159030923Y-86643184D02*
X159030335Y-86641079D01*
X160580000Y-86637000D02*
X159030923Y-86643184D01*
X147655000Y-91687000D02*
X147580000Y-94442000D01*
X147580000Y-94442000D02*
X147070000Y-95132000D01*
X151019937Y-91167256D02*
X149491970Y-91150744D01*
X149491970Y-91150744D02*
X147655000Y-91687000D01*
X154635700Y-91169100D02*
X151019937Y-91167256D01*
X155459700Y-90345100D02*
X154635700Y-91169100D01*
X155459700Y-89328100D02*
X155459700Y-90345100D01*
X190386000Y-72352000D02*
X190386000Y-93688000D01*
X106940000Y-111900000D02*
X106940000Y-121201500D01*
X151950000Y-110262000D02*
X150761100Y-110262000D01*
X150761100Y-110782100D02*
X150761100Y-110262000D01*
X149283800Y-112259400D02*
X150761100Y-110782100D01*
X136527400Y-112259400D02*
X149283800Y-112259400D01*
X135180000Y-110912000D02*
X136527400Y-112259400D01*
X106879800Y-121261700D02*
X106940000Y-121201500D01*
X106530000Y-121261700D02*
X106879800Y-121261700D01*
X128530000Y-117754500D02*
X128530000Y-110162000D01*
X120337700Y-125946800D02*
X128530000Y-117754500D01*
X109532900Y-125946800D02*
X120337700Y-125946800D01*
X107921200Y-124335100D02*
X109532900Y-125946800D01*
X107921200Y-122059900D02*
X107921200Y-124335100D01*
X107062800Y-121201500D02*
X107921200Y-122059900D01*
X106940000Y-121201500D02*
X107062800Y-121201500D01*
X106530000Y-122337000D02*
X106530000Y-121261700D01*
X129328800Y-89160800D02*
X126730000Y-86562000D01*
X129328800Y-89160800D02*
X132663700Y-85825900D01*
X129715500Y-89547500D02*
X129328800Y-89160800D01*
X129715500Y-108976500D02*
X129715500Y-89547500D01*
X128530000Y-110162000D02*
X129715500Y-108976500D01*
X151950000Y-110262000D02*
X153138900Y-110262000D01*
X174371900Y-109022700D02*
X165212600Y-109022700D01*
X179318000Y-104076600D02*
X174371900Y-109022700D01*
X179318000Y-102159200D02*
X179318000Y-104076600D01*
X162144800Y-112090500D02*
X165212600Y-109022700D01*
X154447300Y-112090500D02*
X162144800Y-112090500D01*
X153138900Y-110782100D02*
X154447300Y-112090500D01*
X153138900Y-110262000D02*
X153138900Y-110782100D01*
X156210000Y-87502000D02*
X155459700Y-89328100D01*
X156600000Y-86932000D02*
X156210000Y-87502000D01*
X157140000Y-86652000D02*
X156600000Y-86932000D01*
X159037985Y-86648729D02*
X159030335Y-86641079D01*
X158984500Y-97314700D02*
X159037985Y-86648729D01*
X165212600Y-103542800D02*
X158984500Y-97314700D01*
X165212600Y-109022700D02*
X165212600Y-103542800D01*
X159030335Y-86641079D02*
X157140000Y-86652000D01*
X136233700Y-108588300D02*
X136233700Y-91041200D01*
X135180000Y-109642000D02*
X136233700Y-108588300D01*
X147355000Y-90512000D02*
X154317100Y-90526900D01*
X146455419Y-91813746D02*
X147355000Y-90512000D01*
X146030000Y-96262000D02*
X146455419Y-91813746D01*
X144155000Y-96287000D02*
X146030000Y-96262000D01*
X142130000Y-95412000D02*
X144155000Y-96287000D01*
X142130000Y-94562000D02*
X142130000Y-95412000D01*
X142130000Y-92712000D02*
X142130000Y-94562000D01*
X141330000Y-91562000D02*
X142130000Y-92712000D01*
X139130000Y-91562000D02*
X141330000Y-91562000D01*
X138671400Y-92506100D02*
X139130000Y-91562000D01*
X138671400Y-108053400D02*
X138671400Y-92506100D01*
X140260000Y-109642000D02*
X138671400Y-108053400D01*
X136714100Y-109377900D02*
X136450000Y-109642000D01*
X136714100Y-92070700D02*
X136714100Y-109377900D01*
X138370000Y-90414800D02*
X136714100Y-92070700D01*
X154155000Y-68937000D02*
X154230000Y-68862000D01*
X154100000Y-85202000D02*
X154155000Y-68937000D01*
X154340000Y-85382000D02*
X154100000Y-85202000D01*
X154700000Y-85652000D02*
X154340000Y-85382000D01*
X129090200Y-91072200D02*
X129090200Y-106043100D01*
X126730000Y-88712000D02*
X129090200Y-91072200D01*
X104400000Y-68720000D02*
X105588900Y-68720000D01*
X122891500Y-94937800D02*
X127118900Y-94937800D01*
X111504300Y-83550600D02*
X122891500Y-94937800D01*
X111504300Y-71599600D02*
X111504300Y-83550600D01*
X107421000Y-67516300D02*
X111504300Y-71599600D01*
X106421100Y-67516300D02*
X107421000Y-67516300D01*
X105588900Y-68348500D02*
X106421100Y-67516300D01*
X105588900Y-68720000D02*
X105588900Y-68348500D01*
X143130000Y-94262000D02*
X144330000Y-94962000D01*
X143130000Y-87437000D02*
X143105000Y-90312000D01*
X143105000Y-90312000D02*
X142455000Y-91112000D01*
X142455000Y-91112000D02*
X143130000Y-92287000D01*
X143130000Y-92287000D02*
X143130000Y-94262000D01*
X143805000Y-86762000D02*
X143130000Y-87437000D01*
X150175600Y-86742800D02*
X143805000Y-86762000D01*
X151418000Y-87985200D02*
X150175600Y-86742800D01*
X153800000Y-87962000D02*
X151418000Y-87985200D01*
X155290000Y-85952000D02*
X153800000Y-87962000D01*
X155750000Y-84862000D02*
X155290000Y-85952000D01*
X156490000Y-83462000D02*
X155750000Y-84862000D01*
X157940000Y-82312000D02*
X156490000Y-83462000D01*
X170502000Y-71120700D02*
X157940000Y-82312000D01*
X170502000Y-70809700D02*
X170502000Y-71120700D01*
X105751100Y-70890500D02*
X105751100Y-71260000D01*
X104904300Y-70043700D02*
X105751100Y-70890500D01*
X103882400Y-70043700D02*
X104904300Y-70043700D01*
X103149800Y-70776300D02*
X103882400Y-70043700D01*
X103149800Y-76812400D02*
X103149800Y-70776300D01*
X104028500Y-77691100D02*
X103149800Y-76812400D01*
X104400000Y-77691100D02*
X104028500Y-77691100D01*
X106940000Y-71260000D02*
X105751100Y-71260000D01*
X104400000Y-78291400D02*
X104400000Y-77691100D01*
X104400000Y-78291400D02*
X104400000Y-78880000D01*
X104400000Y-78880000D02*
X104400000Y-80068900D01*
X124448800Y-108843200D02*
X125530000Y-107762000D01*
X121886200Y-108843200D02*
X124448800Y-108843200D01*
X121054600Y-108011600D02*
X121886200Y-108843200D01*
X121054600Y-98933100D02*
X121054600Y-108011600D01*
X107270500Y-85149000D02*
X121054600Y-98933100D01*
X106391000Y-85149000D02*
X107270500Y-85149000D01*
X105751000Y-84509000D02*
X106391000Y-85149000D01*
X105751000Y-83628600D02*
X105751000Y-84509000D01*
X104812300Y-82689900D02*
X105751000Y-83628600D01*
X103967400Y-82689900D02*
X104812300Y-82689900D01*
X103173000Y-81895500D02*
X103967400Y-82689900D01*
X103173000Y-80924400D02*
X103173000Y-81895500D01*
X104028500Y-80068900D02*
X103173000Y-80924400D01*
X104400000Y-80068900D02*
X104028500Y-80068900D01*
X158271800Y-93954200D02*
X158271800Y-89451200D01*
X144461500Y-107764500D02*
X158271800Y-93954200D01*
X143999100Y-107764500D02*
X144461500Y-107764500D01*
X141168000Y-104933400D02*
X143999100Y-107764500D01*
X141168000Y-104213800D02*
X141168000Y-104933400D01*
X104771600Y-72448900D02*
X104400000Y-72448900D01*
X105588900Y-73266200D02*
X104771600Y-72448900D01*
X105588900Y-81791600D02*
X105588900Y-73266200D01*
X106568400Y-82771100D02*
X105588900Y-81791600D01*
X106940000Y-82771100D02*
X106568400Y-82771100D01*
X104400000Y-71260000D02*
X104400000Y-72448900D01*
X106940000Y-83960000D02*
X106940000Y-83371400D01*
X106940000Y-83371400D02*
X106940000Y-82771100D01*
X122330000Y-98761400D02*
X122330000Y-107762000D01*
X106940000Y-83371400D02*
X122330000Y-98761400D01*
X107311600Y-74988900D02*
X106940000Y-74988900D01*
X108128900Y-75806200D02*
X107311600Y-74988900D01*
X108128900Y-76873700D02*
X108128900Y-75806200D01*
X107311500Y-77691100D02*
X108128900Y-76873700D01*
X106940000Y-77691100D02*
X107311500Y-77691100D01*
X106940000Y-73800000D02*
X106940000Y-74988900D01*
X106940000Y-78291400D02*
X106940000Y-77691100D01*
X106940000Y-78291400D02*
X106940000Y-78880000D01*
X106940000Y-78880000D02*
X106940000Y-80068900D01*
X128464900Y-107696900D02*
X128530000Y-107762000D01*
X128464900Y-101216000D02*
X128464900Y-107696900D01*
X107317800Y-80068900D02*
X128464900Y-101216000D01*
X106940000Y-80068900D02*
X107317800Y-80068900D01*
X155228500Y-92365600D02*
X155107700Y-92244800D01*
X155228500Y-96091700D02*
X155228500Y-92365600D01*
X144220600Y-107099600D02*
X155228500Y-96091700D01*
X130009300Y-82231400D02*
X137309300Y-89531400D01*
X123357600Y-82231400D02*
X130009300Y-82231400D01*
X117466200Y-76340000D02*
X123357600Y-82231400D01*
X118488800Y-89838300D02*
X125890700Y-89838300D01*
X112404900Y-83754400D02*
X118488800Y-89838300D01*
X112404900Y-82690000D02*
X112404900Y-83754400D01*
X105588900Y-99831600D02*
X106146300Y-100389000D01*
X105588900Y-85966200D02*
X105588900Y-99831600D01*
X104771600Y-85148900D02*
X105588900Y-85966200D01*
X104400000Y-85148900D02*
X104771600Y-85148900D01*
X104400000Y-83960000D02*
X104400000Y-85148900D01*
X146870000Y-110262000D02*
X145681100Y-110262000D01*
X139134500Y-92951500D02*
X139506200Y-92579800D01*
X139134500Y-103536800D02*
X139134500Y-92951500D01*
X143915200Y-108317500D02*
X139134500Y-103536800D01*
X144233600Y-108317500D02*
X143915200Y-108317500D01*
X145681100Y-109765000D02*
X144233600Y-108317500D01*
X145681100Y-110262000D02*
X145681100Y-109765000D01*
X141010600Y-93959300D02*
X141010600Y-93411900D01*
X146952000Y-99276000D02*
X143650000Y-97498000D01*
X143650000Y-97498000D02*
X141005000Y-96112000D01*
X141005000Y-96112000D02*
X141010600Y-93959300D01*
X148130600Y-99991100D02*
X146952000Y-99276000D01*
X148270000Y-93942000D02*
X149230000Y-94212000D01*
X149230000Y-94212000D02*
X153280000Y-94212000D01*
X158960000Y-98992000D02*
X163805000Y-103837000D01*
X163805000Y-103837000D02*
X164557900Y-103837000D01*
X164557900Y-105099900D02*
X164557900Y-103837000D01*
X158054400Y-111603400D02*
X164557900Y-105099900D01*
X155831400Y-111603400D02*
X158054400Y-111603400D01*
X154490000Y-110262000D02*
X155831400Y-111603400D01*
X180191900Y-110337000D02*
X178882700Y-110337000D01*
X187777700Y-117922800D02*
X180191900Y-110337000D01*
X187777700Y-122792000D02*
X187777700Y-117922800D01*
X187130000Y-118226100D02*
X179890900Y-110987000D01*
X187130000Y-122792000D02*
X187130000Y-118226100D01*
X150060000Y-91632000D02*
X151955000Y-91637000D01*
X149580000Y-91872000D02*
X150060000Y-91632000D01*
X151955000Y-91637000D02*
X154875000Y-91619400D01*
X154875000Y-91619400D02*
X156631500Y-89862900D01*
X156631500Y-89862900D02*
X157150000Y-87482000D01*
X122984400Y-54192400D02*
X122381500Y-53589500D01*
X122984400Y-80762300D02*
X122984400Y-54192400D01*
X175980000Y-106519200D02*
X174112200Y-108387000D01*
X175980000Y-94439400D02*
X175980000Y-106519200D01*
X150355000Y-83062000D02*
X149505000Y-83937000D01*
X151280000Y-83062000D02*
X150355000Y-83062000D01*
X160955000Y-82212000D02*
X160330000Y-82212000D01*
X165205000Y-83912000D02*
X160955000Y-82212000D01*
X162580000Y-89012000D02*
X162580000Y-87362000D01*
X154730000Y-88982000D02*
X145080000Y-89002000D01*
X145080000Y-89002000D02*
X144410000Y-87862000D01*
X155930000Y-86802000D02*
X154730000Y-88982000D01*
X156900000Y-85892000D02*
X155930000Y-86802000D01*
X157000000Y-85892000D02*
X156900000Y-85892000D01*
X159300000Y-85922000D02*
X157000000Y-85892000D01*
X160255000Y-85812000D02*
X159300000Y-85922000D01*
X161005000Y-85812000D02*
X160255000Y-85812000D01*
X178455000Y-85762000D02*
X161005000Y-85812000D01*
X182048300Y-89861800D02*
X178455000Y-85762000D01*
X182048300Y-94582400D02*
X182048300Y-89861800D01*
X127824700Y-101491400D02*
X127824700Y-106677400D01*
X113459200Y-87125900D02*
X127824700Y-101491400D01*
X174480500Y-87694400D02*
X178934200Y-87694400D01*
X165093300Y-97081600D02*
X174480500Y-87694400D01*
X165093300Y-101611400D02*
X165093300Y-97081600D01*
X114725600Y-97382100D02*
X114725600Y-96702300D01*
X109530000Y-102577700D02*
X114725600Y-97382100D01*
X109530000Y-122337000D02*
X109530000Y-102577700D01*
X182691300Y-65165900D02*
X175995000Y-58469600D01*
X182691300Y-101340200D02*
X182691300Y-65165900D01*
X173230500Y-110801000D02*
X182691300Y-101340200D01*
X173230500Y-118738800D02*
X173230500Y-110801000D01*
X161316900Y-121338400D02*
X157505200Y-121338400D01*
X164030000Y-124051500D02*
X161316900Y-121338400D01*
X142080000Y-86987000D02*
X145810800Y-82992800D01*
X142095100Y-89171400D02*
X142080000Y-86987000D01*
X141644800Y-89621700D02*
X142095100Y-89171400D01*
X141644800Y-90836300D02*
X141644800Y-89621700D01*
X142630000Y-92562000D02*
X141644800Y-90836300D01*
X142630000Y-94562000D02*
X142630000Y-92562000D01*
X143480000Y-95337000D02*
X142630000Y-94562000D01*
X144230000Y-95712000D02*
X143480000Y-95337000D01*
X145030000Y-95587000D02*
X144230000Y-95712000D01*
X145091700Y-93723700D02*
X145405000Y-94312000D01*
X145405000Y-94312000D02*
X145030000Y-95587000D01*
X144880000Y-93512000D02*
X145091700Y-93723700D01*
X149780000Y-79616500D02*
X145810800Y-82992800D01*
X149780000Y-72012000D02*
X149780000Y-79616500D01*
X145810800Y-82992800D02*
X145855000Y-83037000D01*
X191670000Y-119384100D02*
X191670000Y-115162000D01*
X190451400Y-120602700D02*
X191670000Y-119384100D01*
X143363400Y-91420400D02*
X143455000Y-91512000D01*
X143649200Y-87676500D02*
X143655000Y-90537000D01*
X143655000Y-90537000D02*
X143363400Y-91420400D01*
X144106500Y-87219200D02*
X143649200Y-87676500D01*
X148620000Y-87222000D02*
X144106500Y-87219200D01*
X149940000Y-88452000D02*
X148620000Y-87222000D01*
X154310000Y-88422000D02*
X149940000Y-88452000D01*
X156380000Y-85152000D02*
X154310000Y-88422000D01*
X156440000Y-85152000D02*
X156380000Y-85152000D01*
X157730000Y-85172000D02*
X156440000Y-85152000D01*
X158550000Y-85172000D02*
X157730000Y-85172000D01*
X159690000Y-85192000D02*
X158550000Y-85172000D01*
X179130000Y-85237000D02*
X160990000Y-85182000D01*
X160990000Y-85182000D02*
X159690000Y-85192000D01*
X182048000Y-88310100D02*
X179130000Y-85237000D01*
X112501000Y-97973200D02*
X112501000Y-98355300D01*
X107377800Y-92850000D02*
X112501000Y-97973200D01*
X106255500Y-92850000D02*
X107377800Y-92850000D01*
X137277600Y-100839000D02*
X137571800Y-101133200D01*
X137277600Y-92460600D02*
X137277600Y-100839000D01*
X139295100Y-90443100D02*
X137277600Y-92460600D01*
X139295100Y-86996600D02*
X139295100Y-90443100D01*
X143974600Y-82317100D02*
X139295100Y-86996600D01*
X148105000Y-83987000D02*
X151801500Y-81154700D01*
X145705000Y-83987000D02*
X148105000Y-83987000D01*
X142555000Y-87312000D02*
X145705000Y-83987000D01*
X142545400Y-89718500D02*
X142555000Y-87312000D01*
X142298300Y-89965600D02*
X142545400Y-89718500D01*
X190119600Y-70645600D02*
X187985000Y-72780200D01*
X190119600Y-59314500D02*
X190119600Y-70645600D01*
X129819500Y-66295000D02*
X124088600Y-72025900D01*
X141199100Y-66295000D02*
X129819500Y-66295000D01*
X179790000Y-99522000D02*
X179790000Y-92672000D01*
X177810000Y-90692000D02*
X179790000Y-92672000D01*
X173760000Y-90692000D02*
X177810000Y-90692000D01*
X172420000Y-92032000D02*
X173760000Y-90692000D01*
X172420000Y-95552000D02*
X172420000Y-92032000D01*
X167190000Y-100782000D02*
X172420000Y-95552000D01*
X145820000Y-100732000D02*
X148680000Y-100732000D01*
X143450000Y-98362000D02*
X145820000Y-100732000D01*
D30*
G36*
X136374178Y-89671080D02*
X136374138Y-89716567D01*
X136516183Y-90060343D01*
X136662388Y-90206804D01*
X136420499Y-90106362D01*
X136048533Y-90106038D01*
X135704757Y-90248083D01*
X135441508Y-90510873D01*
X135298862Y-90854401D01*
X135298538Y-91226367D01*
X135440583Y-91570143D01*
X135473700Y-91603318D01*
X135473700Y-108273498D01*
X135265124Y-108482074D01*
X134950274Y-108481799D01*
X134523771Y-108658026D01*
X134197173Y-108984055D01*
X134020202Y-109410249D01*
X134019799Y-109871726D01*
X134102252Y-110071277D01*
X134056843Y-110139235D01*
X134007560Y-110387000D01*
X134007560Y-111437000D01*
X134056843Y-111684765D01*
X134197191Y-111894809D01*
X134407235Y-112035157D01*
X134655000Y-112084440D01*
X135277638Y-112084440D01*
X135989999Y-112796801D01*
X136236560Y-112961548D01*
X136527400Y-113019400D01*
X149283800Y-113019400D01*
X149574639Y-112961548D01*
X149821201Y-112796801D01*
X151022964Y-111595038D01*
X151376511Y-111831271D01*
X151950000Y-111945345D01*
X152523489Y-111831271D01*
X152877036Y-111595038D01*
X153909899Y-112627901D01*
X154156461Y-112792648D01*
X154447300Y-112850500D01*
X162144800Y-112850500D01*
X162435639Y-112792648D01*
X162682201Y-112627901D01*
X165527402Y-109782700D01*
X173173998Y-109782700D01*
X172693099Y-110263599D01*
X172528352Y-110510161D01*
X172470500Y-110801000D01*
X172470500Y-118176337D01*
X172438308Y-118208473D01*
X172295662Y-118552001D01*
X172295338Y-118923967D01*
X172437383Y-119267743D01*
X172700173Y-119530992D01*
X173043701Y-119673638D01*
X173415667Y-119673962D01*
X173759443Y-119531917D01*
X174022692Y-119269127D01*
X174165338Y-118925599D01*
X174165662Y-118553633D01*
X174023617Y-118209857D01*
X173990500Y-118176682D01*
X173990500Y-111115802D01*
X176743929Y-108362373D01*
X176783583Y-108458343D01*
X177046373Y-108721592D01*
X177389901Y-108864238D01*
X177761867Y-108864562D01*
X178105643Y-108722517D01*
X178122594Y-108705596D01*
X178818942Y-109401944D01*
X178697533Y-109401838D01*
X178353757Y-109543883D01*
X178090508Y-109806673D01*
X177947862Y-110150201D01*
X177947538Y-110522167D01*
X178089583Y-110865943D01*
X178352373Y-111129192D01*
X178695901Y-111271838D01*
X178997029Y-111272100D01*
X179097783Y-111515943D01*
X179360573Y-111779192D01*
X179704101Y-111921838D01*
X179750977Y-111921879D01*
X181294209Y-113465111D01*
X180565628Y-113766155D01*
X179936364Y-114394321D01*
X179595389Y-115215481D01*
X179594613Y-116104619D01*
X179934155Y-116926372D01*
X180562321Y-117555636D01*
X181383481Y-117896611D01*
X182272619Y-117897387D01*
X183094372Y-117557845D01*
X183723636Y-116929679D01*
X184027350Y-116198252D01*
X186370000Y-118540902D01*
X186370000Y-121482630D01*
X186355298Y-121482630D01*
X186355298Y-121564453D01*
X186270592Y-121529367D01*
X186223855Y-121482630D01*
X186090505Y-121482630D01*
X186043768Y-121529367D01*
X185923212Y-121579303D01*
X185744583Y-121757931D01*
X185732365Y-121787428D01*
X185732365Y-121641380D01*
X185573615Y-121482630D01*
X185506361Y-121482630D01*
X185272972Y-121579303D01*
X185194520Y-121657755D01*
X185090669Y-121553903D01*
X184857280Y-121457230D01*
X184217890Y-121457230D01*
X184059140Y-121615980D01*
X184059140Y-122665000D01*
X185732365Y-122665000D01*
X185732365Y-122590705D01*
X185806660Y-122665000D01*
X185979060Y-122665000D01*
X185979060Y-122919000D01*
X185806660Y-122919000D01*
X185732365Y-122993295D01*
X185732365Y-122919000D01*
X184059140Y-122919000D01*
X184059140Y-123968020D01*
X184192824Y-124101704D01*
X184124475Y-124068299D01*
X183957540Y-124195212D01*
X183957540Y-124228174D01*
X183830000Y-124202805D01*
X183703540Y-124227960D01*
X183703540Y-124195212D01*
X183613515Y-124126770D01*
X183646390Y-124126770D01*
X183805140Y-123968020D01*
X183805140Y-122919000D01*
X182657060Y-122919000D01*
X182498310Y-123077750D01*
X182498310Y-123618079D01*
X182594983Y-123851468D01*
X182773611Y-124030097D01*
X183007000Y-124126770D01*
X183416970Y-124126770D01*
X183153429Y-124255574D01*
X182877120Y-124579907D01*
X182745960Y-124985290D01*
X182745960Y-125334540D01*
X182945000Y-125334540D01*
X182945000Y-125588540D01*
X182745960Y-125588540D01*
X182745960Y-125937790D01*
X182877120Y-126343173D01*
X183086914Y-126589431D01*
X182021667Y-126591520D01*
X182021665Y-126591520D01*
X180647512Y-126593790D01*
X180647511Y-126593790D01*
X179163249Y-126595858D01*
X179163245Y-126595857D01*
X177564056Y-126597741D01*
X177564055Y-126597741D01*
X175846046Y-126599456D01*
X174004708Y-126601019D01*
X172035685Y-126602446D01*
X169934620Y-126603754D01*
X167697157Y-126604959D01*
X165318935Y-126606078D01*
X162795599Y-126607126D01*
X160122788Y-126608122D01*
X157296146Y-126609080D01*
X154311313Y-126610018D01*
X151163930Y-126610951D01*
X149338463Y-126611476D01*
X146145700Y-126612231D01*
X143048422Y-126612654D01*
X140049805Y-126612750D01*
X137152914Y-126612523D01*
X134360909Y-126611979D01*
X131676964Y-126611123D01*
X129104230Y-126609958D01*
X126645861Y-126608489D01*
X124305007Y-126606723D01*
X122084823Y-126604662D01*
X122084822Y-126604662D01*
X120697145Y-126603107D01*
X120875101Y-126484201D01*
X125835735Y-121523567D01*
X156570038Y-121523567D01*
X156712083Y-121867343D01*
X156974873Y-122130592D01*
X157318401Y-122273238D01*
X157690367Y-122273562D01*
X158034143Y-122131517D01*
X158067318Y-122098400D01*
X161002098Y-122098400D01*
X163094878Y-124191180D01*
X163094838Y-124236667D01*
X163236883Y-124580443D01*
X163499673Y-124843692D01*
X163843201Y-124986338D01*
X164215167Y-124986662D01*
X164558943Y-124844617D01*
X164822192Y-124581827D01*
X164964838Y-124238299D01*
X164965162Y-123866333D01*
X164823117Y-123522557D01*
X164560327Y-123259308D01*
X164216799Y-123116662D01*
X164169923Y-123116621D01*
X163019223Y-121965921D01*
X182498310Y-121965921D01*
X182498310Y-122506250D01*
X182657060Y-122665000D01*
X183805140Y-122665000D01*
X183805140Y-121615980D01*
X183646390Y-121457230D01*
X183007000Y-121457230D01*
X182773611Y-121553903D01*
X182594983Y-121732532D01*
X182498310Y-121965921D01*
X163019223Y-121965921D01*
X161854301Y-120800999D01*
X161607739Y-120636252D01*
X161316900Y-120578400D01*
X158067663Y-120578400D01*
X158035527Y-120546208D01*
X157691999Y-120403562D01*
X157320033Y-120403238D01*
X156976257Y-120545283D01*
X156713008Y-120808073D01*
X156570362Y-121151601D01*
X156570038Y-121523567D01*
X125835735Y-121523567D01*
X129067401Y-118291901D01*
X129232148Y-118045339D01*
X129290000Y-117754500D01*
X129290000Y-111346547D01*
X129313515Y-111336831D01*
X129703461Y-110947564D01*
X129914759Y-110438702D01*
X129915240Y-109887715D01*
X129904670Y-109862132D01*
X130252901Y-109513901D01*
X130417648Y-109267340D01*
X130475500Y-108976500D01*
X130475500Y-89547500D01*
X130458090Y-89459977D01*
X130417648Y-89256660D01*
X130373626Y-89190776D01*
X132803380Y-86761022D01*
X132848867Y-86761062D01*
X133192643Y-86619017D01*
X133257435Y-86554337D01*
X136374178Y-89671080D01*
X136374178Y-89671080D01*
G37*
X136374178Y-89671080D02*
X136374138Y-89716567D01*
X136516183Y-90060343D01*
X136662388Y-90206804D01*
X136420499Y-90106362D01*
X136048533Y-90106038D01*
X135704757Y-90248083D01*
X135441508Y-90510873D01*
X135298862Y-90854401D01*
X135298538Y-91226367D01*
X135440583Y-91570143D01*
X135473700Y-91603318D01*
X135473700Y-108273498D01*
X135265124Y-108482074D01*
X134950274Y-108481799D01*
X134523771Y-108658026D01*
X134197173Y-108984055D01*
X134020202Y-109410249D01*
X134019799Y-109871726D01*
X134102252Y-110071277D01*
X134056843Y-110139235D01*
X134007560Y-110387000D01*
X134007560Y-111437000D01*
X134056843Y-111684765D01*
X134197191Y-111894809D01*
X134407235Y-112035157D01*
X134655000Y-112084440D01*
X135277638Y-112084440D01*
X135989999Y-112796801D01*
X136236560Y-112961548D01*
X136527400Y-113019400D01*
X149283800Y-113019400D01*
X149574639Y-112961548D01*
X149821201Y-112796801D01*
X151022964Y-111595038D01*
X151376511Y-111831271D01*
X151950000Y-111945345D01*
X152523489Y-111831271D01*
X152877036Y-111595038D01*
X153909899Y-112627901D01*
X154156461Y-112792648D01*
X154447300Y-112850500D01*
X162144800Y-112850500D01*
X162435639Y-112792648D01*
X162682201Y-112627901D01*
X165527402Y-109782700D01*
X173173998Y-109782700D01*
X172693099Y-110263599D01*
X172528352Y-110510161D01*
X172470500Y-110801000D01*
X172470500Y-118176337D01*
X172438308Y-118208473D01*
X172295662Y-118552001D01*
X172295338Y-118923967D01*
X172437383Y-119267743D01*
X172700173Y-119530992D01*
X173043701Y-119673638D01*
X173415667Y-119673962D01*
X173759443Y-119531917D01*
X174022692Y-119269127D01*
X174165338Y-118925599D01*
X174165662Y-118553633D01*
X174023617Y-118209857D01*
X173990500Y-118176682D01*
X173990500Y-111115802D01*
X176743929Y-108362373D01*
X176783583Y-108458343D01*
X177046373Y-108721592D01*
X177389901Y-108864238D01*
X177761867Y-108864562D01*
X178105643Y-108722517D01*
X178122594Y-108705596D01*
X178818942Y-109401944D01*
X178697533Y-109401838D01*
X178353757Y-109543883D01*
X178090508Y-109806673D01*
X177947862Y-110150201D01*
X177947538Y-110522167D01*
X178089583Y-110865943D01*
X178352373Y-111129192D01*
X178695901Y-111271838D01*
X178997029Y-111272100D01*
X179097783Y-111515943D01*
X179360573Y-111779192D01*
X179704101Y-111921838D01*
X179750977Y-111921879D01*
X181294209Y-113465111D01*
X180565628Y-113766155D01*
X179936364Y-114394321D01*
X179595389Y-115215481D01*
X179594613Y-116104619D01*
X179934155Y-116926372D01*
X180562321Y-117555636D01*
X181383481Y-117896611D01*
X182272619Y-117897387D01*
X183094372Y-117557845D01*
X183723636Y-116929679D01*
X184027350Y-116198252D01*
X186370000Y-118540902D01*
X186370000Y-121482630D01*
X186355298Y-121482630D01*
X186355298Y-121564453D01*
X186270592Y-121529367D01*
X186223855Y-121482630D01*
X186090505Y-121482630D01*
X186043768Y-121529367D01*
X185923212Y-121579303D01*
X185744583Y-121757931D01*
X185732365Y-121787428D01*
X185732365Y-121641380D01*
X185573615Y-121482630D01*
X185506361Y-121482630D01*
X185272972Y-121579303D01*
X185194520Y-121657755D01*
X185090669Y-121553903D01*
X184857280Y-121457230D01*
X184217890Y-121457230D01*
X184059140Y-121615980D01*
X184059140Y-122665000D01*
X185732365Y-122665000D01*
X185732365Y-122590705D01*
X185806660Y-122665000D01*
X185979060Y-122665000D01*
X185979060Y-122919000D01*
X185806660Y-122919000D01*
X185732365Y-122993295D01*
X185732365Y-122919000D01*
X184059140Y-122919000D01*
X184059140Y-123968020D01*
X184192824Y-124101704D01*
X184124475Y-124068299D01*
X183957540Y-124195212D01*
X183957540Y-124228174D01*
X183830000Y-124202805D01*
X183703540Y-124227960D01*
X183703540Y-124195212D01*
X183613515Y-124126770D01*
X183646390Y-124126770D01*
X183805140Y-123968020D01*
X183805140Y-122919000D01*
X182657060Y-122919000D01*
X182498310Y-123077750D01*
X182498310Y-123618079D01*
X182594983Y-123851468D01*
X182773611Y-124030097D01*
X183007000Y-124126770D01*
X183416970Y-124126770D01*
X183153429Y-124255574D01*
X182877120Y-124579907D01*
X182745960Y-124985290D01*
X182745960Y-125334540D01*
X182945000Y-125334540D01*
X182945000Y-125588540D01*
X182745960Y-125588540D01*
X182745960Y-125937790D01*
X182877120Y-126343173D01*
X183086914Y-126589431D01*
X182021667Y-126591520D01*
X182021665Y-126591520D01*
X180647512Y-126593790D01*
X180647511Y-126593790D01*
X179163249Y-126595858D01*
X179163245Y-126595857D01*
X177564056Y-126597741D01*
X177564055Y-126597741D01*
X175846046Y-126599456D01*
X174004708Y-126601019D01*
X172035685Y-126602446D01*
X169934620Y-126603754D01*
X167697157Y-126604959D01*
X165318935Y-126606078D01*
X162795599Y-126607126D01*
X160122788Y-126608122D01*
X157296146Y-126609080D01*
X154311313Y-126610018D01*
X151163930Y-126610951D01*
X149338463Y-126611476D01*
X146145700Y-126612231D01*
X143048422Y-126612654D01*
X140049805Y-126612750D01*
X137152914Y-126612523D01*
X134360909Y-126611979D01*
X131676964Y-126611123D01*
X129104230Y-126609958D01*
X126645861Y-126608489D01*
X124305007Y-126606723D01*
X122084823Y-126604662D01*
X122084822Y-126604662D01*
X120697145Y-126603107D01*
X120875101Y-126484201D01*
X125835735Y-121523567D01*
X156570038Y-121523567D01*
X156712083Y-121867343D01*
X156974873Y-122130592D01*
X157318401Y-122273238D01*
X157690367Y-122273562D01*
X158034143Y-122131517D01*
X158067318Y-122098400D01*
X161002098Y-122098400D01*
X163094878Y-124191180D01*
X163094838Y-124236667D01*
X163236883Y-124580443D01*
X163499673Y-124843692D01*
X163843201Y-124986338D01*
X164215167Y-124986662D01*
X164558943Y-124844617D01*
X164822192Y-124581827D01*
X164964838Y-124238299D01*
X164965162Y-123866333D01*
X164823117Y-123522557D01*
X164560327Y-123259308D01*
X164216799Y-123116662D01*
X164169923Y-123116621D01*
X163019223Y-121965921D01*
X182498310Y-121965921D01*
X182498310Y-122506250D01*
X182657060Y-122665000D01*
X183805140Y-122665000D01*
X183805140Y-121615980D01*
X183646390Y-121457230D01*
X183007000Y-121457230D01*
X182773611Y-121553903D01*
X182594983Y-121732532D01*
X182498310Y-121965921D01*
X163019223Y-121965921D01*
X161854301Y-120800999D01*
X161607739Y-120636252D01*
X161316900Y-120578400D01*
X158067663Y-120578400D01*
X158035527Y-120546208D01*
X157691999Y-120403562D01*
X157320033Y-120403238D01*
X156976257Y-120545283D01*
X156713008Y-120808073D01*
X156570362Y-121151601D01*
X156570038Y-121523567D01*
X125835735Y-121523567D01*
X129067401Y-118291901D01*
X129232148Y-118045339D01*
X129290000Y-117754500D01*
X129290000Y-111346547D01*
X129313515Y-111336831D01*
X129703461Y-110947564D01*
X129914759Y-110438702D01*
X129915240Y-109887715D01*
X129904670Y-109862132D01*
X130252901Y-109513901D01*
X130417648Y-109267340D01*
X130475500Y-108976500D01*
X130475500Y-89547500D01*
X130458090Y-89459977D01*
X130417648Y-89256660D01*
X130373626Y-89190776D01*
X132803380Y-86761022D01*
X132848867Y-86761062D01*
X133192643Y-86619017D01*
X133257435Y-86554337D01*
X136374178Y-89671080D01*
G36*
X134038656Y-51354941D02*
X136660481Y-51355160D01*
X139433873Y-51355432D01*
X139433878Y-51355432D01*
X142363177Y-51355700D01*
X142363186Y-51355698D01*
X142363194Y-51355700D01*
X145452747Y-51355908D01*
X145452761Y-51355905D01*
X145452775Y-51355908D01*
X148706931Y-51356000D01*
X148706941Y-51355998D01*
X148706951Y-51356000D01*
X148999993Y-51356000D01*
X152251927Y-51356032D01*
X155338843Y-51356138D01*
X158265059Y-51356332D01*
X161034895Y-51356626D01*
X163652668Y-51357033D01*
X166122700Y-51357568D01*
X168449306Y-51358242D01*
X170636807Y-51359070D01*
X172689518Y-51360065D01*
X174611759Y-51361239D01*
X176407845Y-51362606D01*
X178082092Y-51364180D01*
X178082093Y-51364180D01*
X179638996Y-51365973D01*
X179639000Y-51365972D01*
X181082335Y-51367999D01*
X181082336Y-51367999D01*
X182417210Y-51370271D01*
X182417212Y-51370271D01*
X183646993Y-51372800D01*
X183646996Y-51372801D01*
X184776977Y-51375605D01*
X185810991Y-51378694D01*
X185810993Y-51378694D01*
X186752872Y-51382080D01*
X187607790Y-51385780D01*
X188379162Y-51389800D01*
X189072892Y-51394165D01*
X189690578Y-51398869D01*
X190239390Y-51403944D01*
X190721657Y-51409387D01*
X191142147Y-51415211D01*
X191505123Y-51421425D01*
X191814341Y-51428024D01*
X192074365Y-51435012D01*
X192288684Y-51442354D01*
X192460780Y-51449983D01*
X192593983Y-51457760D01*
X192690662Y-51465350D01*
X192751958Y-51471987D01*
X192765745Y-51474104D01*
X193650031Y-51730848D01*
X194440241Y-52106547D01*
X195146025Y-52596411D01*
X195762393Y-53192921D01*
X196283129Y-53889317D01*
X196700738Y-54679050D01*
X197006628Y-55555376D01*
X197194642Y-56528004D01*
X197223939Y-56818424D01*
X197262381Y-57245207D01*
X197267087Y-57261199D01*
X197266083Y-57277838D01*
X197307626Y-57581214D01*
X197320414Y-57618254D01*
X197322336Y-57657392D01*
X197376965Y-57875500D01*
X197403577Y-57931769D01*
X197417380Y-57992470D01*
X197495424Y-58167259D01*
X197526400Y-58210990D01*
X197545957Y-58260882D01*
X197650635Y-58424220D01*
X197673801Y-58448289D01*
X197688830Y-58478122D01*
X197857200Y-58693722D01*
X197900872Y-58731368D01*
X197934757Y-58778022D01*
X198116872Y-58946417D01*
X198180961Y-58985703D01*
X198236912Y-59035911D01*
X198460647Y-59168507D01*
X198521674Y-59190001D01*
X198576836Y-59223811D01*
X198870067Y-59332016D01*
X198910547Y-59338431D01*
X198947706Y-59355719D01*
X199338309Y-59450939D01*
X199359719Y-59451855D01*
X199379653Y-59459723D01*
X199895503Y-59553365D01*
X199903667Y-59553228D01*
X199911330Y-59556054D01*
X200254766Y-59610408D01*
X201787616Y-59881633D01*
X203209644Y-60211692D01*
X204599928Y-60620287D01*
X206034809Y-61128838D01*
X206265699Y-61218028D01*
X208207194Y-62064357D01*
X210060886Y-63048039D01*
X211832403Y-64167290D01*
X213515762Y-65415269D01*
X215104917Y-66785087D01*
X216593799Y-68269827D01*
X217976325Y-69862523D01*
X219246408Y-71556179D01*
X220397997Y-73343803D01*
X221425027Y-75218350D01*
X222321496Y-77172844D01*
X223081374Y-79200220D01*
X223701663Y-81303594D01*
X223797857Y-81690237D01*
X224234076Y-83843863D01*
X224515171Y-86033560D01*
X224642720Y-88251197D01*
X224616281Y-90477635D01*
X224435612Y-92693781D01*
X224099125Y-94890559D01*
X224002910Y-95373859D01*
X223472805Y-97519695D01*
X222790263Y-99607789D01*
X221958050Y-101638268D01*
X220981460Y-103601236D01*
X219865845Y-105486774D01*
X218616568Y-107285041D01*
X217238510Y-108986855D01*
X215841927Y-110478252D01*
X214260678Y-111938922D01*
X212588002Y-113266400D01*
X210831143Y-114457411D01*
X208997969Y-115508097D01*
X207096373Y-116414576D01*
X205134220Y-117172977D01*
X203119352Y-117779430D01*
X201052704Y-118231569D01*
X200018052Y-118395981D01*
X199509281Y-118472835D01*
X199493610Y-118478489D01*
X199476950Y-118478486D01*
X199099656Y-118553459D01*
X199067217Y-118566888D01*
X199032276Y-118570312D01*
X198754583Y-118654397D01*
X198703234Y-118681810D01*
X198646997Y-118696815D01*
X198434317Y-118801416D01*
X198381738Y-118841672D01*
X198322005Y-118870273D01*
X198139748Y-119006796D01*
X198116593Y-119032589D01*
X198086917Y-119050506D01*
X198022785Y-119109008D01*
X198003327Y-119135421D01*
X197976903Y-119154872D01*
X197765868Y-119386051D01*
X197727839Y-119448989D01*
X197678822Y-119503803D01*
X197529007Y-119757589D01*
X197503351Y-119830836D01*
X197465371Y-119898511D01*
X197362248Y-120214924D01*
X197356014Y-120267197D01*
X197337266Y-120316393D01*
X197266305Y-120735459D01*
X197266976Y-120758891D01*
X197260073Y-120781290D01*
X197224194Y-121129813D01*
X197144788Y-121815898D01*
X197035865Y-122363750D01*
X196881050Y-122862288D01*
X196653956Y-123400036D01*
X196642160Y-123424983D01*
X196172383Y-124233585D01*
X195600558Y-124928613D01*
X194922131Y-125526256D01*
X194146378Y-126017642D01*
X193264692Y-126400930D01*
X193036261Y-126474998D01*
X193031245Y-126476351D01*
X193017174Y-126479268D01*
X192982290Y-126484656D01*
X192921020Y-126491656D01*
X192830200Y-126499383D01*
X192707173Y-126507273D01*
X192548808Y-126515034D01*
X192352022Y-126522504D01*
X192112837Y-126529623D01*
X191827847Y-126536347D01*
X191492892Y-126542673D01*
X191209237Y-126546996D01*
X191382880Y-126343173D01*
X191514040Y-125937790D01*
X191514040Y-125588540D01*
X191315000Y-125588540D01*
X191315000Y-125334540D01*
X191514040Y-125334540D01*
X191514040Y-124985290D01*
X191382880Y-124579907D01*
X191106571Y-124255574D01*
X190843030Y-124126770D01*
X191253000Y-124126770D01*
X191486389Y-124030097D01*
X191665017Y-123851468D01*
X191761690Y-123618079D01*
X191761690Y-123077750D01*
X191602940Y-122919000D01*
X190454860Y-122919000D01*
X190454860Y-123968020D01*
X190613610Y-124126770D01*
X190646485Y-124126770D01*
X190556460Y-124195212D01*
X190556460Y-124227960D01*
X190430000Y-124202805D01*
X190302460Y-124228174D01*
X190302460Y-124195212D01*
X190135525Y-124068299D01*
X190067176Y-124101704D01*
X190200860Y-123968020D01*
X190200860Y-122919000D01*
X190180860Y-122919000D01*
X190180860Y-122665000D01*
X190200860Y-122665000D01*
X190200860Y-122645000D01*
X190454860Y-122645000D01*
X190454860Y-122665000D01*
X191602940Y-122665000D01*
X191761690Y-122506250D01*
X191761690Y-121965921D01*
X191665017Y-121732532D01*
X191486389Y-121553903D01*
X191253000Y-121457230D01*
X190831712Y-121457230D01*
X190980343Y-121395817D01*
X191243592Y-121133027D01*
X191386238Y-120789499D01*
X191386279Y-120742623D01*
X192207401Y-119921501D01*
X192372148Y-119674939D01*
X192430000Y-119384100D01*
X192430000Y-116606648D01*
X192729670Y-116406415D01*
X192940000Y-116091634D01*
X193150330Y-116406415D01*
X193636511Y-116731271D01*
X194210000Y-116845345D01*
X194783489Y-116731271D01*
X195269670Y-116406415D01*
X195594526Y-115920234D01*
X195708600Y-115346745D01*
X195708600Y-114977255D01*
X195594526Y-114403766D01*
X195269670Y-113917585D01*
X194783489Y-113592729D01*
X194210000Y-113478655D01*
X193636511Y-113592729D01*
X193150330Y-113917585D01*
X192940000Y-114232366D01*
X192729670Y-113917585D01*
X192243489Y-113592729D01*
X191670000Y-113478655D01*
X191096511Y-113592729D01*
X190610330Y-113917585D01*
X190595500Y-113939780D01*
X190531927Y-113786302D01*
X190353299Y-113607673D01*
X190119910Y-113511000D01*
X189415750Y-113511000D01*
X189257000Y-113669750D01*
X189257000Y-115035000D01*
X189277000Y-115035000D01*
X189277000Y-115289000D01*
X189257000Y-115289000D01*
X189257000Y-116654250D01*
X189415750Y-116813000D01*
X190119910Y-116813000D01*
X190353299Y-116716327D01*
X190531927Y-116537698D01*
X190595500Y-116384220D01*
X190610330Y-116406415D01*
X190910000Y-116606648D01*
X190910000Y-119069298D01*
X190311720Y-119667578D01*
X190266233Y-119667538D01*
X189922457Y-119809583D01*
X189659208Y-120072373D01*
X189516562Y-120415901D01*
X189516238Y-120787867D01*
X189658283Y-121131643D01*
X189921073Y-121394892D01*
X190200858Y-121511069D01*
X190200858Y-121615978D01*
X190042110Y-121457230D01*
X189402720Y-121457230D01*
X189187900Y-121546211D01*
X189187900Y-117936100D01*
X189130048Y-117645261D01*
X188965301Y-117398699D01*
X188379602Y-116813000D01*
X188844250Y-116813000D01*
X189003000Y-116654250D01*
X189003000Y-115289000D01*
X187790150Y-115289000D01*
X187631400Y-115447750D01*
X187631400Y-116064798D01*
X185586293Y-114019691D01*
X187631400Y-114019691D01*
X187631400Y-114876250D01*
X187790150Y-115035000D01*
X189003000Y-115035000D01*
X189003000Y-113669750D01*
X188844250Y-113511000D01*
X188140090Y-113511000D01*
X187906701Y-113607673D01*
X187728073Y-113786302D01*
X187631400Y-114019691D01*
X185586293Y-114019691D01*
X179496002Y-107929400D01*
X182541117Y-104884285D01*
X192302760Y-104884285D01*
X192513169Y-105393515D01*
X192902436Y-105783461D01*
X193411298Y-105994759D01*
X193962285Y-105995240D01*
X194471515Y-105784831D01*
X194861461Y-105395564D01*
X195072759Y-104886702D01*
X195073240Y-104335715D01*
X194862831Y-103826485D01*
X194473564Y-103436539D01*
X193964702Y-103225241D01*
X193413715Y-103224760D01*
X192904485Y-103435169D01*
X192514539Y-103824436D01*
X192303241Y-104333298D01*
X192302760Y-104884285D01*
X182541117Y-104884285D01*
X188582301Y-98843101D01*
X188747048Y-98596539D01*
X188804900Y-98305700D01*
X188804900Y-97772285D01*
X206526760Y-97772285D01*
X206737169Y-98281515D01*
X207126436Y-98671461D01*
X207635298Y-98882759D01*
X208186285Y-98883240D01*
X208695515Y-98672831D01*
X208899183Y-98469517D01*
X211438088Y-98469517D01*
X211506077Y-98710460D01*
X212025171Y-98895201D01*
X212575448Y-98867230D01*
X212953923Y-98710460D01*
X213021912Y-98469517D01*
X212230000Y-97677605D01*
X211438088Y-98469517D01*
X208899183Y-98469517D01*
X209085461Y-98283564D01*
X209296759Y-97774702D01*
X209297179Y-97293171D01*
X210832799Y-97293171D01*
X210860770Y-97843448D01*
X211017540Y-98221923D01*
X211258483Y-98289912D01*
X212050395Y-97498000D01*
X212409605Y-97498000D01*
X213201517Y-98289912D01*
X213442460Y-98221923D01*
X213627201Y-97702829D01*
X213599230Y-97152552D01*
X213442460Y-96774077D01*
X213201517Y-96706088D01*
X212409605Y-97498000D01*
X212050395Y-97498000D01*
X211258483Y-96706088D01*
X211017540Y-96774077D01*
X210832799Y-97293171D01*
X209297179Y-97293171D01*
X209297240Y-97223715D01*
X209086831Y-96714485D01*
X208899157Y-96526483D01*
X211438088Y-96526483D01*
X212230000Y-97318395D01*
X213021912Y-96526483D01*
X212953923Y-96285540D01*
X212434829Y-96100799D01*
X211884552Y-96128770D01*
X211506077Y-96285540D01*
X211438088Y-96526483D01*
X208899157Y-96526483D01*
X208697564Y-96324539D01*
X208188702Y-96113241D01*
X207637715Y-96112760D01*
X207128485Y-96323169D01*
X206738539Y-96712436D01*
X206527241Y-97221298D01*
X206526760Y-97772285D01*
X188804900Y-97772285D01*
X188804900Y-84678463D01*
X188837092Y-84646327D01*
X188979738Y-84302799D01*
X188980062Y-83930833D01*
X188838017Y-83587057D01*
X188575227Y-83323808D01*
X188231699Y-83181162D01*
X187859733Y-83180838D01*
X187515957Y-83322883D01*
X187252708Y-83585673D01*
X187110062Y-83929201D01*
X187109738Y-84301167D01*
X187251783Y-84644943D01*
X187284900Y-84678118D01*
X187284900Y-97990898D01*
X178122795Y-107153003D01*
X178107027Y-107137208D01*
X178009564Y-107096738D01*
X183228701Y-101877601D01*
X183393448Y-101631039D01*
X183451300Y-101340200D01*
X183451300Y-72965367D01*
X187049838Y-72965367D01*
X187191883Y-73309143D01*
X187454673Y-73572392D01*
X187798201Y-73715038D01*
X188170167Y-73715362D01*
X188513943Y-73573317D01*
X188777192Y-73310527D01*
X188919838Y-72966999D01*
X188919879Y-72920123D01*
X189450967Y-72389035D01*
X189450838Y-72537167D01*
X189592883Y-72880943D01*
X189626000Y-72914118D01*
X189626000Y-93125537D01*
X189593808Y-93157673D01*
X189451162Y-93501201D01*
X189450838Y-93873167D01*
X189592883Y-94216943D01*
X189855673Y-94480192D01*
X190199201Y-94622838D01*
X190571167Y-94623162D01*
X190914943Y-94481117D01*
X191178192Y-94218327D01*
X191320838Y-93874799D01*
X191321162Y-93502833D01*
X191179117Y-93159057D01*
X191146000Y-93125882D01*
X191146000Y-77038661D01*
X205532758Y-77038661D01*
X205744990Y-77552303D01*
X206137630Y-77945629D01*
X206650900Y-78158757D01*
X207206661Y-78159242D01*
X207720303Y-77947010D01*
X207925457Y-77742213D01*
X213729392Y-77742213D01*
X213798857Y-77984397D01*
X214322302Y-78171144D01*
X214877368Y-78143362D01*
X215261143Y-77984397D01*
X215330608Y-77742213D01*
X214530000Y-76941605D01*
X213729392Y-77742213D01*
X207925457Y-77742213D01*
X208113629Y-77554370D01*
X208326757Y-77041100D01*
X208327181Y-76554302D01*
X213120856Y-76554302D01*
X213148638Y-77109368D01*
X213307603Y-77493143D01*
X213549787Y-77562608D01*
X214350395Y-76762000D01*
X214709605Y-76762000D01*
X215510213Y-77562608D01*
X215752397Y-77493143D01*
X215939144Y-76969698D01*
X215911362Y-76414632D01*
X215752397Y-76030857D01*
X215510213Y-75961392D01*
X214709605Y-76762000D01*
X214350395Y-76762000D01*
X213549787Y-75961392D01*
X213307603Y-76030857D01*
X213120856Y-76554302D01*
X208327181Y-76554302D01*
X208327242Y-76485339D01*
X208115010Y-75971697D01*
X207925432Y-75781787D01*
X213729392Y-75781787D01*
X214530000Y-76582395D01*
X215330608Y-75781787D01*
X215261143Y-75539603D01*
X214737698Y-75352856D01*
X214182632Y-75380638D01*
X213798857Y-75539603D01*
X213729392Y-75781787D01*
X207925432Y-75781787D01*
X207722370Y-75578371D01*
X207209100Y-75365243D01*
X206653339Y-75364758D01*
X206139697Y-75576990D01*
X205746371Y-75969630D01*
X205533243Y-76482900D01*
X205532758Y-77038661D01*
X191146000Y-77038661D01*
X191146000Y-72914463D01*
X191178192Y-72882327D01*
X191320838Y-72538799D01*
X191321162Y-72166833D01*
X191179117Y-71823057D01*
X190916327Y-71559808D01*
X190572799Y-71417162D01*
X190422971Y-71417031D01*
X190657001Y-71183001D01*
X190821748Y-70936440D01*
X190879600Y-70645600D01*
X190879600Y-59876963D01*
X190911792Y-59844827D01*
X191054438Y-59501299D01*
X191054762Y-59129333D01*
X190912717Y-58785557D01*
X190649927Y-58522308D01*
X190306399Y-58379662D01*
X189934433Y-58379338D01*
X189590657Y-58521383D01*
X189327408Y-58784173D01*
X189184762Y-59127701D01*
X189184438Y-59499667D01*
X189326483Y-59843443D01*
X189359600Y-59876618D01*
X189359600Y-70330798D01*
X187845320Y-71845078D01*
X187799833Y-71845038D01*
X187456057Y-71987083D01*
X187192808Y-72249873D01*
X187050162Y-72593401D01*
X187049838Y-72965367D01*
X183451300Y-72965367D01*
X183451300Y-65165900D01*
X183413092Y-64973817D01*
X183393448Y-64875060D01*
X183228701Y-64628499D01*
X178704821Y-60104619D01*
X179594613Y-60104619D01*
X179934155Y-60926372D01*
X180562321Y-61555636D01*
X181383481Y-61896611D01*
X182272619Y-61897387D01*
X183094372Y-61557845D01*
X183723636Y-60929679D01*
X184064611Y-60108519D01*
X184065387Y-59219381D01*
X183725845Y-58397628D01*
X183097679Y-57768364D01*
X182276519Y-57427389D01*
X181387381Y-57426613D01*
X180565628Y-57766155D01*
X179936364Y-58394321D01*
X179595389Y-59215481D01*
X179594613Y-60104619D01*
X178704821Y-60104619D01*
X176930122Y-58329920D01*
X176930162Y-58284433D01*
X176788117Y-57940657D01*
X176525327Y-57677408D01*
X176181799Y-57534762D01*
X175809833Y-57534438D01*
X175466057Y-57676483D01*
X175202808Y-57939273D01*
X175060162Y-58282801D01*
X175059838Y-58654767D01*
X175201883Y-58998543D01*
X175464673Y-59261792D01*
X175808201Y-59404438D01*
X175855077Y-59404479D01*
X181931300Y-65480702D01*
X181931300Y-87083461D01*
X179681129Y-84713687D01*
X179673913Y-84708591D01*
X179669028Y-84701231D01*
X179553069Y-84623240D01*
X179438913Y-84542614D01*
X179430296Y-84540667D01*
X179422966Y-84535737D01*
X179285970Y-84508054D01*
X179149669Y-84477255D01*
X179140965Y-84478753D01*
X179132304Y-84477003D01*
X165999328Y-84437184D01*
X166139838Y-84098799D01*
X166140162Y-83726833D01*
X165998117Y-83383057D01*
X165735327Y-83119808D01*
X165391799Y-82977162D01*
X165019833Y-82976838D01*
X164967508Y-82998458D01*
X161237257Y-81506358D01*
X161095971Y-81480041D01*
X160955000Y-81452000D01*
X160892463Y-81452000D01*
X160860327Y-81419808D01*
X160516799Y-81277162D01*
X160244370Y-81276925D01*
X171007549Y-71688168D01*
X171020933Y-71670441D01*
X171039401Y-71658101D01*
X171109838Y-71552685D01*
X171186226Y-71451507D01*
X171187523Y-71446510D01*
X171294192Y-71340027D01*
X171436838Y-70996499D01*
X171437162Y-70624533D01*
X171295117Y-70280757D01*
X171032327Y-70017508D01*
X170688799Y-69874862D01*
X170316833Y-69874538D01*
X169973057Y-70016583D01*
X169709808Y-70279373D01*
X169567162Y-70622901D01*
X169566889Y-70935922D01*
X167422704Y-72846145D01*
X167804840Y-72481275D01*
X167809973Y-72473964D01*
X167817401Y-72469001D01*
X167894990Y-72352881D01*
X167975240Y-72238586D01*
X167977185Y-72229867D01*
X167982148Y-72222439D01*
X168009394Y-72085464D01*
X168039797Y-71949161D01*
X168038257Y-71940362D01*
X168040000Y-71931600D01*
X168040000Y-69709763D01*
X168072192Y-69677627D01*
X168214838Y-69334099D01*
X168215162Y-68962133D01*
X168073117Y-68618357D01*
X167810327Y-68355108D01*
X167466799Y-68212462D01*
X167094833Y-68212138D01*
X166751057Y-68354183D01*
X166487808Y-68616973D01*
X166345162Y-68960501D01*
X166344838Y-69332467D01*
X166486883Y-69676243D01*
X166520000Y-69709418D01*
X166520000Y-71606459D01*
X155658829Y-81976894D01*
X155594833Y-81976838D01*
X155493185Y-82018838D01*
X155509014Y-77820688D01*
X166083480Y-67246222D01*
X166128967Y-67246262D01*
X166472743Y-67104217D01*
X166735992Y-66841427D01*
X166878638Y-66497899D01*
X166878962Y-66125933D01*
X166736917Y-65782157D01*
X166474127Y-65518908D01*
X166130599Y-65376262D01*
X165758633Y-65375938D01*
X165414857Y-65517983D01*
X165151608Y-65780773D01*
X165008962Y-66124301D01*
X165008921Y-66171177D01*
X154890141Y-76289957D01*
X154913097Y-69501232D01*
X155022192Y-69392327D01*
X155164838Y-69048799D01*
X155165162Y-68676833D01*
X155023117Y-68333057D01*
X154760327Y-68069808D01*
X154416799Y-67927162D01*
X154090000Y-67926877D01*
X154090000Y-66962000D01*
X154083837Y-66931019D01*
X154087437Y-66899638D01*
X154055098Y-66786537D01*
X154032148Y-66671161D01*
X154014599Y-66644896D01*
X154005915Y-66614527D01*
X153932756Y-66522410D01*
X153867401Y-66424599D01*
X153841138Y-66407051D01*
X153821493Y-66382315D01*
X153370093Y-65999591D01*
X153239717Y-65684057D01*
X152976927Y-65420808D01*
X152633399Y-65278162D01*
X152261433Y-65277838D01*
X151917657Y-65419883D01*
X151654408Y-65682673D01*
X151511762Y-66026201D01*
X151511438Y-66398167D01*
X151653483Y-66741943D01*
X151916273Y-67005192D01*
X152259801Y-67147838D01*
X152374106Y-67147938D01*
X152570000Y-67314028D01*
X152570000Y-80601097D01*
X152331827Y-80362508D01*
X151988299Y-80219862D01*
X151616333Y-80219538D01*
X151272557Y-80361583D01*
X151009308Y-80624373D01*
X150899768Y-80888174D01*
X147847313Y-83227000D01*
X146788509Y-83227000D01*
X146789838Y-83223799D01*
X146789896Y-83157719D01*
X150272423Y-80195396D01*
X150291649Y-80171108D01*
X150317401Y-80153901D01*
X150383086Y-80055596D01*
X150456472Y-79962888D01*
X150464939Y-79933094D01*
X150482148Y-79907339D01*
X150505215Y-79791376D01*
X150537536Y-79677646D01*
X150533957Y-79646880D01*
X150540000Y-79616500D01*
X150540000Y-73196547D01*
X150563515Y-73186831D01*
X150953461Y-72797564D01*
X151164759Y-72288702D01*
X151165240Y-71737715D01*
X150954831Y-71228485D01*
X150565564Y-70838539D01*
X150056702Y-70627241D01*
X149505715Y-70626760D01*
X148996485Y-70837169D01*
X148606539Y-71226436D01*
X148395241Y-71735298D01*
X148394760Y-72286285D01*
X148605169Y-72795515D01*
X148994436Y-73185461D01*
X149020000Y-73196076D01*
X149020000Y-79265213D01*
X145685229Y-82101851D01*
X145669833Y-82101838D01*
X145326057Y-82243883D01*
X145062808Y-82506673D01*
X144933075Y-82819104D01*
X141524598Y-86468224D01*
X141451807Y-86585637D01*
X141375858Y-86701022D01*
X141373881Y-86711334D01*
X141368349Y-86720257D01*
X141346036Y-86856559D01*
X141320018Y-86992253D01*
X141332921Y-88858777D01*
X141107399Y-89084299D01*
X140942652Y-89330861D01*
X140884800Y-89621700D01*
X140884800Y-90802000D01*
X139951771Y-90802000D01*
X139997248Y-90733939D01*
X140055100Y-90443100D01*
X140055100Y-87311402D01*
X144114280Y-83252222D01*
X144159767Y-83252262D01*
X144503543Y-83110217D01*
X144766792Y-82847427D01*
X144909438Y-82503899D01*
X144909762Y-82131933D01*
X144767717Y-81788157D01*
X144504927Y-81524908D01*
X144161399Y-81382262D01*
X143789433Y-81381938D01*
X143445657Y-81523983D01*
X143182408Y-81786773D01*
X143039762Y-82130301D01*
X143039721Y-82177177D01*
X138757699Y-86459199D01*
X138592952Y-86705761D01*
X138535100Y-86996600D01*
X138535100Y-89479943D01*
X138244346Y-89479690D01*
X138244462Y-89346233D01*
X138102417Y-89002457D01*
X137839627Y-88739208D01*
X137496099Y-88596562D01*
X137449223Y-88596521D01*
X130546701Y-81693999D01*
X130300139Y-81529252D01*
X130009300Y-81471400D01*
X123672402Y-81471400D01*
X123634987Y-81433985D01*
X123776592Y-81292627D01*
X123919238Y-80949099D01*
X123919562Y-80577133D01*
X123777517Y-80233357D01*
X123744400Y-80200182D01*
X123744400Y-72895379D01*
X123901801Y-72960738D01*
X124273767Y-72961062D01*
X124617543Y-72819017D01*
X124880792Y-72556227D01*
X125023438Y-72212699D01*
X125023479Y-72165823D01*
X130134303Y-67055000D01*
X140636637Y-67055000D01*
X140668773Y-67087192D01*
X141012301Y-67229838D01*
X141384267Y-67230162D01*
X141728043Y-67088117D01*
X141991292Y-66825327D01*
X142133938Y-66481799D01*
X142134262Y-66109833D01*
X141992217Y-65766057D01*
X141729427Y-65502808D01*
X141385899Y-65360162D01*
X141013933Y-65359838D01*
X140670157Y-65501883D01*
X140636982Y-65535000D01*
X129819500Y-65535000D01*
X129528661Y-65592852D01*
X129282099Y-65757598D01*
X123948920Y-71090778D01*
X123903433Y-71090738D01*
X123744400Y-71156449D01*
X123744400Y-57065067D01*
X169911938Y-57065067D01*
X170053983Y-57408843D01*
X170316773Y-57672092D01*
X170660301Y-57814738D01*
X170707177Y-57814779D01*
X174808800Y-61916402D01*
X174808800Y-78311537D01*
X174776608Y-78343673D01*
X174633962Y-78687201D01*
X174633638Y-79059167D01*
X174775683Y-79402943D01*
X175038473Y-79666192D01*
X175382001Y-79808838D01*
X175753967Y-79809162D01*
X176097743Y-79667117D01*
X176360992Y-79404327D01*
X176503638Y-79060799D01*
X176503962Y-78688833D01*
X176361917Y-78345057D01*
X176328800Y-78311882D01*
X176328800Y-61601600D01*
X176296150Y-61437459D01*
X176270948Y-61310760D01*
X176106201Y-61064199D01*
X171782222Y-56740220D01*
X171782262Y-56694733D01*
X171640217Y-56350957D01*
X171377427Y-56087708D01*
X171033899Y-55945062D01*
X170661933Y-55944738D01*
X170318157Y-56086783D01*
X170054908Y-56349573D01*
X169912262Y-56693101D01*
X169911938Y-57065067D01*
X123744400Y-57065067D01*
X123744400Y-55204619D01*
X191294613Y-55204619D01*
X191634155Y-56026372D01*
X192262321Y-56655636D01*
X193083481Y-56996611D01*
X193972619Y-56997387D01*
X194794372Y-56657845D01*
X195423636Y-56029679D01*
X195764611Y-55208519D01*
X195765387Y-54319381D01*
X195425845Y-53497628D01*
X194797679Y-52868364D01*
X193976519Y-52527389D01*
X193087381Y-52526613D01*
X192265628Y-52866155D01*
X191636364Y-53494321D01*
X191295389Y-54315481D01*
X191294613Y-55204619D01*
X123744400Y-55204619D01*
X123744400Y-54192400D01*
X123723226Y-54085954D01*
X123686548Y-53901560D01*
X123521801Y-53654999D01*
X123316622Y-53449820D01*
X123316662Y-53404333D01*
X123174617Y-53060557D01*
X122911827Y-52797308D01*
X122568299Y-52654662D01*
X122196333Y-52654338D01*
X121852557Y-52796383D01*
X121589308Y-53059173D01*
X121446662Y-53402701D01*
X121446338Y-53774667D01*
X121588383Y-54118443D01*
X121851173Y-54381692D01*
X122194701Y-54524338D01*
X122224400Y-54524364D01*
X122224400Y-64358201D01*
X122005000Y-64314560D01*
X119133600Y-64314560D01*
X119133600Y-56574463D01*
X119165792Y-56542327D01*
X119308438Y-56198799D01*
X119308762Y-55826833D01*
X119166717Y-55483057D01*
X118903927Y-55219808D01*
X118560399Y-55077162D01*
X118188433Y-55076838D01*
X117844657Y-55218883D01*
X117581408Y-55481673D01*
X117438762Y-55825201D01*
X117438438Y-56197167D01*
X117580483Y-56540943D01*
X117613600Y-56574118D01*
X117613600Y-64228598D01*
X116292899Y-65549299D01*
X116128152Y-65795861D01*
X116070300Y-66086700D01*
X116070300Y-67014560D01*
X113005000Y-67014560D01*
X112757235Y-67063843D01*
X112547191Y-67204191D01*
X112406843Y-67414235D01*
X112357560Y-67662000D01*
X112357560Y-68662000D01*
X112406843Y-68909765D01*
X112547191Y-69119809D01*
X112608320Y-69160654D01*
X112466673Y-69302302D01*
X112370000Y-69535691D01*
X112370000Y-69876250D01*
X112528750Y-70035000D01*
X114628000Y-70035000D01*
X114628000Y-70015000D01*
X114882000Y-70015000D01*
X114882000Y-70035000D01*
X114902000Y-70035000D01*
X114902000Y-70289000D01*
X114882000Y-70289000D01*
X114882000Y-71138250D01*
X115040750Y-71297000D01*
X116070300Y-71297000D01*
X116070300Y-86344998D01*
X113164900Y-83439598D01*
X113164900Y-83252463D01*
X113197092Y-83220327D01*
X113339738Y-82876799D01*
X113340062Y-82504833D01*
X113198017Y-82161057D01*
X112935227Y-81897808D01*
X112591699Y-81755162D01*
X112264300Y-81754877D01*
X112264300Y-71599600D01*
X112243608Y-71495573D01*
X112206448Y-71308760D01*
X112041701Y-71062199D01*
X111427252Y-70447750D01*
X112370000Y-70447750D01*
X112370000Y-70788309D01*
X112466673Y-71021698D01*
X112645301Y-71200327D01*
X112878690Y-71297000D01*
X114469250Y-71297000D01*
X114628000Y-71138250D01*
X114628000Y-70289000D01*
X112528750Y-70289000D01*
X112370000Y-70447750D01*
X111427252Y-70447750D01*
X108099350Y-67119848D01*
X108324526Y-66782848D01*
X108438600Y-66209359D01*
X108438600Y-66150641D01*
X108324526Y-65577152D01*
X107999670Y-65090971D01*
X107728839Y-64910008D01*
X108146821Y-64528490D01*
X108394968Y-63999027D01*
X108274469Y-63767000D01*
X107067000Y-63767000D01*
X107067000Y-63787000D01*
X106813000Y-63787000D01*
X106813000Y-63767000D01*
X106793000Y-63767000D01*
X106793000Y-63513000D01*
X106813000Y-63513000D01*
X106813000Y-62306183D01*
X107067000Y-62306183D01*
X107067000Y-63513000D01*
X108274469Y-63513000D01*
X108394968Y-63280973D01*
X108146821Y-62751510D01*
X107714947Y-62357312D01*
X107299026Y-62185042D01*
X107067000Y-62306183D01*
X106813000Y-62306183D01*
X106580974Y-62185042D01*
X106165053Y-62357312D01*
X105733179Y-62751510D01*
X105675664Y-62874228D01*
X105459670Y-62550971D01*
X104973489Y-62226115D01*
X104400000Y-62112041D01*
X103826511Y-62226115D01*
X103340330Y-62550971D01*
X103015474Y-63037152D01*
X102901400Y-63610641D01*
X102901400Y-63669359D01*
X103015474Y-64242848D01*
X103340330Y-64729029D01*
X103611172Y-64910000D01*
X103340330Y-65090971D01*
X103015474Y-65577152D01*
X102901400Y-66150641D01*
X102901400Y-66209359D01*
X103015474Y-66782848D01*
X103340330Y-67269029D01*
X103611172Y-67450000D01*
X103340330Y-67630971D01*
X103015474Y-68117152D01*
X102901400Y-68690641D01*
X102901400Y-68749359D01*
X103015474Y-69322848D01*
X103220943Y-69630355D01*
X102612399Y-70238899D01*
X102447652Y-70485461D01*
X102389800Y-70776300D01*
X102389800Y-76812400D01*
X102447652Y-77103239D01*
X102612399Y-77349801D01*
X103225470Y-77962872D01*
X103015474Y-78277152D01*
X102901400Y-78850641D01*
X102901400Y-78909359D01*
X103015474Y-79482848D01*
X103225470Y-79797128D01*
X102635599Y-80386999D01*
X102470852Y-80633561D01*
X102413000Y-80924400D01*
X102413000Y-81895500D01*
X102470852Y-82186339D01*
X102635599Y-82432901D01*
X103233521Y-83030823D01*
X103015474Y-83357152D01*
X102901400Y-83930641D01*
X102901400Y-83989359D01*
X103015474Y-84562848D01*
X103340330Y-85049029D01*
X103611172Y-85230000D01*
X103340330Y-85410971D01*
X103015474Y-85897152D01*
X102901400Y-86470641D01*
X102901400Y-86529359D01*
X103015474Y-87102848D01*
X103340330Y-87589029D01*
X103611172Y-87770000D01*
X103340330Y-87950971D01*
X103015474Y-88437152D01*
X102901400Y-89010641D01*
X102901400Y-89069359D01*
X103015474Y-89642848D01*
X103340330Y-90129029D01*
X103611172Y-90310000D01*
X103340330Y-90490971D01*
X103015474Y-90977152D01*
X102901400Y-91550641D01*
X102901400Y-91609359D01*
X103015474Y-92182848D01*
X103340330Y-92669029D01*
X103611172Y-92850000D01*
X103340330Y-93030971D01*
X103015474Y-93517152D01*
X102901400Y-94090641D01*
X102901400Y-94149359D01*
X103015474Y-94722848D01*
X103340330Y-95209029D01*
X103611172Y-95390000D01*
X103340330Y-95570971D01*
X103015474Y-96057152D01*
X102901400Y-96630641D01*
X102901400Y-96689359D01*
X103015474Y-97262848D01*
X103340330Y-97749029D01*
X103611172Y-97930000D01*
X103340330Y-98110971D01*
X103015474Y-98597152D01*
X102901400Y-99170641D01*
X102901400Y-99229359D01*
X103015474Y-99802848D01*
X103340330Y-100289029D01*
X103611172Y-100470000D01*
X103340330Y-100650971D01*
X103015474Y-101137152D01*
X102901400Y-101710641D01*
X102901400Y-101769359D01*
X103015474Y-102342848D01*
X103340330Y-102829029D01*
X103611172Y-103010000D01*
X103340330Y-103190971D01*
X103015474Y-103677152D01*
X102901400Y-104250641D01*
X102901400Y-104309359D01*
X103015474Y-104882848D01*
X103340330Y-105369029D01*
X103611172Y-105550000D01*
X103340330Y-105730971D01*
X103015474Y-106217152D01*
X102901400Y-106790641D01*
X102901400Y-106849359D01*
X103015474Y-107422848D01*
X103340330Y-107909029D01*
X103611172Y-108090000D01*
X103340330Y-108270971D01*
X103015474Y-108757152D01*
X102901400Y-109330641D01*
X102901400Y-109389359D01*
X103015474Y-109962848D01*
X103330526Y-110434356D01*
X103176701Y-110498073D01*
X102998073Y-110676702D01*
X102901400Y-110910091D01*
X102901400Y-111614250D01*
X103060150Y-111773000D01*
X104273000Y-111773000D01*
X104273000Y-111753000D01*
X104527000Y-111753000D01*
X104527000Y-111773000D01*
X104547000Y-111773000D01*
X104547000Y-112027000D01*
X104527000Y-112027000D01*
X104527000Y-113239850D01*
X104685750Y-113398600D01*
X105389910Y-113398600D01*
X105623299Y-113301927D01*
X105801927Y-113123298D01*
X105866263Y-112967977D01*
X105880330Y-112989029D01*
X106180000Y-113189262D01*
X106180000Y-120599082D01*
X105992599Y-120724299D01*
X105827852Y-120970861D01*
X105807727Y-121072038D01*
X105780000Y-121090564D01*
X105627765Y-120988843D01*
X105380000Y-120939560D01*
X104680000Y-120939560D01*
X104432235Y-120988843D01*
X104222191Y-121129191D01*
X104081843Y-121339235D01*
X104032560Y-121587000D01*
X104032560Y-121939560D01*
X103130000Y-121939560D01*
X102882235Y-121988843D01*
X102672191Y-122129191D01*
X102531843Y-122339235D01*
X102482560Y-122587000D01*
X102482560Y-123387000D01*
X102531843Y-123634765D01*
X102672191Y-123844809D01*
X102882235Y-123985157D01*
X103130000Y-124034440D01*
X104130000Y-124034440D01*
X104377765Y-123985157D01*
X104587809Y-123844809D01*
X104663720Y-123731202D01*
X104680000Y-123734440D01*
X104751575Y-123734440D01*
X104695189Y-123870233D01*
X104694812Y-124301873D01*
X104859646Y-124700800D01*
X105164595Y-125006282D01*
X105563233Y-125171811D01*
X105994873Y-125172188D01*
X106393800Y-125007354D01*
X106699282Y-124702405D01*
X106864811Y-124303767D01*
X106865188Y-123872127D01*
X106808297Y-123734440D01*
X106880000Y-123734440D01*
X107127765Y-123685157D01*
X107161200Y-123662816D01*
X107161200Y-124335100D01*
X107219052Y-124625939D01*
X107383799Y-124872501D01*
X108995499Y-126484201D01*
X109136654Y-126578517D01*
X109046366Y-126578182D01*
X109046365Y-126578182D01*
X108054129Y-126573695D01*
X107214292Y-126568962D01*
X106530988Y-126563998D01*
X106007034Y-126558812D01*
X105648414Y-126553462D01*
X105496350Y-126549156D01*
X104670279Y-126357571D01*
X104295555Y-126201509D01*
X104377765Y-126185157D01*
X104587809Y-126044809D01*
X104728157Y-125834765D01*
X104777440Y-125587000D01*
X104777440Y-124787000D01*
X104728157Y-124539235D01*
X104587809Y-124329191D01*
X104377765Y-124188843D01*
X104130000Y-124139560D01*
X103130000Y-124139560D01*
X102882235Y-124188843D01*
X102672191Y-124329191D01*
X102531843Y-124539235D01*
X102482560Y-124787000D01*
X102482560Y-125000680D01*
X101905076Y-124325593D01*
X101416104Y-123538156D01*
X101287337Y-123273573D01*
X101129612Y-122858614D01*
X100982724Y-122345025D01*
X100864262Y-121800124D01*
X100791368Y-121302126D01*
X100772565Y-120980954D01*
X100765728Y-120954708D01*
X100767420Y-120927638D01*
X100693688Y-120380425D01*
X100663102Y-120291213D01*
X100644041Y-120198843D01*
X100437505Y-119710139D01*
X100381953Y-119628274D01*
X100336036Y-119540642D01*
X100014458Y-119142156D01*
X99938985Y-119079171D01*
X99871267Y-119007919D01*
X99537691Y-118772548D01*
X99442741Y-118730360D01*
X99352446Y-118678964D01*
X99185451Y-118623418D01*
X99150978Y-118619095D01*
X99119263Y-118604908D01*
X98826360Y-118538094D01*
X98811241Y-118537672D01*
X98797187Y-118532080D01*
X98420625Y-118462655D01*
X98409507Y-118462811D01*
X98399055Y-118459021D01*
X98016305Y-118400583D01*
X95936597Y-118031502D01*
X93918200Y-117509565D01*
X91949558Y-116836345D01*
X90038192Y-116016812D01*
X88191551Y-115055898D01*
X86417259Y-113958632D01*
X84722837Y-112729990D01*
X84077384Y-112185750D01*
X102901400Y-112185750D01*
X102901400Y-112889909D01*
X102998073Y-113123298D01*
X103176701Y-113301927D01*
X103410090Y-113398600D01*
X104114250Y-113398600D01*
X104273000Y-113239850D01*
X104273000Y-112027000D01*
X103060150Y-112027000D01*
X102901400Y-112185750D01*
X84077384Y-112185750D01*
X83115863Y-111375005D01*
X81603914Y-109898719D01*
X80194563Y-108306197D01*
X78895316Y-106602437D01*
X77707038Y-104782252D01*
X77646915Y-104681815D01*
X76579764Y-102736288D01*
X75670095Y-100749480D01*
X74909205Y-98702668D01*
X74294172Y-96586969D01*
X73822386Y-94393359D01*
X73494188Y-92136338D01*
X73457092Y-91696415D01*
X73427377Y-91108261D01*
X73406294Y-90414282D01*
X73394214Y-89653657D01*
X73393857Y-89558619D01*
X74104613Y-89558619D01*
X74444155Y-90380372D01*
X75072321Y-91009636D01*
X75893481Y-91350611D01*
X76782619Y-91351387D01*
X77604372Y-91011845D01*
X78233636Y-90383679D01*
X78574611Y-89562519D01*
X78575387Y-88673381D01*
X78235845Y-87851628D01*
X77607679Y-87222364D01*
X76786519Y-86881389D01*
X75897381Y-86880613D01*
X75075628Y-87220155D01*
X74446364Y-87848321D01*
X74105389Y-88669481D01*
X74104613Y-89558619D01*
X73393857Y-89558619D01*
X73391322Y-88885643D01*
X73391320Y-88885631D01*
X73391322Y-88885619D01*
X73391236Y-88862861D01*
X73397378Y-88078503D01*
X73412604Y-87336577D01*
X73436745Y-86674715D01*
X73469426Y-86129781D01*
X73493868Y-85866435D01*
X73823339Y-83592804D01*
X74288074Y-81416576D01*
X74891840Y-79323139D01*
X75638246Y-77301213D01*
X76531277Y-75339523D01*
X77339434Y-73859000D01*
X99780000Y-73859000D01*
X99828601Y-73849333D01*
X99869803Y-73821803D01*
X99897333Y-73780601D01*
X99907000Y-73732000D01*
X99907000Y-60204619D01*
X113094613Y-60204619D01*
X113434155Y-61026372D01*
X114062321Y-61655636D01*
X114883481Y-61996611D01*
X115772619Y-61997387D01*
X116594372Y-61657845D01*
X117223636Y-61029679D01*
X117564611Y-60208519D01*
X117565387Y-59319381D01*
X117225845Y-58497628D01*
X116597679Y-57868364D01*
X115776519Y-57527389D01*
X114887381Y-57526613D01*
X114065628Y-57866155D01*
X113436364Y-58494321D01*
X113095389Y-59315481D01*
X113094613Y-60204619D01*
X99907000Y-60204619D01*
X99907000Y-58929155D01*
X100105882Y-58752142D01*
X100134087Y-58714821D01*
X100170998Y-58686075D01*
X100200895Y-58651486D01*
X100218225Y-58620965D01*
X100243677Y-58596798D01*
X100407816Y-58364401D01*
X100437409Y-58297880D01*
X100478920Y-58238075D01*
X100595436Y-57970291D01*
X100609137Y-57907266D01*
X100635780Y-57848529D01*
X100715749Y-57506208D01*
X100717062Y-57466614D01*
X100729347Y-57428950D01*
X100783846Y-56972946D01*
X100782661Y-56957668D01*
X100786789Y-56942914D01*
X100802691Y-56735310D01*
X100943002Y-55764398D01*
X101115042Y-55204619D01*
X102294613Y-55204619D01*
X102634155Y-56026372D01*
X103262321Y-56655636D01*
X104083481Y-56996611D01*
X104972619Y-56997387D01*
X105794372Y-56657845D01*
X106423636Y-56029679D01*
X106764611Y-55208519D01*
X106765387Y-54319381D01*
X106425845Y-53497628D01*
X105797679Y-52868364D01*
X104976519Y-52527389D01*
X104087381Y-52526613D01*
X103265628Y-52866155D01*
X102636364Y-53494321D01*
X102295389Y-54315481D01*
X102294613Y-55204619D01*
X101115042Y-55204619D01*
X101212668Y-54886967D01*
X101607894Y-54081876D01*
X102121739Y-53357180D01*
X102748344Y-52721279D01*
X103489791Y-52178150D01*
X104076567Y-51858855D01*
X104153189Y-51819815D01*
X104167830Y-51808273D01*
X104185488Y-51802291D01*
X104256981Y-51761072D01*
X104267423Y-51751926D01*
X104280387Y-51746970D01*
X104342528Y-51707882D01*
X104346027Y-51704570D01*
X104350505Y-51702790D01*
X104401643Y-51669664D01*
X104436143Y-51648289D01*
X104456888Y-51636903D01*
X104475471Y-51628425D01*
X104505026Y-51617693D01*
X104556495Y-51603164D01*
X104636947Y-51585679D01*
X104750915Y-51566622D01*
X104901454Y-51547175D01*
X105091620Y-51528081D01*
X105324340Y-51509795D01*
X105603050Y-51492545D01*
X105931357Y-51476443D01*
X106312850Y-51461541D01*
X106751689Y-51447832D01*
X107251633Y-51435303D01*
X107817000Y-51423913D01*
X108451989Y-51413620D01*
X109160881Y-51404375D01*
X109947427Y-51396132D01*
X110816519Y-51388832D01*
X111771974Y-51382425D01*
X112818343Y-51376853D01*
X113960469Y-51372061D01*
X113960470Y-51372061D01*
X115201018Y-51367998D01*
X115201019Y-51367998D01*
X116546194Y-51364603D01*
X117999566Y-51361821D01*
X117999568Y-51361820D01*
X119564872Y-51359597D01*
X119564875Y-51359598D01*
X121247582Y-51357876D01*
X121247583Y-51357876D01*
X123051179Y-51356600D01*
X124980287Y-51355715D01*
X127039250Y-51355162D01*
X129232407Y-51354886D01*
X131564072Y-51354831D01*
X134038656Y-51354941D01*
X134038656Y-51354941D01*
G37*
X134038656Y-51354941D02*
X136660481Y-51355160D01*
X139433873Y-51355432D01*
X139433878Y-51355432D01*
X142363177Y-51355700D01*
X142363186Y-51355698D01*
X142363194Y-51355700D01*
X145452747Y-51355908D01*
X145452761Y-51355905D01*
X145452775Y-51355908D01*
X148706931Y-51356000D01*
X148706941Y-51355998D01*
X148706951Y-51356000D01*
X148999993Y-51356000D01*
X152251927Y-51356032D01*
X155338843Y-51356138D01*
X158265059Y-51356332D01*
X161034895Y-51356626D01*
X163652668Y-51357033D01*
X166122700Y-51357568D01*
X168449306Y-51358242D01*
X170636807Y-51359070D01*
X172689518Y-51360065D01*
X174611759Y-51361239D01*
X176407845Y-51362606D01*
X178082092Y-51364180D01*
X178082093Y-51364180D01*
X179638996Y-51365973D01*
X179639000Y-51365972D01*
X181082335Y-51367999D01*
X181082336Y-51367999D01*
X182417210Y-51370271D01*
X182417212Y-51370271D01*
X183646993Y-51372800D01*
X183646996Y-51372801D01*
X184776977Y-51375605D01*
X185810991Y-51378694D01*
X185810993Y-51378694D01*
X186752872Y-51382080D01*
X187607790Y-51385780D01*
X188379162Y-51389800D01*
X189072892Y-51394165D01*
X189690578Y-51398869D01*
X190239390Y-51403944D01*
X190721657Y-51409387D01*
X191142147Y-51415211D01*
X191505123Y-51421425D01*
X191814341Y-51428024D01*
X192074365Y-51435012D01*
X192288684Y-51442354D01*
X192460780Y-51449983D01*
X192593983Y-51457760D01*
X192690662Y-51465350D01*
X192751958Y-51471987D01*
X192765745Y-51474104D01*
X193650031Y-51730848D01*
X194440241Y-52106547D01*
X195146025Y-52596411D01*
X195762393Y-53192921D01*
X196283129Y-53889317D01*
X196700738Y-54679050D01*
X197006628Y-55555376D01*
X197194642Y-56528004D01*
X197223939Y-56818424D01*
X197262381Y-57245207D01*
X197267087Y-57261199D01*
X197266083Y-57277838D01*
X197307626Y-57581214D01*
X197320414Y-57618254D01*
X197322336Y-57657392D01*
X197376965Y-57875500D01*
X197403577Y-57931769D01*
X197417380Y-57992470D01*
X197495424Y-58167259D01*
X197526400Y-58210990D01*
X197545957Y-58260882D01*
X197650635Y-58424220D01*
X197673801Y-58448289D01*
X197688830Y-58478122D01*
X197857200Y-58693722D01*
X197900872Y-58731368D01*
X197934757Y-58778022D01*
X198116872Y-58946417D01*
X198180961Y-58985703D01*
X198236912Y-59035911D01*
X198460647Y-59168507D01*
X198521674Y-59190001D01*
X198576836Y-59223811D01*
X198870067Y-59332016D01*
X198910547Y-59338431D01*
X198947706Y-59355719D01*
X199338309Y-59450939D01*
X199359719Y-59451855D01*
X199379653Y-59459723D01*
X199895503Y-59553365D01*
X199903667Y-59553228D01*
X199911330Y-59556054D01*
X200254766Y-59610408D01*
X201787616Y-59881633D01*
X203209644Y-60211692D01*
X204599928Y-60620287D01*
X206034809Y-61128838D01*
X206265699Y-61218028D01*
X208207194Y-62064357D01*
X210060886Y-63048039D01*
X211832403Y-64167290D01*
X213515762Y-65415269D01*
X215104917Y-66785087D01*
X216593799Y-68269827D01*
X217976325Y-69862523D01*
X219246408Y-71556179D01*
X220397997Y-73343803D01*
X221425027Y-75218350D01*
X222321496Y-77172844D01*
X223081374Y-79200220D01*
X223701663Y-81303594D01*
X223797857Y-81690237D01*
X224234076Y-83843863D01*
X224515171Y-86033560D01*
X224642720Y-88251197D01*
X224616281Y-90477635D01*
X224435612Y-92693781D01*
X224099125Y-94890559D01*
X224002910Y-95373859D01*
X223472805Y-97519695D01*
X222790263Y-99607789D01*
X221958050Y-101638268D01*
X220981460Y-103601236D01*
X219865845Y-105486774D01*
X218616568Y-107285041D01*
X217238510Y-108986855D01*
X215841927Y-110478252D01*
X214260678Y-111938922D01*
X212588002Y-113266400D01*
X210831143Y-114457411D01*
X208997969Y-115508097D01*
X207096373Y-116414576D01*
X205134220Y-117172977D01*
X203119352Y-117779430D01*
X201052704Y-118231569D01*
X200018052Y-118395981D01*
X199509281Y-118472835D01*
X199493610Y-118478489D01*
X199476950Y-118478486D01*
X199099656Y-118553459D01*
X199067217Y-118566888D01*
X199032276Y-118570312D01*
X198754583Y-118654397D01*
X198703234Y-118681810D01*
X198646997Y-118696815D01*
X198434317Y-118801416D01*
X198381738Y-118841672D01*
X198322005Y-118870273D01*
X198139748Y-119006796D01*
X198116593Y-119032589D01*
X198086917Y-119050506D01*
X198022785Y-119109008D01*
X198003327Y-119135421D01*
X197976903Y-119154872D01*
X197765868Y-119386051D01*
X197727839Y-119448989D01*
X197678822Y-119503803D01*
X197529007Y-119757589D01*
X197503351Y-119830836D01*
X197465371Y-119898511D01*
X197362248Y-120214924D01*
X197356014Y-120267197D01*
X197337266Y-120316393D01*
X197266305Y-120735459D01*
X197266976Y-120758891D01*
X197260073Y-120781290D01*
X197224194Y-121129813D01*
X197144788Y-121815898D01*
X197035865Y-122363750D01*
X196881050Y-122862288D01*
X196653956Y-123400036D01*
X196642160Y-123424983D01*
X196172383Y-124233585D01*
X195600558Y-124928613D01*
X194922131Y-125526256D01*
X194146378Y-126017642D01*
X193264692Y-126400930D01*
X193036261Y-126474998D01*
X193031245Y-126476351D01*
X193017174Y-126479268D01*
X192982290Y-126484656D01*
X192921020Y-126491656D01*
X192830200Y-126499383D01*
X192707173Y-126507273D01*
X192548808Y-126515034D01*
X192352022Y-126522504D01*
X192112837Y-126529623D01*
X191827847Y-126536347D01*
X191492892Y-126542673D01*
X191209237Y-126546996D01*
X191382880Y-126343173D01*
X191514040Y-125937790D01*
X191514040Y-125588540D01*
X191315000Y-125588540D01*
X191315000Y-125334540D01*
X191514040Y-125334540D01*
X191514040Y-124985290D01*
X191382880Y-124579907D01*
X191106571Y-124255574D01*
X190843030Y-124126770D01*
X191253000Y-124126770D01*
X191486389Y-124030097D01*
X191665017Y-123851468D01*
X191761690Y-123618079D01*
X191761690Y-123077750D01*
X191602940Y-122919000D01*
X190454860Y-122919000D01*
X190454860Y-123968020D01*
X190613610Y-124126770D01*
X190646485Y-124126770D01*
X190556460Y-124195212D01*
X190556460Y-124227960D01*
X190430000Y-124202805D01*
X190302460Y-124228174D01*
X190302460Y-124195212D01*
X190135525Y-124068299D01*
X190067176Y-124101704D01*
X190200860Y-123968020D01*
X190200860Y-122919000D01*
X190180860Y-122919000D01*
X190180860Y-122665000D01*
X190200860Y-122665000D01*
X190200860Y-122645000D01*
X190454860Y-122645000D01*
X190454860Y-122665000D01*
X191602940Y-122665000D01*
X191761690Y-122506250D01*
X191761690Y-121965921D01*
X191665017Y-121732532D01*
X191486389Y-121553903D01*
X191253000Y-121457230D01*
X190831712Y-121457230D01*
X190980343Y-121395817D01*
X191243592Y-121133027D01*
X191386238Y-120789499D01*
X191386279Y-120742623D01*
X192207401Y-119921501D01*
X192372148Y-119674939D01*
X192430000Y-119384100D01*
X192430000Y-116606648D01*
X192729670Y-116406415D01*
X192940000Y-116091634D01*
X193150330Y-116406415D01*
X193636511Y-116731271D01*
X194210000Y-116845345D01*
X194783489Y-116731271D01*
X195269670Y-116406415D01*
X195594526Y-115920234D01*
X195708600Y-115346745D01*
X195708600Y-114977255D01*
X195594526Y-114403766D01*
X195269670Y-113917585D01*
X194783489Y-113592729D01*
X194210000Y-113478655D01*
X193636511Y-113592729D01*
X193150330Y-113917585D01*
X192940000Y-114232366D01*
X192729670Y-113917585D01*
X192243489Y-113592729D01*
X191670000Y-113478655D01*
X191096511Y-113592729D01*
X190610330Y-113917585D01*
X190595500Y-113939780D01*
X190531927Y-113786302D01*
X190353299Y-113607673D01*
X190119910Y-113511000D01*
X189415750Y-113511000D01*
X189257000Y-113669750D01*
X189257000Y-115035000D01*
X189277000Y-115035000D01*
X189277000Y-115289000D01*
X189257000Y-115289000D01*
X189257000Y-116654250D01*
X189415750Y-116813000D01*
X190119910Y-116813000D01*
X190353299Y-116716327D01*
X190531927Y-116537698D01*
X190595500Y-116384220D01*
X190610330Y-116406415D01*
X190910000Y-116606648D01*
X190910000Y-119069298D01*
X190311720Y-119667578D01*
X190266233Y-119667538D01*
X189922457Y-119809583D01*
X189659208Y-120072373D01*
X189516562Y-120415901D01*
X189516238Y-120787867D01*
X189658283Y-121131643D01*
X189921073Y-121394892D01*
X190200858Y-121511069D01*
X190200858Y-121615978D01*
X190042110Y-121457230D01*
X189402720Y-121457230D01*
X189187900Y-121546211D01*
X189187900Y-117936100D01*
X189130048Y-117645261D01*
X188965301Y-117398699D01*
X188379602Y-116813000D01*
X188844250Y-116813000D01*
X189003000Y-116654250D01*
X189003000Y-115289000D01*
X187790150Y-115289000D01*
X187631400Y-115447750D01*
X187631400Y-116064798D01*
X185586293Y-114019691D01*
X187631400Y-114019691D01*
X187631400Y-114876250D01*
X187790150Y-115035000D01*
X189003000Y-115035000D01*
X189003000Y-113669750D01*
X188844250Y-113511000D01*
X188140090Y-113511000D01*
X187906701Y-113607673D01*
X187728073Y-113786302D01*
X187631400Y-114019691D01*
X185586293Y-114019691D01*
X179496002Y-107929400D01*
X182541117Y-104884285D01*
X192302760Y-104884285D01*
X192513169Y-105393515D01*
X192902436Y-105783461D01*
X193411298Y-105994759D01*
X193962285Y-105995240D01*
X194471515Y-105784831D01*
X194861461Y-105395564D01*
X195072759Y-104886702D01*
X195073240Y-104335715D01*
X194862831Y-103826485D01*
X194473564Y-103436539D01*
X193964702Y-103225241D01*
X193413715Y-103224760D01*
X192904485Y-103435169D01*
X192514539Y-103824436D01*
X192303241Y-104333298D01*
X192302760Y-104884285D01*
X182541117Y-104884285D01*
X188582301Y-98843101D01*
X188747048Y-98596539D01*
X188804900Y-98305700D01*
X188804900Y-97772285D01*
X206526760Y-97772285D01*
X206737169Y-98281515D01*
X207126436Y-98671461D01*
X207635298Y-98882759D01*
X208186285Y-98883240D01*
X208695515Y-98672831D01*
X208899183Y-98469517D01*
X211438088Y-98469517D01*
X211506077Y-98710460D01*
X212025171Y-98895201D01*
X212575448Y-98867230D01*
X212953923Y-98710460D01*
X213021912Y-98469517D01*
X212230000Y-97677605D01*
X211438088Y-98469517D01*
X208899183Y-98469517D01*
X209085461Y-98283564D01*
X209296759Y-97774702D01*
X209297179Y-97293171D01*
X210832799Y-97293171D01*
X210860770Y-97843448D01*
X211017540Y-98221923D01*
X211258483Y-98289912D01*
X212050395Y-97498000D01*
X212409605Y-97498000D01*
X213201517Y-98289912D01*
X213442460Y-98221923D01*
X213627201Y-97702829D01*
X213599230Y-97152552D01*
X213442460Y-96774077D01*
X213201517Y-96706088D01*
X212409605Y-97498000D01*
X212050395Y-97498000D01*
X211258483Y-96706088D01*
X211017540Y-96774077D01*
X210832799Y-97293171D01*
X209297179Y-97293171D01*
X209297240Y-97223715D01*
X209086831Y-96714485D01*
X208899157Y-96526483D01*
X211438088Y-96526483D01*
X212230000Y-97318395D01*
X213021912Y-96526483D01*
X212953923Y-96285540D01*
X212434829Y-96100799D01*
X211884552Y-96128770D01*
X211506077Y-96285540D01*
X211438088Y-96526483D01*
X208899157Y-96526483D01*
X208697564Y-96324539D01*
X208188702Y-96113241D01*
X207637715Y-96112760D01*
X207128485Y-96323169D01*
X206738539Y-96712436D01*
X206527241Y-97221298D01*
X206526760Y-97772285D01*
X188804900Y-97772285D01*
X188804900Y-84678463D01*
X188837092Y-84646327D01*
X188979738Y-84302799D01*
X188980062Y-83930833D01*
X188838017Y-83587057D01*
X188575227Y-83323808D01*
X188231699Y-83181162D01*
X187859733Y-83180838D01*
X187515957Y-83322883D01*
X187252708Y-83585673D01*
X187110062Y-83929201D01*
X187109738Y-84301167D01*
X187251783Y-84644943D01*
X187284900Y-84678118D01*
X187284900Y-97990898D01*
X178122795Y-107153003D01*
X178107027Y-107137208D01*
X178009564Y-107096738D01*
X183228701Y-101877601D01*
X183393448Y-101631039D01*
X183451300Y-101340200D01*
X183451300Y-72965367D01*
X187049838Y-72965367D01*
X187191883Y-73309143D01*
X187454673Y-73572392D01*
X187798201Y-73715038D01*
X188170167Y-73715362D01*
X188513943Y-73573317D01*
X188777192Y-73310527D01*
X188919838Y-72966999D01*
X188919879Y-72920123D01*
X189450967Y-72389035D01*
X189450838Y-72537167D01*
X189592883Y-72880943D01*
X189626000Y-72914118D01*
X189626000Y-93125537D01*
X189593808Y-93157673D01*
X189451162Y-93501201D01*
X189450838Y-93873167D01*
X189592883Y-94216943D01*
X189855673Y-94480192D01*
X190199201Y-94622838D01*
X190571167Y-94623162D01*
X190914943Y-94481117D01*
X191178192Y-94218327D01*
X191320838Y-93874799D01*
X191321162Y-93502833D01*
X191179117Y-93159057D01*
X191146000Y-93125882D01*
X191146000Y-77038661D01*
X205532758Y-77038661D01*
X205744990Y-77552303D01*
X206137630Y-77945629D01*
X206650900Y-78158757D01*
X207206661Y-78159242D01*
X207720303Y-77947010D01*
X207925457Y-77742213D01*
X213729392Y-77742213D01*
X213798857Y-77984397D01*
X214322302Y-78171144D01*
X214877368Y-78143362D01*
X215261143Y-77984397D01*
X215330608Y-77742213D01*
X214530000Y-76941605D01*
X213729392Y-77742213D01*
X207925457Y-77742213D01*
X208113629Y-77554370D01*
X208326757Y-77041100D01*
X208327181Y-76554302D01*
X213120856Y-76554302D01*
X213148638Y-77109368D01*
X213307603Y-77493143D01*
X213549787Y-77562608D01*
X214350395Y-76762000D01*
X214709605Y-76762000D01*
X215510213Y-77562608D01*
X215752397Y-77493143D01*
X215939144Y-76969698D01*
X215911362Y-76414632D01*
X215752397Y-76030857D01*
X215510213Y-75961392D01*
X214709605Y-76762000D01*
X214350395Y-76762000D01*
X213549787Y-75961392D01*
X213307603Y-76030857D01*
X213120856Y-76554302D01*
X208327181Y-76554302D01*
X208327242Y-76485339D01*
X208115010Y-75971697D01*
X207925432Y-75781787D01*
X213729392Y-75781787D01*
X214530000Y-76582395D01*
X215330608Y-75781787D01*
X215261143Y-75539603D01*
X214737698Y-75352856D01*
X214182632Y-75380638D01*
X213798857Y-75539603D01*
X213729392Y-75781787D01*
X207925432Y-75781787D01*
X207722370Y-75578371D01*
X207209100Y-75365243D01*
X206653339Y-75364758D01*
X206139697Y-75576990D01*
X205746371Y-75969630D01*
X205533243Y-76482900D01*
X205532758Y-77038661D01*
X191146000Y-77038661D01*
X191146000Y-72914463D01*
X191178192Y-72882327D01*
X191320838Y-72538799D01*
X191321162Y-72166833D01*
X191179117Y-71823057D01*
X190916327Y-71559808D01*
X190572799Y-71417162D01*
X190422971Y-71417031D01*
X190657001Y-71183001D01*
X190821748Y-70936440D01*
X190879600Y-70645600D01*
X190879600Y-59876963D01*
X190911792Y-59844827D01*
X191054438Y-59501299D01*
X191054762Y-59129333D01*
X190912717Y-58785557D01*
X190649927Y-58522308D01*
X190306399Y-58379662D01*
X189934433Y-58379338D01*
X189590657Y-58521383D01*
X189327408Y-58784173D01*
X189184762Y-59127701D01*
X189184438Y-59499667D01*
X189326483Y-59843443D01*
X189359600Y-59876618D01*
X189359600Y-70330798D01*
X187845320Y-71845078D01*
X187799833Y-71845038D01*
X187456057Y-71987083D01*
X187192808Y-72249873D01*
X187050162Y-72593401D01*
X187049838Y-72965367D01*
X183451300Y-72965367D01*
X183451300Y-65165900D01*
X183413092Y-64973817D01*
X183393448Y-64875060D01*
X183228701Y-64628499D01*
X178704821Y-60104619D01*
X179594613Y-60104619D01*
X179934155Y-60926372D01*
X180562321Y-61555636D01*
X181383481Y-61896611D01*
X182272619Y-61897387D01*
X183094372Y-61557845D01*
X183723636Y-60929679D01*
X184064611Y-60108519D01*
X184065387Y-59219381D01*
X183725845Y-58397628D01*
X183097679Y-57768364D01*
X182276519Y-57427389D01*
X181387381Y-57426613D01*
X180565628Y-57766155D01*
X179936364Y-58394321D01*
X179595389Y-59215481D01*
X179594613Y-60104619D01*
X178704821Y-60104619D01*
X176930122Y-58329920D01*
X176930162Y-58284433D01*
X176788117Y-57940657D01*
X176525327Y-57677408D01*
X176181799Y-57534762D01*
X175809833Y-57534438D01*
X175466057Y-57676483D01*
X175202808Y-57939273D01*
X175060162Y-58282801D01*
X175059838Y-58654767D01*
X175201883Y-58998543D01*
X175464673Y-59261792D01*
X175808201Y-59404438D01*
X175855077Y-59404479D01*
X181931300Y-65480702D01*
X181931300Y-87083461D01*
X179681129Y-84713687D01*
X179673913Y-84708591D01*
X179669028Y-84701231D01*
X179553069Y-84623240D01*
X179438913Y-84542614D01*
X179430296Y-84540667D01*
X179422966Y-84535737D01*
X179285970Y-84508054D01*
X179149669Y-84477255D01*
X179140965Y-84478753D01*
X179132304Y-84477003D01*
X165999328Y-84437184D01*
X166139838Y-84098799D01*
X166140162Y-83726833D01*
X165998117Y-83383057D01*
X165735327Y-83119808D01*
X165391799Y-82977162D01*
X165019833Y-82976838D01*
X164967508Y-82998458D01*
X161237257Y-81506358D01*
X161095971Y-81480041D01*
X160955000Y-81452000D01*
X160892463Y-81452000D01*
X160860327Y-81419808D01*
X160516799Y-81277162D01*
X160244370Y-81276925D01*
X171007549Y-71688168D01*
X171020933Y-71670441D01*
X171039401Y-71658101D01*
X171109838Y-71552685D01*
X171186226Y-71451507D01*
X171187523Y-71446510D01*
X171294192Y-71340027D01*
X171436838Y-70996499D01*
X171437162Y-70624533D01*
X171295117Y-70280757D01*
X171032327Y-70017508D01*
X170688799Y-69874862D01*
X170316833Y-69874538D01*
X169973057Y-70016583D01*
X169709808Y-70279373D01*
X169567162Y-70622901D01*
X169566889Y-70935922D01*
X167422704Y-72846145D01*
X167804840Y-72481275D01*
X167809973Y-72473964D01*
X167817401Y-72469001D01*
X167894990Y-72352881D01*
X167975240Y-72238586D01*
X167977185Y-72229867D01*
X167982148Y-72222439D01*
X168009394Y-72085464D01*
X168039797Y-71949161D01*
X168038257Y-71940362D01*
X168040000Y-71931600D01*
X168040000Y-69709763D01*
X168072192Y-69677627D01*
X168214838Y-69334099D01*
X168215162Y-68962133D01*
X168073117Y-68618357D01*
X167810327Y-68355108D01*
X167466799Y-68212462D01*
X167094833Y-68212138D01*
X166751057Y-68354183D01*
X166487808Y-68616973D01*
X166345162Y-68960501D01*
X166344838Y-69332467D01*
X166486883Y-69676243D01*
X166520000Y-69709418D01*
X166520000Y-71606459D01*
X155658829Y-81976894D01*
X155594833Y-81976838D01*
X155493185Y-82018838D01*
X155509014Y-77820688D01*
X166083480Y-67246222D01*
X166128967Y-67246262D01*
X166472743Y-67104217D01*
X166735992Y-66841427D01*
X166878638Y-66497899D01*
X166878962Y-66125933D01*
X166736917Y-65782157D01*
X166474127Y-65518908D01*
X166130599Y-65376262D01*
X165758633Y-65375938D01*
X165414857Y-65517983D01*
X165151608Y-65780773D01*
X165008962Y-66124301D01*
X165008921Y-66171177D01*
X154890141Y-76289957D01*
X154913097Y-69501232D01*
X155022192Y-69392327D01*
X155164838Y-69048799D01*
X155165162Y-68676833D01*
X155023117Y-68333057D01*
X154760327Y-68069808D01*
X154416799Y-67927162D01*
X154090000Y-67926877D01*
X154090000Y-66962000D01*
X154083837Y-66931019D01*
X154087437Y-66899638D01*
X154055098Y-66786537D01*
X154032148Y-66671161D01*
X154014599Y-66644896D01*
X154005915Y-66614527D01*
X153932756Y-66522410D01*
X153867401Y-66424599D01*
X153841138Y-66407051D01*
X153821493Y-66382315D01*
X153370093Y-65999591D01*
X153239717Y-65684057D01*
X152976927Y-65420808D01*
X152633399Y-65278162D01*
X152261433Y-65277838D01*
X151917657Y-65419883D01*
X151654408Y-65682673D01*
X151511762Y-66026201D01*
X151511438Y-66398167D01*
X151653483Y-66741943D01*
X151916273Y-67005192D01*
X152259801Y-67147838D01*
X152374106Y-67147938D01*
X152570000Y-67314028D01*
X152570000Y-80601097D01*
X152331827Y-80362508D01*
X151988299Y-80219862D01*
X151616333Y-80219538D01*
X151272557Y-80361583D01*
X151009308Y-80624373D01*
X150899768Y-80888174D01*
X147847313Y-83227000D01*
X146788509Y-83227000D01*
X146789838Y-83223799D01*
X146789896Y-83157719D01*
X150272423Y-80195396D01*
X150291649Y-80171108D01*
X150317401Y-80153901D01*
X150383086Y-80055596D01*
X150456472Y-79962888D01*
X150464939Y-79933094D01*
X150482148Y-79907339D01*
X150505215Y-79791376D01*
X150537536Y-79677646D01*
X150533957Y-79646880D01*
X150540000Y-79616500D01*
X150540000Y-73196547D01*
X150563515Y-73186831D01*
X150953461Y-72797564D01*
X151164759Y-72288702D01*
X151165240Y-71737715D01*
X150954831Y-71228485D01*
X150565564Y-70838539D01*
X150056702Y-70627241D01*
X149505715Y-70626760D01*
X148996485Y-70837169D01*
X148606539Y-71226436D01*
X148395241Y-71735298D01*
X148394760Y-72286285D01*
X148605169Y-72795515D01*
X148994436Y-73185461D01*
X149020000Y-73196076D01*
X149020000Y-79265213D01*
X145685229Y-82101851D01*
X145669833Y-82101838D01*
X145326057Y-82243883D01*
X145062808Y-82506673D01*
X144933075Y-82819104D01*
X141524598Y-86468224D01*
X141451807Y-86585637D01*
X141375858Y-86701022D01*
X141373881Y-86711334D01*
X141368349Y-86720257D01*
X141346036Y-86856559D01*
X141320018Y-86992253D01*
X141332921Y-88858777D01*
X141107399Y-89084299D01*
X140942652Y-89330861D01*
X140884800Y-89621700D01*
X140884800Y-90802000D01*
X139951771Y-90802000D01*
X139997248Y-90733939D01*
X140055100Y-90443100D01*
X140055100Y-87311402D01*
X144114280Y-83252222D01*
X144159767Y-83252262D01*
X144503543Y-83110217D01*
X144766792Y-82847427D01*
X144909438Y-82503899D01*
X144909762Y-82131933D01*
X144767717Y-81788157D01*
X144504927Y-81524908D01*
X144161399Y-81382262D01*
X143789433Y-81381938D01*
X143445657Y-81523983D01*
X143182408Y-81786773D01*
X143039762Y-82130301D01*
X143039721Y-82177177D01*
X138757699Y-86459199D01*
X138592952Y-86705761D01*
X138535100Y-86996600D01*
X138535100Y-89479943D01*
X138244346Y-89479690D01*
X138244462Y-89346233D01*
X138102417Y-89002457D01*
X137839627Y-88739208D01*
X137496099Y-88596562D01*
X137449223Y-88596521D01*
X130546701Y-81693999D01*
X130300139Y-81529252D01*
X130009300Y-81471400D01*
X123672402Y-81471400D01*
X123634987Y-81433985D01*
X123776592Y-81292627D01*
X123919238Y-80949099D01*
X123919562Y-80577133D01*
X123777517Y-80233357D01*
X123744400Y-80200182D01*
X123744400Y-72895379D01*
X123901801Y-72960738D01*
X124273767Y-72961062D01*
X124617543Y-72819017D01*
X124880792Y-72556227D01*
X125023438Y-72212699D01*
X125023479Y-72165823D01*
X130134303Y-67055000D01*
X140636637Y-67055000D01*
X140668773Y-67087192D01*
X141012301Y-67229838D01*
X141384267Y-67230162D01*
X141728043Y-67088117D01*
X141991292Y-66825327D01*
X142133938Y-66481799D01*
X142134262Y-66109833D01*
X141992217Y-65766057D01*
X141729427Y-65502808D01*
X141385899Y-65360162D01*
X141013933Y-65359838D01*
X140670157Y-65501883D01*
X140636982Y-65535000D01*
X129819500Y-65535000D01*
X129528661Y-65592852D01*
X129282099Y-65757598D01*
X123948920Y-71090778D01*
X123903433Y-71090738D01*
X123744400Y-71156449D01*
X123744400Y-57065067D01*
X169911938Y-57065067D01*
X170053983Y-57408843D01*
X170316773Y-57672092D01*
X170660301Y-57814738D01*
X170707177Y-57814779D01*
X174808800Y-61916402D01*
X174808800Y-78311537D01*
X174776608Y-78343673D01*
X174633962Y-78687201D01*
X174633638Y-79059167D01*
X174775683Y-79402943D01*
X175038473Y-79666192D01*
X175382001Y-79808838D01*
X175753967Y-79809162D01*
X176097743Y-79667117D01*
X176360992Y-79404327D01*
X176503638Y-79060799D01*
X176503962Y-78688833D01*
X176361917Y-78345057D01*
X176328800Y-78311882D01*
X176328800Y-61601600D01*
X176296150Y-61437459D01*
X176270948Y-61310760D01*
X176106201Y-61064199D01*
X171782222Y-56740220D01*
X171782262Y-56694733D01*
X171640217Y-56350957D01*
X171377427Y-56087708D01*
X171033899Y-55945062D01*
X170661933Y-55944738D01*
X170318157Y-56086783D01*
X170054908Y-56349573D01*
X169912262Y-56693101D01*
X169911938Y-57065067D01*
X123744400Y-57065067D01*
X123744400Y-55204619D01*
X191294613Y-55204619D01*
X191634155Y-56026372D01*
X192262321Y-56655636D01*
X193083481Y-56996611D01*
X193972619Y-56997387D01*
X194794372Y-56657845D01*
X195423636Y-56029679D01*
X195764611Y-55208519D01*
X195765387Y-54319381D01*
X195425845Y-53497628D01*
X194797679Y-52868364D01*
X193976519Y-52527389D01*
X193087381Y-52526613D01*
X192265628Y-52866155D01*
X191636364Y-53494321D01*
X191295389Y-54315481D01*
X191294613Y-55204619D01*
X123744400Y-55204619D01*
X123744400Y-54192400D01*
X123723226Y-54085954D01*
X123686548Y-53901560D01*
X123521801Y-53654999D01*
X123316622Y-53449820D01*
X123316662Y-53404333D01*
X123174617Y-53060557D01*
X122911827Y-52797308D01*
X122568299Y-52654662D01*
X122196333Y-52654338D01*
X121852557Y-52796383D01*
X121589308Y-53059173D01*
X121446662Y-53402701D01*
X121446338Y-53774667D01*
X121588383Y-54118443D01*
X121851173Y-54381692D01*
X122194701Y-54524338D01*
X122224400Y-54524364D01*
X122224400Y-64358201D01*
X122005000Y-64314560D01*
X119133600Y-64314560D01*
X119133600Y-56574463D01*
X119165792Y-56542327D01*
X119308438Y-56198799D01*
X119308762Y-55826833D01*
X119166717Y-55483057D01*
X118903927Y-55219808D01*
X118560399Y-55077162D01*
X118188433Y-55076838D01*
X117844657Y-55218883D01*
X117581408Y-55481673D01*
X117438762Y-55825201D01*
X117438438Y-56197167D01*
X117580483Y-56540943D01*
X117613600Y-56574118D01*
X117613600Y-64228598D01*
X116292899Y-65549299D01*
X116128152Y-65795861D01*
X116070300Y-66086700D01*
X116070300Y-67014560D01*
X113005000Y-67014560D01*
X112757235Y-67063843D01*
X112547191Y-67204191D01*
X112406843Y-67414235D01*
X112357560Y-67662000D01*
X112357560Y-68662000D01*
X112406843Y-68909765D01*
X112547191Y-69119809D01*
X112608320Y-69160654D01*
X112466673Y-69302302D01*
X112370000Y-69535691D01*
X112370000Y-69876250D01*
X112528750Y-70035000D01*
X114628000Y-70035000D01*
X114628000Y-70015000D01*
X114882000Y-70015000D01*
X114882000Y-70035000D01*
X114902000Y-70035000D01*
X114902000Y-70289000D01*
X114882000Y-70289000D01*
X114882000Y-71138250D01*
X115040750Y-71297000D01*
X116070300Y-71297000D01*
X116070300Y-86344998D01*
X113164900Y-83439598D01*
X113164900Y-83252463D01*
X113197092Y-83220327D01*
X113339738Y-82876799D01*
X113340062Y-82504833D01*
X113198017Y-82161057D01*
X112935227Y-81897808D01*
X112591699Y-81755162D01*
X112264300Y-81754877D01*
X112264300Y-71599600D01*
X112243608Y-71495573D01*
X112206448Y-71308760D01*
X112041701Y-71062199D01*
X111427252Y-70447750D01*
X112370000Y-70447750D01*
X112370000Y-70788309D01*
X112466673Y-71021698D01*
X112645301Y-71200327D01*
X112878690Y-71297000D01*
X114469250Y-71297000D01*
X114628000Y-71138250D01*
X114628000Y-70289000D01*
X112528750Y-70289000D01*
X112370000Y-70447750D01*
X111427252Y-70447750D01*
X108099350Y-67119848D01*
X108324526Y-66782848D01*
X108438600Y-66209359D01*
X108438600Y-66150641D01*
X108324526Y-65577152D01*
X107999670Y-65090971D01*
X107728839Y-64910008D01*
X108146821Y-64528490D01*
X108394968Y-63999027D01*
X108274469Y-63767000D01*
X107067000Y-63767000D01*
X107067000Y-63787000D01*
X106813000Y-63787000D01*
X106813000Y-63767000D01*
X106793000Y-63767000D01*
X106793000Y-63513000D01*
X106813000Y-63513000D01*
X106813000Y-62306183D01*
X107067000Y-62306183D01*
X107067000Y-63513000D01*
X108274469Y-63513000D01*
X108394968Y-63280973D01*
X108146821Y-62751510D01*
X107714947Y-62357312D01*
X107299026Y-62185042D01*
X107067000Y-62306183D01*
X106813000Y-62306183D01*
X106580974Y-62185042D01*
X106165053Y-62357312D01*
X105733179Y-62751510D01*
X105675664Y-62874228D01*
X105459670Y-62550971D01*
X104973489Y-62226115D01*
X104400000Y-62112041D01*
X103826511Y-62226115D01*
X103340330Y-62550971D01*
X103015474Y-63037152D01*
X102901400Y-63610641D01*
X102901400Y-63669359D01*
X103015474Y-64242848D01*
X103340330Y-64729029D01*
X103611172Y-64910000D01*
X103340330Y-65090971D01*
X103015474Y-65577152D01*
X102901400Y-66150641D01*
X102901400Y-66209359D01*
X103015474Y-66782848D01*
X103340330Y-67269029D01*
X103611172Y-67450000D01*
X103340330Y-67630971D01*
X103015474Y-68117152D01*
X102901400Y-68690641D01*
X102901400Y-68749359D01*
X103015474Y-69322848D01*
X103220943Y-69630355D01*
X102612399Y-70238899D01*
X102447652Y-70485461D01*
X102389800Y-70776300D01*
X102389800Y-76812400D01*
X102447652Y-77103239D01*
X102612399Y-77349801D01*
X103225470Y-77962872D01*
X103015474Y-78277152D01*
X102901400Y-78850641D01*
X102901400Y-78909359D01*
X103015474Y-79482848D01*
X103225470Y-79797128D01*
X102635599Y-80386999D01*
X102470852Y-80633561D01*
X102413000Y-80924400D01*
X102413000Y-81895500D01*
X102470852Y-82186339D01*
X102635599Y-82432901D01*
X103233521Y-83030823D01*
X103015474Y-83357152D01*
X102901400Y-83930641D01*
X102901400Y-83989359D01*
X103015474Y-84562848D01*
X103340330Y-85049029D01*
X103611172Y-85230000D01*
X103340330Y-85410971D01*
X103015474Y-85897152D01*
X102901400Y-86470641D01*
X102901400Y-86529359D01*
X103015474Y-87102848D01*
X103340330Y-87589029D01*
X103611172Y-87770000D01*
X103340330Y-87950971D01*
X103015474Y-88437152D01*
X102901400Y-89010641D01*
X102901400Y-89069359D01*
X103015474Y-89642848D01*
X103340330Y-90129029D01*
X103611172Y-90310000D01*
X103340330Y-90490971D01*
X103015474Y-90977152D01*
X102901400Y-91550641D01*
X102901400Y-91609359D01*
X103015474Y-92182848D01*
X103340330Y-92669029D01*
X103611172Y-92850000D01*
X103340330Y-93030971D01*
X103015474Y-93517152D01*
X102901400Y-94090641D01*
X102901400Y-94149359D01*
X103015474Y-94722848D01*
X103340330Y-95209029D01*
X103611172Y-95390000D01*
X103340330Y-95570971D01*
X103015474Y-96057152D01*
X102901400Y-96630641D01*
X102901400Y-96689359D01*
X103015474Y-97262848D01*
X103340330Y-97749029D01*
X103611172Y-97930000D01*
X103340330Y-98110971D01*
X103015474Y-98597152D01*
X102901400Y-99170641D01*
X102901400Y-99229359D01*
X103015474Y-99802848D01*
X103340330Y-100289029D01*
X103611172Y-100470000D01*
X103340330Y-100650971D01*
X103015474Y-101137152D01*
X102901400Y-101710641D01*
X102901400Y-101769359D01*
X103015474Y-102342848D01*
X103340330Y-102829029D01*
X103611172Y-103010000D01*
X103340330Y-103190971D01*
X103015474Y-103677152D01*
X102901400Y-104250641D01*
X102901400Y-104309359D01*
X103015474Y-104882848D01*
X103340330Y-105369029D01*
X103611172Y-105550000D01*
X103340330Y-105730971D01*
X103015474Y-106217152D01*
X102901400Y-106790641D01*
X102901400Y-106849359D01*
X103015474Y-107422848D01*
X103340330Y-107909029D01*
X103611172Y-108090000D01*
X103340330Y-108270971D01*
X103015474Y-108757152D01*
X102901400Y-109330641D01*
X102901400Y-109389359D01*
X103015474Y-109962848D01*
X103330526Y-110434356D01*
X103176701Y-110498073D01*
X102998073Y-110676702D01*
X102901400Y-110910091D01*
X102901400Y-111614250D01*
X103060150Y-111773000D01*
X104273000Y-111773000D01*
X104273000Y-111753000D01*
X104527000Y-111753000D01*
X104527000Y-111773000D01*
X104547000Y-111773000D01*
X104547000Y-112027000D01*
X104527000Y-112027000D01*
X104527000Y-113239850D01*
X104685750Y-113398600D01*
X105389910Y-113398600D01*
X105623299Y-113301927D01*
X105801927Y-113123298D01*
X105866263Y-112967977D01*
X105880330Y-112989029D01*
X106180000Y-113189262D01*
X106180000Y-120599082D01*
X105992599Y-120724299D01*
X105827852Y-120970861D01*
X105807727Y-121072038D01*
X105780000Y-121090564D01*
X105627765Y-120988843D01*
X105380000Y-120939560D01*
X104680000Y-120939560D01*
X104432235Y-120988843D01*
X104222191Y-121129191D01*
X104081843Y-121339235D01*
X104032560Y-121587000D01*
X104032560Y-121939560D01*
X103130000Y-121939560D01*
X102882235Y-121988843D01*
X102672191Y-122129191D01*
X102531843Y-122339235D01*
X102482560Y-122587000D01*
X102482560Y-123387000D01*
X102531843Y-123634765D01*
X102672191Y-123844809D01*
X102882235Y-123985157D01*
X103130000Y-124034440D01*
X104130000Y-124034440D01*
X104377765Y-123985157D01*
X104587809Y-123844809D01*
X104663720Y-123731202D01*
X104680000Y-123734440D01*
X104751575Y-123734440D01*
X104695189Y-123870233D01*
X104694812Y-124301873D01*
X104859646Y-124700800D01*
X105164595Y-125006282D01*
X105563233Y-125171811D01*
X105994873Y-125172188D01*
X106393800Y-125007354D01*
X106699282Y-124702405D01*
X106864811Y-124303767D01*
X106865188Y-123872127D01*
X106808297Y-123734440D01*
X106880000Y-123734440D01*
X107127765Y-123685157D01*
X107161200Y-123662816D01*
X107161200Y-124335100D01*
X107219052Y-124625939D01*
X107383799Y-124872501D01*
X108995499Y-126484201D01*
X109136654Y-126578517D01*
X109046366Y-126578182D01*
X109046365Y-126578182D01*
X108054129Y-126573695D01*
X107214292Y-126568962D01*
X106530988Y-126563998D01*
X106007034Y-126558812D01*
X105648414Y-126553462D01*
X105496350Y-126549156D01*
X104670279Y-126357571D01*
X104295555Y-126201509D01*
X104377765Y-126185157D01*
X104587809Y-126044809D01*
X104728157Y-125834765D01*
X104777440Y-125587000D01*
X104777440Y-124787000D01*
X104728157Y-124539235D01*
X104587809Y-124329191D01*
X104377765Y-124188843D01*
X104130000Y-124139560D01*
X103130000Y-124139560D01*
X102882235Y-124188843D01*
X102672191Y-124329191D01*
X102531843Y-124539235D01*
X102482560Y-124787000D01*
X102482560Y-125000680D01*
X101905076Y-124325593D01*
X101416104Y-123538156D01*
X101287337Y-123273573D01*
X101129612Y-122858614D01*
X100982724Y-122345025D01*
X100864262Y-121800124D01*
X100791368Y-121302126D01*
X100772565Y-120980954D01*
X100765728Y-120954708D01*
X100767420Y-120927638D01*
X100693688Y-120380425D01*
X100663102Y-120291213D01*
X100644041Y-120198843D01*
X100437505Y-119710139D01*
X100381953Y-119628274D01*
X100336036Y-119540642D01*
X100014458Y-119142156D01*
X99938985Y-119079171D01*
X99871267Y-119007919D01*
X99537691Y-118772548D01*
X99442741Y-118730360D01*
X99352446Y-118678964D01*
X99185451Y-118623418D01*
X99150978Y-118619095D01*
X99119263Y-118604908D01*
X98826360Y-118538094D01*
X98811241Y-118537672D01*
X98797187Y-118532080D01*
X98420625Y-118462655D01*
X98409507Y-118462811D01*
X98399055Y-118459021D01*
X98016305Y-118400583D01*
X95936597Y-118031502D01*
X93918200Y-117509565D01*
X91949558Y-116836345D01*
X90038192Y-116016812D01*
X88191551Y-115055898D01*
X86417259Y-113958632D01*
X84722837Y-112729990D01*
X84077384Y-112185750D01*
X102901400Y-112185750D01*
X102901400Y-112889909D01*
X102998073Y-113123298D01*
X103176701Y-113301927D01*
X103410090Y-113398600D01*
X104114250Y-113398600D01*
X104273000Y-113239850D01*
X104273000Y-112027000D01*
X103060150Y-112027000D01*
X102901400Y-112185750D01*
X84077384Y-112185750D01*
X83115863Y-111375005D01*
X81603914Y-109898719D01*
X80194563Y-108306197D01*
X78895316Y-106602437D01*
X77707038Y-104782252D01*
X77646915Y-104681815D01*
X76579764Y-102736288D01*
X75670095Y-100749480D01*
X74909205Y-98702668D01*
X74294172Y-96586969D01*
X73822386Y-94393359D01*
X73494188Y-92136338D01*
X73457092Y-91696415D01*
X73427377Y-91108261D01*
X73406294Y-90414282D01*
X73394214Y-89653657D01*
X73393857Y-89558619D01*
X74104613Y-89558619D01*
X74444155Y-90380372D01*
X75072321Y-91009636D01*
X75893481Y-91350611D01*
X76782619Y-91351387D01*
X77604372Y-91011845D01*
X78233636Y-90383679D01*
X78574611Y-89562519D01*
X78575387Y-88673381D01*
X78235845Y-87851628D01*
X77607679Y-87222364D01*
X76786519Y-86881389D01*
X75897381Y-86880613D01*
X75075628Y-87220155D01*
X74446364Y-87848321D01*
X74105389Y-88669481D01*
X74104613Y-89558619D01*
X73393857Y-89558619D01*
X73391322Y-88885643D01*
X73391320Y-88885631D01*
X73391322Y-88885619D01*
X73391236Y-88862861D01*
X73397378Y-88078503D01*
X73412604Y-87336577D01*
X73436745Y-86674715D01*
X73469426Y-86129781D01*
X73493868Y-85866435D01*
X73823339Y-83592804D01*
X74288074Y-81416576D01*
X74891840Y-79323139D01*
X75638246Y-77301213D01*
X76531277Y-75339523D01*
X77339434Y-73859000D01*
X99780000Y-73859000D01*
X99828601Y-73849333D01*
X99869803Y-73821803D01*
X99897333Y-73780601D01*
X99907000Y-73732000D01*
X99907000Y-60204619D01*
X113094613Y-60204619D01*
X113434155Y-61026372D01*
X114062321Y-61655636D01*
X114883481Y-61996611D01*
X115772619Y-61997387D01*
X116594372Y-61657845D01*
X117223636Y-61029679D01*
X117564611Y-60208519D01*
X117565387Y-59319381D01*
X117225845Y-58497628D01*
X116597679Y-57868364D01*
X115776519Y-57527389D01*
X114887381Y-57526613D01*
X114065628Y-57866155D01*
X113436364Y-58494321D01*
X113095389Y-59315481D01*
X113094613Y-60204619D01*
X99907000Y-60204619D01*
X99907000Y-58929155D01*
X100105882Y-58752142D01*
X100134087Y-58714821D01*
X100170998Y-58686075D01*
X100200895Y-58651486D01*
X100218225Y-58620965D01*
X100243677Y-58596798D01*
X100407816Y-58364401D01*
X100437409Y-58297880D01*
X100478920Y-58238075D01*
X100595436Y-57970291D01*
X100609137Y-57907266D01*
X100635780Y-57848529D01*
X100715749Y-57506208D01*
X100717062Y-57466614D01*
X100729347Y-57428950D01*
X100783846Y-56972946D01*
X100782661Y-56957668D01*
X100786789Y-56942914D01*
X100802691Y-56735310D01*
X100943002Y-55764398D01*
X101115042Y-55204619D01*
X102294613Y-55204619D01*
X102634155Y-56026372D01*
X103262321Y-56655636D01*
X104083481Y-56996611D01*
X104972619Y-56997387D01*
X105794372Y-56657845D01*
X106423636Y-56029679D01*
X106764611Y-55208519D01*
X106765387Y-54319381D01*
X106425845Y-53497628D01*
X105797679Y-52868364D01*
X104976519Y-52527389D01*
X104087381Y-52526613D01*
X103265628Y-52866155D01*
X102636364Y-53494321D01*
X102295389Y-54315481D01*
X102294613Y-55204619D01*
X101115042Y-55204619D01*
X101212668Y-54886967D01*
X101607894Y-54081876D01*
X102121739Y-53357180D01*
X102748344Y-52721279D01*
X103489791Y-52178150D01*
X104076567Y-51858855D01*
X104153189Y-51819815D01*
X104167830Y-51808273D01*
X104185488Y-51802291D01*
X104256981Y-51761072D01*
X104267423Y-51751926D01*
X104280387Y-51746970D01*
X104342528Y-51707882D01*
X104346027Y-51704570D01*
X104350505Y-51702790D01*
X104401643Y-51669664D01*
X104436143Y-51648289D01*
X104456888Y-51636903D01*
X104475471Y-51628425D01*
X104505026Y-51617693D01*
X104556495Y-51603164D01*
X104636947Y-51585679D01*
X104750915Y-51566622D01*
X104901454Y-51547175D01*
X105091620Y-51528081D01*
X105324340Y-51509795D01*
X105603050Y-51492545D01*
X105931357Y-51476443D01*
X106312850Y-51461541D01*
X106751689Y-51447832D01*
X107251633Y-51435303D01*
X107817000Y-51423913D01*
X108451989Y-51413620D01*
X109160881Y-51404375D01*
X109947427Y-51396132D01*
X110816519Y-51388832D01*
X111771974Y-51382425D01*
X112818343Y-51376853D01*
X113960469Y-51372061D01*
X113960470Y-51372061D01*
X115201018Y-51367998D01*
X115201019Y-51367998D01*
X116546194Y-51364603D01*
X117999566Y-51361821D01*
X117999568Y-51361820D01*
X119564872Y-51359597D01*
X119564875Y-51359598D01*
X121247582Y-51357876D01*
X121247583Y-51357876D01*
X123051179Y-51356600D01*
X124980287Y-51355715D01*
X127039250Y-51355162D01*
X129232407Y-51354886D01*
X131564072Y-51354831D01*
X134038656Y-51354941D01*
G36*
X186058120Y-125339620D02*
X188201880Y-125339620D01*
X188201880Y-125319620D01*
X188455880Y-125319620D01*
X188455880Y-125339620D01*
X188475880Y-125339620D01*
X188475880Y-125593620D01*
X188455880Y-125593620D01*
X188455880Y-125613620D01*
X188201880Y-125613620D01*
X188201880Y-125593620D01*
X186058120Y-125593620D01*
X186058120Y-125613620D01*
X185804120Y-125613620D01*
X185804120Y-125593620D01*
X185784120Y-125593620D01*
X185784120Y-125339620D01*
X185804120Y-125339620D01*
X185804120Y-125319620D01*
X186058120Y-125319620D01*
X186058120Y-125339620D01*
X186058120Y-125339620D01*
G37*
X186058120Y-125339620D02*
X188201880Y-125339620D01*
X188201880Y-125319620D01*
X188455880Y-125319620D01*
X188455880Y-125339620D01*
X188475880Y-125339620D01*
X188475880Y-125593620D01*
X188455880Y-125593620D01*
X188455880Y-125613620D01*
X188201880Y-125613620D01*
X188201880Y-125593620D01*
X186058120Y-125593620D01*
X186058120Y-125613620D01*
X185804120Y-125613620D01*
X185804120Y-125593620D01*
X185784120Y-125593620D01*
X185784120Y-125339620D01*
X185804120Y-125339620D01*
X185804120Y-125319620D01*
X186058120Y-125319620D01*
X186058120Y-125339620D01*
G36*
X112718384Y-86544286D02*
X112667008Y-86595573D01*
X112524362Y-86939101D01*
X112524038Y-87311067D01*
X112666083Y-87654843D01*
X112928873Y-87918092D01*
X113272401Y-88060738D01*
X113319277Y-88060779D01*
X127064700Y-101806202D01*
X127064700Y-106114937D01*
X127032508Y-106147073D01*
X126889862Y-106490601D01*
X126889538Y-106862567D01*
X127031583Y-107206343D01*
X127193657Y-107368700D01*
X127145241Y-107485298D01*
X127144760Y-108036285D01*
X127355169Y-108545515D01*
X127744436Y-108935461D01*
X127807875Y-108961803D01*
X127746485Y-108987169D01*
X127356539Y-109376436D01*
X127145241Y-109885298D01*
X127144760Y-110436285D01*
X127355169Y-110945515D01*
X127744436Y-111335461D01*
X127770000Y-111346076D01*
X127770000Y-117439698D01*
X122597500Y-122612198D01*
X122597500Y-111547234D01*
X122604285Y-111547240D01*
X123113515Y-111336831D01*
X123317183Y-111133517D01*
X124738088Y-111133517D01*
X124806077Y-111374460D01*
X125325171Y-111559201D01*
X125875448Y-111531230D01*
X126253923Y-111374460D01*
X126321912Y-111133517D01*
X125530000Y-110341605D01*
X124738088Y-111133517D01*
X123317183Y-111133517D01*
X123503461Y-110947564D01*
X123714759Y-110438702D01*
X123715240Y-109887715D01*
X123597681Y-109603200D01*
X124258774Y-109603200D01*
X124132799Y-109957171D01*
X124160770Y-110507448D01*
X124317540Y-110885923D01*
X124558483Y-110953912D01*
X125350395Y-110162000D01*
X125709605Y-110162000D01*
X126501517Y-110953912D01*
X126742460Y-110885923D01*
X126927201Y-110366829D01*
X126899230Y-109816552D01*
X126742460Y-109438077D01*
X126501517Y-109370088D01*
X125709605Y-110162000D01*
X125350395Y-110162000D01*
X125336253Y-110147858D01*
X125515858Y-109968253D01*
X125530000Y-109982395D01*
X126321912Y-109190483D01*
X126256934Y-108960210D01*
X126313515Y-108936831D01*
X126703461Y-108547564D01*
X126914759Y-108038702D01*
X126915240Y-107487715D01*
X126704831Y-106978485D01*
X126315564Y-106588539D01*
X125806702Y-106377241D01*
X125255715Y-106376760D01*
X124746485Y-106587169D01*
X124356539Y-106976436D01*
X124145241Y-107485298D01*
X124144760Y-108036285D01*
X124155330Y-108061868D01*
X124133998Y-108083200D01*
X123696282Y-108083200D01*
X123714759Y-108038702D01*
X123715240Y-107487715D01*
X123504831Y-106978485D01*
X123115564Y-106588539D01*
X123090000Y-106577924D01*
X123090000Y-98761400D01*
X123032148Y-98470561D01*
X122867401Y-98223999D01*
X108404969Y-83761567D01*
X108324526Y-83357152D01*
X107999670Y-82870971D01*
X107728828Y-82690000D01*
X107999670Y-82509029D01*
X108273425Y-82099327D01*
X112718384Y-86544286D01*
X112718384Y-86544286D01*
G37*
X112718384Y-86544286D02*
X112667008Y-86595573D01*
X112524362Y-86939101D01*
X112524038Y-87311067D01*
X112666083Y-87654843D01*
X112928873Y-87918092D01*
X113272401Y-88060738D01*
X113319277Y-88060779D01*
X127064700Y-101806202D01*
X127064700Y-106114937D01*
X127032508Y-106147073D01*
X126889862Y-106490601D01*
X126889538Y-106862567D01*
X127031583Y-107206343D01*
X127193657Y-107368700D01*
X127145241Y-107485298D01*
X127144760Y-108036285D01*
X127355169Y-108545515D01*
X127744436Y-108935461D01*
X127807875Y-108961803D01*
X127746485Y-108987169D01*
X127356539Y-109376436D01*
X127145241Y-109885298D01*
X127144760Y-110436285D01*
X127355169Y-110945515D01*
X127744436Y-111335461D01*
X127770000Y-111346076D01*
X127770000Y-117439698D01*
X122597500Y-122612198D01*
X122597500Y-111547234D01*
X122604285Y-111547240D01*
X123113515Y-111336831D01*
X123317183Y-111133517D01*
X124738088Y-111133517D01*
X124806077Y-111374460D01*
X125325171Y-111559201D01*
X125875448Y-111531230D01*
X126253923Y-111374460D01*
X126321912Y-111133517D01*
X125530000Y-110341605D01*
X124738088Y-111133517D01*
X123317183Y-111133517D01*
X123503461Y-110947564D01*
X123714759Y-110438702D01*
X123715240Y-109887715D01*
X123597681Y-109603200D01*
X124258774Y-109603200D01*
X124132799Y-109957171D01*
X124160770Y-110507448D01*
X124317540Y-110885923D01*
X124558483Y-110953912D01*
X125350395Y-110162000D01*
X125709605Y-110162000D01*
X126501517Y-110953912D01*
X126742460Y-110885923D01*
X126927201Y-110366829D01*
X126899230Y-109816552D01*
X126742460Y-109438077D01*
X126501517Y-109370088D01*
X125709605Y-110162000D01*
X125350395Y-110162000D01*
X125336253Y-110147858D01*
X125515858Y-109968253D01*
X125530000Y-109982395D01*
X126321912Y-109190483D01*
X126256934Y-108960210D01*
X126313515Y-108936831D01*
X126703461Y-108547564D01*
X126914759Y-108038702D01*
X126915240Y-107487715D01*
X126704831Y-106978485D01*
X126315564Y-106588539D01*
X125806702Y-106377241D01*
X125255715Y-106376760D01*
X124746485Y-106587169D01*
X124356539Y-106976436D01*
X124145241Y-107485298D01*
X124144760Y-108036285D01*
X124155330Y-108061868D01*
X124133998Y-108083200D01*
X123696282Y-108083200D01*
X123714759Y-108038702D01*
X123715240Y-107487715D01*
X123504831Y-106978485D01*
X123115564Y-106588539D01*
X123090000Y-106577924D01*
X123090000Y-98761400D01*
X123032148Y-98470561D01*
X122867401Y-98223999D01*
X108404969Y-83761567D01*
X108324526Y-83357152D01*
X107999670Y-82870971D01*
X107728828Y-82690000D01*
X107999670Y-82509029D01*
X108273425Y-82099327D01*
X112718384Y-86544286D01*
G36*
X137817976Y-110802086D02*
X137830085Y-110814195D01*
X137829914Y-111009976D01*
X137734142Y-111105748D01*
X137720000Y-111091605D01*
X137705858Y-111105748D01*
X137620102Y-111019992D01*
X137606270Y-110817840D01*
X137622195Y-110801915D01*
X137817976Y-110802086D01*
X137817976Y-110802086D01*
G37*
X137817976Y-110802086D02*
X137830085Y-110814195D01*
X137829914Y-111009976D01*
X137734142Y-111105748D01*
X137720000Y-111091605D01*
X137705858Y-111105748D01*
X137620102Y-111019992D01*
X137606270Y-110817840D01*
X137622195Y-110801915D01*
X137817976Y-110802086D01*
G36*
X136547976Y-110802086D02*
X136549897Y-110804007D01*
X136563730Y-111006160D01*
X136464143Y-111105748D01*
X136450000Y-111091605D01*
X136442204Y-111099402D01*
X136352440Y-111009638D01*
X136352440Y-110801915D01*
X136547976Y-110802086D01*
X136547976Y-110802086D01*
G37*
X136547976Y-110802086D02*
X136549897Y-110804007D01*
X136563730Y-111006160D01*
X136464143Y-111105748D01*
X136450000Y-111091605D01*
X136442204Y-111099402D01*
X136352440Y-111009638D01*
X136352440Y-110801915D01*
X136547976Y-110802086D01*
G36*
X158224510Y-97310889D02*
X158224879Y-97312794D01*
X158224500Y-97314700D01*
X158253064Y-97458297D01*
X158280902Y-97602014D01*
X158281973Y-97603635D01*
X158282352Y-97605539D01*
X158363696Y-97727279D01*
X158444411Y-97849399D01*
X158446020Y-97850486D01*
X158447099Y-97852101D01*
X158687798Y-98092800D01*
X158431057Y-98198883D01*
X158167808Y-98461673D01*
X158025162Y-98805201D01*
X158024838Y-99177167D01*
X158166883Y-99520943D01*
X158429673Y-99784192D01*
X158773201Y-99926838D01*
X158820077Y-99926879D01*
X163267599Y-104374401D01*
X163514161Y-104539148D01*
X163797900Y-104595588D01*
X163797900Y-104785098D01*
X158448000Y-110134998D01*
X158369852Y-110134998D01*
X158528600Y-109976250D01*
X158528600Y-109119691D01*
X158431927Y-108886302D01*
X158253299Y-108707673D01*
X158019910Y-108611000D01*
X157315750Y-108611000D01*
X157157000Y-108769750D01*
X157157000Y-110135000D01*
X157177000Y-110135000D01*
X157177000Y-110389000D01*
X157157000Y-110389000D01*
X157157000Y-110409000D01*
X156903000Y-110409000D01*
X156903000Y-110389000D01*
X156883000Y-110389000D01*
X156883000Y-110135000D01*
X156903000Y-110135000D01*
X156903000Y-108769750D01*
X156744250Y-108611000D01*
X156040090Y-108611000D01*
X155806701Y-108707673D01*
X155628073Y-108886302D01*
X155564500Y-109039780D01*
X155549670Y-109017585D01*
X155063489Y-108692729D01*
X154490000Y-108578655D01*
X153916511Y-108692729D01*
X153430330Y-109017585D01*
X153220000Y-109332366D01*
X153009670Y-109017585D01*
X152523489Y-108692729D01*
X151950000Y-108578655D01*
X151376511Y-108692729D01*
X150890330Y-109017585D01*
X150680000Y-109332366D01*
X150469670Y-109017585D01*
X149983489Y-108692729D01*
X149410000Y-108578655D01*
X148836511Y-108692729D01*
X148350330Y-109017585D01*
X148140000Y-109332366D01*
X147929670Y-109017585D01*
X147443489Y-108692729D01*
X146870000Y-108578655D01*
X146296511Y-108692729D01*
X145929116Y-108938214D01*
X145145852Y-108154950D01*
X158235772Y-95065030D01*
X158224510Y-97310889D01*
X158224510Y-97310889D01*
G37*
X158224510Y-97310889D02*
X158224879Y-97312794D01*
X158224500Y-97314700D01*
X158253064Y-97458297D01*
X158280902Y-97602014D01*
X158281973Y-97603635D01*
X158282352Y-97605539D01*
X158363696Y-97727279D01*
X158444411Y-97849399D01*
X158446020Y-97850486D01*
X158447099Y-97852101D01*
X158687798Y-98092800D01*
X158431057Y-98198883D01*
X158167808Y-98461673D01*
X158025162Y-98805201D01*
X158024838Y-99177167D01*
X158166883Y-99520943D01*
X158429673Y-99784192D01*
X158773201Y-99926838D01*
X158820077Y-99926879D01*
X163267599Y-104374401D01*
X163514161Y-104539148D01*
X163797900Y-104595588D01*
X163797900Y-104785098D01*
X158448000Y-110134998D01*
X158369852Y-110134998D01*
X158528600Y-109976250D01*
X158528600Y-109119691D01*
X158431927Y-108886302D01*
X158253299Y-108707673D01*
X158019910Y-108611000D01*
X157315750Y-108611000D01*
X157157000Y-108769750D01*
X157157000Y-110135000D01*
X157177000Y-110135000D01*
X157177000Y-110389000D01*
X157157000Y-110389000D01*
X157157000Y-110409000D01*
X156903000Y-110409000D01*
X156903000Y-110389000D01*
X156883000Y-110389000D01*
X156883000Y-110135000D01*
X156903000Y-110135000D01*
X156903000Y-108769750D01*
X156744250Y-108611000D01*
X156040090Y-108611000D01*
X155806701Y-108707673D01*
X155628073Y-108886302D01*
X155564500Y-109039780D01*
X155549670Y-109017585D01*
X155063489Y-108692729D01*
X154490000Y-108578655D01*
X153916511Y-108692729D01*
X153430330Y-109017585D01*
X153220000Y-109332366D01*
X153009670Y-109017585D01*
X152523489Y-108692729D01*
X151950000Y-108578655D01*
X151376511Y-108692729D01*
X150890330Y-109017585D01*
X150680000Y-109332366D01*
X150469670Y-109017585D01*
X149983489Y-108692729D01*
X149410000Y-108578655D01*
X148836511Y-108692729D01*
X148350330Y-109017585D01*
X148140000Y-109332366D01*
X147929670Y-109017585D01*
X147443489Y-108692729D01*
X146870000Y-108578655D01*
X146296511Y-108692729D01*
X145929116Y-108938214D01*
X145145852Y-108154950D01*
X158235772Y-95065030D01*
X158224510Y-97310889D01*
G36*
X120294600Y-99247902D02*
X120294600Y-106693693D01*
X120253923Y-106549540D01*
X119734829Y-106364799D01*
X119184552Y-106392770D01*
X118806077Y-106549540D01*
X118738088Y-106790483D01*
X119530000Y-107582395D01*
X119544143Y-107568253D01*
X119723748Y-107747858D01*
X119709605Y-107762000D01*
X120501517Y-108553912D01*
X120517578Y-108549380D01*
X121250668Y-109282470D01*
X121156539Y-109376436D01*
X121001328Y-109750226D01*
X120233869Y-108982767D01*
X120253923Y-108974460D01*
X120321912Y-108733517D01*
X119530000Y-107941605D01*
X119515858Y-107955748D01*
X119336253Y-107776143D01*
X119350395Y-107762000D01*
X118558483Y-106970088D01*
X118317540Y-107038077D01*
X118310096Y-107058994D01*
X118098200Y-106847098D01*
X118098200Y-97996763D01*
X118130392Y-97964627D01*
X118273038Y-97621099D01*
X118273362Y-97249133D01*
X118257541Y-97210843D01*
X120294600Y-99247902D01*
X120294600Y-99247902D01*
G37*
X120294600Y-99247902D02*
X120294600Y-106693693D01*
X120253923Y-106549540D01*
X119734829Y-106364799D01*
X119184552Y-106392770D01*
X118806077Y-106549540D01*
X118738088Y-106790483D01*
X119530000Y-107582395D01*
X119544143Y-107568253D01*
X119723748Y-107747858D01*
X119709605Y-107762000D01*
X120501517Y-108553912D01*
X120517578Y-108549380D01*
X121250668Y-109282470D01*
X121156539Y-109376436D01*
X121001328Y-109750226D01*
X120233869Y-108982767D01*
X120253923Y-108974460D01*
X120321912Y-108733517D01*
X119530000Y-107941605D01*
X119515858Y-107955748D01*
X119336253Y-107776143D01*
X119350395Y-107762000D01*
X118558483Y-106970088D01*
X118317540Y-107038077D01*
X118310096Y-107058994D01*
X118098200Y-106847098D01*
X118098200Y-97996763D01*
X118130392Y-97964627D01*
X118273038Y-97621099D01*
X118273362Y-97249133D01*
X118257541Y-97210843D01*
X120294600Y-99247902D01*
M02*
