%FSLAX45Y45*%
G04 Gerber Fmt 4.5, Leading zero omitted, Abs format (unit mm)*
G04 Created by KiCad (PCBNEW (2016-12-18 revision 3ffa37c)-master) date Monday, February 06, 2017 'PMt' 10:41:28 PM*
%MOMM*%
%LPD*%
G01*
G04 APERTURE LIST*
%ADD10C,0.127000*%
%ADD11C,0.150000*%
%ADD12C,0.200000*%
%ADD13C,0.300000*%
G04 APERTURE END LIST*
D10*
D11*
X13403871Y-5064494D02*
X13666055Y-5064516D01*
X13666055Y-5064516D02*
X13943394Y-5064543D01*
X13943394Y-5064543D02*
X14236324Y-5064570D01*
X14236324Y-5064570D02*
X14545279Y-5064591D01*
X14545279Y-5064591D02*
X14870695Y-5064600D01*
X14870695Y-5064600D02*
X14900000Y-5064600D01*
X14900000Y-5064600D02*
X15225195Y-5064603D01*
X15225195Y-5064603D02*
X15533889Y-5064614D01*
X15533889Y-5064614D02*
X15826513Y-5064633D01*
X15826513Y-5064633D02*
X16103500Y-5064663D01*
X16103500Y-5064663D02*
X16365282Y-5064703D01*
X16365282Y-5064703D02*
X16612291Y-5064757D01*
X16612291Y-5064757D02*
X16844958Y-5064824D01*
X16844958Y-5064824D02*
X17063715Y-5064907D01*
X17063715Y-5064907D02*
X17268995Y-5065007D01*
X17268995Y-5065007D02*
X17461230Y-5065124D01*
X17461230Y-5065124D02*
X17640851Y-5065261D01*
X17640851Y-5065261D02*
X17808291Y-5065418D01*
X17808291Y-5065418D02*
X17963981Y-5065597D01*
X17963981Y-5065597D02*
X18108354Y-5065800D01*
X18108354Y-5065800D02*
X18241842Y-5066027D01*
X18241842Y-5066027D02*
X18364876Y-5066280D01*
X18364876Y-5066280D02*
X18477888Y-5066561D01*
X18477888Y-5066561D02*
X18581311Y-5066870D01*
X18581311Y-5066870D02*
X18675577Y-5067209D01*
X18675577Y-5067209D02*
X18761117Y-5067579D01*
X18761117Y-5067579D02*
X18838363Y-5067981D01*
X18838363Y-5067981D02*
X18907748Y-5068418D01*
X18907748Y-5068418D02*
X18969703Y-5068890D01*
X18969703Y-5068890D02*
X19024661Y-5069398D01*
X19024661Y-5069398D02*
X19073053Y-5069944D01*
X19073053Y-5069944D02*
X19115312Y-5070530D01*
X19115312Y-5070530D02*
X19151869Y-5071155D01*
X19151869Y-5071155D02*
X19183156Y-5071823D01*
X19183156Y-5071823D02*
X19209606Y-5072534D01*
X19209606Y-5072534D02*
X19231650Y-5073289D01*
X19231650Y-5073289D02*
X19249720Y-5074090D01*
X19249720Y-5074090D02*
X19264249Y-5074938D01*
X19264249Y-5074938D02*
X19275669Y-5075835D01*
X19275669Y-5075835D02*
X19284410Y-5076781D01*
X19284410Y-5076781D02*
X19290906Y-5077779D01*
X19290906Y-5077779D02*
X19292380Y-5078067D01*
X19292380Y-5078067D02*
X19390309Y-5106500D01*
X19390309Y-5106500D02*
X19479746Y-5149022D01*
X19479746Y-5149022D02*
X19559829Y-5204606D01*
X19559829Y-5204606D02*
X19629698Y-5272224D01*
X19629698Y-5272224D02*
X19688490Y-5350848D01*
X19688490Y-5350848D02*
X19735342Y-5439450D01*
X19735342Y-5439450D02*
X19769394Y-5537003D01*
X19769394Y-5537003D02*
X19789783Y-5642479D01*
X19789783Y-5642479D02*
X19793073Y-5675092D01*
X19793073Y-5675092D02*
X19796952Y-5718151D01*
X19796952Y-5718151D02*
X19801106Y-5748489D01*
X19801106Y-5748489D02*
X19806569Y-5770300D01*
X19806569Y-5770300D02*
X19814373Y-5787779D01*
X19814373Y-5787779D02*
X19824841Y-5804112D01*
X19824841Y-5804112D02*
X19841678Y-5825672D01*
X19841678Y-5825672D02*
X19859890Y-5842512D01*
X19859890Y-5842512D02*
X19882263Y-5855771D01*
X19882263Y-5855771D02*
X19911586Y-5866592D01*
X19911586Y-5866592D02*
X19950647Y-5876114D01*
X19950647Y-5876114D02*
X20002232Y-5885478D01*
X20002232Y-5885478D02*
X20037212Y-5891014D01*
X20037212Y-5891014D02*
X20192983Y-5918577D01*
X20192983Y-5918577D02*
X20339016Y-5952472D01*
X20339016Y-5952472D02*
X20481878Y-5994458D01*
X20481878Y-5994458D02*
X20628135Y-6046294D01*
X20628135Y-6046294D02*
X20653560Y-6056115D01*
X20653560Y-6056115D02*
X20851592Y-6142441D01*
X20851592Y-6142441D02*
X21041742Y-6243346D01*
X21041742Y-6243346D02*
X21223400Y-6358119D01*
X21223400Y-6358119D02*
X21395957Y-6486046D01*
X21395957Y-6486046D02*
X21558801Y-6626414D01*
X21558801Y-6626414D02*
X21711323Y-6778512D01*
X21711323Y-6778512D02*
X21852913Y-6941625D01*
X21852913Y-6941625D02*
X21982959Y-7115043D01*
X21982959Y-7115043D02*
X22100853Y-7298051D01*
X22100853Y-7298051D02*
X22205984Y-7489937D01*
X22205984Y-7489937D02*
X22297742Y-7689989D01*
X22297742Y-7689989D02*
X22375516Y-7897493D01*
X22375516Y-7897493D02*
X22438697Y-8111737D01*
X22438697Y-8111737D02*
X22449063Y-8153399D01*
X22449063Y-8153399D02*
X22493503Y-8372803D01*
X22493503Y-8372803D02*
X22522257Y-8596790D01*
X22522257Y-8596790D02*
X22535296Y-8823500D01*
X22535296Y-8823500D02*
X22532594Y-9051073D01*
X22532594Y-9051073D02*
X22514122Y-9277649D01*
X22514122Y-9277649D02*
X22479855Y-9501367D01*
X22479855Y-9501367D02*
X22469607Y-9552841D01*
X22469607Y-9552841D02*
X22415580Y-9771540D01*
X22415580Y-9771540D02*
X22345706Y-9985304D01*
X22345706Y-9985304D02*
X22260522Y-10193141D01*
X22260522Y-10193141D02*
X22160565Y-10394058D01*
X22160565Y-10394058D02*
X22046371Y-10587060D01*
X22046371Y-10587060D02*
X21918478Y-10771156D01*
X21918478Y-10771156D02*
X21777422Y-10945351D01*
X21777422Y-10945351D02*
X21634259Y-11098233D01*
X21634259Y-11098233D02*
X21472290Y-11247851D01*
X21472290Y-11247851D02*
X21300848Y-11383912D01*
X21300848Y-11383912D02*
X21120740Y-11506011D01*
X21120740Y-11506011D02*
X20932773Y-11613744D01*
X20932773Y-11613744D02*
X20737753Y-11706709D01*
X20737753Y-11706709D02*
X20536486Y-11784502D01*
X20536486Y-11784502D02*
X20329780Y-11846718D01*
X20329780Y-11846718D02*
X20118440Y-11892955D01*
X20118440Y-11892955D02*
X20012681Y-11909761D01*
X20012681Y-11909761D02*
X19961533Y-11917487D01*
X19961533Y-11917487D02*
X19923804Y-11924984D01*
X19923804Y-11924984D02*
X19896034Y-11933393D01*
X19896034Y-11933393D02*
X19874766Y-11943853D01*
X19874766Y-11943853D02*
X19856541Y-11957505D01*
X19856541Y-11957505D02*
X19850127Y-11963355D01*
X19850127Y-11963355D02*
X19829024Y-11986473D01*
X19829024Y-11986473D02*
X19814042Y-12011852D01*
X19814042Y-12011852D02*
X19803730Y-12043493D01*
X19803730Y-12043493D02*
X19796634Y-12085400D01*
X19796634Y-12085400D02*
X19793000Y-12120704D01*
X19793000Y-12120704D02*
X19784677Y-12192612D01*
X19784677Y-12192612D02*
X19772497Y-12253874D01*
X19772497Y-12253874D02*
X19754873Y-12310626D01*
X19754873Y-12310626D02*
X19730220Y-12369004D01*
X19730220Y-12369004D02*
X19727117Y-12375567D01*
X19727117Y-12375567D02*
X19675732Y-12464013D01*
X19675732Y-12464013D02*
X19611264Y-12542371D01*
X19611264Y-12542371D02*
X19534940Y-12609606D01*
X19534940Y-12609606D02*
X19447986Y-12664686D01*
X19447986Y-12664686D02*
X19351630Y-12706574D01*
X19351630Y-12706574D02*
X19323833Y-12715587D01*
X19323833Y-12715587D02*
X19319590Y-12716731D01*
X19319590Y-12716731D02*
X19314351Y-12717817D01*
X19314351Y-12717817D02*
X19307681Y-12718848D01*
X19307681Y-12718848D02*
X19299143Y-12719823D01*
X19299143Y-12719823D02*
X19288303Y-12720745D01*
X19288303Y-12720745D02*
X19274723Y-12721616D01*
X19274723Y-12721616D02*
X19257968Y-12722437D01*
X19257968Y-12722437D02*
X19237602Y-12723210D01*
X19237602Y-12723210D02*
X19213188Y-12723937D01*
X19213188Y-12723937D02*
X19184292Y-12724619D01*
X19184292Y-12724619D02*
X19150477Y-12725257D01*
X19150477Y-12725257D02*
X19111306Y-12725854D01*
X19111306Y-12725854D02*
X19066344Y-12726412D01*
X19066344Y-12726412D02*
X19015156Y-12726931D01*
X19015156Y-12726931D02*
X18957304Y-12727413D01*
X18957304Y-12727413D02*
X18892353Y-12727860D01*
X18892353Y-12727860D02*
X18819868Y-12728275D01*
X18819868Y-12728275D02*
X18739411Y-12728657D01*
X18739411Y-12728657D02*
X18650548Y-12729009D01*
X18650548Y-12729009D02*
X18552842Y-12729333D01*
X18552842Y-12729333D02*
X18445857Y-12729631D01*
X18445857Y-12729631D02*
X18329157Y-12729903D01*
X18329157Y-12729903D02*
X18202306Y-12730152D01*
X18202306Y-12730152D02*
X18064869Y-12730379D01*
X18064869Y-12730379D02*
X17916408Y-12730586D01*
X17916408Y-12730586D02*
X17756489Y-12730774D01*
X17756489Y-12730774D02*
X17584676Y-12730946D01*
X17584676Y-12730946D02*
X17400531Y-12731102D01*
X17400531Y-12731102D02*
X17203620Y-12731245D01*
X17203620Y-12731245D02*
X16993506Y-12731375D01*
X16993506Y-12731375D02*
X16769754Y-12731496D01*
X16769754Y-12731496D02*
X16531927Y-12731608D01*
X16531927Y-12731608D02*
X16279589Y-12731713D01*
X16279589Y-12731713D02*
X16012305Y-12731812D01*
X16012305Y-12731812D02*
X15729639Y-12731908D01*
X15729639Y-12731908D02*
X15431154Y-12732002D01*
X15431154Y-12732002D02*
X15116414Y-12732095D01*
X15116414Y-12732095D02*
X14933867Y-12732148D01*
X14933867Y-12732148D02*
X14614587Y-12732223D01*
X14614587Y-12732223D02*
X14304852Y-12732265D01*
X14304852Y-12732265D02*
X14004977Y-12732275D01*
X14004977Y-12732275D02*
X13715278Y-12732252D01*
X13715278Y-12732252D02*
X13436068Y-12732198D01*
X13436068Y-12732198D02*
X13167664Y-12732112D01*
X13167664Y-12732112D02*
X12910381Y-12731996D01*
X12910381Y-12731996D02*
X12664532Y-12731849D01*
X12664532Y-12731849D02*
X12430435Y-12731672D01*
X12430435Y-12731672D02*
X12208403Y-12731466D01*
X12208403Y-12731466D02*
X11998751Y-12731231D01*
X11998751Y-12731231D02*
X11801796Y-12730968D01*
X11801796Y-12730968D02*
X11617851Y-12730677D01*
X11617851Y-12730677D02*
X11447232Y-12730358D01*
X11447232Y-12730358D02*
X11290253Y-12730012D01*
X11290253Y-12730012D02*
X11147231Y-12729640D01*
X11147231Y-12729640D02*
X11018480Y-12729241D01*
X11018480Y-12729241D02*
X10904315Y-12728817D01*
X10904315Y-12728817D02*
X10805052Y-12728369D01*
X10805052Y-12728369D02*
X10721004Y-12727895D01*
X10721004Y-12727895D02*
X10652488Y-12727397D01*
X10652488Y-12727397D02*
X10599818Y-12726876D01*
X10599818Y-12726876D02*
X10563310Y-12726331D01*
X10563310Y-12726331D02*
X10543278Y-12725764D01*
X10543278Y-12725764D02*
X10539725Y-12725502D01*
X10539725Y-12725502D02*
X10445208Y-12703581D01*
X10445208Y-12703581D02*
X10355703Y-12666305D01*
X10355703Y-12666305D02*
X10272788Y-12614899D01*
X10272788Y-12614899D02*
X10198041Y-12550591D01*
X10198041Y-12550591D02*
X10133042Y-12474605D01*
X10133042Y-12474605D02*
X10079367Y-12388169D01*
X10079367Y-12388169D02*
X10063498Y-12355562D01*
X10063498Y-12355562D02*
X10045526Y-12308277D01*
X10045526Y-12308277D02*
X10029380Y-12251824D01*
X10029380Y-12251824D02*
X10016528Y-12192710D01*
X10016528Y-12192710D02*
X10008438Y-12137442D01*
X10008438Y-12137442D02*
X10006378Y-12102245D01*
X10006378Y-12102245D02*
X9999005Y-12047523D01*
X9999005Y-12047523D02*
X9978351Y-11998653D01*
X9978351Y-11998653D02*
X9946193Y-11958804D01*
X9946193Y-11958804D02*
X9912836Y-11935267D01*
X9912836Y-11935267D02*
X9896136Y-11929713D01*
X9896136Y-11929713D02*
X9866846Y-11923031D01*
X9866846Y-11923031D02*
X9829190Y-11916089D01*
X9829190Y-11916089D02*
X9790069Y-11910116D01*
X9790069Y-11910116D02*
X9578546Y-11872577D01*
X9578546Y-11872577D02*
X9371415Y-11819015D01*
X9371415Y-11819015D02*
X9169444Y-11749947D01*
X9169444Y-11749947D02*
X8973399Y-11665889D01*
X8973399Y-11665889D02*
X8784049Y-11567359D01*
X8784049Y-11567359D02*
X8602160Y-11454875D01*
X8602160Y-11454875D02*
X8428501Y-11328953D01*
X8428501Y-11328953D02*
X8263837Y-11190110D01*
X8263837Y-11190110D02*
X8108938Y-11038864D01*
X8108938Y-11038864D02*
X7964569Y-10875732D01*
X7964569Y-10875732D02*
X7831499Y-10701231D01*
X7831499Y-10701231D02*
X7710495Y-10515879D01*
X7710495Y-10515879D02*
X7703085Y-10503501D01*
X7703085Y-10503501D02*
X7594490Y-10305521D01*
X7594490Y-10305521D02*
X7501368Y-10102132D01*
X7501368Y-10102132D02*
X7423466Y-9892576D01*
X7423466Y-9892576D02*
X7360535Y-9676092D01*
X7360535Y-9676092D02*
X7312322Y-9451923D01*
X7312322Y-9451923D02*
X7278850Y-9221733D01*
X7278850Y-9221733D02*
X7274860Y-9174415D01*
X7274860Y-9174415D02*
X7271792Y-9113696D01*
X7271792Y-9113696D02*
X7269647Y-9043076D01*
X7269647Y-9043076D02*
X7268423Y-8966059D01*
X7268423Y-8966059D02*
X7268133Y-8888832D01*
X7268133Y-8888832D02*
X7268122Y-8886146D01*
X7268122Y-8886146D02*
X7268744Y-8806839D01*
X7268744Y-8806839D02*
X7270287Y-8731639D01*
X7270287Y-8731639D02*
X7272752Y-8664049D01*
X7272752Y-8664049D02*
X7276139Y-8607571D01*
X7276139Y-8607571D02*
X7278859Y-8578267D01*
X7278859Y-8578267D02*
X7312406Y-8346762D01*
X7312406Y-8346762D02*
X7359895Y-8124385D01*
X7359895Y-8124385D02*
X7421682Y-7910152D01*
X7421682Y-7910152D02*
X7498123Y-7703082D01*
X7498123Y-7703082D02*
X7589575Y-7502193D01*
X7589575Y-7502193D02*
X7696394Y-7306504D01*
X7696394Y-7306504D02*
X7799778Y-7143167D01*
X7799778Y-7143167D02*
X7927824Y-6967798D01*
X7927824Y-6967798D02*
X8068412Y-6802642D01*
X8068412Y-6802642D02*
X8220530Y-6648441D01*
X8220530Y-6648441D02*
X8383164Y-6505938D01*
X8383164Y-6505938D02*
X8555303Y-6375876D01*
X8555303Y-6375876D02*
X8735936Y-6258997D01*
X8735936Y-6258997D02*
X8924048Y-6156045D01*
X8924048Y-6156045D02*
X9118629Y-6067761D01*
X9118629Y-6067761D02*
X9318666Y-5994890D01*
X9318666Y-5994890D02*
X9396936Y-5971097D01*
X9396936Y-5971097D02*
X9504202Y-5942738D01*
X9504202Y-5942738D02*
X9616531Y-5917480D01*
X9616531Y-5917480D02*
X9726538Y-5896880D01*
X9726538Y-5896880D02*
X9803067Y-5885426D01*
X9803067Y-5885426D02*
X9860298Y-5875767D01*
X9860298Y-5875767D02*
X9903937Y-5862887D01*
X9903937Y-5862887D02*
X9937221Y-5845465D01*
X9937221Y-5845465D02*
X9963384Y-5822178D01*
X9963384Y-5822178D02*
X9966374Y-5818720D01*
X9966374Y-5818720D02*
X9982788Y-5795480D01*
X9982788Y-5795480D02*
X9994440Y-5768701D01*
X9994440Y-5768701D02*
X10002436Y-5734469D01*
X10002436Y-5734469D02*
X10007886Y-5688869D01*
X10007886Y-5688869D02*
X10009658Y-5665733D01*
X10009658Y-5665733D02*
X10024817Y-5560840D01*
X10024817Y-5560840D02*
X10055053Y-5462460D01*
X10055053Y-5462460D02*
X10099570Y-5371776D01*
X10099570Y-5371776D02*
X10157574Y-5289971D01*
X10157574Y-5289971D02*
X10228270Y-5218226D01*
X10228270Y-5218226D02*
X10310862Y-5157726D01*
X10310862Y-5157726D02*
X10374567Y-5123061D01*
X10374567Y-5123061D02*
X10383086Y-5118720D01*
X10383086Y-5118720D02*
X10390235Y-5114598D01*
X10390235Y-5114598D02*
X10396449Y-5110689D01*
X10396449Y-5110689D02*
X10402163Y-5106988D01*
X10402163Y-5106988D02*
X10407812Y-5103488D01*
X10407812Y-5103488D02*
X10413830Y-5100185D01*
X10413830Y-5100185D02*
X10420652Y-5097073D01*
X10420652Y-5097073D02*
X10428714Y-5094145D01*
X10428714Y-5094145D02*
X10438449Y-5091397D01*
X10438449Y-5091397D02*
X10450294Y-5088823D01*
X10450294Y-5088823D02*
X10464683Y-5086417D01*
X10464683Y-5086417D02*
X10482051Y-5084173D01*
X10482051Y-5084173D02*
X10502832Y-5082087D01*
X10502832Y-5082087D02*
X10527462Y-5080151D01*
X10527462Y-5080151D02*
X10556376Y-5078362D01*
X10556376Y-5078362D02*
X10590007Y-5076712D01*
X10590007Y-5076712D02*
X10628793Y-5075197D01*
X10628793Y-5075197D02*
X10673166Y-5073811D01*
X10673166Y-5073811D02*
X10723562Y-5072548D01*
X10723562Y-5072548D02*
X10780416Y-5071403D01*
X10780416Y-5071403D02*
X10844164Y-5070369D01*
X10844164Y-5070369D02*
X10915238Y-5069443D01*
X10915238Y-5069443D02*
X10994076Y-5068616D01*
X10994076Y-5068616D02*
X11081111Y-5067885D01*
X11081111Y-5067885D02*
X11176778Y-5067244D01*
X11176778Y-5067244D02*
X11281512Y-5066686D01*
X11281512Y-5066686D02*
X11395749Y-5066207D01*
X11395749Y-5066207D02*
X11519923Y-5065800D01*
X11519923Y-5065800D02*
X11654468Y-5065460D01*
X11654468Y-5065460D02*
X11799821Y-5065182D01*
X11799821Y-5065182D02*
X11956415Y-5064960D01*
X11956415Y-5064960D02*
X12124685Y-5064788D01*
X12124685Y-5064788D02*
X12305068Y-5064660D01*
X12305068Y-5064660D02*
X12497996Y-5064572D01*
X12497996Y-5064572D02*
X12703906Y-5064516D01*
X12703906Y-5064516D02*
X12923232Y-5064489D01*
X12923232Y-5064489D02*
X13156409Y-5064483D01*
X13156409Y-5064483D02*
X13403871Y-5064494D01*
D12*
X10533000Y-12363700D02*
X10623000Y-12453700D01*
X10623000Y-12363700D02*
X10533000Y-12453700D01*
X10833000Y-12363700D02*
X10923000Y-12453700D01*
X10923000Y-12363700D02*
X10833000Y-12453700D01*
X7794000Y-8911600D02*
G75*
G03X7794000Y-8911600I-160000J0D01*
G01*
X10613000Y-5476200D02*
G75*
G03X10613000Y-5476200I-160000J0D01*
G01*
X11693000Y-5976200D02*
G75*
G03X11693000Y-5976200I-160000J0D01*
G01*
X11693000Y-11566200D02*
G75*
G03X11693000Y-11566200I-160000J0D01*
G01*
X18343000Y-5966200D02*
G75*
G03X18343000Y-5966200I-160000J0D01*
G01*
X18343000Y-11566200D02*
G75*
G03X18343000Y-11566200I-160000J0D01*
G01*
X19513000Y-5476200D02*
G75*
G03X19513000Y-5476200I-160000J0D01*
G01*
D13*
X7547051Y-13205489D02*
X7547051Y-12905489D01*
X7618479Y-12905489D01*
X7661337Y-12919775D01*
X7689908Y-12948346D01*
X7704194Y-12976918D01*
X7718479Y-13034061D01*
X7718479Y-13076918D01*
X7704194Y-13134061D01*
X7689908Y-13162632D01*
X7661337Y-13191204D01*
X7618479Y-13205489D01*
X7547051Y-13205489D01*
X7847051Y-13205489D02*
X7847051Y-13005489D01*
X7847051Y-13062632D02*
X7861337Y-13034061D01*
X7875622Y-13019775D01*
X7904194Y-13005489D01*
X7932765Y-13005489D01*
X8032765Y-13205489D02*
X8032765Y-13005489D01*
X8032765Y-12905489D02*
X8018479Y-12919775D01*
X8032765Y-12934061D01*
X8047051Y-12919775D01*
X8032765Y-12905489D01*
X8032765Y-12934061D01*
X8218479Y-13205489D02*
X8189908Y-13191204D01*
X8175622Y-13162632D01*
X8175622Y-12905489D01*
X8375622Y-13205489D02*
X8347051Y-13191204D01*
X8332765Y-13162632D01*
X8332765Y-12905489D01*
X8718480Y-13205489D02*
X8718480Y-12905489D01*
X8818480Y-13119775D01*
X8918480Y-12905489D01*
X8918480Y-13205489D01*
X9189908Y-13205489D02*
X9189908Y-13048346D01*
X9175622Y-13019775D01*
X9147051Y-13005489D01*
X9089908Y-13005489D01*
X9061337Y-13019775D01*
X9189908Y-13191204D02*
X9161337Y-13205489D01*
X9089908Y-13205489D01*
X9061337Y-13191204D01*
X9047051Y-13162632D01*
X9047051Y-13134061D01*
X9061337Y-13105489D01*
X9089908Y-13091204D01*
X9161337Y-13091204D01*
X9189908Y-13076918D01*
X9332765Y-13005489D02*
X9332765Y-13305489D01*
X9332765Y-13019775D02*
X9361337Y-13005489D01*
X9418480Y-13005489D01*
X9447051Y-13019775D01*
X9461337Y-13034061D01*
X9475622Y-13062632D01*
X9475622Y-13148346D01*
X9461337Y-13176918D01*
X9447051Y-13191204D01*
X9418480Y-13205489D01*
X9361337Y-13205489D01*
X9332765Y-13191204D01*
X9604194Y-13176918D02*
X9618480Y-13191204D01*
X9604194Y-13205489D01*
X9589908Y-13191204D01*
X9604194Y-13176918D01*
X9604194Y-13205489D01*
X9604194Y-13019775D02*
X9618480Y-13034061D01*
X9604194Y-13048346D01*
X9589908Y-13034061D01*
X9604194Y-13019775D01*
X9604194Y-13048346D01*
X7170622Y-13654775D02*
X7260622Y-13744775D01*
X7260622Y-13654775D02*
X7170622Y-13744775D01*
X7604194Y-13535489D02*
X7632765Y-13535489D01*
X7661337Y-13549775D01*
X7675622Y-13564061D01*
X7689908Y-13592632D01*
X7704194Y-13649775D01*
X7704194Y-13721204D01*
X7689908Y-13778346D01*
X7675622Y-13806918D01*
X7661337Y-13821204D01*
X7632765Y-13835489D01*
X7604194Y-13835489D01*
X7575622Y-13821204D01*
X7561337Y-13806918D01*
X7547051Y-13778346D01*
X7532765Y-13721204D01*
X7532765Y-13649775D01*
X7547051Y-13592632D01*
X7561337Y-13564061D01*
X7575622Y-13549775D01*
X7604194Y-13535489D01*
X7832765Y-13806918D02*
X7847051Y-13821204D01*
X7832765Y-13835489D01*
X7818479Y-13821204D01*
X7832765Y-13806918D01*
X7832765Y-13835489D01*
X7989908Y-13835489D02*
X8047051Y-13835489D01*
X8075622Y-13821204D01*
X8089908Y-13806918D01*
X8118479Y-13764061D01*
X8132765Y-13706918D01*
X8132765Y-13592632D01*
X8118479Y-13564061D01*
X8104194Y-13549775D01*
X8075622Y-13535489D01*
X8018479Y-13535489D01*
X7989908Y-13549775D01*
X7975622Y-13564061D01*
X7961337Y-13592632D01*
X7961337Y-13664061D01*
X7975622Y-13692632D01*
X7989908Y-13706918D01*
X8018479Y-13721204D01*
X8075622Y-13721204D01*
X8104194Y-13706918D01*
X8118479Y-13692632D01*
X8132765Y-13664061D01*
X8318479Y-13535489D02*
X8347051Y-13535489D01*
X8375622Y-13549775D01*
X8389908Y-13564061D01*
X8404194Y-13592632D01*
X8418480Y-13649775D01*
X8418480Y-13721204D01*
X8404194Y-13778346D01*
X8389908Y-13806918D01*
X8375622Y-13821204D01*
X8347051Y-13835489D01*
X8318479Y-13835489D01*
X8289908Y-13821204D01*
X8275622Y-13806918D01*
X8261337Y-13778346D01*
X8247051Y-13721204D01*
X8247051Y-13649775D01*
X8261337Y-13592632D01*
X8275622Y-13564061D01*
X8289908Y-13549775D01*
X8318479Y-13535489D01*
X8547051Y-13835489D02*
X8547051Y-13635489D01*
X8547051Y-13664061D02*
X8561337Y-13649775D01*
X8589908Y-13635489D01*
X8632765Y-13635489D01*
X8661337Y-13649775D01*
X8675622Y-13678346D01*
X8675622Y-13835489D01*
X8675622Y-13678346D02*
X8689908Y-13649775D01*
X8718480Y-13635489D01*
X8761337Y-13635489D01*
X8789908Y-13649775D01*
X8804194Y-13678346D01*
X8804194Y-13835489D01*
X8947051Y-13835489D02*
X8947051Y-13635489D01*
X8947051Y-13664061D02*
X8961337Y-13649775D01*
X8989908Y-13635489D01*
X9032765Y-13635489D01*
X9061337Y-13649775D01*
X9075622Y-13678346D01*
X9075622Y-13835489D01*
X9075622Y-13678346D02*
X9089908Y-13649775D01*
X9118480Y-13635489D01*
X9161337Y-13635489D01*
X9189908Y-13649775D01*
X9204194Y-13678346D01*
X9204194Y-13835489D01*
X9789908Y-13521204D02*
X9532765Y-13906918D01*
X10175622Y-13535489D02*
X10204194Y-13535489D01*
X10232765Y-13549775D01*
X10247051Y-13564061D01*
X10261337Y-13592632D01*
X10275622Y-13649775D01*
X10275622Y-13721204D01*
X10261337Y-13778346D01*
X10247051Y-13806918D01*
X10232765Y-13821204D01*
X10204194Y-13835489D01*
X10175622Y-13835489D01*
X10147051Y-13821204D01*
X10132765Y-13806918D01*
X10118480Y-13778346D01*
X10104194Y-13721204D01*
X10104194Y-13649775D01*
X10118480Y-13592632D01*
X10132765Y-13564061D01*
X10147051Y-13549775D01*
X10175622Y-13535489D01*
X10404194Y-13806918D02*
X10418480Y-13821204D01*
X10404194Y-13835489D01*
X10389908Y-13821204D01*
X10404194Y-13806918D01*
X10404194Y-13835489D01*
X10604194Y-13535489D02*
X10632765Y-13535489D01*
X10661337Y-13549775D01*
X10675622Y-13564061D01*
X10689908Y-13592632D01*
X10704194Y-13649775D01*
X10704194Y-13721204D01*
X10689908Y-13778346D01*
X10675622Y-13806918D01*
X10661337Y-13821204D01*
X10632765Y-13835489D01*
X10604194Y-13835489D01*
X10575622Y-13821204D01*
X10561337Y-13806918D01*
X10547051Y-13778346D01*
X10532765Y-13721204D01*
X10532765Y-13649775D01*
X10547051Y-13592632D01*
X10561337Y-13564061D01*
X10575622Y-13549775D01*
X10604194Y-13535489D01*
X10804194Y-13535489D02*
X10989908Y-13535489D01*
X10889908Y-13649775D01*
X10932765Y-13649775D01*
X10961337Y-13664061D01*
X10975622Y-13678346D01*
X10989908Y-13706918D01*
X10989908Y-13778346D01*
X10975622Y-13806918D01*
X10961337Y-13821204D01*
X10932765Y-13835489D01*
X10847051Y-13835489D01*
X10818480Y-13821204D01*
X10804194Y-13806918D01*
X11261337Y-13535489D02*
X11118480Y-13535489D01*
X11104194Y-13678346D01*
X11118480Y-13664061D01*
X11147051Y-13649775D01*
X11218479Y-13649775D01*
X11247051Y-13664061D01*
X11261337Y-13678346D01*
X11275622Y-13706918D01*
X11275622Y-13778346D01*
X11261337Y-13806918D01*
X11247051Y-13821204D01*
X11218479Y-13835489D01*
X11147051Y-13835489D01*
X11118480Y-13821204D01*
X11104194Y-13806918D01*
X11389908Y-13535489D02*
X11389908Y-13592632D01*
X11504194Y-13535489D02*
X11504194Y-13592632D01*
X11947051Y-13949775D02*
X11932765Y-13935489D01*
X11904194Y-13892632D01*
X11889908Y-13864061D01*
X11875622Y-13821204D01*
X11861337Y-13749775D01*
X11861337Y-13692632D01*
X11875622Y-13621204D01*
X11889908Y-13578346D01*
X11904194Y-13549775D01*
X11932765Y-13506918D01*
X11947051Y-13492632D01*
X12047051Y-13564061D02*
X12061337Y-13549775D01*
X12089908Y-13535489D01*
X12161337Y-13535489D01*
X12189908Y-13549775D01*
X12204194Y-13564061D01*
X12218479Y-13592632D01*
X12218479Y-13621204D01*
X12204194Y-13664061D01*
X12032765Y-13835489D01*
X12218479Y-13835489D01*
X12575622Y-13835489D02*
X12575622Y-13535489D01*
X12704194Y-13835489D02*
X12704194Y-13678346D01*
X12689908Y-13649775D01*
X12661337Y-13635489D01*
X12618479Y-13635489D01*
X12589908Y-13649775D01*
X12575622Y-13664061D01*
X12889908Y-13835489D02*
X12861337Y-13821204D01*
X12847051Y-13806918D01*
X12832765Y-13778346D01*
X12832765Y-13692632D01*
X12847051Y-13664061D01*
X12861337Y-13649775D01*
X12889908Y-13635489D01*
X12932765Y-13635489D01*
X12961337Y-13649775D01*
X12975622Y-13664061D01*
X12989908Y-13692632D01*
X12989908Y-13778346D01*
X12975622Y-13806918D01*
X12961337Y-13821204D01*
X12932765Y-13835489D01*
X12889908Y-13835489D01*
X13161337Y-13835489D02*
X13132765Y-13821204D01*
X13118479Y-13792632D01*
X13118479Y-13535489D01*
X13389908Y-13821204D02*
X13361337Y-13835489D01*
X13304194Y-13835489D01*
X13275622Y-13821204D01*
X13261337Y-13792632D01*
X13261337Y-13678346D01*
X13275622Y-13649775D01*
X13304194Y-13635489D01*
X13361337Y-13635489D01*
X13389908Y-13649775D01*
X13404194Y-13678346D01*
X13404194Y-13706918D01*
X13261337Y-13735489D01*
X13518479Y-13821204D02*
X13547051Y-13835489D01*
X13604194Y-13835489D01*
X13632765Y-13821204D01*
X13647051Y-13792632D01*
X13647051Y-13778346D01*
X13632765Y-13749775D01*
X13604194Y-13735489D01*
X13561337Y-13735489D01*
X13532765Y-13721204D01*
X13518479Y-13692632D01*
X13518479Y-13678346D01*
X13532765Y-13649775D01*
X13561337Y-13635489D01*
X13604194Y-13635489D01*
X13632765Y-13649775D01*
X13747051Y-13949775D02*
X13761337Y-13935489D01*
X13789908Y-13892632D01*
X13804194Y-13864061D01*
X13818479Y-13821204D01*
X13832765Y-13749775D01*
X13832765Y-13692632D01*
X13818479Y-13621204D01*
X13804194Y-13578346D01*
X13789908Y-13549775D01*
X13761337Y-13506918D01*
X13747051Y-13492632D01*
X14289908Y-13949775D02*
X14275622Y-13935489D01*
X14247051Y-13892632D01*
X14232765Y-13864061D01*
X14218479Y-13821204D01*
X14204194Y-13749775D01*
X14204194Y-13692632D01*
X14218479Y-13621204D01*
X14232765Y-13578346D01*
X14247051Y-13549775D01*
X14275622Y-13506918D01*
X14289908Y-13492632D01*
X14404194Y-13635489D02*
X14404194Y-13835489D01*
X14404194Y-13664061D02*
X14418479Y-13649775D01*
X14447051Y-13635489D01*
X14489908Y-13635489D01*
X14518479Y-13649775D01*
X14532765Y-13678346D01*
X14532765Y-13835489D01*
X14718479Y-13835489D02*
X14689908Y-13821204D01*
X14675622Y-13806918D01*
X14661337Y-13778346D01*
X14661337Y-13692632D01*
X14675622Y-13664061D01*
X14689908Y-13649775D01*
X14718479Y-13635489D01*
X14761337Y-13635489D01*
X14789908Y-13649775D01*
X14804194Y-13664061D01*
X14818479Y-13692632D01*
X14818479Y-13778346D01*
X14804194Y-13806918D01*
X14789908Y-13821204D01*
X14761337Y-13835489D01*
X14718479Y-13835489D01*
X14904194Y-13635489D02*
X15018479Y-13635489D01*
X14947051Y-13535489D02*
X14947051Y-13792632D01*
X14961337Y-13821204D01*
X14989908Y-13835489D01*
X15018479Y-13835489D01*
X15347051Y-13635489D02*
X15347051Y-13935489D01*
X15347051Y-13649775D02*
X15375622Y-13635489D01*
X15432765Y-13635489D01*
X15461337Y-13649775D01*
X15475622Y-13664061D01*
X15489908Y-13692632D01*
X15489908Y-13778346D01*
X15475622Y-13806918D01*
X15461337Y-13821204D01*
X15432765Y-13835489D01*
X15375622Y-13835489D01*
X15347051Y-13821204D01*
X15661337Y-13835489D02*
X15632765Y-13821204D01*
X15618479Y-13792632D01*
X15618479Y-13535489D01*
X15904194Y-13835489D02*
X15904194Y-13678346D01*
X15889908Y-13649775D01*
X15861337Y-13635489D01*
X15804194Y-13635489D01*
X15775622Y-13649775D01*
X15904194Y-13821204D02*
X15875622Y-13835489D01*
X15804194Y-13835489D01*
X15775622Y-13821204D01*
X15761337Y-13792632D01*
X15761337Y-13764061D01*
X15775622Y-13735489D01*
X15804194Y-13721204D01*
X15875622Y-13721204D01*
X15904194Y-13706918D01*
X16004194Y-13635489D02*
X16118479Y-13635489D01*
X16047051Y-13535489D02*
X16047051Y-13792632D01*
X16061337Y-13821204D01*
X16089908Y-13835489D01*
X16118479Y-13835489D01*
X16332765Y-13821204D02*
X16304194Y-13835489D01*
X16247051Y-13835489D01*
X16218479Y-13821204D01*
X16204194Y-13792632D01*
X16204194Y-13678346D01*
X16218479Y-13649775D01*
X16247051Y-13635489D01*
X16304194Y-13635489D01*
X16332765Y-13649775D01*
X16347051Y-13678346D01*
X16347051Y-13706918D01*
X16204194Y-13735489D01*
X16604194Y-13835489D02*
X16604194Y-13535489D01*
X16604194Y-13821204D02*
X16575622Y-13835489D01*
X16518479Y-13835489D01*
X16489908Y-13821204D01*
X16475622Y-13806918D01*
X16461337Y-13778346D01*
X16461337Y-13692632D01*
X16475622Y-13664061D01*
X16489908Y-13649775D01*
X16518479Y-13635489D01*
X16575622Y-13635489D01*
X16604194Y-13649775D01*
X16718479Y-13949775D02*
X16732765Y-13935489D01*
X16761337Y-13892632D01*
X16775622Y-13864061D01*
X16789908Y-13821204D01*
X16804194Y-13749775D01*
X16804194Y-13692632D01*
X16789908Y-13621204D01*
X16775622Y-13578346D01*
X16761337Y-13549775D01*
X16732765Y-13506918D01*
X16718479Y-13492632D01*
X7260622Y-14095775D02*
G75*
G03X7260622Y-14095775I-160000J0D01*
G01*
X7518479Y-13931489D02*
X7704194Y-13931489D01*
X7604194Y-14045775D01*
X7647051Y-14045775D01*
X7675622Y-14060061D01*
X7689908Y-14074346D01*
X7704194Y-14102918D01*
X7704194Y-14174346D01*
X7689908Y-14202918D01*
X7675622Y-14217204D01*
X7647051Y-14231489D01*
X7561337Y-14231489D01*
X7532765Y-14217204D01*
X7518479Y-14202918D01*
X7832765Y-14202918D02*
X7847051Y-14217204D01*
X7832765Y-14231489D01*
X7818479Y-14217204D01*
X7832765Y-14202918D01*
X7832765Y-14231489D01*
X7961337Y-13960061D02*
X7975622Y-13945775D01*
X8004194Y-13931489D01*
X8075622Y-13931489D01*
X8104194Y-13945775D01*
X8118479Y-13960061D01*
X8132765Y-13988632D01*
X8132765Y-14017204D01*
X8118479Y-14060061D01*
X7947051Y-14231489D01*
X8132765Y-14231489D01*
X8318479Y-13931489D02*
X8347051Y-13931489D01*
X8375622Y-13945775D01*
X8389908Y-13960061D01*
X8404194Y-13988632D01*
X8418480Y-14045775D01*
X8418480Y-14117204D01*
X8404194Y-14174346D01*
X8389908Y-14202918D01*
X8375622Y-14217204D01*
X8347051Y-14231489D01*
X8318479Y-14231489D01*
X8289908Y-14217204D01*
X8275622Y-14202918D01*
X8261337Y-14174346D01*
X8247051Y-14117204D01*
X8247051Y-14045775D01*
X8261337Y-13988632D01*
X8275622Y-13960061D01*
X8289908Y-13945775D01*
X8318479Y-13931489D01*
X8547051Y-14231489D02*
X8547051Y-14031489D01*
X8547051Y-14060061D02*
X8561337Y-14045775D01*
X8589908Y-14031489D01*
X8632765Y-14031489D01*
X8661337Y-14045775D01*
X8675622Y-14074346D01*
X8675622Y-14231489D01*
X8675622Y-14074346D02*
X8689908Y-14045775D01*
X8718480Y-14031489D01*
X8761337Y-14031489D01*
X8789908Y-14045775D01*
X8804194Y-14074346D01*
X8804194Y-14231489D01*
X8947051Y-14231489D02*
X8947051Y-14031489D01*
X8947051Y-14060061D02*
X8961337Y-14045775D01*
X8989908Y-14031489D01*
X9032765Y-14031489D01*
X9061337Y-14045775D01*
X9075622Y-14074346D01*
X9075622Y-14231489D01*
X9075622Y-14074346D02*
X9089908Y-14045775D01*
X9118480Y-14031489D01*
X9161337Y-14031489D01*
X9189908Y-14045775D01*
X9204194Y-14074346D01*
X9204194Y-14231489D01*
X9789908Y-13917204D02*
X9532765Y-14302918D01*
X10175622Y-13931489D02*
X10204194Y-13931489D01*
X10232765Y-13945775D01*
X10247051Y-13960061D01*
X10261337Y-13988632D01*
X10275622Y-14045775D01*
X10275622Y-14117204D01*
X10261337Y-14174346D01*
X10247051Y-14202918D01*
X10232765Y-14217204D01*
X10204194Y-14231489D01*
X10175622Y-14231489D01*
X10147051Y-14217204D01*
X10132765Y-14202918D01*
X10118480Y-14174346D01*
X10104194Y-14117204D01*
X10104194Y-14045775D01*
X10118480Y-13988632D01*
X10132765Y-13960061D01*
X10147051Y-13945775D01*
X10175622Y-13931489D01*
X10404194Y-14202918D02*
X10418480Y-14217204D01*
X10404194Y-14231489D01*
X10389908Y-14217204D01*
X10404194Y-14202918D01*
X10404194Y-14231489D01*
X10704194Y-14231489D02*
X10532765Y-14231489D01*
X10618480Y-14231489D02*
X10618480Y-13931489D01*
X10589908Y-13974346D01*
X10561337Y-14002918D01*
X10532765Y-14017204D01*
X10818480Y-13960061D02*
X10832765Y-13945775D01*
X10861337Y-13931489D01*
X10932765Y-13931489D01*
X10961337Y-13945775D01*
X10975622Y-13960061D01*
X10989908Y-13988632D01*
X10989908Y-14017204D01*
X10975622Y-14060061D01*
X10804194Y-14231489D01*
X10989908Y-14231489D01*
X11247051Y-13931489D02*
X11189908Y-13931489D01*
X11161337Y-13945775D01*
X11147051Y-13960061D01*
X11118480Y-14002918D01*
X11104194Y-14060061D01*
X11104194Y-14174346D01*
X11118480Y-14202918D01*
X11132765Y-14217204D01*
X11161337Y-14231489D01*
X11218479Y-14231489D01*
X11247051Y-14217204D01*
X11261337Y-14202918D01*
X11275622Y-14174346D01*
X11275622Y-14102918D01*
X11261337Y-14074346D01*
X11247051Y-14060061D01*
X11218479Y-14045775D01*
X11161337Y-14045775D01*
X11132765Y-14060061D01*
X11118480Y-14074346D01*
X11104194Y-14102918D01*
X11389908Y-13931489D02*
X11389908Y-13988632D01*
X11504194Y-13931489D02*
X11504194Y-13988632D01*
X11947051Y-14345775D02*
X11932765Y-14331489D01*
X11904194Y-14288632D01*
X11889908Y-14260061D01*
X11875622Y-14217204D01*
X11861337Y-14145775D01*
X11861337Y-14088632D01*
X11875622Y-14017204D01*
X11889908Y-13974346D01*
X11904194Y-13945775D01*
X11932765Y-13902918D01*
X11947051Y-13888632D01*
X12032765Y-13931489D02*
X12232765Y-13931489D01*
X12104194Y-14231489D01*
X12575622Y-14231489D02*
X12575622Y-13931489D01*
X12704194Y-14231489D02*
X12704194Y-14074346D01*
X12689908Y-14045775D01*
X12661337Y-14031489D01*
X12618479Y-14031489D01*
X12589908Y-14045775D01*
X12575622Y-14060061D01*
X12889908Y-14231489D02*
X12861337Y-14217204D01*
X12847051Y-14202918D01*
X12832765Y-14174346D01*
X12832765Y-14088632D01*
X12847051Y-14060061D01*
X12861337Y-14045775D01*
X12889908Y-14031489D01*
X12932765Y-14031489D01*
X12961337Y-14045775D01*
X12975622Y-14060061D01*
X12989908Y-14088632D01*
X12989908Y-14174346D01*
X12975622Y-14202918D01*
X12961337Y-14217204D01*
X12932765Y-14231489D01*
X12889908Y-14231489D01*
X13161337Y-14231489D02*
X13132765Y-14217204D01*
X13118479Y-14188632D01*
X13118479Y-13931489D01*
X13389908Y-14217204D02*
X13361337Y-14231489D01*
X13304194Y-14231489D01*
X13275622Y-14217204D01*
X13261337Y-14188632D01*
X13261337Y-14074346D01*
X13275622Y-14045775D01*
X13304194Y-14031489D01*
X13361337Y-14031489D01*
X13389908Y-14045775D01*
X13404194Y-14074346D01*
X13404194Y-14102918D01*
X13261337Y-14131489D01*
X13518479Y-14217204D02*
X13547051Y-14231489D01*
X13604194Y-14231489D01*
X13632765Y-14217204D01*
X13647051Y-14188632D01*
X13647051Y-14174346D01*
X13632765Y-14145775D01*
X13604194Y-14131489D01*
X13561337Y-14131489D01*
X13532765Y-14117204D01*
X13518479Y-14088632D01*
X13518479Y-14074346D01*
X13532765Y-14045775D01*
X13561337Y-14031489D01*
X13604194Y-14031489D01*
X13632765Y-14045775D01*
X13747051Y-14345775D02*
X13761337Y-14331489D01*
X13789908Y-14288632D01*
X13804194Y-14260061D01*
X13818479Y-14217204D01*
X13832765Y-14145775D01*
X13832765Y-14088632D01*
X13818479Y-14017204D01*
X13804194Y-13974346D01*
X13789908Y-13945775D01*
X13761337Y-13902918D01*
X13747051Y-13888632D01*
X14289908Y-14345775D02*
X14275622Y-14331489D01*
X14247051Y-14288632D01*
X14232765Y-14260061D01*
X14218479Y-14217204D01*
X14204194Y-14145775D01*
X14204194Y-14088632D01*
X14218479Y-14017204D01*
X14232765Y-13974346D01*
X14247051Y-13945775D01*
X14275622Y-13902918D01*
X14289908Y-13888632D01*
X14404194Y-14031489D02*
X14404194Y-14231489D01*
X14404194Y-14060061D02*
X14418479Y-14045775D01*
X14447051Y-14031489D01*
X14489908Y-14031489D01*
X14518479Y-14045775D01*
X14532765Y-14074346D01*
X14532765Y-14231489D01*
X14718479Y-14231489D02*
X14689908Y-14217204D01*
X14675622Y-14202918D01*
X14661337Y-14174346D01*
X14661337Y-14088632D01*
X14675622Y-14060061D01*
X14689908Y-14045775D01*
X14718479Y-14031489D01*
X14761337Y-14031489D01*
X14789908Y-14045775D01*
X14804194Y-14060061D01*
X14818479Y-14088632D01*
X14818479Y-14174346D01*
X14804194Y-14202918D01*
X14789908Y-14217204D01*
X14761337Y-14231489D01*
X14718479Y-14231489D01*
X14904194Y-14031489D02*
X15018479Y-14031489D01*
X14947051Y-13931489D02*
X14947051Y-14188632D01*
X14961337Y-14217204D01*
X14989908Y-14231489D01*
X15018479Y-14231489D01*
X15347051Y-14031489D02*
X15347051Y-14331489D01*
X15347051Y-14045775D02*
X15375622Y-14031489D01*
X15432765Y-14031489D01*
X15461337Y-14045775D01*
X15475622Y-14060061D01*
X15489908Y-14088632D01*
X15489908Y-14174346D01*
X15475622Y-14202918D01*
X15461337Y-14217204D01*
X15432765Y-14231489D01*
X15375622Y-14231489D01*
X15347051Y-14217204D01*
X15661337Y-14231489D02*
X15632765Y-14217204D01*
X15618479Y-14188632D01*
X15618479Y-13931489D01*
X15904194Y-14231489D02*
X15904194Y-14074346D01*
X15889908Y-14045775D01*
X15861337Y-14031489D01*
X15804194Y-14031489D01*
X15775622Y-14045775D01*
X15904194Y-14217204D02*
X15875622Y-14231489D01*
X15804194Y-14231489D01*
X15775622Y-14217204D01*
X15761337Y-14188632D01*
X15761337Y-14160061D01*
X15775622Y-14131489D01*
X15804194Y-14117204D01*
X15875622Y-14117204D01*
X15904194Y-14102918D01*
X16004194Y-14031489D02*
X16118479Y-14031489D01*
X16047051Y-13931489D02*
X16047051Y-14188632D01*
X16061337Y-14217204D01*
X16089908Y-14231489D01*
X16118479Y-14231489D01*
X16332765Y-14217204D02*
X16304194Y-14231489D01*
X16247051Y-14231489D01*
X16218479Y-14217204D01*
X16204194Y-14188632D01*
X16204194Y-14074346D01*
X16218479Y-14045775D01*
X16247051Y-14031489D01*
X16304194Y-14031489D01*
X16332765Y-14045775D01*
X16347051Y-14074346D01*
X16347051Y-14102918D01*
X16204194Y-14131489D01*
X16604194Y-14231489D02*
X16604194Y-13931489D01*
X16604194Y-14217204D02*
X16575622Y-14231489D01*
X16518479Y-14231489D01*
X16489908Y-14217204D01*
X16475622Y-14202918D01*
X16461337Y-14174346D01*
X16461337Y-14088632D01*
X16475622Y-14060061D01*
X16489908Y-14045775D01*
X16518479Y-14031489D01*
X16575622Y-14031489D01*
X16604194Y-14045775D01*
X16718479Y-14345775D02*
X16732765Y-14331489D01*
X16761337Y-14288632D01*
X16775622Y-14260061D01*
X16789908Y-14217204D01*
X16804194Y-14145775D01*
X16804194Y-14088632D01*
X16789908Y-14017204D01*
X16775622Y-13974346D01*
X16761337Y-13945775D01*
X16732765Y-13902918D01*
X16718479Y-13888632D01*
M02*
