M48
;DRILL file {KiCad (2016-12-18 revision 3ffa37c)-master} date Tuesday, February 07, 2017 'PMt' 09:51:09 PM
;FORMAT={2:4/ absolute / inch / suppress leading zeros}
FMAT,2
INCH,TZ
T1C0.016
T2C0.020
T3C0.026
T4C0.031
T5C0.035
T6C0.039
T7C0.040
T8C0.035
T9C0.126
%
G90
G05
M72
T1
X41790Y-39523
X41833Y-36555
X44254Y-32555
X44292Y-38723
X44669Y-34302
X45168Y-38072
X45573Y-30553
X46087Y-34448
X46196Y-38360
X46247Y-30055
X46604Y-22052
X47080Y-38731
X47968Y-48627
X48182Y-21098
X48419Y-31796
X48854Y-28357
X49563Y-35369
X50047Y-37377
X50325Y-41999
X50823Y-41749
X52230Y-33790
X53635Y-35843
X54059Y-35249
X54162Y-39816
X54476Y-35596
X54924Y-36449
X55024Y-36764
X55516Y-36776
X55578Y-41029
X55590Y-26100
X56023Y-35420
X56476Y-38725
X56478Y-36028
X56683Y-32408
X56780Y-42165
X56823Y-37387
X56854Y-34591
X57039Y-36816
X57423Y-32692
X57902Y-37454
X58319Y-39367
X58374Y-36985
X58535Y-39658
X58860Y-33046
X58890Y-36170
X59559Y-32702
X59764Y-31951
X60018Y-26068
X60346Y-37091
X60366Y-33473
X60720Y-27111
X60755Y-35641
X60755Y-36985
X60906Y-33721
X61016Y-32938
X61066Y-36317
X61205Y-35169
X61331Y-32643
X61870Y-34442
X62010Y-47771
X62312Y-35217
X62583Y-38973
X63122Y-32367
X63220Y-34109
X64008Y-34394
X64008Y-35044
X64579Y-48839
X64787Y-40881
X64997Y-40004
X65041Y-33036
X65332Y-26107
X65823Y-39678
X65858Y-27223
X67127Y-27878
X67263Y-22394
X68201Y-46748
X68548Y-42672
X69122Y-31053
X69283Y-37181
X69289Y-23020
X69912Y-42492
X70426Y-43440
X70447Y-34525
X70598Y-40220
X70783Y-39182
X70823Y-43696
X71672Y-34768
X71673Y-37237
X74010Y-28654
X74033Y-33117
X74461Y-42600
X74850Y-23352
X74955Y-28485
X74955Y-36885
X74981Y-47481
X81114Y-34158
T3
X53220Y-43166
X53220Y-43666
X53720Y-43166
X53720Y-43666
X54220Y-43166
X54220Y-43666
X54720Y-43166
X54720Y-43666
X55220Y-43166
X55220Y-43666
T4
X47059Y-42426
X48161Y-42426
X48161Y-43371
X49421Y-42426
X49421Y-43371
X50602Y-42426
X50602Y-43371
X58969Y-28351
X76255Y-41185
X81855Y-38385
X83555Y-38385
T5
X81469Y-30221
X84461Y-30221
T6
X49894Y-33233
X49894Y-34080
X49894Y-34926
T7
X41102Y-25055
X41102Y-26055
X41102Y-27055
X41102Y-28055
X41102Y-29055
X41102Y-30055
X41102Y-31055
X41102Y-32055
X41102Y-33055
X41102Y-34055
X41102Y-35055
X41102Y-36055
X41102Y-37055
X41102Y-38055
X41102Y-39055
X41102Y-40055
X41102Y-41055
X41102Y-42055
X41102Y-43055
X41102Y-44055
X42102Y-25055
X42102Y-26055
X42102Y-27055
X42102Y-28055
X42102Y-29055
X42102Y-30055
X42102Y-31055
X42102Y-32055
X42102Y-33055
X42102Y-34055
X42102Y-35055
X42102Y-36055
X42102Y-37055
X42102Y-38055
X42102Y-39055
X42102Y-40055
X42102Y-41055
X42102Y-42055
X42102Y-43055
X42102Y-44055
X56823Y-43410
X57823Y-43410
X58823Y-43410
X59823Y-43410
X60823Y-43410
X61823Y-43410
X74461Y-45339
X75461Y-45339
X76461Y-45339
T8
X41646Y-48853
X42827Y-48853
T9
X30055Y-35085
X41154Y-21560
X45406Y-23528
X45406Y-45536
X71587Y-23489
X71587Y-45536
X76193Y-21560
T2
X72374Y-49532G85X72374Y-49257
G05
X74972Y-49532G85X74972Y-49257
G05
T0
M30
