G04 #@! TF.GenerationSoftware,KiCad,Pcbnew,(2016-12-18 revision 3ffa37c)-master*
G04 #@! TF.CreationDate,2017-02-07T02:28:39-08:00*
G04 #@! TF.ProjectId,badge-kicad,62616467652D6B696361642E6B696361,rev?*
G04 #@! TF.FileFunction,Legend,Bot*
G04 #@! TF.FilePolarity,Positive*
%FSLAX46Y46*%
G04 Gerber Fmt 4.6, Leading zero omitted, Abs format (unit mm)*
G04 Created by KiCad (PCBNEW (2016-12-18 revision 3ffa37c)-master) date Tuesday, February 07, 2017 'AMt' 02:28:39 AM*
%MOMM*%
%LPD*%
G01*
G04 APERTURE LIST*
%ADD10C,0.150000*%
%ADD11C,0.300000*%
%ADD12C,0.200000*%
%ADD13C,0.127000*%
%ADD14C,0.007620*%
%ADD15C,0.152400*%
G04 APERTURE END LIST*
D10*
D11*
X215399285Y-72119142D02*
X215185000Y-72190571D01*
X214827857Y-72190571D01*
X214685000Y-72119142D01*
X214613571Y-72047714D01*
X214542142Y-71904857D01*
X214542142Y-71762000D01*
X214613571Y-71619142D01*
X214685000Y-71547714D01*
X214827857Y-71476285D01*
X215113571Y-71404857D01*
X215256428Y-71333428D01*
X215327857Y-71262000D01*
X215399285Y-71119142D01*
X215399285Y-70976285D01*
X215327857Y-70833428D01*
X215256428Y-70762000D01*
X215113571Y-70690571D01*
X214756428Y-70690571D01*
X214542142Y-70762000D01*
X213899285Y-72190571D02*
X213899285Y-70690571D01*
X213327857Y-70690571D01*
X213185000Y-70762000D01*
X213113571Y-70833428D01*
X213042142Y-70976285D01*
X213042142Y-71190571D01*
X213113571Y-71333428D01*
X213185000Y-71404857D01*
X213327857Y-71476285D01*
X213899285Y-71476285D01*
X211399285Y-72333428D02*
X211542142Y-72262000D01*
X211685000Y-72119142D01*
X211899285Y-71904857D01*
X212042142Y-71833428D01*
X212185000Y-71833428D01*
X212113571Y-72190571D02*
X212256428Y-72119142D01*
X212399285Y-71976285D01*
X212470714Y-71690571D01*
X212470714Y-71190571D01*
X212399285Y-70904857D01*
X212256428Y-70762000D01*
X212113571Y-70690571D01*
X211827857Y-70690571D01*
X211685000Y-70762000D01*
X211542142Y-70904857D01*
X211470714Y-71190571D01*
X211470714Y-71690571D01*
X211542142Y-71976285D01*
X211685000Y-72119142D01*
X211827857Y-72190571D01*
X212113571Y-72190571D01*
X209970714Y-72190571D02*
X210470714Y-71476285D01*
X210827857Y-72190571D02*
X210827857Y-70690571D01*
X210256428Y-70690571D01*
X210113571Y-70762000D01*
X210042142Y-70833428D01*
X209970714Y-70976285D01*
X209970714Y-71190571D01*
X210042142Y-71333428D01*
X210113571Y-71404857D01*
X210256428Y-71476285D01*
X210827857Y-71476285D01*
X208185000Y-71619142D02*
X207042142Y-71619142D01*
X205399285Y-70690571D02*
X204542142Y-70690571D01*
X204970714Y-72190571D02*
X204970714Y-70690571D01*
X204042142Y-72190571D02*
X204042142Y-70690571D01*
X203399285Y-72190571D02*
X203399285Y-71404857D01*
X203470714Y-71262000D01*
X203613571Y-71190571D01*
X203827857Y-71190571D01*
X203970714Y-71262000D01*
X204042142Y-71333428D01*
X202113571Y-72119142D02*
X202256428Y-72190571D01*
X202542142Y-72190571D01*
X202685000Y-72119142D01*
X202756428Y-71976285D01*
X202756428Y-71404857D01*
X202685000Y-71262000D01*
X202542142Y-71190571D01*
X202256428Y-71190571D01*
X202113571Y-71262000D01*
X202042142Y-71404857D01*
X202042142Y-71547714D01*
X202756428Y-71690571D01*
X200256428Y-72190571D02*
X200256428Y-70690571D01*
X198899285Y-72190571D02*
X198899285Y-70690571D01*
X198899285Y-72119142D02*
X199042142Y-72190571D01*
X199327857Y-72190571D01*
X199470714Y-72119142D01*
X199542142Y-72047714D01*
X199613571Y-71904857D01*
X199613571Y-71476285D01*
X199542142Y-71333428D01*
X199470714Y-71262000D01*
X199327857Y-71190571D01*
X199042142Y-71190571D01*
X198899285Y-71262000D01*
X197613571Y-72119142D02*
X197756428Y-72190571D01*
X198042142Y-72190571D01*
X198185000Y-72119142D01*
X198256428Y-71976285D01*
X198256428Y-71404857D01*
X198185000Y-71262000D01*
X198042142Y-71190571D01*
X197756428Y-71190571D01*
X197613571Y-71262000D01*
X197542142Y-71404857D01*
X197542142Y-71547714D01*
X198256428Y-71690571D01*
X196970714Y-72119142D02*
X196827857Y-72190571D01*
X196542142Y-72190571D01*
X196399285Y-72119142D01*
X196327857Y-71976285D01*
X196327857Y-71904857D01*
X196399285Y-71762000D01*
X196542142Y-71690571D01*
X196756428Y-71690571D01*
X196899285Y-71619142D01*
X196970714Y-71476285D01*
X196970714Y-71404857D01*
X196899285Y-71262000D01*
X196756428Y-71190571D01*
X196542142Y-71190571D01*
X196399285Y-71262000D01*
X194327857Y-72190571D02*
X194470714Y-72119142D01*
X194542142Y-72047714D01*
X194613571Y-71904857D01*
X194613571Y-71476285D01*
X194542142Y-71333428D01*
X194470714Y-71262000D01*
X194327857Y-71190571D01*
X194113571Y-71190571D01*
X193970714Y-71262000D01*
X193899285Y-71333428D01*
X193827857Y-71476285D01*
X193827857Y-71904857D01*
X193899285Y-72047714D01*
X193970714Y-72119142D01*
X194113571Y-72190571D01*
X194327857Y-72190571D01*
X193399285Y-71190571D02*
X192827857Y-71190571D01*
X193185000Y-72190571D02*
X193185000Y-70904857D01*
X193113571Y-70762000D01*
X192970714Y-70690571D01*
X192827857Y-70690571D01*
X191185000Y-72190571D02*
X191185000Y-70690571D01*
X190685000Y-71762000D01*
X190185000Y-70690571D01*
X190185000Y-72190571D01*
X188827857Y-72190571D02*
X188827857Y-71404857D01*
X188899285Y-71262000D01*
X189042142Y-71190571D01*
X189327857Y-71190571D01*
X189470714Y-71262000D01*
X188827857Y-72119142D02*
X188970714Y-72190571D01*
X189327857Y-72190571D01*
X189470714Y-72119142D01*
X189542142Y-71976285D01*
X189542142Y-71833428D01*
X189470714Y-71690571D01*
X189327857Y-71619142D01*
X188970714Y-71619142D01*
X188827857Y-71547714D01*
X188113571Y-72190571D02*
X188113571Y-71190571D01*
X188113571Y-71476285D02*
X188042142Y-71333428D01*
X187970714Y-71262000D01*
X187827857Y-71190571D01*
X187685000Y-71190571D01*
X186542142Y-72119142D02*
X186685000Y-72190571D01*
X186970714Y-72190571D01*
X187113571Y-72119142D01*
X187185000Y-72047714D01*
X187256428Y-71904857D01*
X187256428Y-71476285D01*
X187185000Y-71333428D01*
X187113571Y-71262000D01*
X186970714Y-71190571D01*
X186685000Y-71190571D01*
X186542142Y-71262000D01*
X185899285Y-72190571D02*
X185899285Y-70690571D01*
X185256428Y-72190571D02*
X185256428Y-71404857D01*
X185327857Y-71262000D01*
X185470714Y-71190571D01*
X185685000Y-71190571D01*
X185827857Y-71262000D01*
X185899285Y-71333428D01*
X183399285Y-71619142D02*
X182256428Y-71619142D01*
X179542142Y-72190571D02*
X180042142Y-71476285D01*
X180399285Y-72190571D02*
X180399285Y-70690571D01*
X179827857Y-70690571D01*
X179685000Y-70762000D01*
X179613571Y-70833428D01*
X179542142Y-70976285D01*
X179542142Y-71190571D01*
X179613571Y-71333428D01*
X179685000Y-71404857D01*
X179827857Y-71476285D01*
X180399285Y-71476285D01*
X178327857Y-72119142D02*
X178470714Y-72190571D01*
X178756428Y-72190571D01*
X178899285Y-72119142D01*
X178970714Y-71976285D01*
X178970714Y-71404857D01*
X178899285Y-71262000D01*
X178756428Y-71190571D01*
X178470714Y-71190571D01*
X178327857Y-71262000D01*
X178256428Y-71404857D01*
X178256428Y-71547714D01*
X178970714Y-71690571D01*
X177756428Y-71190571D02*
X177399285Y-72190571D01*
X177042142Y-71190571D01*
X176470714Y-72190571D02*
X176470714Y-71190571D01*
X176470714Y-70690571D02*
X176542142Y-70762000D01*
X176470714Y-70833428D01*
X176399285Y-70762000D01*
X176470714Y-70690571D01*
X176470714Y-70833428D01*
X175827857Y-72119142D02*
X175685000Y-72190571D01*
X175399285Y-72190571D01*
X175256428Y-72119142D01*
X175185000Y-71976285D01*
X175185000Y-71904857D01*
X175256428Y-71762000D01*
X175399285Y-71690571D01*
X175613571Y-71690571D01*
X175756428Y-71619142D01*
X175827857Y-71476285D01*
X175827857Y-71404857D01*
X175756428Y-71262000D01*
X175613571Y-71190571D01*
X175399285Y-71190571D01*
X175256428Y-71262000D01*
X174542142Y-72190571D02*
X174542142Y-71190571D01*
X174542142Y-70690571D02*
X174613571Y-70762000D01*
X174542142Y-70833428D01*
X174470714Y-70762000D01*
X174542142Y-70690571D01*
X174542142Y-70833428D01*
X173613571Y-72190571D02*
X173756428Y-72119142D01*
X173827857Y-72047714D01*
X173899285Y-71904857D01*
X173899285Y-71476285D01*
X173827857Y-71333428D01*
X173756428Y-71262000D01*
X173613571Y-71190571D01*
X173399285Y-71190571D01*
X173256428Y-71262000D01*
X173185000Y-71333428D01*
X173113571Y-71476285D01*
X173113571Y-71904857D01*
X173185000Y-72047714D01*
X173256428Y-72119142D01*
X173399285Y-72190571D01*
X173613571Y-72190571D01*
X172470714Y-71190571D02*
X172470714Y-72190571D01*
X172470714Y-71333428D02*
X172399285Y-71262000D01*
X172256428Y-71190571D01*
X172042142Y-71190571D01*
X171899285Y-71262000D01*
X171827857Y-71404857D01*
X171827857Y-72190571D01*
X170042142Y-70833428D02*
X169970714Y-70762000D01*
X169827857Y-70690571D01*
X169470714Y-70690571D01*
X169327857Y-70762000D01*
X169256428Y-70833428D01*
X169185000Y-70976285D01*
X169185000Y-71119142D01*
X169256428Y-71333428D01*
X170113571Y-72190571D01*
X169185000Y-72190571D01*
X215327857Y-74740571D02*
X215327857Y-73240571D01*
X214970714Y-73240571D01*
X214756428Y-73312000D01*
X214613571Y-73454857D01*
X214542142Y-73597714D01*
X214470714Y-73883428D01*
X214470714Y-74097714D01*
X214542142Y-74383428D01*
X214613571Y-74526285D01*
X214756428Y-74669142D01*
X214970714Y-74740571D01*
X215327857Y-74740571D01*
X213827857Y-73954857D02*
X213327857Y-73954857D01*
X213113571Y-74740571D02*
X213827857Y-74740571D01*
X213827857Y-73240571D01*
X213113571Y-73240571D01*
X211970714Y-73954857D02*
X212470714Y-73954857D01*
X212470714Y-74740571D02*
X212470714Y-73240571D01*
X211756428Y-73240571D01*
X210327857Y-74597714D02*
X210399285Y-74669142D01*
X210613571Y-74740571D01*
X210756428Y-74740571D01*
X210970714Y-74669142D01*
X211113571Y-74526285D01*
X211185000Y-74383428D01*
X211256428Y-74097714D01*
X211256428Y-73883428D01*
X211185000Y-73597714D01*
X211113571Y-73454857D01*
X210970714Y-73312000D01*
X210756428Y-73240571D01*
X210613571Y-73240571D01*
X210399285Y-73312000D01*
X210327857Y-73383428D01*
X209399285Y-73240571D02*
X209113571Y-73240571D01*
X208970714Y-73312000D01*
X208827857Y-73454857D01*
X208756428Y-73740571D01*
X208756428Y-74240571D01*
X208827857Y-74526285D01*
X208970714Y-74669142D01*
X209113571Y-74740571D01*
X209399285Y-74740571D01*
X209542142Y-74669142D01*
X209685000Y-74526285D01*
X209756428Y-74240571D01*
X209756428Y-73740571D01*
X209685000Y-73454857D01*
X209542142Y-73312000D01*
X209399285Y-73240571D01*
X208113571Y-74740571D02*
X208113571Y-73240571D01*
X207256428Y-74740571D01*
X207256428Y-73240571D01*
X205470714Y-73383428D02*
X205399285Y-73312000D01*
X205256428Y-73240571D01*
X204899285Y-73240571D01*
X204756428Y-73312000D01*
X204685000Y-73383428D01*
X204613571Y-73526285D01*
X204613571Y-73669142D01*
X204685000Y-73883428D01*
X205542142Y-74740571D01*
X204613571Y-74740571D01*
X203256428Y-73240571D02*
X203970714Y-73240571D01*
X204042142Y-73954857D01*
X203970714Y-73883428D01*
X203827857Y-73812000D01*
X203470714Y-73812000D01*
X203327857Y-73883428D01*
X203256428Y-73954857D01*
X203185000Y-74097714D01*
X203185000Y-74454857D01*
X203256428Y-74597714D01*
X203327857Y-74669142D01*
X203470714Y-74740571D01*
X203827857Y-74740571D01*
X203970714Y-74669142D01*
X204042142Y-74597714D01*
X200970714Y-75312000D02*
X201042142Y-75240571D01*
X201185000Y-75026285D01*
X201256428Y-74883428D01*
X201327857Y-74669142D01*
X201399285Y-74312000D01*
X201399285Y-74026285D01*
X201327857Y-73669142D01*
X201256428Y-73454857D01*
X201185000Y-73312000D01*
X201042142Y-73097714D01*
X200970714Y-73026285D01*
X200470714Y-73383428D02*
X200399285Y-73312000D01*
X200256428Y-73240571D01*
X199899285Y-73240571D01*
X199756428Y-73312000D01*
X199685000Y-73383428D01*
X199613571Y-73526285D01*
X199613571Y-73669142D01*
X199685000Y-73883428D01*
X200542142Y-74740571D01*
X199613571Y-74740571D01*
X198685000Y-73240571D02*
X198542142Y-73240571D01*
X198399285Y-73312000D01*
X198327857Y-73383428D01*
X198256428Y-73526285D01*
X198185000Y-73812000D01*
X198185000Y-74169142D01*
X198256428Y-74454857D01*
X198327857Y-74597714D01*
X198399285Y-74669142D01*
X198542142Y-74740571D01*
X198685000Y-74740571D01*
X198827857Y-74669142D01*
X198899285Y-74597714D01*
X198970714Y-74454857D01*
X199042142Y-74169142D01*
X199042142Y-73812000D01*
X198970714Y-73526285D01*
X198899285Y-73383428D01*
X198827857Y-73312000D01*
X198685000Y-73240571D01*
X196756428Y-74740571D02*
X197613571Y-74740571D01*
X197185000Y-74740571D02*
X197185000Y-73240571D01*
X197327857Y-73454857D01*
X197470714Y-73597714D01*
X197613571Y-73669142D01*
X196256428Y-73240571D02*
X195256428Y-73240571D01*
X195899285Y-74740571D01*
X194827857Y-75312000D02*
X194756428Y-75240571D01*
X194613571Y-75026285D01*
X194542142Y-74883428D01*
X194470714Y-74669142D01*
X194399285Y-74312000D01*
X194399285Y-74026285D01*
X194470714Y-73669142D01*
X194542142Y-73454857D01*
X194613571Y-73312000D01*
X194756428Y-73097714D01*
X194827857Y-73026285D01*
X214899285Y-78340571D02*
X214899285Y-79412000D01*
X214970714Y-79626285D01*
X215113571Y-79769142D01*
X215327857Y-79840571D01*
X215470714Y-79840571D01*
X213970714Y-79840571D02*
X214113571Y-79769142D01*
X214185000Y-79697714D01*
X214256428Y-79554857D01*
X214256428Y-79126285D01*
X214185000Y-78983428D01*
X214113571Y-78912000D01*
X213970714Y-78840571D01*
X213756428Y-78840571D01*
X213613571Y-78912000D01*
X213542142Y-78983428D01*
X213470714Y-79126285D01*
X213470714Y-79554857D01*
X213542142Y-79697714D01*
X213613571Y-79769142D01*
X213756428Y-79840571D01*
X213970714Y-79840571D01*
X212827857Y-79840571D02*
X212827857Y-78340571D01*
X212185000Y-79840571D02*
X212185000Y-79054857D01*
X212256428Y-78912000D01*
X212399285Y-78840571D01*
X212613571Y-78840571D01*
X212756428Y-78912000D01*
X212827857Y-78983428D01*
X211470714Y-78840571D02*
X211470714Y-79840571D01*
X211470714Y-78983428D02*
X211399285Y-78912000D01*
X211256428Y-78840571D01*
X211042142Y-78840571D01*
X210899285Y-78912000D01*
X210827857Y-79054857D01*
X210827857Y-79840571D01*
X209042142Y-79412000D02*
X208327857Y-79412000D01*
X209185000Y-79840571D02*
X208685000Y-78340571D01*
X208185000Y-79840571D01*
X207042142Y-79840571D02*
X207042142Y-78340571D01*
X207042142Y-79769142D02*
X207185000Y-79840571D01*
X207470714Y-79840571D01*
X207613571Y-79769142D01*
X207685000Y-79697714D01*
X207756428Y-79554857D01*
X207756428Y-79126285D01*
X207685000Y-78983428D01*
X207613571Y-78912000D01*
X207470714Y-78840571D01*
X207185000Y-78840571D01*
X207042142Y-78912000D01*
X205685000Y-79840571D02*
X205685000Y-79054857D01*
X205756428Y-78912000D01*
X205899285Y-78840571D01*
X206185000Y-78840571D01*
X206327857Y-78912000D01*
X205685000Y-79769142D02*
X205827857Y-79840571D01*
X206185000Y-79840571D01*
X206327857Y-79769142D01*
X206399285Y-79626285D01*
X206399285Y-79483428D01*
X206327857Y-79340571D01*
X206185000Y-79269142D01*
X205827857Y-79269142D01*
X205685000Y-79197714D01*
X204970714Y-79840571D02*
X204970714Y-78840571D01*
X204970714Y-78983428D02*
X204899285Y-78912000D01*
X204756428Y-78840571D01*
X204542142Y-78840571D01*
X204399285Y-78912000D01*
X204327857Y-79054857D01*
X204327857Y-79840571D01*
X204327857Y-79054857D02*
X204256428Y-78912000D01*
X204113571Y-78840571D01*
X203899285Y-78840571D01*
X203756428Y-78912000D01*
X203685000Y-79054857D01*
X203685000Y-79840571D01*
X203042142Y-79769142D02*
X202899285Y-79840571D01*
X202613571Y-79840571D01*
X202470714Y-79769142D01*
X202399285Y-79626285D01*
X202399285Y-79554857D01*
X202470714Y-79412000D01*
X202613571Y-79340571D01*
X202827857Y-79340571D01*
X202970714Y-79269142D01*
X203042142Y-79126285D01*
X203042142Y-79054857D01*
X202970714Y-78912000D01*
X202827857Y-78840571D01*
X202613571Y-78840571D01*
X202470714Y-78912000D01*
X199685000Y-79126285D02*
X199756428Y-79054857D01*
X199899285Y-78983428D01*
X200042142Y-78983428D01*
X200185000Y-79054857D01*
X200256428Y-79126285D01*
X200327857Y-79269142D01*
X200327857Y-79412000D01*
X200256428Y-79554857D01*
X200185000Y-79626285D01*
X200042142Y-79697714D01*
X199899285Y-79697714D01*
X199756428Y-79626285D01*
X199685000Y-79554857D01*
X199685000Y-78983428D02*
X199685000Y-79554857D01*
X199613571Y-79626285D01*
X199542142Y-79626285D01*
X199399285Y-79554857D01*
X199327857Y-79412000D01*
X199327857Y-79054857D01*
X199470714Y-78840571D01*
X199685000Y-78697714D01*
X199970714Y-78626285D01*
X200256428Y-78697714D01*
X200470714Y-78840571D01*
X200613571Y-79054857D01*
X200685000Y-79340571D01*
X200613571Y-79626285D01*
X200470714Y-79840571D01*
X200256428Y-79983428D01*
X199970714Y-80054857D01*
X199685000Y-79983428D01*
X199470714Y-79840571D01*
X198685000Y-78840571D02*
X198685000Y-79840571D01*
X198685000Y-78983428D02*
X198613571Y-78912000D01*
X198470714Y-78840571D01*
X198256428Y-78840571D01*
X198113571Y-78912000D01*
X198042142Y-79054857D01*
X198042142Y-79840571D01*
X196756428Y-79769142D02*
X196899285Y-79840571D01*
X197185000Y-79840571D01*
X197327857Y-79769142D01*
X197399285Y-79626285D01*
X197399285Y-79054857D01*
X197327857Y-78912000D01*
X197185000Y-78840571D01*
X196899285Y-78840571D01*
X196756428Y-78912000D01*
X196685000Y-79054857D01*
X196685000Y-79197714D01*
X197399285Y-79340571D01*
X196256428Y-78840571D02*
X195685000Y-78840571D01*
X196042142Y-78340571D02*
X196042142Y-79626285D01*
X195970714Y-79769142D01*
X195827857Y-79840571D01*
X195685000Y-79840571D01*
X195185000Y-79840571D02*
X195185000Y-78840571D01*
X195185000Y-78340571D02*
X195256428Y-78412000D01*
X195185000Y-78483428D01*
X195113571Y-78412000D01*
X195185000Y-78340571D01*
X195185000Y-78483428D01*
X194470714Y-79840571D02*
X194470714Y-78340571D01*
X194327857Y-79269142D02*
X193899285Y-79840571D01*
X193899285Y-78840571D02*
X194470714Y-79412000D01*
X191685000Y-80412000D02*
X191756428Y-80340571D01*
X191899285Y-80126285D01*
X191970714Y-79983428D01*
X192042142Y-79769142D01*
X192113571Y-79412000D01*
X192113571Y-79126285D01*
X192042142Y-78769142D01*
X191970714Y-78554857D01*
X191899285Y-78412000D01*
X191756428Y-78197714D01*
X191685000Y-78126285D01*
X191113571Y-79840571D02*
X191113571Y-78340571D01*
X190542142Y-78340571D01*
X190399285Y-78412000D01*
X190327857Y-78483428D01*
X190256428Y-78626285D01*
X190256428Y-78840571D01*
X190327857Y-78983428D01*
X190399285Y-79054857D01*
X190542142Y-79126285D01*
X191113571Y-79126285D01*
X188756428Y-79697714D02*
X188827857Y-79769142D01*
X189042142Y-79840571D01*
X189185000Y-79840571D01*
X189399285Y-79769142D01*
X189542142Y-79626285D01*
X189613571Y-79483428D01*
X189685000Y-79197714D01*
X189685000Y-78983428D01*
X189613571Y-78697714D01*
X189542142Y-78554857D01*
X189399285Y-78412000D01*
X189185000Y-78340571D01*
X189042142Y-78340571D01*
X188827857Y-78412000D01*
X188756428Y-78483428D01*
X187613571Y-79054857D02*
X187399285Y-79126285D01*
X187327857Y-79197714D01*
X187256428Y-79340571D01*
X187256428Y-79554857D01*
X187327857Y-79697714D01*
X187399285Y-79769142D01*
X187542142Y-79840571D01*
X188113571Y-79840571D01*
X188113571Y-78340571D01*
X187613571Y-78340571D01*
X187470714Y-78412000D01*
X187399285Y-78483428D01*
X187327857Y-78626285D01*
X187327857Y-78769142D01*
X187399285Y-78912000D01*
X187470714Y-78983428D01*
X187613571Y-79054857D01*
X188113571Y-79054857D01*
X186542142Y-79769142D02*
X186542142Y-79840571D01*
X186613571Y-79983428D01*
X186685000Y-80054857D01*
X184756428Y-79840571D02*
X184756428Y-78340571D01*
X184756428Y-79054857D02*
X183899285Y-79054857D01*
X183899285Y-79840571D02*
X183899285Y-78340571D01*
X183327857Y-78340571D02*
X182970714Y-79840571D01*
X182685000Y-78769142D01*
X182399285Y-79840571D01*
X182042142Y-78340571D01*
X181399285Y-79769142D02*
X181399285Y-79840571D01*
X181470714Y-79983428D01*
X181542142Y-80054857D01*
X179685000Y-79769142D02*
X179470714Y-79840571D01*
X179113571Y-79840571D01*
X178970714Y-79769142D01*
X178899285Y-79697714D01*
X178827857Y-79554857D01*
X178827857Y-79412000D01*
X178899285Y-79269142D01*
X178970714Y-79197714D01*
X179113571Y-79126285D01*
X179399285Y-79054857D01*
X179542142Y-78983428D01*
X179613571Y-78912000D01*
X179685000Y-78769142D01*
X179685000Y-78626285D01*
X179613571Y-78483428D01*
X179542142Y-78412000D01*
X179399285Y-78340571D01*
X179042142Y-78340571D01*
X178827857Y-78412000D01*
X178327857Y-78340571D02*
X177970714Y-79840571D01*
X177685000Y-78769142D01*
X177399285Y-79840571D01*
X177042142Y-78340571D01*
X176613571Y-80412000D02*
X176542142Y-80340571D01*
X176399285Y-80126285D01*
X176327857Y-79983428D01*
X176256428Y-79769142D01*
X176185000Y-79412000D01*
X176185000Y-79126285D01*
X176256428Y-78769142D01*
X176327857Y-78554857D01*
X176399285Y-78412000D01*
X176542142Y-78197714D01*
X176613571Y-78126285D01*
X214827857Y-81604857D02*
X214613571Y-81676285D01*
X214542142Y-81747714D01*
X214470714Y-81890571D01*
X214470714Y-82104857D01*
X214542142Y-82247714D01*
X214613571Y-82319142D01*
X214756428Y-82390571D01*
X215327857Y-82390571D01*
X215327857Y-80890571D01*
X214827857Y-80890571D01*
X214685000Y-80962000D01*
X214613571Y-81033428D01*
X214542142Y-81176285D01*
X214542142Y-81319142D01*
X214613571Y-81462000D01*
X214685000Y-81533428D01*
X214827857Y-81604857D01*
X215327857Y-81604857D01*
X213827857Y-82390571D02*
X213827857Y-81390571D01*
X213827857Y-80890571D02*
X213899285Y-80962000D01*
X213827857Y-81033428D01*
X213756428Y-80962000D01*
X213827857Y-80890571D01*
X213827857Y-81033428D01*
X212899285Y-82390571D02*
X213042142Y-82319142D01*
X213113571Y-82176285D01*
X213113571Y-80890571D01*
X212113571Y-82390571D02*
X212256428Y-82319142D01*
X212327857Y-82176285D01*
X212327857Y-80890571D01*
X210399285Y-82390571D02*
X210399285Y-80890571D01*
X209827857Y-80890571D01*
X209685000Y-80962000D01*
X209613571Y-81033428D01*
X209542142Y-81176285D01*
X209542142Y-81390571D01*
X209613571Y-81533428D01*
X209685000Y-81604857D01*
X209827857Y-81676285D01*
X210399285Y-81676285D01*
X208256428Y-82390571D02*
X208256428Y-81604857D01*
X208327857Y-81462000D01*
X208470714Y-81390571D01*
X208756428Y-81390571D01*
X208899285Y-81462000D01*
X208256428Y-82319142D02*
X208399285Y-82390571D01*
X208756428Y-82390571D01*
X208899285Y-82319142D01*
X208970714Y-82176285D01*
X208970714Y-82033428D01*
X208899285Y-81890571D01*
X208756428Y-81819142D01*
X208399285Y-81819142D01*
X208256428Y-81747714D01*
X206899285Y-81390571D02*
X206899285Y-82390571D01*
X207542142Y-81390571D02*
X207542142Y-82176285D01*
X207470714Y-82319142D01*
X207327857Y-82390571D01*
X207113571Y-82390571D01*
X206970714Y-82319142D01*
X206899285Y-82247714D01*
X205970714Y-82390571D02*
X206113571Y-82319142D01*
X206185000Y-82176285D01*
X206185000Y-80890571D01*
X203827857Y-82962000D02*
X203899285Y-82890571D01*
X204042142Y-82676285D01*
X204113571Y-82533428D01*
X204185000Y-82319142D01*
X204256428Y-81962000D01*
X204256428Y-81676285D01*
X204185000Y-81319142D01*
X204113571Y-81104857D01*
X204042142Y-80962000D01*
X203899285Y-80747714D01*
X203827857Y-80676285D01*
X203256428Y-82390571D02*
X203256428Y-80890571D01*
X202899285Y-80890571D01*
X202685000Y-80962000D01*
X202542142Y-81104857D01*
X202470714Y-81247714D01*
X202399285Y-81533428D01*
X202399285Y-81747714D01*
X202470714Y-82033428D01*
X202542142Y-82176285D01*
X202685000Y-82319142D01*
X202899285Y-82390571D01*
X203256428Y-82390571D01*
X201756428Y-82390571D02*
X201756428Y-81390571D01*
X201756428Y-81676285D02*
X201685000Y-81533428D01*
X201613571Y-81462000D01*
X201470714Y-81390571D01*
X201327857Y-81390571D01*
X200827857Y-82390571D02*
X200827857Y-81390571D01*
X200827857Y-80890571D02*
X200899285Y-80962000D01*
X200827857Y-81033428D01*
X200756428Y-80962000D01*
X200827857Y-80890571D01*
X200827857Y-81033428D01*
X200256428Y-81390571D02*
X199899285Y-82390571D01*
X199542142Y-81390571D01*
X198399285Y-82319142D02*
X198542142Y-82390571D01*
X198827857Y-82390571D01*
X198970714Y-82319142D01*
X199042142Y-82176285D01*
X199042142Y-81604857D01*
X198970714Y-81462000D01*
X198827857Y-81390571D01*
X198542142Y-81390571D01*
X198399285Y-81462000D01*
X198327857Y-81604857D01*
X198327857Y-81747714D01*
X199042142Y-81890571D01*
X197685000Y-82390571D02*
X197685000Y-81390571D01*
X197685000Y-81676285D02*
X197613571Y-81533428D01*
X197542142Y-81462000D01*
X197399285Y-81390571D01*
X197256428Y-81390571D01*
X196827857Y-82319142D02*
X196685000Y-82390571D01*
X196399285Y-82390571D01*
X196256428Y-82319142D01*
X196185000Y-82176285D01*
X196185000Y-82104857D01*
X196256428Y-81962000D01*
X196399285Y-81890571D01*
X196613571Y-81890571D01*
X196756428Y-81819142D01*
X196827857Y-81676285D01*
X196827857Y-81604857D01*
X196756428Y-81462000D01*
X196613571Y-81390571D01*
X196399285Y-81390571D01*
X196256428Y-81462000D01*
X195470714Y-82319142D02*
X195470714Y-82390571D01*
X195542142Y-82533428D01*
X195613571Y-82604857D01*
X193185000Y-81604857D02*
X192970714Y-81676285D01*
X192899285Y-81747714D01*
X192827857Y-81890571D01*
X192827857Y-82104857D01*
X192899285Y-82247714D01*
X192970714Y-82319142D01*
X193113571Y-82390571D01*
X193685000Y-82390571D01*
X193685000Y-80890571D01*
X193185000Y-80890571D01*
X193042142Y-80962000D01*
X192970714Y-81033428D01*
X192899285Y-81176285D01*
X192899285Y-81319142D01*
X192970714Y-81462000D01*
X193042142Y-81533428D01*
X193185000Y-81604857D01*
X193685000Y-81604857D01*
X191970714Y-82390571D02*
X192113571Y-82319142D01*
X192185000Y-82247714D01*
X192256428Y-82104857D01*
X192256428Y-81676285D01*
X192185000Y-81533428D01*
X192113571Y-81462000D01*
X191970714Y-81390571D01*
X191756428Y-81390571D01*
X191613571Y-81462000D01*
X191542142Y-81533428D01*
X191470714Y-81676285D01*
X191470714Y-82104857D01*
X191542142Y-82247714D01*
X191613571Y-82319142D01*
X191756428Y-82390571D01*
X191970714Y-82390571D01*
X190185000Y-82390571D02*
X190185000Y-81604857D01*
X190256428Y-81462000D01*
X190399285Y-81390571D01*
X190685000Y-81390571D01*
X190827857Y-81462000D01*
X190185000Y-82319142D02*
X190327857Y-82390571D01*
X190685000Y-82390571D01*
X190827857Y-82319142D01*
X190899285Y-82176285D01*
X190899285Y-82033428D01*
X190827857Y-81890571D01*
X190685000Y-81819142D01*
X190327857Y-81819142D01*
X190185000Y-81747714D01*
X189470714Y-82390571D02*
X189470714Y-81390571D01*
X189470714Y-81676285D02*
X189399285Y-81533428D01*
X189327857Y-81462000D01*
X189185000Y-81390571D01*
X189042142Y-81390571D01*
X187899285Y-82390571D02*
X187899285Y-80890571D01*
X187899285Y-82319142D02*
X188042142Y-82390571D01*
X188327857Y-82390571D01*
X188470714Y-82319142D01*
X188542142Y-82247714D01*
X188613571Y-82104857D01*
X188613571Y-81676285D01*
X188542142Y-81533428D01*
X188470714Y-81462000D01*
X188327857Y-81390571D01*
X188042142Y-81390571D01*
X187899285Y-81462000D01*
X186042142Y-82390571D02*
X186042142Y-80890571D01*
X186042142Y-81462000D02*
X185899285Y-81390571D01*
X185613571Y-81390571D01*
X185470714Y-81462000D01*
X185399285Y-81533428D01*
X185327857Y-81676285D01*
X185327857Y-82104857D01*
X185399285Y-82247714D01*
X185470714Y-82319142D01*
X185613571Y-82390571D01*
X185899285Y-82390571D01*
X186042142Y-82319142D01*
X184685000Y-82390571D02*
X184685000Y-81390571D01*
X184685000Y-81676285D02*
X184613571Y-81533428D01*
X184542142Y-81462000D01*
X184399285Y-81390571D01*
X184256428Y-81390571D01*
X183756428Y-82390571D02*
X183756428Y-81390571D01*
X183756428Y-80890571D02*
X183827857Y-80962000D01*
X183756428Y-81033428D01*
X183685000Y-80962000D01*
X183756428Y-80890571D01*
X183756428Y-81033428D01*
X183042142Y-81390571D02*
X183042142Y-82390571D01*
X183042142Y-81533428D02*
X182970714Y-81462000D01*
X182827857Y-81390571D01*
X182613571Y-81390571D01*
X182470714Y-81462000D01*
X182399285Y-81604857D01*
X182399285Y-82390571D01*
X181042142Y-81390571D02*
X181042142Y-82604857D01*
X181113571Y-82747714D01*
X181185000Y-82819142D01*
X181327857Y-82890571D01*
X181542142Y-82890571D01*
X181685000Y-82819142D01*
X181042142Y-82319142D02*
X181185000Y-82390571D01*
X181470714Y-82390571D01*
X181613571Y-82319142D01*
X181685000Y-82247714D01*
X181756428Y-82104857D01*
X181756428Y-81676285D01*
X181685000Y-81533428D01*
X181613571Y-81462000D01*
X181470714Y-81390571D01*
X181185000Y-81390571D01*
X181042142Y-81462000D01*
X179685000Y-81390571D02*
X179685000Y-82390571D01*
X180327857Y-81390571D02*
X180327857Y-82176285D01*
X180256428Y-82319142D01*
X180113571Y-82390571D01*
X179899285Y-82390571D01*
X179756428Y-82319142D01*
X179685000Y-82247714D01*
X178970714Y-81390571D02*
X178970714Y-82890571D01*
X178970714Y-81462000D02*
X178827857Y-81390571D01*
X178542142Y-81390571D01*
X178399285Y-81462000D01*
X178327857Y-81533428D01*
X178256428Y-81676285D01*
X178256428Y-82104857D01*
X178327857Y-82247714D01*
X178399285Y-82319142D01*
X178542142Y-82390571D01*
X178827857Y-82390571D01*
X178970714Y-82319142D01*
X177542142Y-82319142D02*
X177542142Y-82390571D01*
X177613571Y-82533428D01*
X177685000Y-82604857D01*
X175756428Y-82390571D02*
X175756428Y-80890571D01*
X175756428Y-81604857D02*
X174899285Y-81604857D01*
X174899285Y-82390571D02*
X174899285Y-80890571D01*
X174327857Y-80890571D02*
X173970714Y-82390571D01*
X173685000Y-81319142D01*
X173399285Y-82390571D01*
X173042142Y-80890571D01*
X171399285Y-82319142D02*
X171185000Y-82390571D01*
X170827857Y-82390571D01*
X170685000Y-82319142D01*
X170613571Y-82247714D01*
X170542142Y-82104857D01*
X170542142Y-81962000D01*
X170613571Y-81819142D01*
X170685000Y-81747714D01*
X170827857Y-81676285D01*
X171113571Y-81604857D01*
X171256428Y-81533428D01*
X171327857Y-81462000D01*
X171399285Y-81319142D01*
X171399285Y-81176285D01*
X171327857Y-81033428D01*
X171256428Y-80962000D01*
X171113571Y-80890571D01*
X170756428Y-80890571D01*
X170542142Y-80962000D01*
X170042142Y-80890571D02*
X169685000Y-82390571D01*
X169399285Y-81319142D01*
X169113571Y-82390571D01*
X168756428Y-80890571D01*
X168327857Y-82962000D02*
X168256428Y-82890571D01*
X168113571Y-82676285D01*
X168042142Y-82533428D01*
X167970714Y-82319142D01*
X167899285Y-81962000D01*
X167899285Y-81676285D01*
X167970714Y-81319142D01*
X168042142Y-81104857D01*
X168113571Y-80962000D01*
X168256428Y-80747714D01*
X168327857Y-80676285D01*
X215327857Y-84154857D02*
X214827857Y-84154857D01*
X214613571Y-84940571D02*
X215327857Y-84940571D01*
X215327857Y-83440571D01*
X214613571Y-83440571D01*
X213327857Y-83940571D02*
X213327857Y-85154857D01*
X213399285Y-85297714D01*
X213470714Y-85369142D01*
X213613571Y-85440571D01*
X213827857Y-85440571D01*
X213970714Y-85369142D01*
X213327857Y-84869142D02*
X213470714Y-84940571D01*
X213756428Y-84940571D01*
X213899285Y-84869142D01*
X213970714Y-84797714D01*
X214042142Y-84654857D01*
X214042142Y-84226285D01*
X213970714Y-84083428D01*
X213899285Y-84012000D01*
X213756428Y-83940571D01*
X213470714Y-83940571D01*
X213327857Y-84012000D01*
X211970714Y-84940571D02*
X211970714Y-84154857D01*
X212042142Y-84012000D01*
X212185000Y-83940571D01*
X212470714Y-83940571D01*
X212613571Y-84012000D01*
X211970714Y-84869142D02*
X212113571Y-84940571D01*
X212470714Y-84940571D01*
X212613571Y-84869142D01*
X212685000Y-84726285D01*
X212685000Y-84583428D01*
X212613571Y-84440571D01*
X212470714Y-84369142D01*
X212113571Y-84369142D01*
X211970714Y-84297714D01*
X211256428Y-83940571D02*
X211256428Y-84940571D01*
X211256428Y-84083428D02*
X211185000Y-84012000D01*
X211042142Y-83940571D01*
X210827857Y-83940571D01*
X210685000Y-84012000D01*
X210613571Y-84154857D01*
X210613571Y-84940571D01*
X208756428Y-84940571D02*
X208756428Y-83440571D01*
X208756428Y-84154857D02*
X207899285Y-84154857D01*
X207899285Y-84940571D02*
X207899285Y-83440571D01*
X207185000Y-84940571D02*
X207185000Y-83940571D01*
X207185000Y-83440571D02*
X207256428Y-83512000D01*
X207185000Y-83583428D01*
X207113571Y-83512000D01*
X207185000Y-83440571D01*
X207185000Y-83583428D01*
X206470714Y-84940571D02*
X206470714Y-83940571D01*
X206470714Y-84226285D02*
X206399285Y-84083428D01*
X206327857Y-84012000D01*
X206185000Y-83940571D01*
X206042142Y-83940571D01*
X205685000Y-83940571D02*
X205327857Y-84940571D01*
X204970714Y-83940571D01*
X203827857Y-84869142D02*
X203970714Y-84940571D01*
X204256428Y-84940571D01*
X204399285Y-84869142D01*
X204470714Y-84726285D01*
X204470714Y-84154857D01*
X204399285Y-84012000D01*
X204256428Y-83940571D01*
X203970714Y-83940571D01*
X203827857Y-84012000D01*
X203756428Y-84154857D01*
X203756428Y-84297714D01*
X204470714Y-84440571D01*
X202899285Y-84940571D02*
X203042142Y-84869142D01*
X203113571Y-84726285D01*
X203113571Y-83440571D01*
X201685000Y-84940571D02*
X201685000Y-84154857D01*
X201756428Y-84012000D01*
X201899285Y-83940571D01*
X202185000Y-83940571D01*
X202327857Y-84012000D01*
X201685000Y-84869142D02*
X201827857Y-84940571D01*
X202185000Y-84940571D01*
X202327857Y-84869142D01*
X202399285Y-84726285D01*
X202399285Y-84583428D01*
X202327857Y-84440571D01*
X202185000Y-84369142D01*
X201827857Y-84369142D01*
X201685000Y-84297714D01*
X199399285Y-85512000D02*
X199470714Y-85440571D01*
X199613571Y-85226285D01*
X199685000Y-85083428D01*
X199756428Y-84869142D01*
X199827857Y-84512000D01*
X199827857Y-84226285D01*
X199756428Y-83869142D01*
X199685000Y-83654857D01*
X199613571Y-83512000D01*
X199470714Y-83297714D01*
X199399285Y-83226285D01*
X198042142Y-83512000D02*
X198185000Y-83440571D01*
X198399285Y-83440571D01*
X198613571Y-83512000D01*
X198756428Y-83654857D01*
X198827857Y-83797714D01*
X198899285Y-84083428D01*
X198899285Y-84297714D01*
X198827857Y-84583428D01*
X198756428Y-84726285D01*
X198613571Y-84869142D01*
X198399285Y-84940571D01*
X198256428Y-84940571D01*
X198042142Y-84869142D01*
X197970714Y-84797714D01*
X197970714Y-84297714D01*
X198256428Y-84297714D01*
X196685000Y-84940571D02*
X196685000Y-84154857D01*
X196756428Y-84012000D01*
X196899285Y-83940571D01*
X197185000Y-83940571D01*
X197327857Y-84012000D01*
X196685000Y-84869142D02*
X196827857Y-84940571D01*
X197185000Y-84940571D01*
X197327857Y-84869142D01*
X197399285Y-84726285D01*
X197399285Y-84583428D01*
X197327857Y-84440571D01*
X197185000Y-84369142D01*
X196827857Y-84369142D01*
X196685000Y-84297714D01*
X195970714Y-84940571D02*
X195970714Y-83940571D01*
X195970714Y-84083428D02*
X195899285Y-84012000D01*
X195756428Y-83940571D01*
X195542142Y-83940571D01*
X195399285Y-84012000D01*
X195327857Y-84154857D01*
X195327857Y-84940571D01*
X195327857Y-84154857D02*
X195256428Y-84012000D01*
X195113571Y-83940571D01*
X194899285Y-83940571D01*
X194756428Y-84012000D01*
X194685000Y-84154857D01*
X194685000Y-84940571D01*
X193399285Y-84869142D02*
X193542142Y-84940571D01*
X193827857Y-84940571D01*
X193970714Y-84869142D01*
X194042142Y-84726285D01*
X194042142Y-84154857D01*
X193970714Y-84012000D01*
X193827857Y-83940571D01*
X193542142Y-83940571D01*
X193399285Y-84012000D01*
X193327857Y-84154857D01*
X193327857Y-84297714D01*
X194042142Y-84440571D01*
X191542142Y-84940571D02*
X191542142Y-83440571D01*
X191042142Y-84512000D01*
X190542142Y-83440571D01*
X190542142Y-84940571D01*
X189256428Y-84869142D02*
X189399285Y-84940571D01*
X189685000Y-84940571D01*
X189827857Y-84869142D01*
X189899285Y-84726285D01*
X189899285Y-84154857D01*
X189827857Y-84012000D01*
X189685000Y-83940571D01*
X189399285Y-83940571D01*
X189256428Y-84012000D01*
X189185000Y-84154857D01*
X189185000Y-84297714D01*
X189899285Y-84440571D01*
X187899285Y-84869142D02*
X188042142Y-84940571D01*
X188327857Y-84940571D01*
X188470714Y-84869142D01*
X188542142Y-84797714D01*
X188613571Y-84654857D01*
X188613571Y-84226285D01*
X188542142Y-84083428D01*
X188470714Y-84012000D01*
X188327857Y-83940571D01*
X188042142Y-83940571D01*
X187899285Y-84012000D01*
X187256428Y-84940571D02*
X187256428Y-83440571D01*
X186613571Y-84940571D02*
X186613571Y-84154857D01*
X186685000Y-84012000D01*
X186827857Y-83940571D01*
X187042142Y-83940571D01*
X187185000Y-84012000D01*
X187256428Y-84083428D01*
X185256428Y-84940571D02*
X185256428Y-84154857D01*
X185327857Y-84012000D01*
X185470714Y-83940571D01*
X185756428Y-83940571D01*
X185899285Y-84012000D01*
X185256428Y-84869142D02*
X185399285Y-84940571D01*
X185756428Y-84940571D01*
X185899285Y-84869142D01*
X185970714Y-84726285D01*
X185970714Y-84583428D01*
X185899285Y-84440571D01*
X185756428Y-84369142D01*
X185399285Y-84369142D01*
X185256428Y-84297714D01*
X184542142Y-83940571D02*
X184542142Y-84940571D01*
X184542142Y-84083428D02*
X184470714Y-84012000D01*
X184327857Y-83940571D01*
X184113571Y-83940571D01*
X183970714Y-84012000D01*
X183899285Y-84154857D01*
X183899285Y-84940571D01*
X183185000Y-84940571D02*
X183185000Y-83940571D01*
X183185000Y-83440571D02*
X183256428Y-83512000D01*
X183185000Y-83583428D01*
X183113571Y-83512000D01*
X183185000Y-83440571D01*
X183185000Y-83583428D01*
X181827857Y-84869142D02*
X181970714Y-84940571D01*
X182256428Y-84940571D01*
X182399285Y-84869142D01*
X182470714Y-84797714D01*
X182542142Y-84654857D01*
X182542142Y-84226285D01*
X182470714Y-84083428D01*
X182399285Y-84012000D01*
X182256428Y-83940571D01*
X181970714Y-83940571D01*
X181827857Y-84012000D01*
X181256428Y-84869142D02*
X181113571Y-84940571D01*
X180827857Y-84940571D01*
X180685000Y-84869142D01*
X180613571Y-84726285D01*
X180613571Y-84654857D01*
X180685000Y-84512000D01*
X180827857Y-84440571D01*
X181042142Y-84440571D01*
X181185000Y-84369142D01*
X181256428Y-84226285D01*
X181256428Y-84154857D01*
X181185000Y-84012000D01*
X181042142Y-83940571D01*
X180827857Y-83940571D01*
X180685000Y-84012000D01*
X180113571Y-85512000D02*
X180042142Y-85440571D01*
X179899285Y-85226285D01*
X179827857Y-85083428D01*
X179756428Y-84869142D01*
X179685000Y-84512000D01*
X179685000Y-84226285D01*
X179756428Y-83869142D01*
X179827857Y-83654857D01*
X179899285Y-83512000D01*
X180042142Y-83297714D01*
X180113571Y-83226285D01*
X215327857Y-87490571D02*
X215327857Y-85990571D01*
X214827857Y-87062000D01*
X214327857Y-85990571D01*
X214327857Y-87490571D01*
X212970714Y-87490571D02*
X212970714Y-86704857D01*
X213042142Y-86562000D01*
X213185000Y-86490571D01*
X213470714Y-86490571D01*
X213613571Y-86562000D01*
X212970714Y-87419142D02*
X213113571Y-87490571D01*
X213470714Y-87490571D01*
X213613571Y-87419142D01*
X213685000Y-87276285D01*
X213685000Y-87133428D01*
X213613571Y-86990571D01*
X213470714Y-86919142D01*
X213113571Y-86919142D01*
X212970714Y-86847714D01*
X212470714Y-86490571D02*
X211899285Y-86490571D01*
X212256428Y-85990571D02*
X212256428Y-87276285D01*
X212185000Y-87419142D01*
X212042142Y-87490571D01*
X211899285Y-87490571D01*
X211613571Y-86490571D02*
X211042142Y-86490571D01*
X211399285Y-85990571D02*
X211399285Y-87276285D01*
X211327857Y-87419142D01*
X211185000Y-87490571D01*
X211042142Y-87490571D01*
X210542142Y-87490571D02*
X210542142Y-85990571D01*
X209899285Y-87490571D02*
X209899285Y-86704857D01*
X209970714Y-86562000D01*
X210113571Y-86490571D01*
X210327857Y-86490571D01*
X210470714Y-86562000D01*
X210542142Y-86633428D01*
X208613571Y-87419142D02*
X208756428Y-87490571D01*
X209042142Y-87490571D01*
X209185000Y-87419142D01*
X209256428Y-87276285D01*
X209256428Y-86704857D01*
X209185000Y-86562000D01*
X209042142Y-86490571D01*
X208756428Y-86490571D01*
X208613571Y-86562000D01*
X208542142Y-86704857D01*
X208542142Y-86847714D01*
X209256428Y-86990571D01*
X208042142Y-86490571D02*
X207756428Y-87490571D01*
X207470714Y-86776285D01*
X207185000Y-87490571D01*
X206899285Y-86490571D01*
X205185000Y-87490571D02*
X205185000Y-85990571D01*
X205185000Y-86704857D02*
X204327857Y-86704857D01*
X204327857Y-87490571D02*
X204327857Y-85990571D01*
X202970714Y-87490571D02*
X202970714Y-86704857D01*
X203042142Y-86562000D01*
X203185000Y-86490571D01*
X203470714Y-86490571D01*
X203613571Y-86562000D01*
X202970714Y-87419142D02*
X203113571Y-87490571D01*
X203470714Y-87490571D01*
X203613571Y-87419142D01*
X203685000Y-87276285D01*
X203685000Y-87133428D01*
X203613571Y-86990571D01*
X203470714Y-86919142D01*
X203113571Y-86919142D01*
X202970714Y-86847714D01*
X202256428Y-87490571D02*
X202256428Y-86490571D01*
X202256428Y-86776285D02*
X202185000Y-86633428D01*
X202113571Y-86562000D01*
X201970714Y-86490571D01*
X201827857Y-86490571D01*
X201327857Y-87490571D02*
X201327857Y-86490571D01*
X201327857Y-86776285D02*
X201256428Y-86633428D01*
X201185000Y-86562000D01*
X201042142Y-86490571D01*
X200899285Y-86490571D01*
X200399285Y-87490571D02*
X200399285Y-86490571D01*
X200399285Y-85990571D02*
X200470714Y-86062000D01*
X200399285Y-86133428D01*
X200327857Y-86062000D01*
X200399285Y-85990571D01*
X200399285Y-86133428D01*
X199756428Y-87419142D02*
X199613571Y-87490571D01*
X199327857Y-87490571D01*
X199185000Y-87419142D01*
X199113571Y-87276285D01*
X199113571Y-87204857D01*
X199185000Y-87062000D01*
X199327857Y-86990571D01*
X199542142Y-86990571D01*
X199685000Y-86919142D01*
X199756428Y-86776285D01*
X199756428Y-86704857D01*
X199685000Y-86562000D01*
X199542142Y-86490571D01*
X199327857Y-86490571D01*
X199185000Y-86562000D01*
X196899285Y-88062000D02*
X196970714Y-87990571D01*
X197113571Y-87776285D01*
X197185000Y-87633428D01*
X197256428Y-87419142D01*
X197327857Y-87062000D01*
X197327857Y-86776285D01*
X197256428Y-86419142D01*
X197185000Y-86204857D01*
X197113571Y-86062000D01*
X196970714Y-85847714D01*
X196899285Y-85776285D01*
X196399285Y-87062000D02*
X195685000Y-87062000D01*
X196542142Y-87490571D02*
X196042142Y-85990571D01*
X195542142Y-87490571D01*
X195042142Y-87490571D02*
X195042142Y-86490571D01*
X195042142Y-86776285D02*
X194970714Y-86633428D01*
X194899285Y-86562000D01*
X194756428Y-86490571D01*
X194613571Y-86490571D01*
X194327857Y-86490571D02*
X193756428Y-86490571D01*
X194113571Y-85990571D02*
X194113571Y-87276285D01*
X194042142Y-87419142D01*
X193899285Y-87490571D01*
X193756428Y-87490571D01*
X193185000Y-87419142D02*
X193185000Y-87490571D01*
X193256428Y-87633428D01*
X193327857Y-87704857D01*
X190542142Y-87347714D02*
X190613571Y-87419142D01*
X190827857Y-87490571D01*
X190970714Y-87490571D01*
X191185000Y-87419142D01*
X191327857Y-87276285D01*
X191399285Y-87133428D01*
X191470714Y-86847714D01*
X191470714Y-86633428D01*
X191399285Y-86347714D01*
X191327857Y-86204857D01*
X191185000Y-86062000D01*
X190970714Y-85990571D01*
X190827857Y-85990571D01*
X190613571Y-86062000D01*
X190542142Y-86133428D01*
X189899285Y-87490571D02*
X189899285Y-85990571D01*
X189256428Y-87490571D02*
X189256428Y-86704857D01*
X189327857Y-86562000D01*
X189470714Y-86490571D01*
X189685000Y-86490571D01*
X189827857Y-86562000D01*
X189899285Y-86633428D01*
X187899285Y-87490571D02*
X187899285Y-86704857D01*
X187970714Y-86562000D01*
X188113571Y-86490571D01*
X188399285Y-86490571D01*
X188542142Y-86562000D01*
X187899285Y-87419142D02*
X188042142Y-87490571D01*
X188399285Y-87490571D01*
X188542142Y-87419142D01*
X188613571Y-87276285D01*
X188613571Y-87133428D01*
X188542142Y-86990571D01*
X188399285Y-86919142D01*
X188042142Y-86919142D01*
X187899285Y-86847714D01*
X187185000Y-87490571D02*
X187185000Y-86490571D01*
X187185000Y-86776285D02*
X187113571Y-86633428D01*
X187042142Y-86562000D01*
X186899285Y-86490571D01*
X186756428Y-86490571D01*
X185613571Y-87490571D02*
X185613571Y-86704857D01*
X185685000Y-86562000D01*
X185827857Y-86490571D01*
X186113571Y-86490571D01*
X186256428Y-86562000D01*
X185613571Y-87419142D02*
X185756428Y-87490571D01*
X186113571Y-87490571D01*
X186256428Y-87419142D01*
X186327857Y-87276285D01*
X186327857Y-87133428D01*
X186256428Y-86990571D01*
X186113571Y-86919142D01*
X185756428Y-86919142D01*
X185613571Y-86847714D01*
X184256428Y-87419142D02*
X184399285Y-87490571D01*
X184685000Y-87490571D01*
X184827857Y-87419142D01*
X184899285Y-87347714D01*
X184970714Y-87204857D01*
X184970714Y-86776285D01*
X184899285Y-86633428D01*
X184827857Y-86562000D01*
X184685000Y-86490571D01*
X184399285Y-86490571D01*
X184256428Y-86562000D01*
X183827857Y-86490571D02*
X183256428Y-86490571D01*
X183613571Y-85990571D02*
X183613571Y-87276285D01*
X183542142Y-87419142D01*
X183399285Y-87490571D01*
X183256428Y-87490571D01*
X182185000Y-87419142D02*
X182327857Y-87490571D01*
X182613571Y-87490571D01*
X182756428Y-87419142D01*
X182827857Y-87276285D01*
X182827857Y-86704857D01*
X182756428Y-86562000D01*
X182613571Y-86490571D01*
X182327857Y-86490571D01*
X182185000Y-86562000D01*
X182113571Y-86704857D01*
X182113571Y-86847714D01*
X182827857Y-86990571D01*
X181470714Y-87490571D02*
X181470714Y-86490571D01*
X181470714Y-86776285D02*
X181399285Y-86633428D01*
X181327857Y-86562000D01*
X181185000Y-86490571D01*
X181042142Y-86490571D01*
X179399285Y-87490571D02*
X179399285Y-85990571D01*
X179042142Y-85990571D01*
X178827857Y-86062000D01*
X178685000Y-86204857D01*
X178613571Y-86347714D01*
X178542142Y-86633428D01*
X178542142Y-86847714D01*
X178613571Y-87133428D01*
X178685000Y-87276285D01*
X178827857Y-87419142D01*
X179042142Y-87490571D01*
X179399285Y-87490571D01*
X177327857Y-87419142D02*
X177470714Y-87490571D01*
X177756428Y-87490571D01*
X177899285Y-87419142D01*
X177970714Y-87276285D01*
X177970714Y-86704857D01*
X177899285Y-86562000D01*
X177756428Y-86490571D01*
X177470714Y-86490571D01*
X177327857Y-86562000D01*
X177256428Y-86704857D01*
X177256428Y-86847714D01*
X177970714Y-86990571D01*
X176685000Y-87419142D02*
X176542142Y-87490571D01*
X176256428Y-87490571D01*
X176113571Y-87419142D01*
X176042142Y-87276285D01*
X176042142Y-87204857D01*
X176113571Y-87062000D01*
X176256428Y-86990571D01*
X176470714Y-86990571D01*
X176613571Y-86919142D01*
X176685000Y-86776285D01*
X176685000Y-86704857D01*
X176613571Y-86562000D01*
X176470714Y-86490571D01*
X176256428Y-86490571D01*
X176113571Y-86562000D01*
X175399285Y-87490571D02*
X175399285Y-86490571D01*
X175399285Y-85990571D02*
X175470714Y-86062000D01*
X175399285Y-86133428D01*
X175327857Y-86062000D01*
X175399285Y-85990571D01*
X175399285Y-86133428D01*
X174042142Y-86490571D02*
X174042142Y-87704857D01*
X174113571Y-87847714D01*
X174185000Y-87919142D01*
X174327857Y-87990571D01*
X174542142Y-87990571D01*
X174685000Y-87919142D01*
X174042142Y-87419142D02*
X174185000Y-87490571D01*
X174470714Y-87490571D01*
X174613571Y-87419142D01*
X174685000Y-87347714D01*
X174756428Y-87204857D01*
X174756428Y-86776285D01*
X174685000Y-86633428D01*
X174613571Y-86562000D01*
X174470714Y-86490571D01*
X174185000Y-86490571D01*
X174042142Y-86562000D01*
X173327857Y-86490571D02*
X173327857Y-87490571D01*
X173327857Y-86633428D02*
X173256428Y-86562000D01*
X173113571Y-86490571D01*
X172899285Y-86490571D01*
X172756428Y-86562000D01*
X172685000Y-86704857D01*
X172685000Y-87490571D01*
X172113571Y-88062000D02*
X172042142Y-87990571D01*
X171899285Y-87776285D01*
X171827857Y-87633428D01*
X171756428Y-87419142D01*
X171685000Y-87062000D01*
X171685000Y-86776285D01*
X171756428Y-86419142D01*
X171827857Y-86204857D01*
X171899285Y-86062000D01*
X172042142Y-85847714D01*
X172113571Y-85776285D01*
X214827857Y-91804857D02*
X214613571Y-91876285D01*
X214542142Y-91947714D01*
X214470714Y-92090571D01*
X214470714Y-92304857D01*
X214542142Y-92447714D01*
X214613571Y-92519142D01*
X214756428Y-92590571D01*
X215327857Y-92590571D01*
X215327857Y-91090571D01*
X214827857Y-91090571D01*
X214685000Y-91162000D01*
X214613571Y-91233428D01*
X214542142Y-91376285D01*
X214542142Y-91519142D01*
X214613571Y-91662000D01*
X214685000Y-91733428D01*
X214827857Y-91804857D01*
X215327857Y-91804857D01*
X213185000Y-92590571D02*
X213185000Y-91804857D01*
X213256428Y-91662000D01*
X213399285Y-91590571D01*
X213685000Y-91590571D01*
X213827857Y-91662000D01*
X213185000Y-92519142D02*
X213327857Y-92590571D01*
X213685000Y-92590571D01*
X213827857Y-92519142D01*
X213899285Y-92376285D01*
X213899285Y-92233428D01*
X213827857Y-92090571D01*
X213685000Y-92019142D01*
X213327857Y-92019142D01*
X213185000Y-91947714D01*
X212542142Y-92519142D02*
X212399285Y-92590571D01*
X212113571Y-92590571D01*
X211970714Y-92519142D01*
X211899285Y-92376285D01*
X211899285Y-92304857D01*
X211970714Y-92162000D01*
X212113571Y-92090571D01*
X212327857Y-92090571D01*
X212470714Y-92019142D01*
X212542142Y-91876285D01*
X212542142Y-91804857D01*
X212470714Y-91662000D01*
X212327857Y-91590571D01*
X212113571Y-91590571D01*
X211970714Y-91662000D01*
X210685000Y-92519142D02*
X210827857Y-92590571D01*
X211113571Y-92590571D01*
X211256428Y-92519142D01*
X211327857Y-92376285D01*
X211327857Y-91804857D01*
X211256428Y-91662000D01*
X211113571Y-91590571D01*
X210827857Y-91590571D01*
X210685000Y-91662000D01*
X210613571Y-91804857D01*
X210613571Y-91947714D01*
X211327857Y-92090571D01*
X209327857Y-92590571D02*
X209327857Y-91090571D01*
X209327857Y-92519142D02*
X209470714Y-92590571D01*
X209756428Y-92590571D01*
X209899285Y-92519142D01*
X209970714Y-92447714D01*
X210042142Y-92304857D01*
X210042142Y-91876285D01*
X209970714Y-91733428D01*
X209899285Y-91662000D01*
X209756428Y-91590571D01*
X209470714Y-91590571D01*
X209327857Y-91662000D01*
X207256428Y-92590571D02*
X207399285Y-92519142D01*
X207470714Y-92447714D01*
X207542142Y-92304857D01*
X207542142Y-91876285D01*
X207470714Y-91733428D01*
X207399285Y-91662000D01*
X207256428Y-91590571D01*
X207042142Y-91590571D01*
X206899285Y-91662000D01*
X206827857Y-91733428D01*
X206756428Y-91876285D01*
X206756428Y-92304857D01*
X206827857Y-92447714D01*
X206899285Y-92519142D01*
X207042142Y-92590571D01*
X207256428Y-92590571D01*
X206113571Y-91590571D02*
X206113571Y-92590571D01*
X206113571Y-91733428D02*
X206042142Y-91662000D01*
X205899285Y-91590571D01*
X205685000Y-91590571D01*
X205542142Y-91662000D01*
X205470714Y-91804857D01*
X205470714Y-92590571D01*
X202756428Y-92447714D02*
X202827857Y-92519142D01*
X203042142Y-92590571D01*
X203185000Y-92590571D01*
X203399285Y-92519142D01*
X203542142Y-92376285D01*
X203613571Y-92233428D01*
X203685000Y-91947714D01*
X203685000Y-91733428D01*
X203613571Y-91447714D01*
X203542142Y-91304857D01*
X203399285Y-91162000D01*
X203185000Y-91090571D01*
X203042142Y-91090571D01*
X202827857Y-91162000D01*
X202756428Y-91233428D01*
X202113571Y-92590571D02*
X202113571Y-91090571D01*
X201470714Y-92590571D02*
X201470714Y-91804857D01*
X201542142Y-91662000D01*
X201685000Y-91590571D01*
X201899285Y-91590571D01*
X202042142Y-91662000D01*
X202113571Y-91733428D01*
X200756428Y-92590571D02*
X200756428Y-91090571D01*
X200756428Y-91662000D02*
X200613571Y-91590571D01*
X200327857Y-91590571D01*
X200185000Y-91662000D01*
X200113571Y-91733428D01*
X200042142Y-91876285D01*
X200042142Y-92304857D01*
X200113571Y-92447714D01*
X200185000Y-92519142D01*
X200327857Y-92590571D01*
X200613571Y-92590571D01*
X200756428Y-92519142D01*
X199399285Y-92590571D02*
X199399285Y-91590571D01*
X199399285Y-91090571D02*
X199470714Y-91162000D01*
X199399285Y-91233428D01*
X199327857Y-91162000D01*
X199399285Y-91090571D01*
X199399285Y-91233428D01*
X198399285Y-91090571D02*
X198113571Y-91090571D01*
X197970714Y-91162000D01*
X197827857Y-91304857D01*
X197756428Y-91590571D01*
X197756428Y-92090571D01*
X197827857Y-92376285D01*
X197970714Y-92519142D01*
X198113571Y-92590571D01*
X198399285Y-92590571D01*
X198542142Y-92519142D01*
X198685000Y-92376285D01*
X198756428Y-92090571D01*
X198756428Y-91590571D01*
X198685000Y-91304857D01*
X198542142Y-91162000D01*
X198399285Y-91090571D01*
X197185000Y-92519142D02*
X196970714Y-92590571D01*
X196613571Y-92590571D01*
X196470714Y-92519142D01*
X196399285Y-92447714D01*
X196327857Y-92304857D01*
X196327857Y-92162000D01*
X196399285Y-92019142D01*
X196470714Y-91947714D01*
X196613571Y-91876285D01*
X196899285Y-91804857D01*
X197042142Y-91733428D01*
X197113571Y-91662000D01*
X197185000Y-91519142D01*
X197185000Y-91376285D01*
X197113571Y-91233428D01*
X197042142Y-91162000D01*
X196899285Y-91090571D01*
X196542142Y-91090571D01*
X196327857Y-91162000D01*
X193685000Y-92590571D02*
X194185000Y-91876285D01*
X194542142Y-92590571D02*
X194542142Y-91090571D01*
X193970714Y-91090571D01*
X193827857Y-91162000D01*
X193756428Y-91233428D01*
X193685000Y-91376285D01*
X193685000Y-91590571D01*
X193756428Y-91733428D01*
X193827857Y-91804857D01*
X193970714Y-91876285D01*
X194542142Y-91876285D01*
X193256428Y-91090571D02*
X192399285Y-91090571D01*
X192827857Y-92590571D02*
X192827857Y-91090571D01*
X191042142Y-92447714D02*
X191113571Y-92519142D01*
X191327857Y-92590571D01*
X191470714Y-92590571D01*
X191685000Y-92519142D01*
X191827857Y-92376285D01*
X191899285Y-92233428D01*
X191970714Y-91947714D01*
X191970714Y-91733428D01*
X191899285Y-91447714D01*
X191827857Y-91304857D01*
X191685000Y-91162000D01*
X191470714Y-91090571D01*
X191327857Y-91090571D01*
X191113571Y-91162000D01*
X191042142Y-91233428D01*
X215327857Y-100240571D02*
X215327857Y-98740571D01*
X215327857Y-99454857D02*
X214470714Y-99454857D01*
X214470714Y-100240571D02*
X214470714Y-98740571D01*
X213827857Y-99812000D02*
X213113571Y-99812000D01*
X213970714Y-100240571D02*
X213470714Y-98740571D01*
X212970714Y-100240571D01*
X212470714Y-100240571D02*
X212470714Y-98740571D01*
X211042142Y-100240571D02*
X211756428Y-100240571D01*
X211756428Y-98740571D01*
X208542142Y-100097714D02*
X208613571Y-100169142D01*
X208827857Y-100240571D01*
X208970714Y-100240571D01*
X209185000Y-100169142D01*
X209327857Y-100026285D01*
X209399285Y-99883428D01*
X209470714Y-99597714D01*
X209470714Y-99383428D01*
X209399285Y-99097714D01*
X209327857Y-98954857D01*
X209185000Y-98812000D01*
X208970714Y-98740571D01*
X208827857Y-98740571D01*
X208613571Y-98812000D01*
X208542142Y-98883428D01*
X207970714Y-99812000D02*
X207256428Y-99812000D01*
X208113571Y-100240571D02*
X207613571Y-98740571D01*
X207113571Y-100240571D01*
X206685000Y-100169142D02*
X206470714Y-100240571D01*
X206113571Y-100240571D01*
X205970714Y-100169142D01*
X205899285Y-100097714D01*
X205827857Y-99954857D01*
X205827857Y-99812000D01*
X205899285Y-99669142D01*
X205970714Y-99597714D01*
X206113571Y-99526285D01*
X206399285Y-99454857D01*
X206542142Y-99383428D01*
X206613571Y-99312000D01*
X206685000Y-99169142D01*
X206685000Y-99026285D01*
X206613571Y-98883428D01*
X206542142Y-98812000D01*
X206399285Y-98740571D01*
X206042142Y-98740571D01*
X205827857Y-98812000D01*
X205185000Y-99454857D02*
X204685000Y-99454857D01*
X204470714Y-100240571D02*
X205185000Y-100240571D01*
X205185000Y-98740571D01*
X204470714Y-98740571D01*
X203899285Y-99812000D02*
X203185000Y-99812000D01*
X204042142Y-100240571D02*
X203542142Y-98740571D01*
X203042142Y-100240571D01*
X201685000Y-100240571D02*
X202185000Y-99526285D01*
X202542142Y-100240571D02*
X202542142Y-98740571D01*
X201970714Y-98740571D01*
X201827857Y-98812000D01*
X201756428Y-98883428D01*
X201685000Y-99026285D01*
X201685000Y-99240571D01*
X201756428Y-99383428D01*
X201827857Y-99454857D01*
X201970714Y-99526285D01*
X202542142Y-99526285D01*
X201042142Y-100097714D02*
X200970714Y-100169142D01*
X201042142Y-100240571D01*
X201113571Y-100169142D01*
X201042142Y-100097714D01*
X201042142Y-100240571D01*
X201042142Y-99669142D02*
X201113571Y-98812000D01*
X201042142Y-98740571D01*
X200970714Y-98812000D01*
X201042142Y-99669142D01*
X201042142Y-98740571D01*
X215327857Y-107890571D02*
X215327857Y-106390571D01*
X214827857Y-107462000D01*
X214327857Y-106390571D01*
X214327857Y-107890571D01*
X212970714Y-107890571D02*
X212970714Y-107104857D01*
X213042142Y-106962000D01*
X213185000Y-106890571D01*
X213470714Y-106890571D01*
X213613571Y-106962000D01*
X212970714Y-107819142D02*
X213113571Y-107890571D01*
X213470714Y-107890571D01*
X213613571Y-107819142D01*
X213685000Y-107676285D01*
X213685000Y-107533428D01*
X213613571Y-107390571D01*
X213470714Y-107319142D01*
X213113571Y-107319142D01*
X212970714Y-107247714D01*
X211613571Y-107890571D02*
X211613571Y-106390571D01*
X211613571Y-107819142D02*
X211756428Y-107890571D01*
X212042142Y-107890571D01*
X212185000Y-107819142D01*
X212256428Y-107747714D01*
X212327857Y-107604857D01*
X212327857Y-107176285D01*
X212256428Y-107033428D01*
X212185000Y-106962000D01*
X212042142Y-106890571D01*
X211756428Y-106890571D01*
X211613571Y-106962000D01*
X210327857Y-107819142D02*
X210470714Y-107890571D01*
X210756428Y-107890571D01*
X210899285Y-107819142D01*
X210970714Y-107676285D01*
X210970714Y-107104857D01*
X210899285Y-106962000D01*
X210756428Y-106890571D01*
X210470714Y-106890571D01*
X210327857Y-106962000D01*
X210256428Y-107104857D01*
X210256428Y-107247714D01*
X210970714Y-107390571D01*
X208470714Y-107890571D02*
X208470714Y-106890571D01*
X208470714Y-106390571D02*
X208542142Y-106462000D01*
X208470714Y-106533428D01*
X208399285Y-106462000D01*
X208470714Y-106390571D01*
X208470714Y-106533428D01*
X207756428Y-106890571D02*
X207756428Y-107890571D01*
X207756428Y-107033428D02*
X207685000Y-106962000D01*
X207542142Y-106890571D01*
X207327857Y-106890571D01*
X207185000Y-106962000D01*
X207113571Y-107104857D01*
X207113571Y-107890571D01*
X205327857Y-107819142D02*
X205113571Y-107890571D01*
X204756428Y-107890571D01*
X204613571Y-107819142D01*
X204542142Y-107747714D01*
X204470714Y-107604857D01*
X204470714Y-107462000D01*
X204542142Y-107319142D01*
X204613571Y-107247714D01*
X204756428Y-107176285D01*
X205042142Y-107104857D01*
X205185000Y-107033428D01*
X205256428Y-106962000D01*
X205327857Y-106819142D01*
X205327857Y-106676285D01*
X205256428Y-106533428D01*
X205185000Y-106462000D01*
X205042142Y-106390571D01*
X204685000Y-106390571D01*
X204470714Y-106462000D01*
X203185000Y-107890571D02*
X203185000Y-107104857D01*
X203256428Y-106962000D01*
X203399285Y-106890571D01*
X203685000Y-106890571D01*
X203827857Y-106962000D01*
X203185000Y-107819142D02*
X203327857Y-107890571D01*
X203685000Y-107890571D01*
X203827857Y-107819142D01*
X203899285Y-107676285D01*
X203899285Y-107533428D01*
X203827857Y-107390571D01*
X203685000Y-107319142D01*
X203327857Y-107319142D01*
X203185000Y-107247714D01*
X202470714Y-106890571D02*
X202470714Y-107890571D01*
X202470714Y-107033428D02*
X202399285Y-106962000D01*
X202256428Y-106890571D01*
X202042142Y-106890571D01*
X201899285Y-106962000D01*
X201827857Y-107104857D01*
X201827857Y-107890571D01*
X199470714Y-107104857D02*
X199970714Y-107104857D01*
X199970714Y-107890571D02*
X199970714Y-106390571D01*
X199256428Y-106390571D01*
X198685000Y-107890571D02*
X198685000Y-106890571D01*
X198685000Y-107176285D02*
X198613571Y-107033428D01*
X198542142Y-106962000D01*
X198399285Y-106890571D01*
X198256428Y-106890571D01*
X197113571Y-107890571D02*
X197113571Y-107104857D01*
X197185000Y-106962000D01*
X197327857Y-106890571D01*
X197613571Y-106890571D01*
X197756428Y-106962000D01*
X197113571Y-107819142D02*
X197256428Y-107890571D01*
X197613571Y-107890571D01*
X197756428Y-107819142D01*
X197827857Y-107676285D01*
X197827857Y-107533428D01*
X197756428Y-107390571D01*
X197613571Y-107319142D01*
X197256428Y-107319142D01*
X197113571Y-107247714D01*
X196399285Y-106890571D02*
X196399285Y-107890571D01*
X196399285Y-107033428D02*
X196327857Y-106962000D01*
X196185000Y-106890571D01*
X195970714Y-106890571D01*
X195827857Y-106962000D01*
X195756428Y-107104857D01*
X195756428Y-107890571D01*
X194399285Y-107819142D02*
X194542142Y-107890571D01*
X194827857Y-107890571D01*
X194970714Y-107819142D01*
X195042142Y-107747714D01*
X195113571Y-107604857D01*
X195113571Y-107176285D01*
X195042142Y-107033428D01*
X194970714Y-106962000D01*
X194827857Y-106890571D01*
X194542142Y-106890571D01*
X194399285Y-106962000D01*
X193756428Y-107890571D02*
X193756428Y-106890571D01*
X193756428Y-106390571D02*
X193827857Y-106462000D01*
X193756428Y-106533428D01*
X193685000Y-106462000D01*
X193756428Y-106390571D01*
X193756428Y-106533428D01*
X193113571Y-107819142D02*
X192970714Y-107890571D01*
X192685000Y-107890571D01*
X192542142Y-107819142D01*
X192470714Y-107676285D01*
X192470714Y-107604857D01*
X192542142Y-107462000D01*
X192685000Y-107390571D01*
X192899285Y-107390571D01*
X193042142Y-107319142D01*
X193113571Y-107176285D01*
X193113571Y-107104857D01*
X193042142Y-106962000D01*
X192899285Y-106890571D01*
X192685000Y-106890571D01*
X192542142Y-106962000D01*
X191185000Y-107819142D02*
X191327857Y-107890571D01*
X191613571Y-107890571D01*
X191756428Y-107819142D01*
X191827857Y-107747714D01*
X191899285Y-107604857D01*
X191899285Y-107176285D01*
X191827857Y-107033428D01*
X191756428Y-106962000D01*
X191613571Y-106890571D01*
X191327857Y-106890571D01*
X191185000Y-106962000D01*
X190327857Y-107890571D02*
X190470714Y-107819142D01*
X190542142Y-107747714D01*
X190613571Y-107604857D01*
X190613571Y-107176285D01*
X190542142Y-107033428D01*
X190470714Y-106962000D01*
X190327857Y-106890571D01*
X190113571Y-106890571D01*
X189970714Y-106962000D01*
X189899285Y-107033428D01*
X189827857Y-107176285D01*
X189827857Y-107604857D01*
X189899285Y-107747714D01*
X189970714Y-107819142D01*
X190113571Y-107890571D01*
X190327857Y-107890571D01*
D12*
X189745714Y-112062000D02*
X189840952Y-112014380D01*
X189983809Y-112014380D01*
X190126666Y-112062000D01*
X190221904Y-112157238D01*
X190269523Y-112252476D01*
X190317142Y-112442952D01*
X190317142Y-112585809D01*
X190269523Y-112776285D01*
X190221904Y-112871523D01*
X190126666Y-112966761D01*
X189983809Y-113014380D01*
X189888571Y-113014380D01*
X189745714Y-112966761D01*
X189698095Y-112919142D01*
X189698095Y-112585809D01*
X189888571Y-112585809D01*
X189269523Y-113014380D02*
X189269523Y-112014380D01*
X188698095Y-113014380D01*
X188698095Y-112014380D01*
X188221904Y-113014380D02*
X188221904Y-112014380D01*
X187983809Y-112014380D01*
X187840952Y-112062000D01*
X187745714Y-112157238D01*
X187698095Y-112252476D01*
X187650476Y-112442952D01*
X187650476Y-112585809D01*
X187698095Y-112776285D01*
X187745714Y-112871523D01*
X187840952Y-112966761D01*
X187983809Y-113014380D01*
X188221904Y-113014380D01*
X193298095Y-118014380D02*
X193298095Y-117014380D01*
X193060000Y-117014380D01*
X192917142Y-117062000D01*
X192821904Y-117157238D01*
X192774285Y-117252476D01*
X192726666Y-117442952D01*
X192726666Y-117585809D01*
X192774285Y-117776285D01*
X192821904Y-117871523D01*
X192917142Y-117966761D01*
X193060000Y-118014380D01*
X193298095Y-118014380D01*
X192345714Y-117728666D02*
X191869523Y-117728666D01*
X192440952Y-118014380D02*
X192107619Y-117014380D01*
X191774285Y-118014380D01*
X191583809Y-117014380D02*
X191012380Y-117014380D01*
X191298095Y-118014380D02*
X191298095Y-117014380D01*
X190726666Y-117728666D02*
X190250476Y-117728666D01*
X190821904Y-118014380D02*
X190488571Y-117014380D01*
X190155238Y-118014380D01*
X198117142Y-113233428D02*
X197355238Y-113233428D01*
X197736190Y-113614380D02*
X197736190Y-112852476D01*
X197021904Y-112614380D02*
X196688571Y-113614380D01*
X196355238Y-112614380D01*
D11*
X200501428Y-116040571D02*
X201215714Y-116040571D01*
X201215714Y-114540571D01*
X200001428Y-115254857D02*
X199501428Y-115254857D01*
X199287142Y-116040571D02*
X200001428Y-116040571D01*
X200001428Y-114540571D01*
X199287142Y-114540571D01*
X198644285Y-116040571D02*
X198644285Y-114540571D01*
X198287142Y-114540571D01*
X198072857Y-114612000D01*
X197930000Y-114754857D01*
X197858571Y-114897714D01*
X197787142Y-115183428D01*
X197787142Y-115397714D01*
X197858571Y-115683428D01*
X197930000Y-115826285D01*
X198072857Y-115969142D01*
X198287142Y-116040571D01*
X198644285Y-116040571D01*
X197215714Y-115969142D02*
X197072857Y-116040571D01*
X196787142Y-116040571D01*
X196644285Y-115969142D01*
X196572857Y-115826285D01*
X196572857Y-115754857D01*
X196644285Y-115612000D01*
X196787142Y-115540571D01*
X197001428Y-115540571D01*
X197144285Y-115469142D01*
X197215714Y-115326285D01*
X197215714Y-115254857D01*
X197144285Y-115112000D01*
X197001428Y-115040571D01*
X196787142Y-115040571D01*
X196644285Y-115112000D01*
D13*
X192210000Y-126916960D02*
X182050000Y-126916960D01*
X192210000Y-126916960D02*
X192210000Y-122764060D01*
X192210000Y-122764060D02*
X191209240Y-121763300D01*
X191209240Y-121763300D02*
X183050760Y-121763300D01*
X183050760Y-121763300D02*
X182050000Y-122764060D01*
X182050000Y-122764060D02*
X182050000Y-126916960D01*
D14*
X190678380Y-125111020D02*
X190678380Y-125809520D01*
D10*
X115755000Y-69062000D02*
X115755000Y-69262000D01*
X116855000Y-70362000D02*
X116855000Y-71362000D01*
X120255000Y-70362000D02*
X116855000Y-70362000D01*
X120255000Y-71362000D02*
X120255000Y-70362000D01*
X116855000Y-71362000D02*
X120255000Y-71362000D01*
X116855000Y-67962000D02*
X116855000Y-66962000D01*
X120255000Y-67962000D02*
X116855000Y-67962000D01*
X120255000Y-66962000D02*
X120255000Y-67962000D01*
X116855000Y-66962000D02*
X120255000Y-66962000D01*
X121755000Y-66962000D02*
X121755000Y-71362000D01*
X115755000Y-72312000D02*
X115755000Y-73112000D01*
X114155000Y-73112000D02*
X118255000Y-73112000D01*
X114155000Y-72312000D02*
X114155000Y-73112000D01*
X115755000Y-72312000D02*
X114155000Y-72312000D01*
X115755000Y-71062000D02*
X115755000Y-72312000D01*
X115755000Y-66012000D02*
X115755000Y-65212000D01*
X114155000Y-65212000D02*
X118255000Y-65212000D01*
X114155000Y-66012000D02*
X114155000Y-65212000D01*
X115755000Y-66012000D02*
X114155000Y-66012000D01*
X115755000Y-67262000D02*
X115755000Y-66012000D01*
X120755000Y-69662000D02*
X121755000Y-69662000D01*
X120755000Y-68662000D02*
X120755000Y-69662000D01*
X121755000Y-68662000D02*
X120755000Y-68662000D01*
X115255000Y-66762000D02*
G75*
G03X115255000Y-66762000I-250000J0D01*
G01*
X103930000Y-124487000D02*
X103930000Y-123687000D01*
X110630000Y-123687000D02*
X110630000Y-124487000D01*
X108880000Y-122787000D02*
X107180000Y-122787000D01*
X110130000Y-125387000D02*
X104430000Y-125387000D01*
X107380000Y-126687000D02*
X107380000Y-125387000D01*
X108480000Y-126887000D02*
X107580000Y-126887000D01*
X108680000Y-125387000D02*
X108680000Y-126687000D01*
X107380000Y-126687000D02*
X107580000Y-126887000D01*
X108680000Y-126687000D02*
X108480000Y-126887000D01*
X105880000Y-122787000D02*
X105680000Y-122787000D01*
X108030000Y-125087000D02*
X108030000Y-125387000D01*
X106530000Y-125087000D02*
X106530000Y-125387000D01*
D15*
X190419904Y-121316139D02*
X190419904Y-120300139D01*
X190032857Y-120300139D01*
X189936095Y-120348520D01*
X189887714Y-120396900D01*
X189839333Y-120493662D01*
X189839333Y-120638805D01*
X189887714Y-120735567D01*
X189936095Y-120783948D01*
X190032857Y-120832329D01*
X190419904Y-120832329D01*
X188968476Y-120638805D02*
X188968476Y-121316139D01*
X189210380Y-120251758D02*
X189452285Y-120977472D01*
X188823333Y-120977472D01*
X196274000Y-118776139D02*
X196274000Y-119598615D01*
X196225619Y-119695377D01*
X196177238Y-119743758D01*
X196080476Y-119792139D01*
X195886952Y-119792139D01*
X195790190Y-119743758D01*
X195741809Y-119695377D01*
X195693428Y-119598615D01*
X195693428Y-118776139D01*
X195258000Y-119743758D02*
X195112857Y-119792139D01*
X194870952Y-119792139D01*
X194774190Y-119743758D01*
X194725809Y-119695377D01*
X194677428Y-119598615D01*
X194677428Y-119501853D01*
X194725809Y-119405091D01*
X194774190Y-119356710D01*
X194870952Y-119308329D01*
X195064476Y-119259948D01*
X195161238Y-119211567D01*
X195209619Y-119163186D01*
X195258000Y-119066424D01*
X195258000Y-118969662D01*
X195209619Y-118872900D01*
X195161238Y-118824520D01*
X195064476Y-118776139D01*
X194822571Y-118776139D01*
X194677428Y-118824520D01*
X193903333Y-119259948D02*
X193758190Y-119308329D01*
X193709809Y-119356710D01*
X193661428Y-119453472D01*
X193661428Y-119598615D01*
X193709809Y-119695377D01*
X193758190Y-119743758D01*
X193854952Y-119792139D01*
X194242000Y-119792139D01*
X194242000Y-118776139D01*
X193903333Y-118776139D01*
X193806571Y-118824520D01*
X193758190Y-118872900D01*
X193709809Y-118969662D01*
X193709809Y-119066424D01*
X193758190Y-119163186D01*
X193806571Y-119211567D01*
X193903333Y-119259948D01*
X194242000Y-119259948D01*
X193467904Y-119888900D02*
X192693809Y-119888900D01*
X192451904Y-119792139D02*
X192451904Y-118776139D01*
X192113238Y-119501853D01*
X191774571Y-118776139D01*
X191774571Y-119792139D01*
X191290761Y-119792139D02*
X191290761Y-118776139D01*
X190226380Y-119695377D02*
X190274761Y-119743758D01*
X190419904Y-119792139D01*
X190516666Y-119792139D01*
X190661809Y-119743758D01*
X190758571Y-119646996D01*
X190806952Y-119550234D01*
X190855333Y-119356710D01*
X190855333Y-119211567D01*
X190806952Y-119018043D01*
X190758571Y-118921281D01*
X190661809Y-118824520D01*
X190516666Y-118776139D01*
X190419904Y-118776139D01*
X190274761Y-118824520D01*
X190226380Y-118872900D01*
X189210380Y-119792139D02*
X189549047Y-119308329D01*
X189790952Y-119792139D02*
X189790952Y-118776139D01*
X189403904Y-118776139D01*
X189307142Y-118824520D01*
X189258761Y-118872900D01*
X189210380Y-118969662D01*
X189210380Y-119114805D01*
X189258761Y-119211567D01*
X189307142Y-119259948D01*
X189403904Y-119308329D01*
X189790952Y-119308329D01*
X188581428Y-118776139D02*
X188387904Y-118776139D01*
X188291142Y-118824520D01*
X188194380Y-118921281D01*
X188145999Y-119114805D01*
X188145999Y-119453472D01*
X188194380Y-119646996D01*
X188291142Y-119743758D01*
X188387904Y-119792139D01*
X188581428Y-119792139D01*
X188678190Y-119743758D01*
X188774952Y-119646996D01*
X188823333Y-119453472D01*
X188823333Y-119114805D01*
X188774952Y-118921281D01*
X188678190Y-118824520D01*
X188581428Y-118776139D01*
X187952476Y-119888900D02*
X187178380Y-119888900D01*
X186355904Y-119792139D02*
X186694571Y-119308329D01*
X186936476Y-119792139D02*
X186936476Y-118776139D01*
X186549428Y-118776139D01*
X186452666Y-118824520D01*
X186404285Y-118872900D01*
X186355904Y-118969662D01*
X186355904Y-119114805D01*
X186404285Y-119211567D01*
X186452666Y-119259948D01*
X186549428Y-119308329D01*
X186936476Y-119308329D01*
X185920476Y-119792139D02*
X185920476Y-118776139D01*
X184904476Y-118824520D02*
X185001238Y-118776139D01*
X185146380Y-118776139D01*
X185291523Y-118824520D01*
X185388285Y-118921281D01*
X185436666Y-119018043D01*
X185485047Y-119211567D01*
X185485047Y-119356710D01*
X185436666Y-119550234D01*
X185388285Y-119646996D01*
X185291523Y-119743758D01*
X185146380Y-119792139D01*
X185049619Y-119792139D01*
X184904476Y-119743758D01*
X184856095Y-119695377D01*
X184856095Y-119356710D01*
X185049619Y-119356710D01*
X184420666Y-119792139D02*
X184420666Y-118776139D01*
X184420666Y-119259948D02*
X183840095Y-119259948D01*
X183840095Y-119792139D02*
X183840095Y-118776139D01*
X183501428Y-118776139D02*
X182920857Y-118776139D01*
X183211142Y-119792139D02*
X183211142Y-118776139D01*
D10*
X111458571Y-66876285D02*
X111506190Y-67019142D01*
X111553809Y-67066761D01*
X111649047Y-67114380D01*
X111791904Y-67114380D01*
X111887142Y-67066761D01*
X111934761Y-67019142D01*
X111982380Y-66923904D01*
X111982380Y-66542952D01*
X110982380Y-66542952D01*
X110982380Y-66876285D01*
X111030000Y-66971523D01*
X111077619Y-67019142D01*
X111172857Y-67066761D01*
X111268095Y-67066761D01*
X111363333Y-67019142D01*
X111410952Y-66971523D01*
X111458571Y-66876285D01*
X111458571Y-66542952D01*
X110982380Y-67400095D02*
X110982380Y-67971523D01*
X111982380Y-67685809D02*
X110982380Y-67685809D01*
X111982380Y-68828666D02*
X111982380Y-68257238D01*
X111982380Y-68542952D02*
X110982380Y-68542952D01*
X111125238Y-68447714D01*
X111220476Y-68352476D01*
X111268095Y-68257238D01*
X110113333Y-120991761D02*
X109970476Y-121039380D01*
X109732380Y-121039380D01*
X109637142Y-120991761D01*
X109589523Y-120944142D01*
X109541904Y-120848904D01*
X109541904Y-120753666D01*
X109589523Y-120658428D01*
X109637142Y-120610809D01*
X109732380Y-120563190D01*
X109922857Y-120515571D01*
X110018095Y-120467952D01*
X110065714Y-120420333D01*
X110113333Y-120325095D01*
X110113333Y-120229857D01*
X110065714Y-120134619D01*
X110018095Y-120087000D01*
X109922857Y-120039380D01*
X109684761Y-120039380D01*
X109541904Y-120087000D01*
X109208571Y-120039380D02*
X108970476Y-121039380D01*
X108780000Y-120325095D01*
X108589523Y-121039380D01*
X108351428Y-120039380D01*
X108018095Y-120134619D02*
X107970476Y-120087000D01*
X107875238Y-120039380D01*
X107637142Y-120039380D01*
X107541904Y-120087000D01*
X107494285Y-120134619D01*
X107446666Y-120229857D01*
X107446666Y-120325095D01*
X107494285Y-120467952D01*
X108065714Y-121039380D01*
X107446666Y-121039380D01*
M02*
