G04 #@! TF.GenerationSoftware,KiCad,Pcbnew,(2016-12-18 revision 3ffa37c)-master*
G04 #@! TF.CreationDate,2017-02-07T21:51:00-08:00*
G04 #@! TF.ProjectId,badge-kicad,62616467652D6B696361642E6B696361,rev?*
G04 #@! TF.FileFunction,Legend,Bot*
G04 #@! TF.FilePolarity,Positive*
%FSLAX46Y46*%
G04 Gerber Fmt 4.6, Leading zero omitted, Abs format (unit mm)*
G04 Created by KiCad (PCBNEW (2016-12-18 revision 3ffa37c)-master) date Tuesday, February 07, 2017 'PMt' 09:51:00 PM*
%MOMM*%
%LPD*%
G01*
G04 APERTURE LIST*
%ADD10C,0.150000*%
%ADD11C,0.200000*%
%ADD12C,0.300000*%
%ADD13C,0.127000*%
%ADD14C,0.007620*%
%ADD15C,0.152400*%
G04 APERTURE END LIST*
D10*
D11*
X215559523Y-79818761D02*
X215416666Y-79866380D01*
X215178571Y-79866380D01*
X215083333Y-79818761D01*
X215035714Y-79771142D01*
X214988095Y-79675904D01*
X214988095Y-79580666D01*
X215035714Y-79485428D01*
X215083333Y-79437809D01*
X215178571Y-79390190D01*
X215369047Y-79342571D01*
X215464285Y-79294952D01*
X215511904Y-79247333D01*
X215559523Y-79152095D01*
X215559523Y-79056857D01*
X215511904Y-78961619D01*
X215464285Y-78914000D01*
X215369047Y-78866380D01*
X215130952Y-78866380D01*
X214988095Y-78914000D01*
X214559523Y-79866380D02*
X214559523Y-78866380D01*
X214178571Y-78866380D01*
X214083333Y-78914000D01*
X214035714Y-78961619D01*
X213988095Y-79056857D01*
X213988095Y-79199714D01*
X214035714Y-79294952D01*
X214083333Y-79342571D01*
X214178571Y-79390190D01*
X214559523Y-79390190D01*
X212892857Y-79961619D02*
X212988095Y-79914000D01*
X213083333Y-79818761D01*
X213226190Y-79675904D01*
X213321428Y-79628285D01*
X213416666Y-79628285D01*
X213369047Y-79866380D02*
X213464285Y-79818761D01*
X213559523Y-79723523D01*
X213607142Y-79533047D01*
X213607142Y-79199714D01*
X213559523Y-79009238D01*
X213464285Y-78914000D01*
X213369047Y-78866380D01*
X213178571Y-78866380D01*
X213083333Y-78914000D01*
X212988095Y-79009238D01*
X212940476Y-79199714D01*
X212940476Y-79533047D01*
X212988095Y-79723523D01*
X213083333Y-79818761D01*
X213178571Y-79866380D01*
X213369047Y-79866380D01*
X211940476Y-79866380D02*
X212273809Y-79390190D01*
X212511904Y-79866380D02*
X212511904Y-78866380D01*
X212130952Y-78866380D01*
X212035714Y-78914000D01*
X211988095Y-78961619D01*
X211940476Y-79056857D01*
X211940476Y-79199714D01*
X211988095Y-79294952D01*
X212035714Y-79342571D01*
X212130952Y-79390190D01*
X212511904Y-79390190D01*
X210750000Y-79485428D02*
X209988095Y-79485428D01*
X208892857Y-78866380D02*
X208321428Y-78866380D01*
X208607142Y-79866380D02*
X208607142Y-78866380D01*
X207988095Y-79866380D02*
X207988095Y-78866380D01*
X207559523Y-79866380D02*
X207559523Y-79342571D01*
X207607142Y-79247333D01*
X207702380Y-79199714D01*
X207845238Y-79199714D01*
X207940476Y-79247333D01*
X207988095Y-79294952D01*
X206702380Y-79818761D02*
X206797619Y-79866380D01*
X206988095Y-79866380D01*
X207083333Y-79818761D01*
X207130952Y-79723523D01*
X207130952Y-79342571D01*
X207083333Y-79247333D01*
X206988095Y-79199714D01*
X206797619Y-79199714D01*
X206702380Y-79247333D01*
X206654761Y-79342571D01*
X206654761Y-79437809D01*
X207130952Y-79533047D01*
X205464285Y-79866380D02*
X205464285Y-78866380D01*
X204559523Y-79866380D02*
X204559523Y-78866380D01*
X204559523Y-79818761D02*
X204654761Y-79866380D01*
X204845238Y-79866380D01*
X204940476Y-79818761D01*
X204988095Y-79771142D01*
X205035714Y-79675904D01*
X205035714Y-79390190D01*
X204988095Y-79294952D01*
X204940476Y-79247333D01*
X204845238Y-79199714D01*
X204654761Y-79199714D01*
X204559523Y-79247333D01*
X203702380Y-79818761D02*
X203797619Y-79866380D01*
X203988095Y-79866380D01*
X204083333Y-79818761D01*
X204130952Y-79723523D01*
X204130952Y-79342571D01*
X204083333Y-79247333D01*
X203988095Y-79199714D01*
X203797619Y-79199714D01*
X203702380Y-79247333D01*
X203654761Y-79342571D01*
X203654761Y-79437809D01*
X204130952Y-79533047D01*
X203273809Y-79818761D02*
X203178571Y-79866380D01*
X202988095Y-79866380D01*
X202892857Y-79818761D01*
X202845238Y-79723523D01*
X202845238Y-79675904D01*
X202892857Y-79580666D01*
X202988095Y-79533047D01*
X203130952Y-79533047D01*
X203226190Y-79485428D01*
X203273809Y-79390190D01*
X203273809Y-79342571D01*
X203226190Y-79247333D01*
X203130952Y-79199714D01*
X202988095Y-79199714D01*
X202892857Y-79247333D01*
X201511904Y-79866380D02*
X201607142Y-79818761D01*
X201654761Y-79771142D01*
X201702380Y-79675904D01*
X201702380Y-79390190D01*
X201654761Y-79294952D01*
X201607142Y-79247333D01*
X201511904Y-79199714D01*
X201369047Y-79199714D01*
X201273809Y-79247333D01*
X201226190Y-79294952D01*
X201178571Y-79390190D01*
X201178571Y-79675904D01*
X201226190Y-79771142D01*
X201273809Y-79818761D01*
X201369047Y-79866380D01*
X201511904Y-79866380D01*
X200892857Y-79199714D02*
X200511904Y-79199714D01*
X200750000Y-79866380D02*
X200750000Y-79009238D01*
X200702380Y-78914000D01*
X200607142Y-78866380D01*
X200511904Y-78866380D01*
X199416666Y-79866380D02*
X199416666Y-78866380D01*
X199083333Y-79580666D01*
X198750000Y-78866380D01*
X198750000Y-79866380D01*
X197845238Y-79866380D02*
X197845238Y-79342571D01*
X197892857Y-79247333D01*
X197988095Y-79199714D01*
X198178571Y-79199714D01*
X198273809Y-79247333D01*
X197845238Y-79818761D02*
X197940476Y-79866380D01*
X198178571Y-79866380D01*
X198273809Y-79818761D01*
X198321428Y-79723523D01*
X198321428Y-79628285D01*
X198273809Y-79533047D01*
X198178571Y-79485428D01*
X197940476Y-79485428D01*
X197845238Y-79437809D01*
X197369047Y-79866380D02*
X197369047Y-79199714D01*
X197369047Y-79390190D02*
X197321428Y-79294952D01*
X197273809Y-79247333D01*
X197178571Y-79199714D01*
X197083333Y-79199714D01*
X196321428Y-79818761D02*
X196416666Y-79866380D01*
X196607142Y-79866380D01*
X196702380Y-79818761D01*
X196750000Y-79771142D01*
X196797619Y-79675904D01*
X196797619Y-79390190D01*
X196750000Y-79294952D01*
X196702380Y-79247333D01*
X196607142Y-79199714D01*
X196416666Y-79199714D01*
X196321428Y-79247333D01*
X195892857Y-79866380D02*
X195892857Y-78866380D01*
X195464285Y-79866380D02*
X195464285Y-79342571D01*
X195511904Y-79247333D01*
X195607142Y-79199714D01*
X195750000Y-79199714D01*
X195845238Y-79247333D01*
X195892857Y-79294952D01*
X194226190Y-79485428D02*
X193464285Y-79485428D01*
X191654761Y-79866380D02*
X191988095Y-79390190D01*
X192226190Y-79866380D02*
X192226190Y-78866380D01*
X191845238Y-78866380D01*
X191750000Y-78914000D01*
X191702380Y-78961619D01*
X191654761Y-79056857D01*
X191654761Y-79199714D01*
X191702380Y-79294952D01*
X191750000Y-79342571D01*
X191845238Y-79390190D01*
X192226190Y-79390190D01*
X190845238Y-79818761D02*
X190940476Y-79866380D01*
X191130952Y-79866380D01*
X191226190Y-79818761D01*
X191273809Y-79723523D01*
X191273809Y-79342571D01*
X191226190Y-79247333D01*
X191130952Y-79199714D01*
X190940476Y-79199714D01*
X190845238Y-79247333D01*
X190797619Y-79342571D01*
X190797619Y-79437809D01*
X191273809Y-79533047D01*
X190464285Y-79199714D02*
X190226190Y-79866380D01*
X189988095Y-79199714D01*
X189607142Y-79866380D02*
X189607142Y-79199714D01*
X189607142Y-78866380D02*
X189654761Y-78914000D01*
X189607142Y-78961619D01*
X189559523Y-78914000D01*
X189607142Y-78866380D01*
X189607142Y-78961619D01*
X189178571Y-79818761D02*
X189083333Y-79866380D01*
X188892857Y-79866380D01*
X188797619Y-79818761D01*
X188750000Y-79723523D01*
X188750000Y-79675904D01*
X188797619Y-79580666D01*
X188892857Y-79533047D01*
X189035714Y-79533047D01*
X189130952Y-79485428D01*
X189178571Y-79390190D01*
X189178571Y-79342571D01*
X189130952Y-79247333D01*
X189035714Y-79199714D01*
X188892857Y-79199714D01*
X188797619Y-79247333D01*
X188321428Y-79866380D02*
X188321428Y-79199714D01*
X188321428Y-78866380D02*
X188369047Y-78914000D01*
X188321428Y-78961619D01*
X188273809Y-78914000D01*
X188321428Y-78866380D01*
X188321428Y-78961619D01*
X187702380Y-79866380D02*
X187797619Y-79818761D01*
X187845238Y-79771142D01*
X187892857Y-79675904D01*
X187892857Y-79390190D01*
X187845238Y-79294952D01*
X187797619Y-79247333D01*
X187702380Y-79199714D01*
X187559523Y-79199714D01*
X187464285Y-79247333D01*
X187416666Y-79294952D01*
X187369047Y-79390190D01*
X187369047Y-79675904D01*
X187416666Y-79771142D01*
X187464285Y-79818761D01*
X187559523Y-79866380D01*
X187702380Y-79866380D01*
X186940476Y-79199714D02*
X186940476Y-79866380D01*
X186940476Y-79294952D02*
X186892857Y-79247333D01*
X186797619Y-79199714D01*
X186654761Y-79199714D01*
X186559523Y-79247333D01*
X186511904Y-79342571D01*
X186511904Y-79866380D01*
X185321428Y-78961619D02*
X185273809Y-78914000D01*
X185178571Y-78866380D01*
X184940476Y-78866380D01*
X184845238Y-78914000D01*
X184797619Y-78961619D01*
X184750000Y-79056857D01*
X184750000Y-79152095D01*
X184797619Y-79294952D01*
X185369047Y-79866380D01*
X184750000Y-79866380D01*
X215511904Y-81566380D02*
X215511904Y-80566380D01*
X215273809Y-80566380D01*
X215130952Y-80614000D01*
X215035714Y-80709238D01*
X214988095Y-80804476D01*
X214940476Y-80994952D01*
X214940476Y-81137809D01*
X214988095Y-81328285D01*
X215035714Y-81423523D01*
X215130952Y-81518761D01*
X215273809Y-81566380D01*
X215511904Y-81566380D01*
X214511904Y-81042571D02*
X214178571Y-81042571D01*
X214035714Y-81566380D02*
X214511904Y-81566380D01*
X214511904Y-80566380D01*
X214035714Y-80566380D01*
X213273809Y-81042571D02*
X213607142Y-81042571D01*
X213607142Y-81566380D02*
X213607142Y-80566380D01*
X213130952Y-80566380D01*
X212178571Y-81471142D02*
X212226190Y-81518761D01*
X212369047Y-81566380D01*
X212464285Y-81566380D01*
X212607142Y-81518761D01*
X212702380Y-81423523D01*
X212750000Y-81328285D01*
X212797619Y-81137809D01*
X212797619Y-80994952D01*
X212750000Y-80804476D01*
X212702380Y-80709238D01*
X212607142Y-80614000D01*
X212464285Y-80566380D01*
X212369047Y-80566380D01*
X212226190Y-80614000D01*
X212178571Y-80661619D01*
X211559523Y-80566380D02*
X211369047Y-80566380D01*
X211273809Y-80614000D01*
X211178571Y-80709238D01*
X211130952Y-80899714D01*
X211130952Y-81233047D01*
X211178571Y-81423523D01*
X211273809Y-81518761D01*
X211369047Y-81566380D01*
X211559523Y-81566380D01*
X211654761Y-81518761D01*
X211750000Y-81423523D01*
X211797619Y-81233047D01*
X211797619Y-80899714D01*
X211750000Y-80709238D01*
X211654761Y-80614000D01*
X211559523Y-80566380D01*
X210702380Y-81566380D02*
X210702380Y-80566380D01*
X210130952Y-81566380D01*
X210130952Y-80566380D01*
X208940476Y-80661619D02*
X208892857Y-80614000D01*
X208797619Y-80566380D01*
X208559523Y-80566380D01*
X208464285Y-80614000D01*
X208416666Y-80661619D01*
X208369047Y-80756857D01*
X208369047Y-80852095D01*
X208416666Y-80994952D01*
X208988095Y-81566380D01*
X208369047Y-81566380D01*
X207464285Y-80566380D02*
X207940476Y-80566380D01*
X207988095Y-81042571D01*
X207940476Y-80994952D01*
X207845238Y-80947333D01*
X207607142Y-80947333D01*
X207511904Y-80994952D01*
X207464285Y-81042571D01*
X207416666Y-81137809D01*
X207416666Y-81375904D01*
X207464285Y-81471142D01*
X207511904Y-81518761D01*
X207607142Y-81566380D01*
X207845238Y-81566380D01*
X207940476Y-81518761D01*
X207988095Y-81471142D01*
X205940476Y-81947333D02*
X205988095Y-81899714D01*
X206083333Y-81756857D01*
X206130952Y-81661619D01*
X206178571Y-81518761D01*
X206226190Y-81280666D01*
X206226190Y-81090190D01*
X206178571Y-80852095D01*
X206130952Y-80709238D01*
X206083333Y-80614000D01*
X205988095Y-80471142D01*
X205940476Y-80423523D01*
X205607142Y-80661619D02*
X205559523Y-80614000D01*
X205464285Y-80566380D01*
X205226190Y-80566380D01*
X205130952Y-80614000D01*
X205083333Y-80661619D01*
X205035714Y-80756857D01*
X205035714Y-80852095D01*
X205083333Y-80994952D01*
X205654761Y-81566380D01*
X205035714Y-81566380D01*
X204416666Y-80566380D02*
X204321428Y-80566380D01*
X204226190Y-80614000D01*
X204178571Y-80661619D01*
X204130952Y-80756857D01*
X204083333Y-80947333D01*
X204083333Y-81185428D01*
X204130952Y-81375904D01*
X204178571Y-81471142D01*
X204226190Y-81518761D01*
X204321428Y-81566380D01*
X204416666Y-81566380D01*
X204511904Y-81518761D01*
X204559523Y-81471142D01*
X204607142Y-81375904D01*
X204654761Y-81185428D01*
X204654761Y-80947333D01*
X204607142Y-80756857D01*
X204559523Y-80661619D01*
X204511904Y-80614000D01*
X204416666Y-80566380D01*
X203130952Y-81566380D02*
X203702380Y-81566380D01*
X203416666Y-81566380D02*
X203416666Y-80566380D01*
X203511904Y-80709238D01*
X203607142Y-80804476D01*
X203702380Y-80852095D01*
X202797619Y-80566380D02*
X202130952Y-80566380D01*
X202559523Y-81566380D01*
X201845238Y-81947333D02*
X201797619Y-81899714D01*
X201702380Y-81756857D01*
X201654761Y-81661619D01*
X201607142Y-81518761D01*
X201559523Y-81280666D01*
X201559523Y-81090190D01*
X201607142Y-80852095D01*
X201654761Y-80709238D01*
X201702380Y-80614000D01*
X201797619Y-80471142D01*
X201845238Y-80423523D01*
X215226190Y-83966380D02*
X215226190Y-84680666D01*
X215273809Y-84823523D01*
X215369047Y-84918761D01*
X215511904Y-84966380D01*
X215607142Y-84966380D01*
X214607142Y-84966380D02*
X214702380Y-84918761D01*
X214750000Y-84871142D01*
X214797619Y-84775904D01*
X214797619Y-84490190D01*
X214750000Y-84394952D01*
X214702380Y-84347333D01*
X214607142Y-84299714D01*
X214464285Y-84299714D01*
X214369047Y-84347333D01*
X214321428Y-84394952D01*
X214273809Y-84490190D01*
X214273809Y-84775904D01*
X214321428Y-84871142D01*
X214369047Y-84918761D01*
X214464285Y-84966380D01*
X214607142Y-84966380D01*
X213845238Y-84966380D02*
X213845238Y-83966380D01*
X213416666Y-84966380D02*
X213416666Y-84442571D01*
X213464285Y-84347333D01*
X213559523Y-84299714D01*
X213702380Y-84299714D01*
X213797619Y-84347333D01*
X213845238Y-84394952D01*
X212940476Y-84299714D02*
X212940476Y-84966380D01*
X212940476Y-84394952D02*
X212892857Y-84347333D01*
X212797619Y-84299714D01*
X212654761Y-84299714D01*
X212559523Y-84347333D01*
X212511904Y-84442571D01*
X212511904Y-84966380D01*
X211321428Y-84680666D02*
X210845238Y-84680666D01*
X211416666Y-84966380D02*
X211083333Y-83966380D01*
X210750000Y-84966380D01*
X209988095Y-84966380D02*
X209988095Y-83966380D01*
X209988095Y-84918761D02*
X210083333Y-84966380D01*
X210273809Y-84966380D01*
X210369047Y-84918761D01*
X210416666Y-84871142D01*
X210464285Y-84775904D01*
X210464285Y-84490190D01*
X210416666Y-84394952D01*
X210369047Y-84347333D01*
X210273809Y-84299714D01*
X210083333Y-84299714D01*
X209988095Y-84347333D01*
X209083333Y-84966380D02*
X209083333Y-84442571D01*
X209130952Y-84347333D01*
X209226190Y-84299714D01*
X209416666Y-84299714D01*
X209511904Y-84347333D01*
X209083333Y-84918761D02*
X209178571Y-84966380D01*
X209416666Y-84966380D01*
X209511904Y-84918761D01*
X209559523Y-84823523D01*
X209559523Y-84728285D01*
X209511904Y-84633047D01*
X209416666Y-84585428D01*
X209178571Y-84585428D01*
X209083333Y-84537809D01*
X208607142Y-84966380D02*
X208607142Y-84299714D01*
X208607142Y-84394952D02*
X208559523Y-84347333D01*
X208464285Y-84299714D01*
X208321428Y-84299714D01*
X208226190Y-84347333D01*
X208178571Y-84442571D01*
X208178571Y-84966380D01*
X208178571Y-84442571D02*
X208130952Y-84347333D01*
X208035714Y-84299714D01*
X207892857Y-84299714D01*
X207797619Y-84347333D01*
X207750000Y-84442571D01*
X207750000Y-84966380D01*
X207321428Y-84918761D02*
X207226190Y-84966380D01*
X207035714Y-84966380D01*
X206940476Y-84918761D01*
X206892857Y-84823523D01*
X206892857Y-84775904D01*
X206940476Y-84680666D01*
X207035714Y-84633047D01*
X207178571Y-84633047D01*
X207273809Y-84585428D01*
X207321428Y-84490190D01*
X207321428Y-84442571D01*
X207273809Y-84347333D01*
X207178571Y-84299714D01*
X207035714Y-84299714D01*
X206940476Y-84347333D01*
X205083333Y-84490190D02*
X205130952Y-84442571D01*
X205226190Y-84394952D01*
X205321428Y-84394952D01*
X205416666Y-84442571D01*
X205464285Y-84490190D01*
X205511904Y-84585428D01*
X205511904Y-84680666D01*
X205464285Y-84775904D01*
X205416666Y-84823523D01*
X205321428Y-84871142D01*
X205226190Y-84871142D01*
X205130952Y-84823523D01*
X205083333Y-84775904D01*
X205083333Y-84394952D02*
X205083333Y-84775904D01*
X205035714Y-84823523D01*
X204988095Y-84823523D01*
X204892857Y-84775904D01*
X204845238Y-84680666D01*
X204845238Y-84442571D01*
X204940476Y-84299714D01*
X205083333Y-84204476D01*
X205273809Y-84156857D01*
X205464285Y-84204476D01*
X205607142Y-84299714D01*
X205702380Y-84442571D01*
X205750000Y-84633047D01*
X205702380Y-84823523D01*
X205607142Y-84966380D01*
X205464285Y-85061619D01*
X205273809Y-85109238D01*
X205083333Y-85061619D01*
X204940476Y-84966380D01*
X204416666Y-84299714D02*
X204416666Y-84966380D01*
X204416666Y-84394952D02*
X204369047Y-84347333D01*
X204273809Y-84299714D01*
X204130952Y-84299714D01*
X204035714Y-84347333D01*
X203988095Y-84442571D01*
X203988095Y-84966380D01*
X203130952Y-84918761D02*
X203226190Y-84966380D01*
X203416666Y-84966380D01*
X203511904Y-84918761D01*
X203559523Y-84823523D01*
X203559523Y-84442571D01*
X203511904Y-84347333D01*
X203416666Y-84299714D01*
X203226190Y-84299714D01*
X203130952Y-84347333D01*
X203083333Y-84442571D01*
X203083333Y-84537809D01*
X203559523Y-84633047D01*
X202797619Y-84299714D02*
X202416666Y-84299714D01*
X202654761Y-83966380D02*
X202654761Y-84823523D01*
X202607142Y-84918761D01*
X202511904Y-84966380D01*
X202416666Y-84966380D01*
X202083333Y-84966380D02*
X202083333Y-84299714D01*
X202083333Y-83966380D02*
X202130952Y-84014000D01*
X202083333Y-84061619D01*
X202035714Y-84014000D01*
X202083333Y-83966380D01*
X202083333Y-84061619D01*
X201607142Y-84966380D02*
X201607142Y-83966380D01*
X201511904Y-84585428D02*
X201226190Y-84966380D01*
X201226190Y-84299714D02*
X201607142Y-84680666D01*
X199750000Y-85347333D02*
X199797619Y-85299714D01*
X199892857Y-85156857D01*
X199940476Y-85061619D01*
X199988095Y-84918761D01*
X200035714Y-84680666D01*
X200035714Y-84490190D01*
X199988095Y-84252095D01*
X199940476Y-84109238D01*
X199892857Y-84014000D01*
X199797619Y-83871142D01*
X199750000Y-83823523D01*
X199369047Y-84966380D02*
X199369047Y-83966380D01*
X198988095Y-83966380D01*
X198892857Y-84014000D01*
X198845238Y-84061619D01*
X198797619Y-84156857D01*
X198797619Y-84299714D01*
X198845238Y-84394952D01*
X198892857Y-84442571D01*
X198988095Y-84490190D01*
X199369047Y-84490190D01*
X197797619Y-84871142D02*
X197845238Y-84918761D01*
X197988095Y-84966380D01*
X198083333Y-84966380D01*
X198226190Y-84918761D01*
X198321428Y-84823523D01*
X198369047Y-84728285D01*
X198416666Y-84537809D01*
X198416666Y-84394952D01*
X198369047Y-84204476D01*
X198321428Y-84109238D01*
X198226190Y-84014000D01*
X198083333Y-83966380D01*
X197988095Y-83966380D01*
X197845238Y-84014000D01*
X197797619Y-84061619D01*
X197035714Y-84442571D02*
X196892857Y-84490190D01*
X196845238Y-84537809D01*
X196797619Y-84633047D01*
X196797619Y-84775904D01*
X196845238Y-84871142D01*
X196892857Y-84918761D01*
X196988095Y-84966380D01*
X197369047Y-84966380D01*
X197369047Y-83966380D01*
X197035714Y-83966380D01*
X196940476Y-84014000D01*
X196892857Y-84061619D01*
X196845238Y-84156857D01*
X196845238Y-84252095D01*
X196892857Y-84347333D01*
X196940476Y-84394952D01*
X197035714Y-84442571D01*
X197369047Y-84442571D01*
X196321428Y-84918761D02*
X196321428Y-84966380D01*
X196369047Y-85061619D01*
X196416666Y-85109238D01*
X195130952Y-84966380D02*
X195130952Y-83966380D01*
X195130952Y-84442571D02*
X194559523Y-84442571D01*
X194559523Y-84966380D02*
X194559523Y-83966380D01*
X194178571Y-83966380D02*
X193940476Y-84966380D01*
X193750000Y-84252095D01*
X193559523Y-84966380D01*
X193321428Y-83966380D01*
X192892857Y-84918761D02*
X192892857Y-84966380D01*
X192940476Y-85061619D01*
X192988095Y-85109238D01*
X191750000Y-84918761D02*
X191607142Y-84966380D01*
X191369047Y-84966380D01*
X191273809Y-84918761D01*
X191226190Y-84871142D01*
X191178571Y-84775904D01*
X191178571Y-84680666D01*
X191226190Y-84585428D01*
X191273809Y-84537809D01*
X191369047Y-84490190D01*
X191559523Y-84442571D01*
X191654761Y-84394952D01*
X191702380Y-84347333D01*
X191750000Y-84252095D01*
X191750000Y-84156857D01*
X191702380Y-84061619D01*
X191654761Y-84014000D01*
X191559523Y-83966380D01*
X191321428Y-83966380D01*
X191178571Y-84014000D01*
X190845238Y-83966380D02*
X190607142Y-84966380D01*
X190416666Y-84252095D01*
X190226190Y-84966380D01*
X189988095Y-83966380D01*
X189702380Y-85347333D02*
X189654761Y-85299714D01*
X189559523Y-85156857D01*
X189511904Y-85061619D01*
X189464285Y-84918761D01*
X189416666Y-84680666D01*
X189416666Y-84490190D01*
X189464285Y-84252095D01*
X189511904Y-84109238D01*
X189559523Y-84014000D01*
X189654761Y-83871142D01*
X189702380Y-83823523D01*
X215178571Y-86142571D02*
X215035714Y-86190190D01*
X214988095Y-86237809D01*
X214940476Y-86333047D01*
X214940476Y-86475904D01*
X214988095Y-86571142D01*
X215035714Y-86618761D01*
X215130952Y-86666380D01*
X215511904Y-86666380D01*
X215511904Y-85666380D01*
X215178571Y-85666380D01*
X215083333Y-85714000D01*
X215035714Y-85761619D01*
X214988095Y-85856857D01*
X214988095Y-85952095D01*
X215035714Y-86047333D01*
X215083333Y-86094952D01*
X215178571Y-86142571D01*
X215511904Y-86142571D01*
X214511904Y-86666380D02*
X214511904Y-85999714D01*
X214511904Y-85666380D02*
X214559523Y-85714000D01*
X214511904Y-85761619D01*
X214464285Y-85714000D01*
X214511904Y-85666380D01*
X214511904Y-85761619D01*
X213892857Y-86666380D02*
X213988095Y-86618761D01*
X214035714Y-86523523D01*
X214035714Y-85666380D01*
X213369047Y-86666380D02*
X213464285Y-86618761D01*
X213511904Y-86523523D01*
X213511904Y-85666380D01*
X212226190Y-86666380D02*
X212226190Y-85666380D01*
X211845238Y-85666380D01*
X211750000Y-85714000D01*
X211702380Y-85761619D01*
X211654761Y-85856857D01*
X211654761Y-85999714D01*
X211702380Y-86094952D01*
X211750000Y-86142571D01*
X211845238Y-86190190D01*
X212226190Y-86190190D01*
X210797619Y-86666380D02*
X210797619Y-86142571D01*
X210845238Y-86047333D01*
X210940476Y-85999714D01*
X211130952Y-85999714D01*
X211226190Y-86047333D01*
X210797619Y-86618761D02*
X210892857Y-86666380D01*
X211130952Y-86666380D01*
X211226190Y-86618761D01*
X211273809Y-86523523D01*
X211273809Y-86428285D01*
X211226190Y-86333047D01*
X211130952Y-86285428D01*
X210892857Y-86285428D01*
X210797619Y-86237809D01*
X209892857Y-85999714D02*
X209892857Y-86666380D01*
X210321428Y-85999714D02*
X210321428Y-86523523D01*
X210273809Y-86618761D01*
X210178571Y-86666380D01*
X210035714Y-86666380D01*
X209940476Y-86618761D01*
X209892857Y-86571142D01*
X209273809Y-86666380D02*
X209369047Y-86618761D01*
X209416666Y-86523523D01*
X209416666Y-85666380D01*
X207845238Y-87047333D02*
X207892857Y-86999714D01*
X207988095Y-86856857D01*
X208035714Y-86761619D01*
X208083333Y-86618761D01*
X208130952Y-86380666D01*
X208130952Y-86190190D01*
X208083333Y-85952095D01*
X208035714Y-85809238D01*
X207988095Y-85714000D01*
X207892857Y-85571142D01*
X207845238Y-85523523D01*
X207464285Y-86666380D02*
X207464285Y-85666380D01*
X207226190Y-85666380D01*
X207083333Y-85714000D01*
X206988095Y-85809238D01*
X206940476Y-85904476D01*
X206892857Y-86094952D01*
X206892857Y-86237809D01*
X206940476Y-86428285D01*
X206988095Y-86523523D01*
X207083333Y-86618761D01*
X207226190Y-86666380D01*
X207464285Y-86666380D01*
X206464285Y-86666380D02*
X206464285Y-85999714D01*
X206464285Y-86190190D02*
X206416666Y-86094952D01*
X206369047Y-86047333D01*
X206273809Y-85999714D01*
X206178571Y-85999714D01*
X205845238Y-86666380D02*
X205845238Y-85999714D01*
X205845238Y-85666380D02*
X205892857Y-85714000D01*
X205845238Y-85761619D01*
X205797619Y-85714000D01*
X205845238Y-85666380D01*
X205845238Y-85761619D01*
X205464285Y-85999714D02*
X205226190Y-86666380D01*
X204988095Y-85999714D01*
X204226190Y-86618761D02*
X204321428Y-86666380D01*
X204511904Y-86666380D01*
X204607142Y-86618761D01*
X204654761Y-86523523D01*
X204654761Y-86142571D01*
X204607142Y-86047333D01*
X204511904Y-85999714D01*
X204321428Y-85999714D01*
X204226190Y-86047333D01*
X204178571Y-86142571D01*
X204178571Y-86237809D01*
X204654761Y-86333047D01*
X203750000Y-86666380D02*
X203750000Y-85999714D01*
X203750000Y-86190190D02*
X203702380Y-86094952D01*
X203654761Y-86047333D01*
X203559523Y-85999714D01*
X203464285Y-85999714D01*
X203178571Y-86618761D02*
X203083333Y-86666380D01*
X202892857Y-86666380D01*
X202797619Y-86618761D01*
X202750000Y-86523523D01*
X202750000Y-86475904D01*
X202797619Y-86380666D01*
X202892857Y-86333047D01*
X203035714Y-86333047D01*
X203130952Y-86285428D01*
X203178571Y-86190190D01*
X203178571Y-86142571D01*
X203130952Y-86047333D01*
X203035714Y-85999714D01*
X202892857Y-85999714D01*
X202797619Y-86047333D01*
X202273809Y-86618761D02*
X202273809Y-86666380D01*
X202321428Y-86761619D01*
X202369047Y-86809238D01*
X200750000Y-86142571D02*
X200607142Y-86190190D01*
X200559523Y-86237809D01*
X200511904Y-86333047D01*
X200511904Y-86475904D01*
X200559523Y-86571142D01*
X200607142Y-86618761D01*
X200702380Y-86666380D01*
X201083333Y-86666380D01*
X201083333Y-85666380D01*
X200750000Y-85666380D01*
X200654761Y-85714000D01*
X200607142Y-85761619D01*
X200559523Y-85856857D01*
X200559523Y-85952095D01*
X200607142Y-86047333D01*
X200654761Y-86094952D01*
X200750000Y-86142571D01*
X201083333Y-86142571D01*
X199940476Y-86666380D02*
X200035714Y-86618761D01*
X200083333Y-86571142D01*
X200130952Y-86475904D01*
X200130952Y-86190190D01*
X200083333Y-86094952D01*
X200035714Y-86047333D01*
X199940476Y-85999714D01*
X199797619Y-85999714D01*
X199702380Y-86047333D01*
X199654761Y-86094952D01*
X199607142Y-86190190D01*
X199607142Y-86475904D01*
X199654761Y-86571142D01*
X199702380Y-86618761D01*
X199797619Y-86666380D01*
X199940476Y-86666380D01*
X198750000Y-86666380D02*
X198750000Y-86142571D01*
X198797619Y-86047333D01*
X198892857Y-85999714D01*
X199083333Y-85999714D01*
X199178571Y-86047333D01*
X198750000Y-86618761D02*
X198845238Y-86666380D01*
X199083333Y-86666380D01*
X199178571Y-86618761D01*
X199226190Y-86523523D01*
X199226190Y-86428285D01*
X199178571Y-86333047D01*
X199083333Y-86285428D01*
X198845238Y-86285428D01*
X198750000Y-86237809D01*
X198273809Y-86666380D02*
X198273809Y-85999714D01*
X198273809Y-86190190D02*
X198226190Y-86094952D01*
X198178571Y-86047333D01*
X198083333Y-85999714D01*
X197988095Y-85999714D01*
X197226190Y-86666380D02*
X197226190Y-85666380D01*
X197226190Y-86618761D02*
X197321428Y-86666380D01*
X197511904Y-86666380D01*
X197607142Y-86618761D01*
X197654761Y-86571142D01*
X197702380Y-86475904D01*
X197702380Y-86190190D01*
X197654761Y-86094952D01*
X197607142Y-86047333D01*
X197511904Y-85999714D01*
X197321428Y-85999714D01*
X197226190Y-86047333D01*
X195988095Y-86666380D02*
X195988095Y-85666380D01*
X195988095Y-86047333D02*
X195892857Y-85999714D01*
X195702380Y-85999714D01*
X195607142Y-86047333D01*
X195559523Y-86094952D01*
X195511904Y-86190190D01*
X195511904Y-86475904D01*
X195559523Y-86571142D01*
X195607142Y-86618761D01*
X195702380Y-86666380D01*
X195892857Y-86666380D01*
X195988095Y-86618761D01*
X195083333Y-86666380D02*
X195083333Y-85999714D01*
X195083333Y-86190190D02*
X195035714Y-86094952D01*
X194988095Y-86047333D01*
X194892857Y-85999714D01*
X194797619Y-85999714D01*
X194464285Y-86666380D02*
X194464285Y-85999714D01*
X194464285Y-85666380D02*
X194511904Y-85714000D01*
X194464285Y-85761619D01*
X194416666Y-85714000D01*
X194464285Y-85666380D01*
X194464285Y-85761619D01*
X193988095Y-85999714D02*
X193988095Y-86666380D01*
X193988095Y-86094952D02*
X193940476Y-86047333D01*
X193845238Y-85999714D01*
X193702380Y-85999714D01*
X193607142Y-86047333D01*
X193559523Y-86142571D01*
X193559523Y-86666380D01*
X192654761Y-85999714D02*
X192654761Y-86809238D01*
X192702380Y-86904476D01*
X192750000Y-86952095D01*
X192845238Y-86999714D01*
X192988095Y-86999714D01*
X193083333Y-86952095D01*
X192654761Y-86618761D02*
X192750000Y-86666380D01*
X192940476Y-86666380D01*
X193035714Y-86618761D01*
X193083333Y-86571142D01*
X193130952Y-86475904D01*
X193130952Y-86190190D01*
X193083333Y-86094952D01*
X193035714Y-86047333D01*
X192940476Y-85999714D01*
X192750000Y-85999714D01*
X192654761Y-86047333D01*
X191750000Y-85999714D02*
X191750000Y-86666380D01*
X192178571Y-85999714D02*
X192178571Y-86523523D01*
X192130952Y-86618761D01*
X192035714Y-86666380D01*
X191892857Y-86666380D01*
X191797619Y-86618761D01*
X191750000Y-86571142D01*
X191273809Y-85999714D02*
X191273809Y-86999714D01*
X191273809Y-86047333D02*
X191178571Y-85999714D01*
X190988095Y-85999714D01*
X190892857Y-86047333D01*
X190845238Y-86094952D01*
X190797619Y-86190190D01*
X190797619Y-86475904D01*
X190845238Y-86571142D01*
X190892857Y-86618761D01*
X190988095Y-86666380D01*
X191178571Y-86666380D01*
X191273809Y-86618761D01*
X190321428Y-86618761D02*
X190321428Y-86666380D01*
X190369047Y-86761619D01*
X190416666Y-86809238D01*
X189130952Y-86666380D02*
X189130952Y-85666380D01*
X189130952Y-86142571D02*
X188559523Y-86142571D01*
X188559523Y-86666380D02*
X188559523Y-85666380D01*
X188178571Y-85666380D02*
X187940476Y-86666380D01*
X187750000Y-85952095D01*
X187559523Y-86666380D01*
X187321428Y-85666380D01*
X186892857Y-86618761D02*
X186892857Y-86666380D01*
X186940476Y-86761619D01*
X186988095Y-86809238D01*
X185750000Y-86618761D02*
X185607142Y-86666380D01*
X185369047Y-86666380D01*
X185273809Y-86618761D01*
X185226190Y-86571142D01*
X185178571Y-86475904D01*
X185178571Y-86380666D01*
X185226190Y-86285428D01*
X185273809Y-86237809D01*
X185369047Y-86190190D01*
X185559523Y-86142571D01*
X185654761Y-86094952D01*
X185702380Y-86047333D01*
X185750000Y-85952095D01*
X185750000Y-85856857D01*
X185702380Y-85761619D01*
X185654761Y-85714000D01*
X185559523Y-85666380D01*
X185321428Y-85666380D01*
X185178571Y-85714000D01*
X184845238Y-85666380D02*
X184607142Y-86666380D01*
X184416666Y-85952095D01*
X184226190Y-86666380D01*
X183988095Y-85666380D01*
X183702380Y-87047333D02*
X183654761Y-86999714D01*
X183559523Y-86856857D01*
X183511904Y-86761619D01*
X183464285Y-86618761D01*
X183416666Y-86380666D01*
X183416666Y-86190190D01*
X183464285Y-85952095D01*
X183511904Y-85809238D01*
X183559523Y-85714000D01*
X183654761Y-85571142D01*
X183702380Y-85523523D01*
X215511904Y-87842571D02*
X215178571Y-87842571D01*
X215035714Y-88366380D02*
X215511904Y-88366380D01*
X215511904Y-87366380D01*
X215035714Y-87366380D01*
X214178571Y-87699714D02*
X214178571Y-88509238D01*
X214226190Y-88604476D01*
X214273809Y-88652095D01*
X214369047Y-88699714D01*
X214511904Y-88699714D01*
X214607142Y-88652095D01*
X214178571Y-88318761D02*
X214273809Y-88366380D01*
X214464285Y-88366380D01*
X214559523Y-88318761D01*
X214607142Y-88271142D01*
X214654761Y-88175904D01*
X214654761Y-87890190D01*
X214607142Y-87794952D01*
X214559523Y-87747333D01*
X214464285Y-87699714D01*
X214273809Y-87699714D01*
X214178571Y-87747333D01*
X213273809Y-88366380D02*
X213273809Y-87842571D01*
X213321428Y-87747333D01*
X213416666Y-87699714D01*
X213607142Y-87699714D01*
X213702380Y-87747333D01*
X213273809Y-88318761D02*
X213369047Y-88366380D01*
X213607142Y-88366380D01*
X213702380Y-88318761D01*
X213750000Y-88223523D01*
X213750000Y-88128285D01*
X213702380Y-88033047D01*
X213607142Y-87985428D01*
X213369047Y-87985428D01*
X213273809Y-87937809D01*
X212797619Y-87699714D02*
X212797619Y-88366380D01*
X212797619Y-87794952D02*
X212750000Y-87747333D01*
X212654761Y-87699714D01*
X212511904Y-87699714D01*
X212416666Y-87747333D01*
X212369047Y-87842571D01*
X212369047Y-88366380D01*
X211130952Y-88366380D02*
X211130952Y-87366380D01*
X211130952Y-87842571D02*
X210559523Y-87842571D01*
X210559523Y-88366380D02*
X210559523Y-87366380D01*
X210083333Y-88366380D02*
X210083333Y-87699714D01*
X210083333Y-87366380D02*
X210130952Y-87414000D01*
X210083333Y-87461619D01*
X210035714Y-87414000D01*
X210083333Y-87366380D01*
X210083333Y-87461619D01*
X209607142Y-88366380D02*
X209607142Y-87699714D01*
X209607142Y-87890190D02*
X209559523Y-87794952D01*
X209511904Y-87747333D01*
X209416666Y-87699714D01*
X209321428Y-87699714D01*
X209083333Y-87699714D02*
X208845238Y-88366380D01*
X208607142Y-87699714D01*
X207845238Y-88318761D02*
X207940476Y-88366380D01*
X208130952Y-88366380D01*
X208226190Y-88318761D01*
X208273809Y-88223523D01*
X208273809Y-87842571D01*
X208226190Y-87747333D01*
X208130952Y-87699714D01*
X207940476Y-87699714D01*
X207845238Y-87747333D01*
X207797619Y-87842571D01*
X207797619Y-87937809D01*
X208273809Y-88033047D01*
X207226190Y-88366380D02*
X207321428Y-88318761D01*
X207369047Y-88223523D01*
X207369047Y-87366380D01*
X206416666Y-88366380D02*
X206416666Y-87842571D01*
X206464285Y-87747333D01*
X206559523Y-87699714D01*
X206750000Y-87699714D01*
X206845238Y-87747333D01*
X206416666Y-88318761D02*
X206511904Y-88366380D01*
X206750000Y-88366380D01*
X206845238Y-88318761D01*
X206892857Y-88223523D01*
X206892857Y-88128285D01*
X206845238Y-88033047D01*
X206750000Y-87985428D01*
X206511904Y-87985428D01*
X206416666Y-87937809D01*
X204892857Y-88747333D02*
X204940476Y-88699714D01*
X205035714Y-88556857D01*
X205083333Y-88461619D01*
X205130952Y-88318761D01*
X205178571Y-88080666D01*
X205178571Y-87890190D01*
X205130952Y-87652095D01*
X205083333Y-87509238D01*
X205035714Y-87414000D01*
X204940476Y-87271142D01*
X204892857Y-87223523D01*
X203988095Y-87414000D02*
X204083333Y-87366380D01*
X204226190Y-87366380D01*
X204369047Y-87414000D01*
X204464285Y-87509238D01*
X204511904Y-87604476D01*
X204559523Y-87794952D01*
X204559523Y-87937809D01*
X204511904Y-88128285D01*
X204464285Y-88223523D01*
X204369047Y-88318761D01*
X204226190Y-88366380D01*
X204130952Y-88366380D01*
X203988095Y-88318761D01*
X203940476Y-88271142D01*
X203940476Y-87937809D01*
X204130952Y-87937809D01*
X203083333Y-88366380D02*
X203083333Y-87842571D01*
X203130952Y-87747333D01*
X203226190Y-87699714D01*
X203416666Y-87699714D01*
X203511904Y-87747333D01*
X203083333Y-88318761D02*
X203178571Y-88366380D01*
X203416666Y-88366380D01*
X203511904Y-88318761D01*
X203559523Y-88223523D01*
X203559523Y-88128285D01*
X203511904Y-88033047D01*
X203416666Y-87985428D01*
X203178571Y-87985428D01*
X203083333Y-87937809D01*
X202607142Y-88366380D02*
X202607142Y-87699714D01*
X202607142Y-87794952D02*
X202559523Y-87747333D01*
X202464285Y-87699714D01*
X202321428Y-87699714D01*
X202226190Y-87747333D01*
X202178571Y-87842571D01*
X202178571Y-88366380D01*
X202178571Y-87842571D02*
X202130952Y-87747333D01*
X202035714Y-87699714D01*
X201892857Y-87699714D01*
X201797619Y-87747333D01*
X201750000Y-87842571D01*
X201750000Y-88366380D01*
X200892857Y-88318761D02*
X200988095Y-88366380D01*
X201178571Y-88366380D01*
X201273809Y-88318761D01*
X201321428Y-88223523D01*
X201321428Y-87842571D01*
X201273809Y-87747333D01*
X201178571Y-87699714D01*
X200988095Y-87699714D01*
X200892857Y-87747333D01*
X200845238Y-87842571D01*
X200845238Y-87937809D01*
X201321428Y-88033047D01*
X199654761Y-88366380D02*
X199654761Y-87366380D01*
X199321428Y-88080666D01*
X198988095Y-87366380D01*
X198988095Y-88366380D01*
X198130952Y-88318761D02*
X198226190Y-88366380D01*
X198416666Y-88366380D01*
X198511904Y-88318761D01*
X198559523Y-88223523D01*
X198559523Y-87842571D01*
X198511904Y-87747333D01*
X198416666Y-87699714D01*
X198226190Y-87699714D01*
X198130952Y-87747333D01*
X198083333Y-87842571D01*
X198083333Y-87937809D01*
X198559523Y-88033047D01*
X197226190Y-88318761D02*
X197321428Y-88366380D01*
X197511904Y-88366380D01*
X197607142Y-88318761D01*
X197654761Y-88271142D01*
X197702380Y-88175904D01*
X197702380Y-87890190D01*
X197654761Y-87794952D01*
X197607142Y-87747333D01*
X197511904Y-87699714D01*
X197321428Y-87699714D01*
X197226190Y-87747333D01*
X196797619Y-88366380D02*
X196797619Y-87366380D01*
X196369047Y-88366380D02*
X196369047Y-87842571D01*
X196416666Y-87747333D01*
X196511904Y-87699714D01*
X196654761Y-87699714D01*
X196750000Y-87747333D01*
X196797619Y-87794952D01*
X195464285Y-88366380D02*
X195464285Y-87842571D01*
X195511904Y-87747333D01*
X195607142Y-87699714D01*
X195797619Y-87699714D01*
X195892857Y-87747333D01*
X195464285Y-88318761D02*
X195559523Y-88366380D01*
X195797619Y-88366380D01*
X195892857Y-88318761D01*
X195940476Y-88223523D01*
X195940476Y-88128285D01*
X195892857Y-88033047D01*
X195797619Y-87985428D01*
X195559523Y-87985428D01*
X195464285Y-87937809D01*
X194988095Y-87699714D02*
X194988095Y-88366380D01*
X194988095Y-87794952D02*
X194940476Y-87747333D01*
X194845238Y-87699714D01*
X194702380Y-87699714D01*
X194607142Y-87747333D01*
X194559523Y-87842571D01*
X194559523Y-88366380D01*
X194083333Y-88366380D02*
X194083333Y-87699714D01*
X194083333Y-87366380D02*
X194130952Y-87414000D01*
X194083333Y-87461619D01*
X194035714Y-87414000D01*
X194083333Y-87366380D01*
X194083333Y-87461619D01*
X193178571Y-88318761D02*
X193273809Y-88366380D01*
X193464285Y-88366380D01*
X193559523Y-88318761D01*
X193607142Y-88271142D01*
X193654761Y-88175904D01*
X193654761Y-87890190D01*
X193607142Y-87794952D01*
X193559523Y-87747333D01*
X193464285Y-87699714D01*
X193273809Y-87699714D01*
X193178571Y-87747333D01*
X192797619Y-88318761D02*
X192702380Y-88366380D01*
X192511904Y-88366380D01*
X192416666Y-88318761D01*
X192369047Y-88223523D01*
X192369047Y-88175904D01*
X192416666Y-88080666D01*
X192511904Y-88033047D01*
X192654761Y-88033047D01*
X192750000Y-87985428D01*
X192797619Y-87890190D01*
X192797619Y-87842571D01*
X192750000Y-87747333D01*
X192654761Y-87699714D01*
X192511904Y-87699714D01*
X192416666Y-87747333D01*
X192035714Y-88747333D02*
X191988095Y-88699714D01*
X191892857Y-88556857D01*
X191845238Y-88461619D01*
X191797619Y-88318761D01*
X191750000Y-88080666D01*
X191750000Y-87890190D01*
X191797619Y-87652095D01*
X191845238Y-87509238D01*
X191892857Y-87414000D01*
X191988095Y-87271142D01*
X192035714Y-87223523D01*
X215511904Y-90066380D02*
X215511904Y-89066380D01*
X215178571Y-89780666D01*
X214845238Y-89066380D01*
X214845238Y-90066380D01*
X213940476Y-90066380D02*
X213940476Y-89542571D01*
X213988095Y-89447333D01*
X214083333Y-89399714D01*
X214273809Y-89399714D01*
X214369047Y-89447333D01*
X213940476Y-90018761D02*
X214035714Y-90066380D01*
X214273809Y-90066380D01*
X214369047Y-90018761D01*
X214416666Y-89923523D01*
X214416666Y-89828285D01*
X214369047Y-89733047D01*
X214273809Y-89685428D01*
X214035714Y-89685428D01*
X213940476Y-89637809D01*
X213607142Y-89399714D02*
X213226190Y-89399714D01*
X213464285Y-89066380D02*
X213464285Y-89923523D01*
X213416666Y-90018761D01*
X213321428Y-90066380D01*
X213226190Y-90066380D01*
X213035714Y-89399714D02*
X212654761Y-89399714D01*
X212892857Y-89066380D02*
X212892857Y-89923523D01*
X212845238Y-90018761D01*
X212750000Y-90066380D01*
X212654761Y-90066380D01*
X212321428Y-90066380D02*
X212321428Y-89066380D01*
X211892857Y-90066380D02*
X211892857Y-89542571D01*
X211940476Y-89447333D01*
X212035714Y-89399714D01*
X212178571Y-89399714D01*
X212273809Y-89447333D01*
X212321428Y-89494952D01*
X211035714Y-90018761D02*
X211130952Y-90066380D01*
X211321428Y-90066380D01*
X211416666Y-90018761D01*
X211464285Y-89923523D01*
X211464285Y-89542571D01*
X211416666Y-89447333D01*
X211321428Y-89399714D01*
X211130952Y-89399714D01*
X211035714Y-89447333D01*
X210988095Y-89542571D01*
X210988095Y-89637809D01*
X211464285Y-89733047D01*
X210654761Y-89399714D02*
X210464285Y-90066380D01*
X210273809Y-89590190D01*
X210083333Y-90066380D01*
X209892857Y-89399714D01*
X208750000Y-90066380D02*
X208750000Y-89066380D01*
X208750000Y-89542571D02*
X208178571Y-89542571D01*
X208178571Y-90066380D02*
X208178571Y-89066380D01*
X207273809Y-90066380D02*
X207273809Y-89542571D01*
X207321428Y-89447333D01*
X207416666Y-89399714D01*
X207607142Y-89399714D01*
X207702380Y-89447333D01*
X207273809Y-90018761D02*
X207369047Y-90066380D01*
X207607142Y-90066380D01*
X207702380Y-90018761D01*
X207750000Y-89923523D01*
X207750000Y-89828285D01*
X207702380Y-89733047D01*
X207607142Y-89685428D01*
X207369047Y-89685428D01*
X207273809Y-89637809D01*
X206797619Y-90066380D02*
X206797619Y-89399714D01*
X206797619Y-89590190D02*
X206750000Y-89494952D01*
X206702380Y-89447333D01*
X206607142Y-89399714D01*
X206511904Y-89399714D01*
X206178571Y-90066380D02*
X206178571Y-89399714D01*
X206178571Y-89590190D02*
X206130952Y-89494952D01*
X206083333Y-89447333D01*
X205988095Y-89399714D01*
X205892857Y-89399714D01*
X205559523Y-90066380D02*
X205559523Y-89399714D01*
X205559523Y-89066380D02*
X205607142Y-89114000D01*
X205559523Y-89161619D01*
X205511904Y-89114000D01*
X205559523Y-89066380D01*
X205559523Y-89161619D01*
X205130952Y-90018761D02*
X205035714Y-90066380D01*
X204845238Y-90066380D01*
X204750000Y-90018761D01*
X204702380Y-89923523D01*
X204702380Y-89875904D01*
X204750000Y-89780666D01*
X204845238Y-89733047D01*
X204988095Y-89733047D01*
X205083333Y-89685428D01*
X205130952Y-89590190D01*
X205130952Y-89542571D01*
X205083333Y-89447333D01*
X204988095Y-89399714D01*
X204845238Y-89399714D01*
X204750000Y-89447333D01*
X203226190Y-90447333D02*
X203273809Y-90399714D01*
X203369047Y-90256857D01*
X203416666Y-90161619D01*
X203464285Y-90018761D01*
X203511904Y-89780666D01*
X203511904Y-89590190D01*
X203464285Y-89352095D01*
X203416666Y-89209238D01*
X203369047Y-89114000D01*
X203273809Y-88971142D01*
X203226190Y-88923523D01*
X202892857Y-89780666D02*
X202416666Y-89780666D01*
X202988095Y-90066380D02*
X202654761Y-89066380D01*
X202321428Y-90066380D01*
X201988095Y-90066380D02*
X201988095Y-89399714D01*
X201988095Y-89590190D02*
X201940476Y-89494952D01*
X201892857Y-89447333D01*
X201797619Y-89399714D01*
X201702380Y-89399714D01*
X201511904Y-89399714D02*
X201130952Y-89399714D01*
X201369047Y-89066380D02*
X201369047Y-89923523D01*
X201321428Y-90018761D01*
X201226190Y-90066380D01*
X201130952Y-90066380D01*
X200750000Y-90018761D02*
X200750000Y-90066380D01*
X200797619Y-90161619D01*
X200845238Y-90209238D01*
X198988095Y-89971142D02*
X199035714Y-90018761D01*
X199178571Y-90066380D01*
X199273809Y-90066380D01*
X199416666Y-90018761D01*
X199511904Y-89923523D01*
X199559523Y-89828285D01*
X199607142Y-89637809D01*
X199607142Y-89494952D01*
X199559523Y-89304476D01*
X199511904Y-89209238D01*
X199416666Y-89114000D01*
X199273809Y-89066380D01*
X199178571Y-89066380D01*
X199035714Y-89114000D01*
X198988095Y-89161619D01*
X198559523Y-90066380D02*
X198559523Y-89066380D01*
X198130952Y-90066380D02*
X198130952Y-89542571D01*
X198178571Y-89447333D01*
X198273809Y-89399714D01*
X198416666Y-89399714D01*
X198511904Y-89447333D01*
X198559523Y-89494952D01*
X197226190Y-90066380D02*
X197226190Y-89542571D01*
X197273809Y-89447333D01*
X197369047Y-89399714D01*
X197559523Y-89399714D01*
X197654761Y-89447333D01*
X197226190Y-90018761D02*
X197321428Y-90066380D01*
X197559523Y-90066380D01*
X197654761Y-90018761D01*
X197702380Y-89923523D01*
X197702380Y-89828285D01*
X197654761Y-89733047D01*
X197559523Y-89685428D01*
X197321428Y-89685428D01*
X197226190Y-89637809D01*
X196750000Y-90066380D02*
X196750000Y-89399714D01*
X196750000Y-89590190D02*
X196702380Y-89494952D01*
X196654761Y-89447333D01*
X196559523Y-89399714D01*
X196464285Y-89399714D01*
X195702380Y-90066380D02*
X195702380Y-89542571D01*
X195750000Y-89447333D01*
X195845238Y-89399714D01*
X196035714Y-89399714D01*
X196130952Y-89447333D01*
X195702380Y-90018761D02*
X195797619Y-90066380D01*
X196035714Y-90066380D01*
X196130952Y-90018761D01*
X196178571Y-89923523D01*
X196178571Y-89828285D01*
X196130952Y-89733047D01*
X196035714Y-89685428D01*
X195797619Y-89685428D01*
X195702380Y-89637809D01*
X194797619Y-90018761D02*
X194892857Y-90066380D01*
X195083333Y-90066380D01*
X195178571Y-90018761D01*
X195226190Y-89971142D01*
X195273809Y-89875904D01*
X195273809Y-89590190D01*
X195226190Y-89494952D01*
X195178571Y-89447333D01*
X195083333Y-89399714D01*
X194892857Y-89399714D01*
X194797619Y-89447333D01*
X194511904Y-89399714D02*
X194130952Y-89399714D01*
X194369047Y-89066380D02*
X194369047Y-89923523D01*
X194321428Y-90018761D01*
X194226190Y-90066380D01*
X194130952Y-90066380D01*
X193416666Y-90018761D02*
X193511904Y-90066380D01*
X193702380Y-90066380D01*
X193797619Y-90018761D01*
X193845238Y-89923523D01*
X193845238Y-89542571D01*
X193797619Y-89447333D01*
X193702380Y-89399714D01*
X193511904Y-89399714D01*
X193416666Y-89447333D01*
X193369047Y-89542571D01*
X193369047Y-89637809D01*
X193845238Y-89733047D01*
X192940476Y-90066380D02*
X192940476Y-89399714D01*
X192940476Y-89590190D02*
X192892857Y-89494952D01*
X192845238Y-89447333D01*
X192750000Y-89399714D01*
X192654761Y-89399714D01*
X191559523Y-90066380D02*
X191559523Y-89066380D01*
X191321428Y-89066380D01*
X191178571Y-89114000D01*
X191083333Y-89209238D01*
X191035714Y-89304476D01*
X190988095Y-89494952D01*
X190988095Y-89637809D01*
X191035714Y-89828285D01*
X191083333Y-89923523D01*
X191178571Y-90018761D01*
X191321428Y-90066380D01*
X191559523Y-90066380D01*
X190178571Y-90018761D02*
X190273809Y-90066380D01*
X190464285Y-90066380D01*
X190559523Y-90018761D01*
X190607142Y-89923523D01*
X190607142Y-89542571D01*
X190559523Y-89447333D01*
X190464285Y-89399714D01*
X190273809Y-89399714D01*
X190178571Y-89447333D01*
X190130952Y-89542571D01*
X190130952Y-89637809D01*
X190607142Y-89733047D01*
X189750000Y-90018761D02*
X189654761Y-90066380D01*
X189464285Y-90066380D01*
X189369047Y-90018761D01*
X189321428Y-89923523D01*
X189321428Y-89875904D01*
X189369047Y-89780666D01*
X189464285Y-89733047D01*
X189607142Y-89733047D01*
X189702380Y-89685428D01*
X189750000Y-89590190D01*
X189750000Y-89542571D01*
X189702380Y-89447333D01*
X189607142Y-89399714D01*
X189464285Y-89399714D01*
X189369047Y-89447333D01*
X188892857Y-90066380D02*
X188892857Y-89399714D01*
X188892857Y-89066380D02*
X188940476Y-89114000D01*
X188892857Y-89161619D01*
X188845238Y-89114000D01*
X188892857Y-89066380D01*
X188892857Y-89161619D01*
X187988095Y-89399714D02*
X187988095Y-90209238D01*
X188035714Y-90304476D01*
X188083333Y-90352095D01*
X188178571Y-90399714D01*
X188321428Y-90399714D01*
X188416666Y-90352095D01*
X187988095Y-90018761D02*
X188083333Y-90066380D01*
X188273809Y-90066380D01*
X188369047Y-90018761D01*
X188416666Y-89971142D01*
X188464285Y-89875904D01*
X188464285Y-89590190D01*
X188416666Y-89494952D01*
X188369047Y-89447333D01*
X188273809Y-89399714D01*
X188083333Y-89399714D01*
X187988095Y-89447333D01*
X187511904Y-89399714D02*
X187511904Y-90066380D01*
X187511904Y-89494952D02*
X187464285Y-89447333D01*
X187369047Y-89399714D01*
X187226190Y-89399714D01*
X187130952Y-89447333D01*
X187083333Y-89542571D01*
X187083333Y-90066380D01*
X186702380Y-90447333D02*
X186654761Y-90399714D01*
X186559523Y-90256857D01*
X186511904Y-90161619D01*
X186464285Y-90018761D01*
X186416666Y-89780666D01*
X186416666Y-89590190D01*
X186464285Y-89352095D01*
X186511904Y-89209238D01*
X186559523Y-89114000D01*
X186654761Y-88971142D01*
X186702380Y-88923523D01*
X215178571Y-92942571D02*
X215035714Y-92990190D01*
X214988095Y-93037809D01*
X214940476Y-93133047D01*
X214940476Y-93275904D01*
X214988095Y-93371142D01*
X215035714Y-93418761D01*
X215130952Y-93466380D01*
X215511904Y-93466380D01*
X215511904Y-92466380D01*
X215178571Y-92466380D01*
X215083333Y-92514000D01*
X215035714Y-92561619D01*
X214988095Y-92656857D01*
X214988095Y-92752095D01*
X215035714Y-92847333D01*
X215083333Y-92894952D01*
X215178571Y-92942571D01*
X215511904Y-92942571D01*
X214083333Y-93466380D02*
X214083333Y-92942571D01*
X214130952Y-92847333D01*
X214226190Y-92799714D01*
X214416666Y-92799714D01*
X214511904Y-92847333D01*
X214083333Y-93418761D02*
X214178571Y-93466380D01*
X214416666Y-93466380D01*
X214511904Y-93418761D01*
X214559523Y-93323523D01*
X214559523Y-93228285D01*
X214511904Y-93133047D01*
X214416666Y-93085428D01*
X214178571Y-93085428D01*
X214083333Y-93037809D01*
X213654761Y-93418761D02*
X213559523Y-93466380D01*
X213369047Y-93466380D01*
X213273809Y-93418761D01*
X213226190Y-93323523D01*
X213226190Y-93275904D01*
X213273809Y-93180666D01*
X213369047Y-93133047D01*
X213511904Y-93133047D01*
X213607142Y-93085428D01*
X213654761Y-92990190D01*
X213654761Y-92942571D01*
X213607142Y-92847333D01*
X213511904Y-92799714D01*
X213369047Y-92799714D01*
X213273809Y-92847333D01*
X212416666Y-93418761D02*
X212511904Y-93466380D01*
X212702380Y-93466380D01*
X212797619Y-93418761D01*
X212845238Y-93323523D01*
X212845238Y-92942571D01*
X212797619Y-92847333D01*
X212702380Y-92799714D01*
X212511904Y-92799714D01*
X212416666Y-92847333D01*
X212369047Y-92942571D01*
X212369047Y-93037809D01*
X212845238Y-93133047D01*
X211511904Y-93466380D02*
X211511904Y-92466380D01*
X211511904Y-93418761D02*
X211607142Y-93466380D01*
X211797619Y-93466380D01*
X211892857Y-93418761D01*
X211940476Y-93371142D01*
X211988095Y-93275904D01*
X211988095Y-92990190D01*
X211940476Y-92894952D01*
X211892857Y-92847333D01*
X211797619Y-92799714D01*
X211607142Y-92799714D01*
X211511904Y-92847333D01*
X210130952Y-93466380D02*
X210226190Y-93418761D01*
X210273809Y-93371142D01*
X210321428Y-93275904D01*
X210321428Y-92990190D01*
X210273809Y-92894952D01*
X210226190Y-92847333D01*
X210130952Y-92799714D01*
X209988095Y-92799714D01*
X209892857Y-92847333D01*
X209845238Y-92894952D01*
X209797619Y-92990190D01*
X209797619Y-93275904D01*
X209845238Y-93371142D01*
X209892857Y-93418761D01*
X209988095Y-93466380D01*
X210130952Y-93466380D01*
X209369047Y-92799714D02*
X209369047Y-93466380D01*
X209369047Y-92894952D02*
X209321428Y-92847333D01*
X209226190Y-92799714D01*
X209083333Y-92799714D01*
X208988095Y-92847333D01*
X208940476Y-92942571D01*
X208940476Y-93466380D01*
X207130952Y-93371142D02*
X207178571Y-93418761D01*
X207321428Y-93466380D01*
X207416666Y-93466380D01*
X207559523Y-93418761D01*
X207654761Y-93323523D01*
X207702380Y-93228285D01*
X207750000Y-93037809D01*
X207750000Y-92894952D01*
X207702380Y-92704476D01*
X207654761Y-92609238D01*
X207559523Y-92514000D01*
X207416666Y-92466380D01*
X207321428Y-92466380D01*
X207178571Y-92514000D01*
X207130952Y-92561619D01*
X206702380Y-93466380D02*
X206702380Y-92466380D01*
X206273809Y-93466380D02*
X206273809Y-92942571D01*
X206321428Y-92847333D01*
X206416666Y-92799714D01*
X206559523Y-92799714D01*
X206654761Y-92847333D01*
X206702380Y-92894952D01*
X205797619Y-93466380D02*
X205797619Y-92466380D01*
X205797619Y-92847333D02*
X205702380Y-92799714D01*
X205511904Y-92799714D01*
X205416666Y-92847333D01*
X205369047Y-92894952D01*
X205321428Y-92990190D01*
X205321428Y-93275904D01*
X205369047Y-93371142D01*
X205416666Y-93418761D01*
X205511904Y-93466380D01*
X205702380Y-93466380D01*
X205797619Y-93418761D01*
X204892857Y-93466380D02*
X204892857Y-92799714D01*
X204892857Y-92466380D02*
X204940476Y-92514000D01*
X204892857Y-92561619D01*
X204845238Y-92514000D01*
X204892857Y-92466380D01*
X204892857Y-92561619D01*
X204226190Y-92466380D02*
X204035714Y-92466380D01*
X203940476Y-92514000D01*
X203845238Y-92609238D01*
X203797619Y-92799714D01*
X203797619Y-93133047D01*
X203845238Y-93323523D01*
X203940476Y-93418761D01*
X204035714Y-93466380D01*
X204226190Y-93466380D01*
X204321428Y-93418761D01*
X204416666Y-93323523D01*
X204464285Y-93133047D01*
X204464285Y-92799714D01*
X204416666Y-92609238D01*
X204321428Y-92514000D01*
X204226190Y-92466380D01*
X203416666Y-93418761D02*
X203273809Y-93466380D01*
X203035714Y-93466380D01*
X202940476Y-93418761D01*
X202892857Y-93371142D01*
X202845238Y-93275904D01*
X202845238Y-93180666D01*
X202892857Y-93085428D01*
X202940476Y-93037809D01*
X203035714Y-92990190D01*
X203226190Y-92942571D01*
X203321428Y-92894952D01*
X203369047Y-92847333D01*
X203416666Y-92752095D01*
X203416666Y-92656857D01*
X203369047Y-92561619D01*
X203321428Y-92514000D01*
X203226190Y-92466380D01*
X202988095Y-92466380D01*
X202845238Y-92514000D01*
X201083333Y-93466380D02*
X201416666Y-92990190D01*
X201654761Y-93466380D02*
X201654761Y-92466380D01*
X201273809Y-92466380D01*
X201178571Y-92514000D01*
X201130952Y-92561619D01*
X201083333Y-92656857D01*
X201083333Y-92799714D01*
X201130952Y-92894952D01*
X201178571Y-92942571D01*
X201273809Y-92990190D01*
X201654761Y-92990190D01*
X200797619Y-92466380D02*
X200226190Y-92466380D01*
X200511904Y-93466380D02*
X200511904Y-92466380D01*
X199321428Y-93371142D02*
X199369047Y-93418761D01*
X199511904Y-93466380D01*
X199607142Y-93466380D01*
X199750000Y-93418761D01*
X199845238Y-93323523D01*
X199892857Y-93228285D01*
X199940476Y-93037809D01*
X199940476Y-92894952D01*
X199892857Y-92704476D01*
X199845238Y-92609238D01*
X199750000Y-92514000D01*
X199607142Y-92466380D01*
X199511904Y-92466380D01*
X199369047Y-92514000D01*
X199321428Y-92561619D01*
X215511904Y-100266380D02*
X215511904Y-99266380D01*
X215511904Y-99742571D02*
X214940476Y-99742571D01*
X214940476Y-100266380D02*
X214940476Y-99266380D01*
X214511904Y-99980666D02*
X214035714Y-99980666D01*
X214607142Y-100266380D02*
X214273809Y-99266380D01*
X213940476Y-100266380D01*
X213607142Y-100266380D02*
X213607142Y-99266380D01*
X212654761Y-100266380D02*
X213130952Y-100266380D01*
X213130952Y-99266380D01*
X210988095Y-100171142D02*
X211035714Y-100218761D01*
X211178571Y-100266380D01*
X211273809Y-100266380D01*
X211416666Y-100218761D01*
X211511904Y-100123523D01*
X211559523Y-100028285D01*
X211607142Y-99837809D01*
X211607142Y-99694952D01*
X211559523Y-99504476D01*
X211511904Y-99409238D01*
X211416666Y-99314000D01*
X211273809Y-99266380D01*
X211178571Y-99266380D01*
X211035714Y-99314000D01*
X210988095Y-99361619D01*
X210607142Y-99980666D02*
X210130952Y-99980666D01*
X210702380Y-100266380D02*
X210369047Y-99266380D01*
X210035714Y-100266380D01*
X209750000Y-100218761D02*
X209607142Y-100266380D01*
X209369047Y-100266380D01*
X209273809Y-100218761D01*
X209226190Y-100171142D01*
X209178571Y-100075904D01*
X209178571Y-99980666D01*
X209226190Y-99885428D01*
X209273809Y-99837809D01*
X209369047Y-99790190D01*
X209559523Y-99742571D01*
X209654761Y-99694952D01*
X209702380Y-99647333D01*
X209750000Y-99552095D01*
X209750000Y-99456857D01*
X209702380Y-99361619D01*
X209654761Y-99314000D01*
X209559523Y-99266380D01*
X209321428Y-99266380D01*
X209178571Y-99314000D01*
X208750000Y-99742571D02*
X208416666Y-99742571D01*
X208273809Y-100266380D02*
X208750000Y-100266380D01*
X208750000Y-99266380D01*
X208273809Y-99266380D01*
X207892857Y-99980666D02*
X207416666Y-99980666D01*
X207988095Y-100266380D02*
X207654761Y-99266380D01*
X207321428Y-100266380D01*
X206416666Y-100266380D02*
X206750000Y-99790190D01*
X206988095Y-100266380D02*
X206988095Y-99266380D01*
X206607142Y-99266380D01*
X206511904Y-99314000D01*
X206464285Y-99361619D01*
X206416666Y-99456857D01*
X206416666Y-99599714D01*
X206464285Y-99694952D01*
X206511904Y-99742571D01*
X206607142Y-99790190D01*
X206988095Y-99790190D01*
X205988095Y-100171142D02*
X205940476Y-100218761D01*
X205988095Y-100266380D01*
X206035714Y-100218761D01*
X205988095Y-100171142D01*
X205988095Y-100266380D01*
X205988095Y-99885428D02*
X206035714Y-99314000D01*
X205988095Y-99266380D01*
X205940476Y-99314000D01*
X205988095Y-99885428D01*
X205988095Y-99266380D01*
X215511904Y-103666380D02*
X215511904Y-102666380D01*
X215178571Y-103380666D01*
X214845238Y-102666380D01*
X214845238Y-103666380D01*
X213940476Y-103666380D02*
X213940476Y-103142571D01*
X213988095Y-103047333D01*
X214083333Y-102999714D01*
X214273809Y-102999714D01*
X214369047Y-103047333D01*
X213940476Y-103618761D02*
X214035714Y-103666380D01*
X214273809Y-103666380D01*
X214369047Y-103618761D01*
X214416666Y-103523523D01*
X214416666Y-103428285D01*
X214369047Y-103333047D01*
X214273809Y-103285428D01*
X214035714Y-103285428D01*
X213940476Y-103237809D01*
X213035714Y-103666380D02*
X213035714Y-102666380D01*
X213035714Y-103618761D02*
X213130952Y-103666380D01*
X213321428Y-103666380D01*
X213416666Y-103618761D01*
X213464285Y-103571142D01*
X213511904Y-103475904D01*
X213511904Y-103190190D01*
X213464285Y-103094952D01*
X213416666Y-103047333D01*
X213321428Y-102999714D01*
X213130952Y-102999714D01*
X213035714Y-103047333D01*
X212178571Y-103618761D02*
X212273809Y-103666380D01*
X212464285Y-103666380D01*
X212559523Y-103618761D01*
X212607142Y-103523523D01*
X212607142Y-103142571D01*
X212559523Y-103047333D01*
X212464285Y-102999714D01*
X212273809Y-102999714D01*
X212178571Y-103047333D01*
X212130952Y-103142571D01*
X212130952Y-103237809D01*
X212607142Y-103333047D01*
X210940476Y-103666380D02*
X210940476Y-102999714D01*
X210940476Y-102666380D02*
X210988095Y-102714000D01*
X210940476Y-102761619D01*
X210892857Y-102714000D01*
X210940476Y-102666380D01*
X210940476Y-102761619D01*
X210464285Y-102999714D02*
X210464285Y-103666380D01*
X210464285Y-103094952D02*
X210416666Y-103047333D01*
X210321428Y-102999714D01*
X210178571Y-102999714D01*
X210083333Y-103047333D01*
X210035714Y-103142571D01*
X210035714Y-103666380D01*
X208845238Y-103618761D02*
X208702380Y-103666380D01*
X208464285Y-103666380D01*
X208369047Y-103618761D01*
X208321428Y-103571142D01*
X208273809Y-103475904D01*
X208273809Y-103380666D01*
X208321428Y-103285428D01*
X208369047Y-103237809D01*
X208464285Y-103190190D01*
X208654761Y-103142571D01*
X208750000Y-103094952D01*
X208797619Y-103047333D01*
X208845238Y-102952095D01*
X208845238Y-102856857D01*
X208797619Y-102761619D01*
X208750000Y-102714000D01*
X208654761Y-102666380D01*
X208416666Y-102666380D01*
X208273809Y-102714000D01*
X207416666Y-103666380D02*
X207416666Y-103142571D01*
X207464285Y-103047333D01*
X207559523Y-102999714D01*
X207750000Y-102999714D01*
X207845238Y-103047333D01*
X207416666Y-103618761D02*
X207511904Y-103666380D01*
X207750000Y-103666380D01*
X207845238Y-103618761D01*
X207892857Y-103523523D01*
X207892857Y-103428285D01*
X207845238Y-103333047D01*
X207750000Y-103285428D01*
X207511904Y-103285428D01*
X207416666Y-103237809D01*
X206940476Y-102999714D02*
X206940476Y-103666380D01*
X206940476Y-103094952D02*
X206892857Y-103047333D01*
X206797619Y-102999714D01*
X206654761Y-102999714D01*
X206559523Y-103047333D01*
X206511904Y-103142571D01*
X206511904Y-103666380D01*
X204940476Y-103142571D02*
X205273809Y-103142571D01*
X205273809Y-103666380D02*
X205273809Y-102666380D01*
X204797619Y-102666380D01*
X204416666Y-103666380D02*
X204416666Y-102999714D01*
X204416666Y-103190190D02*
X204369047Y-103094952D01*
X204321428Y-103047333D01*
X204226190Y-102999714D01*
X204130952Y-102999714D01*
X203369047Y-103666380D02*
X203369047Y-103142571D01*
X203416666Y-103047333D01*
X203511904Y-102999714D01*
X203702380Y-102999714D01*
X203797619Y-103047333D01*
X203369047Y-103618761D02*
X203464285Y-103666380D01*
X203702380Y-103666380D01*
X203797619Y-103618761D01*
X203845238Y-103523523D01*
X203845238Y-103428285D01*
X203797619Y-103333047D01*
X203702380Y-103285428D01*
X203464285Y-103285428D01*
X203369047Y-103237809D01*
X202892857Y-102999714D02*
X202892857Y-103666380D01*
X202892857Y-103094952D02*
X202845238Y-103047333D01*
X202750000Y-102999714D01*
X202607142Y-102999714D01*
X202511904Y-103047333D01*
X202464285Y-103142571D01*
X202464285Y-103666380D01*
X201559523Y-103618761D02*
X201654761Y-103666380D01*
X201845238Y-103666380D01*
X201940476Y-103618761D01*
X201988095Y-103571142D01*
X202035714Y-103475904D01*
X202035714Y-103190190D01*
X201988095Y-103094952D01*
X201940476Y-103047333D01*
X201845238Y-102999714D01*
X201654761Y-102999714D01*
X201559523Y-103047333D01*
X201130952Y-103666380D02*
X201130952Y-102999714D01*
X201130952Y-102666380D02*
X201178571Y-102714000D01*
X201130952Y-102761619D01*
X201083333Y-102714000D01*
X201130952Y-102666380D01*
X201130952Y-102761619D01*
X200702380Y-103618761D02*
X200607142Y-103666380D01*
X200416666Y-103666380D01*
X200321428Y-103618761D01*
X200273809Y-103523523D01*
X200273809Y-103475904D01*
X200321428Y-103380666D01*
X200416666Y-103333047D01*
X200559523Y-103333047D01*
X200654761Y-103285428D01*
X200702380Y-103190190D01*
X200702380Y-103142571D01*
X200654761Y-103047333D01*
X200559523Y-102999714D01*
X200416666Y-102999714D01*
X200321428Y-103047333D01*
X199416666Y-103618761D02*
X199511904Y-103666380D01*
X199702380Y-103666380D01*
X199797619Y-103618761D01*
X199845238Y-103571142D01*
X199892857Y-103475904D01*
X199892857Y-103190190D01*
X199845238Y-103094952D01*
X199797619Y-103047333D01*
X199702380Y-102999714D01*
X199511904Y-102999714D01*
X199416666Y-103047333D01*
X198845238Y-103666380D02*
X198940476Y-103618761D01*
X198988095Y-103571142D01*
X199035714Y-103475904D01*
X199035714Y-103190190D01*
X198988095Y-103094952D01*
X198940476Y-103047333D01*
X198845238Y-102999714D01*
X198702380Y-102999714D01*
X198607142Y-103047333D01*
X198559523Y-103094952D01*
X198511904Y-103190190D01*
X198511904Y-103475904D01*
X198559523Y-103571142D01*
X198607142Y-103618761D01*
X198702380Y-103666380D01*
X198845238Y-103666380D01*
X215511904Y-105366380D02*
X215511904Y-104366380D01*
X215083333Y-105366380D02*
X215083333Y-104842571D01*
X215130952Y-104747333D01*
X215226190Y-104699714D01*
X215369047Y-104699714D01*
X215464285Y-104747333D01*
X215511904Y-104794952D01*
X214750000Y-104699714D02*
X214369047Y-104699714D01*
X214607142Y-104366380D02*
X214607142Y-105223523D01*
X214559523Y-105318761D01*
X214464285Y-105366380D01*
X214369047Y-105366380D01*
X214178571Y-104699714D02*
X213797619Y-104699714D01*
X214035714Y-104366380D02*
X214035714Y-105223523D01*
X213988095Y-105318761D01*
X213892857Y-105366380D01*
X213797619Y-105366380D01*
X213464285Y-104699714D02*
X213464285Y-105699714D01*
X213464285Y-104747333D02*
X213369047Y-104699714D01*
X213178571Y-104699714D01*
X213083333Y-104747333D01*
X213035714Y-104794952D01*
X212988095Y-104890190D01*
X212988095Y-105175904D01*
X213035714Y-105271142D01*
X213083333Y-105318761D01*
X213178571Y-105366380D01*
X213369047Y-105366380D01*
X213464285Y-105318761D01*
X212607142Y-105318761D02*
X212511904Y-105366380D01*
X212321428Y-105366380D01*
X212226190Y-105318761D01*
X212178571Y-105223523D01*
X212178571Y-105175904D01*
X212226190Y-105080666D01*
X212321428Y-105033047D01*
X212464285Y-105033047D01*
X212559523Y-104985428D01*
X212607142Y-104890190D01*
X212607142Y-104842571D01*
X212559523Y-104747333D01*
X212464285Y-104699714D01*
X212321428Y-104699714D01*
X212226190Y-104747333D01*
X211750000Y-105271142D02*
X211702380Y-105318761D01*
X211750000Y-105366380D01*
X211797619Y-105318761D01*
X211750000Y-105271142D01*
X211750000Y-105366380D01*
X211750000Y-104747333D02*
X211702380Y-104794952D01*
X211750000Y-104842571D01*
X211797619Y-104794952D01*
X211750000Y-104747333D01*
X211750000Y-104842571D01*
X210559523Y-104318761D02*
X211416666Y-105604476D01*
X209511904Y-104318761D02*
X210369047Y-105604476D01*
X209178571Y-105366380D02*
X209178571Y-104699714D01*
X209178571Y-104890190D02*
X209130952Y-104794952D01*
X209083333Y-104747333D01*
X208988095Y-104699714D01*
X208892857Y-104699714D01*
X208178571Y-105318761D02*
X208273809Y-105366380D01*
X208464285Y-105366380D01*
X208559523Y-105318761D01*
X208607142Y-105223523D01*
X208607142Y-104842571D01*
X208559523Y-104747333D01*
X208464285Y-104699714D01*
X208273809Y-104699714D01*
X208178571Y-104747333D01*
X208130952Y-104842571D01*
X208130952Y-104937809D01*
X208607142Y-105033047D01*
X207845238Y-104699714D02*
X207464285Y-104699714D01*
X207702380Y-104366380D02*
X207702380Y-105223523D01*
X207654761Y-105318761D01*
X207559523Y-105366380D01*
X207464285Y-105366380D01*
X207130952Y-105366380D02*
X207130952Y-104699714D01*
X207130952Y-104366380D02*
X207178571Y-104414000D01*
X207130952Y-104461619D01*
X207083333Y-104414000D01*
X207130952Y-104366380D01*
X207130952Y-104461619D01*
X206654761Y-104699714D02*
X206654761Y-105366380D01*
X206654761Y-104794952D02*
X206607142Y-104747333D01*
X206511904Y-104699714D01*
X206369047Y-104699714D01*
X206273809Y-104747333D01*
X206226190Y-104842571D01*
X206226190Y-105366380D01*
X205321428Y-105366380D02*
X205321428Y-104842571D01*
X205369047Y-104747333D01*
X205464285Y-104699714D01*
X205654761Y-104699714D01*
X205750000Y-104747333D01*
X205321428Y-105318761D02*
X205416666Y-105366380D01*
X205654761Y-105366380D01*
X205750000Y-105318761D01*
X205797619Y-105223523D01*
X205797619Y-105128285D01*
X205750000Y-105033047D01*
X205654761Y-104985428D01*
X205416666Y-104985428D01*
X205321428Y-104937809D01*
X204845238Y-105271142D02*
X204797619Y-105318761D01*
X204845238Y-105366380D01*
X204892857Y-105318761D01*
X204845238Y-105271142D01*
X204845238Y-105366380D01*
X204369047Y-104699714D02*
X204369047Y-105366380D01*
X204369047Y-104794952D02*
X204321428Y-104747333D01*
X204226190Y-104699714D01*
X204083333Y-104699714D01*
X203988095Y-104747333D01*
X203940476Y-104842571D01*
X203940476Y-105366380D01*
X203083333Y-105318761D02*
X203178571Y-105366380D01*
X203369047Y-105366380D01*
X203464285Y-105318761D01*
X203511904Y-105223523D01*
X203511904Y-104842571D01*
X203464285Y-104747333D01*
X203369047Y-104699714D01*
X203178571Y-104699714D01*
X203083333Y-104747333D01*
X203035714Y-104842571D01*
X203035714Y-104937809D01*
X203511904Y-105033047D01*
X202750000Y-104699714D02*
X202369047Y-104699714D01*
X202607142Y-104366380D02*
X202607142Y-105223523D01*
X202559523Y-105318761D01*
X202464285Y-105366380D01*
X202369047Y-105366380D01*
X201321428Y-104318761D02*
X202178571Y-105604476D01*
X201035714Y-105318761D02*
X200940476Y-105366380D01*
X200750000Y-105366380D01*
X200654761Y-105318761D01*
X200607142Y-105223523D01*
X200607142Y-105175904D01*
X200654761Y-105080666D01*
X200750000Y-105033047D01*
X200892857Y-105033047D01*
X200988095Y-104985428D01*
X201035714Y-104890190D01*
X201035714Y-104842571D01*
X200988095Y-104747333D01*
X200892857Y-104699714D01*
X200750000Y-104699714D01*
X200654761Y-104747333D01*
X200178571Y-104699714D02*
X200178571Y-105699714D01*
X200178571Y-104747333D02*
X200083333Y-104699714D01*
X199892857Y-104699714D01*
X199797619Y-104747333D01*
X199750000Y-104794952D01*
X199702380Y-104890190D01*
X199702380Y-105175904D01*
X199750000Y-105271142D01*
X199797619Y-105318761D01*
X199892857Y-105366380D01*
X200083333Y-105366380D01*
X200178571Y-105318761D01*
X198845238Y-104699714D02*
X198845238Y-105699714D01*
X198845238Y-105318761D02*
X198940476Y-105366380D01*
X199130952Y-105366380D01*
X199226190Y-105318761D01*
X199273809Y-105271142D01*
X199321428Y-105175904D01*
X199321428Y-104890190D01*
X199273809Y-104794952D01*
X199226190Y-104747333D01*
X199130952Y-104699714D01*
X198940476Y-104699714D01*
X198845238Y-104747333D01*
X198369047Y-105366380D02*
X198369047Y-104699714D01*
X198369047Y-104890190D02*
X198321428Y-104794952D01*
X198273809Y-104747333D01*
X198178571Y-104699714D01*
X198083333Y-104699714D01*
X189745714Y-112062000D02*
X189840952Y-112014380D01*
X189983809Y-112014380D01*
X190126666Y-112062000D01*
X190221904Y-112157238D01*
X190269523Y-112252476D01*
X190317142Y-112442952D01*
X190317142Y-112585809D01*
X190269523Y-112776285D01*
X190221904Y-112871523D01*
X190126666Y-112966761D01*
X189983809Y-113014380D01*
X189888571Y-113014380D01*
X189745714Y-112966761D01*
X189698095Y-112919142D01*
X189698095Y-112585809D01*
X189888571Y-112585809D01*
X189269523Y-113014380D02*
X189269523Y-112014380D01*
X188698095Y-113014380D01*
X188698095Y-112014380D01*
X188221904Y-113014380D02*
X188221904Y-112014380D01*
X187983809Y-112014380D01*
X187840952Y-112062000D01*
X187745714Y-112157238D01*
X187698095Y-112252476D01*
X187650476Y-112442952D01*
X187650476Y-112585809D01*
X187698095Y-112776285D01*
X187745714Y-112871523D01*
X187840952Y-112966761D01*
X187983809Y-113014380D01*
X188221904Y-113014380D01*
X193298095Y-118014380D02*
X193298095Y-117014380D01*
X193060000Y-117014380D01*
X192917142Y-117062000D01*
X192821904Y-117157238D01*
X192774285Y-117252476D01*
X192726666Y-117442952D01*
X192726666Y-117585809D01*
X192774285Y-117776285D01*
X192821904Y-117871523D01*
X192917142Y-117966761D01*
X193060000Y-118014380D01*
X193298095Y-118014380D01*
X192345714Y-117728666D02*
X191869523Y-117728666D01*
X192440952Y-118014380D02*
X192107619Y-117014380D01*
X191774285Y-118014380D01*
X191583809Y-117014380D02*
X191012380Y-117014380D01*
X191298095Y-118014380D02*
X191298095Y-117014380D01*
X190726666Y-117728666D02*
X190250476Y-117728666D01*
X190821904Y-118014380D02*
X190488571Y-117014380D01*
X190155238Y-118014380D01*
X198117142Y-113233428D02*
X197355238Y-113233428D01*
X197736190Y-113614380D02*
X197736190Y-112852476D01*
X197021904Y-112614380D02*
X196688571Y-113614380D01*
X196355238Y-112614380D01*
D12*
X200501428Y-116040571D02*
X201215714Y-116040571D01*
X201215714Y-114540571D01*
X200001428Y-115254857D02*
X199501428Y-115254857D01*
X199287142Y-116040571D02*
X200001428Y-116040571D01*
X200001428Y-114540571D01*
X199287142Y-114540571D01*
X198644285Y-116040571D02*
X198644285Y-114540571D01*
X198287142Y-114540571D01*
X198072857Y-114612000D01*
X197930000Y-114754857D01*
X197858571Y-114897714D01*
X197787142Y-115183428D01*
X197787142Y-115397714D01*
X197858571Y-115683428D01*
X197930000Y-115826285D01*
X198072857Y-115969142D01*
X198287142Y-116040571D01*
X198644285Y-116040571D01*
X197215714Y-115969142D02*
X197072857Y-116040571D01*
X196787142Y-116040571D01*
X196644285Y-115969142D01*
X196572857Y-115826285D01*
X196572857Y-115754857D01*
X196644285Y-115612000D01*
X196787142Y-115540571D01*
X197001428Y-115540571D01*
X197144285Y-115469142D01*
X197215714Y-115326285D01*
X197215714Y-115254857D01*
X197144285Y-115112000D01*
X197001428Y-115040571D01*
X196787142Y-115040571D01*
X196644285Y-115112000D01*
D13*
X192210000Y-126916960D02*
X182050000Y-126916960D01*
X192210000Y-126916960D02*
X192210000Y-122764060D01*
X192210000Y-122764060D02*
X191209240Y-121763300D01*
X191209240Y-121763300D02*
X183050760Y-121763300D01*
X183050760Y-121763300D02*
X182050000Y-122764060D01*
X182050000Y-122764060D02*
X182050000Y-126916960D01*
D14*
X190678380Y-125111020D02*
X190678380Y-125809520D01*
D10*
X115755000Y-69062000D02*
X115755000Y-69262000D01*
X116855000Y-70362000D02*
X116855000Y-71362000D01*
X120255000Y-70362000D02*
X116855000Y-70362000D01*
X120255000Y-71362000D02*
X120255000Y-70362000D01*
X116855000Y-71362000D02*
X120255000Y-71362000D01*
X116855000Y-67962000D02*
X116855000Y-66962000D01*
X120255000Y-67962000D02*
X116855000Y-67962000D01*
X120255000Y-66962000D02*
X120255000Y-67962000D01*
X116855000Y-66962000D02*
X120255000Y-66962000D01*
X121755000Y-66962000D02*
X121755000Y-71362000D01*
X115755000Y-72312000D02*
X115755000Y-73112000D01*
X114155000Y-73112000D02*
X118255000Y-73112000D01*
X114155000Y-72312000D02*
X114155000Y-73112000D01*
X115755000Y-72312000D02*
X114155000Y-72312000D01*
X115755000Y-71062000D02*
X115755000Y-72312000D01*
X115755000Y-66012000D02*
X115755000Y-65212000D01*
X114155000Y-65212000D02*
X118255000Y-65212000D01*
X114155000Y-66012000D02*
X114155000Y-65212000D01*
X115755000Y-66012000D02*
X114155000Y-66012000D01*
X115755000Y-67262000D02*
X115755000Y-66012000D01*
X120755000Y-69662000D02*
X121755000Y-69662000D01*
X120755000Y-68662000D02*
X120755000Y-69662000D01*
X121755000Y-68662000D02*
X120755000Y-68662000D01*
X115255000Y-66762000D02*
G75*
G03X115255000Y-66762000I-250000J0D01*
G01*
X103930000Y-124487000D02*
X103930000Y-123687000D01*
X110630000Y-123687000D02*
X110630000Y-124487000D01*
X108880000Y-122787000D02*
X107180000Y-122787000D01*
X110130000Y-125387000D02*
X104430000Y-125387000D01*
X107380000Y-126687000D02*
X107380000Y-125387000D01*
X108480000Y-126887000D02*
X107580000Y-126887000D01*
X108680000Y-125387000D02*
X108680000Y-126687000D01*
X107380000Y-126687000D02*
X107580000Y-126887000D01*
X108680000Y-126687000D02*
X108480000Y-126887000D01*
X105880000Y-122787000D02*
X105680000Y-122787000D01*
X108030000Y-125087000D02*
X108030000Y-125387000D01*
X106530000Y-125087000D02*
X106530000Y-125387000D01*
D15*
X190419904Y-121316139D02*
X190419904Y-120300139D01*
X190032857Y-120300139D01*
X189936095Y-120348520D01*
X189887714Y-120396900D01*
X189839333Y-120493662D01*
X189839333Y-120638805D01*
X189887714Y-120735567D01*
X189936095Y-120783948D01*
X190032857Y-120832329D01*
X190419904Y-120832329D01*
X188968476Y-120638805D02*
X188968476Y-121316139D01*
X189210380Y-120251758D02*
X189452285Y-120977472D01*
X188823333Y-120977472D01*
X196274000Y-118776139D02*
X196274000Y-119598615D01*
X196225619Y-119695377D01*
X196177238Y-119743758D01*
X196080476Y-119792139D01*
X195886952Y-119792139D01*
X195790190Y-119743758D01*
X195741809Y-119695377D01*
X195693428Y-119598615D01*
X195693428Y-118776139D01*
X195258000Y-119743758D02*
X195112857Y-119792139D01*
X194870952Y-119792139D01*
X194774190Y-119743758D01*
X194725809Y-119695377D01*
X194677428Y-119598615D01*
X194677428Y-119501853D01*
X194725809Y-119405091D01*
X194774190Y-119356710D01*
X194870952Y-119308329D01*
X195064476Y-119259948D01*
X195161238Y-119211567D01*
X195209619Y-119163186D01*
X195258000Y-119066424D01*
X195258000Y-118969662D01*
X195209619Y-118872900D01*
X195161238Y-118824520D01*
X195064476Y-118776139D01*
X194822571Y-118776139D01*
X194677428Y-118824520D01*
X193903333Y-119259948D02*
X193758190Y-119308329D01*
X193709809Y-119356710D01*
X193661428Y-119453472D01*
X193661428Y-119598615D01*
X193709809Y-119695377D01*
X193758190Y-119743758D01*
X193854952Y-119792139D01*
X194242000Y-119792139D01*
X194242000Y-118776139D01*
X193903333Y-118776139D01*
X193806571Y-118824520D01*
X193758190Y-118872900D01*
X193709809Y-118969662D01*
X193709809Y-119066424D01*
X193758190Y-119163186D01*
X193806571Y-119211567D01*
X193903333Y-119259948D01*
X194242000Y-119259948D01*
X193467904Y-119888900D02*
X192693809Y-119888900D01*
X192451904Y-119792139D02*
X192451904Y-118776139D01*
X192113238Y-119501853D01*
X191774571Y-118776139D01*
X191774571Y-119792139D01*
X191290761Y-119792139D02*
X191290761Y-118776139D01*
X190226380Y-119695377D02*
X190274761Y-119743758D01*
X190419904Y-119792139D01*
X190516666Y-119792139D01*
X190661809Y-119743758D01*
X190758571Y-119646996D01*
X190806952Y-119550234D01*
X190855333Y-119356710D01*
X190855333Y-119211567D01*
X190806952Y-119018043D01*
X190758571Y-118921281D01*
X190661809Y-118824520D01*
X190516666Y-118776139D01*
X190419904Y-118776139D01*
X190274761Y-118824520D01*
X190226380Y-118872900D01*
X189210380Y-119792139D02*
X189549047Y-119308329D01*
X189790952Y-119792139D02*
X189790952Y-118776139D01*
X189403904Y-118776139D01*
X189307142Y-118824520D01*
X189258761Y-118872900D01*
X189210380Y-118969662D01*
X189210380Y-119114805D01*
X189258761Y-119211567D01*
X189307142Y-119259948D01*
X189403904Y-119308329D01*
X189790952Y-119308329D01*
X188581428Y-118776139D02*
X188387904Y-118776139D01*
X188291142Y-118824520D01*
X188194380Y-118921281D01*
X188145999Y-119114805D01*
X188145999Y-119453472D01*
X188194380Y-119646996D01*
X188291142Y-119743758D01*
X188387904Y-119792139D01*
X188581428Y-119792139D01*
X188678190Y-119743758D01*
X188774952Y-119646996D01*
X188823333Y-119453472D01*
X188823333Y-119114805D01*
X188774952Y-118921281D01*
X188678190Y-118824520D01*
X188581428Y-118776139D01*
X187952476Y-119888900D02*
X187178380Y-119888900D01*
X186355904Y-119792139D02*
X186694571Y-119308329D01*
X186936476Y-119792139D02*
X186936476Y-118776139D01*
X186549428Y-118776139D01*
X186452666Y-118824520D01*
X186404285Y-118872900D01*
X186355904Y-118969662D01*
X186355904Y-119114805D01*
X186404285Y-119211567D01*
X186452666Y-119259948D01*
X186549428Y-119308329D01*
X186936476Y-119308329D01*
X185920476Y-119792139D02*
X185920476Y-118776139D01*
X184904476Y-118824520D02*
X185001238Y-118776139D01*
X185146380Y-118776139D01*
X185291523Y-118824520D01*
X185388285Y-118921281D01*
X185436666Y-119018043D01*
X185485047Y-119211567D01*
X185485047Y-119356710D01*
X185436666Y-119550234D01*
X185388285Y-119646996D01*
X185291523Y-119743758D01*
X185146380Y-119792139D01*
X185049619Y-119792139D01*
X184904476Y-119743758D01*
X184856095Y-119695377D01*
X184856095Y-119356710D01*
X185049619Y-119356710D01*
X184420666Y-119792139D02*
X184420666Y-118776139D01*
X184420666Y-119259948D02*
X183840095Y-119259948D01*
X183840095Y-119792139D02*
X183840095Y-118776139D01*
X183501428Y-118776139D02*
X182920857Y-118776139D01*
X183211142Y-119792139D02*
X183211142Y-118776139D01*
D10*
X111458571Y-66876285D02*
X111506190Y-67019142D01*
X111553809Y-67066761D01*
X111649047Y-67114380D01*
X111791904Y-67114380D01*
X111887142Y-67066761D01*
X111934761Y-67019142D01*
X111982380Y-66923904D01*
X111982380Y-66542952D01*
X110982380Y-66542952D01*
X110982380Y-66876285D01*
X111030000Y-66971523D01*
X111077619Y-67019142D01*
X111172857Y-67066761D01*
X111268095Y-67066761D01*
X111363333Y-67019142D01*
X111410952Y-66971523D01*
X111458571Y-66876285D01*
X111458571Y-66542952D01*
X110982380Y-67400095D02*
X110982380Y-67971523D01*
X111982380Y-67685809D02*
X110982380Y-67685809D01*
X111982380Y-68828666D02*
X111982380Y-68257238D01*
X111982380Y-68542952D02*
X110982380Y-68542952D01*
X111125238Y-68447714D01*
X111220476Y-68352476D01*
X111268095Y-68257238D01*
X110113333Y-120991761D02*
X109970476Y-121039380D01*
X109732380Y-121039380D01*
X109637142Y-120991761D01*
X109589523Y-120944142D01*
X109541904Y-120848904D01*
X109541904Y-120753666D01*
X109589523Y-120658428D01*
X109637142Y-120610809D01*
X109732380Y-120563190D01*
X109922857Y-120515571D01*
X110018095Y-120467952D01*
X110065714Y-120420333D01*
X110113333Y-120325095D01*
X110113333Y-120229857D01*
X110065714Y-120134619D01*
X110018095Y-120087000D01*
X109922857Y-120039380D01*
X109684761Y-120039380D01*
X109541904Y-120087000D01*
X109208571Y-120039380D02*
X108970476Y-121039380D01*
X108780000Y-120325095D01*
X108589523Y-121039380D01*
X108351428Y-120039380D01*
X108018095Y-120134619D02*
X107970476Y-120087000D01*
X107875238Y-120039380D01*
X107637142Y-120039380D01*
X107541904Y-120087000D01*
X107494285Y-120134619D01*
X107446666Y-120229857D01*
X107446666Y-120325095D01*
X107494285Y-120467952D01*
X108065714Y-121039380D01*
X107446666Y-121039380D01*
M02*
