G04 #@! TF.GenerationSoftware,KiCad,Pcbnew,(2016-12-18 revision 3ffa37c)-master*
G04 #@! TF.CreationDate,2016-12-20T15:26:01-08:00*
G04 #@! TF.ProjectId,badge-routed,62616467652D726F757465642E6B6963,rev?*
G04 #@! TF.FileFunction,Soldermask,Bot*
G04 #@! TF.FilePolarity,Negative*
%FSLAX46Y46*%
G04 Gerber Fmt 4.6, Leading zero omitted, Abs format (unit mm)*
G04 Created by KiCad (PCBNEW (2016-12-18 revision 3ffa37c)-master) date Tuesday, December 20, 2016 'PMt' 03:26:01 PM*
%MOMM*%
%LPD*%
G01*
G04 APERTURE LIST*
%ADD10C,0.150000*%
%ADD11C,3.400000*%
%ADD12O,2.127200X2.127200*%
%ADD13R,2.127200X2.127200*%
%ADD14R,1.900000X1.900000*%
%ADD15O,1.400000X1.950000*%
%ADD16O,1.650000X1.350000*%
%ADD17C,1.900000*%
%ADD18R,2.127200X2.432000*%
%ADD19O,2.127200X2.432000*%
%ADD20C,1.924000*%
%ADD21R,1.400000X3.900000*%
%ADD22R,2.000000X3.800000*%
G04 APERTURE END LIST*
D10*
D11*
X63700000Y-129000000D03*
X130200000Y-129000000D03*
X130200000Y-73000000D03*
X63700000Y-73000000D03*
D12*
X55040000Y-76940000D03*
X52500000Y-76940000D03*
X55040000Y-79480000D03*
X52500000Y-79480000D03*
X55040000Y-82020000D03*
X52500000Y-82020000D03*
X55040000Y-84560000D03*
X52500000Y-84560000D03*
X55040000Y-87100000D03*
X52500000Y-87100000D03*
X55040000Y-89640000D03*
X52500000Y-89640000D03*
X55040000Y-92180000D03*
X52500000Y-92180000D03*
X55040000Y-94720000D03*
X52500000Y-94720000D03*
X55040000Y-97260000D03*
X52500000Y-97260000D03*
X55040000Y-99800000D03*
X52500000Y-99800000D03*
X55040000Y-102340000D03*
X52500000Y-102340000D03*
X55040000Y-104880000D03*
X52500000Y-104880000D03*
X55040000Y-107420000D03*
X52500000Y-107420000D03*
X55040000Y-109960000D03*
X52500000Y-109960000D03*
X55040000Y-112500000D03*
X52500000Y-112500000D03*
X55040000Y-115040000D03*
X52500000Y-115040000D03*
X55040000Y-117580000D03*
X52500000Y-117580000D03*
X55040000Y-120120000D03*
X52500000Y-120120000D03*
X55040000Y-122660000D03*
X52500000Y-122660000D03*
X55040000Y-125200000D03*
D13*
X52500000Y-125200000D03*
D14*
X150000000Y-146000000D03*
X145000000Y-146000000D03*
X92790000Y-139590000D03*
D15*
X120499100Y-172137460D03*
X113499100Y-172137460D03*
D16*
X119499100Y-169437460D03*
X114499100Y-169437460D03*
D17*
X79000000Y-139500000D03*
X78000000Y-55000000D03*
X78000000Y-44000000D03*
X78000000Y-49500000D03*
X82400000Y-35700000D03*
X103500000Y-139500000D03*
X97870000Y-139590000D03*
X74000000Y-139500000D03*
X69210000Y-139470000D03*
D18*
X72000000Y-62500000D03*
D19*
X74540000Y-62500000D03*
X77080000Y-62500000D03*
X79620000Y-62500000D03*
X82160000Y-62500000D03*
X84700000Y-62500000D03*
D20*
X140500000Y-75650000D03*
X140500000Y-73500000D03*
X140500000Y-71350000D03*
X60960000Y-158750000D03*
X70960000Y-158750000D03*
D13*
X154940000Y-86360000D03*
D12*
X154940000Y-88900000D03*
X152400000Y-86360000D03*
X152400000Y-88900000D03*
X149860000Y-86360000D03*
X149860000Y-88900000D03*
X147320000Y-86360000D03*
X147320000Y-88900000D03*
X144780000Y-86360000D03*
X144780000Y-88900000D03*
D21*
X127000000Y-140725000D03*
X125000000Y-140725000D03*
D22*
X129400000Y-146275000D03*
X122600000Y-146275000D03*
M02*
