G04 #@! TF.GenerationSoftware,KiCad,Pcbnew,(2016-12-18 revision 3ffa37c)-master*
G04 #@! TF.CreationDate,2016-12-20T20:39:12-08:00*
G04 #@! TF.ProjectId,badge-kicad,62616467652D6B696361642E6B696361,rev?*
G04 #@! TF.FileFunction,Soldermask,Top*
G04 #@! TF.FilePolarity,Negative*
%FSLAX46Y46*%
G04 Gerber Fmt 4.6, Leading zero omitted, Abs format (unit mm)*
G04 Created by KiCad (PCBNEW (2016-12-18 revision 3ffa37c)-master) date Tuesday, December 20, 2016 'PMt' 08:39:12 PM*
%MOMM*%
%LPD*%
G01*
G04 APERTURE LIST*
%ADD10C,0.150000*%
%ADD11R,2.000000X1.400000*%
%ADD12C,3.600000*%
%ADD13R,1.900000X1.900000*%
%ADD14R,1.598880X1.598880*%
%ADD15C,1.900000*%
%ADD16C,1.450000*%
%ADD17R,1.450000X1.450000*%
%ADD18R,1.300000X1.200000*%
%ADD19O,2.127200X2.127200*%
%ADD20R,2.127200X2.127200*%
%ADD21R,1.100000X1.700000*%
%ADD22R,1.400000X4.500000*%
%ADD23R,1.100000X4.500000*%
%ADD24R,1.650000X1.900000*%
%ADD25R,1.900000X1.650000*%
%ADD26O,1.400000X1.950000*%
%ADD27O,1.650000X1.350000*%
%ADD28R,0.800000X1.750000*%
%ADD29R,1.700000X1.100000*%
%ADD30R,2.127200X2.432000*%
%ADD31O,2.127200X2.432000*%
%ADD32R,1.460000X1.050000*%
%ADD33R,0.900000X1.400000*%
%ADD34C,1.924000*%
%ADD35R,2.150000X0.850000*%
%ADD36R,0.806400X0.806400*%
%ADD37O,3.219400X3.346400*%
%ADD38R,3.067000X3.067000*%
%ADD39R,0.704800X0.806400*%
%ADD40R,0.806400X0.704800*%
%ADD41R,1.950000X1.700000*%
%ADD42R,1.799540X1.550620*%
G04 APERTURE END LIST*
D10*
D11*
X27900000Y-102700000D03*
X27900000Y-99500000D03*
X22900000Y-102700000D03*
X22900000Y-99500000D03*
D12*
X63700000Y-73000000D03*
X130200000Y-73000000D03*
X130200000Y-129000000D03*
X63700000Y-129000000D03*
D13*
X138250000Y-146250000D03*
X146250000Y-146250000D03*
D11*
X166290000Y-102870000D03*
X166290000Y-99670000D03*
X161290000Y-102870000D03*
X161290000Y-99670000D03*
D14*
X97799020Y-150500000D03*
X95700980Y-150500000D03*
X140950980Y-109500000D03*
X143049020Y-109500000D03*
X127549020Y-59750000D03*
X125450980Y-59750000D03*
X125450980Y-65000000D03*
X127549020Y-65000000D03*
X98299020Y-161000000D03*
X96200980Y-161000000D03*
X140950980Y-103000000D03*
X143049020Y-103000000D03*
X143049020Y-97500000D03*
X140950980Y-97500000D03*
X95950980Y-155500000D03*
X98049020Y-155500000D03*
D15*
X78000000Y-40500000D03*
X78000000Y-47500000D03*
X78040000Y-53910000D03*
X86000000Y-40000000D03*
X76000000Y-141500000D03*
X71000000Y-136000000D03*
X76000000Y-136000000D03*
X69000000Y-141500000D03*
X66000000Y-136000000D03*
D13*
X82000000Y-136000000D03*
D16*
X155230000Y-90500000D03*
X155230000Y-85420000D03*
X155230000Y-86690000D03*
X155230000Y-87960000D03*
X155230000Y-89230000D03*
X156500000Y-85420000D03*
X156500000Y-86690000D03*
X156500000Y-87960000D03*
X156500000Y-89230000D03*
D17*
X156500000Y-90500000D03*
D18*
X59750000Y-146500000D03*
X61750000Y-145550000D03*
X61750000Y-147450000D03*
D19*
X55040000Y-76940000D03*
X52500000Y-76940000D03*
X55040000Y-79480000D03*
X52500000Y-79480000D03*
X55040000Y-82020000D03*
X52500000Y-82020000D03*
X55040000Y-84560000D03*
X52500000Y-84560000D03*
X55040000Y-87100000D03*
X52500000Y-87100000D03*
X55040000Y-89640000D03*
X52500000Y-89640000D03*
X55040000Y-92180000D03*
X52500000Y-92180000D03*
X55040000Y-94720000D03*
X52500000Y-94720000D03*
X55040000Y-97260000D03*
X52500000Y-97260000D03*
X55040000Y-99800000D03*
X52500000Y-99800000D03*
X55040000Y-102340000D03*
X52500000Y-102340000D03*
X55040000Y-104880000D03*
X52500000Y-104880000D03*
X55040000Y-107420000D03*
X52500000Y-107420000D03*
X55040000Y-109960000D03*
X52500000Y-109960000D03*
X55040000Y-112500000D03*
X52500000Y-112500000D03*
X55040000Y-115040000D03*
X52500000Y-115040000D03*
X55040000Y-117580000D03*
X52500000Y-117580000D03*
X55040000Y-120120000D03*
X52500000Y-120120000D03*
X55040000Y-122660000D03*
X52500000Y-122660000D03*
X55040000Y-125200000D03*
D20*
X52500000Y-125200000D03*
D21*
X136450000Y-97500000D03*
X134550000Y-97500000D03*
D22*
X73000000Y-103000000D03*
D23*
X71500000Y-103000000D03*
X74500000Y-103000000D03*
D24*
X130175000Y-157230000D03*
X130175000Y-154730000D03*
X88500000Y-170250000D03*
X88500000Y-172750000D03*
X55245000Y-152785000D03*
X55245000Y-150285000D03*
X41275000Y-129330000D03*
X41275000Y-131830000D03*
X32000000Y-102500000D03*
X32000000Y-100000000D03*
X38100000Y-71775000D03*
X38100000Y-74275000D03*
X64770000Y-46970000D03*
X64770000Y-44470000D03*
X86250000Y-29750000D03*
X86250000Y-32250000D03*
D25*
X142250000Y-117000000D03*
X139750000Y-117000000D03*
X152435000Y-138988000D03*
X154935000Y-138988000D03*
X142220000Y-121920000D03*
X139720000Y-121920000D03*
X120000000Y-116250000D03*
X122500000Y-116250000D03*
D24*
X157480000Y-102620000D03*
X157480000Y-100120000D03*
D25*
X66060000Y-88900000D03*
X68560000Y-88900000D03*
X77750000Y-89000000D03*
X75250000Y-89000000D03*
D24*
X81000000Y-94750000D03*
X81000000Y-97250000D03*
X96600000Y-85750000D03*
X96600000Y-88250000D03*
X96500000Y-72250000D03*
X96500000Y-69750000D03*
D25*
X102750000Y-77500000D03*
X100250000Y-77500000D03*
X100250000Y-72500000D03*
X102750000Y-72500000D03*
X99250000Y-67000000D03*
X96750000Y-67000000D03*
X96500000Y-57000000D03*
X99000000Y-57000000D03*
X102750000Y-88500000D03*
X100250000Y-88500000D03*
X106750000Y-171000000D03*
X104250000Y-171000000D03*
X118250000Y-162000000D03*
X115750000Y-162000000D03*
X102250000Y-125000000D03*
X104750000Y-125000000D03*
D24*
X147650000Y-132200000D03*
X147650000Y-129700000D03*
X140500000Y-44750000D03*
X140500000Y-47250000D03*
D25*
X160250000Y-66200000D03*
X157750000Y-66200000D03*
D26*
X120499100Y-172137460D03*
X113499100Y-172137460D03*
D27*
X119499100Y-169437460D03*
X114499100Y-169437460D03*
D28*
X118299100Y-169437460D03*
X117649100Y-169437460D03*
X116999100Y-169437460D03*
X116349100Y-169437460D03*
X115699100Y-169437460D03*
D21*
X85050000Y-153500000D03*
X86950000Y-153500000D03*
D29*
X109500000Y-137550000D03*
X109500000Y-139450000D03*
X134000000Y-56950000D03*
X134000000Y-55050000D03*
D21*
X127450000Y-55000000D03*
X125550000Y-55000000D03*
X86950000Y-147500000D03*
X85050000Y-147500000D03*
D29*
X78000000Y-163350000D03*
X78000000Y-161450000D03*
D21*
X136550000Y-102800000D03*
X134650000Y-102800000D03*
X81050000Y-124000000D03*
X82950000Y-124000000D03*
X122700000Y-69350000D03*
X120800000Y-69350000D03*
X110025000Y-125038000D03*
X111925000Y-125038000D03*
X86950000Y-161000000D03*
X85050000Y-161000000D03*
D29*
X151810000Y-123230000D03*
X151810000Y-125130000D03*
X81000000Y-102050000D03*
X81000000Y-103950000D03*
D21*
X135050000Y-87000000D03*
X136950000Y-87000000D03*
X136450000Y-109500000D03*
X134550000Y-109500000D03*
D30*
X72000000Y-62500000D03*
D31*
X74540000Y-62500000D03*
X77080000Y-62500000D03*
X79620000Y-62500000D03*
X82160000Y-62500000D03*
X84700000Y-62500000D03*
D32*
X142070000Y-129860000D03*
X142070000Y-131760000D03*
X139870000Y-131760000D03*
X139870000Y-130810000D03*
X139870000Y-129860000D03*
X139870000Y-137480000D03*
X139870000Y-138430000D03*
X139870000Y-139380000D03*
X142070000Y-139380000D03*
X142070000Y-137480000D03*
D33*
X110024000Y-40570000D03*
X110024000Y-36770000D03*
X120224000Y-36770000D03*
X120224000Y-40570000D03*
X120224000Y-38670000D03*
X110024000Y-38670000D03*
X115124000Y-36770000D03*
X115124000Y-40570000D03*
D34*
X140500000Y-75650000D03*
X140500000Y-73500000D03*
X140500000Y-71350000D03*
X60960000Y-158750000D03*
X70960000Y-158750000D03*
D35*
X111400000Y-57275000D03*
X111400000Y-57925000D03*
X111400000Y-58575000D03*
X111400000Y-59225000D03*
X111400000Y-59875000D03*
X111400000Y-60525000D03*
X111400000Y-61175000D03*
X111400000Y-61825000D03*
X111400000Y-62475000D03*
X111400000Y-63125000D03*
X111400000Y-63775000D03*
X111400000Y-64425000D03*
X111400000Y-65075000D03*
X111400000Y-65725000D03*
X118600000Y-65725000D03*
X118600000Y-65075000D03*
X118600000Y-64425000D03*
X118600000Y-63775000D03*
X118600000Y-63125000D03*
X118600000Y-62475000D03*
X118600000Y-61825000D03*
X118600000Y-61175000D03*
X118600000Y-60525000D03*
X118600000Y-59875000D03*
X118600000Y-59225000D03*
X118600000Y-58575000D03*
X118600000Y-57925000D03*
X118600000Y-57275000D03*
D11*
X156250000Y-71425000D03*
X156250000Y-74625000D03*
X161250000Y-71425000D03*
X161250000Y-74625000D03*
X137120000Y-47320000D03*
X137120000Y-44120000D03*
X132120000Y-47320000D03*
X132120000Y-44120000D03*
D36*
X94749806Y-104749804D03*
X94749806Y-103749806D03*
X95749804Y-103749806D03*
X95749804Y-104749804D03*
D37*
X91500130Y-103399794D03*
D38*
X94499870Y-100500130D03*
D39*
X89750070Y-98275090D03*
X90250196Y-98275090D03*
X90750068Y-98275090D03*
X91250194Y-98275090D03*
X91750066Y-98275090D03*
X92250192Y-98275090D03*
X92750064Y-98275090D03*
X93249936Y-98275090D03*
X93749808Y-98275090D03*
X94249934Y-98275090D03*
X94749806Y-98275090D03*
X95249932Y-98275090D03*
X95749804Y-98275090D03*
X96249930Y-98275090D03*
D40*
X96724910Y-98750070D03*
X96724910Y-99250196D03*
X96724910Y-99750068D03*
X96724910Y-100250194D03*
X96724910Y-100750066D03*
X96724910Y-101250192D03*
X96724910Y-101750064D03*
X96724910Y-102249936D03*
X96724910Y-102749808D03*
X96724910Y-103249934D03*
X96724910Y-103749806D03*
X96724910Y-104249932D03*
X96724910Y-104749804D03*
X96724910Y-105249930D03*
D39*
X96249930Y-105724910D03*
X95749804Y-105724910D03*
X95249932Y-105724910D03*
X94749806Y-105724910D03*
X94249934Y-105724910D03*
X93749808Y-105724910D03*
X93249936Y-105724910D03*
X92750064Y-105724910D03*
X92250192Y-105724910D03*
X91750066Y-105724910D03*
X91250194Y-105724910D03*
X90750068Y-105724910D03*
X90250196Y-105724910D03*
X89750070Y-105724910D03*
D40*
X89275090Y-105249930D03*
X89275090Y-104749804D03*
X89275090Y-104249932D03*
X89275090Y-103749806D03*
X89275090Y-103249934D03*
X89275090Y-102749808D03*
X89275090Y-102249936D03*
X89275090Y-101750064D03*
X89275090Y-101250192D03*
X89275090Y-100750066D03*
X89275090Y-100250194D03*
X89275090Y-99750068D03*
X89275090Y-99250196D03*
D36*
X89275090Y-98750070D03*
D41*
X51475000Y-60750000D03*
X43525000Y-60750000D03*
X51475000Y-56250000D03*
X43525000Y-56250000D03*
D42*
X96500000Y-83125600D03*
X96500000Y-79874400D03*
X96500000Y-61374400D03*
X96500000Y-64625600D03*
X96500000Y-77625600D03*
X96500000Y-74374400D03*
X96500000Y-90748800D03*
X96500000Y-94000000D03*
D11*
X29300000Y-71600000D03*
X29300000Y-74800000D03*
X34300000Y-71600000D03*
X34300000Y-74800000D03*
X30480000Y-128880000D03*
X30480000Y-132080000D03*
X35480000Y-128880000D03*
X35480000Y-132080000D03*
X50165000Y-153035000D03*
X50165000Y-149835000D03*
X45165000Y-153035000D03*
X45165000Y-149835000D03*
X92750000Y-169850000D03*
X92750000Y-173050000D03*
X97750000Y-169850000D03*
X97750000Y-173050000D03*
X139620000Y-157480000D03*
X139620000Y-154280000D03*
X134620000Y-157480000D03*
X134620000Y-154280000D03*
X156210000Y-128880000D03*
X156210000Y-132080000D03*
X161210000Y-128880000D03*
X161210000Y-132080000D03*
X97750000Y-34620000D03*
X97750000Y-31420000D03*
X92750000Y-34620000D03*
X92750000Y-31420000D03*
X59650000Y-47320000D03*
X59650000Y-44120000D03*
X54650000Y-47320000D03*
X54650000Y-44120000D03*
M02*
