G04 #@! TF.GenerationSoftware,KiCad,Pcbnew,(2016-12-18 revision 3ffa37c)-master*
G04 #@! TF.CreationDate,2016-12-20T20:39:12-08:00*
G04 #@! TF.ProjectId,badge-kicad,62616467652D6B696361642E6B696361,rev?*
G04 #@! TF.FileFunction,Copper,L2,Inr,Plane*
G04 #@! TF.FilePolarity,Positive*
%FSLAX46Y46*%
G04 Gerber Fmt 4.6, Leading zero omitted, Abs format (unit mm)*
G04 Created by KiCad (PCBNEW (2016-12-18 revision 3ffa37c)-master) date Tuesday, December 20, 2016 'PMt' 08:39:12 PM*
%MOMM*%
%LPD*%
G01*
G04 APERTURE LIST*
%ADD10C,0.150000*%
%ADD11R,1.500000X1.500000*%
%ADD12C,1.500000*%
%ADD13C,1.050000*%
%ADD14R,1.050000X1.050000*%
%ADD15O,1.727200X1.727200*%
%ADD16R,1.727200X1.727200*%
%ADD17O,1.000000X1.550000*%
%ADD18O,1.250000X0.950000*%
%ADD19R,1.727200X2.032000*%
%ADD20O,1.727200X2.032000*%
%ADD21C,1.524000*%
%ADD22C,0.400000*%
%ADD23C,0.800000*%
%ADD24C,0.130000*%
G04 APERTURE END LIST*
D10*
D11*
X138250000Y-146250000D03*
X146250000Y-146250000D03*
D12*
X78000000Y-40500000D03*
X78000000Y-47500000D03*
X78040000Y-53910000D03*
X86000000Y-40000000D03*
X76000000Y-141500000D03*
X71000000Y-136000000D03*
X76000000Y-136000000D03*
X69000000Y-141500000D03*
X66000000Y-136000000D03*
D11*
X82000000Y-136000000D03*
D13*
X155230000Y-90500000D03*
X155230000Y-85420000D03*
X155230000Y-86690000D03*
X155230000Y-87960000D03*
X155230000Y-89230000D03*
X156500000Y-85420000D03*
X156500000Y-86690000D03*
X156500000Y-87960000D03*
X156500000Y-89230000D03*
D14*
X156500000Y-90500000D03*
D15*
X55040000Y-76940000D03*
X52500000Y-76940000D03*
X55040000Y-79480000D03*
X52500000Y-79480000D03*
X55040000Y-82020000D03*
X52500000Y-82020000D03*
X55040000Y-84560000D03*
X52500000Y-84560000D03*
X55040000Y-87100000D03*
X52500000Y-87100000D03*
X55040000Y-89640000D03*
X52500000Y-89640000D03*
X55040000Y-92180000D03*
X52500000Y-92180000D03*
X55040000Y-94720000D03*
X52500000Y-94720000D03*
X55040000Y-97260000D03*
X52500000Y-97260000D03*
X55040000Y-99800000D03*
X52500000Y-99800000D03*
X55040000Y-102340000D03*
X52500000Y-102340000D03*
X55040000Y-104880000D03*
X52500000Y-104880000D03*
X55040000Y-107420000D03*
X52500000Y-107420000D03*
X55040000Y-109960000D03*
X52500000Y-109960000D03*
X55040000Y-112500000D03*
X52500000Y-112500000D03*
X55040000Y-115040000D03*
X52500000Y-115040000D03*
X55040000Y-117580000D03*
X52500000Y-117580000D03*
X55040000Y-120120000D03*
X52500000Y-120120000D03*
X55040000Y-122660000D03*
X52500000Y-122660000D03*
X55040000Y-125200000D03*
D16*
X52500000Y-125200000D03*
D17*
X120499100Y-172137460D03*
X113499100Y-172137460D03*
D18*
X119499100Y-169437460D03*
X114499100Y-169437460D03*
D19*
X72000000Y-62500000D03*
D20*
X74540000Y-62500000D03*
X77080000Y-62500000D03*
X79620000Y-62500000D03*
X82160000Y-62500000D03*
X84700000Y-62500000D03*
D21*
X140500000Y-75650000D03*
X140500000Y-73500000D03*
X140500000Y-71350000D03*
X60960000Y-158750000D03*
X70960000Y-158750000D03*
D22*
X137476000Y-49592000D03*
X122236000Y-58482000D03*
X102250000Y-63250000D03*
X102250000Y-61500000D03*
X82100000Y-168700000D03*
X82100000Y-172800000D03*
D23*
X53316000Y-61119900D03*
X124935000Y-138375000D03*
X146398000Y-132200000D03*
X147730000Y-125130000D03*
X143100000Y-48280300D03*
X110639000Y-118786000D03*
X107475000Y-124940000D03*
X119609000Y-162000000D03*
X87571400Y-100124000D03*
X84916200Y-97601100D03*
D22*
X123373000Y-127113000D03*
D23*
X121875000Y-117904000D03*
X150000000Y-139938000D03*
X55040000Y-71919700D03*
X119609000Y-157230000D03*
X103578000Y-75000000D03*
X103578000Y-87196300D03*
X102365000Y-68326200D03*
X77855900Y-96295900D03*
X77855900Y-90636300D03*
X150979000Y-117000000D03*
X154520000Y-103676000D03*
X140212000Y-124879000D03*
X147378000Y-117000000D03*
X57251200Y-47019500D03*
X37539800Y-128290000D03*
X31833700Y-103997000D03*
X49838300Y-131018000D03*
X49838300Y-151660000D03*
X123400000Y-157230000D03*
X76470600Y-101109000D03*
X95074900Y-102436000D03*
X98288900Y-90845400D03*
X99343500Y-98294000D03*
X98361200Y-87032800D03*
X89843200Y-87032800D03*
X88364100Y-97984400D03*
X57721800Y-87533100D03*
D22*
X138500000Y-83250000D03*
D23*
X99373900Y-101753000D03*
D22*
X96034200Y-103191300D03*
D23*
X85521600Y-108207000D03*
X96405600Y-111319000D03*
X96405600Y-106610000D03*
D22*
X94019100Y-107428200D03*
X103110000Y-122757900D03*
X74500000Y-64750000D03*
X107750000Y-58500000D03*
D23*
X93041600Y-104900000D03*
X61784000Y-142302000D03*
X90764000Y-107234000D03*
X86854600Y-103173000D03*
X90024000Y-106549000D03*
D22*
X82250000Y-58500000D03*
X107750000Y-57250000D03*
D23*
X99367700Y-96863000D03*
D22*
X105250000Y-59750000D03*
X79750000Y-59500000D03*
D23*
X99707600Y-95438000D03*
D22*
X153521900Y-90105400D03*
D23*
X88005700Y-102624000D03*
X84040500Y-102432000D03*
X90358200Y-101177000D03*
X86633400Y-95852700D03*
D22*
X113600000Y-114200000D03*
X84000000Y-113200000D03*
X31800000Y-77400000D03*
X37400000Y-61800000D03*
X36600000Y-69800000D03*
X22800000Y-106200000D03*
X94000000Y-152000000D03*
X89750000Y-147500000D03*
D23*
X105824000Y-79741300D03*
X104648000Y-122772000D03*
X87796600Y-95157100D03*
X86525200Y-91899700D03*
X79233100Y-93553100D03*
X79233100Y-87960400D03*
D22*
X95618700Y-107177700D03*
X94149400Y-106574400D03*
X93774900Y-105159900D03*
X97478200Y-109532000D03*
D23*
X107480000Y-77044600D03*
X117670000Y-170742000D03*
D22*
X115300000Y-68000000D03*
X116350000Y-165450000D03*
X78800000Y-116200000D03*
X87000000Y-116200000D03*
X144750000Y-109500000D03*
X144000000Y-130000000D03*
X93000000Y-153750000D03*
D23*
X91763900Y-93183300D03*
X92402700Y-106736000D03*
X100861000Y-102553000D03*
X146050000Y-122555000D03*
X103477000Y-122074000D03*
D22*
X153400000Y-67000000D03*
X153400000Y-75000000D03*
X31000000Y-125750000D03*
X34000000Y-125750000D03*
X95250000Y-33000000D03*
X100000000Y-55250000D03*
D23*
X128405000Y-139380000D03*
D22*
X46308000Y-149734000D03*
X91403600Y-169302700D03*
X32067500Y-129379200D03*
X83250000Y-153500000D03*
X106000000Y-137500000D03*
X99750000Y-158250000D03*
X109000000Y-144250000D03*
X97750000Y-158250000D03*
X111750000Y-162000000D03*
X122700000Y-74000000D03*
D23*
X138385000Y-140457000D03*
X133398000Y-159235000D03*
D22*
X129000000Y-41000000D03*
D23*
X106275000Y-118786000D03*
X90568600Y-99080300D03*
X90568600Y-96070800D03*
X106390000Y-102925000D03*
X101672000Y-101701000D03*
D24*
X70936100Y-62500000D02*
X72000000Y-62500000D01*
X53316000Y-61119900D02*
X69556000Y-61119900D01*
X69556000Y-61119900D02*
X70936100Y-62500000D01*
X140463000Y-125130000D02*
X140212000Y-124879000D01*
X147730000Y-125130000D02*
X140463000Y-125130000D01*
X55040000Y-84560000D02*
X89560000Y-84560000D01*
X81250000Y-43750000D02*
X78000000Y-40500000D01*
X81250000Y-53750000D02*
X81250000Y-43750000D01*
X89750000Y-62250000D02*
X81250000Y-53750000D01*
X89750000Y-84370000D02*
X89750000Y-62250000D01*
X89560000Y-84560000D02*
X89750000Y-84370000D01*
X129000000Y-45900000D02*
X129000000Y-41000000D01*
X126300000Y-48600000D02*
X129000000Y-45900000D01*
X126300000Y-98760200D02*
X126300000Y-48600000D01*
X106275000Y-118786000D02*
X126300000Y-98760200D01*
M02*
