G04 #@! TF.GenerationSoftware,KiCad,Pcbnew,(2016-12-18 revision 3ffa37c)-master*
G04 #@! TF.CreationDate,2016-12-30T22:14:27-08:00*
G04 #@! TF.ProjectId,badge-kicad,62616467652D6B696361642E6B696361,rev?*
G04 #@! TF.FileFunction,Legend,Top*
G04 #@! TF.FilePolarity,Positive*
%FSLAX46Y46*%
G04 Gerber Fmt 4.6, Leading zero omitted, Abs format (unit mm)*
G04 Created by KiCad (PCBNEW (2016-12-18 revision 3ffa37c)-master) date Friday, December 30, 2016 'PMt' 10:14:27 PM*
%MOMM*%
%LPD*%
G01*
G04 APERTURE LIST*
%ADD10C,0.150000*%
%ADD11C,0.100000*%
%ADD12C,0.300000*%
%ADD13C,0.200000*%
%ADD14C,0.127000*%
%ADD15C,0.063500*%
%ADD16C,0.152400*%
G04 APERTURE END LIST*
D10*
D11*
X79726190Y-65978571D02*
X79702380Y-66002380D01*
X79630952Y-66026190D01*
X79583333Y-66026190D01*
X79511904Y-66002380D01*
X79464285Y-65954761D01*
X79440476Y-65907142D01*
X79416666Y-65811904D01*
X79416666Y-65740476D01*
X79440476Y-65645238D01*
X79464285Y-65597619D01*
X79511904Y-65550000D01*
X79583333Y-65526190D01*
X79630952Y-65526190D01*
X79702380Y-65550000D01*
X79726190Y-65573809D01*
X79869047Y-65526190D02*
X80154761Y-65526190D01*
X80011904Y-66026190D02*
X80011904Y-65526190D01*
X80297619Y-66002380D02*
X80369047Y-66026190D01*
X80488095Y-66026190D01*
X80535714Y-66002380D01*
X80559523Y-65978571D01*
X80583333Y-65930952D01*
X80583333Y-65883333D01*
X80559523Y-65835714D01*
X80535714Y-65811904D01*
X80488095Y-65788095D01*
X80392857Y-65764285D01*
X80345238Y-65740476D01*
X80321428Y-65716666D01*
X80297619Y-65669047D01*
X80297619Y-65621428D01*
X80321428Y-65573809D01*
X80345238Y-65550000D01*
X80392857Y-65526190D01*
X80511904Y-65526190D01*
X80583333Y-65550000D01*
X79816666Y-63526190D02*
X79650000Y-63288095D01*
X79530952Y-63526190D02*
X79530952Y-63026190D01*
X79721428Y-63026190D01*
X79769047Y-63050000D01*
X79792857Y-63073809D01*
X79816666Y-63121428D01*
X79816666Y-63192857D01*
X79792857Y-63240476D01*
X79769047Y-63264285D01*
X79721428Y-63288095D01*
X79530952Y-63288095D01*
X79983333Y-63026190D02*
X80316666Y-63526190D01*
X80316666Y-63026190D02*
X79983333Y-63526190D01*
X79519047Y-60326190D02*
X79804761Y-60326190D01*
X79661904Y-60826190D02*
X79661904Y-60326190D01*
X79923809Y-60326190D02*
X80257142Y-60826190D01*
X80257142Y-60326190D02*
X79923809Y-60826190D01*
X79433333Y-57826190D02*
X79600000Y-58326190D01*
X79766666Y-57826190D01*
X80219047Y-58278571D02*
X80195238Y-58302380D01*
X80123809Y-58326190D01*
X80076190Y-58326190D01*
X80004761Y-58302380D01*
X79957142Y-58254761D01*
X79933333Y-58207142D01*
X79909523Y-58111904D01*
X79909523Y-58040476D01*
X79933333Y-57945238D01*
X79957142Y-57897619D01*
X80004761Y-57850000D01*
X80076190Y-57826190D01*
X80123809Y-57826190D01*
X80195238Y-57850000D01*
X80219047Y-57873809D01*
X80719047Y-58278571D02*
X80695238Y-58302380D01*
X80623809Y-58326190D01*
X80576190Y-58326190D01*
X80504761Y-58302380D01*
X80457142Y-58254761D01*
X80433333Y-58207142D01*
X80409523Y-58111904D01*
X80409523Y-58040476D01*
X80433333Y-57945238D01*
X80457142Y-57897619D01*
X80504761Y-57850000D01*
X80576190Y-57826190D01*
X80623809Y-57826190D01*
X80695238Y-57850000D01*
X80719047Y-57873809D01*
X79826190Y-55626190D02*
X79659523Y-55388095D01*
X79540476Y-55626190D02*
X79540476Y-55126190D01*
X79730952Y-55126190D01*
X79778571Y-55150000D01*
X79802380Y-55173809D01*
X79826190Y-55221428D01*
X79826190Y-55292857D01*
X79802380Y-55340476D01*
X79778571Y-55364285D01*
X79730952Y-55388095D01*
X79540476Y-55388095D01*
X79969047Y-55126190D02*
X80254761Y-55126190D01*
X80111904Y-55626190D02*
X80111904Y-55126190D01*
X80397619Y-55602380D02*
X80469047Y-55626190D01*
X80588095Y-55626190D01*
X80635714Y-55602380D01*
X80659523Y-55578571D01*
X80683333Y-55530952D01*
X80683333Y-55483333D01*
X80659523Y-55435714D01*
X80635714Y-55411904D01*
X80588095Y-55388095D01*
X80492857Y-55364285D01*
X80445238Y-55340476D01*
X80421428Y-55316666D01*
X80397619Y-55269047D01*
X80397619Y-55221428D01*
X80421428Y-55173809D01*
X80445238Y-55150000D01*
X80492857Y-55126190D01*
X80611904Y-55126190D01*
X80683333Y-55150000D01*
X79819047Y-52050000D02*
X79771428Y-52026190D01*
X79700000Y-52026190D01*
X79628571Y-52050000D01*
X79580952Y-52097619D01*
X79557142Y-52145238D01*
X79533333Y-52240476D01*
X79533333Y-52311904D01*
X79557142Y-52407142D01*
X79580952Y-52454761D01*
X79628571Y-52502380D01*
X79700000Y-52526190D01*
X79747619Y-52526190D01*
X79819047Y-52502380D01*
X79842857Y-52478571D01*
X79842857Y-52311904D01*
X79747619Y-52311904D01*
X80057142Y-52526190D02*
X80057142Y-52026190D01*
X80342857Y-52526190D01*
X80342857Y-52026190D01*
X80580952Y-52526190D02*
X80580952Y-52026190D01*
X80700000Y-52026190D01*
X80771428Y-52050000D01*
X80819047Y-52097619D01*
X80842857Y-52145238D01*
X80866666Y-52240476D01*
X80866666Y-52311904D01*
X80842857Y-52407142D01*
X80819047Y-52454761D01*
X80771428Y-52502380D01*
X80700000Y-52526190D01*
X80580952Y-52526190D01*
D12*
X60078571Y-104407142D02*
X58578571Y-104407142D01*
X58578571Y-104050000D01*
X58650000Y-103835714D01*
X58792857Y-103692857D01*
X58935714Y-103621428D01*
X59221428Y-103550000D01*
X59435714Y-103550000D01*
X59721428Y-103621428D01*
X59864285Y-103692857D01*
X60007142Y-103835714D01*
X60078571Y-104050000D01*
X60078571Y-104407142D01*
X60078571Y-102907142D02*
X58578571Y-102907142D01*
X60007142Y-102264285D02*
X60078571Y-102050000D01*
X60078571Y-101692857D01*
X60007142Y-101550000D01*
X59935714Y-101478571D01*
X59792857Y-101407142D01*
X59650000Y-101407142D01*
X59507142Y-101478571D01*
X59435714Y-101550000D01*
X59364285Y-101692857D01*
X59292857Y-101978571D01*
X59221428Y-102121428D01*
X59150000Y-102192857D01*
X59007142Y-102264285D01*
X58864285Y-102264285D01*
X58721428Y-102192857D01*
X58650000Y-102121428D01*
X58578571Y-101978571D01*
X58578571Y-101621428D01*
X58650000Y-101407142D01*
X60078571Y-100764285D02*
X58578571Y-100764285D01*
X58578571Y-100192857D01*
X58650000Y-100050000D01*
X58721428Y-99978571D01*
X58864285Y-99907142D01*
X59078571Y-99907142D01*
X59221428Y-99978571D01*
X59292857Y-100050000D01*
X59364285Y-100192857D01*
X59364285Y-100764285D01*
X60078571Y-98550000D02*
X60078571Y-99264285D01*
X58578571Y-99264285D01*
X59650000Y-98121428D02*
X59650000Y-97407142D01*
X60078571Y-98264285D02*
X58578571Y-97764285D01*
X60078571Y-97264285D01*
X59364285Y-96478571D02*
X60078571Y-96478571D01*
X58578571Y-96978571D02*
X59364285Y-96478571D01*
X58578571Y-95978571D01*
X76821428Y-38078571D02*
X76107142Y-38078571D01*
X76107142Y-36578571D01*
X77321428Y-37292857D02*
X77821428Y-37292857D01*
X78035714Y-38078571D02*
X77321428Y-38078571D01*
X77321428Y-36578571D01*
X78035714Y-36578571D01*
X78678571Y-38078571D02*
X78678571Y-36578571D01*
X79035714Y-36578571D01*
X79250000Y-36650000D01*
X79392857Y-36792857D01*
X79464285Y-36935714D01*
X79535714Y-37221428D01*
X79535714Y-37435714D01*
X79464285Y-37721428D01*
X79392857Y-37864285D01*
X79250000Y-38007142D01*
X79035714Y-38078571D01*
X78678571Y-38078571D01*
X81607142Y-36578571D02*
X81892857Y-36578571D01*
X82035714Y-36650000D01*
X82178571Y-36792857D01*
X82250000Y-37078571D01*
X82250000Y-37578571D01*
X82178571Y-37864285D01*
X82035714Y-38007142D01*
X81892857Y-38078571D01*
X81607142Y-38078571D01*
X81464285Y-38007142D01*
X81321428Y-37864285D01*
X81250000Y-37578571D01*
X81250000Y-37078571D01*
X81321428Y-36792857D01*
X81464285Y-36650000D01*
X81607142Y-36578571D01*
X82892857Y-36578571D02*
X82892857Y-37792857D01*
X82964285Y-37935714D01*
X83035714Y-38007142D01*
X83178571Y-38078571D01*
X83464285Y-38078571D01*
X83607142Y-38007142D01*
X83678571Y-37935714D01*
X83750000Y-37792857D01*
X83750000Y-36578571D01*
X84250000Y-36578571D02*
X85107142Y-36578571D01*
X84678571Y-38078571D02*
X84678571Y-36578571D01*
D13*
X114000000Y-148500000D02*
X114000000Y-132000000D01*
X103500000Y-148500000D02*
X114000000Y-148500000D01*
X103500000Y-132000000D02*
X103500000Y-148500000D01*
X92000000Y-148500000D02*
X114000000Y-148500000D01*
X92000000Y-132000000D02*
X114000000Y-132000000D01*
D12*
X96571428Y-141678571D02*
X96571428Y-140178571D01*
X97142857Y-140178571D01*
X97285714Y-140250000D01*
X97357142Y-140321428D01*
X97428571Y-140464285D01*
X97428571Y-140678571D01*
X97357142Y-140821428D01*
X97285714Y-140892857D01*
X97142857Y-140964285D01*
X96571428Y-140964285D01*
X97857142Y-140178571D02*
X98714285Y-140178571D01*
X98285714Y-141678571D02*
X98285714Y-140178571D01*
X100071428Y-141535714D02*
X100000000Y-141607142D01*
X99785714Y-141678571D01*
X99642857Y-141678571D01*
X99428571Y-141607142D01*
X99285714Y-141464285D01*
X99214285Y-141321428D01*
X99142857Y-141035714D01*
X99142857Y-140821428D01*
X99214285Y-140535714D01*
X99285714Y-140392857D01*
X99428571Y-140250000D01*
X99642857Y-140178571D01*
X99785714Y-140178571D01*
X100000000Y-140250000D01*
X100071428Y-140321428D01*
X101357142Y-140678571D02*
X101357142Y-141678571D01*
X101000000Y-140107142D02*
X100642857Y-141178571D01*
X101571428Y-141178571D01*
X96571428Y-135678571D02*
X96571428Y-134178571D01*
X97142857Y-134178571D01*
X97285714Y-134250000D01*
X97357142Y-134321428D01*
X97428571Y-134464285D01*
X97428571Y-134678571D01*
X97357142Y-134821428D01*
X97285714Y-134892857D01*
X97142857Y-134964285D01*
X96571428Y-134964285D01*
X97857142Y-134178571D02*
X98714285Y-134178571D01*
X98285714Y-135678571D02*
X98285714Y-134178571D01*
X99214285Y-135678571D02*
X99214285Y-134178571D01*
X99571428Y-134178571D01*
X99785714Y-134250000D01*
X99928571Y-134392857D01*
X100000000Y-134535714D01*
X100071428Y-134821428D01*
X100071428Y-135035714D01*
X100000000Y-135321428D01*
X99928571Y-135464285D01*
X99785714Y-135607142D01*
X99571428Y-135678571D01*
X99214285Y-135678571D01*
X101357142Y-134178571D02*
X101071428Y-134178571D01*
X100928571Y-134250000D01*
X100857142Y-134321428D01*
X100714285Y-134535714D01*
X100642857Y-134821428D01*
X100642857Y-135392857D01*
X100714285Y-135535714D01*
X100785714Y-135607142D01*
X100928571Y-135678571D01*
X101214285Y-135678571D01*
X101357142Y-135607142D01*
X101428571Y-135535714D01*
X101500000Y-135392857D01*
X101500000Y-135035714D01*
X101428571Y-134892857D01*
X101357142Y-134821428D01*
X101214285Y-134750000D01*
X100928571Y-134750000D01*
X100785714Y-134821428D01*
X100714285Y-134892857D01*
X100642857Y-135035714D01*
D13*
X92000000Y-132000000D02*
X80000000Y-132000000D01*
X92000000Y-148500000D02*
X92000000Y-132000000D01*
X80500000Y-148500000D02*
X92000000Y-148500000D01*
D12*
X85071428Y-147678571D02*
X85071428Y-146178571D01*
X85642857Y-146178571D01*
X85785714Y-146250000D01*
X85857142Y-146321428D01*
X85928571Y-146464285D01*
X85928571Y-146678571D01*
X85857142Y-146821428D01*
X85785714Y-146892857D01*
X85642857Y-146964285D01*
X85071428Y-146964285D01*
X86357142Y-146178571D02*
X87214285Y-146178571D01*
X86785714Y-147678571D02*
X86785714Y-146178571D01*
X88571428Y-147535714D02*
X88500000Y-147607142D01*
X88285714Y-147678571D01*
X88142857Y-147678571D01*
X87928571Y-147607142D01*
X87785714Y-147464285D01*
X87714285Y-147321428D01*
X87642857Y-147035714D01*
X87642857Y-146821428D01*
X87714285Y-146535714D01*
X87785714Y-146392857D01*
X87928571Y-146250000D01*
X88142857Y-146178571D01*
X88285714Y-146178571D01*
X88500000Y-146250000D01*
X88571428Y-146321428D01*
X89071428Y-146178571D02*
X90000000Y-146178571D01*
X89500000Y-146750000D01*
X89714285Y-146750000D01*
X89857142Y-146821428D01*
X89928571Y-146892857D01*
X90000000Y-147035714D01*
X90000000Y-147392857D01*
X89928571Y-147535714D01*
X89857142Y-147607142D01*
X89714285Y-147678571D01*
X89285714Y-147678571D01*
X89142857Y-147607142D01*
X89071428Y-147535714D01*
X85071428Y-141678571D02*
X85071428Y-140178571D01*
X85642857Y-140178571D01*
X85785714Y-140250000D01*
X85857142Y-140321428D01*
X85928571Y-140464285D01*
X85928571Y-140678571D01*
X85857142Y-140821428D01*
X85785714Y-140892857D01*
X85642857Y-140964285D01*
X85071428Y-140964285D01*
X86357142Y-140178571D02*
X87214285Y-140178571D01*
X86785714Y-141678571D02*
X86785714Y-140178571D01*
X88571428Y-141535714D02*
X88500000Y-141607142D01*
X88285714Y-141678571D01*
X88142857Y-141678571D01*
X87928571Y-141607142D01*
X87785714Y-141464285D01*
X87714285Y-141321428D01*
X87642857Y-141035714D01*
X87642857Y-140821428D01*
X87714285Y-140535714D01*
X87785714Y-140392857D01*
X87928571Y-140250000D01*
X88142857Y-140178571D01*
X88285714Y-140178571D01*
X88500000Y-140250000D01*
X88571428Y-140321428D01*
X90000000Y-141678571D02*
X89142857Y-141678571D01*
X89571428Y-141678571D02*
X89571428Y-140178571D01*
X89428571Y-140392857D01*
X89285714Y-140535714D01*
X89142857Y-140607142D01*
X85071428Y-135678571D02*
X85071428Y-134178571D01*
X85642857Y-134178571D01*
X85785714Y-134250000D01*
X85857142Y-134321428D01*
X85928571Y-134464285D01*
X85928571Y-134678571D01*
X85857142Y-134821428D01*
X85785714Y-134892857D01*
X85642857Y-134964285D01*
X85071428Y-134964285D01*
X86357142Y-134178571D02*
X87214285Y-134178571D01*
X86785714Y-135678571D02*
X86785714Y-134178571D01*
X88214285Y-134892857D02*
X88428571Y-134964285D01*
X88500000Y-135035714D01*
X88571428Y-135178571D01*
X88571428Y-135392857D01*
X88500000Y-135535714D01*
X88428571Y-135607142D01*
X88285714Y-135678571D01*
X87714285Y-135678571D01*
X87714285Y-134178571D01*
X88214285Y-134178571D01*
X88357142Y-134250000D01*
X88428571Y-134321428D01*
X88500000Y-134464285D01*
X88500000Y-134607142D01*
X88428571Y-134750000D01*
X88357142Y-134821428D01*
X88214285Y-134892857D01*
X87714285Y-134892857D01*
X90000000Y-135678571D02*
X89142857Y-135678571D01*
X89571428Y-135678571D02*
X89571428Y-134178571D01*
X89428571Y-134392857D01*
X89285714Y-134535714D01*
X89142857Y-134607142D01*
X107678571Y-135678571D02*
X107678571Y-134178571D01*
X108250000Y-134178571D01*
X108392857Y-134250000D01*
X108464285Y-134321428D01*
X108535714Y-134464285D01*
X108535714Y-134678571D01*
X108464285Y-134821428D01*
X108392857Y-134892857D01*
X108250000Y-134964285D01*
X107678571Y-134964285D01*
X108964285Y-134178571D02*
X109821428Y-134178571D01*
X109392857Y-135678571D02*
X109392857Y-134178571D01*
X110250000Y-135250000D02*
X110964285Y-135250000D01*
X110107142Y-135678571D02*
X110607142Y-134178571D01*
X111107142Y-135678571D01*
X112250000Y-134678571D02*
X112250000Y-135678571D01*
X111892857Y-134107142D02*
X111535714Y-135178571D01*
X112464285Y-135178571D01*
D13*
X80500000Y-132000000D02*
X70000000Y-132000000D01*
X70000000Y-148500000D02*
X70000000Y-132000000D01*
X80500000Y-148500000D02*
X70000000Y-148500000D01*
X80500000Y-132000000D02*
X80500000Y-148500000D01*
D12*
X73964285Y-147607142D02*
X74178571Y-147678571D01*
X74535714Y-147678571D01*
X74678571Y-147607142D01*
X74750000Y-147535714D01*
X74821428Y-147392857D01*
X74821428Y-147250000D01*
X74750000Y-147107142D01*
X74678571Y-147035714D01*
X74535714Y-146964285D01*
X74250000Y-146892857D01*
X74107142Y-146821428D01*
X74035714Y-146750000D01*
X73964285Y-146607142D01*
X73964285Y-146464285D01*
X74035714Y-146321428D01*
X74107142Y-146250000D01*
X74250000Y-146178571D01*
X74607142Y-146178571D01*
X74821428Y-146250000D01*
X76321428Y-147535714D02*
X76250000Y-147607142D01*
X76035714Y-147678571D01*
X75892857Y-147678571D01*
X75678571Y-147607142D01*
X75535714Y-147464285D01*
X75464285Y-147321428D01*
X75392857Y-147035714D01*
X75392857Y-146821428D01*
X75464285Y-146535714D01*
X75535714Y-146392857D01*
X75678571Y-146250000D01*
X75892857Y-146178571D01*
X76035714Y-146178571D01*
X76250000Y-146250000D01*
X76321428Y-146321428D01*
X77678571Y-147678571D02*
X76964285Y-147678571D01*
X76964285Y-146178571D01*
X78178571Y-147678571D02*
X78178571Y-146178571D01*
X79035714Y-147678571D02*
X78392857Y-146821428D01*
X79035714Y-146178571D02*
X78178571Y-147035714D01*
X74142857Y-141678571D02*
X74142857Y-140178571D01*
X74642857Y-141250000D01*
X75142857Y-140178571D01*
X75142857Y-141678571D01*
X75857142Y-141678571D02*
X75857142Y-140178571D01*
X76500000Y-141607142D02*
X76714285Y-141678571D01*
X77071428Y-141678571D01*
X77214285Y-141607142D01*
X77285714Y-141535714D01*
X77357142Y-141392857D01*
X77357142Y-141250000D01*
X77285714Y-141107142D01*
X77214285Y-141035714D01*
X77071428Y-140964285D01*
X76785714Y-140892857D01*
X76642857Y-140821428D01*
X76571428Y-140750000D01*
X76500000Y-140607142D01*
X76500000Y-140464285D01*
X76571428Y-140321428D01*
X76642857Y-140250000D01*
X76785714Y-140178571D01*
X77142857Y-140178571D01*
X77357142Y-140250000D01*
X78285714Y-140178571D02*
X78571428Y-140178571D01*
X78714285Y-140250000D01*
X78857142Y-140392857D01*
X78928571Y-140678571D01*
X78928571Y-141178571D01*
X78857142Y-141464285D01*
X78714285Y-141607142D01*
X78571428Y-141678571D01*
X78285714Y-141678571D01*
X78142857Y-141607142D01*
X78000000Y-141464285D01*
X77928571Y-141178571D01*
X77928571Y-140678571D01*
X78000000Y-140392857D01*
X78142857Y-140250000D01*
X78285714Y-140178571D01*
X74142857Y-135678571D02*
X74142857Y-134178571D01*
X74642857Y-135250000D01*
X75142857Y-134178571D01*
X75142857Y-135678571D01*
X76142857Y-134178571D02*
X76428571Y-134178571D01*
X76571428Y-134250000D01*
X76714285Y-134392857D01*
X76785714Y-134678571D01*
X76785714Y-135178571D01*
X76714285Y-135464285D01*
X76571428Y-135607142D01*
X76428571Y-135678571D01*
X76142857Y-135678571D01*
X76000000Y-135607142D01*
X75857142Y-135464285D01*
X75785714Y-135178571D01*
X75785714Y-134678571D01*
X75857142Y-134392857D01*
X76000000Y-134250000D01*
X76142857Y-134178571D01*
X77357142Y-135607142D02*
X77571428Y-135678571D01*
X77928571Y-135678571D01*
X78071428Y-135607142D01*
X78142857Y-135535714D01*
X78214285Y-135392857D01*
X78214285Y-135250000D01*
X78142857Y-135107142D01*
X78071428Y-135035714D01*
X77928571Y-134964285D01*
X77642857Y-134892857D01*
X77500000Y-134821428D01*
X77428571Y-134750000D01*
X77357142Y-134607142D01*
X77357142Y-134464285D01*
X77428571Y-134321428D01*
X77500000Y-134250000D01*
X77642857Y-134178571D01*
X78000000Y-134178571D01*
X78214285Y-134250000D01*
X78857142Y-135678571D02*
X78857142Y-134178571D01*
X65214285Y-133678571D02*
X65214285Y-132178571D01*
X65214285Y-132892857D02*
X66071428Y-132892857D01*
X66071428Y-133678571D02*
X66071428Y-132178571D01*
X66714285Y-133250000D02*
X67428571Y-133250000D01*
X66571428Y-133678571D02*
X67071428Y-132178571D01*
X67571428Y-133678571D01*
X67928571Y-132178571D02*
X68928571Y-133678571D01*
X68928571Y-132178571D02*
X67928571Y-133678571D01*
X87250000Y-48678571D02*
X87250000Y-49750000D01*
X87178571Y-49964285D01*
X87035714Y-50107142D01*
X86821428Y-50178571D01*
X86678571Y-50178571D01*
X87750000Y-48678571D02*
X88607142Y-48678571D01*
X88178571Y-50178571D02*
X88178571Y-48678571D01*
X89035714Y-49750000D02*
X89750000Y-49750000D01*
X88892857Y-50178571D02*
X89392857Y-48678571D01*
X89892857Y-50178571D01*
X91178571Y-48750000D02*
X91035714Y-48678571D01*
X90821428Y-48678571D01*
X90607142Y-48750000D01*
X90464285Y-48892857D01*
X90392857Y-49035714D01*
X90321428Y-49321428D01*
X90321428Y-49535714D01*
X90392857Y-49821428D01*
X90464285Y-49964285D01*
X90607142Y-50107142D01*
X90821428Y-50178571D01*
X90964285Y-50178571D01*
X91178571Y-50107142D01*
X91250000Y-50035714D01*
X91250000Y-49535714D01*
X90964285Y-49535714D01*
X99909285Y-158035714D02*
X99837857Y-158107142D01*
X99623571Y-158178571D01*
X99480714Y-158178571D01*
X99266428Y-158107142D01*
X99123571Y-157964285D01*
X99052142Y-157821428D01*
X98980714Y-157535714D01*
X98980714Y-157321428D01*
X99052142Y-157035714D01*
X99123571Y-156892857D01*
X99266428Y-156750000D01*
X99480714Y-156678571D01*
X99623571Y-156678571D01*
X99837857Y-156750000D01*
X99909285Y-156821428D01*
X100552142Y-158178571D02*
X100552142Y-156678571D01*
X100552142Y-157392857D02*
X101409285Y-157392857D01*
X101409285Y-158178571D02*
X101409285Y-156678571D01*
X102052142Y-157750000D02*
X102766428Y-157750000D01*
X101909285Y-158178571D02*
X102409285Y-156678571D01*
X102909285Y-158178571D01*
X104266428Y-158178571D02*
X103766428Y-157464285D01*
X103409285Y-158178571D02*
X103409285Y-156678571D01*
X103980714Y-156678571D01*
X104123571Y-156750000D01*
X104195000Y-156821428D01*
X104266428Y-156964285D01*
X104266428Y-157178571D01*
X104195000Y-157321428D01*
X104123571Y-157392857D01*
X103980714Y-157464285D01*
X103409285Y-157464285D01*
X105695000Y-156750000D02*
X105552142Y-156678571D01*
X105337857Y-156678571D01*
X105123571Y-156750000D01*
X104980714Y-156892857D01*
X104909285Y-157035714D01*
X104837857Y-157321428D01*
X104837857Y-157535714D01*
X104909285Y-157821428D01*
X104980714Y-157964285D01*
X105123571Y-158107142D01*
X105337857Y-158178571D01*
X105480714Y-158178571D01*
X105695000Y-158107142D01*
X105766428Y-158035714D01*
X105766428Y-157535714D01*
X105480714Y-157535714D01*
X106409285Y-158178571D02*
X106409285Y-156678571D01*
X107123571Y-158178571D02*
X107123571Y-156678571D01*
X107980714Y-158178571D01*
X107980714Y-156678571D01*
X109480714Y-156750000D02*
X109337857Y-156678571D01*
X109123571Y-156678571D01*
X108909285Y-156750000D01*
X108766428Y-156892857D01*
X108695000Y-157035714D01*
X108623571Y-157321428D01*
X108623571Y-157535714D01*
X108695000Y-157821428D01*
X108766428Y-157964285D01*
X108909285Y-158107142D01*
X109123571Y-158178571D01*
X109266428Y-158178571D01*
X109480714Y-158107142D01*
X109552142Y-158035714D01*
X109552142Y-157535714D01*
X109266428Y-157535714D01*
X99909285Y-163035714D02*
X99837857Y-163107142D01*
X99623571Y-163178571D01*
X99480714Y-163178571D01*
X99266428Y-163107142D01*
X99123571Y-162964285D01*
X99052142Y-162821428D01*
X98980714Y-162535714D01*
X98980714Y-162321428D01*
X99052142Y-162035714D01*
X99123571Y-161892857D01*
X99266428Y-161750000D01*
X99480714Y-161678571D01*
X99623571Y-161678571D01*
X99837857Y-161750000D01*
X99909285Y-161821428D01*
X100552142Y-163178571D02*
X100552142Y-161678571D01*
X100552142Y-162392857D02*
X101409285Y-162392857D01*
X101409285Y-163178571D02*
X101409285Y-161678571D01*
X102909285Y-161750000D02*
X102766428Y-161678571D01*
X102552142Y-161678571D01*
X102337857Y-161750000D01*
X102195000Y-161892857D01*
X102123571Y-162035714D01*
X102052142Y-162321428D01*
X102052142Y-162535714D01*
X102123571Y-162821428D01*
X102195000Y-162964285D01*
X102337857Y-163107142D01*
X102552142Y-163178571D01*
X102695000Y-163178571D01*
X102909285Y-163107142D01*
X102980714Y-163035714D01*
X102980714Y-162535714D01*
X102695000Y-162535714D01*
X104766428Y-163178571D02*
X104766428Y-161678571D01*
X105123571Y-161678571D01*
X105337857Y-161750000D01*
X105480714Y-161892857D01*
X105552142Y-162035714D01*
X105623571Y-162321428D01*
X105623571Y-162535714D01*
X105552142Y-162821428D01*
X105480714Y-162964285D01*
X105337857Y-163107142D01*
X105123571Y-163178571D01*
X104766428Y-163178571D01*
X106552142Y-161678571D02*
X106837857Y-161678571D01*
X106980714Y-161750000D01*
X107123571Y-161892857D01*
X107195000Y-162178571D01*
X107195000Y-162678571D01*
X107123571Y-162964285D01*
X106980714Y-163107142D01*
X106837857Y-163178571D01*
X106552142Y-163178571D01*
X106409285Y-163107142D01*
X106266428Y-162964285D01*
X106195000Y-162678571D01*
X106195000Y-162178571D01*
X106266428Y-161892857D01*
X106409285Y-161750000D01*
X106552142Y-161678571D01*
X107837857Y-163178571D02*
X107837857Y-161678571D01*
X108695000Y-163178571D01*
X108695000Y-161678571D01*
X109409285Y-162392857D02*
X109909285Y-162392857D01*
X110123571Y-163178571D02*
X109409285Y-163178571D01*
X109409285Y-161678571D01*
X110123571Y-161678571D01*
X99052142Y-153178571D02*
X99052142Y-151678571D01*
X99623571Y-151678571D01*
X99766428Y-151750000D01*
X99837857Y-151821428D01*
X99909285Y-151964285D01*
X99909285Y-152178571D01*
X99837857Y-152321428D01*
X99766428Y-152392857D01*
X99623571Y-152464285D01*
X99052142Y-152464285D01*
X100409285Y-151678571D02*
X100766428Y-153178571D01*
X101052142Y-152107142D01*
X101337857Y-153178571D01*
X101695000Y-151678571D01*
X103123571Y-153178571D02*
X102623571Y-152464285D01*
X102266428Y-153178571D02*
X102266428Y-151678571D01*
X102837857Y-151678571D01*
X102980714Y-151750000D01*
X103052142Y-151821428D01*
X103123571Y-151964285D01*
X103123571Y-152178571D01*
X103052142Y-152321428D01*
X102980714Y-152392857D01*
X102837857Y-152464285D01*
X102266428Y-152464285D01*
X105195000Y-151678571D02*
X105480714Y-151678571D01*
X105623571Y-151750000D01*
X105766428Y-151892857D01*
X105837857Y-152178571D01*
X105837857Y-152678571D01*
X105766428Y-152964285D01*
X105623571Y-153107142D01*
X105480714Y-153178571D01*
X105195000Y-153178571D01*
X105052142Y-153107142D01*
X104909285Y-152964285D01*
X104837857Y-152678571D01*
X104837857Y-152178571D01*
X104909285Y-151892857D01*
X105052142Y-151750000D01*
X105195000Y-151678571D01*
X106480714Y-153178571D02*
X106480714Y-151678571D01*
X107337857Y-153178571D02*
X106695000Y-152321428D01*
X107337857Y-151678571D02*
X106480714Y-152535714D01*
X76035714Y-48892857D02*
X75535714Y-48892857D01*
X75535714Y-49678571D02*
X75535714Y-48178571D01*
X76250000Y-48178571D01*
X76607142Y-48178571D02*
X77464285Y-48178571D01*
X77035714Y-49678571D02*
X77035714Y-48178571D01*
X77964285Y-49678571D02*
X77964285Y-48178571D01*
X78321428Y-48178571D01*
X78535714Y-48250000D01*
X78678571Y-48392857D01*
X78750000Y-48535714D01*
X78821428Y-48821428D01*
X78821428Y-49035714D01*
X78750000Y-49321428D01*
X78678571Y-49464285D01*
X78535714Y-49607142D01*
X78321428Y-49678571D01*
X77964285Y-49678571D01*
X79464285Y-49678571D02*
X79464285Y-48178571D01*
X143552142Y-84178571D02*
X143552142Y-85392857D01*
X143623571Y-85535714D01*
X143695000Y-85607142D01*
X143837857Y-85678571D01*
X144123571Y-85678571D01*
X144266428Y-85607142D01*
X144337857Y-85535714D01*
X144409285Y-85392857D01*
X144409285Y-84178571D01*
X145052142Y-85250000D02*
X145766428Y-85250000D01*
X144909285Y-85678571D02*
X145409285Y-84178571D01*
X145909285Y-85678571D01*
X147266428Y-85678571D02*
X146766428Y-84964285D01*
X146409285Y-85678571D02*
X146409285Y-84178571D01*
X146980714Y-84178571D01*
X147123571Y-84250000D01*
X147195000Y-84321428D01*
X147266428Y-84464285D01*
X147266428Y-84678571D01*
X147195000Y-84821428D01*
X147123571Y-84892857D01*
X146980714Y-84964285D01*
X146409285Y-84964285D01*
X147695000Y-84178571D02*
X148552142Y-84178571D01*
X148123571Y-85678571D02*
X148123571Y-84178571D01*
X151052142Y-85678571D02*
X150552142Y-84964285D01*
X150195000Y-85678571D02*
X150195000Y-84178571D01*
X150766428Y-84178571D01*
X150909285Y-84250000D01*
X150980714Y-84321428D01*
X151052142Y-84464285D01*
X151052142Y-84678571D01*
X150980714Y-84821428D01*
X150909285Y-84892857D01*
X150766428Y-84964285D01*
X150195000Y-84964285D01*
X151552142Y-84178571D02*
X152552142Y-85678571D01*
X152552142Y-84178571D02*
X151552142Y-85678571D01*
X143552142Y-90178571D02*
X143552142Y-91392857D01*
X143623571Y-91535714D01*
X143695000Y-91607142D01*
X143837857Y-91678571D01*
X144123571Y-91678571D01*
X144266428Y-91607142D01*
X144337857Y-91535714D01*
X144409285Y-91392857D01*
X144409285Y-90178571D01*
X145052142Y-91250000D02*
X145766428Y-91250000D01*
X144909285Y-91678571D02*
X145409285Y-90178571D01*
X145909285Y-91678571D01*
X147266428Y-91678571D02*
X146766428Y-90964285D01*
X146409285Y-91678571D02*
X146409285Y-90178571D01*
X146980714Y-90178571D01*
X147123571Y-90250000D01*
X147195000Y-90321428D01*
X147266428Y-90464285D01*
X147266428Y-90678571D01*
X147195000Y-90821428D01*
X147123571Y-90892857D01*
X146980714Y-90964285D01*
X146409285Y-90964285D01*
X147695000Y-90178571D02*
X148552142Y-90178571D01*
X148123571Y-91678571D02*
X148123571Y-90178571D01*
X149980714Y-90178571D02*
X150837857Y-90178571D01*
X150409285Y-91678571D02*
X150409285Y-90178571D01*
X151195000Y-90178571D02*
X152195000Y-91678571D01*
X152195000Y-90178571D02*
X151195000Y-91678571D01*
X143480714Y-109107142D02*
X143695000Y-109178571D01*
X144052142Y-109178571D01*
X144195000Y-109107142D01*
X144266428Y-109035714D01*
X144337857Y-108892857D01*
X144337857Y-108750000D01*
X144266428Y-108607142D01*
X144195000Y-108535714D01*
X144052142Y-108464285D01*
X143766428Y-108392857D01*
X143623571Y-108321428D01*
X143552142Y-108250000D01*
X143480714Y-108107142D01*
X143480714Y-107964285D01*
X143552142Y-107821428D01*
X143623571Y-107750000D01*
X143766428Y-107678571D01*
X144123571Y-107678571D01*
X144337857Y-107750000D01*
X144980714Y-109178571D02*
X144980714Y-107678571D01*
X145337857Y-107678571D01*
X145552142Y-107750000D01*
X145695000Y-107892857D01*
X145766428Y-108035714D01*
X145837857Y-108321428D01*
X145837857Y-108535714D01*
X145766428Y-108821428D01*
X145695000Y-108964285D01*
X145552142Y-109107142D01*
X145337857Y-109178571D01*
X144980714Y-109178571D01*
X147552142Y-108750000D02*
X148266428Y-108750000D01*
X147409285Y-109178571D02*
X147909285Y-107678571D01*
X148409285Y-109178571D01*
X149766428Y-109035714D02*
X149695000Y-109107142D01*
X149480714Y-109178571D01*
X149337857Y-109178571D01*
X149123571Y-109107142D01*
X148980714Y-108964285D01*
X148909285Y-108821428D01*
X148837857Y-108535714D01*
X148837857Y-108321428D01*
X148909285Y-108035714D01*
X148980714Y-107892857D01*
X149123571Y-107750000D01*
X149337857Y-107678571D01*
X149480714Y-107678571D01*
X149695000Y-107750000D01*
X149766428Y-107821428D01*
X150195000Y-107678571D02*
X151052142Y-107678571D01*
X150623571Y-109178571D02*
X150623571Y-107678571D01*
X144409285Y-103678571D02*
X143909285Y-102964285D01*
X143552142Y-103678571D02*
X143552142Y-102178571D01*
X144123571Y-102178571D01*
X144266428Y-102250000D01*
X144337857Y-102321428D01*
X144409285Y-102464285D01*
X144409285Y-102678571D01*
X144337857Y-102821428D01*
X144266428Y-102892857D01*
X144123571Y-102964285D01*
X143552142Y-102964285D01*
X145552142Y-102892857D02*
X145052142Y-102892857D01*
X145052142Y-103678571D02*
X145052142Y-102178571D01*
X145766428Y-102178571D01*
X147266428Y-102178571D02*
X148123571Y-102178571D01*
X147695000Y-103678571D02*
X147695000Y-102178571D01*
X148480714Y-102178571D02*
X149480714Y-103678571D01*
X149480714Y-102178571D02*
X148480714Y-103678571D01*
X144409285Y-98178571D02*
X143909285Y-97464285D01*
X143552142Y-98178571D02*
X143552142Y-96678571D01*
X144123571Y-96678571D01*
X144266428Y-96750000D01*
X144337857Y-96821428D01*
X144409285Y-96964285D01*
X144409285Y-97178571D01*
X144337857Y-97321428D01*
X144266428Y-97392857D01*
X144123571Y-97464285D01*
X143552142Y-97464285D01*
X145552142Y-97392857D02*
X145052142Y-97392857D01*
X145052142Y-98178571D02*
X145052142Y-96678571D01*
X145766428Y-96678571D01*
X148337857Y-98178571D02*
X147837857Y-97464285D01*
X147480714Y-98178571D02*
X147480714Y-96678571D01*
X148052142Y-96678571D01*
X148195000Y-96750000D01*
X148266428Y-96821428D01*
X148337857Y-96964285D01*
X148337857Y-97178571D01*
X148266428Y-97321428D01*
X148195000Y-97392857D01*
X148052142Y-97464285D01*
X147480714Y-97464285D01*
X148837857Y-96678571D02*
X149837857Y-98178571D01*
X149837857Y-96678571D02*
X148837857Y-98178571D01*
D10*
X115550000Y-152650000D02*
X116550000Y-152650000D01*
X116550000Y-150950000D02*
X115550000Y-150950000D01*
X141970000Y-120895000D02*
X139970000Y-120895000D01*
X139970000Y-122945000D02*
X141970000Y-122945000D01*
X152900000Y-137625000D02*
X154900000Y-137625000D01*
X154900000Y-135575000D02*
X152900000Y-135575000D01*
X150850000Y-150400000D02*
X150850000Y-149600000D01*
X144150000Y-149600000D02*
X144150000Y-150400000D01*
X145900000Y-148700000D02*
X147600000Y-148700000D01*
X144650000Y-151300000D02*
X150350000Y-151300000D01*
X147400000Y-152600000D02*
X147400000Y-151300000D01*
X146300000Y-152800000D02*
X147200000Y-152800000D01*
X146100000Y-151300000D02*
X146100000Y-152600000D01*
X147400000Y-152600000D02*
X147200000Y-152800000D01*
X146100000Y-152600000D02*
X146300000Y-152800000D01*
X148900000Y-148700000D02*
X149100000Y-148700000D01*
X146750000Y-151000000D02*
X146750000Y-151300000D01*
X148250000Y-151000000D02*
X148250000Y-151300000D01*
X102750000Y-83150000D02*
X101750000Y-83150000D01*
X101750000Y-84850000D02*
X102750000Y-84850000D01*
X87200000Y-82250000D02*
X88200000Y-82250000D01*
X88200000Y-80550000D02*
X87200000Y-80550000D01*
X87300000Y-88850000D02*
X88300000Y-88850000D01*
X88300000Y-87150000D02*
X87300000Y-87150000D01*
D14*
X49800120Y-141147660D02*
X49800120Y-137952340D01*
X49800120Y-137952340D02*
X46203480Y-137952340D01*
X46203480Y-137952340D02*
X46203480Y-141147660D01*
X46203480Y-141147660D02*
X49800120Y-141147660D01*
X49599460Y-141749640D02*
X49594380Y-141800440D01*
X49594380Y-141800440D02*
X49574060Y-141848700D01*
X49574060Y-141848700D02*
X49541040Y-141889340D01*
X49541040Y-141889340D02*
X49500400Y-141922360D01*
X49500400Y-141922360D02*
X49452140Y-141942680D01*
X49452140Y-141942680D02*
X49401340Y-141947760D01*
X49401340Y-141947760D02*
X49348000Y-141942680D01*
X49348000Y-141942680D02*
X49299740Y-141922360D01*
X49299740Y-141922360D02*
X49259100Y-141889340D01*
X49259100Y-141889340D02*
X49226080Y-141848700D01*
X49226080Y-141848700D02*
X49208300Y-141800440D01*
X49208300Y-141800440D02*
X49200680Y-141749640D01*
X49200680Y-141749640D02*
X49208300Y-141696300D01*
X49208300Y-141696300D02*
X49226080Y-141648040D01*
X49226080Y-141648040D02*
X49259100Y-141607400D01*
X49259100Y-141607400D02*
X49299740Y-141574380D01*
X49299740Y-141574380D02*
X49348000Y-141556600D01*
X49348000Y-141556600D02*
X49401340Y-141548980D01*
X49401340Y-141548980D02*
X49452140Y-141556600D01*
X49452140Y-141556600D02*
X49500400Y-141574380D01*
X49500400Y-141574380D02*
X49541040Y-141607400D01*
X49541040Y-141607400D02*
X49574060Y-141648040D01*
X49574060Y-141648040D02*
X49594380Y-141696300D01*
X49594380Y-141696300D02*
X49599460Y-141749640D01*
D15*
X136152354Y-45720000D02*
G75*
G03X136152354Y-45720000I-1203354J0D01*
G01*
D14*
X130859600Y-43558460D02*
X130849440Y-43624500D01*
X130885000Y-43497500D02*
X130859600Y-43558460D01*
X130925640Y-43446700D02*
X130885000Y-43497500D01*
X130976440Y-43406060D02*
X130925640Y-43446700D01*
X131037400Y-43380660D02*
X130976440Y-43406060D01*
X131103440Y-43370500D02*
X131037400Y-43380660D01*
X131166940Y-43380660D02*
X131103440Y-43370500D01*
X131227900Y-43403520D02*
X131166940Y-43380660D01*
X131278700Y-43444160D02*
X131227900Y-43403520D01*
X131316800Y-43494960D02*
X131278700Y-43444160D01*
X131342200Y-43553380D02*
X131316800Y-43494960D01*
X131349820Y-43616880D02*
X131342200Y-43553380D01*
X131342200Y-43682920D02*
X131349820Y-43616880D01*
X131316800Y-43743880D02*
X131342200Y-43682920D01*
X131276160Y-43797220D02*
X131316800Y-43743880D01*
X131222820Y-43837860D02*
X131276160Y-43797220D01*
X131161860Y-43863260D02*
X131222820Y-43837860D01*
X131095820Y-43870880D02*
X131161860Y-43863260D01*
X131032320Y-43863260D02*
X131095820Y-43870880D01*
X130973900Y-43837860D02*
X131032320Y-43863260D01*
X130923100Y-43799760D02*
X130973900Y-43837860D01*
X130882460Y-43748960D02*
X130923100Y-43799760D01*
X130859600Y-43688000D02*
X130882460Y-43748960D01*
X130849440Y-43624500D02*
X130859600Y-43688000D01*
X136447600Y-47017940D02*
X135248720Y-48219360D01*
X137448360Y-46019720D02*
X136747320Y-46718220D01*
X132449640Y-43421300D02*
X132449640Y-43220640D01*
X132449640Y-46718220D02*
X132449640Y-44721780D01*
X132449640Y-48219360D02*
X132449640Y-48018700D01*
X135248720Y-48219360D02*
X132449640Y-48219360D01*
X137448360Y-48219360D02*
X135248720Y-48219360D01*
X137448360Y-48018700D02*
X137448360Y-48219360D01*
X137448360Y-46019720D02*
X137448360Y-46718220D01*
X137448360Y-44721780D02*
X137448360Y-46019720D01*
X137448360Y-43220640D02*
X137448360Y-43421300D01*
X132449640Y-43220640D02*
X137448360Y-43220640D01*
X156250640Y-70525640D02*
X161249360Y-70525640D01*
X161249360Y-70525640D02*
X161249360Y-70726300D01*
X161249360Y-72026780D02*
X161249360Y-73324720D01*
X161249360Y-73324720D02*
X161249360Y-74023220D01*
X161249360Y-75323700D02*
X161249360Y-75524360D01*
X161249360Y-75524360D02*
X159049720Y-75524360D01*
X159049720Y-75524360D02*
X156250640Y-75524360D01*
X156250640Y-75524360D02*
X156250640Y-75323700D01*
X156250640Y-74023220D02*
X156250640Y-72026780D01*
X156250640Y-70726300D02*
X156250640Y-70525640D01*
X161249360Y-73324720D02*
X160548320Y-74023220D01*
X160248600Y-74322940D02*
X159049720Y-75524360D01*
X154650440Y-70929500D02*
X154660600Y-70993000D01*
X154660600Y-70993000D02*
X154683460Y-71053960D01*
X154683460Y-71053960D02*
X154724100Y-71104760D01*
X154724100Y-71104760D02*
X154774900Y-71142860D01*
X154774900Y-71142860D02*
X154833320Y-71168260D01*
X154833320Y-71168260D02*
X154896820Y-71175880D01*
X154896820Y-71175880D02*
X154962860Y-71168260D01*
X154962860Y-71168260D02*
X155023820Y-71142860D01*
X155023820Y-71142860D02*
X155077160Y-71102220D01*
X155077160Y-71102220D02*
X155117800Y-71048880D01*
X155117800Y-71048880D02*
X155143200Y-70987920D01*
X155143200Y-70987920D02*
X155150820Y-70921880D01*
X155150820Y-70921880D02*
X155143200Y-70858380D01*
X155143200Y-70858380D02*
X155117800Y-70799960D01*
X155117800Y-70799960D02*
X155079700Y-70749160D01*
X155079700Y-70749160D02*
X155028900Y-70708520D01*
X155028900Y-70708520D02*
X154967940Y-70685660D01*
X154967940Y-70685660D02*
X154904440Y-70675500D01*
X154904440Y-70675500D02*
X154838400Y-70685660D01*
X154838400Y-70685660D02*
X154777440Y-70711060D01*
X154777440Y-70711060D02*
X154726640Y-70751700D01*
X154726640Y-70751700D02*
X154686000Y-70802500D01*
X154686000Y-70802500D02*
X154660600Y-70863460D01*
X154660600Y-70863460D02*
X154650440Y-70929500D01*
D15*
X159953354Y-73025000D02*
G75*
G03X159953354Y-73025000I-1203354J0D01*
G01*
X164993354Y-101270000D02*
G75*
G03X164993354Y-101270000I-1203354J0D01*
G01*
D14*
X159700600Y-99108460D02*
X159690440Y-99174500D01*
X159726000Y-99047500D02*
X159700600Y-99108460D01*
X159766640Y-98996700D02*
X159726000Y-99047500D01*
X159817440Y-98956060D02*
X159766640Y-98996700D01*
X159878400Y-98930660D02*
X159817440Y-98956060D01*
X159944440Y-98920500D02*
X159878400Y-98930660D01*
X160007940Y-98930660D02*
X159944440Y-98920500D01*
X160068900Y-98953520D02*
X160007940Y-98930660D01*
X160119700Y-98994160D02*
X160068900Y-98953520D01*
X160157800Y-99044960D02*
X160119700Y-98994160D01*
X160183200Y-99103380D02*
X160157800Y-99044960D01*
X160190820Y-99166880D02*
X160183200Y-99103380D01*
X160183200Y-99232920D02*
X160190820Y-99166880D01*
X160157800Y-99293880D02*
X160183200Y-99232920D01*
X160117160Y-99347220D02*
X160157800Y-99293880D01*
X160063820Y-99387860D02*
X160117160Y-99347220D01*
X160002860Y-99413260D02*
X160063820Y-99387860D01*
X159936820Y-99420880D02*
X160002860Y-99413260D01*
X159873320Y-99413260D02*
X159936820Y-99420880D01*
X159814900Y-99387860D02*
X159873320Y-99413260D01*
X159764100Y-99349760D02*
X159814900Y-99387860D01*
X159723460Y-99298960D02*
X159764100Y-99349760D01*
X159700600Y-99238000D02*
X159723460Y-99298960D01*
X159690440Y-99174500D02*
X159700600Y-99238000D01*
X165288600Y-102567940D02*
X164089720Y-103769360D01*
X166289360Y-101569720D02*
X165588320Y-102268220D01*
X161290640Y-98971300D02*
X161290640Y-98770640D01*
X161290640Y-102268220D02*
X161290640Y-100271780D01*
X161290640Y-103769360D02*
X161290640Y-103568700D01*
X164089720Y-103769360D02*
X161290640Y-103769360D01*
X166289360Y-103769360D02*
X164089720Y-103769360D01*
X166289360Y-103568700D02*
X166289360Y-103769360D01*
X166289360Y-101569720D02*
X166289360Y-102268220D01*
X166289360Y-100271780D02*
X166289360Y-101569720D01*
X166289360Y-98770640D02*
X166289360Y-98971300D01*
X161290640Y-98770640D02*
X166289360Y-98770640D01*
X156210640Y-127980640D02*
X161209360Y-127980640D01*
X161209360Y-127980640D02*
X161209360Y-128181300D01*
X161209360Y-129481780D02*
X161209360Y-130779720D01*
X161209360Y-130779720D02*
X161209360Y-131478220D01*
X161209360Y-132778700D02*
X161209360Y-132979360D01*
X161209360Y-132979360D02*
X159009720Y-132979360D01*
X159009720Y-132979360D02*
X156210640Y-132979360D01*
X156210640Y-132979360D02*
X156210640Y-132778700D01*
X156210640Y-131478220D02*
X156210640Y-129481780D01*
X156210640Y-128181300D02*
X156210640Y-127980640D01*
X161209360Y-130779720D02*
X160508320Y-131478220D01*
X160208600Y-131777940D02*
X159009720Y-132979360D01*
X154610440Y-128384500D02*
X154620600Y-128448000D01*
X154620600Y-128448000D02*
X154643460Y-128508960D01*
X154643460Y-128508960D02*
X154684100Y-128559760D01*
X154684100Y-128559760D02*
X154734900Y-128597860D01*
X154734900Y-128597860D02*
X154793320Y-128623260D01*
X154793320Y-128623260D02*
X154856820Y-128630880D01*
X154856820Y-128630880D02*
X154922860Y-128623260D01*
X154922860Y-128623260D02*
X154983820Y-128597860D01*
X154983820Y-128597860D02*
X155037160Y-128557220D01*
X155037160Y-128557220D02*
X155077800Y-128503880D01*
X155077800Y-128503880D02*
X155103200Y-128442920D01*
X155103200Y-128442920D02*
X155110820Y-128376880D01*
X155110820Y-128376880D02*
X155103200Y-128313380D01*
X155103200Y-128313380D02*
X155077800Y-128254960D01*
X155077800Y-128254960D02*
X155039700Y-128204160D01*
X155039700Y-128204160D02*
X154988900Y-128163520D01*
X154988900Y-128163520D02*
X154927940Y-128140660D01*
X154927940Y-128140660D02*
X154864440Y-128130500D01*
X154864440Y-128130500D02*
X154798400Y-128140660D01*
X154798400Y-128140660D02*
X154737440Y-128166060D01*
X154737440Y-128166060D02*
X154686640Y-128206700D01*
X154686640Y-128206700D02*
X154646000Y-128257500D01*
X154646000Y-128257500D02*
X154620600Y-128318460D01*
X154620600Y-128318460D02*
X154610440Y-128384500D01*
D15*
X159913354Y-130480000D02*
G75*
G03X159913354Y-130480000I-1203354J0D01*
G01*
X138323354Y-155880000D02*
G75*
G03X138323354Y-155880000I-1203354J0D01*
G01*
D14*
X133030600Y-153718460D02*
X133020440Y-153784500D01*
X133056000Y-153657500D02*
X133030600Y-153718460D01*
X133096640Y-153606700D02*
X133056000Y-153657500D01*
X133147440Y-153566060D02*
X133096640Y-153606700D01*
X133208400Y-153540660D02*
X133147440Y-153566060D01*
X133274440Y-153530500D02*
X133208400Y-153540660D01*
X133337940Y-153540660D02*
X133274440Y-153530500D01*
X133398900Y-153563520D02*
X133337940Y-153540660D01*
X133449700Y-153604160D02*
X133398900Y-153563520D01*
X133487800Y-153654960D02*
X133449700Y-153604160D01*
X133513200Y-153713380D02*
X133487800Y-153654960D01*
X133520820Y-153776880D02*
X133513200Y-153713380D01*
X133513200Y-153842920D02*
X133520820Y-153776880D01*
X133487800Y-153903880D02*
X133513200Y-153842920D01*
X133447160Y-153957220D02*
X133487800Y-153903880D01*
X133393820Y-153997860D02*
X133447160Y-153957220D01*
X133332860Y-154023260D02*
X133393820Y-153997860D01*
X133266820Y-154030880D02*
X133332860Y-154023260D01*
X133203320Y-154023260D02*
X133266820Y-154030880D01*
X133144900Y-153997860D02*
X133203320Y-154023260D01*
X133094100Y-153959760D02*
X133144900Y-153997860D01*
X133053460Y-153908960D02*
X133094100Y-153959760D01*
X133030600Y-153848000D02*
X133053460Y-153908960D01*
X133020440Y-153784500D02*
X133030600Y-153848000D01*
X138618600Y-157177940D02*
X137419720Y-158379360D01*
X139619360Y-156179720D02*
X138918320Y-156878220D01*
X134620640Y-153581300D02*
X134620640Y-153380640D01*
X134620640Y-156878220D02*
X134620640Y-154881780D01*
X134620640Y-158379360D02*
X134620640Y-158178700D01*
X137419720Y-158379360D02*
X134620640Y-158379360D01*
X139619360Y-158379360D02*
X137419720Y-158379360D01*
X139619360Y-158178700D02*
X139619360Y-158379360D01*
X139619360Y-156179720D02*
X139619360Y-156878220D01*
X139619360Y-154881780D02*
X139619360Y-156179720D01*
X139619360Y-153380640D02*
X139619360Y-153581300D01*
X134620640Y-153380640D02*
X139619360Y-153380640D01*
X92750640Y-168950640D02*
X97749360Y-168950640D01*
X97749360Y-168950640D02*
X97749360Y-169151300D01*
X97749360Y-170451780D02*
X97749360Y-171749720D01*
X97749360Y-171749720D02*
X97749360Y-172448220D01*
X97749360Y-173748700D02*
X97749360Y-173949360D01*
X97749360Y-173949360D02*
X95549720Y-173949360D01*
X95549720Y-173949360D02*
X92750640Y-173949360D01*
X92750640Y-173949360D02*
X92750640Y-173748700D01*
X92750640Y-172448220D02*
X92750640Y-170451780D01*
X92750640Y-169151300D02*
X92750640Y-168950640D01*
X97749360Y-171749720D02*
X97048320Y-172448220D01*
X96748600Y-172747940D02*
X95549720Y-173949360D01*
X91150440Y-169354500D02*
X91160600Y-169418000D01*
X91160600Y-169418000D02*
X91183460Y-169478960D01*
X91183460Y-169478960D02*
X91224100Y-169529760D01*
X91224100Y-169529760D02*
X91274900Y-169567860D01*
X91274900Y-169567860D02*
X91333320Y-169593260D01*
X91333320Y-169593260D02*
X91396820Y-169600880D01*
X91396820Y-169600880D02*
X91462860Y-169593260D01*
X91462860Y-169593260D02*
X91523820Y-169567860D01*
X91523820Y-169567860D02*
X91577160Y-169527220D01*
X91577160Y-169527220D02*
X91617800Y-169473880D01*
X91617800Y-169473880D02*
X91643200Y-169412920D01*
X91643200Y-169412920D02*
X91650820Y-169346880D01*
X91650820Y-169346880D02*
X91643200Y-169283380D01*
X91643200Y-169283380D02*
X91617800Y-169224960D01*
X91617800Y-169224960D02*
X91579700Y-169174160D01*
X91579700Y-169174160D02*
X91528900Y-169133520D01*
X91528900Y-169133520D02*
X91467940Y-169110660D01*
X91467940Y-169110660D02*
X91404440Y-169100500D01*
X91404440Y-169100500D02*
X91338400Y-169110660D01*
X91338400Y-169110660D02*
X91277440Y-169136060D01*
X91277440Y-169136060D02*
X91226640Y-169176700D01*
X91226640Y-169176700D02*
X91186000Y-169227500D01*
X91186000Y-169227500D02*
X91160600Y-169288460D01*
X91160600Y-169288460D02*
X91150440Y-169354500D01*
D15*
X96453354Y-171450000D02*
G75*
G03X96453354Y-171450000I-1203354J0D01*
G01*
X48868354Y-151435000D02*
G75*
G03X48868354Y-151435000I-1203354J0D01*
G01*
D14*
X43575600Y-149273460D02*
X43565440Y-149339500D01*
X43601000Y-149212500D02*
X43575600Y-149273460D01*
X43641640Y-149161700D02*
X43601000Y-149212500D01*
X43692440Y-149121060D02*
X43641640Y-149161700D01*
X43753400Y-149095660D02*
X43692440Y-149121060D01*
X43819440Y-149085500D02*
X43753400Y-149095660D01*
X43882940Y-149095660D02*
X43819440Y-149085500D01*
X43943900Y-149118520D02*
X43882940Y-149095660D01*
X43994700Y-149159160D02*
X43943900Y-149118520D01*
X44032800Y-149209960D02*
X43994700Y-149159160D01*
X44058200Y-149268380D02*
X44032800Y-149209960D01*
X44065820Y-149331880D02*
X44058200Y-149268380D01*
X44058200Y-149397920D02*
X44065820Y-149331880D01*
X44032800Y-149458880D02*
X44058200Y-149397920D01*
X43992160Y-149512220D02*
X44032800Y-149458880D01*
X43938820Y-149552860D02*
X43992160Y-149512220D01*
X43877860Y-149578260D02*
X43938820Y-149552860D01*
X43811820Y-149585880D02*
X43877860Y-149578260D01*
X43748320Y-149578260D02*
X43811820Y-149585880D01*
X43689900Y-149552860D02*
X43748320Y-149578260D01*
X43639100Y-149514760D02*
X43689900Y-149552860D01*
X43598460Y-149463960D02*
X43639100Y-149514760D01*
X43575600Y-149403000D02*
X43598460Y-149463960D01*
X43565440Y-149339500D02*
X43575600Y-149403000D01*
X49163600Y-152732940D02*
X47964720Y-153934360D01*
X50164360Y-151734720D02*
X49463320Y-152433220D01*
X45165640Y-149136300D02*
X45165640Y-148935640D01*
X45165640Y-152433220D02*
X45165640Y-150436780D01*
X45165640Y-153934360D02*
X45165640Y-153733700D01*
X47964720Y-153934360D02*
X45165640Y-153934360D01*
X50164360Y-153934360D02*
X47964720Y-153934360D01*
X50164360Y-153733700D02*
X50164360Y-153934360D01*
X50164360Y-151734720D02*
X50164360Y-152433220D01*
X50164360Y-150436780D02*
X50164360Y-151734720D01*
X50164360Y-148935640D02*
X50164360Y-149136300D01*
X45165640Y-148935640D02*
X50164360Y-148935640D01*
X30480640Y-127980640D02*
X35479360Y-127980640D01*
X35479360Y-127980640D02*
X35479360Y-128181300D01*
X35479360Y-129481780D02*
X35479360Y-130779720D01*
X35479360Y-130779720D02*
X35479360Y-131478220D01*
X35479360Y-132778700D02*
X35479360Y-132979360D01*
X35479360Y-132979360D02*
X33279720Y-132979360D01*
X33279720Y-132979360D02*
X30480640Y-132979360D01*
X30480640Y-132979360D02*
X30480640Y-132778700D01*
X30480640Y-131478220D02*
X30480640Y-129481780D01*
X30480640Y-128181300D02*
X30480640Y-127980640D01*
X35479360Y-130779720D02*
X34778320Y-131478220D01*
X34478600Y-131777940D02*
X33279720Y-132979360D01*
X28880440Y-128384500D02*
X28890600Y-128448000D01*
X28890600Y-128448000D02*
X28913460Y-128508960D01*
X28913460Y-128508960D02*
X28954100Y-128559760D01*
X28954100Y-128559760D02*
X29004900Y-128597860D01*
X29004900Y-128597860D02*
X29063320Y-128623260D01*
X29063320Y-128623260D02*
X29126820Y-128630880D01*
X29126820Y-128630880D02*
X29192860Y-128623260D01*
X29192860Y-128623260D02*
X29253820Y-128597860D01*
X29253820Y-128597860D02*
X29307160Y-128557220D01*
X29307160Y-128557220D02*
X29347800Y-128503880D01*
X29347800Y-128503880D02*
X29373200Y-128442920D01*
X29373200Y-128442920D02*
X29380820Y-128376880D01*
X29380820Y-128376880D02*
X29373200Y-128313380D01*
X29373200Y-128313380D02*
X29347800Y-128254960D01*
X29347800Y-128254960D02*
X29309700Y-128204160D01*
X29309700Y-128204160D02*
X29258900Y-128163520D01*
X29258900Y-128163520D02*
X29197940Y-128140660D01*
X29197940Y-128140660D02*
X29134440Y-128130500D01*
X29134440Y-128130500D02*
X29068400Y-128140660D01*
X29068400Y-128140660D02*
X29007440Y-128166060D01*
X29007440Y-128166060D02*
X28956640Y-128206700D01*
X28956640Y-128206700D02*
X28916000Y-128257500D01*
X28916000Y-128257500D02*
X28890600Y-128318460D01*
X28890600Y-128318460D02*
X28880440Y-128384500D01*
D15*
X34183354Y-130480000D02*
G75*
G03X34183354Y-130480000I-1203354J0D01*
G01*
X26603354Y-101100000D02*
G75*
G03X26603354Y-101100000I-1203354J0D01*
G01*
D14*
X21310600Y-98938460D02*
X21300440Y-99004500D01*
X21336000Y-98877500D02*
X21310600Y-98938460D01*
X21376640Y-98826700D02*
X21336000Y-98877500D01*
X21427440Y-98786060D02*
X21376640Y-98826700D01*
X21488400Y-98760660D02*
X21427440Y-98786060D01*
X21554440Y-98750500D02*
X21488400Y-98760660D01*
X21617940Y-98760660D02*
X21554440Y-98750500D01*
X21678900Y-98783520D02*
X21617940Y-98760660D01*
X21729700Y-98824160D02*
X21678900Y-98783520D01*
X21767800Y-98874960D02*
X21729700Y-98824160D01*
X21793200Y-98933380D02*
X21767800Y-98874960D01*
X21800820Y-98996880D02*
X21793200Y-98933380D01*
X21793200Y-99062920D02*
X21800820Y-98996880D01*
X21767800Y-99123880D02*
X21793200Y-99062920D01*
X21727160Y-99177220D02*
X21767800Y-99123880D01*
X21673820Y-99217860D02*
X21727160Y-99177220D01*
X21612860Y-99243260D02*
X21673820Y-99217860D01*
X21546820Y-99250880D02*
X21612860Y-99243260D01*
X21483320Y-99243260D02*
X21546820Y-99250880D01*
X21424900Y-99217860D02*
X21483320Y-99243260D01*
X21374100Y-99179760D02*
X21424900Y-99217860D01*
X21333460Y-99128960D02*
X21374100Y-99179760D01*
X21310600Y-99068000D02*
X21333460Y-99128960D01*
X21300440Y-99004500D02*
X21310600Y-99068000D01*
X26898600Y-102397940D02*
X25699720Y-103599360D01*
X27899360Y-101399720D02*
X27198320Y-102098220D01*
X22900640Y-98801300D02*
X22900640Y-98600640D01*
X22900640Y-102098220D02*
X22900640Y-100101780D01*
X22900640Y-103599360D02*
X22900640Y-103398700D01*
X25699720Y-103599360D02*
X22900640Y-103599360D01*
X27899360Y-103599360D02*
X25699720Y-103599360D01*
X27899360Y-103398700D02*
X27899360Y-103599360D01*
X27899360Y-101399720D02*
X27899360Y-102098220D01*
X27899360Y-100101780D02*
X27899360Y-101399720D01*
X27899360Y-98600640D02*
X27899360Y-98801300D01*
X22900640Y-98600640D02*
X27899360Y-98600640D01*
X29300640Y-70700640D02*
X34299360Y-70700640D01*
X34299360Y-70700640D02*
X34299360Y-70901300D01*
X34299360Y-72201780D02*
X34299360Y-73499720D01*
X34299360Y-73499720D02*
X34299360Y-74198220D01*
X34299360Y-75498700D02*
X34299360Y-75699360D01*
X34299360Y-75699360D02*
X32099720Y-75699360D01*
X32099720Y-75699360D02*
X29300640Y-75699360D01*
X29300640Y-75699360D02*
X29300640Y-75498700D01*
X29300640Y-74198220D02*
X29300640Y-72201780D01*
X29300640Y-70901300D02*
X29300640Y-70700640D01*
X34299360Y-73499720D02*
X33598320Y-74198220D01*
X33298600Y-74497940D02*
X32099720Y-75699360D01*
X27700440Y-71104500D02*
X27710600Y-71168000D01*
X27710600Y-71168000D02*
X27733460Y-71228960D01*
X27733460Y-71228960D02*
X27774100Y-71279760D01*
X27774100Y-71279760D02*
X27824900Y-71317860D01*
X27824900Y-71317860D02*
X27883320Y-71343260D01*
X27883320Y-71343260D02*
X27946820Y-71350880D01*
X27946820Y-71350880D02*
X28012860Y-71343260D01*
X28012860Y-71343260D02*
X28073820Y-71317860D01*
X28073820Y-71317860D02*
X28127160Y-71277220D01*
X28127160Y-71277220D02*
X28167800Y-71223880D01*
X28167800Y-71223880D02*
X28193200Y-71162920D01*
X28193200Y-71162920D02*
X28200820Y-71096880D01*
X28200820Y-71096880D02*
X28193200Y-71033380D01*
X28193200Y-71033380D02*
X28167800Y-70974960D01*
X28167800Y-70974960D02*
X28129700Y-70924160D01*
X28129700Y-70924160D02*
X28078900Y-70883520D01*
X28078900Y-70883520D02*
X28017940Y-70860660D01*
X28017940Y-70860660D02*
X27954440Y-70850500D01*
X27954440Y-70850500D02*
X27888400Y-70860660D01*
X27888400Y-70860660D02*
X27827440Y-70886060D01*
X27827440Y-70886060D02*
X27776640Y-70926700D01*
X27776640Y-70926700D02*
X27736000Y-70977500D01*
X27736000Y-70977500D02*
X27710600Y-71038460D01*
X27710600Y-71038460D02*
X27700440Y-71104500D01*
D15*
X33003354Y-73200000D02*
G75*
G03X33003354Y-73200000I-1203354J0D01*
G01*
X58353354Y-45720000D02*
G75*
G03X58353354Y-45720000I-1203354J0D01*
G01*
D14*
X53060600Y-43558460D02*
X53050440Y-43624500D01*
X53086000Y-43497500D02*
X53060600Y-43558460D01*
X53126640Y-43446700D02*
X53086000Y-43497500D01*
X53177440Y-43406060D02*
X53126640Y-43446700D01*
X53238400Y-43380660D02*
X53177440Y-43406060D01*
X53304440Y-43370500D02*
X53238400Y-43380660D01*
X53367940Y-43380660D02*
X53304440Y-43370500D01*
X53428900Y-43403520D02*
X53367940Y-43380660D01*
X53479700Y-43444160D02*
X53428900Y-43403520D01*
X53517800Y-43494960D02*
X53479700Y-43444160D01*
X53543200Y-43553380D02*
X53517800Y-43494960D01*
X53550820Y-43616880D02*
X53543200Y-43553380D01*
X53543200Y-43682920D02*
X53550820Y-43616880D01*
X53517800Y-43743880D02*
X53543200Y-43682920D01*
X53477160Y-43797220D02*
X53517800Y-43743880D01*
X53423820Y-43837860D02*
X53477160Y-43797220D01*
X53362860Y-43863260D02*
X53423820Y-43837860D01*
X53296820Y-43870880D02*
X53362860Y-43863260D01*
X53233320Y-43863260D02*
X53296820Y-43870880D01*
X53174900Y-43837860D02*
X53233320Y-43863260D01*
X53124100Y-43799760D02*
X53174900Y-43837860D01*
X53083460Y-43748960D02*
X53124100Y-43799760D01*
X53060600Y-43688000D02*
X53083460Y-43748960D01*
X53050440Y-43624500D02*
X53060600Y-43688000D01*
X58648600Y-47017940D02*
X57449720Y-48219360D01*
X59649360Y-46019720D02*
X58948320Y-46718220D01*
X54650640Y-43421300D02*
X54650640Y-43220640D01*
X54650640Y-46718220D02*
X54650640Y-44721780D01*
X54650640Y-48219360D02*
X54650640Y-48018700D01*
X57449720Y-48219360D02*
X54650640Y-48219360D01*
X59649360Y-48219360D02*
X57449720Y-48219360D01*
X59649360Y-48018700D02*
X59649360Y-48219360D01*
X59649360Y-46019720D02*
X59649360Y-46718220D01*
X59649360Y-44721780D02*
X59649360Y-46019720D01*
X59649360Y-43220640D02*
X59649360Y-43421300D01*
X54650640Y-43220640D02*
X59649360Y-43220640D01*
X92449240Y-30852140D02*
X97447960Y-30852140D01*
X97447960Y-30852140D02*
X97447960Y-31052800D01*
X97447960Y-32353280D02*
X97447960Y-33651220D01*
X97447960Y-33651220D02*
X97447960Y-34349720D01*
X97447960Y-35650200D02*
X97447960Y-35850860D01*
X97447960Y-35850860D02*
X95248320Y-35850860D01*
X95248320Y-35850860D02*
X92449240Y-35850860D01*
X92449240Y-35850860D02*
X92449240Y-35650200D01*
X92449240Y-34349720D02*
X92449240Y-32353280D01*
X92449240Y-31052800D02*
X92449240Y-30852140D01*
X97447960Y-33651220D02*
X96746920Y-34349720D01*
X96447200Y-34649440D02*
X95248320Y-35850860D01*
X90849040Y-31256000D02*
X90859200Y-31319500D01*
X90859200Y-31319500D02*
X90882060Y-31380460D01*
X90882060Y-31380460D02*
X90922700Y-31431260D01*
X90922700Y-31431260D02*
X90973500Y-31469360D01*
X90973500Y-31469360D02*
X91031920Y-31494760D01*
X91031920Y-31494760D02*
X91095420Y-31502380D01*
X91095420Y-31502380D02*
X91161460Y-31494760D01*
X91161460Y-31494760D02*
X91222420Y-31469360D01*
X91222420Y-31469360D02*
X91275760Y-31428720D01*
X91275760Y-31428720D02*
X91316400Y-31375380D01*
X91316400Y-31375380D02*
X91341800Y-31314420D01*
X91341800Y-31314420D02*
X91349420Y-31248380D01*
X91349420Y-31248380D02*
X91341800Y-31184880D01*
X91341800Y-31184880D02*
X91316400Y-31126460D01*
X91316400Y-31126460D02*
X91278300Y-31075660D01*
X91278300Y-31075660D02*
X91227500Y-31035020D01*
X91227500Y-31035020D02*
X91166540Y-31012160D01*
X91166540Y-31012160D02*
X91103040Y-31002000D01*
X91103040Y-31002000D02*
X91037000Y-31012160D01*
X91037000Y-31012160D02*
X90976040Y-31037560D01*
X90976040Y-31037560D02*
X90925240Y-31078200D01*
X90925240Y-31078200D02*
X90884600Y-31129000D01*
X90884600Y-31129000D02*
X90859200Y-31189960D01*
X90859200Y-31189960D02*
X90849040Y-31256000D01*
D15*
X96151954Y-33351500D02*
G75*
G03X96151954Y-33351500I-1203354J0D01*
G01*
D14*
X46621680Y-59773260D02*
X41023520Y-59773260D01*
X41023520Y-59773260D02*
X41023520Y-56577940D01*
X41023520Y-56577940D02*
X46621680Y-56577940D01*
X46621680Y-56577940D02*
X46621680Y-59773260D01*
X45021480Y-59374480D02*
X43822600Y-59374480D01*
X43822600Y-59374480D02*
X42623720Y-59374480D01*
X45021480Y-56976720D02*
X43822600Y-56976720D01*
X43822600Y-56976720D02*
X42623720Y-56976720D01*
X43822600Y-56976720D02*
X43822600Y-57576160D01*
X43822600Y-59374480D02*
X43822600Y-58775040D01*
X43822600Y-57576160D02*
X44221380Y-58574380D01*
D10*
X93900000Y-153250000D02*
X96600000Y-153250000D01*
X93900000Y-151750000D02*
X96600000Y-151750000D01*
X95400000Y-152650000D02*
X95400000Y-152400000D01*
X95400000Y-152400000D02*
X95250000Y-152550000D01*
X95150000Y-152150000D02*
X95150000Y-152850000D01*
X95500000Y-152500000D02*
X95850000Y-152500000D01*
X95150000Y-152500000D02*
X95500000Y-152150000D01*
X95500000Y-152150000D02*
X95500000Y-152850000D01*
X95500000Y-152850000D02*
X95150000Y-152500000D01*
X140549000Y-108850000D02*
X140199000Y-108500000D01*
X140549000Y-108150000D02*
X140549000Y-108850000D01*
X140199000Y-108500000D02*
X140549000Y-108150000D01*
X140549000Y-108500000D02*
X140899000Y-108500000D01*
X140199000Y-108150000D02*
X140199000Y-108850000D01*
X140449000Y-108400000D02*
X140299000Y-108550000D01*
X140449000Y-108650000D02*
X140449000Y-108400000D01*
X138949000Y-107750000D02*
X141649000Y-107750000D01*
X138949000Y-109250000D02*
X141649000Y-109250000D01*
X138949000Y-91750000D02*
X141649000Y-91750000D01*
X138949000Y-90250000D02*
X141649000Y-90250000D01*
X140449000Y-91150000D02*
X140449000Y-90900000D01*
X140449000Y-90900000D02*
X140299000Y-91050000D01*
X140199000Y-90650000D02*
X140199000Y-91350000D01*
X140549000Y-91000000D02*
X140899000Y-91000000D01*
X140199000Y-91000000D02*
X140549000Y-90650000D01*
X140549000Y-90650000D02*
X140549000Y-91350000D01*
X140549000Y-91350000D02*
X140199000Y-91000000D01*
X140549000Y-85350000D02*
X140199000Y-85000000D01*
X140549000Y-84650000D02*
X140549000Y-85350000D01*
X140199000Y-85000000D02*
X140549000Y-84650000D01*
X140549000Y-85000000D02*
X140899000Y-85000000D01*
X140199000Y-84650000D02*
X140199000Y-85350000D01*
X140449000Y-84900000D02*
X140299000Y-85050000D01*
X140449000Y-85150000D02*
X140449000Y-84900000D01*
X138949000Y-84250000D02*
X141649000Y-84250000D01*
X138949000Y-85750000D02*
X141649000Y-85750000D01*
X93949000Y-163750000D02*
X96649000Y-163750000D01*
X93949000Y-162250000D02*
X96649000Y-162250000D01*
X95449000Y-163150000D02*
X95449000Y-162900000D01*
X95449000Y-162900000D02*
X95299000Y-163050000D01*
X95199000Y-162650000D02*
X95199000Y-163350000D01*
X95549000Y-163000000D02*
X95899000Y-163000000D01*
X95199000Y-163000000D02*
X95549000Y-162650000D01*
X95549000Y-162650000D02*
X95549000Y-163350000D01*
X95549000Y-163350000D02*
X95199000Y-163000000D01*
X140549000Y-103350000D02*
X140199000Y-103000000D01*
X140549000Y-102650000D02*
X140549000Y-103350000D01*
X140199000Y-103000000D02*
X140549000Y-102650000D01*
X140549000Y-103000000D02*
X140899000Y-103000000D01*
X140199000Y-102650000D02*
X140199000Y-103350000D01*
X140449000Y-102900000D02*
X140299000Y-103050000D01*
X140449000Y-103150000D02*
X140449000Y-102900000D01*
X138949000Y-102250000D02*
X141649000Y-102250000D01*
X138949000Y-103750000D02*
X141649000Y-103750000D01*
X138949000Y-98250000D02*
X141649000Y-98250000D01*
X138949000Y-96750000D02*
X141649000Y-96750000D01*
X140449000Y-97650000D02*
X140449000Y-97400000D01*
X140449000Y-97400000D02*
X140299000Y-97550000D01*
X140199000Y-97150000D02*
X140199000Y-97850000D01*
X140549000Y-97500000D02*
X140899000Y-97500000D01*
X140199000Y-97500000D02*
X140549000Y-97150000D01*
X140549000Y-97150000D02*
X140549000Y-97850000D01*
X140549000Y-97850000D02*
X140199000Y-97500000D01*
X95451000Y-157850000D02*
X95101000Y-157500000D01*
X95451000Y-157150000D02*
X95451000Y-157850000D01*
X95101000Y-157500000D02*
X95451000Y-157150000D01*
X95451000Y-157500000D02*
X95801000Y-157500000D01*
X95101000Y-157150000D02*
X95101000Y-157850000D01*
X95351000Y-157400000D02*
X95201000Y-157550000D01*
X95351000Y-157650000D02*
X95351000Y-157400000D01*
X93851000Y-156750000D02*
X96551000Y-156750000D01*
X93851000Y-158250000D02*
X96551000Y-158250000D01*
X87650000Y-51430000D02*
X87650000Y-52730000D01*
X89000000Y-51430000D02*
X87650000Y-51430000D01*
X87650000Y-58080000D02*
X87650000Y-53530000D01*
X90600000Y-58080000D02*
X87650000Y-58080000D01*
X90600000Y-58080000D02*
X90600000Y-51430000D01*
X90600000Y-51430000D02*
X89800000Y-51430000D01*
X134900000Y-96625000D02*
X136100000Y-96625000D01*
X136100000Y-98375000D02*
X134900000Y-98375000D01*
X101000000Y-93000000D02*
X107000000Y-93000000D01*
X101000000Y-99000000D02*
X101000000Y-93000000D01*
X107000000Y-99000000D02*
X101000000Y-99000000D01*
X107000000Y-93000000D02*
X107000000Y-99000000D01*
X129325000Y-155480000D02*
X129325000Y-156480000D01*
X131025000Y-156480000D02*
X131025000Y-155480000D01*
X89350000Y-172000000D02*
X89350000Y-171000000D01*
X87650000Y-171000000D02*
X87650000Y-172000000D01*
X54395000Y-151035000D02*
X54395000Y-152035000D01*
X56095000Y-152035000D02*
X56095000Y-151035000D01*
X42125000Y-131080000D02*
X42125000Y-130080000D01*
X40425000Y-130080000D02*
X40425000Y-131080000D01*
X31150000Y-100750000D02*
X31150000Y-101750000D01*
X32850000Y-101750000D02*
X32850000Y-100750000D01*
X38950000Y-73525000D02*
X38950000Y-72525000D01*
X37250000Y-72525000D02*
X37250000Y-73525000D01*
X63920000Y-45220000D02*
X63920000Y-46220000D01*
X65620000Y-46220000D02*
X65620000Y-45220000D01*
X95000000Y-39400000D02*
X94000000Y-39400000D01*
X94000000Y-41100000D02*
X95000000Y-41100000D01*
X140250000Y-116850000D02*
X141250000Y-116850000D01*
X141250000Y-115150000D02*
X140250000Y-115150000D01*
X121750000Y-115400000D02*
X120750000Y-115400000D01*
X120750000Y-117100000D02*
X121750000Y-117100000D01*
X156630000Y-100870000D02*
X156630000Y-101870000D01*
X158330000Y-101870000D02*
X158330000Y-100870000D01*
X71250000Y-87150000D02*
X70250000Y-87150000D01*
X70250000Y-88850000D02*
X71250000Y-88850000D01*
X79000000Y-88850000D02*
X80000000Y-88850000D01*
X80000000Y-87150000D02*
X79000000Y-87150000D01*
X80250000Y-94150000D02*
X79250000Y-94150000D01*
X79250000Y-95850000D02*
X80250000Y-95850000D01*
X96650000Y-78750000D02*
X96650000Y-79750000D01*
X98350000Y-79750000D02*
X98350000Y-78750000D01*
X101250000Y-67150000D02*
X100250000Y-67150000D01*
X100250000Y-68850000D02*
X101250000Y-68850000D01*
X103750000Y-57350000D02*
X104750000Y-57350000D01*
X104750000Y-55650000D02*
X103750000Y-55650000D01*
X100600000Y-55750000D02*
X100600000Y-54750000D01*
X98900000Y-54750000D02*
X98900000Y-55750000D01*
X103750000Y-51850000D02*
X104750000Y-51850000D01*
X104750000Y-50150000D02*
X103750000Y-50150000D01*
X104750000Y-45150000D02*
X103750000Y-45150000D01*
X103750000Y-46850000D02*
X104750000Y-46850000D01*
X105000000Y-171850000D02*
X106000000Y-171850000D01*
X106000000Y-170150000D02*
X105000000Y-170150000D01*
X116400000Y-160300000D02*
X117400000Y-160300000D01*
X117400000Y-158600000D02*
X116400000Y-158600000D01*
X127650000Y-93250000D02*
X127650000Y-94250000D01*
X129350000Y-94250000D02*
X129350000Y-93250000D01*
X146800000Y-130450000D02*
X146800000Y-131450000D01*
X148500000Y-131450000D02*
X148500000Y-130450000D01*
X129850000Y-46250000D02*
X129850000Y-45250000D01*
X128150000Y-45250000D02*
X128150000Y-46250000D01*
X149650000Y-72750000D02*
X149650000Y-73750000D01*
X151350000Y-73750000D02*
X151350000Y-72750000D01*
X86400000Y-156625000D02*
X87600000Y-156625000D01*
X87600000Y-158375000D02*
X86400000Y-158375000D01*
X83150000Y-158425000D02*
X81950000Y-158425000D01*
X81950000Y-156675000D02*
X83150000Y-156675000D01*
X136150000Y-85775000D02*
X134950000Y-85775000D01*
X134950000Y-84025000D02*
X136150000Y-84025000D01*
X136150000Y-91875000D02*
X134950000Y-91875000D01*
X134950000Y-90125000D02*
X136150000Y-90125000D01*
X86400000Y-151625000D02*
X87600000Y-151625000D01*
X87600000Y-153375000D02*
X86400000Y-153375000D01*
X78875000Y-161800000D02*
X78875000Y-163000000D01*
X77125000Y-163000000D02*
X77125000Y-161800000D01*
X135000000Y-101925000D02*
X136200000Y-101925000D01*
X136200000Y-103675000D02*
X135000000Y-103675000D01*
X82600000Y-124875000D02*
X81400000Y-124875000D01*
X81400000Y-123125000D02*
X82600000Y-123125000D01*
X126850000Y-84125000D02*
X128050000Y-84125000D01*
X128050000Y-85875000D02*
X126850000Y-85875000D01*
X86400000Y-162125000D02*
X87600000Y-162125000D01*
X87600000Y-163875000D02*
X86400000Y-163875000D01*
X150935000Y-124780000D02*
X150935000Y-123580000D01*
X152685000Y-123580000D02*
X152685000Y-124780000D01*
X78850000Y-99625000D02*
X80050000Y-99625000D01*
X80050000Y-101375000D02*
X78850000Y-101375000D01*
X155600000Y-118625000D02*
X156800000Y-118625000D01*
X156800000Y-120375000D02*
X155600000Y-120375000D01*
X134950000Y-107625000D02*
X136150000Y-107625000D01*
X136150000Y-109375000D02*
X134950000Y-109375000D01*
X78770000Y-54190000D02*
X78770000Y-66890000D01*
X78770000Y-66890000D02*
X76230000Y-66890000D01*
X76230000Y-66890000D02*
X76230000Y-54190000D01*
X79050000Y-51370000D02*
X79050000Y-52920000D01*
X78770000Y-54190000D02*
X76230000Y-54190000D01*
X75950000Y-52920000D02*
X75950000Y-51370000D01*
X75950000Y-51370000D02*
X79050000Y-51370000D01*
X120100000Y-41000000D02*
X109100000Y-41000000D01*
X108600000Y-40600000D02*
X108600000Y-35500000D01*
X109100000Y-35000000D02*
X120100000Y-35000000D01*
X120600000Y-35500000D02*
X120600000Y-40600000D01*
X112600000Y-38500000D02*
X111100000Y-38500000D01*
X111100000Y-38500000D02*
X111100000Y-37500000D01*
X111100000Y-37500000D02*
X113600000Y-37500000D01*
X113600000Y-37500000D02*
X113600000Y-38500000D01*
X113600000Y-38500000D02*
X112600000Y-38500000D01*
X109100000Y-41000000D02*
X108600000Y-41000000D01*
X108600000Y-41000000D02*
X108600000Y-40500000D01*
X108600000Y-40500000D02*
X108600000Y-35000000D01*
X108600000Y-35000000D02*
X109100000Y-35000000D01*
X119600000Y-35000000D02*
X120600000Y-35000000D01*
X120600000Y-35000000D02*
X120600000Y-35500000D01*
X120600000Y-35500000D02*
X120600000Y-41000000D01*
X120600000Y-41000000D02*
X120100000Y-41000000D01*
X74460000Y-158750000D02*
G75*
G03X74460000Y-158750000I-8500000J0D01*
G01*
X118925000Y-98150000D02*
X118925000Y-98800000D01*
X124675000Y-98150000D02*
X124675000Y-98800000D01*
X124675000Y-108800000D02*
X124675000Y-108150000D01*
X118925000Y-108800000D02*
X118925000Y-108150000D01*
X118925000Y-98150000D02*
X124675000Y-98150000D01*
X118925000Y-108800000D02*
X124675000Y-108800000D01*
X118925000Y-98800000D02*
X117325000Y-98800000D01*
D16*
X88491754Y-98750070D02*
G75*
G02X88491754Y-98750070I76200J0D01*
G01*
X88999500Y-105426460D02*
X88999500Y-106000500D01*
X88999500Y-106000500D02*
X89573540Y-106000500D01*
X97000500Y-106000500D02*
X97000500Y-105426460D01*
X97000500Y-97999500D02*
X96426460Y-97999500D01*
X88999500Y-97999500D02*
X88999500Y-98522740D01*
X89554490Y-98714764D02*
X89714764Y-98554490D01*
X96426460Y-106000500D02*
X97000500Y-106000500D01*
X97000500Y-98573540D02*
X97000500Y-97999500D01*
X89573540Y-97999500D02*
X88999500Y-97999500D01*
D10*
X104738095Y-132452380D02*
X105309523Y-132452380D01*
X105023809Y-133452380D02*
X105023809Y-132452380D01*
X105642857Y-133452380D02*
X105642857Y-132452380D01*
X106023809Y-132452380D01*
X106119047Y-132500000D01*
X106166666Y-132547619D01*
X106214285Y-132642857D01*
X106214285Y-132785714D01*
X106166666Y-132880952D01*
X106119047Y-132928571D01*
X106023809Y-132976190D01*
X105642857Y-132976190D01*
X107166666Y-133452380D02*
X106595238Y-133452380D01*
X106880952Y-133452380D02*
X106880952Y-132452380D01*
X106785714Y-132595238D01*
X106690476Y-132690476D01*
X106595238Y-132738095D01*
X115407142Y-150057142D02*
X115359523Y-150104761D01*
X115216666Y-150152380D01*
X115121428Y-150152380D01*
X114978571Y-150104761D01*
X114883333Y-150009523D01*
X114835714Y-149914285D01*
X114788095Y-149723809D01*
X114788095Y-149580952D01*
X114835714Y-149390476D01*
X114883333Y-149295238D01*
X114978571Y-149200000D01*
X115121428Y-149152380D01*
X115216666Y-149152380D01*
X115359523Y-149200000D01*
X115407142Y-149247619D01*
X115788095Y-149247619D02*
X115835714Y-149200000D01*
X115930952Y-149152380D01*
X116169047Y-149152380D01*
X116264285Y-149200000D01*
X116311904Y-149247619D01*
X116359523Y-149342857D01*
X116359523Y-149438095D01*
X116311904Y-149580952D01*
X115740476Y-150152380D01*
X116359523Y-150152380D01*
X116835714Y-150152380D02*
X117026190Y-150152380D01*
X117121428Y-150104761D01*
X117169047Y-150057142D01*
X117264285Y-149914285D01*
X117311904Y-149723809D01*
X117311904Y-149342857D01*
X117264285Y-149247619D01*
X117216666Y-149200000D01*
X117121428Y-149152380D01*
X116930952Y-149152380D01*
X116835714Y-149200000D01*
X116788095Y-149247619D01*
X116740476Y-149342857D01*
X116740476Y-149580952D01*
X116788095Y-149676190D01*
X116835714Y-149723809D01*
X116930952Y-149771428D01*
X117121428Y-149771428D01*
X117216666Y-149723809D01*
X117264285Y-149676190D01*
X117311904Y-149580952D01*
X140327142Y-119977142D02*
X140279523Y-120024761D01*
X140136666Y-120072380D01*
X140041428Y-120072380D01*
X139898571Y-120024761D01*
X139803333Y-119929523D01*
X139755714Y-119834285D01*
X139708095Y-119643809D01*
X139708095Y-119500952D01*
X139755714Y-119310476D01*
X139803333Y-119215238D01*
X139898571Y-119120000D01*
X140041428Y-119072380D01*
X140136666Y-119072380D01*
X140279523Y-119120000D01*
X140327142Y-119167619D01*
X141279523Y-120072380D02*
X140708095Y-120072380D01*
X140993809Y-120072380D02*
X140993809Y-119072380D01*
X140898571Y-119215238D01*
X140803333Y-119310476D01*
X140708095Y-119358095D01*
X142184285Y-119072380D02*
X141708095Y-119072380D01*
X141660476Y-119548571D01*
X141708095Y-119500952D01*
X141803333Y-119453333D01*
X142041428Y-119453333D01*
X142136666Y-119500952D01*
X142184285Y-119548571D01*
X142231904Y-119643809D01*
X142231904Y-119881904D01*
X142184285Y-119977142D01*
X142136666Y-120024761D01*
X142041428Y-120072380D01*
X141803333Y-120072380D01*
X141708095Y-120024761D01*
X141660476Y-119977142D01*
X153257142Y-134657142D02*
X153209523Y-134704761D01*
X153066666Y-134752380D01*
X152971428Y-134752380D01*
X152828571Y-134704761D01*
X152733333Y-134609523D01*
X152685714Y-134514285D01*
X152638095Y-134323809D01*
X152638095Y-134180952D01*
X152685714Y-133990476D01*
X152733333Y-133895238D01*
X152828571Y-133800000D01*
X152971428Y-133752380D01*
X153066666Y-133752380D01*
X153209523Y-133800000D01*
X153257142Y-133847619D01*
X154209523Y-134752380D02*
X153638095Y-134752380D01*
X153923809Y-134752380D02*
X153923809Y-133752380D01*
X153828571Y-133895238D01*
X153733333Y-133990476D01*
X153638095Y-134038095D01*
X155066666Y-134085714D02*
X155066666Y-134752380D01*
X154828571Y-133704761D02*
X154590476Y-134419047D01*
X155209523Y-134419047D01*
X94651140Y-92442006D02*
X94651140Y-92918197D01*
X93651140Y-92918197D01*
X94651140Y-91584863D02*
X94651140Y-92156292D01*
X94651140Y-91870578D02*
X93651140Y-91870578D01*
X93793998Y-91965816D01*
X93889236Y-92061054D01*
X93936855Y-92156292D01*
X95901140Y-88366606D02*
X95901140Y-88842797D01*
X94901140Y-88842797D01*
X94996379Y-88080892D02*
X94948760Y-88033273D01*
X94901140Y-87938035D01*
X94901140Y-87699940D01*
X94948760Y-87604701D01*
X94996379Y-87557082D01*
X95091617Y-87509463D01*
X95186855Y-87509463D01*
X95329712Y-87557082D01*
X95901140Y-88128511D01*
X95901140Y-87509463D01*
X97651140Y-73768606D02*
X97651140Y-74244797D01*
X96651140Y-74244797D01*
X96651140Y-73530511D02*
X96651140Y-72911463D01*
X97032093Y-73244797D01*
X97032093Y-73101940D01*
X97079712Y-73006701D01*
X97127331Y-72959082D01*
X97222569Y-72911463D01*
X97460664Y-72911463D01*
X97555902Y-72959082D01*
X97603521Y-73006701D01*
X97651140Y-73101940D01*
X97651140Y-73387654D01*
X97603521Y-73482892D01*
X97555902Y-73530511D01*
X98151140Y-47866606D02*
X98151140Y-48342797D01*
X97151140Y-48342797D01*
X97151140Y-47057082D02*
X97151140Y-47533273D01*
X97627331Y-47580892D01*
X97579712Y-47533273D01*
X97532093Y-47438035D01*
X97532093Y-47199940D01*
X97579712Y-47104701D01*
X97627331Y-47057082D01*
X97722569Y-47009463D01*
X97960664Y-47009463D01*
X98055902Y-47057082D01*
X98103521Y-47104701D01*
X98151140Y-47199940D01*
X98151140Y-47438035D01*
X98103521Y-47533273D01*
X98055902Y-47580892D01*
X97651140Y-61866606D02*
X97651140Y-62342797D01*
X96651140Y-62342797D01*
X96984474Y-61104701D02*
X97651140Y-61104701D01*
X96603521Y-61342797D02*
X97317807Y-61580892D01*
X97317807Y-60961844D01*
X71595238Y-138452380D02*
X71833333Y-139452380D01*
X72023809Y-138738095D01*
X72214285Y-139452380D01*
X72452380Y-138452380D01*
X72785714Y-138547619D02*
X72833333Y-138500000D01*
X72928571Y-138452380D01*
X73166666Y-138452380D01*
X73261904Y-138500000D01*
X73309523Y-138547619D01*
X73357142Y-138642857D01*
X73357142Y-138738095D01*
X73309523Y-138880952D01*
X72738095Y-139452380D01*
X73357142Y-139452380D01*
X71595238Y-144452380D02*
X71833333Y-145452380D01*
X72023809Y-144738095D01*
X72214285Y-145452380D01*
X72452380Y-144452380D01*
X72738095Y-144452380D02*
X73357142Y-144452380D01*
X73023809Y-144833333D01*
X73166666Y-144833333D01*
X73261904Y-144880952D01*
X73309523Y-144928571D01*
X73357142Y-145023809D01*
X73357142Y-145261904D01*
X73309523Y-145357142D01*
X73261904Y-145404761D01*
X73166666Y-145452380D01*
X72880952Y-145452380D01*
X72785714Y-145404761D01*
X72738095Y-145357142D01*
X93595238Y-132452380D02*
X93833333Y-133452380D01*
X94023809Y-132738095D01*
X94214285Y-133452380D01*
X94452380Y-132452380D01*
X94976190Y-132880952D02*
X94880952Y-132833333D01*
X94833333Y-132785714D01*
X94785714Y-132690476D01*
X94785714Y-132642857D01*
X94833333Y-132547619D01*
X94880952Y-132500000D01*
X94976190Y-132452380D01*
X95166666Y-132452380D01*
X95261904Y-132500000D01*
X95309523Y-132547619D01*
X95357142Y-132642857D01*
X95357142Y-132690476D01*
X95309523Y-132785714D01*
X95261904Y-132833333D01*
X95166666Y-132880952D01*
X94976190Y-132880952D01*
X94880952Y-132928571D01*
X94833333Y-132976190D01*
X94785714Y-133071428D01*
X94785714Y-133261904D01*
X94833333Y-133357142D01*
X94880952Y-133404761D01*
X94976190Y-133452380D01*
X95166666Y-133452380D01*
X95261904Y-133404761D01*
X95309523Y-133357142D01*
X95357142Y-133261904D01*
X95357142Y-133071428D01*
X95309523Y-132976190D01*
X95261904Y-132928571D01*
X95166666Y-132880952D01*
X82119047Y-132452380D02*
X82357142Y-133452380D01*
X82547619Y-132738095D01*
X82738095Y-133452380D01*
X82976190Y-132452380D01*
X83880952Y-133452380D02*
X83309523Y-133452380D01*
X83595238Y-133452380D02*
X83595238Y-132452380D01*
X83500000Y-132595238D01*
X83404761Y-132690476D01*
X83309523Y-132738095D01*
X84833333Y-133452380D02*
X84261904Y-133452380D01*
X84547619Y-133452380D02*
X84547619Y-132452380D01*
X84452380Y-132595238D01*
X84357142Y-132690476D01*
X84261904Y-132738095D01*
X82119047Y-138452380D02*
X82357142Y-139452380D01*
X82547619Y-138738095D01*
X82738095Y-139452380D01*
X82976190Y-138452380D01*
X83880952Y-139452380D02*
X83309523Y-139452380D01*
X83595238Y-139452380D02*
X83595238Y-138452380D01*
X83500000Y-138595238D01*
X83404761Y-138690476D01*
X83309523Y-138738095D01*
X84261904Y-138547619D02*
X84309523Y-138500000D01*
X84404761Y-138452380D01*
X84642857Y-138452380D01*
X84738095Y-138500000D01*
X84785714Y-138547619D01*
X84833333Y-138642857D01*
X84833333Y-138738095D01*
X84785714Y-138880952D01*
X84214285Y-139452380D01*
X84833333Y-139452380D01*
X82119047Y-144452380D02*
X82357142Y-145452380D01*
X82547619Y-144738095D01*
X82738095Y-145452380D01*
X82976190Y-144452380D01*
X83880952Y-145452380D02*
X83309523Y-145452380D01*
X83595238Y-145452380D02*
X83595238Y-144452380D01*
X83500000Y-144595238D01*
X83404761Y-144690476D01*
X83309523Y-144738095D01*
X84214285Y-144452380D02*
X84833333Y-144452380D01*
X84500000Y-144833333D01*
X84642857Y-144833333D01*
X84738095Y-144880952D01*
X84785714Y-144928571D01*
X84833333Y-145023809D01*
X84833333Y-145261904D01*
X84785714Y-145357142D01*
X84738095Y-145404761D01*
X84642857Y-145452380D01*
X84357142Y-145452380D01*
X84261904Y-145404761D01*
X84214285Y-145357142D01*
X93119047Y-138452380D02*
X93357142Y-139452380D01*
X93547619Y-138738095D01*
X93738095Y-139452380D01*
X93976190Y-138452380D01*
X94880952Y-139452380D02*
X94309523Y-139452380D01*
X94595238Y-139452380D02*
X94595238Y-138452380D01*
X94500000Y-138595238D01*
X94404761Y-138690476D01*
X94309523Y-138738095D01*
X95738095Y-138785714D02*
X95738095Y-139452380D01*
X95500000Y-138404761D02*
X95261904Y-139119047D01*
X95880952Y-139119047D01*
X71595238Y-132452380D02*
X71833333Y-133452380D01*
X72023809Y-132738095D01*
X72214285Y-133452380D01*
X72452380Y-132452380D01*
X73357142Y-133452380D02*
X72785714Y-133452380D01*
X73071428Y-133452380D02*
X73071428Y-132452380D01*
X72976190Y-132595238D01*
X72880952Y-132690476D01*
X72785714Y-132738095D01*
X144666666Y-146904761D02*
X144809523Y-146952380D01*
X145047619Y-146952380D01*
X145142857Y-146904761D01*
X145190476Y-146857142D01*
X145238095Y-146761904D01*
X145238095Y-146666666D01*
X145190476Y-146571428D01*
X145142857Y-146523809D01*
X145047619Y-146476190D01*
X144857142Y-146428571D01*
X144761904Y-146380952D01*
X144714285Y-146333333D01*
X144666666Y-146238095D01*
X144666666Y-146142857D01*
X144714285Y-146047619D01*
X144761904Y-146000000D01*
X144857142Y-145952380D01*
X145095238Y-145952380D01*
X145238095Y-146000000D01*
X145571428Y-145952380D02*
X145809523Y-146952380D01*
X146000000Y-146238095D01*
X146190476Y-146952380D01*
X146428571Y-145952380D01*
X146761904Y-146047619D02*
X146809523Y-146000000D01*
X146904761Y-145952380D01*
X147142857Y-145952380D01*
X147238095Y-146000000D01*
X147285714Y-146047619D01*
X147333333Y-146142857D01*
X147333333Y-146238095D01*
X147285714Y-146380952D01*
X146714285Y-146952380D01*
X147333333Y-146952380D01*
X101607142Y-82257142D02*
X101559523Y-82304761D01*
X101416666Y-82352380D01*
X101321428Y-82352380D01*
X101178571Y-82304761D01*
X101083333Y-82209523D01*
X101035714Y-82114285D01*
X100988095Y-81923809D01*
X100988095Y-81780952D01*
X101035714Y-81590476D01*
X101083333Y-81495238D01*
X101178571Y-81400000D01*
X101321428Y-81352380D01*
X101416666Y-81352380D01*
X101559523Y-81400000D01*
X101607142Y-81447619D01*
X102559523Y-82352380D02*
X101988095Y-82352380D01*
X102273809Y-82352380D02*
X102273809Y-81352380D01*
X102178571Y-81495238D01*
X102083333Y-81590476D01*
X101988095Y-81638095D01*
X103035714Y-82352380D02*
X103226190Y-82352380D01*
X103321428Y-82304761D01*
X103369047Y-82257142D01*
X103464285Y-82114285D01*
X103511904Y-81923809D01*
X103511904Y-81542857D01*
X103464285Y-81447619D01*
X103416666Y-81400000D01*
X103321428Y-81352380D01*
X103130952Y-81352380D01*
X103035714Y-81400000D01*
X102988095Y-81447619D01*
X102940476Y-81542857D01*
X102940476Y-81780952D01*
X102988095Y-81876190D01*
X103035714Y-81923809D01*
X103130952Y-81971428D01*
X103321428Y-81971428D01*
X103416666Y-81923809D01*
X103464285Y-81876190D01*
X103511904Y-81780952D01*
X87057142Y-79657142D02*
X87009523Y-79704761D01*
X86866666Y-79752380D01*
X86771428Y-79752380D01*
X86628571Y-79704761D01*
X86533333Y-79609523D01*
X86485714Y-79514285D01*
X86438095Y-79323809D01*
X86438095Y-79180952D01*
X86485714Y-78990476D01*
X86533333Y-78895238D01*
X86628571Y-78800000D01*
X86771428Y-78752380D01*
X86866666Y-78752380D01*
X87009523Y-78800000D01*
X87057142Y-78847619D01*
X88009523Y-79752380D02*
X87438095Y-79752380D01*
X87723809Y-79752380D02*
X87723809Y-78752380D01*
X87628571Y-78895238D01*
X87533333Y-78990476D01*
X87438095Y-79038095D01*
X88580952Y-79180952D02*
X88485714Y-79133333D01*
X88438095Y-79085714D01*
X88390476Y-78990476D01*
X88390476Y-78942857D01*
X88438095Y-78847619D01*
X88485714Y-78800000D01*
X88580952Y-78752380D01*
X88771428Y-78752380D01*
X88866666Y-78800000D01*
X88914285Y-78847619D01*
X88961904Y-78942857D01*
X88961904Y-78990476D01*
X88914285Y-79085714D01*
X88866666Y-79133333D01*
X88771428Y-79180952D01*
X88580952Y-79180952D01*
X88485714Y-79228571D01*
X88438095Y-79276190D01*
X88390476Y-79371428D01*
X88390476Y-79561904D01*
X88438095Y-79657142D01*
X88485714Y-79704761D01*
X88580952Y-79752380D01*
X88771428Y-79752380D01*
X88866666Y-79704761D01*
X88914285Y-79657142D01*
X88961904Y-79561904D01*
X88961904Y-79371428D01*
X88914285Y-79276190D01*
X88866666Y-79228571D01*
X88771428Y-79180952D01*
X87157142Y-86257142D02*
X87109523Y-86304761D01*
X86966666Y-86352380D01*
X86871428Y-86352380D01*
X86728571Y-86304761D01*
X86633333Y-86209523D01*
X86585714Y-86114285D01*
X86538095Y-85923809D01*
X86538095Y-85780952D01*
X86585714Y-85590476D01*
X86633333Y-85495238D01*
X86728571Y-85400000D01*
X86871428Y-85352380D01*
X86966666Y-85352380D01*
X87109523Y-85400000D01*
X87157142Y-85447619D01*
X88109523Y-86352380D02*
X87538095Y-86352380D01*
X87823809Y-86352380D02*
X87823809Y-85352380D01*
X87728571Y-85495238D01*
X87633333Y-85590476D01*
X87538095Y-85638095D01*
X88966666Y-85352380D02*
X88776190Y-85352380D01*
X88680952Y-85400000D01*
X88633333Y-85447619D01*
X88538095Y-85590476D01*
X88490476Y-85780952D01*
X88490476Y-86161904D01*
X88538095Y-86257142D01*
X88585714Y-86304761D01*
X88680952Y-86352380D01*
X88871428Y-86352380D01*
X88966666Y-86304761D01*
X89014285Y-86257142D01*
X89061904Y-86161904D01*
X89061904Y-85923809D01*
X89014285Y-85828571D01*
X88966666Y-85780952D01*
X88871428Y-85733333D01*
X88680952Y-85733333D01*
X88585714Y-85780952D01*
X88538095Y-85828571D01*
X88490476Y-85923809D01*
D16*
X47165898Y-137736560D02*
X47069136Y-137688180D01*
X46972374Y-137591418D01*
X46827231Y-137446275D01*
X46730469Y-137397894D01*
X46633707Y-137397894D01*
X46682088Y-137639799D02*
X46585326Y-137591418D01*
X46488564Y-137494656D01*
X46440183Y-137301132D01*
X46440183Y-136962465D01*
X46488564Y-136768941D01*
X46585326Y-136672180D01*
X46682088Y-136623799D01*
X46875612Y-136623799D01*
X46972374Y-136672180D01*
X47069136Y-136768941D01*
X47117517Y-136962465D01*
X47117517Y-137301132D01*
X47069136Y-137494656D01*
X46972374Y-137591418D01*
X46875612Y-137639799D01*
X46682088Y-137639799D01*
X48085136Y-137639799D02*
X47504564Y-137639799D01*
X47794850Y-137639799D02*
X47794850Y-136623799D01*
X47698088Y-136768941D01*
X47601326Y-136865703D01*
X47504564Y-136914084D01*
X134213004Y-41480619D02*
X134213004Y-42303095D01*
X134261385Y-42399857D01*
X134309766Y-42448238D01*
X134406528Y-42496619D01*
X134600052Y-42496619D01*
X134696814Y-42448238D01*
X134745195Y-42399857D01*
X134793576Y-42303095D01*
X134793576Y-41480619D01*
X135809576Y-42496619D02*
X135229004Y-42496619D01*
X135519290Y-42496619D02*
X135519290Y-41480619D01*
X135422528Y-41625761D01*
X135325766Y-41722523D01*
X135229004Y-41770904D01*
X131624623Y-39956619D02*
X131866528Y-40972619D01*
X132060052Y-40246904D01*
X132253576Y-40972619D01*
X132495480Y-39956619D01*
X132834147Y-40924238D02*
X132979290Y-40972619D01*
X133221195Y-40972619D01*
X133317957Y-40924238D01*
X133366338Y-40875857D01*
X133414719Y-40779095D01*
X133414719Y-40682333D01*
X133366338Y-40585571D01*
X133317957Y-40537190D01*
X133221195Y-40488809D01*
X133027671Y-40440428D01*
X132930909Y-40392047D01*
X132882528Y-40343666D01*
X132834147Y-40246904D01*
X132834147Y-40150142D01*
X132882528Y-40053380D01*
X132930909Y-40005000D01*
X133027671Y-39956619D01*
X133269576Y-39956619D01*
X133414719Y-40005000D01*
X133801766Y-40053380D02*
X133850147Y-40005000D01*
X133946909Y-39956619D01*
X134188814Y-39956619D01*
X134285576Y-40005000D01*
X134333957Y-40053380D01*
X134382338Y-40150142D01*
X134382338Y-40246904D01*
X134333957Y-40392047D01*
X133753385Y-40972619D01*
X134382338Y-40972619D01*
X134962909Y-40392047D02*
X134866147Y-40343666D01*
X134817766Y-40295285D01*
X134769385Y-40198523D01*
X134769385Y-40150142D01*
X134817766Y-40053380D01*
X134866147Y-40005000D01*
X134962909Y-39956619D01*
X135156433Y-39956619D01*
X135253195Y-40005000D01*
X135301576Y-40053380D01*
X135349957Y-40150142D01*
X135349957Y-40198523D01*
X135301576Y-40295285D01*
X135253195Y-40343666D01*
X135156433Y-40392047D01*
X134962909Y-40392047D01*
X134866147Y-40440428D01*
X134817766Y-40488809D01*
X134769385Y-40585571D01*
X134769385Y-40779095D01*
X134817766Y-40875857D01*
X134866147Y-40924238D01*
X134962909Y-40972619D01*
X135156433Y-40972619D01*
X135253195Y-40924238D01*
X135301576Y-40875857D01*
X135349957Y-40779095D01*
X135349957Y-40585571D01*
X135301576Y-40488809D01*
X135253195Y-40440428D01*
X135156433Y-40392047D01*
X136317576Y-40972619D02*
X135737004Y-40972619D01*
X136027290Y-40972619D02*
X136027290Y-39956619D01*
X135930528Y-40101761D01*
X135833766Y-40198523D01*
X135737004Y-40246904D01*
X136704623Y-40053380D02*
X136753004Y-40005000D01*
X136849766Y-39956619D01*
X137091671Y-39956619D01*
X137188433Y-40005000D01*
X137236814Y-40053380D01*
X137285195Y-40150142D01*
X137285195Y-40246904D01*
X137236814Y-40392047D01*
X136656242Y-40972619D01*
X137285195Y-40972619D01*
X138059290Y-40440428D02*
X138204433Y-40488809D01*
X138252814Y-40537190D01*
X138301195Y-40633952D01*
X138301195Y-40779095D01*
X138252814Y-40875857D01*
X138204433Y-40924238D01*
X138107671Y-40972619D01*
X137720623Y-40972619D01*
X137720623Y-39956619D01*
X138059290Y-39956619D01*
X138156052Y-40005000D01*
X138204433Y-40053380D01*
X138252814Y-40150142D01*
X138252814Y-40246904D01*
X138204433Y-40343666D01*
X138156052Y-40392047D01*
X138059290Y-40440428D01*
X137720623Y-40440428D01*
X158014004Y-68785619D02*
X158014004Y-69608095D01*
X158062385Y-69704857D01*
X158110766Y-69753238D01*
X158207528Y-69801619D01*
X158401052Y-69801619D01*
X158497814Y-69753238D01*
X158546195Y-69704857D01*
X158594576Y-69608095D01*
X158594576Y-68785619D01*
X159030004Y-68882380D02*
X159078385Y-68834000D01*
X159175147Y-68785619D01*
X159417052Y-68785619D01*
X159513814Y-68834000D01*
X159562195Y-68882380D01*
X159610576Y-68979142D01*
X159610576Y-69075904D01*
X159562195Y-69221047D01*
X158981623Y-69801619D01*
X159610576Y-69801619D01*
X155425623Y-67261619D02*
X155667528Y-68277619D01*
X155861052Y-67551904D01*
X156054576Y-68277619D01*
X156296480Y-67261619D01*
X156635147Y-68229238D02*
X156780290Y-68277619D01*
X157022195Y-68277619D01*
X157118957Y-68229238D01*
X157167338Y-68180857D01*
X157215719Y-68084095D01*
X157215719Y-67987333D01*
X157167338Y-67890571D01*
X157118957Y-67842190D01*
X157022195Y-67793809D01*
X156828671Y-67745428D01*
X156731909Y-67697047D01*
X156683528Y-67648666D01*
X156635147Y-67551904D01*
X156635147Y-67455142D01*
X156683528Y-67358380D01*
X156731909Y-67310000D01*
X156828671Y-67261619D01*
X157070576Y-67261619D01*
X157215719Y-67310000D01*
X157602766Y-67358380D02*
X157651147Y-67310000D01*
X157747909Y-67261619D01*
X157989814Y-67261619D01*
X158086576Y-67310000D01*
X158134957Y-67358380D01*
X158183338Y-67455142D01*
X158183338Y-67551904D01*
X158134957Y-67697047D01*
X157554385Y-68277619D01*
X158183338Y-68277619D01*
X158763909Y-67697047D02*
X158667147Y-67648666D01*
X158618766Y-67600285D01*
X158570385Y-67503523D01*
X158570385Y-67455142D01*
X158618766Y-67358380D01*
X158667147Y-67310000D01*
X158763909Y-67261619D01*
X158957433Y-67261619D01*
X159054195Y-67310000D01*
X159102576Y-67358380D01*
X159150957Y-67455142D01*
X159150957Y-67503523D01*
X159102576Y-67600285D01*
X159054195Y-67648666D01*
X158957433Y-67697047D01*
X158763909Y-67697047D01*
X158667147Y-67745428D01*
X158618766Y-67793809D01*
X158570385Y-67890571D01*
X158570385Y-68084095D01*
X158618766Y-68180857D01*
X158667147Y-68229238D01*
X158763909Y-68277619D01*
X158957433Y-68277619D01*
X159054195Y-68229238D01*
X159102576Y-68180857D01*
X159150957Y-68084095D01*
X159150957Y-67890571D01*
X159102576Y-67793809D01*
X159054195Y-67745428D01*
X158957433Y-67697047D01*
X160118576Y-68277619D02*
X159538004Y-68277619D01*
X159828290Y-68277619D02*
X159828290Y-67261619D01*
X159731528Y-67406761D01*
X159634766Y-67503523D01*
X159538004Y-67551904D01*
X160505623Y-67358380D02*
X160554004Y-67310000D01*
X160650766Y-67261619D01*
X160892671Y-67261619D01*
X160989433Y-67310000D01*
X161037814Y-67358380D01*
X161086195Y-67455142D01*
X161086195Y-67551904D01*
X161037814Y-67697047D01*
X160457242Y-68277619D01*
X161086195Y-68277619D01*
X161860290Y-67745428D02*
X162005433Y-67793809D01*
X162053814Y-67842190D01*
X162102195Y-67938952D01*
X162102195Y-68084095D01*
X162053814Y-68180857D01*
X162005433Y-68229238D01*
X161908671Y-68277619D01*
X161521623Y-68277619D01*
X161521623Y-67261619D01*
X161860290Y-67261619D01*
X161957052Y-67310000D01*
X162005433Y-67358380D01*
X162053814Y-67455142D01*
X162053814Y-67551904D01*
X162005433Y-67648666D01*
X161957052Y-67697047D01*
X161860290Y-67745428D01*
X161521623Y-67745428D01*
X163054004Y-97030619D02*
X163054004Y-97853095D01*
X163102385Y-97949857D01*
X163150766Y-97998238D01*
X163247528Y-98046619D01*
X163441052Y-98046619D01*
X163537814Y-97998238D01*
X163586195Y-97949857D01*
X163634576Y-97853095D01*
X163634576Y-97030619D01*
X164021623Y-97030619D02*
X164650576Y-97030619D01*
X164311909Y-97417666D01*
X164457052Y-97417666D01*
X164553814Y-97466047D01*
X164602195Y-97514428D01*
X164650576Y-97611190D01*
X164650576Y-97853095D01*
X164602195Y-97949857D01*
X164553814Y-97998238D01*
X164457052Y-98046619D01*
X164166766Y-98046619D01*
X164070004Y-97998238D01*
X164021623Y-97949857D01*
X160465623Y-95506619D02*
X160707528Y-96522619D01*
X160901052Y-95796904D01*
X161094576Y-96522619D01*
X161336480Y-95506619D01*
X161675147Y-96474238D02*
X161820290Y-96522619D01*
X162062195Y-96522619D01*
X162158957Y-96474238D01*
X162207338Y-96425857D01*
X162255719Y-96329095D01*
X162255719Y-96232333D01*
X162207338Y-96135571D01*
X162158957Y-96087190D01*
X162062195Y-96038809D01*
X161868671Y-95990428D01*
X161771909Y-95942047D01*
X161723528Y-95893666D01*
X161675147Y-95796904D01*
X161675147Y-95700142D01*
X161723528Y-95603380D01*
X161771909Y-95555000D01*
X161868671Y-95506619D01*
X162110576Y-95506619D01*
X162255719Y-95555000D01*
X162642766Y-95603380D02*
X162691147Y-95555000D01*
X162787909Y-95506619D01*
X163029814Y-95506619D01*
X163126576Y-95555000D01*
X163174957Y-95603380D01*
X163223338Y-95700142D01*
X163223338Y-95796904D01*
X163174957Y-95942047D01*
X162594385Y-96522619D01*
X163223338Y-96522619D01*
X163803909Y-95942047D02*
X163707147Y-95893666D01*
X163658766Y-95845285D01*
X163610385Y-95748523D01*
X163610385Y-95700142D01*
X163658766Y-95603380D01*
X163707147Y-95555000D01*
X163803909Y-95506619D01*
X163997433Y-95506619D01*
X164094195Y-95555000D01*
X164142576Y-95603380D01*
X164190957Y-95700142D01*
X164190957Y-95748523D01*
X164142576Y-95845285D01*
X164094195Y-95893666D01*
X163997433Y-95942047D01*
X163803909Y-95942047D01*
X163707147Y-95990428D01*
X163658766Y-96038809D01*
X163610385Y-96135571D01*
X163610385Y-96329095D01*
X163658766Y-96425857D01*
X163707147Y-96474238D01*
X163803909Y-96522619D01*
X163997433Y-96522619D01*
X164094195Y-96474238D01*
X164142576Y-96425857D01*
X164190957Y-96329095D01*
X164190957Y-96135571D01*
X164142576Y-96038809D01*
X164094195Y-95990428D01*
X163997433Y-95942047D01*
X165158576Y-96522619D02*
X164578004Y-96522619D01*
X164868290Y-96522619D02*
X164868290Y-95506619D01*
X164771528Y-95651761D01*
X164674766Y-95748523D01*
X164578004Y-95796904D01*
X165545623Y-95603380D02*
X165594004Y-95555000D01*
X165690766Y-95506619D01*
X165932671Y-95506619D01*
X166029433Y-95555000D01*
X166077814Y-95603380D01*
X166126195Y-95700142D01*
X166126195Y-95796904D01*
X166077814Y-95942047D01*
X165497242Y-96522619D01*
X166126195Y-96522619D01*
X166900290Y-95990428D02*
X167045433Y-96038809D01*
X167093814Y-96087190D01*
X167142195Y-96183952D01*
X167142195Y-96329095D01*
X167093814Y-96425857D01*
X167045433Y-96474238D01*
X166948671Y-96522619D01*
X166561623Y-96522619D01*
X166561623Y-95506619D01*
X166900290Y-95506619D01*
X166997052Y-95555000D01*
X167045433Y-95603380D01*
X167093814Y-95700142D01*
X167093814Y-95796904D01*
X167045433Y-95893666D01*
X166997052Y-95942047D01*
X166900290Y-95990428D01*
X166561623Y-95990428D01*
X157974004Y-126240619D02*
X157974004Y-127063095D01*
X158022385Y-127159857D01*
X158070766Y-127208238D01*
X158167528Y-127256619D01*
X158361052Y-127256619D01*
X158457814Y-127208238D01*
X158506195Y-127159857D01*
X158554576Y-127063095D01*
X158554576Y-126240619D01*
X159473814Y-126579285D02*
X159473814Y-127256619D01*
X159231909Y-126192238D02*
X158990004Y-126917952D01*
X159618957Y-126917952D01*
X155385623Y-124716619D02*
X155627528Y-125732619D01*
X155821052Y-125006904D01*
X156014576Y-125732619D01*
X156256480Y-124716619D01*
X156595147Y-125684238D02*
X156740290Y-125732619D01*
X156982195Y-125732619D01*
X157078957Y-125684238D01*
X157127338Y-125635857D01*
X157175719Y-125539095D01*
X157175719Y-125442333D01*
X157127338Y-125345571D01*
X157078957Y-125297190D01*
X156982195Y-125248809D01*
X156788671Y-125200428D01*
X156691909Y-125152047D01*
X156643528Y-125103666D01*
X156595147Y-125006904D01*
X156595147Y-124910142D01*
X156643528Y-124813380D01*
X156691909Y-124765000D01*
X156788671Y-124716619D01*
X157030576Y-124716619D01*
X157175719Y-124765000D01*
X157562766Y-124813380D02*
X157611147Y-124765000D01*
X157707909Y-124716619D01*
X157949814Y-124716619D01*
X158046576Y-124765000D01*
X158094957Y-124813380D01*
X158143338Y-124910142D01*
X158143338Y-125006904D01*
X158094957Y-125152047D01*
X157514385Y-125732619D01*
X158143338Y-125732619D01*
X158723909Y-125152047D02*
X158627147Y-125103666D01*
X158578766Y-125055285D01*
X158530385Y-124958523D01*
X158530385Y-124910142D01*
X158578766Y-124813380D01*
X158627147Y-124765000D01*
X158723909Y-124716619D01*
X158917433Y-124716619D01*
X159014195Y-124765000D01*
X159062576Y-124813380D01*
X159110957Y-124910142D01*
X159110957Y-124958523D01*
X159062576Y-125055285D01*
X159014195Y-125103666D01*
X158917433Y-125152047D01*
X158723909Y-125152047D01*
X158627147Y-125200428D01*
X158578766Y-125248809D01*
X158530385Y-125345571D01*
X158530385Y-125539095D01*
X158578766Y-125635857D01*
X158627147Y-125684238D01*
X158723909Y-125732619D01*
X158917433Y-125732619D01*
X159014195Y-125684238D01*
X159062576Y-125635857D01*
X159110957Y-125539095D01*
X159110957Y-125345571D01*
X159062576Y-125248809D01*
X159014195Y-125200428D01*
X158917433Y-125152047D01*
X160078576Y-125732619D02*
X159498004Y-125732619D01*
X159788290Y-125732619D02*
X159788290Y-124716619D01*
X159691528Y-124861761D01*
X159594766Y-124958523D01*
X159498004Y-125006904D01*
X160465623Y-124813380D02*
X160514004Y-124765000D01*
X160610766Y-124716619D01*
X160852671Y-124716619D01*
X160949433Y-124765000D01*
X160997814Y-124813380D01*
X161046195Y-124910142D01*
X161046195Y-125006904D01*
X160997814Y-125152047D01*
X160417242Y-125732619D01*
X161046195Y-125732619D01*
X161820290Y-125200428D02*
X161965433Y-125248809D01*
X162013814Y-125297190D01*
X162062195Y-125393952D01*
X162062195Y-125539095D01*
X162013814Y-125635857D01*
X161965433Y-125684238D01*
X161868671Y-125732619D01*
X161481623Y-125732619D01*
X161481623Y-124716619D01*
X161820290Y-124716619D01*
X161917052Y-124765000D01*
X161965433Y-124813380D01*
X162013814Y-124910142D01*
X162013814Y-125006904D01*
X161965433Y-125103666D01*
X161917052Y-125152047D01*
X161820290Y-125200428D01*
X161481623Y-125200428D01*
X136384004Y-151640619D02*
X136384004Y-152463095D01*
X136432385Y-152559857D01*
X136480766Y-152608238D01*
X136577528Y-152656619D01*
X136771052Y-152656619D01*
X136867814Y-152608238D01*
X136916195Y-152559857D01*
X136964576Y-152463095D01*
X136964576Y-151640619D01*
X137932195Y-151640619D02*
X137448385Y-151640619D01*
X137400004Y-152124428D01*
X137448385Y-152076047D01*
X137545147Y-152027666D01*
X137787052Y-152027666D01*
X137883814Y-152076047D01*
X137932195Y-152124428D01*
X137980576Y-152221190D01*
X137980576Y-152463095D01*
X137932195Y-152559857D01*
X137883814Y-152608238D01*
X137787052Y-152656619D01*
X137545147Y-152656619D01*
X137448385Y-152608238D01*
X137400004Y-152559857D01*
X133795623Y-150116619D02*
X134037528Y-151132619D01*
X134231052Y-150406904D01*
X134424576Y-151132619D01*
X134666480Y-150116619D01*
X135005147Y-151084238D02*
X135150290Y-151132619D01*
X135392195Y-151132619D01*
X135488957Y-151084238D01*
X135537338Y-151035857D01*
X135585719Y-150939095D01*
X135585719Y-150842333D01*
X135537338Y-150745571D01*
X135488957Y-150697190D01*
X135392195Y-150648809D01*
X135198671Y-150600428D01*
X135101909Y-150552047D01*
X135053528Y-150503666D01*
X135005147Y-150406904D01*
X135005147Y-150310142D01*
X135053528Y-150213380D01*
X135101909Y-150165000D01*
X135198671Y-150116619D01*
X135440576Y-150116619D01*
X135585719Y-150165000D01*
X135972766Y-150213380D02*
X136021147Y-150165000D01*
X136117909Y-150116619D01*
X136359814Y-150116619D01*
X136456576Y-150165000D01*
X136504957Y-150213380D01*
X136553338Y-150310142D01*
X136553338Y-150406904D01*
X136504957Y-150552047D01*
X135924385Y-151132619D01*
X136553338Y-151132619D01*
X137133909Y-150552047D02*
X137037147Y-150503666D01*
X136988766Y-150455285D01*
X136940385Y-150358523D01*
X136940385Y-150310142D01*
X136988766Y-150213380D01*
X137037147Y-150165000D01*
X137133909Y-150116619D01*
X137327433Y-150116619D01*
X137424195Y-150165000D01*
X137472576Y-150213380D01*
X137520957Y-150310142D01*
X137520957Y-150358523D01*
X137472576Y-150455285D01*
X137424195Y-150503666D01*
X137327433Y-150552047D01*
X137133909Y-150552047D01*
X137037147Y-150600428D01*
X136988766Y-150648809D01*
X136940385Y-150745571D01*
X136940385Y-150939095D01*
X136988766Y-151035857D01*
X137037147Y-151084238D01*
X137133909Y-151132619D01*
X137327433Y-151132619D01*
X137424195Y-151084238D01*
X137472576Y-151035857D01*
X137520957Y-150939095D01*
X137520957Y-150745571D01*
X137472576Y-150648809D01*
X137424195Y-150600428D01*
X137327433Y-150552047D01*
X138488576Y-151132619D02*
X137908004Y-151132619D01*
X138198290Y-151132619D02*
X138198290Y-150116619D01*
X138101528Y-150261761D01*
X138004766Y-150358523D01*
X137908004Y-150406904D01*
X138875623Y-150213380D02*
X138924004Y-150165000D01*
X139020766Y-150116619D01*
X139262671Y-150116619D01*
X139359433Y-150165000D01*
X139407814Y-150213380D01*
X139456195Y-150310142D01*
X139456195Y-150406904D01*
X139407814Y-150552047D01*
X138827242Y-151132619D01*
X139456195Y-151132619D01*
X140230290Y-150600428D02*
X140375433Y-150648809D01*
X140423814Y-150697190D01*
X140472195Y-150793952D01*
X140472195Y-150939095D01*
X140423814Y-151035857D01*
X140375433Y-151084238D01*
X140278671Y-151132619D01*
X139891623Y-151132619D01*
X139891623Y-150116619D01*
X140230290Y-150116619D01*
X140327052Y-150165000D01*
X140375433Y-150213380D01*
X140423814Y-150310142D01*
X140423814Y-150406904D01*
X140375433Y-150503666D01*
X140327052Y-150552047D01*
X140230290Y-150600428D01*
X139891623Y-150600428D01*
X94514004Y-167210619D02*
X94514004Y-168033095D01*
X94562385Y-168129857D01*
X94610766Y-168178238D01*
X94707528Y-168226619D01*
X94901052Y-168226619D01*
X94997814Y-168178238D01*
X95046195Y-168129857D01*
X95094576Y-168033095D01*
X95094576Y-167210619D01*
X96013814Y-167210619D02*
X95820290Y-167210619D01*
X95723528Y-167259000D01*
X95675147Y-167307380D01*
X95578385Y-167452523D01*
X95530004Y-167646047D01*
X95530004Y-168033095D01*
X95578385Y-168129857D01*
X95626766Y-168178238D01*
X95723528Y-168226619D01*
X95917052Y-168226619D01*
X96013814Y-168178238D01*
X96062195Y-168129857D01*
X96110576Y-168033095D01*
X96110576Y-167791190D01*
X96062195Y-167694428D01*
X96013814Y-167646047D01*
X95917052Y-167597666D01*
X95723528Y-167597666D01*
X95626766Y-167646047D01*
X95578385Y-167694428D01*
X95530004Y-167791190D01*
X91925623Y-165686619D02*
X92167528Y-166702619D01*
X92361052Y-165976904D01*
X92554576Y-166702619D01*
X92796480Y-165686619D01*
X93135147Y-166654238D02*
X93280290Y-166702619D01*
X93522195Y-166702619D01*
X93618957Y-166654238D01*
X93667338Y-166605857D01*
X93715719Y-166509095D01*
X93715719Y-166412333D01*
X93667338Y-166315571D01*
X93618957Y-166267190D01*
X93522195Y-166218809D01*
X93328671Y-166170428D01*
X93231909Y-166122047D01*
X93183528Y-166073666D01*
X93135147Y-165976904D01*
X93135147Y-165880142D01*
X93183528Y-165783380D01*
X93231909Y-165735000D01*
X93328671Y-165686619D01*
X93570576Y-165686619D01*
X93715719Y-165735000D01*
X94102766Y-165783380D02*
X94151147Y-165735000D01*
X94247909Y-165686619D01*
X94489814Y-165686619D01*
X94586576Y-165735000D01*
X94634957Y-165783380D01*
X94683338Y-165880142D01*
X94683338Y-165976904D01*
X94634957Y-166122047D01*
X94054385Y-166702619D01*
X94683338Y-166702619D01*
X95263909Y-166122047D02*
X95167147Y-166073666D01*
X95118766Y-166025285D01*
X95070385Y-165928523D01*
X95070385Y-165880142D01*
X95118766Y-165783380D01*
X95167147Y-165735000D01*
X95263909Y-165686619D01*
X95457433Y-165686619D01*
X95554195Y-165735000D01*
X95602576Y-165783380D01*
X95650957Y-165880142D01*
X95650957Y-165928523D01*
X95602576Y-166025285D01*
X95554195Y-166073666D01*
X95457433Y-166122047D01*
X95263909Y-166122047D01*
X95167147Y-166170428D01*
X95118766Y-166218809D01*
X95070385Y-166315571D01*
X95070385Y-166509095D01*
X95118766Y-166605857D01*
X95167147Y-166654238D01*
X95263909Y-166702619D01*
X95457433Y-166702619D01*
X95554195Y-166654238D01*
X95602576Y-166605857D01*
X95650957Y-166509095D01*
X95650957Y-166315571D01*
X95602576Y-166218809D01*
X95554195Y-166170428D01*
X95457433Y-166122047D01*
X96618576Y-166702619D02*
X96038004Y-166702619D01*
X96328290Y-166702619D02*
X96328290Y-165686619D01*
X96231528Y-165831761D01*
X96134766Y-165928523D01*
X96038004Y-165976904D01*
X97005623Y-165783380D02*
X97054004Y-165735000D01*
X97150766Y-165686619D01*
X97392671Y-165686619D01*
X97489433Y-165735000D01*
X97537814Y-165783380D01*
X97586195Y-165880142D01*
X97586195Y-165976904D01*
X97537814Y-166122047D01*
X96957242Y-166702619D01*
X97586195Y-166702619D01*
X98360290Y-166170428D02*
X98505433Y-166218809D01*
X98553814Y-166267190D01*
X98602195Y-166363952D01*
X98602195Y-166509095D01*
X98553814Y-166605857D01*
X98505433Y-166654238D01*
X98408671Y-166702619D01*
X98021623Y-166702619D01*
X98021623Y-165686619D01*
X98360290Y-165686619D01*
X98457052Y-165735000D01*
X98505433Y-165783380D01*
X98553814Y-165880142D01*
X98553814Y-165976904D01*
X98505433Y-166073666D01*
X98457052Y-166122047D01*
X98360290Y-166170428D01*
X98021623Y-166170428D01*
X46929004Y-147195619D02*
X46929004Y-148018095D01*
X46977385Y-148114857D01*
X47025766Y-148163238D01*
X47122528Y-148211619D01*
X47316052Y-148211619D01*
X47412814Y-148163238D01*
X47461195Y-148114857D01*
X47509576Y-148018095D01*
X47509576Y-147195619D01*
X47896623Y-147195619D02*
X48573957Y-147195619D01*
X48138528Y-148211619D01*
X44340623Y-145671619D02*
X44582528Y-146687619D01*
X44776052Y-145961904D01*
X44969576Y-146687619D01*
X45211480Y-145671619D01*
X45550147Y-146639238D02*
X45695290Y-146687619D01*
X45937195Y-146687619D01*
X46033957Y-146639238D01*
X46082338Y-146590857D01*
X46130719Y-146494095D01*
X46130719Y-146397333D01*
X46082338Y-146300571D01*
X46033957Y-146252190D01*
X45937195Y-146203809D01*
X45743671Y-146155428D01*
X45646909Y-146107047D01*
X45598528Y-146058666D01*
X45550147Y-145961904D01*
X45550147Y-145865142D01*
X45598528Y-145768380D01*
X45646909Y-145720000D01*
X45743671Y-145671619D01*
X45985576Y-145671619D01*
X46130719Y-145720000D01*
X46517766Y-145768380D02*
X46566147Y-145720000D01*
X46662909Y-145671619D01*
X46904814Y-145671619D01*
X47001576Y-145720000D01*
X47049957Y-145768380D01*
X47098338Y-145865142D01*
X47098338Y-145961904D01*
X47049957Y-146107047D01*
X46469385Y-146687619D01*
X47098338Y-146687619D01*
X47678909Y-146107047D02*
X47582147Y-146058666D01*
X47533766Y-146010285D01*
X47485385Y-145913523D01*
X47485385Y-145865142D01*
X47533766Y-145768380D01*
X47582147Y-145720000D01*
X47678909Y-145671619D01*
X47872433Y-145671619D01*
X47969195Y-145720000D01*
X48017576Y-145768380D01*
X48065957Y-145865142D01*
X48065957Y-145913523D01*
X48017576Y-146010285D01*
X47969195Y-146058666D01*
X47872433Y-146107047D01*
X47678909Y-146107047D01*
X47582147Y-146155428D01*
X47533766Y-146203809D01*
X47485385Y-146300571D01*
X47485385Y-146494095D01*
X47533766Y-146590857D01*
X47582147Y-146639238D01*
X47678909Y-146687619D01*
X47872433Y-146687619D01*
X47969195Y-146639238D01*
X48017576Y-146590857D01*
X48065957Y-146494095D01*
X48065957Y-146300571D01*
X48017576Y-146203809D01*
X47969195Y-146155428D01*
X47872433Y-146107047D01*
X49033576Y-146687619D02*
X48453004Y-146687619D01*
X48743290Y-146687619D02*
X48743290Y-145671619D01*
X48646528Y-145816761D01*
X48549766Y-145913523D01*
X48453004Y-145961904D01*
X49420623Y-145768380D02*
X49469004Y-145720000D01*
X49565766Y-145671619D01*
X49807671Y-145671619D01*
X49904433Y-145720000D01*
X49952814Y-145768380D01*
X50001195Y-145865142D01*
X50001195Y-145961904D01*
X49952814Y-146107047D01*
X49372242Y-146687619D01*
X50001195Y-146687619D01*
X50775290Y-146155428D02*
X50920433Y-146203809D01*
X50968814Y-146252190D01*
X51017195Y-146348952D01*
X51017195Y-146494095D01*
X50968814Y-146590857D01*
X50920433Y-146639238D01*
X50823671Y-146687619D01*
X50436623Y-146687619D01*
X50436623Y-145671619D01*
X50775290Y-145671619D01*
X50872052Y-145720000D01*
X50920433Y-145768380D01*
X50968814Y-145865142D01*
X50968814Y-145961904D01*
X50920433Y-146058666D01*
X50872052Y-146107047D01*
X50775290Y-146155428D01*
X50436623Y-146155428D01*
X32244004Y-126240619D02*
X32244004Y-127063095D01*
X32292385Y-127159857D01*
X32340766Y-127208238D01*
X32437528Y-127256619D01*
X32631052Y-127256619D01*
X32727814Y-127208238D01*
X32776195Y-127159857D01*
X32824576Y-127063095D01*
X32824576Y-126240619D01*
X33453528Y-126676047D02*
X33356766Y-126627666D01*
X33308385Y-126579285D01*
X33260004Y-126482523D01*
X33260004Y-126434142D01*
X33308385Y-126337380D01*
X33356766Y-126289000D01*
X33453528Y-126240619D01*
X33647052Y-126240619D01*
X33743814Y-126289000D01*
X33792195Y-126337380D01*
X33840576Y-126434142D01*
X33840576Y-126482523D01*
X33792195Y-126579285D01*
X33743814Y-126627666D01*
X33647052Y-126676047D01*
X33453528Y-126676047D01*
X33356766Y-126724428D01*
X33308385Y-126772809D01*
X33260004Y-126869571D01*
X33260004Y-127063095D01*
X33308385Y-127159857D01*
X33356766Y-127208238D01*
X33453528Y-127256619D01*
X33647052Y-127256619D01*
X33743814Y-127208238D01*
X33792195Y-127159857D01*
X33840576Y-127063095D01*
X33840576Y-126869571D01*
X33792195Y-126772809D01*
X33743814Y-126724428D01*
X33647052Y-126676047D01*
X29655623Y-124716619D02*
X29897528Y-125732619D01*
X30091052Y-125006904D01*
X30284576Y-125732619D01*
X30526480Y-124716619D01*
X30865147Y-125684238D02*
X31010290Y-125732619D01*
X31252195Y-125732619D01*
X31348957Y-125684238D01*
X31397338Y-125635857D01*
X31445719Y-125539095D01*
X31445719Y-125442333D01*
X31397338Y-125345571D01*
X31348957Y-125297190D01*
X31252195Y-125248809D01*
X31058671Y-125200428D01*
X30961909Y-125152047D01*
X30913528Y-125103666D01*
X30865147Y-125006904D01*
X30865147Y-124910142D01*
X30913528Y-124813380D01*
X30961909Y-124765000D01*
X31058671Y-124716619D01*
X31300576Y-124716619D01*
X31445719Y-124765000D01*
X31832766Y-124813380D02*
X31881147Y-124765000D01*
X31977909Y-124716619D01*
X32219814Y-124716619D01*
X32316576Y-124765000D01*
X32364957Y-124813380D01*
X32413338Y-124910142D01*
X32413338Y-125006904D01*
X32364957Y-125152047D01*
X31784385Y-125732619D01*
X32413338Y-125732619D01*
X32993909Y-125152047D02*
X32897147Y-125103666D01*
X32848766Y-125055285D01*
X32800385Y-124958523D01*
X32800385Y-124910142D01*
X32848766Y-124813380D01*
X32897147Y-124765000D01*
X32993909Y-124716619D01*
X33187433Y-124716619D01*
X33284195Y-124765000D01*
X33332576Y-124813380D01*
X33380957Y-124910142D01*
X33380957Y-124958523D01*
X33332576Y-125055285D01*
X33284195Y-125103666D01*
X33187433Y-125152047D01*
X32993909Y-125152047D01*
X32897147Y-125200428D01*
X32848766Y-125248809D01*
X32800385Y-125345571D01*
X32800385Y-125539095D01*
X32848766Y-125635857D01*
X32897147Y-125684238D01*
X32993909Y-125732619D01*
X33187433Y-125732619D01*
X33284195Y-125684238D01*
X33332576Y-125635857D01*
X33380957Y-125539095D01*
X33380957Y-125345571D01*
X33332576Y-125248809D01*
X33284195Y-125200428D01*
X33187433Y-125152047D01*
X34348576Y-125732619D02*
X33768004Y-125732619D01*
X34058290Y-125732619D02*
X34058290Y-124716619D01*
X33961528Y-124861761D01*
X33864766Y-124958523D01*
X33768004Y-125006904D01*
X34735623Y-124813380D02*
X34784004Y-124765000D01*
X34880766Y-124716619D01*
X35122671Y-124716619D01*
X35219433Y-124765000D01*
X35267814Y-124813380D01*
X35316195Y-124910142D01*
X35316195Y-125006904D01*
X35267814Y-125152047D01*
X34687242Y-125732619D01*
X35316195Y-125732619D01*
X36090290Y-125200428D02*
X36235433Y-125248809D01*
X36283814Y-125297190D01*
X36332195Y-125393952D01*
X36332195Y-125539095D01*
X36283814Y-125635857D01*
X36235433Y-125684238D01*
X36138671Y-125732619D01*
X35751623Y-125732619D01*
X35751623Y-124716619D01*
X36090290Y-124716619D01*
X36187052Y-124765000D01*
X36235433Y-124813380D01*
X36283814Y-124910142D01*
X36283814Y-125006904D01*
X36235433Y-125103666D01*
X36187052Y-125152047D01*
X36090290Y-125200428D01*
X35751623Y-125200428D01*
X24664004Y-96860619D02*
X24664004Y-97683095D01*
X24712385Y-97779857D01*
X24760766Y-97828238D01*
X24857528Y-97876619D01*
X25051052Y-97876619D01*
X25147814Y-97828238D01*
X25196195Y-97779857D01*
X25244576Y-97683095D01*
X25244576Y-96860619D01*
X25776766Y-97876619D02*
X25970290Y-97876619D01*
X26067052Y-97828238D01*
X26115433Y-97779857D01*
X26212195Y-97634714D01*
X26260576Y-97441190D01*
X26260576Y-97054142D01*
X26212195Y-96957380D01*
X26163814Y-96909000D01*
X26067052Y-96860619D01*
X25873528Y-96860619D01*
X25776766Y-96909000D01*
X25728385Y-96957380D01*
X25680004Y-97054142D01*
X25680004Y-97296047D01*
X25728385Y-97392809D01*
X25776766Y-97441190D01*
X25873528Y-97489571D01*
X26067052Y-97489571D01*
X26163814Y-97441190D01*
X26212195Y-97392809D01*
X26260576Y-97296047D01*
X22075623Y-95336619D02*
X22317528Y-96352619D01*
X22511052Y-95626904D01*
X22704576Y-96352619D01*
X22946480Y-95336619D01*
X23285147Y-96304238D02*
X23430290Y-96352619D01*
X23672195Y-96352619D01*
X23768957Y-96304238D01*
X23817338Y-96255857D01*
X23865719Y-96159095D01*
X23865719Y-96062333D01*
X23817338Y-95965571D01*
X23768957Y-95917190D01*
X23672195Y-95868809D01*
X23478671Y-95820428D01*
X23381909Y-95772047D01*
X23333528Y-95723666D01*
X23285147Y-95626904D01*
X23285147Y-95530142D01*
X23333528Y-95433380D01*
X23381909Y-95385000D01*
X23478671Y-95336619D01*
X23720576Y-95336619D01*
X23865719Y-95385000D01*
X24252766Y-95433380D02*
X24301147Y-95385000D01*
X24397909Y-95336619D01*
X24639814Y-95336619D01*
X24736576Y-95385000D01*
X24784957Y-95433380D01*
X24833338Y-95530142D01*
X24833338Y-95626904D01*
X24784957Y-95772047D01*
X24204385Y-96352619D01*
X24833338Y-96352619D01*
X25413909Y-95772047D02*
X25317147Y-95723666D01*
X25268766Y-95675285D01*
X25220385Y-95578523D01*
X25220385Y-95530142D01*
X25268766Y-95433380D01*
X25317147Y-95385000D01*
X25413909Y-95336619D01*
X25607433Y-95336619D01*
X25704195Y-95385000D01*
X25752576Y-95433380D01*
X25800957Y-95530142D01*
X25800957Y-95578523D01*
X25752576Y-95675285D01*
X25704195Y-95723666D01*
X25607433Y-95772047D01*
X25413909Y-95772047D01*
X25317147Y-95820428D01*
X25268766Y-95868809D01*
X25220385Y-95965571D01*
X25220385Y-96159095D01*
X25268766Y-96255857D01*
X25317147Y-96304238D01*
X25413909Y-96352619D01*
X25607433Y-96352619D01*
X25704195Y-96304238D01*
X25752576Y-96255857D01*
X25800957Y-96159095D01*
X25800957Y-95965571D01*
X25752576Y-95868809D01*
X25704195Y-95820428D01*
X25607433Y-95772047D01*
X26768576Y-96352619D02*
X26188004Y-96352619D01*
X26478290Y-96352619D02*
X26478290Y-95336619D01*
X26381528Y-95481761D01*
X26284766Y-95578523D01*
X26188004Y-95626904D01*
X27155623Y-95433380D02*
X27204004Y-95385000D01*
X27300766Y-95336619D01*
X27542671Y-95336619D01*
X27639433Y-95385000D01*
X27687814Y-95433380D01*
X27736195Y-95530142D01*
X27736195Y-95626904D01*
X27687814Y-95772047D01*
X27107242Y-96352619D01*
X27736195Y-96352619D01*
X28510290Y-95820428D02*
X28655433Y-95868809D01*
X28703814Y-95917190D01*
X28752195Y-96013952D01*
X28752195Y-96159095D01*
X28703814Y-96255857D01*
X28655433Y-96304238D01*
X28558671Y-96352619D01*
X28171623Y-96352619D01*
X28171623Y-95336619D01*
X28510290Y-95336619D01*
X28607052Y-95385000D01*
X28655433Y-95433380D01*
X28703814Y-95530142D01*
X28703814Y-95626904D01*
X28655433Y-95723666D01*
X28607052Y-95772047D01*
X28510290Y-95820428D01*
X28171623Y-95820428D01*
X30580195Y-68960619D02*
X30580195Y-69783095D01*
X30628576Y-69879857D01*
X30676957Y-69928238D01*
X30773719Y-69976619D01*
X30967242Y-69976619D01*
X31064004Y-69928238D01*
X31112385Y-69879857D01*
X31160766Y-69783095D01*
X31160766Y-68960619D01*
X32176766Y-69976619D02*
X31596195Y-69976619D01*
X31886480Y-69976619D02*
X31886480Y-68960619D01*
X31789719Y-69105761D01*
X31692957Y-69202523D01*
X31596195Y-69250904D01*
X32805719Y-68960619D02*
X32902480Y-68960619D01*
X32999242Y-69009000D01*
X33047623Y-69057380D01*
X33096004Y-69154142D01*
X33144385Y-69347666D01*
X33144385Y-69589571D01*
X33096004Y-69783095D01*
X33047623Y-69879857D01*
X32999242Y-69928238D01*
X32902480Y-69976619D01*
X32805719Y-69976619D01*
X32708957Y-69928238D01*
X32660576Y-69879857D01*
X32612195Y-69783095D01*
X32563814Y-69589571D01*
X32563814Y-69347666D01*
X32612195Y-69154142D01*
X32660576Y-69057380D01*
X32708957Y-69009000D01*
X32805719Y-68960619D01*
X28475623Y-67436619D02*
X28717528Y-68452619D01*
X28911052Y-67726904D01*
X29104576Y-68452619D01*
X29346480Y-67436619D01*
X29685147Y-68404238D02*
X29830290Y-68452619D01*
X30072195Y-68452619D01*
X30168957Y-68404238D01*
X30217338Y-68355857D01*
X30265719Y-68259095D01*
X30265719Y-68162333D01*
X30217338Y-68065571D01*
X30168957Y-68017190D01*
X30072195Y-67968809D01*
X29878671Y-67920428D01*
X29781909Y-67872047D01*
X29733528Y-67823666D01*
X29685147Y-67726904D01*
X29685147Y-67630142D01*
X29733528Y-67533380D01*
X29781909Y-67485000D01*
X29878671Y-67436619D01*
X30120576Y-67436619D01*
X30265719Y-67485000D01*
X30652766Y-67533380D02*
X30701147Y-67485000D01*
X30797909Y-67436619D01*
X31039814Y-67436619D01*
X31136576Y-67485000D01*
X31184957Y-67533380D01*
X31233338Y-67630142D01*
X31233338Y-67726904D01*
X31184957Y-67872047D01*
X30604385Y-68452619D01*
X31233338Y-68452619D01*
X31813909Y-67872047D02*
X31717147Y-67823666D01*
X31668766Y-67775285D01*
X31620385Y-67678523D01*
X31620385Y-67630142D01*
X31668766Y-67533380D01*
X31717147Y-67485000D01*
X31813909Y-67436619D01*
X32007433Y-67436619D01*
X32104195Y-67485000D01*
X32152576Y-67533380D01*
X32200957Y-67630142D01*
X32200957Y-67678523D01*
X32152576Y-67775285D01*
X32104195Y-67823666D01*
X32007433Y-67872047D01*
X31813909Y-67872047D01*
X31717147Y-67920428D01*
X31668766Y-67968809D01*
X31620385Y-68065571D01*
X31620385Y-68259095D01*
X31668766Y-68355857D01*
X31717147Y-68404238D01*
X31813909Y-68452619D01*
X32007433Y-68452619D01*
X32104195Y-68404238D01*
X32152576Y-68355857D01*
X32200957Y-68259095D01*
X32200957Y-68065571D01*
X32152576Y-67968809D01*
X32104195Y-67920428D01*
X32007433Y-67872047D01*
X33168576Y-68452619D02*
X32588004Y-68452619D01*
X32878290Y-68452619D02*
X32878290Y-67436619D01*
X32781528Y-67581761D01*
X32684766Y-67678523D01*
X32588004Y-67726904D01*
X33555623Y-67533380D02*
X33604004Y-67485000D01*
X33700766Y-67436619D01*
X33942671Y-67436619D01*
X34039433Y-67485000D01*
X34087814Y-67533380D01*
X34136195Y-67630142D01*
X34136195Y-67726904D01*
X34087814Y-67872047D01*
X33507242Y-68452619D01*
X34136195Y-68452619D01*
X34910290Y-67920428D02*
X35055433Y-67968809D01*
X35103814Y-68017190D01*
X35152195Y-68113952D01*
X35152195Y-68259095D01*
X35103814Y-68355857D01*
X35055433Y-68404238D01*
X34958671Y-68452619D01*
X34571623Y-68452619D01*
X34571623Y-67436619D01*
X34910290Y-67436619D01*
X35007052Y-67485000D01*
X35055433Y-67533380D01*
X35103814Y-67630142D01*
X35103814Y-67726904D01*
X35055433Y-67823666D01*
X35007052Y-67872047D01*
X34910290Y-67920428D01*
X34571623Y-67920428D01*
X55930195Y-41480619D02*
X55930195Y-42303095D01*
X55978576Y-42399857D01*
X56026957Y-42448238D01*
X56123719Y-42496619D01*
X56317242Y-42496619D01*
X56414004Y-42448238D01*
X56462385Y-42399857D01*
X56510766Y-42303095D01*
X56510766Y-41480619D01*
X57526766Y-42496619D02*
X56946195Y-42496619D01*
X57236480Y-42496619D02*
X57236480Y-41480619D01*
X57139719Y-41625761D01*
X57042957Y-41722523D01*
X56946195Y-41770904D01*
X58494385Y-42496619D02*
X57913814Y-42496619D01*
X58204100Y-42496619D02*
X58204100Y-41480619D01*
X58107338Y-41625761D01*
X58010576Y-41722523D01*
X57913814Y-41770904D01*
X53825623Y-39956619D02*
X54067528Y-40972619D01*
X54261052Y-40246904D01*
X54454576Y-40972619D01*
X54696480Y-39956619D01*
X55035147Y-40924238D02*
X55180290Y-40972619D01*
X55422195Y-40972619D01*
X55518957Y-40924238D01*
X55567338Y-40875857D01*
X55615719Y-40779095D01*
X55615719Y-40682333D01*
X55567338Y-40585571D01*
X55518957Y-40537190D01*
X55422195Y-40488809D01*
X55228671Y-40440428D01*
X55131909Y-40392047D01*
X55083528Y-40343666D01*
X55035147Y-40246904D01*
X55035147Y-40150142D01*
X55083528Y-40053380D01*
X55131909Y-40005000D01*
X55228671Y-39956619D01*
X55470576Y-39956619D01*
X55615719Y-40005000D01*
X56002766Y-40053380D02*
X56051147Y-40005000D01*
X56147909Y-39956619D01*
X56389814Y-39956619D01*
X56486576Y-40005000D01*
X56534957Y-40053380D01*
X56583338Y-40150142D01*
X56583338Y-40246904D01*
X56534957Y-40392047D01*
X55954385Y-40972619D01*
X56583338Y-40972619D01*
X57163909Y-40392047D02*
X57067147Y-40343666D01*
X57018766Y-40295285D01*
X56970385Y-40198523D01*
X56970385Y-40150142D01*
X57018766Y-40053380D01*
X57067147Y-40005000D01*
X57163909Y-39956619D01*
X57357433Y-39956619D01*
X57454195Y-40005000D01*
X57502576Y-40053380D01*
X57550957Y-40150142D01*
X57550957Y-40198523D01*
X57502576Y-40295285D01*
X57454195Y-40343666D01*
X57357433Y-40392047D01*
X57163909Y-40392047D01*
X57067147Y-40440428D01*
X57018766Y-40488809D01*
X56970385Y-40585571D01*
X56970385Y-40779095D01*
X57018766Y-40875857D01*
X57067147Y-40924238D01*
X57163909Y-40972619D01*
X57357433Y-40972619D01*
X57454195Y-40924238D01*
X57502576Y-40875857D01*
X57550957Y-40779095D01*
X57550957Y-40585571D01*
X57502576Y-40488809D01*
X57454195Y-40440428D01*
X57357433Y-40392047D01*
X58518576Y-40972619D02*
X57938004Y-40972619D01*
X58228290Y-40972619D02*
X58228290Y-39956619D01*
X58131528Y-40101761D01*
X58034766Y-40198523D01*
X57938004Y-40246904D01*
X58905623Y-40053380D02*
X58954004Y-40005000D01*
X59050766Y-39956619D01*
X59292671Y-39956619D01*
X59389433Y-40005000D01*
X59437814Y-40053380D01*
X59486195Y-40150142D01*
X59486195Y-40246904D01*
X59437814Y-40392047D01*
X58857242Y-40972619D01*
X59486195Y-40972619D01*
X60260290Y-40440428D02*
X60405433Y-40488809D01*
X60453814Y-40537190D01*
X60502195Y-40633952D01*
X60502195Y-40779095D01*
X60453814Y-40875857D01*
X60405433Y-40924238D01*
X60308671Y-40972619D01*
X59921623Y-40972619D01*
X59921623Y-39956619D01*
X60260290Y-39956619D01*
X60357052Y-40005000D01*
X60405433Y-40053380D01*
X60453814Y-40150142D01*
X60453814Y-40246904D01*
X60405433Y-40343666D01*
X60357052Y-40392047D01*
X60260290Y-40440428D01*
X59921623Y-40440428D01*
X93728795Y-29112119D02*
X93728795Y-29934595D01*
X93777176Y-30031357D01*
X93825557Y-30079738D01*
X93922319Y-30128119D01*
X94115842Y-30128119D01*
X94212604Y-30079738D01*
X94260985Y-30031357D01*
X94309366Y-29934595D01*
X94309366Y-29112119D01*
X95325366Y-30128119D02*
X94744795Y-30128119D01*
X95035080Y-30128119D02*
X95035080Y-29112119D01*
X94938319Y-29257261D01*
X94841557Y-29354023D01*
X94744795Y-29402404D01*
X95712414Y-29208880D02*
X95760795Y-29160500D01*
X95857557Y-29112119D01*
X96099461Y-29112119D01*
X96196223Y-29160500D01*
X96244604Y-29208880D01*
X96292985Y-29305642D01*
X96292985Y-29402404D01*
X96244604Y-29547547D01*
X95664033Y-30128119D01*
X96292985Y-30128119D01*
X91624223Y-27588119D02*
X91866128Y-28604119D01*
X92059652Y-27878404D01*
X92253176Y-28604119D01*
X92495080Y-27588119D01*
X92833747Y-28555738D02*
X92978890Y-28604119D01*
X93220795Y-28604119D01*
X93317557Y-28555738D01*
X93365938Y-28507357D01*
X93414319Y-28410595D01*
X93414319Y-28313833D01*
X93365938Y-28217071D01*
X93317557Y-28168690D01*
X93220795Y-28120309D01*
X93027271Y-28071928D01*
X92930509Y-28023547D01*
X92882128Y-27975166D01*
X92833747Y-27878404D01*
X92833747Y-27781642D01*
X92882128Y-27684880D01*
X92930509Y-27636500D01*
X93027271Y-27588119D01*
X93269176Y-27588119D01*
X93414319Y-27636500D01*
X93801366Y-27684880D02*
X93849747Y-27636500D01*
X93946509Y-27588119D01*
X94188414Y-27588119D01*
X94285176Y-27636500D01*
X94333557Y-27684880D01*
X94381938Y-27781642D01*
X94381938Y-27878404D01*
X94333557Y-28023547D01*
X93752985Y-28604119D01*
X94381938Y-28604119D01*
X94962509Y-28023547D02*
X94865747Y-27975166D01*
X94817366Y-27926785D01*
X94768985Y-27830023D01*
X94768985Y-27781642D01*
X94817366Y-27684880D01*
X94865747Y-27636500D01*
X94962509Y-27588119D01*
X95156033Y-27588119D01*
X95252795Y-27636500D01*
X95301176Y-27684880D01*
X95349557Y-27781642D01*
X95349557Y-27830023D01*
X95301176Y-27926785D01*
X95252795Y-27975166D01*
X95156033Y-28023547D01*
X94962509Y-28023547D01*
X94865747Y-28071928D01*
X94817366Y-28120309D01*
X94768985Y-28217071D01*
X94768985Y-28410595D01*
X94817366Y-28507357D01*
X94865747Y-28555738D01*
X94962509Y-28604119D01*
X95156033Y-28604119D01*
X95252795Y-28555738D01*
X95301176Y-28507357D01*
X95349557Y-28410595D01*
X95349557Y-28217071D01*
X95301176Y-28120309D01*
X95252795Y-28071928D01*
X95156033Y-28023547D01*
X96317176Y-28604119D02*
X95736604Y-28604119D01*
X96026890Y-28604119D02*
X96026890Y-27588119D01*
X95930128Y-27733261D01*
X95833366Y-27830023D01*
X95736604Y-27878404D01*
X96704223Y-27684880D02*
X96752604Y-27636500D01*
X96849366Y-27588119D01*
X97091271Y-27588119D01*
X97188033Y-27636500D01*
X97236414Y-27684880D01*
X97284795Y-27781642D01*
X97284795Y-27878404D01*
X97236414Y-28023547D01*
X96655842Y-28604119D01*
X97284795Y-28604119D01*
X98058890Y-28071928D02*
X98204033Y-28120309D01*
X98252414Y-28168690D01*
X98300795Y-28265452D01*
X98300795Y-28410595D01*
X98252414Y-28507357D01*
X98204033Y-28555738D01*
X98107271Y-28604119D01*
X97720223Y-28604119D01*
X97720223Y-27588119D01*
X98058890Y-27588119D01*
X98155652Y-27636500D01*
X98204033Y-27684880D01*
X98252414Y-27781642D01*
X98252414Y-27878404D01*
X98204033Y-27975166D01*
X98155652Y-28023547D01*
X98058890Y-28071928D01*
X97720223Y-28071928D01*
X42727013Y-61093818D02*
X42872156Y-61142199D01*
X43114060Y-61142199D01*
X43210822Y-61093818D01*
X43259203Y-61045437D01*
X43307584Y-60948675D01*
X43307584Y-60851913D01*
X43259203Y-60755151D01*
X43210822Y-60706770D01*
X43114060Y-60658389D01*
X42920537Y-60610008D01*
X42823775Y-60561627D01*
X42775394Y-60513246D01*
X42727013Y-60416484D01*
X42727013Y-60319722D01*
X42775394Y-60222960D01*
X42823775Y-60174580D01*
X42920537Y-60126199D01*
X43162441Y-60126199D01*
X43307584Y-60174580D01*
X43646251Y-60126199D02*
X43888156Y-61142199D01*
X44081680Y-60416484D01*
X44275203Y-61142199D01*
X44517108Y-60126199D01*
X45436346Y-61142199D02*
X44855775Y-61142199D01*
X45146060Y-61142199D02*
X45146060Y-60126199D01*
X45049299Y-60271341D01*
X44952537Y-60368103D01*
X44855775Y-60416484D01*
X42606060Y-62666199D02*
X42267394Y-62182389D01*
X42025489Y-62666199D02*
X42025489Y-61650199D01*
X42412537Y-61650199D01*
X42509299Y-61698580D01*
X42557680Y-61746960D01*
X42606060Y-61843722D01*
X42606060Y-61988865D01*
X42557680Y-62085627D01*
X42509299Y-62134008D01*
X42412537Y-62182389D01*
X42025489Y-62182389D01*
X43041489Y-62134008D02*
X43380156Y-62134008D01*
X43525299Y-62666199D02*
X43041489Y-62666199D01*
X43041489Y-61650199D01*
X43525299Y-61650199D01*
X43912346Y-62617818D02*
X44057489Y-62666199D01*
X44299394Y-62666199D01*
X44396156Y-62617818D01*
X44444537Y-62569437D01*
X44492918Y-62472675D01*
X44492918Y-62375913D01*
X44444537Y-62279151D01*
X44396156Y-62230770D01*
X44299394Y-62182389D01*
X44105870Y-62134008D01*
X44009108Y-62085627D01*
X43960727Y-62037246D01*
X43912346Y-61940484D01*
X43912346Y-61843722D01*
X43960727Y-61746960D01*
X44009108Y-61698580D01*
X44105870Y-61650199D01*
X44347775Y-61650199D01*
X44492918Y-61698580D01*
X44928346Y-62134008D02*
X45267013Y-62134008D01*
X45412156Y-62666199D02*
X44928346Y-62666199D01*
X44928346Y-61650199D01*
X45412156Y-61650199D01*
X45702441Y-61650199D02*
X46283013Y-61650199D01*
X45992727Y-62666199D02*
X45992727Y-61650199D01*
D10*
X94761904Y-151202380D02*
X94761904Y-150202380D01*
X95000000Y-150202380D01*
X95142857Y-150250000D01*
X95238095Y-150345238D01*
X95285714Y-150440476D01*
X95333333Y-150630952D01*
X95333333Y-150773809D01*
X95285714Y-150964285D01*
X95238095Y-151059523D01*
X95142857Y-151154761D01*
X95000000Y-151202380D01*
X94761904Y-151202380D01*
X96285714Y-151202380D02*
X95714285Y-151202380D01*
X96000000Y-151202380D02*
X96000000Y-150202380D01*
X95904761Y-150345238D01*
X95809523Y-150440476D01*
X95714285Y-150488095D01*
X139810904Y-107202380D02*
X139810904Y-106202380D01*
X140049000Y-106202380D01*
X140191857Y-106250000D01*
X140287095Y-106345238D01*
X140334714Y-106440476D01*
X140382333Y-106630952D01*
X140382333Y-106773809D01*
X140334714Y-106964285D01*
X140287095Y-107059523D01*
X140191857Y-107154761D01*
X140049000Y-107202380D01*
X139810904Y-107202380D01*
X140763285Y-106297619D02*
X140810904Y-106250000D01*
X140906142Y-106202380D01*
X141144238Y-106202380D01*
X141239476Y-106250000D01*
X141287095Y-106297619D01*
X141334714Y-106392857D01*
X141334714Y-106488095D01*
X141287095Y-106630952D01*
X140715666Y-107202380D01*
X141334714Y-107202380D01*
X139810904Y-89702380D02*
X139810904Y-88702380D01*
X140049000Y-88702380D01*
X140191857Y-88750000D01*
X140287095Y-88845238D01*
X140334714Y-88940476D01*
X140382333Y-89130952D01*
X140382333Y-89273809D01*
X140334714Y-89464285D01*
X140287095Y-89559523D01*
X140191857Y-89654761D01*
X140049000Y-89702380D01*
X139810904Y-89702380D01*
X140715666Y-88702380D02*
X141334714Y-88702380D01*
X141001380Y-89083333D01*
X141144238Y-89083333D01*
X141239476Y-89130952D01*
X141287095Y-89178571D01*
X141334714Y-89273809D01*
X141334714Y-89511904D01*
X141287095Y-89607142D01*
X141239476Y-89654761D01*
X141144238Y-89702380D01*
X140858523Y-89702380D01*
X140763285Y-89654761D01*
X140715666Y-89607142D01*
X139810904Y-83702380D02*
X139810904Y-82702380D01*
X140049000Y-82702380D01*
X140191857Y-82750000D01*
X140287095Y-82845238D01*
X140334714Y-82940476D01*
X140382333Y-83130952D01*
X140382333Y-83273809D01*
X140334714Y-83464285D01*
X140287095Y-83559523D01*
X140191857Y-83654761D01*
X140049000Y-83702380D01*
X139810904Y-83702380D01*
X141239476Y-83035714D02*
X141239476Y-83702380D01*
X141001380Y-82654761D02*
X140763285Y-83369047D01*
X141382333Y-83369047D01*
X94810904Y-161702380D02*
X94810904Y-160702380D01*
X95049000Y-160702380D01*
X95191857Y-160750000D01*
X95287095Y-160845238D01*
X95334714Y-160940476D01*
X95382333Y-161130952D01*
X95382333Y-161273809D01*
X95334714Y-161464285D01*
X95287095Y-161559523D01*
X95191857Y-161654761D01*
X95049000Y-161702380D01*
X94810904Y-161702380D01*
X96239476Y-160702380D02*
X96049000Y-160702380D01*
X95953761Y-160750000D01*
X95906142Y-160797619D01*
X95810904Y-160940476D01*
X95763285Y-161130952D01*
X95763285Y-161511904D01*
X95810904Y-161607142D01*
X95858523Y-161654761D01*
X95953761Y-161702380D01*
X96144238Y-161702380D01*
X96239476Y-161654761D01*
X96287095Y-161607142D01*
X96334714Y-161511904D01*
X96334714Y-161273809D01*
X96287095Y-161178571D01*
X96239476Y-161130952D01*
X96144238Y-161083333D01*
X95953761Y-161083333D01*
X95858523Y-161130952D01*
X95810904Y-161178571D01*
X95763285Y-161273809D01*
X139810904Y-101702380D02*
X139810904Y-100702380D01*
X140049000Y-100702380D01*
X140191857Y-100750000D01*
X140287095Y-100845238D01*
X140334714Y-100940476D01*
X140382333Y-101130952D01*
X140382333Y-101273809D01*
X140334714Y-101464285D01*
X140287095Y-101559523D01*
X140191857Y-101654761D01*
X140049000Y-101702380D01*
X139810904Y-101702380D01*
X140715666Y-100702380D02*
X141382333Y-100702380D01*
X140953761Y-101702380D01*
X139810904Y-96202380D02*
X139810904Y-95202380D01*
X140049000Y-95202380D01*
X140191857Y-95250000D01*
X140287095Y-95345238D01*
X140334714Y-95440476D01*
X140382333Y-95630952D01*
X140382333Y-95773809D01*
X140334714Y-95964285D01*
X140287095Y-96059523D01*
X140191857Y-96154761D01*
X140049000Y-96202380D01*
X139810904Y-96202380D01*
X140953761Y-95630952D02*
X140858523Y-95583333D01*
X140810904Y-95535714D01*
X140763285Y-95440476D01*
X140763285Y-95392857D01*
X140810904Y-95297619D01*
X140858523Y-95250000D01*
X140953761Y-95202380D01*
X141144238Y-95202380D01*
X141239476Y-95250000D01*
X141287095Y-95297619D01*
X141334714Y-95392857D01*
X141334714Y-95440476D01*
X141287095Y-95535714D01*
X141239476Y-95583333D01*
X141144238Y-95630952D01*
X140953761Y-95630952D01*
X140858523Y-95678571D01*
X140810904Y-95726190D01*
X140763285Y-95821428D01*
X140763285Y-96011904D01*
X140810904Y-96107142D01*
X140858523Y-96154761D01*
X140953761Y-96202380D01*
X141144238Y-96202380D01*
X141239476Y-96154761D01*
X141287095Y-96107142D01*
X141334714Y-96011904D01*
X141334714Y-95821428D01*
X141287095Y-95726190D01*
X141239476Y-95678571D01*
X141144238Y-95630952D01*
X94712904Y-156202380D02*
X94712904Y-155202380D01*
X94951000Y-155202380D01*
X95093857Y-155250000D01*
X95189095Y-155345238D01*
X95236714Y-155440476D01*
X95284333Y-155630952D01*
X95284333Y-155773809D01*
X95236714Y-155964285D01*
X95189095Y-156059523D01*
X95093857Y-156154761D01*
X94951000Y-156202380D01*
X94712904Y-156202380D01*
X96189095Y-155202380D02*
X95712904Y-155202380D01*
X95665285Y-155678571D01*
X95712904Y-155630952D01*
X95808142Y-155583333D01*
X96046238Y-155583333D01*
X96141476Y-155630952D01*
X96189095Y-155678571D01*
X96236714Y-155773809D01*
X96236714Y-156011904D01*
X96189095Y-156107142D01*
X96141476Y-156154761D01*
X96046238Y-156202380D01*
X95808142Y-156202380D01*
X95712904Y-156154761D01*
X95665285Y-156107142D01*
X79595238Y-32452380D02*
X79833333Y-33452380D01*
X80023809Y-32738095D01*
X80214285Y-33452380D01*
X80452380Y-32452380D01*
X81261904Y-32785714D02*
X81261904Y-33452380D01*
X81023809Y-32404761D02*
X80785714Y-33119047D01*
X81404761Y-33119047D01*
X85666666Y-54452380D02*
X85666666Y-55166666D01*
X85619047Y-55309523D01*
X85523809Y-55404761D01*
X85380952Y-55452380D01*
X85285714Y-55452380D01*
X86095238Y-54547619D02*
X86142857Y-54500000D01*
X86238095Y-54452380D01*
X86476190Y-54452380D01*
X86571428Y-54500000D01*
X86619047Y-54547619D01*
X86666666Y-54642857D01*
X86666666Y-54738095D01*
X86619047Y-54880952D01*
X86047619Y-55452380D01*
X86666666Y-55452380D01*
X49152380Y-101538095D02*
X48152380Y-101538095D01*
X48152380Y-101157142D01*
X48200000Y-101061904D01*
X48247619Y-101014285D01*
X48342857Y-100966666D01*
X48485714Y-100966666D01*
X48580952Y-101014285D01*
X48628571Y-101061904D01*
X48676190Y-101157142D01*
X48676190Y-101538095D01*
X48247619Y-100585714D02*
X48200000Y-100538095D01*
X48152380Y-100442857D01*
X48152380Y-100204761D01*
X48200000Y-100109523D01*
X48247619Y-100061904D01*
X48342857Y-100014285D01*
X48438095Y-100014285D01*
X48580952Y-100061904D01*
X49152380Y-100633333D01*
X49152380Y-100014285D01*
X134857142Y-95852380D02*
X134523809Y-95376190D01*
X134285714Y-95852380D02*
X134285714Y-94852380D01*
X134666666Y-94852380D01*
X134761904Y-94900000D01*
X134809523Y-94947619D01*
X134857142Y-95042857D01*
X134857142Y-95185714D01*
X134809523Y-95280952D01*
X134761904Y-95328571D01*
X134666666Y-95376190D01*
X134285714Y-95376190D01*
X135809523Y-95852380D02*
X135238095Y-95852380D01*
X135523809Y-95852380D02*
X135523809Y-94852380D01*
X135428571Y-94995238D01*
X135333333Y-95090476D01*
X135238095Y-95138095D01*
X136428571Y-94852380D02*
X136523809Y-94852380D01*
X136619047Y-94900000D01*
X136666666Y-94947619D01*
X136714285Y-95042857D01*
X136761904Y-95233333D01*
X136761904Y-95471428D01*
X136714285Y-95661904D01*
X136666666Y-95757142D01*
X136619047Y-95804761D01*
X136523809Y-95852380D01*
X136428571Y-95852380D01*
X136333333Y-95804761D01*
X136285714Y-95757142D01*
X136238095Y-95661904D01*
X136190476Y-95471428D01*
X136190476Y-95233333D01*
X136238095Y-95042857D01*
X136285714Y-94947619D01*
X136333333Y-94900000D01*
X136428571Y-94852380D01*
X98896190Y-96476190D02*
X99372380Y-96476190D01*
X98372380Y-96809523D02*
X98896190Y-96476190D01*
X98372380Y-96142857D01*
X99372380Y-95285714D02*
X99372380Y-95857142D01*
X99372380Y-95571428D02*
X98372380Y-95571428D01*
X98515238Y-95666666D01*
X98610476Y-95761904D01*
X98658095Y-95857142D01*
X132632142Y-156146666D02*
X132679761Y-156194285D01*
X132727380Y-156337142D01*
X132727380Y-156432380D01*
X132679761Y-156575238D01*
X132584523Y-156670476D01*
X132489285Y-156718095D01*
X132298809Y-156765714D01*
X132155952Y-156765714D01*
X131965476Y-156718095D01*
X131870238Y-156670476D01*
X131775000Y-156575238D01*
X131727380Y-156432380D01*
X131727380Y-156337142D01*
X131775000Y-156194285D01*
X131822619Y-156146666D01*
X131727380Y-155241904D02*
X131727380Y-155718095D01*
X132203571Y-155765714D01*
X132155952Y-155718095D01*
X132108333Y-155622857D01*
X132108333Y-155384761D01*
X132155952Y-155289523D01*
X132203571Y-155241904D01*
X132298809Y-155194285D01*
X132536904Y-155194285D01*
X132632142Y-155241904D01*
X132679761Y-155289523D01*
X132727380Y-155384761D01*
X132727380Y-155622857D01*
X132679761Y-155718095D01*
X132632142Y-155765714D01*
X90957142Y-171666666D02*
X91004761Y-171714285D01*
X91052380Y-171857142D01*
X91052380Y-171952380D01*
X91004761Y-172095238D01*
X90909523Y-172190476D01*
X90814285Y-172238095D01*
X90623809Y-172285714D01*
X90480952Y-172285714D01*
X90290476Y-172238095D01*
X90195238Y-172190476D01*
X90100000Y-172095238D01*
X90052380Y-171952380D01*
X90052380Y-171857142D01*
X90100000Y-171714285D01*
X90147619Y-171666666D01*
X90052380Y-170809523D02*
X90052380Y-171000000D01*
X90100000Y-171095238D01*
X90147619Y-171142857D01*
X90290476Y-171238095D01*
X90480952Y-171285714D01*
X90861904Y-171285714D01*
X90957142Y-171238095D01*
X91004761Y-171190476D01*
X91052380Y-171095238D01*
X91052380Y-170904761D01*
X91004761Y-170809523D01*
X90957142Y-170761904D01*
X90861904Y-170714285D01*
X90623809Y-170714285D01*
X90528571Y-170761904D01*
X90480952Y-170809523D01*
X90433333Y-170904761D01*
X90433333Y-171095238D01*
X90480952Y-171190476D01*
X90528571Y-171238095D01*
X90623809Y-171285714D01*
X57702142Y-151701666D02*
X57749761Y-151749285D01*
X57797380Y-151892142D01*
X57797380Y-151987380D01*
X57749761Y-152130238D01*
X57654523Y-152225476D01*
X57559285Y-152273095D01*
X57368809Y-152320714D01*
X57225952Y-152320714D01*
X57035476Y-152273095D01*
X56940238Y-152225476D01*
X56845000Y-152130238D01*
X56797380Y-151987380D01*
X56797380Y-151892142D01*
X56845000Y-151749285D01*
X56892619Y-151701666D01*
X56797380Y-151368333D02*
X56797380Y-150701666D01*
X57797380Y-151130238D01*
X43732142Y-130746666D02*
X43779761Y-130794285D01*
X43827380Y-130937142D01*
X43827380Y-131032380D01*
X43779761Y-131175238D01*
X43684523Y-131270476D01*
X43589285Y-131318095D01*
X43398809Y-131365714D01*
X43255952Y-131365714D01*
X43065476Y-131318095D01*
X42970238Y-131270476D01*
X42875000Y-131175238D01*
X42827380Y-131032380D01*
X42827380Y-130937142D01*
X42875000Y-130794285D01*
X42922619Y-130746666D01*
X43255952Y-130175238D02*
X43208333Y-130270476D01*
X43160714Y-130318095D01*
X43065476Y-130365714D01*
X43017857Y-130365714D01*
X42922619Y-130318095D01*
X42875000Y-130270476D01*
X42827380Y-130175238D01*
X42827380Y-129984761D01*
X42875000Y-129889523D01*
X42922619Y-129841904D01*
X43017857Y-129794285D01*
X43065476Y-129794285D01*
X43160714Y-129841904D01*
X43208333Y-129889523D01*
X43255952Y-129984761D01*
X43255952Y-130175238D01*
X43303571Y-130270476D01*
X43351190Y-130318095D01*
X43446428Y-130365714D01*
X43636904Y-130365714D01*
X43732142Y-130318095D01*
X43779761Y-130270476D01*
X43827380Y-130175238D01*
X43827380Y-129984761D01*
X43779761Y-129889523D01*
X43732142Y-129841904D01*
X43636904Y-129794285D01*
X43446428Y-129794285D01*
X43351190Y-129841904D01*
X43303571Y-129889523D01*
X43255952Y-129984761D01*
X34457142Y-101416666D02*
X34504761Y-101464285D01*
X34552380Y-101607142D01*
X34552380Y-101702380D01*
X34504761Y-101845238D01*
X34409523Y-101940476D01*
X34314285Y-101988095D01*
X34123809Y-102035714D01*
X33980952Y-102035714D01*
X33790476Y-101988095D01*
X33695238Y-101940476D01*
X33600000Y-101845238D01*
X33552380Y-101702380D01*
X33552380Y-101607142D01*
X33600000Y-101464285D01*
X33647619Y-101416666D01*
X34552380Y-100940476D02*
X34552380Y-100750000D01*
X34504761Y-100654761D01*
X34457142Y-100607142D01*
X34314285Y-100511904D01*
X34123809Y-100464285D01*
X33742857Y-100464285D01*
X33647619Y-100511904D01*
X33600000Y-100559523D01*
X33552380Y-100654761D01*
X33552380Y-100845238D01*
X33600000Y-100940476D01*
X33647619Y-100988095D01*
X33742857Y-101035714D01*
X33980952Y-101035714D01*
X34076190Y-100988095D01*
X34123809Y-100940476D01*
X34171428Y-100845238D01*
X34171428Y-100654761D01*
X34123809Y-100559523D01*
X34076190Y-100511904D01*
X33980952Y-100464285D01*
X40557142Y-73667857D02*
X40604761Y-73715476D01*
X40652380Y-73858333D01*
X40652380Y-73953571D01*
X40604761Y-74096428D01*
X40509523Y-74191666D01*
X40414285Y-74239285D01*
X40223809Y-74286904D01*
X40080952Y-74286904D01*
X39890476Y-74239285D01*
X39795238Y-74191666D01*
X39700000Y-74096428D01*
X39652380Y-73953571D01*
X39652380Y-73858333D01*
X39700000Y-73715476D01*
X39747619Y-73667857D01*
X40652380Y-72715476D02*
X40652380Y-73286904D01*
X40652380Y-73001190D02*
X39652380Y-73001190D01*
X39795238Y-73096428D01*
X39890476Y-73191666D01*
X39938095Y-73286904D01*
X39652380Y-72096428D02*
X39652380Y-72001190D01*
X39700000Y-71905952D01*
X39747619Y-71858333D01*
X39842857Y-71810714D01*
X40033333Y-71763095D01*
X40271428Y-71763095D01*
X40461904Y-71810714D01*
X40557142Y-71858333D01*
X40604761Y-71905952D01*
X40652380Y-72001190D01*
X40652380Y-72096428D01*
X40604761Y-72191666D01*
X40557142Y-72239285D01*
X40461904Y-72286904D01*
X40271428Y-72334523D01*
X40033333Y-72334523D01*
X39842857Y-72286904D01*
X39747619Y-72239285D01*
X39700000Y-72191666D01*
X39652380Y-72096428D01*
X67227142Y-46362857D02*
X67274761Y-46410476D01*
X67322380Y-46553333D01*
X67322380Y-46648571D01*
X67274761Y-46791428D01*
X67179523Y-46886666D01*
X67084285Y-46934285D01*
X66893809Y-46981904D01*
X66750952Y-46981904D01*
X66560476Y-46934285D01*
X66465238Y-46886666D01*
X66370000Y-46791428D01*
X66322380Y-46648571D01*
X66322380Y-46553333D01*
X66370000Y-46410476D01*
X66417619Y-46362857D01*
X67322380Y-45410476D02*
X67322380Y-45981904D01*
X67322380Y-45696190D02*
X66322380Y-45696190D01*
X66465238Y-45791428D01*
X66560476Y-45886666D01*
X66608095Y-45981904D01*
X67322380Y-44458095D02*
X67322380Y-45029523D01*
X67322380Y-44743809D02*
X66322380Y-44743809D01*
X66465238Y-44839047D01*
X66560476Y-44934285D01*
X66608095Y-45029523D01*
X93857142Y-38507142D02*
X93809523Y-38554761D01*
X93666666Y-38602380D01*
X93571428Y-38602380D01*
X93428571Y-38554761D01*
X93333333Y-38459523D01*
X93285714Y-38364285D01*
X93238095Y-38173809D01*
X93238095Y-38030952D01*
X93285714Y-37840476D01*
X93333333Y-37745238D01*
X93428571Y-37650000D01*
X93571428Y-37602380D01*
X93666666Y-37602380D01*
X93809523Y-37650000D01*
X93857142Y-37697619D01*
X94809523Y-38602380D02*
X94238095Y-38602380D01*
X94523809Y-38602380D02*
X94523809Y-37602380D01*
X94428571Y-37745238D01*
X94333333Y-37840476D01*
X94238095Y-37888095D01*
X95190476Y-37697619D02*
X95238095Y-37650000D01*
X95333333Y-37602380D01*
X95571428Y-37602380D01*
X95666666Y-37650000D01*
X95714285Y-37697619D01*
X95761904Y-37792857D01*
X95761904Y-37888095D01*
X95714285Y-38030952D01*
X95142857Y-38602380D01*
X95761904Y-38602380D01*
X140107142Y-114257142D02*
X140059523Y-114304761D01*
X139916666Y-114352380D01*
X139821428Y-114352380D01*
X139678571Y-114304761D01*
X139583333Y-114209523D01*
X139535714Y-114114285D01*
X139488095Y-113923809D01*
X139488095Y-113780952D01*
X139535714Y-113590476D01*
X139583333Y-113495238D01*
X139678571Y-113400000D01*
X139821428Y-113352380D01*
X139916666Y-113352380D01*
X140059523Y-113400000D01*
X140107142Y-113447619D01*
X141059523Y-114352380D02*
X140488095Y-114352380D01*
X140773809Y-114352380D02*
X140773809Y-113352380D01*
X140678571Y-113495238D01*
X140583333Y-113590476D01*
X140488095Y-113638095D01*
X141392857Y-113352380D02*
X142011904Y-113352380D01*
X141678571Y-113733333D01*
X141821428Y-113733333D01*
X141916666Y-113780952D01*
X141964285Y-113828571D01*
X142011904Y-113923809D01*
X142011904Y-114161904D01*
X141964285Y-114257142D01*
X141916666Y-114304761D01*
X141821428Y-114352380D01*
X141535714Y-114352380D01*
X141440476Y-114304761D01*
X141392857Y-114257142D01*
X120607142Y-114507142D02*
X120559523Y-114554761D01*
X120416666Y-114602380D01*
X120321428Y-114602380D01*
X120178571Y-114554761D01*
X120083333Y-114459523D01*
X120035714Y-114364285D01*
X119988095Y-114173809D01*
X119988095Y-114030952D01*
X120035714Y-113840476D01*
X120083333Y-113745238D01*
X120178571Y-113650000D01*
X120321428Y-113602380D01*
X120416666Y-113602380D01*
X120559523Y-113650000D01*
X120607142Y-113697619D01*
X121559523Y-114602380D02*
X120988095Y-114602380D01*
X121273809Y-114602380D02*
X121273809Y-113602380D01*
X121178571Y-113745238D01*
X121083333Y-113840476D01*
X120988095Y-113888095D01*
X121892857Y-113602380D02*
X122559523Y-113602380D01*
X122130952Y-114602380D01*
X159937142Y-101536666D02*
X159984761Y-101584285D01*
X160032380Y-101727142D01*
X160032380Y-101822380D01*
X159984761Y-101965238D01*
X159889523Y-102060476D01*
X159794285Y-102108095D01*
X159603809Y-102155714D01*
X159460952Y-102155714D01*
X159270476Y-102108095D01*
X159175238Y-102060476D01*
X159080000Y-101965238D01*
X159032380Y-101822380D01*
X159032380Y-101727142D01*
X159080000Y-101584285D01*
X159127619Y-101536666D01*
X159032380Y-101203333D02*
X159032380Y-100584285D01*
X159413333Y-100917619D01*
X159413333Y-100774761D01*
X159460952Y-100679523D01*
X159508571Y-100631904D01*
X159603809Y-100584285D01*
X159841904Y-100584285D01*
X159937142Y-100631904D01*
X159984761Y-100679523D01*
X160032380Y-100774761D01*
X160032380Y-101060476D01*
X159984761Y-101155714D01*
X159937142Y-101203333D01*
X70107142Y-86257142D02*
X70059523Y-86304761D01*
X69916666Y-86352380D01*
X69821428Y-86352380D01*
X69678571Y-86304761D01*
X69583333Y-86209523D01*
X69535714Y-86114285D01*
X69488095Y-85923809D01*
X69488095Y-85780952D01*
X69535714Y-85590476D01*
X69583333Y-85495238D01*
X69678571Y-85400000D01*
X69821428Y-85352380D01*
X69916666Y-85352380D01*
X70059523Y-85400000D01*
X70107142Y-85447619D01*
X70488095Y-85447619D02*
X70535714Y-85400000D01*
X70630952Y-85352380D01*
X70869047Y-85352380D01*
X70964285Y-85400000D01*
X71011904Y-85447619D01*
X71059523Y-85542857D01*
X71059523Y-85638095D01*
X71011904Y-85780952D01*
X70440476Y-86352380D01*
X71059523Y-86352380D01*
X71678571Y-85352380D02*
X71773809Y-85352380D01*
X71869047Y-85400000D01*
X71916666Y-85447619D01*
X71964285Y-85542857D01*
X72011904Y-85733333D01*
X72011904Y-85971428D01*
X71964285Y-86161904D01*
X71916666Y-86257142D01*
X71869047Y-86304761D01*
X71773809Y-86352380D01*
X71678571Y-86352380D01*
X71583333Y-86304761D01*
X71535714Y-86257142D01*
X71488095Y-86161904D01*
X71440476Y-85971428D01*
X71440476Y-85733333D01*
X71488095Y-85542857D01*
X71535714Y-85447619D01*
X71583333Y-85400000D01*
X71678571Y-85352380D01*
X78857142Y-86257142D02*
X78809523Y-86304761D01*
X78666666Y-86352380D01*
X78571428Y-86352380D01*
X78428571Y-86304761D01*
X78333333Y-86209523D01*
X78285714Y-86114285D01*
X78238095Y-85923809D01*
X78238095Y-85780952D01*
X78285714Y-85590476D01*
X78333333Y-85495238D01*
X78428571Y-85400000D01*
X78571428Y-85352380D01*
X78666666Y-85352380D01*
X78809523Y-85400000D01*
X78857142Y-85447619D01*
X79238095Y-85447619D02*
X79285714Y-85400000D01*
X79380952Y-85352380D01*
X79619047Y-85352380D01*
X79714285Y-85400000D01*
X79761904Y-85447619D01*
X79809523Y-85542857D01*
X79809523Y-85638095D01*
X79761904Y-85780952D01*
X79190476Y-86352380D01*
X79809523Y-86352380D01*
X80761904Y-86352380D02*
X80190476Y-86352380D01*
X80476190Y-86352380D02*
X80476190Y-85352380D01*
X80380952Y-85495238D01*
X80285714Y-85590476D01*
X80190476Y-85638095D01*
X79107142Y-93257142D02*
X79059523Y-93304761D01*
X78916666Y-93352380D01*
X78821428Y-93352380D01*
X78678571Y-93304761D01*
X78583333Y-93209523D01*
X78535714Y-93114285D01*
X78488095Y-92923809D01*
X78488095Y-92780952D01*
X78535714Y-92590476D01*
X78583333Y-92495238D01*
X78678571Y-92400000D01*
X78821428Y-92352380D01*
X78916666Y-92352380D01*
X79059523Y-92400000D01*
X79107142Y-92447619D01*
X79488095Y-92447619D02*
X79535714Y-92400000D01*
X79630952Y-92352380D01*
X79869047Y-92352380D01*
X79964285Y-92400000D01*
X80011904Y-92447619D01*
X80059523Y-92542857D01*
X80059523Y-92638095D01*
X80011904Y-92780952D01*
X79440476Y-93352380D01*
X80059523Y-93352380D01*
X80440476Y-92447619D02*
X80488095Y-92400000D01*
X80583333Y-92352380D01*
X80821428Y-92352380D01*
X80916666Y-92400000D01*
X80964285Y-92447619D01*
X81011904Y-92542857D01*
X81011904Y-92638095D01*
X80964285Y-92780952D01*
X80392857Y-93352380D01*
X81011904Y-93352380D01*
X95857142Y-79892857D02*
X95904761Y-79940476D01*
X95952380Y-80083333D01*
X95952380Y-80178571D01*
X95904761Y-80321428D01*
X95809523Y-80416666D01*
X95714285Y-80464285D01*
X95523809Y-80511904D01*
X95380952Y-80511904D01*
X95190476Y-80464285D01*
X95095238Y-80416666D01*
X95000000Y-80321428D01*
X94952380Y-80178571D01*
X94952380Y-80083333D01*
X95000000Y-79940476D01*
X95047619Y-79892857D01*
X95047619Y-79511904D02*
X95000000Y-79464285D01*
X94952380Y-79369047D01*
X94952380Y-79130952D01*
X95000000Y-79035714D01*
X95047619Y-78988095D01*
X95142857Y-78940476D01*
X95238095Y-78940476D01*
X95380952Y-78988095D01*
X95952380Y-79559523D01*
X95952380Y-78940476D01*
X94952380Y-78607142D02*
X94952380Y-77988095D01*
X95333333Y-78321428D01*
X95333333Y-78178571D01*
X95380952Y-78083333D01*
X95428571Y-78035714D01*
X95523809Y-77988095D01*
X95761904Y-77988095D01*
X95857142Y-78035714D01*
X95904761Y-78083333D01*
X95952380Y-78178571D01*
X95952380Y-78464285D01*
X95904761Y-78559523D01*
X95857142Y-78607142D01*
X100107142Y-66257142D02*
X100059523Y-66304761D01*
X99916666Y-66352380D01*
X99821428Y-66352380D01*
X99678571Y-66304761D01*
X99583333Y-66209523D01*
X99535714Y-66114285D01*
X99488095Y-65923809D01*
X99488095Y-65780952D01*
X99535714Y-65590476D01*
X99583333Y-65495238D01*
X99678571Y-65400000D01*
X99821428Y-65352380D01*
X99916666Y-65352380D01*
X100059523Y-65400000D01*
X100107142Y-65447619D01*
X100488095Y-65447619D02*
X100535714Y-65400000D01*
X100630952Y-65352380D01*
X100869047Y-65352380D01*
X100964285Y-65400000D01*
X101011904Y-65447619D01*
X101059523Y-65542857D01*
X101059523Y-65638095D01*
X101011904Y-65780952D01*
X100440476Y-66352380D01*
X101059523Y-66352380D01*
X101916666Y-65685714D02*
X101916666Y-66352380D01*
X101678571Y-65304761D02*
X101440476Y-66019047D01*
X102059523Y-66019047D01*
X107857142Y-56857142D02*
X107809523Y-56904761D01*
X107666666Y-56952380D01*
X107571428Y-56952380D01*
X107428571Y-56904761D01*
X107333333Y-56809523D01*
X107285714Y-56714285D01*
X107238095Y-56523809D01*
X107238095Y-56380952D01*
X107285714Y-56190476D01*
X107333333Y-56095238D01*
X107428571Y-56000000D01*
X107571428Y-55952380D01*
X107666666Y-55952380D01*
X107809523Y-56000000D01*
X107857142Y-56047619D01*
X108238095Y-56047619D02*
X108285714Y-56000000D01*
X108380952Y-55952380D01*
X108619047Y-55952380D01*
X108714285Y-56000000D01*
X108761904Y-56047619D01*
X108809523Y-56142857D01*
X108809523Y-56238095D01*
X108761904Y-56380952D01*
X108190476Y-56952380D01*
X108809523Y-56952380D01*
X109714285Y-55952380D02*
X109238095Y-55952380D01*
X109190476Y-56428571D01*
X109238095Y-56380952D01*
X109333333Y-56333333D01*
X109571428Y-56333333D01*
X109666666Y-56380952D01*
X109714285Y-56428571D01*
X109761904Y-56523809D01*
X109761904Y-56761904D01*
X109714285Y-56857142D01*
X109666666Y-56904761D01*
X109571428Y-56952380D01*
X109333333Y-56952380D01*
X109238095Y-56904761D01*
X109190476Y-56857142D01*
X95857142Y-55642857D02*
X95904761Y-55690476D01*
X95952380Y-55833333D01*
X95952380Y-55928571D01*
X95904761Y-56071428D01*
X95809523Y-56166666D01*
X95714285Y-56214285D01*
X95523809Y-56261904D01*
X95380952Y-56261904D01*
X95190476Y-56214285D01*
X95095238Y-56166666D01*
X95000000Y-56071428D01*
X94952380Y-55928571D01*
X94952380Y-55833333D01*
X95000000Y-55690476D01*
X95047619Y-55642857D01*
X95047619Y-55261904D02*
X95000000Y-55214285D01*
X94952380Y-55119047D01*
X94952380Y-54880952D01*
X95000000Y-54785714D01*
X95047619Y-54738095D01*
X95142857Y-54690476D01*
X95238095Y-54690476D01*
X95380952Y-54738095D01*
X95952380Y-55309523D01*
X95952380Y-54690476D01*
X94952380Y-53833333D02*
X94952380Y-54023809D01*
X95000000Y-54119047D01*
X95047619Y-54166666D01*
X95190476Y-54261904D01*
X95380952Y-54309523D01*
X95761904Y-54309523D01*
X95857142Y-54261904D01*
X95904761Y-54214285D01*
X95952380Y-54119047D01*
X95952380Y-53928571D01*
X95904761Y-53833333D01*
X95857142Y-53785714D01*
X95761904Y-53738095D01*
X95523809Y-53738095D01*
X95428571Y-53785714D01*
X95380952Y-53833333D01*
X95333333Y-53928571D01*
X95333333Y-54119047D01*
X95380952Y-54214285D01*
X95428571Y-54261904D01*
X95523809Y-54309523D01*
X107857142Y-51357142D02*
X107809523Y-51404761D01*
X107666666Y-51452380D01*
X107571428Y-51452380D01*
X107428571Y-51404761D01*
X107333333Y-51309523D01*
X107285714Y-51214285D01*
X107238095Y-51023809D01*
X107238095Y-50880952D01*
X107285714Y-50690476D01*
X107333333Y-50595238D01*
X107428571Y-50500000D01*
X107571428Y-50452380D01*
X107666666Y-50452380D01*
X107809523Y-50500000D01*
X107857142Y-50547619D01*
X108238095Y-50547619D02*
X108285714Y-50500000D01*
X108380952Y-50452380D01*
X108619047Y-50452380D01*
X108714285Y-50500000D01*
X108761904Y-50547619D01*
X108809523Y-50642857D01*
X108809523Y-50738095D01*
X108761904Y-50880952D01*
X108190476Y-51452380D01*
X108809523Y-51452380D01*
X109142857Y-50452380D02*
X109809523Y-50452380D01*
X109380952Y-51452380D01*
X103607142Y-44257142D02*
X103559523Y-44304761D01*
X103416666Y-44352380D01*
X103321428Y-44352380D01*
X103178571Y-44304761D01*
X103083333Y-44209523D01*
X103035714Y-44114285D01*
X102988095Y-43923809D01*
X102988095Y-43780952D01*
X103035714Y-43590476D01*
X103083333Y-43495238D01*
X103178571Y-43400000D01*
X103321428Y-43352380D01*
X103416666Y-43352380D01*
X103559523Y-43400000D01*
X103607142Y-43447619D01*
X103988095Y-43447619D02*
X104035714Y-43400000D01*
X104130952Y-43352380D01*
X104369047Y-43352380D01*
X104464285Y-43400000D01*
X104511904Y-43447619D01*
X104559523Y-43542857D01*
X104559523Y-43638095D01*
X104511904Y-43780952D01*
X103940476Y-44352380D01*
X104559523Y-44352380D01*
X105130952Y-43780952D02*
X105035714Y-43733333D01*
X104988095Y-43685714D01*
X104940476Y-43590476D01*
X104940476Y-43542857D01*
X104988095Y-43447619D01*
X105035714Y-43400000D01*
X105130952Y-43352380D01*
X105321428Y-43352380D01*
X105416666Y-43400000D01*
X105464285Y-43447619D01*
X105511904Y-43542857D01*
X105511904Y-43590476D01*
X105464285Y-43685714D01*
X105416666Y-43733333D01*
X105321428Y-43780952D01*
X105130952Y-43780952D01*
X105035714Y-43828571D01*
X104988095Y-43876190D01*
X104940476Y-43971428D01*
X104940476Y-44161904D01*
X104988095Y-44257142D01*
X105035714Y-44304761D01*
X105130952Y-44352380D01*
X105321428Y-44352380D01*
X105416666Y-44304761D01*
X105464285Y-44257142D01*
X105511904Y-44161904D01*
X105511904Y-43971428D01*
X105464285Y-43876190D01*
X105416666Y-43828571D01*
X105321428Y-43780952D01*
X104857142Y-173457142D02*
X104809523Y-173504761D01*
X104666666Y-173552380D01*
X104571428Y-173552380D01*
X104428571Y-173504761D01*
X104333333Y-173409523D01*
X104285714Y-173314285D01*
X104238095Y-173123809D01*
X104238095Y-172980952D01*
X104285714Y-172790476D01*
X104333333Y-172695238D01*
X104428571Y-172600000D01*
X104571428Y-172552380D01*
X104666666Y-172552380D01*
X104809523Y-172600000D01*
X104857142Y-172647619D01*
X105190476Y-172552380D02*
X105809523Y-172552380D01*
X105476190Y-172933333D01*
X105619047Y-172933333D01*
X105714285Y-172980952D01*
X105761904Y-173028571D01*
X105809523Y-173123809D01*
X105809523Y-173361904D01*
X105761904Y-173457142D01*
X105714285Y-173504761D01*
X105619047Y-173552380D01*
X105333333Y-173552380D01*
X105238095Y-173504761D01*
X105190476Y-173457142D01*
X106428571Y-172552380D02*
X106523809Y-172552380D01*
X106619047Y-172600000D01*
X106666666Y-172647619D01*
X106714285Y-172742857D01*
X106761904Y-172933333D01*
X106761904Y-173171428D01*
X106714285Y-173361904D01*
X106666666Y-173457142D01*
X106619047Y-173504761D01*
X106523809Y-173552380D01*
X106428571Y-173552380D01*
X106333333Y-173504761D01*
X106285714Y-173457142D01*
X106238095Y-173361904D01*
X106190476Y-173171428D01*
X106190476Y-172933333D01*
X106238095Y-172742857D01*
X106285714Y-172647619D01*
X106333333Y-172600000D01*
X106428571Y-172552380D01*
X116257142Y-157707142D02*
X116209523Y-157754761D01*
X116066666Y-157802380D01*
X115971428Y-157802380D01*
X115828571Y-157754761D01*
X115733333Y-157659523D01*
X115685714Y-157564285D01*
X115638095Y-157373809D01*
X115638095Y-157230952D01*
X115685714Y-157040476D01*
X115733333Y-156945238D01*
X115828571Y-156850000D01*
X115971428Y-156802380D01*
X116066666Y-156802380D01*
X116209523Y-156850000D01*
X116257142Y-156897619D01*
X116590476Y-156802380D02*
X117209523Y-156802380D01*
X116876190Y-157183333D01*
X117019047Y-157183333D01*
X117114285Y-157230952D01*
X117161904Y-157278571D01*
X117209523Y-157373809D01*
X117209523Y-157611904D01*
X117161904Y-157707142D01*
X117114285Y-157754761D01*
X117019047Y-157802380D01*
X116733333Y-157802380D01*
X116638095Y-157754761D01*
X116590476Y-157707142D01*
X118161904Y-157802380D02*
X117590476Y-157802380D01*
X117876190Y-157802380D02*
X117876190Y-156802380D01*
X117780952Y-156945238D01*
X117685714Y-157040476D01*
X117590476Y-157088095D01*
X126757142Y-94392857D02*
X126804761Y-94440476D01*
X126852380Y-94583333D01*
X126852380Y-94678571D01*
X126804761Y-94821428D01*
X126709523Y-94916666D01*
X126614285Y-94964285D01*
X126423809Y-95011904D01*
X126280952Y-95011904D01*
X126090476Y-94964285D01*
X125995238Y-94916666D01*
X125900000Y-94821428D01*
X125852380Y-94678571D01*
X125852380Y-94583333D01*
X125900000Y-94440476D01*
X125947619Y-94392857D01*
X125852380Y-94059523D02*
X125852380Y-93440476D01*
X126233333Y-93773809D01*
X126233333Y-93630952D01*
X126280952Y-93535714D01*
X126328571Y-93488095D01*
X126423809Y-93440476D01*
X126661904Y-93440476D01*
X126757142Y-93488095D01*
X126804761Y-93535714D01*
X126852380Y-93630952D01*
X126852380Y-93916666D01*
X126804761Y-94011904D01*
X126757142Y-94059523D01*
X125947619Y-93059523D02*
X125900000Y-93011904D01*
X125852380Y-92916666D01*
X125852380Y-92678571D01*
X125900000Y-92583333D01*
X125947619Y-92535714D01*
X126042857Y-92488095D01*
X126138095Y-92488095D01*
X126280952Y-92535714D01*
X126852380Y-93107142D01*
X126852380Y-92488095D01*
X150107142Y-131116666D02*
X150154761Y-131164285D01*
X150202380Y-131307142D01*
X150202380Y-131402380D01*
X150154761Y-131545238D01*
X150059523Y-131640476D01*
X149964285Y-131688095D01*
X149773809Y-131735714D01*
X149630952Y-131735714D01*
X149440476Y-131688095D01*
X149345238Y-131640476D01*
X149250000Y-131545238D01*
X149202380Y-131402380D01*
X149202380Y-131307142D01*
X149250000Y-131164285D01*
X149297619Y-131116666D01*
X149535714Y-130259523D02*
X150202380Y-130259523D01*
X149154761Y-130497619D02*
X149869047Y-130735714D01*
X149869047Y-130116666D01*
X131457142Y-45916666D02*
X131504761Y-45964285D01*
X131552380Y-46107142D01*
X131552380Y-46202380D01*
X131504761Y-46345238D01*
X131409523Y-46440476D01*
X131314285Y-46488095D01*
X131123809Y-46535714D01*
X130980952Y-46535714D01*
X130790476Y-46488095D01*
X130695238Y-46440476D01*
X130600000Y-46345238D01*
X130552380Y-46202380D01*
X130552380Y-46107142D01*
X130600000Y-45964285D01*
X130647619Y-45916666D01*
X131552380Y-44964285D02*
X131552380Y-45535714D01*
X131552380Y-45250000D02*
X130552380Y-45250000D01*
X130695238Y-45345238D01*
X130790476Y-45440476D01*
X130838095Y-45535714D01*
X152957142Y-73416666D02*
X153004761Y-73464285D01*
X153052380Y-73607142D01*
X153052380Y-73702380D01*
X153004761Y-73845238D01*
X152909523Y-73940476D01*
X152814285Y-73988095D01*
X152623809Y-74035714D01*
X152480952Y-74035714D01*
X152290476Y-73988095D01*
X152195238Y-73940476D01*
X152100000Y-73845238D01*
X152052380Y-73702380D01*
X152052380Y-73607142D01*
X152100000Y-73464285D01*
X152147619Y-73416666D01*
X152147619Y-73035714D02*
X152100000Y-72988095D01*
X152052380Y-72892857D01*
X152052380Y-72654761D01*
X152100000Y-72559523D01*
X152147619Y-72511904D01*
X152242857Y-72464285D01*
X152338095Y-72464285D01*
X152480952Y-72511904D01*
X153052380Y-73083333D01*
X153052380Y-72464285D01*
X86357142Y-155852380D02*
X86023809Y-155376190D01*
X85785714Y-155852380D02*
X85785714Y-154852380D01*
X86166666Y-154852380D01*
X86261904Y-154900000D01*
X86309523Y-154947619D01*
X86357142Y-155042857D01*
X86357142Y-155185714D01*
X86309523Y-155280952D01*
X86261904Y-155328571D01*
X86166666Y-155376190D01*
X85785714Y-155376190D01*
X87309523Y-155852380D02*
X86738095Y-155852380D01*
X87023809Y-155852380D02*
X87023809Y-154852380D01*
X86928571Y-154995238D01*
X86833333Y-155090476D01*
X86738095Y-155138095D01*
X88166666Y-154852380D02*
X87976190Y-154852380D01*
X87880952Y-154900000D01*
X87833333Y-154947619D01*
X87738095Y-155090476D01*
X87690476Y-155280952D01*
X87690476Y-155661904D01*
X87738095Y-155757142D01*
X87785714Y-155804761D01*
X87880952Y-155852380D01*
X88071428Y-155852380D01*
X88166666Y-155804761D01*
X88214285Y-155757142D01*
X88261904Y-155661904D01*
X88261904Y-155423809D01*
X88214285Y-155328571D01*
X88166666Y-155280952D01*
X88071428Y-155233333D01*
X87880952Y-155233333D01*
X87785714Y-155280952D01*
X87738095Y-155328571D01*
X87690476Y-155423809D01*
X82357142Y-155952380D02*
X82023809Y-155476190D01*
X81785714Y-155952380D02*
X81785714Y-154952380D01*
X82166666Y-154952380D01*
X82261904Y-155000000D01*
X82309523Y-155047619D01*
X82357142Y-155142857D01*
X82357142Y-155285714D01*
X82309523Y-155380952D01*
X82261904Y-155428571D01*
X82166666Y-155476190D01*
X81785714Y-155476190D01*
X83309523Y-155952380D02*
X82738095Y-155952380D01*
X83023809Y-155952380D02*
X83023809Y-154952380D01*
X82928571Y-155095238D01*
X82833333Y-155190476D01*
X82738095Y-155238095D01*
X84214285Y-154952380D02*
X83738095Y-154952380D01*
X83690476Y-155428571D01*
X83738095Y-155380952D01*
X83833333Y-155333333D01*
X84071428Y-155333333D01*
X84166666Y-155380952D01*
X84214285Y-155428571D01*
X84261904Y-155523809D01*
X84261904Y-155761904D01*
X84214285Y-155857142D01*
X84166666Y-155904761D01*
X84071428Y-155952380D01*
X83833333Y-155952380D01*
X83738095Y-155904761D01*
X83690476Y-155857142D01*
X134957142Y-83552380D02*
X134623809Y-83076190D01*
X134385714Y-83552380D02*
X134385714Y-82552380D01*
X134766666Y-82552380D01*
X134861904Y-82600000D01*
X134909523Y-82647619D01*
X134957142Y-82742857D01*
X134957142Y-82885714D01*
X134909523Y-82980952D01*
X134861904Y-83028571D01*
X134766666Y-83076190D01*
X134385714Y-83076190D01*
X135909523Y-83552380D02*
X135338095Y-83552380D01*
X135623809Y-83552380D02*
X135623809Y-82552380D01*
X135528571Y-82695238D01*
X135433333Y-82790476D01*
X135338095Y-82838095D01*
X136766666Y-82885714D02*
X136766666Y-83552380D01*
X136528571Y-82504761D02*
X136290476Y-83219047D01*
X136909523Y-83219047D01*
X134907142Y-89452380D02*
X134573809Y-88976190D01*
X134335714Y-89452380D02*
X134335714Y-88452380D01*
X134716666Y-88452380D01*
X134811904Y-88500000D01*
X134859523Y-88547619D01*
X134907142Y-88642857D01*
X134907142Y-88785714D01*
X134859523Y-88880952D01*
X134811904Y-88928571D01*
X134716666Y-88976190D01*
X134335714Y-88976190D01*
X135859523Y-89452380D02*
X135288095Y-89452380D01*
X135573809Y-89452380D02*
X135573809Y-88452380D01*
X135478571Y-88595238D01*
X135383333Y-88690476D01*
X135288095Y-88738095D01*
X136192857Y-88452380D02*
X136811904Y-88452380D01*
X136478571Y-88833333D01*
X136621428Y-88833333D01*
X136716666Y-88880952D01*
X136764285Y-88928571D01*
X136811904Y-89023809D01*
X136811904Y-89261904D01*
X136764285Y-89357142D01*
X136716666Y-89404761D01*
X136621428Y-89452380D01*
X136335714Y-89452380D01*
X136240476Y-89404761D01*
X136192857Y-89357142D01*
X82357142Y-152952380D02*
X82023809Y-152476190D01*
X81785714Y-152952380D02*
X81785714Y-151952380D01*
X82166666Y-151952380D01*
X82261904Y-152000000D01*
X82309523Y-152047619D01*
X82357142Y-152142857D01*
X82357142Y-152285714D01*
X82309523Y-152380952D01*
X82261904Y-152428571D01*
X82166666Y-152476190D01*
X81785714Y-152476190D01*
X83309523Y-152952380D02*
X82738095Y-152952380D01*
X83023809Y-152952380D02*
X83023809Y-151952380D01*
X82928571Y-152095238D01*
X82833333Y-152190476D01*
X82738095Y-152238095D01*
X83690476Y-152047619D02*
X83738095Y-152000000D01*
X83833333Y-151952380D01*
X84071428Y-151952380D01*
X84166666Y-152000000D01*
X84214285Y-152047619D01*
X84261904Y-152142857D01*
X84261904Y-152238095D01*
X84214285Y-152380952D01*
X83642857Y-152952380D01*
X84261904Y-152952380D01*
X76352380Y-162566666D02*
X75876190Y-162900000D01*
X76352380Y-163138095D02*
X75352380Y-163138095D01*
X75352380Y-162757142D01*
X75400000Y-162661904D01*
X75447619Y-162614285D01*
X75542857Y-162566666D01*
X75685714Y-162566666D01*
X75780952Y-162614285D01*
X75828571Y-162661904D01*
X75876190Y-162757142D01*
X75876190Y-163138095D01*
X76352380Y-161614285D02*
X76352380Y-162185714D01*
X76352380Y-161900000D02*
X75352380Y-161900000D01*
X75495238Y-161995238D01*
X75590476Y-162090476D01*
X75638095Y-162185714D01*
X134957142Y-101152380D02*
X134623809Y-100676190D01*
X134385714Y-101152380D02*
X134385714Y-100152380D01*
X134766666Y-100152380D01*
X134861904Y-100200000D01*
X134909523Y-100247619D01*
X134957142Y-100342857D01*
X134957142Y-100485714D01*
X134909523Y-100580952D01*
X134861904Y-100628571D01*
X134766666Y-100676190D01*
X134385714Y-100676190D01*
X135909523Y-101152380D02*
X135338095Y-101152380D01*
X135623809Y-101152380D02*
X135623809Y-100152380D01*
X135528571Y-100295238D01*
X135433333Y-100390476D01*
X135338095Y-100438095D01*
X136861904Y-101152380D02*
X136290476Y-101152380D01*
X136576190Y-101152380D02*
X136576190Y-100152380D01*
X136480952Y-100295238D01*
X136385714Y-100390476D01*
X136290476Y-100438095D01*
X81833333Y-122352380D02*
X81500000Y-121876190D01*
X81261904Y-122352380D02*
X81261904Y-121352380D01*
X81642857Y-121352380D01*
X81738095Y-121400000D01*
X81785714Y-121447619D01*
X81833333Y-121542857D01*
X81833333Y-121685714D01*
X81785714Y-121780952D01*
X81738095Y-121828571D01*
X81642857Y-121876190D01*
X81261904Y-121876190D01*
X82214285Y-121447619D02*
X82261904Y-121400000D01*
X82357142Y-121352380D01*
X82595238Y-121352380D01*
X82690476Y-121400000D01*
X82738095Y-121447619D01*
X82785714Y-121542857D01*
X82785714Y-121638095D01*
X82738095Y-121780952D01*
X82166666Y-122352380D01*
X82785714Y-122352380D01*
X127283333Y-83352380D02*
X126950000Y-82876190D01*
X126711904Y-83352380D02*
X126711904Y-82352380D01*
X127092857Y-82352380D01*
X127188095Y-82400000D01*
X127235714Y-82447619D01*
X127283333Y-82542857D01*
X127283333Y-82685714D01*
X127235714Y-82780952D01*
X127188095Y-82828571D01*
X127092857Y-82876190D01*
X126711904Y-82876190D01*
X127616666Y-82352380D02*
X128235714Y-82352380D01*
X127902380Y-82733333D01*
X128045238Y-82733333D01*
X128140476Y-82780952D01*
X128188095Y-82828571D01*
X128235714Y-82923809D01*
X128235714Y-83161904D01*
X128188095Y-83257142D01*
X128140476Y-83304761D01*
X128045238Y-83352380D01*
X127759523Y-83352380D01*
X127664285Y-83304761D01*
X127616666Y-83257142D01*
X86833333Y-161352380D02*
X86500000Y-160876190D01*
X86261904Y-161352380D02*
X86261904Y-160352380D01*
X86642857Y-160352380D01*
X86738095Y-160400000D01*
X86785714Y-160447619D01*
X86833333Y-160542857D01*
X86833333Y-160685714D01*
X86785714Y-160780952D01*
X86738095Y-160828571D01*
X86642857Y-160876190D01*
X86261904Y-160876190D01*
X87738095Y-160352380D02*
X87261904Y-160352380D01*
X87214285Y-160828571D01*
X87261904Y-160780952D01*
X87357142Y-160733333D01*
X87595238Y-160733333D01*
X87690476Y-160780952D01*
X87738095Y-160828571D01*
X87785714Y-160923809D01*
X87785714Y-161161904D01*
X87738095Y-161257142D01*
X87690476Y-161304761D01*
X87595238Y-161352380D01*
X87357142Y-161352380D01*
X87261904Y-161304761D01*
X87214285Y-161257142D01*
X154362380Y-124346666D02*
X153886190Y-124680000D01*
X154362380Y-124918095D02*
X153362380Y-124918095D01*
X153362380Y-124537142D01*
X153410000Y-124441904D01*
X153457619Y-124394285D01*
X153552857Y-124346666D01*
X153695714Y-124346666D01*
X153790952Y-124394285D01*
X153838571Y-124441904D01*
X153886190Y-124537142D01*
X153886190Y-124918095D01*
X153362380Y-123489523D02*
X153362380Y-123680000D01*
X153410000Y-123775238D01*
X153457619Y-123822857D01*
X153600476Y-123918095D01*
X153790952Y-123965714D01*
X154171904Y-123965714D01*
X154267142Y-123918095D01*
X154314761Y-123870476D01*
X154362380Y-123775238D01*
X154362380Y-123584761D01*
X154314761Y-123489523D01*
X154267142Y-123441904D01*
X154171904Y-123394285D01*
X153933809Y-123394285D01*
X153838571Y-123441904D01*
X153790952Y-123489523D01*
X153743333Y-123584761D01*
X153743333Y-123775238D01*
X153790952Y-123870476D01*
X153838571Y-123918095D01*
X153933809Y-123965714D01*
X79283333Y-98852380D02*
X78950000Y-98376190D01*
X78711904Y-98852380D02*
X78711904Y-97852380D01*
X79092857Y-97852380D01*
X79188095Y-97900000D01*
X79235714Y-97947619D01*
X79283333Y-98042857D01*
X79283333Y-98185714D01*
X79235714Y-98280952D01*
X79188095Y-98328571D01*
X79092857Y-98376190D01*
X78711904Y-98376190D01*
X79616666Y-97852380D02*
X80283333Y-97852380D01*
X79854761Y-98852380D01*
X156033333Y-122052380D02*
X155700000Y-121576190D01*
X155461904Y-122052380D02*
X155461904Y-121052380D01*
X155842857Y-121052380D01*
X155938095Y-121100000D01*
X155985714Y-121147619D01*
X156033333Y-121242857D01*
X156033333Y-121385714D01*
X155985714Y-121480952D01*
X155938095Y-121528571D01*
X155842857Y-121576190D01*
X155461904Y-121576190D01*
X156604761Y-121480952D02*
X156509523Y-121433333D01*
X156461904Y-121385714D01*
X156414285Y-121290476D01*
X156414285Y-121242857D01*
X156461904Y-121147619D01*
X156509523Y-121100000D01*
X156604761Y-121052380D01*
X156795238Y-121052380D01*
X156890476Y-121100000D01*
X156938095Y-121147619D01*
X156985714Y-121242857D01*
X156985714Y-121290476D01*
X156938095Y-121385714D01*
X156890476Y-121433333D01*
X156795238Y-121480952D01*
X156604761Y-121480952D01*
X156509523Y-121528571D01*
X156461904Y-121576190D01*
X156414285Y-121671428D01*
X156414285Y-121861904D01*
X156461904Y-121957142D01*
X156509523Y-122004761D01*
X156604761Y-122052380D01*
X156795238Y-122052380D01*
X156890476Y-122004761D01*
X156938095Y-121957142D01*
X156985714Y-121861904D01*
X156985714Y-121671428D01*
X156938095Y-121576190D01*
X156890476Y-121528571D01*
X156795238Y-121480952D01*
X135383333Y-106852380D02*
X135050000Y-106376190D01*
X134811904Y-106852380D02*
X134811904Y-105852380D01*
X135192857Y-105852380D01*
X135288095Y-105900000D01*
X135335714Y-105947619D01*
X135383333Y-106042857D01*
X135383333Y-106185714D01*
X135335714Y-106280952D01*
X135288095Y-106328571D01*
X135192857Y-106376190D01*
X134811904Y-106376190D01*
X135859523Y-106852380D02*
X136050000Y-106852380D01*
X136145238Y-106804761D01*
X136192857Y-106757142D01*
X136288095Y-106614285D01*
X136335714Y-106423809D01*
X136335714Y-106042857D01*
X136288095Y-105947619D01*
X136240476Y-105900000D01*
X136145238Y-105852380D01*
X135954761Y-105852380D01*
X135859523Y-105900000D01*
X135811904Y-105947619D01*
X135764285Y-106042857D01*
X135764285Y-106280952D01*
X135811904Y-106376190D01*
X135859523Y-106423809D01*
X135954761Y-106471428D01*
X136145238Y-106471428D01*
X136240476Y-106423809D01*
X136288095Y-106376190D01*
X136335714Y-106280952D01*
X72951904Y-59722380D02*
X72951904Y-58722380D01*
X73332857Y-58722380D01*
X73428095Y-58770000D01*
X73475714Y-58817619D01*
X73523333Y-58912857D01*
X73523333Y-59055714D01*
X73475714Y-59150952D01*
X73428095Y-59198571D01*
X73332857Y-59246190D01*
X72951904Y-59246190D01*
X73856666Y-58722380D02*
X74475714Y-58722380D01*
X74142380Y-59103333D01*
X74285238Y-59103333D01*
X74380476Y-59150952D01*
X74428095Y-59198571D01*
X74475714Y-59293809D01*
X74475714Y-59531904D01*
X74428095Y-59627142D01*
X74380476Y-59674761D01*
X74285238Y-59722380D01*
X73999523Y-59722380D01*
X73904285Y-59674761D01*
X73856666Y-59627142D01*
X113885714Y-33666666D02*
X114361904Y-33666666D01*
X113790476Y-33952380D02*
X114123809Y-32952380D01*
X114457142Y-33952380D01*
X115314285Y-33952380D02*
X114742857Y-33952380D01*
X115028571Y-33952380D02*
X115028571Y-32952380D01*
X114933333Y-33095238D01*
X114838095Y-33190476D01*
X114742857Y-33238095D01*
X34806904Y-107127380D02*
X34806904Y-106127380D01*
X35187857Y-106127380D01*
X35283095Y-106175000D01*
X35330714Y-106222619D01*
X35378333Y-106317857D01*
X35378333Y-106460714D01*
X35330714Y-106555952D01*
X35283095Y-106603571D01*
X35187857Y-106651190D01*
X34806904Y-106651190D01*
X36330714Y-107127380D02*
X35759285Y-107127380D01*
X36045000Y-107127380D02*
X36045000Y-106127380D01*
X35949761Y-106270238D01*
X35854523Y-106365476D01*
X35759285Y-106413095D01*
X64698095Y-162964761D02*
X64840952Y-163012380D01*
X65079047Y-163012380D01*
X65174285Y-162964761D01*
X65221904Y-162917142D01*
X65269523Y-162821904D01*
X65269523Y-162726666D01*
X65221904Y-162631428D01*
X65174285Y-162583809D01*
X65079047Y-162536190D01*
X64888571Y-162488571D01*
X64793333Y-162440952D01*
X64745714Y-162393333D01*
X64698095Y-162298095D01*
X64698095Y-162202857D01*
X64745714Y-162107619D01*
X64793333Y-162060000D01*
X64888571Y-162012380D01*
X65126666Y-162012380D01*
X65269523Y-162060000D01*
X65698095Y-163012380D02*
X65698095Y-162012380D01*
X66079047Y-162012380D01*
X66174285Y-162060000D01*
X66221904Y-162107619D01*
X66269523Y-162202857D01*
X66269523Y-162345714D01*
X66221904Y-162440952D01*
X66174285Y-162488571D01*
X66079047Y-162536190D01*
X65698095Y-162536190D01*
X67221904Y-163012380D02*
X66650476Y-163012380D01*
X66936190Y-163012380D02*
X66936190Y-162012380D01*
X66840952Y-162155238D01*
X66745714Y-162250476D01*
X66650476Y-162298095D01*
X120561904Y-96677380D02*
X120561904Y-97486904D01*
X120609523Y-97582142D01*
X120657142Y-97629761D01*
X120752380Y-97677380D01*
X120942857Y-97677380D01*
X121038095Y-97629761D01*
X121085714Y-97582142D01*
X121133333Y-97486904D01*
X121133333Y-96677380D01*
X122133333Y-97677380D02*
X121561904Y-97677380D01*
X121847619Y-97677380D02*
X121847619Y-96677380D01*
X121752380Y-96820238D01*
X121657142Y-96915476D01*
X121561904Y-96963095D01*
X122990476Y-97010714D02*
X122990476Y-97677380D01*
X122752380Y-96629761D02*
X122514285Y-97344047D01*
X123133333Y-97344047D01*
D14*
X92056571Y-107443619D02*
X92056571Y-108266095D01*
X92092857Y-108362857D01*
X92129142Y-108411238D01*
X92201714Y-108459619D01*
X92346857Y-108459619D01*
X92419428Y-108411238D01*
X92455714Y-108362857D01*
X92492000Y-108266095D01*
X92492000Y-107443619D01*
X93254000Y-108459619D02*
X92818571Y-108459619D01*
X93036285Y-108459619D02*
X93036285Y-107443619D01*
X92963714Y-107588761D01*
X92891142Y-107685523D01*
X92818571Y-107733904D01*
X93508000Y-107443619D02*
X93979714Y-107443619D01*
X93725714Y-107830666D01*
X93834571Y-107830666D01*
X93907142Y-107879047D01*
X93943428Y-107927428D01*
X93979714Y-108024190D01*
X93979714Y-108266095D01*
X93943428Y-108362857D01*
X93907142Y-108411238D01*
X93834571Y-108459619D01*
X93616857Y-108459619D01*
X93544285Y-108411238D01*
X93508000Y-108362857D01*
X89902428Y-110259619D02*
X89902428Y-109243619D01*
X90156428Y-109969333D01*
X90410428Y-109243619D01*
X90410428Y-110259619D01*
X90773285Y-110259619D02*
X90773285Y-109243619D01*
X91208714Y-110259619D02*
X90882142Y-109679047D01*
X91208714Y-109243619D02*
X90773285Y-109824190D01*
X91462714Y-109243619D02*
X91644142Y-110259619D01*
X91789285Y-109533904D01*
X91934428Y-110259619D01*
X92115857Y-109243619D01*
X92551285Y-109243619D02*
X92623857Y-109243619D01*
X92696428Y-109292000D01*
X92732714Y-109340380D01*
X92769000Y-109437142D01*
X92805285Y-109630666D01*
X92805285Y-109872571D01*
X92769000Y-110066095D01*
X92732714Y-110162857D01*
X92696428Y-110211238D01*
X92623857Y-110259619D01*
X92551285Y-110259619D01*
X92478714Y-110211238D01*
X92442428Y-110162857D01*
X92406142Y-110066095D01*
X92369857Y-109872571D01*
X92369857Y-109630666D01*
X92406142Y-109437142D01*
X92442428Y-109340380D01*
X92478714Y-109292000D01*
X92551285Y-109243619D01*
X93531000Y-110259619D02*
X93095571Y-110259619D01*
X93313285Y-110259619D02*
X93313285Y-109243619D01*
X93240714Y-109388761D01*
X93168142Y-109485523D01*
X93095571Y-109533904D01*
X93785000Y-109243619D02*
X94293000Y-109243619D01*
X93785000Y-110259619D01*
X94293000Y-110259619D01*
X94982428Y-110259619D02*
X94547000Y-110259619D01*
X94764714Y-110259619D02*
X94764714Y-109243619D01*
X94692142Y-109388761D01*
X94619571Y-109485523D01*
X94547000Y-109533904D01*
X95272714Y-109340380D02*
X95309000Y-109292000D01*
X95381571Y-109243619D01*
X95563000Y-109243619D01*
X95635571Y-109292000D01*
X95671857Y-109340380D01*
X95708142Y-109437142D01*
X95708142Y-109533904D01*
X95671857Y-109679047D01*
X95236428Y-110259619D01*
X95708142Y-110259619D01*
X96143571Y-109679047D02*
X96071000Y-109630666D01*
X96034714Y-109582285D01*
X95998428Y-109485523D01*
X95998428Y-109437142D01*
X96034714Y-109340380D01*
X96071000Y-109292000D01*
X96143571Y-109243619D01*
X96288714Y-109243619D01*
X96361285Y-109292000D01*
X96397571Y-109340380D01*
X96433857Y-109437142D01*
X96433857Y-109485523D01*
X96397571Y-109582285D01*
X96361285Y-109630666D01*
X96288714Y-109679047D01*
X96143571Y-109679047D01*
X96071000Y-109727428D01*
X96034714Y-109775809D01*
X95998428Y-109872571D01*
X95998428Y-110066095D01*
X96034714Y-110162857D01*
X96071000Y-110211238D01*
X96143571Y-110259619D01*
X96288714Y-110259619D01*
X96361285Y-110211238D01*
X96397571Y-110162857D01*
X96433857Y-110066095D01*
X96433857Y-109872571D01*
X96397571Y-109775809D01*
X96361285Y-109727428D01*
X96288714Y-109679047D01*
M02*
