M48
;DRILL file {KiCad (2016-12-18 revision 3ffa37c)-master} date Friday, December 30, 2016 'PMt' 10:14:33 PM
;FORMAT={2:4/ absolute / inch / suppress leading zeros}
FMAT,2
INCH,TZ
T1C0.012
T2C0.020
T3C0.026
T4C0.030
T5C0.031
T6C0.039
T7C0.040
%
G90
G05
M72
T1
X11799Y-39154
X11799Y-50368
X14156Y-39370
X14941Y-50737
X20441Y-60165
X22940Y-41309
X26968Y-38636
X27570Y-42562
X28543Y-42381
X28975Y-57874
X29013Y-39808
X30028Y-37380
X31737Y-42364
X32032Y-38329
X32044Y-41437
X32310Y-41240
X32310Y-42523
X33632Y-39862
X33632Y-46989
X33797Y-37895
X33797Y-39466
X33924Y-41881
X33924Y-43258
X34561Y-38706
X34583Y-42335
X34633Y-41624
X34853Y-42051
X34884Y-40059
X34933Y-41066
X34934Y-40623
X34936Y-40846
X34937Y-39665
X35125Y-41781
X35756Y-41976
X36019Y-42165
X36212Y-41920
X36574Y-42866
X36601Y-43875
X36703Y-42193
X36775Y-38253
X36987Y-41939
X37083Y-43666
X37115Y-38299
X37161Y-42427
X37180Y-41837
X37402Y-38463
X37480Y-67520
X37553Y-43055
X37676Y-22563
X37854Y-43339
X37888Y-43007
X37899Y-24024
X38111Y-42933
X38298Y-40846
X38348Y-37401
X38410Y-41939
X38410Y-43495
X38416Y-41574
X38424Y-39911
X38468Y-37205
X38496Y-40954
X38568Y-40453
X38617Y-40183
X39055Y-59134
X39297Y-43666
X40083Y-43875
X40344Y-39587
X41886Y-48612
X42913Y-59134
X43871Y-66014
X44144Y-67253
X46614Y-60866
X46929Y-57244
X47730Y-42146
X47912Y-39027
X47939Y-41634
X47939Y-46215
X49213Y-52308
X49511Y-42625
X49535Y-33465
X50000Y-60917
X50129Y-40981
X50214Y-37200
X50382Y-41016
X50486Y-40610
X50861Y-17973
X51165Y-35809
X52435Y-56803
X52981Y-34069
X53583Y-16693
X54434Y-54625
X54685Y-20276
X55010Y-45257
X55010Y-50671
X55352Y-52308
X55513Y-46007
X55648Y-53742
X56219Y-57994
X62081Y-28101
X62081Y-38922
T3
X34843Y-20563
X34843Y-21063
X34843Y-21563
X34843Y-22063
X34843Y-22563
X35343Y-20563
X35343Y-21063
X35343Y-21563
X35343Y-22063
X35343Y-22563
T4
X24000Y-62500
X27937Y-62500
T5
X28543Y-53150
X28543Y-55512
X28543Y-57874
X31693Y-13780
X32874Y-53150
X32874Y-55512
X32874Y-57874
X37205Y-53150
X37205Y-55512
X41732Y-53150
X49882Y-64764
X52402Y-64803
T6
X15079Y-41240
X15079Y-42087
X15079Y-42933
T7
X20669Y-30291
X20669Y-31291
X20669Y-32291
X20669Y-33291
X20669Y-34291
X20669Y-35291
X20669Y-36291
X20669Y-37291
X20669Y-38291
X20669Y-39291
X20669Y-40291
X20669Y-41291
X20669Y-42291
X20669Y-43291
X20669Y-44291
X20669Y-45291
X20669Y-46291
X20669Y-47291
X20669Y-48291
X20669Y-49291
X21669Y-30291
X21669Y-31291
X21669Y-32291
X21669Y-33291
X21669Y-34291
X21669Y-35291
X21669Y-36291
X21669Y-37291
X21669Y-38291
X21669Y-39291
X21669Y-40291
X21669Y-41291
X21669Y-42291
X21669Y-43291
X21669Y-44291
X21669Y-45291
X21669Y-46291
X21669Y-47291
X21669Y-48291
X21669Y-49291
X30512Y-20835
X30512Y-21835
X30512Y-22835
X30512Y-23835
X30512Y-24835
X30512Y-25835
T2
X44822Y-66026G85X44822Y-66301
G05
X47421Y-66026G85X47421Y-66301
G05
T0
M30
