G04 #@! TF.GenerationSoftware,KiCad,Pcbnew,(2016-12-18 revision 3ffa37c)-master*
G04 #@! TF.CreationDate,2016-12-20T20:39:12-08:00*
G04 #@! TF.ProjectId,badge-kicad,62616467652D6B696361642E6B696361,rev?*
G04 #@! TF.FileFunction,Copper,L3,Inr,Signal*
G04 #@! TF.FilePolarity,Positive*
%FSLAX46Y46*%
G04 Gerber Fmt 4.6, Leading zero omitted, Abs format (unit mm)*
G04 Created by KiCad (PCBNEW (2016-12-18 revision 3ffa37c)-master) date Tuesday, December 20, 2016 'PMt' 08:39:12 PM*
%MOMM*%
%LPD*%
G01*
G04 APERTURE LIST*
%ADD10C,0.150000*%
%ADD11R,1.500000X1.500000*%
%ADD12C,1.500000*%
%ADD13C,1.050000*%
%ADD14R,1.050000X1.050000*%
%ADD15O,1.727200X1.727200*%
%ADD16R,1.727200X1.727200*%
%ADD17O,1.000000X1.550000*%
%ADD18O,1.250000X0.950000*%
%ADD19R,1.727200X2.032000*%
%ADD20O,1.727200X2.032000*%
%ADD21C,1.524000*%
%ADD22C,0.400000*%
%ADD23C,0.800000*%
%ADD24C,0.130000*%
%ADD25C,0.250000*%
G04 APERTURE END LIST*
D10*
D11*
X138250000Y-146250000D03*
X146250000Y-146250000D03*
D12*
X78000000Y-40500000D03*
X78000000Y-47500000D03*
X78040000Y-53910000D03*
X86000000Y-40000000D03*
X76000000Y-141500000D03*
X71000000Y-136000000D03*
X76000000Y-136000000D03*
X69000000Y-141500000D03*
X66000000Y-136000000D03*
D11*
X82000000Y-136000000D03*
D13*
X155230000Y-90500000D03*
X155230000Y-85420000D03*
X155230000Y-86690000D03*
X155230000Y-87960000D03*
X155230000Y-89230000D03*
X156500000Y-85420000D03*
X156500000Y-86690000D03*
X156500000Y-87960000D03*
X156500000Y-89230000D03*
D14*
X156500000Y-90500000D03*
D15*
X55040000Y-76940000D03*
X52500000Y-76940000D03*
X55040000Y-79480000D03*
X52500000Y-79480000D03*
X55040000Y-82020000D03*
X52500000Y-82020000D03*
X55040000Y-84560000D03*
X52500000Y-84560000D03*
X55040000Y-87100000D03*
X52500000Y-87100000D03*
X55040000Y-89640000D03*
X52500000Y-89640000D03*
X55040000Y-92180000D03*
X52500000Y-92180000D03*
X55040000Y-94720000D03*
X52500000Y-94720000D03*
X55040000Y-97260000D03*
X52500000Y-97260000D03*
X55040000Y-99800000D03*
X52500000Y-99800000D03*
X55040000Y-102340000D03*
X52500000Y-102340000D03*
X55040000Y-104880000D03*
X52500000Y-104880000D03*
X55040000Y-107420000D03*
X52500000Y-107420000D03*
X55040000Y-109960000D03*
X52500000Y-109960000D03*
X55040000Y-112500000D03*
X52500000Y-112500000D03*
X55040000Y-115040000D03*
X52500000Y-115040000D03*
X55040000Y-117580000D03*
X52500000Y-117580000D03*
X55040000Y-120120000D03*
X52500000Y-120120000D03*
X55040000Y-122660000D03*
X52500000Y-122660000D03*
X55040000Y-125200000D03*
D16*
X52500000Y-125200000D03*
D17*
X120499100Y-172137460D03*
X113499100Y-172137460D03*
D18*
X119499100Y-169437460D03*
X114499100Y-169437460D03*
D19*
X72000000Y-62500000D03*
D20*
X74540000Y-62500000D03*
X77080000Y-62500000D03*
X79620000Y-62500000D03*
X82160000Y-62500000D03*
X84700000Y-62500000D03*
D21*
X140500000Y-75650000D03*
X140500000Y-73500000D03*
X140500000Y-71350000D03*
X60960000Y-158750000D03*
X70960000Y-158750000D03*
D22*
X137476000Y-49592000D03*
X122236000Y-58482000D03*
X102250000Y-63250000D03*
X102250000Y-61500000D03*
X82100000Y-168700000D03*
X82100000Y-172800000D03*
D23*
X53316000Y-61119900D03*
X124935000Y-138375000D03*
X146398000Y-132200000D03*
X147730000Y-125130000D03*
X143100000Y-48280300D03*
X110639000Y-118786000D03*
X107475000Y-124940000D03*
X119609000Y-162000000D03*
X87571400Y-100124000D03*
X84916200Y-97601100D03*
D22*
X123373000Y-127113000D03*
D23*
X121875000Y-117904000D03*
X150000000Y-139938000D03*
X55040000Y-71919700D03*
X119609000Y-157230000D03*
X103578000Y-75000000D03*
X103578000Y-87196300D03*
X102365000Y-68326200D03*
X77855900Y-96295900D03*
X77855900Y-90636300D03*
X150979000Y-117000000D03*
X154520000Y-103676000D03*
X140212000Y-124879000D03*
X147378000Y-117000000D03*
X57251200Y-47019500D03*
X37539800Y-128290000D03*
X31833700Y-103997000D03*
X49838300Y-131018000D03*
X49838300Y-151660000D03*
X123400000Y-157230000D03*
X76470600Y-101109000D03*
X95074900Y-102436000D03*
X98288900Y-90845400D03*
X99343500Y-98294000D03*
X98361200Y-87032800D03*
X89843200Y-87032800D03*
X88364100Y-97984400D03*
X57721800Y-87533100D03*
D22*
X138500000Y-83250000D03*
D23*
X99373900Y-101753000D03*
D22*
X96034200Y-103191300D03*
D23*
X85521600Y-108207000D03*
X96405600Y-111319000D03*
X96405600Y-106610000D03*
D22*
X94019100Y-107428200D03*
X103110000Y-122757900D03*
X74500000Y-64750000D03*
X107750000Y-58500000D03*
D23*
X93041600Y-104900000D03*
X61784000Y-142302000D03*
X90764000Y-107234000D03*
X86854600Y-103173000D03*
X90024000Y-106549000D03*
D22*
X82250000Y-58500000D03*
X107750000Y-57250000D03*
D23*
X99367700Y-96863000D03*
D22*
X105250000Y-59750000D03*
X79750000Y-59500000D03*
D23*
X99707600Y-95438000D03*
D22*
X153521900Y-90105400D03*
D23*
X88005700Y-102624000D03*
X84040500Y-102432000D03*
X90358200Y-101177000D03*
X86633400Y-95852700D03*
D22*
X113600000Y-114200000D03*
X84000000Y-113200000D03*
X31800000Y-77400000D03*
X37400000Y-61800000D03*
X36600000Y-69800000D03*
X22800000Y-106200000D03*
X94000000Y-152000000D03*
X89750000Y-147500000D03*
D23*
X105824000Y-79741300D03*
X104648000Y-122772000D03*
X87796600Y-95157100D03*
X86525200Y-91899700D03*
X79233100Y-93553100D03*
X79233100Y-87960400D03*
D22*
X95618700Y-107177700D03*
X94149400Y-106574400D03*
X93774900Y-105159900D03*
X97478200Y-109532000D03*
D23*
X107480000Y-77044600D03*
X117670000Y-170742000D03*
D22*
X115300000Y-68000000D03*
X116350000Y-165450000D03*
X78800000Y-116200000D03*
X87000000Y-116200000D03*
X144750000Y-109500000D03*
X144000000Y-130000000D03*
X93000000Y-153750000D03*
D23*
X91763900Y-93183300D03*
X92402700Y-106736000D03*
X100861000Y-102553000D03*
X146050000Y-122555000D03*
X103477000Y-122074000D03*
D22*
X153400000Y-67000000D03*
X153400000Y-75000000D03*
X31000000Y-125750000D03*
X34000000Y-125750000D03*
X95250000Y-33000000D03*
X100000000Y-55250000D03*
D23*
X128405000Y-139380000D03*
D22*
X46308000Y-149734000D03*
X91403600Y-169302700D03*
X32067500Y-129379200D03*
X83250000Y-153500000D03*
X106000000Y-137500000D03*
X99750000Y-158250000D03*
X109000000Y-144250000D03*
X97750000Y-158250000D03*
X111750000Y-162000000D03*
X122700000Y-74000000D03*
D23*
X138385000Y-140457000D03*
X133398000Y-159235000D03*
D22*
X129000000Y-41000000D03*
D23*
X106275000Y-118786000D03*
X90568600Y-99080300D03*
X90568600Y-96070800D03*
X106390000Y-102925000D03*
X101672000Y-101701000D03*
D24*
X150000000Y-139938000D02*
X146250000Y-143688000D01*
X146250000Y-143688000D02*
X146250000Y-146250000D01*
D25*
X121875000Y-117904000D02*
X121875000Y-125615000D01*
X121875000Y-125615000D02*
X123373000Y-127113000D01*
X149860000Y-55040700D02*
X143100000Y-48280300D01*
X149860000Y-73870000D02*
X149860000Y-55040700D01*
X55040000Y-76940000D02*
X55040000Y-71919700D01*
X55040000Y-62843900D02*
X53316000Y-61119900D01*
X55040000Y-71919700D02*
X55040000Y-62843900D01*
X146398000Y-136336000D02*
X146398000Y-132200000D01*
X150000000Y-139938000D02*
X146398000Y-136336000D01*
X119609000Y-162000000D02*
X119609000Y-157230000D01*
X103578000Y-87196300D02*
X103578000Y-75000000D01*
X102365000Y-73787800D02*
X102365000Y-68326200D01*
X103578000Y-75000000D02*
X102365000Y-73787800D01*
X77855900Y-96295900D02*
X77855900Y-90636300D01*
X150979000Y-107216000D02*
X150979000Y-117000000D01*
X154520000Y-103676000D02*
X150979000Y-107216000D01*
X147730000Y-130868000D02*
X147730000Y-125130000D01*
X146398000Y-132200000D02*
X147730000Y-130868000D01*
X147730000Y-117351000D02*
X147378000Y-117000000D01*
X147730000Y-125130000D02*
X147730000Y-117351000D01*
X31833700Y-122584000D02*
X31833700Y-103997000D01*
X37539800Y-128290000D02*
X31833700Y-122584000D01*
X49838300Y-151660000D02*
X49838300Y-131018000D01*
X124935000Y-155695000D02*
X123400000Y-157230000D01*
X124935000Y-138375000D02*
X124935000Y-155695000D01*
X110639000Y-121777000D02*
X110639000Y-118786000D01*
X107475000Y-124940000D02*
X110639000Y-121777000D01*
X87439100Y-100124000D02*
X84916200Y-97601100D01*
X87571400Y-100124000D02*
X87439100Y-100124000D01*
X95074900Y-94059400D02*
X98288900Y-90845400D01*
X95074900Y-102436000D02*
X95074900Y-94059400D01*
X119499000Y-162110000D02*
X119609000Y-162000000D01*
X119499000Y-166174000D02*
X119499000Y-162110000D01*
D24*
X119499100Y-166174100D02*
X119499100Y-169437500D01*
X119499000Y-166174000D02*
X119499100Y-166174100D01*
X157236000Y-87224000D02*
X156500000Y-87960000D01*
X157236000Y-81246000D02*
X157236000Y-87224000D01*
X149860000Y-73870000D02*
X157236000Y-81246000D01*
X114499000Y-169437600D02*
X114499000Y-169438000D01*
X114499100Y-169437500D02*
X114499000Y-169437600D01*
X156500000Y-89230000D02*
X156500000Y-87960000D01*
X159200000Y-98800000D02*
X154520000Y-103676000D01*
X159200000Y-89200000D02*
X159200000Y-98800000D01*
X156579400Y-89230000D02*
X159200000Y-89200000D01*
X156500000Y-89230000D02*
X156579400Y-89230000D01*
X113499100Y-172137500D02*
X113499000Y-172137500D01*
D25*
X113499000Y-171037000D02*
X113499000Y-172137500D01*
X114298000Y-170238000D02*
X113499000Y-171037000D01*
X114499000Y-170238000D02*
X114298000Y-170238000D01*
X114499000Y-169438000D02*
X114499000Y-170238000D01*
X113499000Y-172137500D02*
X113499000Y-172138000D01*
D24*
X120499100Y-172137500D02*
X120499000Y-172137500D01*
D25*
X120499000Y-172138000D02*
X120499000Y-172137500D01*
X119499000Y-170238000D02*
X119499000Y-166174000D01*
X119700000Y-170238000D02*
X119499000Y-170238000D01*
X120499000Y-171037000D02*
X119700000Y-170238000D01*
X120499000Y-172137500D02*
X120499000Y-171037000D01*
X99056700Y-87728300D02*
X98361200Y-87032800D01*
X99056700Y-91454200D02*
X99056700Y-87728300D01*
X98531900Y-91979000D02*
X99056700Y-91454200D01*
X98531900Y-97482400D02*
X98531900Y-91979000D01*
X99343500Y-98294000D02*
X98531900Y-97482400D01*
X89843200Y-96505300D02*
X89843200Y-87032800D01*
X88364100Y-97984400D02*
X89843200Y-96505300D01*
X57721800Y-88643200D02*
X57721800Y-87533100D01*
X55373900Y-90991100D02*
X57721800Y-88643200D01*
X54506200Y-90991100D02*
X55373900Y-90991100D01*
X53688900Y-91808400D02*
X54506200Y-90991100D01*
X53688900Y-92180000D02*
X53688900Y-91808400D01*
X52500000Y-92180000D02*
X53688900Y-92180000D01*
X58497000Y-87280000D02*
X56269800Y-85052800D01*
X58497000Y-88723000D02*
X58497000Y-87280000D01*
X55040000Y-92180000D02*
X58497000Y-88723000D01*
X55411500Y-85911100D02*
X56269800Y-85052800D01*
X55040000Y-85911100D02*
X55411500Y-85911100D01*
X55040000Y-87100000D02*
X55040000Y-85911100D01*
D24*
X78000000Y-47500000D02*
X76089300Y-49410700D01*
D25*
X77263600Y-50585000D02*
X76089300Y-49410700D01*
X78474900Y-50585000D02*
X77263600Y-50585000D01*
X100908000Y-73017800D02*
X78474900Y-50585000D01*
X100908000Y-100219000D02*
X100908000Y-73017800D01*
X99373900Y-101753000D02*
X100908000Y-100219000D01*
X67500000Y-79000000D02*
X56269800Y-85052800D01*
X67429900Y-43821100D02*
X67500000Y-79000000D01*
X67909700Y-43341300D02*
X67429900Y-43821100D01*
X70019900Y-43341300D02*
X67909700Y-43341300D01*
X76089300Y-49410700D02*
X70019900Y-43341300D01*
D24*
X78040000Y-53910000D02*
X78040000Y-55513900D01*
X78040000Y-55513900D02*
X83430000Y-60903900D01*
X83430000Y-60903900D02*
X83430000Y-62943300D01*
X83430000Y-62943300D02*
X100303200Y-79816500D01*
X100303200Y-79816500D02*
X100303200Y-98922300D01*
X100303200Y-98922300D02*
X96034200Y-103191300D01*
D25*
X52500000Y-85748900D02*
X52500000Y-85154400D01*
X52128400Y-85748900D02*
X52500000Y-85748900D01*
X51311100Y-86566200D02*
X52128400Y-85748900D01*
X51311100Y-95229300D02*
X51311100Y-86566200D01*
X52152900Y-96071100D02*
X51311100Y-95229300D01*
X53033800Y-96071100D02*
X52152900Y-96071100D01*
X53851100Y-96888400D02*
X53033800Y-96071100D01*
X53851100Y-97260000D02*
X53851100Y-96888400D01*
X55040000Y-97260000D02*
X53851100Y-97260000D01*
X52500000Y-85154400D02*
X52500000Y-84560000D01*
X75844800Y-98530000D02*
X85521600Y-108207000D01*
X53770000Y-98530000D02*
X75844800Y-98530000D01*
X52500000Y-97260000D02*
X53770000Y-98530000D01*
X96405600Y-106610000D02*
X96405600Y-111319000D01*
D24*
X94019100Y-112980900D02*
X94019100Y-107428200D01*
X71000000Y-136000000D02*
X94019100Y-112980900D01*
X102071000Y-121718900D02*
X103110000Y-122757900D01*
X102071000Y-110998000D02*
X102071000Y-121718900D01*
X96773500Y-105700500D02*
X102071000Y-110998000D01*
X94464200Y-105700500D02*
X96773500Y-105700500D01*
X93702000Y-106462700D02*
X94464200Y-105700500D01*
X93702000Y-107111100D02*
X93702000Y-106462700D01*
X94019100Y-107428200D02*
X93702000Y-107111100D01*
D25*
X93041600Y-95198900D02*
X93041600Y-104900000D01*
X93579700Y-94660800D02*
X93041600Y-95198900D01*
X93579700Y-81539700D02*
X93579700Y-94660800D01*
X74540000Y-62500000D02*
X93579700Y-81539700D01*
X50837900Y-83682100D02*
X52500000Y-82020000D01*
X50837900Y-135350000D02*
X50837900Y-83682100D01*
X61784000Y-142302000D02*
X50837900Y-135350000D01*
X61800100Y-136198000D02*
X90764000Y-107234000D01*
X61784000Y-142302000D02*
X61800100Y-136198000D01*
X53688900Y-94720000D02*
X52500000Y-94720000D01*
X53688900Y-94348500D02*
X53688900Y-94720000D01*
X54508000Y-93529400D02*
X53688900Y-94348500D01*
X72944000Y-93529400D02*
X54508000Y-93529400D01*
X82587200Y-103173000D02*
X72944000Y-93529400D01*
X86854600Y-103173000D02*
X82587200Y-103173000D01*
X86854600Y-103379000D02*
X86854600Y-103173000D01*
X90024000Y-106549000D02*
X86854600Y-103379000D01*
X80774600Y-61114600D02*
X82160000Y-62500000D01*
X79154700Y-61114600D02*
X80774600Y-61114600D01*
X78405100Y-61864200D02*
X79154700Y-61114600D01*
X78405100Y-65048600D02*
X78405100Y-61864200D01*
X99507000Y-86150500D02*
X78405100Y-65048600D01*
X99507000Y-91675100D02*
X99507000Y-86150500D01*
X98982300Y-92199800D02*
X99507000Y-91675100D01*
X98982300Y-96477600D02*
X98982300Y-92199800D01*
X99367700Y-96863000D02*
X98982300Y-96477600D01*
X80808900Y-62500000D02*
X79620000Y-62500000D01*
X80808900Y-66590200D02*
X80808900Y-62500000D01*
X99957300Y-85738600D02*
X80808900Y-66590200D01*
X99957300Y-95188300D02*
X99957300Y-85738600D01*
X99707600Y-95438000D02*
X99957300Y-95188300D01*
D24*
X154397300Y-89230000D02*
X155230000Y-89230000D01*
X153521900Y-90105400D02*
X154397300Y-89230000D01*
D25*
X87814200Y-102432000D02*
X88005700Y-102624000D01*
X84040500Y-102432000D02*
X87814200Y-102432000D01*
X86633400Y-97452400D02*
X86633400Y-95852700D01*
X90358200Y-101177000D02*
X86633400Y-97452400D01*
X107116000Y-81032700D02*
X105824000Y-79741300D01*
X107116000Y-103225000D02*
X107116000Y-81032700D01*
X104648000Y-105693000D02*
X107116000Y-103225000D01*
X104648000Y-122772000D02*
X104648000Y-105693000D01*
X87796600Y-93171100D02*
X87796600Y-95157100D01*
X86525200Y-91899700D02*
X87796600Y-93171100D01*
X79233100Y-87960400D02*
X79233100Y-93553100D01*
D24*
X95618700Y-114881300D02*
X69000000Y-141500000D01*
X95618700Y-107177700D02*
X95618700Y-114881300D01*
X97001000Y-114999000D02*
X76000000Y-136000000D01*
X97001000Y-106307500D02*
X97001000Y-114999000D01*
X96679800Y-105986300D02*
X97001000Y-106307500D01*
X94737500Y-105986300D02*
X96679800Y-105986300D01*
X94149400Y-106574400D02*
X94737500Y-105986300D01*
X93101700Y-108898300D02*
X66000000Y-136000000D01*
X93101700Y-105833100D02*
X93101700Y-108898300D01*
X93774900Y-105159900D02*
X93101700Y-105833100D01*
X82000000Y-136000000D02*
X82945300Y-136000000D01*
X97478200Y-121467100D02*
X82945300Y-136000000D01*
X97478200Y-109532000D02*
X97478200Y-121467100D01*
D25*
X108467000Y-78031700D02*
X107480000Y-77044600D01*
X108467000Y-114993000D02*
X108467000Y-78031700D01*
X117670000Y-124196000D02*
X108467000Y-114993000D01*
X117670000Y-170742000D02*
X117670000Y-124196000D01*
X92665800Y-93183300D02*
X91763900Y-93183300D01*
X93129400Y-93646900D02*
X92665800Y-93183300D01*
X93129400Y-94361400D02*
X93129400Y-93646900D01*
X92316100Y-95174700D02*
X93129400Y-94361400D01*
X92316100Y-106650000D02*
X92316100Y-95174700D01*
X92402700Y-106736000D02*
X92316100Y-106650000D01*
D24*
X91763900Y-84552600D02*
X73437300Y-66226000D01*
X91763900Y-93183300D02*
X91763900Y-84552600D01*
D25*
X77080000Y-62500000D02*
X75891100Y-62500000D01*
D24*
X74655900Y-60713000D02*
X75891100Y-60713000D01*
X73437300Y-61931600D02*
X74655900Y-60713000D01*
X73437300Y-66226000D02*
X73437300Y-61931600D01*
D25*
X75891100Y-62500000D02*
X75891100Y-60713000D01*
X146050000Y-81200000D02*
X146050000Y-122555000D01*
X140500000Y-75650000D02*
X146050000Y-81200000D01*
X103477000Y-105169000D02*
X100861000Y-102553000D01*
X103477000Y-122074000D02*
X103477000Y-105169000D01*
D24*
X103505300Y-122102300D02*
X103477000Y-122074000D01*
X103505300Y-122956600D02*
X103505300Y-122102300D01*
X84961900Y-141500000D02*
X103505300Y-122956600D01*
X76000000Y-141500000D02*
X84961900Y-141500000D01*
X65876700Y-169302700D02*
X46308000Y-149734000D01*
X91403600Y-169302700D02*
X65876700Y-169302700D01*
X32067500Y-135493500D02*
X32067500Y-129379200D01*
X46308000Y-149734000D02*
X32067500Y-135493500D01*
D25*
X90568600Y-99080300D02*
X90568600Y-96070800D01*
X105167000Y-101701000D02*
X101672000Y-101701000D01*
X106390000Y-102925000D02*
X105167000Y-101701000D01*
M02*
