M48
;DRILL file {KiCad (2016-12-18 revision 3ffa37c)-master} date Tuesday, December 20, 2016 'PMt' 08:39:22 PM
;FORMAT={2:4/ absolute / inch / suppress leading zeros}
FMAT,2
INCH,TZ
T1C0.012
T2C0.020
T3C0.022
T4C0.026
T5C0.030
T6C0.031
T7C0.039
T8C0.040
%
G90
G05
M72
T1
X8976Y-41811
X12205Y-49508
X12520Y-30472
X12533Y-40944
X12625Y-50937
X13386Y-49508
X14409Y-27480
X14724Y-24331
X14779Y-50508
X18231Y-58950
X19621Y-51582
X19621Y-59709
X20991Y-24063
X21669Y-28315
X22540Y-18512
X22725Y-34462
X24324Y-56024
X29331Y-25492
X30107Y-39807
X30652Y-35684
X30652Y-37912
X31024Y-45748
X31194Y-34630
X31194Y-36832
X31398Y-23425
X32323Y-66417
X32323Y-68031
X32382Y-23031
X32776Y-60433
X33071Y-44567
X33087Y-40328
X33432Y-38426
X33670Y-42601
X34065Y-36181
X34108Y-37737
X34195Y-40619
X34252Y-45748
X34477Y-39419
X34566Y-37463
X34648Y-40403
X34789Y-38577
X35335Y-58071
X35371Y-34265
X35443Y-41948
X35574Y-39833
X35657Y-37823
X35657Y-39008
X35734Y-42218
X35986Y-66655
X36128Y-36686
X36379Y-42022
X36614Y-60531
X36631Y-41299
X36919Y-41402
X37008Y-59843
X37015Y-42295
X37067Y-41958
X37431Y-40329
X37500Y-12992
X37645Y-42196
X37809Y-40626
X37955Y-41972
X37955Y-43826
X38377Y-43123
X38484Y-62303
X38696Y-35766
X38725Y-34265
X39112Y-38698
X39121Y-38135
X39124Y-40060
X39255Y-37574
X39272Y-62303
X39370Y-21752
X39709Y-40375
X40028Y-40040
X40256Y-24213
X40256Y-24902
X40301Y-26900
X40594Y-48330
X40739Y-48061
X40779Y-29528
X40779Y-34329
X41200Y-48335
X41437Y-23524
X41663Y-31394
X41732Y-54134
X41841Y-46766
X41886Y-40522
X42313Y-49189
X42315Y-30333
X42421Y-22539
X42421Y-23031
X42913Y-56791
X43559Y-46766
X43996Y-63780
X44724Y-44961
X45394Y-26772
X45807Y-65138
X46327Y-67221
X47090Y-61902
X47090Y-63780
X47982Y-46419
X48124Y-23024
X48307Y-29134
X48572Y-50044
X48583Y-61902
X49187Y-54478
X50553Y-54874
X50787Y-16142
X52519Y-62691
X54124Y-19524
X54482Y-55298
X54528Y-32776
X55202Y-49165
X56339Y-19008
X56693Y-51181
X56988Y-43110
X57500Y-48250
X57637Y-52047
X58023Y-46063
X58161Y-49264
X59055Y-55094
X59441Y-46063
X60394Y-26378
X60394Y-29528
X60442Y-35475
X60835Y-40817
T4
X61114Y-33630
X61114Y-34130
X61114Y-34630
X61114Y-35130
X61114Y-35630
X61614Y-33630
X61614Y-34130
X61614Y-34630
X61614Y-35130
X61614Y-35630
T5
X24000Y-62500
X27937Y-62500
T6
X25984Y-53543
X27165Y-55709
X27953Y-53543
X29921Y-53543
X29921Y-55709
X30709Y-15945
X30709Y-18701
X30724Y-21224
X32283Y-53543
X33858Y-15748
X54429Y-57579
X57579Y-57579
T7
X55315Y-28091
X55315Y-28937
X55315Y-29783
T8
X20669Y-30291
X20669Y-31291
X20669Y-32291
X20669Y-33291
X20669Y-34291
X20669Y-35291
X20669Y-36291
X20669Y-37291
X20669Y-38291
X20669Y-39291
X20669Y-40291
X20669Y-41291
X20669Y-42291
X20669Y-43291
X20669Y-44291
X20669Y-45291
X20669Y-46291
X20669Y-47291
X20669Y-48291
X20669Y-49291
X21669Y-30291
X21669Y-31291
X21669Y-32291
X21669Y-33291
X21669Y-34291
X21669Y-35291
X21669Y-36291
X21669Y-37291
X21669Y-38291
X21669Y-39291
X21669Y-40291
X21669Y-41291
X21669Y-42291
X21669Y-43291
X21669Y-44291
X21669Y-45291
X21669Y-46291
X21669Y-47291
X21669Y-48291
X21669Y-49291
X28346Y-24606
X29346Y-24606
X30346Y-24606
X31346Y-24606
X32346Y-24606
X33346Y-24606
T2
X44685Y-67899G85X44685Y-67643
G05
X47441Y-67899G85X47441Y-67643
G05
T3
X45019Y-66708G85X45137Y-66708
G05
X46988Y-66708G85X47106Y-66708
G05
T0
M30
