%FSLAX45Y45*%
G04 Gerber Fmt 4.5, Leading zero omitted, Abs format (unit mm)*
G04 Created by KiCad (PCBNEW (2016-12-18 revision 3ffa37c)-master) date Friday, December 30, 2016 'PMt' 10:14:34 PM*
%MOMM*%
%LPD*%
G01*
G04 APERTURE LIST*
%ADD10C,0.127000*%
%ADD11C,0.150000*%
%ADD12C,0.200000*%
%ADD13C,0.300000*%
G04 APERTURE END LIST*
D10*
D11*
X17254734Y-10293200D02*
G75*
G03X17254734Y-10293200I-7672734J0D01*
G01*
D12*
X2981600Y-9929900D02*
X3012100Y-9960400D01*
X3012100Y-9929900D02*
X2981600Y-9960400D01*
X2981600Y-12778190D02*
X3012100Y-12808690D01*
X3012100Y-12778190D02*
X2981600Y-12808690D01*
X3580280Y-9984750D02*
X3610780Y-10015250D01*
X3610780Y-9984750D02*
X3580280Y-10015250D01*
X3779840Y-12871870D02*
X3810340Y-12902370D01*
X3810340Y-12871870D02*
X3779840Y-12902370D01*
X5176760Y-15266590D02*
X5207260Y-15297090D01*
X5207260Y-15266590D02*
X5176760Y-15297090D01*
X5811410Y-10477150D02*
X5841910Y-10507650D01*
X5841910Y-10477150D02*
X5811410Y-10507650D01*
X6834550Y-9798400D02*
X6865050Y-9828900D01*
X6865050Y-9798400D02*
X6834550Y-9828900D01*
X6987440Y-10795620D02*
X7017940Y-10826120D01*
X7017940Y-10795620D02*
X6987440Y-10826120D01*
X7234750Y-10749400D02*
X7265250Y-10779900D01*
X7265250Y-10749400D02*
X7234750Y-10779900D01*
X7344420Y-14684750D02*
X7374920Y-14715250D01*
X7374920Y-14684750D02*
X7344420Y-14715250D01*
X7354000Y-10095950D02*
X7384500Y-10126450D01*
X7384500Y-10095950D02*
X7354000Y-10126450D01*
X7611770Y-9479350D02*
X7642270Y-9509850D01*
X7642270Y-9479350D02*
X7611770Y-9509850D01*
X8045890Y-10745200D02*
X8076390Y-10775700D01*
X8076390Y-10745200D02*
X8045890Y-10775700D01*
X8120990Y-9720340D02*
X8151490Y-9750840D01*
X8151490Y-9720340D02*
X8120990Y-9750840D01*
X8123920Y-10509740D02*
X8154420Y-10540240D01*
X8154420Y-10509740D02*
X8123920Y-10540240D01*
X8191590Y-10459730D02*
X8222090Y-10490230D01*
X8222090Y-10459730D02*
X8191590Y-10490230D01*
X8191590Y-10785660D02*
X8222090Y-10816160D01*
X8222090Y-10785660D02*
X8191590Y-10816160D01*
X8527210Y-10109770D02*
X8557710Y-10140270D01*
X8557710Y-10109770D02*
X8527210Y-10140270D01*
X8527210Y-11919990D02*
X8557710Y-11950490D01*
X8557710Y-11919990D02*
X8527210Y-11950490D01*
X8569280Y-9610040D02*
X8599780Y-9640540D01*
X8599780Y-9610040D02*
X8569280Y-9640540D01*
X8569280Y-10009000D02*
X8599780Y-10039500D01*
X8599780Y-10009000D02*
X8569280Y-10039500D01*
X8601390Y-10622480D02*
X8631890Y-10652980D01*
X8631890Y-10622480D02*
X8601390Y-10652980D01*
X8601390Y-10972270D02*
X8631890Y-11002770D01*
X8631890Y-10972270D02*
X8601390Y-11002770D01*
X8763140Y-9816080D02*
X8793640Y-9846580D01*
X8793640Y-9816080D02*
X8763140Y-9846580D01*
X8768840Y-10737770D02*
X8799340Y-10768270D01*
X8799340Y-10737770D02*
X8768840Y-10768270D01*
X8781580Y-10557240D02*
X8812080Y-10587740D01*
X8812080Y-10557240D02*
X8781580Y-10587740D01*
X8837370Y-10665660D02*
X8867870Y-10696160D01*
X8867870Y-10665660D02*
X8837370Y-10696160D01*
X8845160Y-10159760D02*
X8875660Y-10190260D01*
X8875660Y-10159760D02*
X8845160Y-10190260D01*
X8857650Y-10415590D02*
X8888150Y-10446090D01*
X8888150Y-10415590D02*
X8857650Y-10446090D01*
X8857990Y-10302980D02*
X8888490Y-10333480D01*
X8888490Y-10302980D02*
X8857990Y-10333480D01*
X8858480Y-10359730D02*
X8888980Y-10390230D01*
X8888980Y-10359730D02*
X8858480Y-10390230D01*
X8858810Y-10059760D02*
X8889310Y-10090260D01*
X8889310Y-10059760D02*
X8858810Y-10090260D01*
X8906570Y-10597090D02*
X8937070Y-10627590D01*
X8937070Y-10597090D02*
X8906570Y-10627590D01*
X9066700Y-10646630D02*
X9097200Y-10677130D01*
X9097200Y-10646630D02*
X9066700Y-10677130D01*
X9133670Y-10694540D02*
X9164170Y-10725040D01*
X9164170Y-10694540D02*
X9133670Y-10725040D01*
X9182700Y-10632520D02*
X9213200Y-10663020D01*
X9213200Y-10632520D02*
X9182700Y-10663020D01*
X9274440Y-10872590D02*
X9304940Y-10903090D01*
X9304940Y-10872590D02*
X9274440Y-10903090D01*
X9281410Y-11128970D02*
X9311910Y-11159470D01*
X9311910Y-11128970D02*
X9281410Y-11159470D01*
X9307220Y-10701800D02*
X9337720Y-10732300D01*
X9337720Y-10701800D02*
X9307220Y-10732300D01*
X9325480Y-9700970D02*
X9355980Y-9731470D01*
X9355980Y-9700970D02*
X9325480Y-9731470D01*
X9379540Y-10637320D02*
X9410040Y-10667820D01*
X9410040Y-10637320D02*
X9379540Y-10667820D01*
X9403780Y-11075830D02*
X9434280Y-11106330D01*
X9434280Y-11075830D02*
X9403780Y-11106330D01*
X9412000Y-9712620D02*
X9442500Y-9743120D01*
X9442500Y-9712620D02*
X9412000Y-9743120D01*
X9423600Y-10761190D02*
X9454100Y-10791690D01*
X9454100Y-10761190D02*
X9423600Y-10791690D01*
X9428510Y-10611270D02*
X9459010Y-10641770D01*
X9459010Y-10611270D02*
X9428510Y-10641770D01*
X9484940Y-9754290D02*
X9515440Y-9784790D01*
X9515440Y-9754290D02*
X9484940Y-9784790D01*
X9504750Y-17134750D02*
X9535250Y-17165250D01*
X9535250Y-17134750D02*
X9504750Y-17165250D01*
X9523150Y-10920720D02*
X9553650Y-10951220D01*
X9553650Y-10920720D02*
X9523150Y-10951220D01*
X9554470Y-5715750D02*
X9584970Y-5746250D01*
X9584970Y-5715750D02*
X9554470Y-5746250D01*
X9599570Y-10992940D02*
X9630070Y-11023440D01*
X9630070Y-10992940D02*
X9599570Y-11023440D01*
X9608330Y-10908590D02*
X9638830Y-10939090D01*
X9638830Y-10908590D02*
X9608330Y-10939090D01*
X9611020Y-6086830D02*
X9641520Y-6117330D01*
X9641520Y-6086830D02*
X9611020Y-6117330D01*
X9664930Y-10889640D02*
X9695430Y-10920140D01*
X9695430Y-10889640D02*
X9664930Y-10920140D01*
X9712390Y-10359730D02*
X9742890Y-10390230D01*
X9742890Y-10359730D02*
X9712390Y-10390230D01*
X9725150Y-9484480D02*
X9755650Y-9514980D01*
X9755650Y-9484480D02*
X9725150Y-9514980D01*
X9740950Y-10637220D02*
X9771450Y-10667720D01*
X9771450Y-10637220D02*
X9740950Y-10667720D01*
X9740950Y-11032470D02*
X9771450Y-11062970D01*
X9771450Y-11032470D02*
X9740950Y-11062970D01*
X9742360Y-10544510D02*
X9772860Y-10575010D01*
X9772860Y-10544510D02*
X9742360Y-10575010D01*
X9744350Y-10122030D02*
X9774850Y-10152530D01*
X9774850Y-10122030D02*
X9744350Y-10152530D01*
X9755510Y-9434750D02*
X9786010Y-9465250D01*
X9786010Y-9434750D02*
X9755510Y-9465250D01*
X9762780Y-10387070D02*
X9793280Y-10417570D01*
X9793280Y-10387070D02*
X9762780Y-10417570D01*
X9781130Y-10259730D02*
X9811630Y-10290230D01*
X9811630Y-10259730D02*
X9781130Y-10290230D01*
X9793400Y-10191130D02*
X9823900Y-10221630D01*
X9823900Y-10191130D02*
X9793400Y-10221630D01*
X9904750Y-15004750D02*
X9935250Y-15035250D01*
X9935250Y-15004750D02*
X9904750Y-15035250D01*
X9966200Y-11075830D02*
X9996700Y-11106330D01*
X9996700Y-11075830D02*
X9966200Y-11106330D01*
X10165760Y-11128970D02*
X10196260Y-11159470D01*
X10196260Y-11128970D02*
X10165760Y-11159470D01*
X10232020Y-10039750D02*
X10262520Y-10070250D01*
X10262520Y-10039750D02*
X10232020Y-10070250D01*
X10623810Y-12332120D02*
X10654310Y-12362620D01*
X10654310Y-12332120D02*
X10623810Y-12362620D01*
X10884750Y-15004750D02*
X10915250Y-15035250D01*
X10915250Y-15004750D02*
X10884750Y-15035250D01*
X11128060Y-16752260D02*
X11158560Y-16782760D01*
X11158560Y-16752260D02*
X11128060Y-16782760D01*
X11197400Y-17066900D02*
X11227900Y-17097400D01*
X11227900Y-17066900D02*
X11197400Y-17097400D01*
X11824750Y-15444750D02*
X11855250Y-15475250D01*
X11855250Y-15444750D02*
X11824750Y-15475250D01*
X11904750Y-14524750D02*
X11935250Y-14555250D01*
X11935250Y-14524750D02*
X11904750Y-14555250D01*
X12108220Y-10689750D02*
X12138720Y-10720250D01*
X12138720Y-10689750D02*
X12108220Y-10720250D01*
X12154410Y-9897710D02*
X12184910Y-9928210D01*
X12184910Y-9897710D02*
X12154410Y-9928210D01*
X12161360Y-10559750D02*
X12191860Y-10590250D01*
X12191860Y-10559750D02*
X12161360Y-10590250D01*
X12161360Y-11723270D02*
X12191860Y-11753770D01*
X12191860Y-11723270D02*
X12161360Y-11753770D01*
X12484750Y-13270990D02*
X12515250Y-13301490D01*
X12515250Y-13270990D02*
X12484750Y-13301490D01*
X12560480Y-10811400D02*
X12590980Y-10841900D01*
X12590980Y-10811400D02*
X12560480Y-10841900D01*
X12566660Y-8484750D02*
X12597160Y-8515250D01*
X12597160Y-8484750D02*
X12566660Y-8515250D01*
X12684750Y-15457750D02*
X12715250Y-15488250D01*
X12715250Y-15457750D02*
X12684750Y-15488250D01*
X12717460Y-10394000D02*
X12747960Y-10424500D01*
X12747960Y-10394000D02*
X12717460Y-10424500D01*
X12739120Y-9433620D02*
X12769620Y-9464120D01*
X12769620Y-9433620D02*
X12739120Y-9464120D01*
X12781800Y-10402820D02*
X12812300Y-10433320D01*
X12812300Y-10402820D02*
X12781800Y-10433320D01*
X12808280Y-10299750D02*
X12838780Y-10330250D01*
X12838780Y-10299750D02*
X12808280Y-10330250D01*
X12903540Y-4549940D02*
X12934040Y-4580440D01*
X12934040Y-4549940D02*
X12903540Y-4580440D01*
X12980560Y-9080230D02*
X13011060Y-9110730D01*
X13011060Y-9080230D02*
X12980560Y-9110730D01*
X13303120Y-14412750D02*
X13333620Y-14443250D01*
X13333620Y-14412750D02*
X13303120Y-14443250D01*
X13441920Y-8638150D02*
X13472420Y-8668650D01*
X13472420Y-8638150D02*
X13441920Y-8668650D01*
X13594750Y-4224750D02*
X13625250Y-4255250D01*
X13625250Y-4224750D02*
X13594750Y-4255250D01*
X13810920Y-13859450D02*
X13841420Y-13889950D01*
X13841420Y-13859450D02*
X13810920Y-13889950D01*
X13874750Y-5134750D02*
X13905250Y-5165250D01*
X13905250Y-5134750D02*
X13874750Y-5165250D01*
X13957400Y-11480070D02*
X13987900Y-11510570D01*
X13987900Y-11480070D02*
X13957400Y-11510570D01*
X13957400Y-12855170D02*
X13987900Y-12885670D01*
X13987900Y-12855170D02*
X13957400Y-12885670D01*
X14044280Y-13270990D02*
X14074780Y-13301490D01*
X14074780Y-13270990D02*
X14044280Y-13301490D01*
X14084950Y-11670590D02*
X14115450Y-11701090D01*
X14115450Y-11670590D02*
X14084950Y-11701090D01*
X14119220Y-13635290D02*
X14149720Y-13665790D01*
X14149720Y-13635290D02*
X14119220Y-13665790D01*
X14264280Y-14715220D02*
X14294780Y-14745720D01*
X14294780Y-14715220D02*
X14264280Y-14745720D01*
X15753440Y-7122400D02*
X15783940Y-7152900D01*
X15783940Y-7122400D02*
X15753440Y-7152900D01*
X15753440Y-9870910D02*
X15783940Y-9901410D01*
X15783940Y-9870910D02*
X15753440Y-9901410D01*
X11409900Y-16805500D02*
G75*
G03X11409900Y-16805500I-25000J0D01*
G01*
X11369900Y-16770500D02*
X11369900Y-16840500D01*
X11399900Y-16770500D02*
X11399900Y-16840500D01*
X11369900Y-16840500D02*
G75*
G03X11399900Y-16840500I15000J0D01*
G01*
X11399900Y-16770500D02*
G75*
G03X11369900Y-16770500I-15000J0D01*
G01*
X12069900Y-16805500D02*
G75*
G03X12069900Y-16805500I-25000J0D01*
G01*
X12029900Y-16770500D02*
X12029900Y-16840500D01*
X12059900Y-16770500D02*
X12059900Y-16840500D01*
X12029900Y-16840500D02*
G75*
G03X12059900Y-16840500I15000J0D01*
G01*
X12059900Y-16770500D02*
G75*
G03X12029900Y-16770500I-15000J0D01*
G01*
X8850000Y-5190500D02*
X8850000Y-5255500D01*
X8817500Y-5223000D02*
X8882500Y-5223000D01*
X8850000Y-5317500D02*
X8850000Y-5382500D01*
X8817500Y-5350000D02*
X8882500Y-5350000D01*
X8850000Y-5444500D02*
X8850000Y-5509500D01*
X8817500Y-5477000D02*
X8882500Y-5477000D01*
X8850000Y-5571500D02*
X8850000Y-5636500D01*
X8817500Y-5604000D02*
X8882500Y-5604000D01*
X8850000Y-5698500D02*
X8850000Y-5763500D01*
X8817500Y-5731000D02*
X8882500Y-5731000D01*
X8977000Y-5190500D02*
X8977000Y-5255500D01*
X8944500Y-5223000D02*
X9009500Y-5223000D01*
X8977000Y-5317500D02*
X8977000Y-5382500D01*
X8944500Y-5350000D02*
X9009500Y-5350000D01*
X8977000Y-5444500D02*
X8977000Y-5509500D01*
X8944500Y-5477000D02*
X9009500Y-5477000D01*
X8977000Y-5571500D02*
X8977000Y-5636500D01*
X8944500Y-5604000D02*
X9009500Y-5604000D01*
X8977000Y-5698500D02*
X8977000Y-5763500D01*
X8944500Y-5731000D02*
X9009500Y-5731000D01*
X6122941Y-15901941D02*
X6122941Y-15848059D01*
X6069059Y-15848059D01*
X6069059Y-15901941D01*
X6122941Y-15901941D01*
X7122941Y-15901941D02*
X7122941Y-15848059D01*
X7069059Y-15848059D01*
X7069059Y-15901941D01*
X7122941Y-15901941D01*
X7250000Y-13540000D02*
X7290000Y-13500000D01*
X7250000Y-13460000D01*
X7210000Y-13500000D01*
X7250000Y-13540000D01*
X7250000Y-14140000D02*
X7290000Y-14100000D01*
X7250000Y-14060000D01*
X7210000Y-14100000D01*
X7250000Y-14140000D01*
X7250000Y-14740000D02*
X7290000Y-14700000D01*
X7250000Y-14660000D01*
X7210000Y-14700000D01*
X7250000Y-14740000D01*
X8050000Y-3540000D02*
X8090000Y-3500000D01*
X8050000Y-3460000D01*
X8010000Y-3500000D01*
X8050000Y-3540000D01*
X8350000Y-13540000D02*
X8390000Y-13500000D01*
X8350000Y-13460000D01*
X8310000Y-13500000D01*
X8350000Y-13540000D01*
X8350000Y-14140000D02*
X8390000Y-14100000D01*
X8350000Y-14060000D01*
X8310000Y-14100000D01*
X8350000Y-14140000D01*
X8350000Y-14740000D02*
X8390000Y-14700000D01*
X8350000Y-14660000D01*
X8310000Y-14700000D01*
X8350000Y-14740000D01*
X9450000Y-13540000D02*
X9490000Y-13500000D01*
X9450000Y-13460000D01*
X9410000Y-13500000D01*
X9450000Y-13540000D01*
X9450000Y-14140000D02*
X9490000Y-14100000D01*
X9450000Y-14060000D01*
X9410000Y-14100000D01*
X9450000Y-14140000D01*
X10600000Y-13540000D02*
X10640000Y-13500000D01*
X10600000Y-13460000D01*
X10560000Y-13500000D01*
X10600000Y-13540000D01*
X12670000Y-16490000D02*
X12710000Y-16450000D01*
X12670000Y-16410000D01*
X12630000Y-16450000D01*
X12670000Y-16490000D01*
X13310000Y-16500000D02*
X13350000Y-16460000D01*
X13310000Y-16420000D01*
X13270000Y-16460000D01*
X13310000Y-16500000D01*
X3780000Y-10425000D02*
X3880000Y-10525000D01*
X3880000Y-10425000D02*
X3780000Y-10525000D01*
X3880000Y-10475000D02*
G75*
G03X3880000Y-10475000I-50000J0D01*
G01*
X3780000Y-10640000D02*
X3880000Y-10740000D01*
X3880000Y-10640000D02*
X3780000Y-10740000D01*
X3880000Y-10690000D02*
G75*
G03X3880000Y-10690000I-50000J0D01*
G01*
X3780000Y-10855000D02*
X3880000Y-10955000D01*
X3880000Y-10855000D02*
X3780000Y-10955000D01*
X3880000Y-10905000D02*
G75*
G03X3880000Y-10905000I-50000J0D01*
G01*
X5199200Y-7643200D02*
X5300800Y-7744800D01*
X5300800Y-7643200D02*
X5199200Y-7744800D01*
X5250000Y-7643200D02*
X5250000Y-7744800D01*
X5199200Y-7694000D02*
X5300800Y-7694000D01*
X5199200Y-7897200D02*
X5300800Y-7998800D01*
X5300800Y-7897200D02*
X5199200Y-7998800D01*
X5250000Y-7897200D02*
X5250000Y-7998800D01*
X5199200Y-7948000D02*
X5300800Y-7948000D01*
X5199200Y-8151200D02*
X5300800Y-8252800D01*
X5300800Y-8151200D02*
X5199200Y-8252800D01*
X5250000Y-8151200D02*
X5250000Y-8252800D01*
X5199200Y-8202000D02*
X5300800Y-8202000D01*
X5199200Y-8405200D02*
X5300800Y-8506800D01*
X5300800Y-8405200D02*
X5199200Y-8506800D01*
X5250000Y-8405200D02*
X5250000Y-8506800D01*
X5199200Y-8456000D02*
X5300800Y-8456000D01*
X5199200Y-8659200D02*
X5300800Y-8760800D01*
X5300800Y-8659200D02*
X5199200Y-8760800D01*
X5250000Y-8659200D02*
X5250000Y-8760800D01*
X5199200Y-8710000D02*
X5300800Y-8710000D01*
X5199200Y-8913200D02*
X5300800Y-9014800D01*
X5300800Y-8913200D02*
X5199200Y-9014800D01*
X5250000Y-8913200D02*
X5250000Y-9014800D01*
X5199200Y-8964000D02*
X5300800Y-8964000D01*
X5199200Y-9167200D02*
X5300800Y-9268800D01*
X5300800Y-9167200D02*
X5199200Y-9268800D01*
X5250000Y-9167200D02*
X5250000Y-9268800D01*
X5199200Y-9218000D02*
X5300800Y-9218000D01*
X5199200Y-9421200D02*
X5300800Y-9522800D01*
X5300800Y-9421200D02*
X5199200Y-9522800D01*
X5250000Y-9421200D02*
X5250000Y-9522800D01*
X5199200Y-9472000D02*
X5300800Y-9472000D01*
X5199200Y-9675200D02*
X5300800Y-9776800D01*
X5300800Y-9675200D02*
X5199200Y-9776800D01*
X5250000Y-9675200D02*
X5250000Y-9776800D01*
X5199200Y-9726000D02*
X5300800Y-9726000D01*
X5199200Y-9929200D02*
X5300800Y-10030800D01*
X5300800Y-9929200D02*
X5199200Y-10030800D01*
X5250000Y-9929200D02*
X5250000Y-10030800D01*
X5199200Y-9980000D02*
X5300800Y-9980000D01*
X5199200Y-10183200D02*
X5300800Y-10284800D01*
X5300800Y-10183200D02*
X5199200Y-10284800D01*
X5250000Y-10183200D02*
X5250000Y-10284800D01*
X5199200Y-10234000D02*
X5300800Y-10234000D01*
X5199200Y-10437200D02*
X5300800Y-10538800D01*
X5300800Y-10437200D02*
X5199200Y-10538800D01*
X5250000Y-10437200D02*
X5250000Y-10538800D01*
X5199200Y-10488000D02*
X5300800Y-10488000D01*
X5199200Y-10691200D02*
X5300800Y-10792800D01*
X5300800Y-10691200D02*
X5199200Y-10792800D01*
X5250000Y-10691200D02*
X5250000Y-10792800D01*
X5199200Y-10742000D02*
X5300800Y-10742000D01*
X5199200Y-10945200D02*
X5300800Y-11046800D01*
X5300800Y-10945200D02*
X5199200Y-11046800D01*
X5250000Y-10945200D02*
X5250000Y-11046800D01*
X5199200Y-10996000D02*
X5300800Y-10996000D01*
X5199200Y-11199200D02*
X5300800Y-11300800D01*
X5300800Y-11199200D02*
X5199200Y-11300800D01*
X5250000Y-11199200D02*
X5250000Y-11300800D01*
X5199200Y-11250000D02*
X5300800Y-11250000D01*
X5199200Y-11453200D02*
X5300800Y-11554800D01*
X5300800Y-11453200D02*
X5199200Y-11554800D01*
X5250000Y-11453200D02*
X5250000Y-11554800D01*
X5199200Y-11504000D02*
X5300800Y-11504000D01*
X5199200Y-11707200D02*
X5300800Y-11808800D01*
X5300800Y-11707200D02*
X5199200Y-11808800D01*
X5250000Y-11707200D02*
X5250000Y-11808800D01*
X5199200Y-11758000D02*
X5300800Y-11758000D01*
X5199200Y-11961200D02*
X5300800Y-12062800D01*
X5300800Y-11961200D02*
X5199200Y-12062800D01*
X5250000Y-11961200D02*
X5250000Y-12062800D01*
X5199200Y-12012000D02*
X5300800Y-12012000D01*
X5199200Y-12215200D02*
X5300800Y-12316800D01*
X5300800Y-12215200D02*
X5199200Y-12316800D01*
X5250000Y-12215200D02*
X5250000Y-12316800D01*
X5199200Y-12266000D02*
X5300800Y-12266000D01*
X5199200Y-12469200D02*
X5300800Y-12570800D01*
X5300800Y-12469200D02*
X5199200Y-12570800D01*
X5250000Y-12469200D02*
X5250000Y-12570800D01*
X5199200Y-12520000D02*
X5300800Y-12520000D01*
X5453200Y-7643200D02*
X5554800Y-7744800D01*
X5554800Y-7643200D02*
X5453200Y-7744800D01*
X5504000Y-7643200D02*
X5504000Y-7744800D01*
X5453200Y-7694000D02*
X5554800Y-7694000D01*
X5453200Y-7897200D02*
X5554800Y-7998800D01*
X5554800Y-7897200D02*
X5453200Y-7998800D01*
X5504000Y-7897200D02*
X5504000Y-7998800D01*
X5453200Y-7948000D02*
X5554800Y-7948000D01*
X5453200Y-8151200D02*
X5554800Y-8252800D01*
X5554800Y-8151200D02*
X5453200Y-8252800D01*
X5504000Y-8151200D02*
X5504000Y-8252800D01*
X5453200Y-8202000D02*
X5554800Y-8202000D01*
X5453200Y-8405200D02*
X5554800Y-8506800D01*
X5554800Y-8405200D02*
X5453200Y-8506800D01*
X5504000Y-8405200D02*
X5504000Y-8506800D01*
X5453200Y-8456000D02*
X5554800Y-8456000D01*
X5453200Y-8659200D02*
X5554800Y-8760800D01*
X5554800Y-8659200D02*
X5453200Y-8760800D01*
X5504000Y-8659200D02*
X5504000Y-8760800D01*
X5453200Y-8710000D02*
X5554800Y-8710000D01*
X5453200Y-8913200D02*
X5554800Y-9014800D01*
X5554800Y-8913200D02*
X5453200Y-9014800D01*
X5504000Y-8913200D02*
X5504000Y-9014800D01*
X5453200Y-8964000D02*
X5554800Y-8964000D01*
X5453200Y-9167200D02*
X5554800Y-9268800D01*
X5554800Y-9167200D02*
X5453200Y-9268800D01*
X5504000Y-9167200D02*
X5504000Y-9268800D01*
X5453200Y-9218000D02*
X5554800Y-9218000D01*
X5453200Y-9421200D02*
X5554800Y-9522800D01*
X5554800Y-9421200D02*
X5453200Y-9522800D01*
X5504000Y-9421200D02*
X5504000Y-9522800D01*
X5453200Y-9472000D02*
X5554800Y-9472000D01*
X5453200Y-9675200D02*
X5554800Y-9776800D01*
X5554800Y-9675200D02*
X5453200Y-9776800D01*
X5504000Y-9675200D02*
X5504000Y-9776800D01*
X5453200Y-9726000D02*
X5554800Y-9726000D01*
X5453200Y-9929200D02*
X5554800Y-10030800D01*
X5554800Y-9929200D02*
X5453200Y-10030800D01*
X5504000Y-9929200D02*
X5504000Y-10030800D01*
X5453200Y-9980000D02*
X5554800Y-9980000D01*
X5453200Y-10183200D02*
X5554800Y-10284800D01*
X5554800Y-10183200D02*
X5453200Y-10284800D01*
X5504000Y-10183200D02*
X5504000Y-10284800D01*
X5453200Y-10234000D02*
X5554800Y-10234000D01*
X5453200Y-10437200D02*
X5554800Y-10538800D01*
X5554800Y-10437200D02*
X5453200Y-10538800D01*
X5504000Y-10437200D02*
X5504000Y-10538800D01*
X5453200Y-10488000D02*
X5554800Y-10488000D01*
X5453200Y-10691200D02*
X5554800Y-10792800D01*
X5554800Y-10691200D02*
X5453200Y-10792800D01*
X5504000Y-10691200D02*
X5504000Y-10792800D01*
X5453200Y-10742000D02*
X5554800Y-10742000D01*
X5453200Y-10945200D02*
X5554800Y-11046800D01*
X5554800Y-10945200D02*
X5453200Y-11046800D01*
X5504000Y-10945200D02*
X5504000Y-11046800D01*
X5453200Y-10996000D02*
X5554800Y-10996000D01*
X5453200Y-11199200D02*
X5554800Y-11300800D01*
X5554800Y-11199200D02*
X5453200Y-11300800D01*
X5504000Y-11199200D02*
X5504000Y-11300800D01*
X5453200Y-11250000D02*
X5554800Y-11250000D01*
X5453200Y-11453200D02*
X5554800Y-11554800D01*
X5554800Y-11453200D02*
X5453200Y-11554800D01*
X5504000Y-11453200D02*
X5504000Y-11554800D01*
X5453200Y-11504000D02*
X5554800Y-11504000D01*
X5453200Y-11707200D02*
X5554800Y-11808800D01*
X5554800Y-11707200D02*
X5453200Y-11808800D01*
X5504000Y-11707200D02*
X5504000Y-11808800D01*
X5453200Y-11758000D02*
X5554800Y-11758000D01*
X5453200Y-11961200D02*
X5554800Y-12062800D01*
X5554800Y-11961200D02*
X5453200Y-12062800D01*
X5504000Y-11961200D02*
X5504000Y-12062800D01*
X5453200Y-12012000D02*
X5554800Y-12012000D01*
X5453200Y-12215200D02*
X5554800Y-12316800D01*
X5554800Y-12215200D02*
X5453200Y-12316800D01*
X5504000Y-12215200D02*
X5504000Y-12316800D01*
X5453200Y-12266000D02*
X5554800Y-12266000D01*
X5453200Y-12469200D02*
X5554800Y-12570800D01*
X5554800Y-12469200D02*
X5453200Y-12570800D01*
X5504000Y-12469200D02*
X5504000Y-12570800D01*
X5453200Y-12520000D02*
X5554800Y-12520000D01*
X7699200Y-5241200D02*
X7800800Y-5342800D01*
X7800800Y-5241200D02*
X7699200Y-5342800D01*
X7750000Y-5241200D02*
X7750000Y-5342800D01*
X7699200Y-5292000D02*
X7800800Y-5292000D01*
X7699200Y-5495200D02*
X7800800Y-5596800D01*
X7800800Y-5495200D02*
X7699200Y-5596800D01*
X7750000Y-5495200D02*
X7750000Y-5596800D01*
X7699200Y-5546000D02*
X7800800Y-5546000D01*
X7699200Y-5749200D02*
X7800800Y-5850800D01*
X7800800Y-5749200D02*
X7699200Y-5850800D01*
X7750000Y-5749200D02*
X7750000Y-5850800D01*
X7699200Y-5800000D02*
X7800800Y-5800000D01*
X7699200Y-6003200D02*
X7800800Y-6104800D01*
X7800800Y-6003200D02*
X7699200Y-6104800D01*
X7750000Y-6003200D02*
X7750000Y-6104800D01*
X7699200Y-6054000D02*
X7800800Y-6054000D01*
X7699200Y-6257200D02*
X7800800Y-6358800D01*
X7800800Y-6257200D02*
X7699200Y-6358800D01*
X7750000Y-6257200D02*
X7750000Y-6358800D01*
X7699200Y-6308000D02*
X7800800Y-6308000D01*
X7699200Y-6511200D02*
X7800800Y-6612800D01*
X7800800Y-6511200D02*
X7699200Y-6612800D01*
X7750000Y-6511200D02*
X7750000Y-6612800D01*
X7699200Y-6562000D02*
X7800800Y-6562000D01*
D13*
X2188194Y-18439149D02*
X2188194Y-18139149D01*
X2259623Y-18139149D01*
X2302480Y-18153434D01*
X2331051Y-18182006D01*
X2345337Y-18210577D01*
X2359623Y-18267720D01*
X2359623Y-18310577D01*
X2345337Y-18367720D01*
X2331051Y-18396291D01*
X2302480Y-18424863D01*
X2259623Y-18439149D01*
X2188194Y-18439149D01*
X2488194Y-18439149D02*
X2488194Y-18239149D01*
X2488194Y-18296291D02*
X2502480Y-18267720D01*
X2516766Y-18253434D01*
X2545337Y-18239149D01*
X2573909Y-18239149D01*
X2673909Y-18439149D02*
X2673909Y-18239149D01*
X2673909Y-18139149D02*
X2659623Y-18153434D01*
X2673909Y-18167720D01*
X2688194Y-18153434D01*
X2673909Y-18139149D01*
X2673909Y-18167720D01*
X2859623Y-18439149D02*
X2831051Y-18424863D01*
X2816766Y-18396291D01*
X2816766Y-18139149D01*
X3016766Y-18439149D02*
X2988194Y-18424863D01*
X2973908Y-18396291D01*
X2973908Y-18139149D01*
X3359623Y-18439149D02*
X3359623Y-18139149D01*
X3459623Y-18353434D01*
X3559623Y-18139149D01*
X3559623Y-18439149D01*
X3831051Y-18439149D02*
X3831051Y-18282006D01*
X3816766Y-18253434D01*
X3788194Y-18239149D01*
X3731051Y-18239149D01*
X3702480Y-18253434D01*
X3831051Y-18424863D02*
X3802480Y-18439149D01*
X3731051Y-18439149D01*
X3702480Y-18424863D01*
X3688194Y-18396291D01*
X3688194Y-18367720D01*
X3702480Y-18339149D01*
X3731051Y-18324863D01*
X3802480Y-18324863D01*
X3831051Y-18310577D01*
X3973908Y-18239149D02*
X3973908Y-18539149D01*
X3973908Y-18253434D02*
X4002480Y-18239149D01*
X4059623Y-18239149D01*
X4088194Y-18253434D01*
X4102480Y-18267720D01*
X4116766Y-18296291D01*
X4116766Y-18382006D01*
X4102480Y-18410577D01*
X4088194Y-18424863D01*
X4059623Y-18439149D01*
X4002480Y-18439149D01*
X3973908Y-18424863D01*
X4245337Y-18410577D02*
X4259623Y-18424863D01*
X4245337Y-18439149D01*
X4231051Y-18424863D01*
X4245337Y-18410577D01*
X4245337Y-18439149D01*
X4245337Y-18253434D02*
X4259623Y-18267720D01*
X4245337Y-18282006D01*
X4231051Y-18267720D01*
X4245337Y-18253434D01*
X4245337Y-18282006D01*
X1871266Y-18918184D02*
X1901766Y-18948684D01*
X1901766Y-18918184D02*
X1871266Y-18948684D01*
X2245337Y-18769149D02*
X2273909Y-18769149D01*
X2302480Y-18783434D01*
X2316766Y-18797720D01*
X2331051Y-18826291D01*
X2345337Y-18883434D01*
X2345337Y-18954863D01*
X2331051Y-19012006D01*
X2316766Y-19040577D01*
X2302480Y-19054863D01*
X2273909Y-19069149D01*
X2245337Y-19069149D01*
X2216766Y-19054863D01*
X2202480Y-19040577D01*
X2188194Y-19012006D01*
X2173909Y-18954863D01*
X2173909Y-18883434D01*
X2188194Y-18826291D01*
X2202480Y-18797720D01*
X2216766Y-18783434D01*
X2245337Y-18769149D01*
X2473909Y-19040577D02*
X2488194Y-19054863D01*
X2473909Y-19069149D01*
X2459623Y-19054863D01*
X2473909Y-19040577D01*
X2473909Y-19069149D01*
X2588194Y-18769149D02*
X2773909Y-18769149D01*
X2673909Y-18883434D01*
X2716766Y-18883434D01*
X2745337Y-18897720D01*
X2759623Y-18912006D01*
X2773909Y-18940577D01*
X2773909Y-19012006D01*
X2759623Y-19040577D01*
X2745337Y-19054863D01*
X2716766Y-19069149D01*
X2631051Y-19069149D01*
X2602480Y-19054863D01*
X2588194Y-19040577D01*
X2959623Y-18769149D02*
X2988194Y-18769149D01*
X3016766Y-18783434D01*
X3031051Y-18797720D01*
X3045337Y-18826291D01*
X3059623Y-18883434D01*
X3059623Y-18954863D01*
X3045337Y-19012006D01*
X3031051Y-19040577D01*
X3016766Y-19054863D01*
X2988194Y-19069149D01*
X2959623Y-19069149D01*
X2931051Y-19054863D01*
X2916766Y-19040577D01*
X2902480Y-19012006D01*
X2888194Y-18954863D01*
X2888194Y-18883434D01*
X2902480Y-18826291D01*
X2916766Y-18797720D01*
X2931051Y-18783434D01*
X2959623Y-18769149D01*
X3188194Y-19069149D02*
X3188194Y-18869149D01*
X3188194Y-18897720D02*
X3202480Y-18883434D01*
X3231051Y-18869149D01*
X3273908Y-18869149D01*
X3302480Y-18883434D01*
X3316766Y-18912006D01*
X3316766Y-19069149D01*
X3316766Y-18912006D02*
X3331051Y-18883434D01*
X3359623Y-18869149D01*
X3402480Y-18869149D01*
X3431051Y-18883434D01*
X3445337Y-18912006D01*
X3445337Y-19069149D01*
X3588194Y-19069149D02*
X3588194Y-18869149D01*
X3588194Y-18897720D02*
X3602480Y-18883434D01*
X3631051Y-18869149D01*
X3673908Y-18869149D01*
X3702480Y-18883434D01*
X3716766Y-18912006D01*
X3716766Y-19069149D01*
X3716766Y-18912006D02*
X3731051Y-18883434D01*
X3759623Y-18869149D01*
X3802480Y-18869149D01*
X3831051Y-18883434D01*
X3845337Y-18912006D01*
X3845337Y-19069149D01*
X4431051Y-18754863D02*
X4173908Y-19140577D01*
X4816766Y-18769149D02*
X4845337Y-18769149D01*
X4873909Y-18783434D01*
X4888194Y-18797720D01*
X4902480Y-18826291D01*
X4916766Y-18883434D01*
X4916766Y-18954863D01*
X4902480Y-19012006D01*
X4888194Y-19040577D01*
X4873909Y-19054863D01*
X4845337Y-19069149D01*
X4816766Y-19069149D01*
X4788194Y-19054863D01*
X4773909Y-19040577D01*
X4759623Y-19012006D01*
X4745337Y-18954863D01*
X4745337Y-18883434D01*
X4759623Y-18826291D01*
X4773909Y-18797720D01*
X4788194Y-18783434D01*
X4816766Y-18769149D01*
X5045337Y-19040577D02*
X5059623Y-19054863D01*
X5045337Y-19069149D01*
X5031051Y-19054863D01*
X5045337Y-19040577D01*
X5045337Y-19069149D01*
X5245337Y-18769149D02*
X5273909Y-18769149D01*
X5302480Y-18783434D01*
X5316766Y-18797720D01*
X5331051Y-18826291D01*
X5345337Y-18883434D01*
X5345337Y-18954863D01*
X5331051Y-19012006D01*
X5316766Y-19040577D01*
X5302480Y-19054863D01*
X5273909Y-19069149D01*
X5245337Y-19069149D01*
X5216766Y-19054863D01*
X5202480Y-19040577D01*
X5188194Y-19012006D01*
X5173909Y-18954863D01*
X5173909Y-18883434D01*
X5188194Y-18826291D01*
X5202480Y-18797720D01*
X5216766Y-18783434D01*
X5245337Y-18769149D01*
X5631051Y-19069149D02*
X5459623Y-19069149D01*
X5545337Y-19069149D02*
X5545337Y-18769149D01*
X5516766Y-18812006D01*
X5488194Y-18840577D01*
X5459623Y-18854863D01*
X5745337Y-18797720D02*
X5759623Y-18783434D01*
X5788194Y-18769149D01*
X5859623Y-18769149D01*
X5888194Y-18783434D01*
X5902480Y-18797720D01*
X5916766Y-18826291D01*
X5916766Y-18854863D01*
X5902480Y-18897720D01*
X5731051Y-19069149D01*
X5916766Y-19069149D01*
X6031051Y-18769149D02*
X6031051Y-18826291D01*
X6145337Y-18769149D02*
X6145337Y-18826291D01*
X6588194Y-19183434D02*
X6573908Y-19169149D01*
X6545337Y-19126291D01*
X6531051Y-19097720D01*
X6516766Y-19054863D01*
X6502480Y-18983434D01*
X6502480Y-18926291D01*
X6516766Y-18854863D01*
X6531051Y-18812006D01*
X6545337Y-18783434D01*
X6573908Y-18740577D01*
X6588194Y-18726291D01*
X6859623Y-19069149D02*
X6688194Y-19069149D01*
X6773908Y-19069149D02*
X6773908Y-18769149D01*
X6745337Y-18812006D01*
X6716766Y-18840577D01*
X6688194Y-18854863D01*
X7045337Y-18769149D02*
X7073908Y-18769149D01*
X7102480Y-18783434D01*
X7116766Y-18797720D01*
X7131051Y-18826291D01*
X7145337Y-18883434D01*
X7145337Y-18954863D01*
X7131051Y-19012006D01*
X7116766Y-19040577D01*
X7102480Y-19054863D01*
X7073908Y-19069149D01*
X7045337Y-19069149D01*
X7016766Y-19054863D01*
X7002480Y-19040577D01*
X6988194Y-19012006D01*
X6973908Y-18954863D01*
X6973908Y-18883434D01*
X6988194Y-18826291D01*
X7002480Y-18797720D01*
X7016766Y-18783434D01*
X7045337Y-18769149D01*
X7331051Y-18769149D02*
X7359623Y-18769149D01*
X7388194Y-18783434D01*
X7402480Y-18797720D01*
X7416766Y-18826291D01*
X7431051Y-18883434D01*
X7431051Y-18954863D01*
X7416766Y-19012006D01*
X7402480Y-19040577D01*
X7388194Y-19054863D01*
X7359623Y-19069149D01*
X7331051Y-19069149D01*
X7302480Y-19054863D01*
X7288194Y-19040577D01*
X7273908Y-19012006D01*
X7259623Y-18954863D01*
X7259623Y-18883434D01*
X7273908Y-18826291D01*
X7288194Y-18797720D01*
X7302480Y-18783434D01*
X7331051Y-18769149D01*
X7788194Y-19069149D02*
X7788194Y-18769149D01*
X7916766Y-19069149D02*
X7916766Y-18912006D01*
X7902480Y-18883434D01*
X7873908Y-18869149D01*
X7831051Y-18869149D01*
X7802480Y-18883434D01*
X7788194Y-18897720D01*
X8102480Y-19069149D02*
X8073908Y-19054863D01*
X8059623Y-19040577D01*
X8045337Y-19012006D01*
X8045337Y-18926291D01*
X8059623Y-18897720D01*
X8073908Y-18883434D01*
X8102480Y-18869149D01*
X8145337Y-18869149D01*
X8173908Y-18883434D01*
X8188194Y-18897720D01*
X8202480Y-18926291D01*
X8202480Y-19012006D01*
X8188194Y-19040577D01*
X8173908Y-19054863D01*
X8145337Y-19069149D01*
X8102480Y-19069149D01*
X8373908Y-19069149D02*
X8345337Y-19054863D01*
X8331051Y-19026291D01*
X8331051Y-18769149D01*
X8602480Y-19054863D02*
X8573909Y-19069149D01*
X8516766Y-19069149D01*
X8488194Y-19054863D01*
X8473909Y-19026291D01*
X8473909Y-18912006D01*
X8488194Y-18883434D01*
X8516766Y-18869149D01*
X8573909Y-18869149D01*
X8602480Y-18883434D01*
X8616766Y-18912006D01*
X8616766Y-18940577D01*
X8473909Y-18969149D01*
X8731051Y-19054863D02*
X8759623Y-19069149D01*
X8816766Y-19069149D01*
X8845337Y-19054863D01*
X8859623Y-19026291D01*
X8859623Y-19012006D01*
X8845337Y-18983434D01*
X8816766Y-18969149D01*
X8773909Y-18969149D01*
X8745337Y-18954863D01*
X8731051Y-18926291D01*
X8731051Y-18912006D01*
X8745337Y-18883434D01*
X8773909Y-18869149D01*
X8816766Y-18869149D01*
X8845337Y-18883434D01*
X8959623Y-19183434D02*
X8973909Y-19169149D01*
X9002480Y-19126291D01*
X9016766Y-19097720D01*
X9031051Y-19054863D01*
X9045337Y-18983434D01*
X9045337Y-18926291D01*
X9031051Y-18854863D01*
X9016766Y-18812006D01*
X9002480Y-18783434D01*
X8973909Y-18740577D01*
X8959623Y-18726291D01*
X1901766Y-19329434D02*
G75*
G03X1901766Y-19329434I-25000J0D01*
G01*
X2245337Y-19165149D02*
X2273909Y-19165149D01*
X2302480Y-19179434D01*
X2316766Y-19193720D01*
X2331051Y-19222291D01*
X2345337Y-19279434D01*
X2345337Y-19350863D01*
X2331051Y-19408006D01*
X2316766Y-19436577D01*
X2302480Y-19450863D01*
X2273909Y-19465149D01*
X2245337Y-19465149D01*
X2216766Y-19450863D01*
X2202480Y-19436577D01*
X2188194Y-19408006D01*
X2173909Y-19350863D01*
X2173909Y-19279434D01*
X2188194Y-19222291D01*
X2202480Y-19193720D01*
X2216766Y-19179434D01*
X2245337Y-19165149D01*
X2473909Y-19436577D02*
X2488194Y-19450863D01*
X2473909Y-19465149D01*
X2459623Y-19450863D01*
X2473909Y-19436577D01*
X2473909Y-19465149D01*
X2759623Y-19165149D02*
X2616766Y-19165149D01*
X2602480Y-19308006D01*
X2616766Y-19293720D01*
X2645337Y-19279434D01*
X2716766Y-19279434D01*
X2745337Y-19293720D01*
X2759623Y-19308006D01*
X2773909Y-19336577D01*
X2773909Y-19408006D01*
X2759623Y-19436577D01*
X2745337Y-19450863D01*
X2716766Y-19465149D01*
X2645337Y-19465149D01*
X2616766Y-19450863D01*
X2602480Y-19436577D01*
X2959623Y-19165149D02*
X2988194Y-19165149D01*
X3016766Y-19179434D01*
X3031051Y-19193720D01*
X3045337Y-19222291D01*
X3059623Y-19279434D01*
X3059623Y-19350863D01*
X3045337Y-19408006D01*
X3031051Y-19436577D01*
X3016766Y-19450863D01*
X2988194Y-19465149D01*
X2959623Y-19465149D01*
X2931051Y-19450863D01*
X2916766Y-19436577D01*
X2902480Y-19408006D01*
X2888194Y-19350863D01*
X2888194Y-19279434D01*
X2902480Y-19222291D01*
X2916766Y-19193720D01*
X2931051Y-19179434D01*
X2959623Y-19165149D01*
X3188194Y-19465149D02*
X3188194Y-19265149D01*
X3188194Y-19293720D02*
X3202480Y-19279434D01*
X3231051Y-19265149D01*
X3273908Y-19265149D01*
X3302480Y-19279434D01*
X3316766Y-19308006D01*
X3316766Y-19465149D01*
X3316766Y-19308006D02*
X3331051Y-19279434D01*
X3359623Y-19265149D01*
X3402480Y-19265149D01*
X3431051Y-19279434D01*
X3445337Y-19308006D01*
X3445337Y-19465149D01*
X3588194Y-19465149D02*
X3588194Y-19265149D01*
X3588194Y-19293720D02*
X3602480Y-19279434D01*
X3631051Y-19265149D01*
X3673908Y-19265149D01*
X3702480Y-19279434D01*
X3716766Y-19308006D01*
X3716766Y-19465149D01*
X3716766Y-19308006D02*
X3731051Y-19279434D01*
X3759623Y-19265149D01*
X3802480Y-19265149D01*
X3831051Y-19279434D01*
X3845337Y-19308006D01*
X3845337Y-19465149D01*
X4431051Y-19150863D02*
X4173908Y-19536577D01*
X4816766Y-19165149D02*
X4845337Y-19165149D01*
X4873909Y-19179434D01*
X4888194Y-19193720D01*
X4902480Y-19222291D01*
X4916766Y-19279434D01*
X4916766Y-19350863D01*
X4902480Y-19408006D01*
X4888194Y-19436577D01*
X4873909Y-19450863D01*
X4845337Y-19465149D01*
X4816766Y-19465149D01*
X4788194Y-19450863D01*
X4773909Y-19436577D01*
X4759623Y-19408006D01*
X4745337Y-19350863D01*
X4745337Y-19279434D01*
X4759623Y-19222291D01*
X4773909Y-19193720D01*
X4788194Y-19179434D01*
X4816766Y-19165149D01*
X5045337Y-19436577D02*
X5059623Y-19450863D01*
X5045337Y-19465149D01*
X5031051Y-19450863D01*
X5045337Y-19436577D01*
X5045337Y-19465149D01*
X5245337Y-19165149D02*
X5273909Y-19165149D01*
X5302480Y-19179434D01*
X5316766Y-19193720D01*
X5331051Y-19222291D01*
X5345337Y-19279434D01*
X5345337Y-19350863D01*
X5331051Y-19408006D01*
X5316766Y-19436577D01*
X5302480Y-19450863D01*
X5273909Y-19465149D01*
X5245337Y-19465149D01*
X5216766Y-19450863D01*
X5202480Y-19436577D01*
X5188194Y-19408006D01*
X5173909Y-19350863D01*
X5173909Y-19279434D01*
X5188194Y-19222291D01*
X5202480Y-19193720D01*
X5216766Y-19179434D01*
X5245337Y-19165149D01*
X5459623Y-19193720D02*
X5473909Y-19179434D01*
X5502480Y-19165149D01*
X5573909Y-19165149D01*
X5602480Y-19179434D01*
X5616766Y-19193720D01*
X5631051Y-19222291D01*
X5631051Y-19250863D01*
X5616766Y-19293720D01*
X5445337Y-19465149D01*
X5631051Y-19465149D01*
X5816766Y-19165149D02*
X5845337Y-19165149D01*
X5873908Y-19179434D01*
X5888194Y-19193720D01*
X5902480Y-19222291D01*
X5916766Y-19279434D01*
X5916766Y-19350863D01*
X5902480Y-19408006D01*
X5888194Y-19436577D01*
X5873908Y-19450863D01*
X5845337Y-19465149D01*
X5816766Y-19465149D01*
X5788194Y-19450863D01*
X5773908Y-19436577D01*
X5759623Y-19408006D01*
X5745337Y-19350863D01*
X5745337Y-19279434D01*
X5759623Y-19222291D01*
X5773908Y-19193720D01*
X5788194Y-19179434D01*
X5816766Y-19165149D01*
X6031051Y-19165149D02*
X6031051Y-19222291D01*
X6145337Y-19165149D02*
X6145337Y-19222291D01*
X6588194Y-19579434D02*
X6573908Y-19565149D01*
X6545337Y-19522291D01*
X6531051Y-19493720D01*
X6516766Y-19450863D01*
X6502480Y-19379434D01*
X6502480Y-19322291D01*
X6516766Y-19250863D01*
X6531051Y-19208006D01*
X6545337Y-19179434D01*
X6573908Y-19136577D01*
X6588194Y-19122291D01*
X6759623Y-19165149D02*
X6788194Y-19165149D01*
X6816766Y-19179434D01*
X6831051Y-19193720D01*
X6845337Y-19222291D01*
X6859623Y-19279434D01*
X6859623Y-19350863D01*
X6845337Y-19408006D01*
X6831051Y-19436577D01*
X6816766Y-19450863D01*
X6788194Y-19465149D01*
X6759623Y-19465149D01*
X6731051Y-19450863D01*
X6716766Y-19436577D01*
X6702480Y-19408006D01*
X6688194Y-19350863D01*
X6688194Y-19279434D01*
X6702480Y-19222291D01*
X6716766Y-19193720D01*
X6731051Y-19179434D01*
X6759623Y-19165149D01*
X7216766Y-19465149D02*
X7216766Y-19165149D01*
X7345337Y-19465149D02*
X7345337Y-19308006D01*
X7331051Y-19279434D01*
X7302480Y-19265149D01*
X7259623Y-19265149D01*
X7231051Y-19279434D01*
X7216766Y-19293720D01*
X7531051Y-19465149D02*
X7502480Y-19450863D01*
X7488194Y-19436577D01*
X7473908Y-19408006D01*
X7473908Y-19322291D01*
X7488194Y-19293720D01*
X7502480Y-19279434D01*
X7531051Y-19265149D01*
X7573908Y-19265149D01*
X7602480Y-19279434D01*
X7616766Y-19293720D01*
X7631051Y-19322291D01*
X7631051Y-19408006D01*
X7616766Y-19436577D01*
X7602480Y-19450863D01*
X7573908Y-19465149D01*
X7531051Y-19465149D01*
X7802480Y-19465149D02*
X7773908Y-19450863D01*
X7759623Y-19422291D01*
X7759623Y-19165149D01*
X8031051Y-19450863D02*
X8002480Y-19465149D01*
X7945337Y-19465149D01*
X7916766Y-19450863D01*
X7902480Y-19422291D01*
X7902480Y-19308006D01*
X7916766Y-19279434D01*
X7945337Y-19265149D01*
X8002480Y-19265149D01*
X8031051Y-19279434D01*
X8045337Y-19308006D01*
X8045337Y-19336577D01*
X7902480Y-19365149D01*
X8159623Y-19450863D02*
X8188194Y-19465149D01*
X8245337Y-19465149D01*
X8273908Y-19450863D01*
X8288194Y-19422291D01*
X8288194Y-19408006D01*
X8273908Y-19379434D01*
X8245337Y-19365149D01*
X8202480Y-19365149D01*
X8173908Y-19350863D01*
X8159623Y-19322291D01*
X8159623Y-19308006D01*
X8173908Y-19279434D01*
X8202480Y-19265149D01*
X8245337Y-19265149D01*
X8273908Y-19279434D01*
X8645337Y-19350863D02*
X8873909Y-19350863D01*
X8759623Y-19465149D02*
X8759623Y-19236577D01*
X9231051Y-19193720D02*
X9245337Y-19179434D01*
X9273909Y-19165149D01*
X9345337Y-19165149D01*
X9373909Y-19179434D01*
X9388194Y-19193720D01*
X9402480Y-19222291D01*
X9402480Y-19250863D01*
X9388194Y-19293720D01*
X9216766Y-19465149D01*
X9402480Y-19465149D01*
X9745337Y-19450863D02*
X9773909Y-19465149D01*
X9831051Y-19465149D01*
X9859623Y-19450863D01*
X9873909Y-19422291D01*
X9873909Y-19408006D01*
X9859623Y-19379434D01*
X9831051Y-19365149D01*
X9788194Y-19365149D01*
X9759623Y-19350863D01*
X9745337Y-19322291D01*
X9745337Y-19308006D01*
X9759623Y-19279434D01*
X9788194Y-19265149D01*
X9831051Y-19265149D01*
X9859623Y-19279434D01*
X10045337Y-19465149D02*
X10016766Y-19450863D01*
X10002480Y-19422291D01*
X10002480Y-19165149D01*
X10202480Y-19465149D02*
X10173909Y-19450863D01*
X10159623Y-19436577D01*
X10145337Y-19408006D01*
X10145337Y-19322291D01*
X10159623Y-19293720D01*
X10173909Y-19279434D01*
X10202480Y-19265149D01*
X10245337Y-19265149D01*
X10273909Y-19279434D01*
X10288194Y-19293720D01*
X10302480Y-19322291D01*
X10302480Y-19408006D01*
X10288194Y-19436577D01*
X10273909Y-19450863D01*
X10245337Y-19465149D01*
X10202480Y-19465149D01*
X10388194Y-19265149D02*
X10502480Y-19265149D01*
X10431051Y-19165149D02*
X10431051Y-19422291D01*
X10445337Y-19450863D01*
X10473909Y-19465149D01*
X10502480Y-19465149D01*
X10588194Y-19450863D02*
X10616766Y-19465149D01*
X10673909Y-19465149D01*
X10702480Y-19450863D01*
X10716766Y-19422291D01*
X10716766Y-19408006D01*
X10702480Y-19379434D01*
X10673909Y-19365149D01*
X10631051Y-19365149D01*
X10602480Y-19350863D01*
X10588194Y-19322291D01*
X10588194Y-19308006D01*
X10602480Y-19279434D01*
X10631051Y-19265149D01*
X10673909Y-19265149D01*
X10702480Y-19279434D01*
X10816766Y-19579434D02*
X10831051Y-19565149D01*
X10859623Y-19522291D01*
X10873909Y-19493720D01*
X10888194Y-19450863D01*
X10902480Y-19379434D01*
X10902480Y-19322291D01*
X10888194Y-19250863D01*
X10873909Y-19208006D01*
X10859623Y-19179434D01*
X10831051Y-19136577D01*
X10816766Y-19122291D01*
X1869266Y-19692934D02*
X1869266Y-19757934D01*
X1836766Y-19725434D02*
X1901766Y-19725434D01*
X2245337Y-19561149D02*
X2273909Y-19561149D01*
X2302480Y-19575434D01*
X2316766Y-19589720D01*
X2331051Y-19618291D01*
X2345337Y-19675434D01*
X2345337Y-19746863D01*
X2331051Y-19804006D01*
X2316766Y-19832577D01*
X2302480Y-19846863D01*
X2273909Y-19861149D01*
X2245337Y-19861149D01*
X2216766Y-19846863D01*
X2202480Y-19832577D01*
X2188194Y-19804006D01*
X2173909Y-19746863D01*
X2173909Y-19675434D01*
X2188194Y-19618291D01*
X2202480Y-19589720D01*
X2216766Y-19575434D01*
X2245337Y-19561149D01*
X2473909Y-19832577D02*
X2488194Y-19846863D01*
X2473909Y-19861149D01*
X2459623Y-19846863D01*
X2473909Y-19832577D01*
X2473909Y-19861149D01*
X2745337Y-19561149D02*
X2688194Y-19561149D01*
X2659623Y-19575434D01*
X2645337Y-19589720D01*
X2616766Y-19632577D01*
X2602480Y-19689720D01*
X2602480Y-19804006D01*
X2616766Y-19832577D01*
X2631051Y-19846863D01*
X2659623Y-19861149D01*
X2716766Y-19861149D01*
X2745337Y-19846863D01*
X2759623Y-19832577D01*
X2773909Y-19804006D01*
X2773909Y-19732577D01*
X2759623Y-19704006D01*
X2745337Y-19689720D01*
X2716766Y-19675434D01*
X2659623Y-19675434D01*
X2631051Y-19689720D01*
X2616766Y-19704006D01*
X2602480Y-19732577D01*
X3045337Y-19561149D02*
X2902480Y-19561149D01*
X2888194Y-19704006D01*
X2902480Y-19689720D01*
X2931051Y-19675434D01*
X3002480Y-19675434D01*
X3031051Y-19689720D01*
X3045337Y-19704006D01*
X3059623Y-19732577D01*
X3059623Y-19804006D01*
X3045337Y-19832577D01*
X3031051Y-19846863D01*
X3002480Y-19861149D01*
X2931051Y-19861149D01*
X2902480Y-19846863D01*
X2888194Y-19832577D01*
X3188194Y-19861149D02*
X3188194Y-19661149D01*
X3188194Y-19689720D02*
X3202480Y-19675434D01*
X3231051Y-19661149D01*
X3273908Y-19661149D01*
X3302480Y-19675434D01*
X3316766Y-19704006D01*
X3316766Y-19861149D01*
X3316766Y-19704006D02*
X3331051Y-19675434D01*
X3359623Y-19661149D01*
X3402480Y-19661149D01*
X3431051Y-19675434D01*
X3445337Y-19704006D01*
X3445337Y-19861149D01*
X3588194Y-19861149D02*
X3588194Y-19661149D01*
X3588194Y-19689720D02*
X3602480Y-19675434D01*
X3631051Y-19661149D01*
X3673908Y-19661149D01*
X3702480Y-19675434D01*
X3716766Y-19704006D01*
X3716766Y-19861149D01*
X3716766Y-19704006D02*
X3731051Y-19675434D01*
X3759623Y-19661149D01*
X3802480Y-19661149D01*
X3831051Y-19675434D01*
X3845337Y-19704006D01*
X3845337Y-19861149D01*
X4431051Y-19546863D02*
X4173908Y-19932577D01*
X4816766Y-19561149D02*
X4845337Y-19561149D01*
X4873909Y-19575434D01*
X4888194Y-19589720D01*
X4902480Y-19618291D01*
X4916766Y-19675434D01*
X4916766Y-19746863D01*
X4902480Y-19804006D01*
X4888194Y-19832577D01*
X4873909Y-19846863D01*
X4845337Y-19861149D01*
X4816766Y-19861149D01*
X4788194Y-19846863D01*
X4773909Y-19832577D01*
X4759623Y-19804006D01*
X4745337Y-19746863D01*
X4745337Y-19675434D01*
X4759623Y-19618291D01*
X4773909Y-19589720D01*
X4788194Y-19575434D01*
X4816766Y-19561149D01*
X5045337Y-19832577D02*
X5059623Y-19846863D01*
X5045337Y-19861149D01*
X5031051Y-19846863D01*
X5045337Y-19832577D01*
X5045337Y-19861149D01*
X5245337Y-19561149D02*
X5273909Y-19561149D01*
X5302480Y-19575434D01*
X5316766Y-19589720D01*
X5331051Y-19618291D01*
X5345337Y-19675434D01*
X5345337Y-19746863D01*
X5331051Y-19804006D01*
X5316766Y-19832577D01*
X5302480Y-19846863D01*
X5273909Y-19861149D01*
X5245337Y-19861149D01*
X5216766Y-19846863D01*
X5202480Y-19832577D01*
X5188194Y-19804006D01*
X5173909Y-19746863D01*
X5173909Y-19675434D01*
X5188194Y-19618291D01*
X5202480Y-19589720D01*
X5216766Y-19575434D01*
X5245337Y-19561149D01*
X5459623Y-19589720D02*
X5473909Y-19575434D01*
X5502480Y-19561149D01*
X5573909Y-19561149D01*
X5602480Y-19575434D01*
X5616766Y-19589720D01*
X5631051Y-19618291D01*
X5631051Y-19646863D01*
X5616766Y-19689720D01*
X5445337Y-19861149D01*
X5631051Y-19861149D01*
X5888194Y-19561149D02*
X5831051Y-19561149D01*
X5802480Y-19575434D01*
X5788194Y-19589720D01*
X5759623Y-19632577D01*
X5745337Y-19689720D01*
X5745337Y-19804006D01*
X5759623Y-19832577D01*
X5773908Y-19846863D01*
X5802480Y-19861149D01*
X5859623Y-19861149D01*
X5888194Y-19846863D01*
X5902480Y-19832577D01*
X5916766Y-19804006D01*
X5916766Y-19732577D01*
X5902480Y-19704006D01*
X5888194Y-19689720D01*
X5859623Y-19675434D01*
X5802480Y-19675434D01*
X5773908Y-19689720D01*
X5759623Y-19704006D01*
X5745337Y-19732577D01*
X6031051Y-19561149D02*
X6031051Y-19618291D01*
X6145337Y-19561149D02*
X6145337Y-19618291D01*
X6588194Y-19975434D02*
X6573908Y-19961149D01*
X6545337Y-19918291D01*
X6531051Y-19889720D01*
X6516766Y-19846863D01*
X6502480Y-19775434D01*
X6502480Y-19718291D01*
X6516766Y-19646863D01*
X6531051Y-19604006D01*
X6545337Y-19575434D01*
X6573908Y-19532577D01*
X6588194Y-19518291D01*
X6859623Y-19861149D02*
X6688194Y-19861149D01*
X6773908Y-19861149D02*
X6773908Y-19561149D01*
X6745337Y-19604006D01*
X6716766Y-19632577D01*
X6688194Y-19646863D01*
X7045337Y-19561149D02*
X7073908Y-19561149D01*
X7102480Y-19575434D01*
X7116766Y-19589720D01*
X7131051Y-19618291D01*
X7145337Y-19675434D01*
X7145337Y-19746863D01*
X7131051Y-19804006D01*
X7116766Y-19832577D01*
X7102480Y-19846863D01*
X7073908Y-19861149D01*
X7045337Y-19861149D01*
X7016766Y-19846863D01*
X7002480Y-19832577D01*
X6988194Y-19804006D01*
X6973908Y-19746863D01*
X6973908Y-19675434D01*
X6988194Y-19618291D01*
X7002480Y-19589720D01*
X7016766Y-19575434D01*
X7045337Y-19561149D01*
X7502480Y-19861149D02*
X7502480Y-19561149D01*
X7631051Y-19861149D02*
X7631051Y-19704006D01*
X7616766Y-19675434D01*
X7588194Y-19661149D01*
X7545337Y-19661149D01*
X7516766Y-19675434D01*
X7502480Y-19689720D01*
X7816766Y-19861149D02*
X7788194Y-19846863D01*
X7773908Y-19832577D01*
X7759623Y-19804006D01*
X7759623Y-19718291D01*
X7773908Y-19689720D01*
X7788194Y-19675434D01*
X7816766Y-19661149D01*
X7859623Y-19661149D01*
X7888194Y-19675434D01*
X7902480Y-19689720D01*
X7916766Y-19718291D01*
X7916766Y-19804006D01*
X7902480Y-19832577D01*
X7888194Y-19846863D01*
X7859623Y-19861149D01*
X7816766Y-19861149D01*
X8088194Y-19861149D02*
X8059623Y-19846863D01*
X8045337Y-19818291D01*
X8045337Y-19561149D01*
X8316766Y-19846863D02*
X8288194Y-19861149D01*
X8231051Y-19861149D01*
X8202480Y-19846863D01*
X8188194Y-19818291D01*
X8188194Y-19704006D01*
X8202480Y-19675434D01*
X8231051Y-19661149D01*
X8288194Y-19661149D01*
X8316766Y-19675434D01*
X8331051Y-19704006D01*
X8331051Y-19732577D01*
X8188194Y-19761149D01*
X8445337Y-19846863D02*
X8473909Y-19861149D01*
X8531051Y-19861149D01*
X8559623Y-19846863D01*
X8573909Y-19818291D01*
X8573909Y-19804006D01*
X8559623Y-19775434D01*
X8531051Y-19761149D01*
X8488194Y-19761149D01*
X8459623Y-19746863D01*
X8445337Y-19718291D01*
X8445337Y-19704006D01*
X8459623Y-19675434D01*
X8488194Y-19661149D01*
X8531051Y-19661149D01*
X8559623Y-19675434D01*
X8673909Y-19975434D02*
X8688194Y-19961149D01*
X8716766Y-19918291D01*
X8731051Y-19889720D01*
X8745337Y-19846863D01*
X8759623Y-19775434D01*
X8759623Y-19718291D01*
X8745337Y-19646863D01*
X8731051Y-19604006D01*
X8716766Y-19575434D01*
X8688194Y-19532577D01*
X8673909Y-19518291D01*
X1890607Y-20148375D02*
X1890607Y-20094493D01*
X1836725Y-20094493D01*
X1836725Y-20148375D01*
X1890607Y-20148375D01*
X2245337Y-19957149D02*
X2273909Y-19957149D01*
X2302480Y-19971434D01*
X2316766Y-19985720D01*
X2331051Y-20014291D01*
X2345337Y-20071434D01*
X2345337Y-20142863D01*
X2331051Y-20200006D01*
X2316766Y-20228577D01*
X2302480Y-20242863D01*
X2273909Y-20257149D01*
X2245337Y-20257149D01*
X2216766Y-20242863D01*
X2202480Y-20228577D01*
X2188194Y-20200006D01*
X2173909Y-20142863D01*
X2173909Y-20071434D01*
X2188194Y-20014291D01*
X2202480Y-19985720D01*
X2216766Y-19971434D01*
X2245337Y-19957149D01*
X2473909Y-20228577D02*
X2488194Y-20242863D01*
X2473909Y-20257149D01*
X2459623Y-20242863D01*
X2473909Y-20228577D01*
X2473909Y-20257149D01*
X2588194Y-19957149D02*
X2788194Y-19957149D01*
X2659623Y-20257149D01*
X3031051Y-19957149D02*
X2973908Y-19957149D01*
X2945337Y-19971434D01*
X2931051Y-19985720D01*
X2902480Y-20028577D01*
X2888194Y-20085720D01*
X2888194Y-20200006D01*
X2902480Y-20228577D01*
X2916766Y-20242863D01*
X2945337Y-20257149D01*
X3002480Y-20257149D01*
X3031051Y-20242863D01*
X3045337Y-20228577D01*
X3059623Y-20200006D01*
X3059623Y-20128577D01*
X3045337Y-20100006D01*
X3031051Y-20085720D01*
X3002480Y-20071434D01*
X2945337Y-20071434D01*
X2916766Y-20085720D01*
X2902480Y-20100006D01*
X2888194Y-20128577D01*
X3188194Y-20257149D02*
X3188194Y-20057149D01*
X3188194Y-20085720D02*
X3202480Y-20071434D01*
X3231051Y-20057149D01*
X3273908Y-20057149D01*
X3302480Y-20071434D01*
X3316766Y-20100006D01*
X3316766Y-20257149D01*
X3316766Y-20100006D02*
X3331051Y-20071434D01*
X3359623Y-20057149D01*
X3402480Y-20057149D01*
X3431051Y-20071434D01*
X3445337Y-20100006D01*
X3445337Y-20257149D01*
X3588194Y-20257149D02*
X3588194Y-20057149D01*
X3588194Y-20085720D02*
X3602480Y-20071434D01*
X3631051Y-20057149D01*
X3673908Y-20057149D01*
X3702480Y-20071434D01*
X3716766Y-20100006D01*
X3716766Y-20257149D01*
X3716766Y-20100006D02*
X3731051Y-20071434D01*
X3759623Y-20057149D01*
X3802480Y-20057149D01*
X3831051Y-20071434D01*
X3845337Y-20100006D01*
X3845337Y-20257149D01*
X4431051Y-19942863D02*
X4173908Y-20328577D01*
X4816766Y-19957149D02*
X4845337Y-19957149D01*
X4873909Y-19971434D01*
X4888194Y-19985720D01*
X4902480Y-20014291D01*
X4916766Y-20071434D01*
X4916766Y-20142863D01*
X4902480Y-20200006D01*
X4888194Y-20228577D01*
X4873909Y-20242863D01*
X4845337Y-20257149D01*
X4816766Y-20257149D01*
X4788194Y-20242863D01*
X4773909Y-20228577D01*
X4759623Y-20200006D01*
X4745337Y-20142863D01*
X4745337Y-20071434D01*
X4759623Y-20014291D01*
X4773909Y-19985720D01*
X4788194Y-19971434D01*
X4816766Y-19957149D01*
X5045337Y-20228577D02*
X5059623Y-20242863D01*
X5045337Y-20257149D01*
X5031051Y-20242863D01*
X5045337Y-20228577D01*
X5045337Y-20257149D01*
X5245337Y-19957149D02*
X5273909Y-19957149D01*
X5302480Y-19971434D01*
X5316766Y-19985720D01*
X5331051Y-20014291D01*
X5345337Y-20071434D01*
X5345337Y-20142863D01*
X5331051Y-20200006D01*
X5316766Y-20228577D01*
X5302480Y-20242863D01*
X5273909Y-20257149D01*
X5245337Y-20257149D01*
X5216766Y-20242863D01*
X5202480Y-20228577D01*
X5188194Y-20200006D01*
X5173909Y-20142863D01*
X5173909Y-20071434D01*
X5188194Y-20014291D01*
X5202480Y-19985720D01*
X5216766Y-19971434D01*
X5245337Y-19957149D01*
X5445337Y-19957149D02*
X5631051Y-19957149D01*
X5531051Y-20071434D01*
X5573909Y-20071434D01*
X5602480Y-20085720D01*
X5616766Y-20100006D01*
X5631051Y-20128577D01*
X5631051Y-20200006D01*
X5616766Y-20228577D01*
X5602480Y-20242863D01*
X5573909Y-20257149D01*
X5488194Y-20257149D01*
X5459623Y-20242863D01*
X5445337Y-20228577D01*
X5816766Y-19957149D02*
X5845337Y-19957149D01*
X5873908Y-19971434D01*
X5888194Y-19985720D01*
X5902480Y-20014291D01*
X5916766Y-20071434D01*
X5916766Y-20142863D01*
X5902480Y-20200006D01*
X5888194Y-20228577D01*
X5873908Y-20242863D01*
X5845337Y-20257149D01*
X5816766Y-20257149D01*
X5788194Y-20242863D01*
X5773908Y-20228577D01*
X5759623Y-20200006D01*
X5745337Y-20142863D01*
X5745337Y-20071434D01*
X5759623Y-20014291D01*
X5773908Y-19985720D01*
X5788194Y-19971434D01*
X5816766Y-19957149D01*
X6031051Y-19957149D02*
X6031051Y-20014291D01*
X6145337Y-19957149D02*
X6145337Y-20014291D01*
X6588194Y-20371434D02*
X6573908Y-20357149D01*
X6545337Y-20314291D01*
X6531051Y-20285720D01*
X6516766Y-20242863D01*
X6502480Y-20171434D01*
X6502480Y-20114291D01*
X6516766Y-20042863D01*
X6531051Y-20000006D01*
X6545337Y-19971434D01*
X6573908Y-19928577D01*
X6588194Y-19914291D01*
X6688194Y-19985720D02*
X6702480Y-19971434D01*
X6731051Y-19957149D01*
X6802480Y-19957149D01*
X6831051Y-19971434D01*
X6845337Y-19985720D01*
X6859623Y-20014291D01*
X6859623Y-20042863D01*
X6845337Y-20085720D01*
X6673908Y-20257149D01*
X6859623Y-20257149D01*
X7216766Y-20257149D02*
X7216766Y-19957149D01*
X7345337Y-20257149D02*
X7345337Y-20100006D01*
X7331051Y-20071434D01*
X7302480Y-20057149D01*
X7259623Y-20057149D01*
X7231051Y-20071434D01*
X7216766Y-20085720D01*
X7531051Y-20257149D02*
X7502480Y-20242863D01*
X7488194Y-20228577D01*
X7473908Y-20200006D01*
X7473908Y-20114291D01*
X7488194Y-20085720D01*
X7502480Y-20071434D01*
X7531051Y-20057149D01*
X7573908Y-20057149D01*
X7602480Y-20071434D01*
X7616766Y-20085720D01*
X7631051Y-20114291D01*
X7631051Y-20200006D01*
X7616766Y-20228577D01*
X7602480Y-20242863D01*
X7573908Y-20257149D01*
X7531051Y-20257149D01*
X7802480Y-20257149D02*
X7773908Y-20242863D01*
X7759623Y-20214291D01*
X7759623Y-19957149D01*
X8031051Y-20242863D02*
X8002480Y-20257149D01*
X7945337Y-20257149D01*
X7916766Y-20242863D01*
X7902480Y-20214291D01*
X7902480Y-20100006D01*
X7916766Y-20071434D01*
X7945337Y-20057149D01*
X8002480Y-20057149D01*
X8031051Y-20071434D01*
X8045337Y-20100006D01*
X8045337Y-20128577D01*
X7902480Y-20157149D01*
X8159623Y-20242863D02*
X8188194Y-20257149D01*
X8245337Y-20257149D01*
X8273908Y-20242863D01*
X8288194Y-20214291D01*
X8288194Y-20200006D01*
X8273908Y-20171434D01*
X8245337Y-20157149D01*
X8202480Y-20157149D01*
X8173908Y-20142863D01*
X8159623Y-20114291D01*
X8159623Y-20100006D01*
X8173908Y-20071434D01*
X8202480Y-20057149D01*
X8245337Y-20057149D01*
X8273908Y-20071434D01*
X8388194Y-20371434D02*
X8402480Y-20357149D01*
X8431051Y-20314291D01*
X8445337Y-20285720D01*
X8459623Y-20242863D01*
X8473909Y-20171434D01*
X8473909Y-20114291D01*
X8459623Y-20042863D01*
X8445337Y-20000006D01*
X8431051Y-19971434D01*
X8402480Y-19928577D01*
X8388194Y-19914291D01*
X1861766Y-20557434D02*
X1901766Y-20517434D01*
X1861766Y-20477434D01*
X1821766Y-20517434D01*
X1861766Y-20557434D01*
X2245337Y-20353149D02*
X2273909Y-20353149D01*
X2302480Y-20367434D01*
X2316766Y-20381720D01*
X2331051Y-20410291D01*
X2345337Y-20467434D01*
X2345337Y-20538863D01*
X2331051Y-20596006D01*
X2316766Y-20624577D01*
X2302480Y-20638863D01*
X2273909Y-20653149D01*
X2245337Y-20653149D01*
X2216766Y-20638863D01*
X2202480Y-20624577D01*
X2188194Y-20596006D01*
X2173909Y-20538863D01*
X2173909Y-20467434D01*
X2188194Y-20410291D01*
X2202480Y-20381720D01*
X2216766Y-20367434D01*
X2245337Y-20353149D01*
X2473909Y-20624577D02*
X2488194Y-20638863D01*
X2473909Y-20653149D01*
X2459623Y-20638863D01*
X2473909Y-20624577D01*
X2473909Y-20653149D01*
X2659623Y-20481720D02*
X2631051Y-20467434D01*
X2616766Y-20453149D01*
X2602480Y-20424577D01*
X2602480Y-20410291D01*
X2616766Y-20381720D01*
X2631051Y-20367434D01*
X2659623Y-20353149D01*
X2716766Y-20353149D01*
X2745337Y-20367434D01*
X2759623Y-20381720D01*
X2773909Y-20410291D01*
X2773909Y-20424577D01*
X2759623Y-20453149D01*
X2745337Y-20467434D01*
X2716766Y-20481720D01*
X2659623Y-20481720D01*
X2631051Y-20496006D01*
X2616766Y-20510291D01*
X2602480Y-20538863D01*
X2602480Y-20596006D01*
X2616766Y-20624577D01*
X2631051Y-20638863D01*
X2659623Y-20653149D01*
X2716766Y-20653149D01*
X2745337Y-20638863D01*
X2759623Y-20624577D01*
X2773909Y-20596006D01*
X2773909Y-20538863D01*
X2759623Y-20510291D01*
X2745337Y-20496006D01*
X2716766Y-20481720D01*
X2959623Y-20353149D02*
X2988194Y-20353149D01*
X3016766Y-20367434D01*
X3031051Y-20381720D01*
X3045337Y-20410291D01*
X3059623Y-20467434D01*
X3059623Y-20538863D01*
X3045337Y-20596006D01*
X3031051Y-20624577D01*
X3016766Y-20638863D01*
X2988194Y-20653149D01*
X2959623Y-20653149D01*
X2931051Y-20638863D01*
X2916766Y-20624577D01*
X2902480Y-20596006D01*
X2888194Y-20538863D01*
X2888194Y-20467434D01*
X2902480Y-20410291D01*
X2916766Y-20381720D01*
X2931051Y-20367434D01*
X2959623Y-20353149D01*
X3188194Y-20653149D02*
X3188194Y-20453149D01*
X3188194Y-20481720D02*
X3202480Y-20467434D01*
X3231051Y-20453149D01*
X3273908Y-20453149D01*
X3302480Y-20467434D01*
X3316766Y-20496006D01*
X3316766Y-20653149D01*
X3316766Y-20496006D02*
X3331051Y-20467434D01*
X3359623Y-20453149D01*
X3402480Y-20453149D01*
X3431051Y-20467434D01*
X3445337Y-20496006D01*
X3445337Y-20653149D01*
X3588194Y-20653149D02*
X3588194Y-20453149D01*
X3588194Y-20481720D02*
X3602480Y-20467434D01*
X3631051Y-20453149D01*
X3673908Y-20453149D01*
X3702480Y-20467434D01*
X3716766Y-20496006D01*
X3716766Y-20653149D01*
X3716766Y-20496006D02*
X3731051Y-20467434D01*
X3759623Y-20453149D01*
X3802480Y-20453149D01*
X3831051Y-20467434D01*
X3845337Y-20496006D01*
X3845337Y-20653149D01*
X4431051Y-20338863D02*
X4173908Y-20724577D01*
X4816766Y-20353149D02*
X4845337Y-20353149D01*
X4873909Y-20367434D01*
X4888194Y-20381720D01*
X4902480Y-20410291D01*
X4916766Y-20467434D01*
X4916766Y-20538863D01*
X4902480Y-20596006D01*
X4888194Y-20624577D01*
X4873909Y-20638863D01*
X4845337Y-20653149D01*
X4816766Y-20653149D01*
X4788194Y-20638863D01*
X4773909Y-20624577D01*
X4759623Y-20596006D01*
X4745337Y-20538863D01*
X4745337Y-20467434D01*
X4759623Y-20410291D01*
X4773909Y-20381720D01*
X4788194Y-20367434D01*
X4816766Y-20353149D01*
X5045337Y-20624577D02*
X5059623Y-20638863D01*
X5045337Y-20653149D01*
X5031051Y-20638863D01*
X5045337Y-20624577D01*
X5045337Y-20653149D01*
X5245337Y-20353149D02*
X5273909Y-20353149D01*
X5302480Y-20367434D01*
X5316766Y-20381720D01*
X5331051Y-20410291D01*
X5345337Y-20467434D01*
X5345337Y-20538863D01*
X5331051Y-20596006D01*
X5316766Y-20624577D01*
X5302480Y-20638863D01*
X5273909Y-20653149D01*
X5245337Y-20653149D01*
X5216766Y-20638863D01*
X5202480Y-20624577D01*
X5188194Y-20596006D01*
X5173909Y-20538863D01*
X5173909Y-20467434D01*
X5188194Y-20410291D01*
X5202480Y-20381720D01*
X5216766Y-20367434D01*
X5245337Y-20353149D01*
X5445337Y-20353149D02*
X5631051Y-20353149D01*
X5531051Y-20467434D01*
X5573909Y-20467434D01*
X5602480Y-20481720D01*
X5616766Y-20496006D01*
X5631051Y-20524577D01*
X5631051Y-20596006D01*
X5616766Y-20624577D01*
X5602480Y-20638863D01*
X5573909Y-20653149D01*
X5488194Y-20653149D01*
X5459623Y-20638863D01*
X5445337Y-20624577D01*
X5916766Y-20653149D02*
X5745337Y-20653149D01*
X5831051Y-20653149D02*
X5831051Y-20353149D01*
X5802480Y-20396006D01*
X5773908Y-20424577D01*
X5745337Y-20438863D01*
X6031051Y-20353149D02*
X6031051Y-20410291D01*
X6145337Y-20353149D02*
X6145337Y-20410291D01*
X6588194Y-20767434D02*
X6573908Y-20753149D01*
X6545337Y-20710291D01*
X6531051Y-20681720D01*
X6516766Y-20638863D01*
X6502480Y-20567434D01*
X6502480Y-20510291D01*
X6516766Y-20438863D01*
X6531051Y-20396006D01*
X6545337Y-20367434D01*
X6573908Y-20324577D01*
X6588194Y-20310291D01*
X6859623Y-20653149D02*
X6688194Y-20653149D01*
X6773908Y-20653149D02*
X6773908Y-20353149D01*
X6745337Y-20396006D01*
X6716766Y-20424577D01*
X6688194Y-20438863D01*
X6973908Y-20381720D02*
X6988194Y-20367434D01*
X7016766Y-20353149D01*
X7088194Y-20353149D01*
X7116766Y-20367434D01*
X7131051Y-20381720D01*
X7145337Y-20410291D01*
X7145337Y-20438863D01*
X7131051Y-20481720D01*
X6959623Y-20653149D01*
X7145337Y-20653149D01*
X7502480Y-20653149D02*
X7502480Y-20353149D01*
X7631051Y-20653149D02*
X7631051Y-20496006D01*
X7616766Y-20467434D01*
X7588194Y-20453149D01*
X7545337Y-20453149D01*
X7516766Y-20467434D01*
X7502480Y-20481720D01*
X7816766Y-20653149D02*
X7788194Y-20638863D01*
X7773908Y-20624577D01*
X7759623Y-20596006D01*
X7759623Y-20510291D01*
X7773908Y-20481720D01*
X7788194Y-20467434D01*
X7816766Y-20453149D01*
X7859623Y-20453149D01*
X7888194Y-20467434D01*
X7902480Y-20481720D01*
X7916766Y-20510291D01*
X7916766Y-20596006D01*
X7902480Y-20624577D01*
X7888194Y-20638863D01*
X7859623Y-20653149D01*
X7816766Y-20653149D01*
X8088194Y-20653149D02*
X8059623Y-20638863D01*
X8045337Y-20610291D01*
X8045337Y-20353149D01*
X8316766Y-20638863D02*
X8288194Y-20653149D01*
X8231051Y-20653149D01*
X8202480Y-20638863D01*
X8188194Y-20610291D01*
X8188194Y-20496006D01*
X8202480Y-20467434D01*
X8231051Y-20453149D01*
X8288194Y-20453149D01*
X8316766Y-20467434D01*
X8331051Y-20496006D01*
X8331051Y-20524577D01*
X8188194Y-20553149D01*
X8445337Y-20638863D02*
X8473909Y-20653149D01*
X8531051Y-20653149D01*
X8559623Y-20638863D01*
X8573909Y-20610291D01*
X8573909Y-20596006D01*
X8559623Y-20567434D01*
X8531051Y-20553149D01*
X8488194Y-20553149D01*
X8459623Y-20538863D01*
X8445337Y-20510291D01*
X8445337Y-20496006D01*
X8459623Y-20467434D01*
X8488194Y-20453149D01*
X8531051Y-20453149D01*
X8559623Y-20467434D01*
X8673909Y-20767434D02*
X8688194Y-20753149D01*
X8716766Y-20710291D01*
X8731051Y-20681720D01*
X8745337Y-20638863D01*
X8759623Y-20567434D01*
X8759623Y-20510291D01*
X8745337Y-20438863D01*
X8731051Y-20396006D01*
X8716766Y-20367434D01*
X8688194Y-20324577D01*
X8673909Y-20310291D01*
X1801766Y-20863434D02*
X1901766Y-20963434D01*
X1901766Y-20863434D02*
X1801766Y-20963434D01*
X1901766Y-20913434D02*
G75*
G03X1901766Y-20913434I-50000J0D01*
G01*
X2345337Y-21049149D02*
X2173909Y-21049149D01*
X2259623Y-21049149D02*
X2259623Y-20749149D01*
X2231051Y-20792006D01*
X2202480Y-20820577D01*
X2173909Y-20834863D01*
X2473909Y-21020577D02*
X2488194Y-21034863D01*
X2473909Y-21049149D01*
X2459623Y-21034863D01*
X2473909Y-21020577D01*
X2473909Y-21049149D01*
X2673909Y-20749149D02*
X2702480Y-20749149D01*
X2731051Y-20763434D01*
X2745337Y-20777720D01*
X2759623Y-20806291D01*
X2773909Y-20863434D01*
X2773909Y-20934863D01*
X2759623Y-20992006D01*
X2745337Y-21020577D01*
X2731051Y-21034863D01*
X2702480Y-21049149D01*
X2673909Y-21049149D01*
X2645337Y-21034863D01*
X2631051Y-21020577D01*
X2616766Y-20992006D01*
X2602480Y-20934863D01*
X2602480Y-20863434D01*
X2616766Y-20806291D01*
X2631051Y-20777720D01*
X2645337Y-20763434D01*
X2673909Y-20749149D01*
X2959623Y-20749149D02*
X2988194Y-20749149D01*
X3016766Y-20763434D01*
X3031051Y-20777720D01*
X3045337Y-20806291D01*
X3059623Y-20863434D01*
X3059623Y-20934863D01*
X3045337Y-20992006D01*
X3031051Y-21020577D01*
X3016766Y-21034863D01*
X2988194Y-21049149D01*
X2959623Y-21049149D01*
X2931051Y-21034863D01*
X2916766Y-21020577D01*
X2902480Y-20992006D01*
X2888194Y-20934863D01*
X2888194Y-20863434D01*
X2902480Y-20806291D01*
X2916766Y-20777720D01*
X2931051Y-20763434D01*
X2959623Y-20749149D01*
X3188194Y-21049149D02*
X3188194Y-20849149D01*
X3188194Y-20877720D02*
X3202480Y-20863434D01*
X3231051Y-20849149D01*
X3273908Y-20849149D01*
X3302480Y-20863434D01*
X3316766Y-20892006D01*
X3316766Y-21049149D01*
X3316766Y-20892006D02*
X3331051Y-20863434D01*
X3359623Y-20849149D01*
X3402480Y-20849149D01*
X3431051Y-20863434D01*
X3445337Y-20892006D01*
X3445337Y-21049149D01*
X3588194Y-21049149D02*
X3588194Y-20849149D01*
X3588194Y-20877720D02*
X3602480Y-20863434D01*
X3631051Y-20849149D01*
X3673908Y-20849149D01*
X3702480Y-20863434D01*
X3716766Y-20892006D01*
X3716766Y-21049149D01*
X3716766Y-20892006D02*
X3731051Y-20863434D01*
X3759623Y-20849149D01*
X3802480Y-20849149D01*
X3831051Y-20863434D01*
X3845337Y-20892006D01*
X3845337Y-21049149D01*
X4431051Y-20734863D02*
X4173908Y-21120577D01*
X4816766Y-20749149D02*
X4845337Y-20749149D01*
X4873909Y-20763434D01*
X4888194Y-20777720D01*
X4902480Y-20806291D01*
X4916766Y-20863434D01*
X4916766Y-20934863D01*
X4902480Y-20992006D01*
X4888194Y-21020577D01*
X4873909Y-21034863D01*
X4845337Y-21049149D01*
X4816766Y-21049149D01*
X4788194Y-21034863D01*
X4773909Y-21020577D01*
X4759623Y-20992006D01*
X4745337Y-20934863D01*
X4745337Y-20863434D01*
X4759623Y-20806291D01*
X4773909Y-20777720D01*
X4788194Y-20763434D01*
X4816766Y-20749149D01*
X5045337Y-21020577D02*
X5059623Y-21034863D01*
X5045337Y-21049149D01*
X5031051Y-21034863D01*
X5045337Y-21020577D01*
X5045337Y-21049149D01*
X5245337Y-20749149D02*
X5273909Y-20749149D01*
X5302480Y-20763434D01*
X5316766Y-20777720D01*
X5331051Y-20806291D01*
X5345337Y-20863434D01*
X5345337Y-20934863D01*
X5331051Y-20992006D01*
X5316766Y-21020577D01*
X5302480Y-21034863D01*
X5273909Y-21049149D01*
X5245337Y-21049149D01*
X5216766Y-21034863D01*
X5202480Y-21020577D01*
X5188194Y-20992006D01*
X5173909Y-20934863D01*
X5173909Y-20863434D01*
X5188194Y-20806291D01*
X5202480Y-20777720D01*
X5216766Y-20763434D01*
X5245337Y-20749149D01*
X5445337Y-20749149D02*
X5631051Y-20749149D01*
X5531051Y-20863434D01*
X5573909Y-20863434D01*
X5602480Y-20877720D01*
X5616766Y-20892006D01*
X5631051Y-20920577D01*
X5631051Y-20992006D01*
X5616766Y-21020577D01*
X5602480Y-21034863D01*
X5573909Y-21049149D01*
X5488194Y-21049149D01*
X5459623Y-21034863D01*
X5445337Y-21020577D01*
X5773908Y-21049149D02*
X5831051Y-21049149D01*
X5859623Y-21034863D01*
X5873908Y-21020577D01*
X5902480Y-20977720D01*
X5916766Y-20920577D01*
X5916766Y-20806291D01*
X5902480Y-20777720D01*
X5888194Y-20763434D01*
X5859623Y-20749149D01*
X5802480Y-20749149D01*
X5773908Y-20763434D01*
X5759623Y-20777720D01*
X5745337Y-20806291D01*
X5745337Y-20877720D01*
X5759623Y-20906291D01*
X5773908Y-20920577D01*
X5802480Y-20934863D01*
X5859623Y-20934863D01*
X5888194Y-20920577D01*
X5902480Y-20906291D01*
X5916766Y-20877720D01*
X6031051Y-20749149D02*
X6031051Y-20806291D01*
X6145337Y-20749149D02*
X6145337Y-20806291D01*
X6588194Y-21163434D02*
X6573908Y-21149149D01*
X6545337Y-21106291D01*
X6531051Y-21077720D01*
X6516766Y-21034863D01*
X6502480Y-20963434D01*
X6502480Y-20906291D01*
X6516766Y-20834863D01*
X6531051Y-20792006D01*
X6545337Y-20763434D01*
X6573908Y-20720577D01*
X6588194Y-20706291D01*
X6673908Y-20749149D02*
X6859623Y-20749149D01*
X6759623Y-20863434D01*
X6802480Y-20863434D01*
X6831051Y-20877720D01*
X6845337Y-20892006D01*
X6859623Y-20920577D01*
X6859623Y-20992006D01*
X6845337Y-21020577D01*
X6831051Y-21034863D01*
X6802480Y-21049149D01*
X6716766Y-21049149D01*
X6688194Y-21034863D01*
X6673908Y-21020577D01*
X7216766Y-21049149D02*
X7216766Y-20749149D01*
X7345337Y-21049149D02*
X7345337Y-20892006D01*
X7331051Y-20863434D01*
X7302480Y-20849149D01*
X7259623Y-20849149D01*
X7231051Y-20863434D01*
X7216766Y-20877720D01*
X7531051Y-21049149D02*
X7502480Y-21034863D01*
X7488194Y-21020577D01*
X7473908Y-20992006D01*
X7473908Y-20906291D01*
X7488194Y-20877720D01*
X7502480Y-20863434D01*
X7531051Y-20849149D01*
X7573908Y-20849149D01*
X7602480Y-20863434D01*
X7616766Y-20877720D01*
X7631051Y-20906291D01*
X7631051Y-20992006D01*
X7616766Y-21020577D01*
X7602480Y-21034863D01*
X7573908Y-21049149D01*
X7531051Y-21049149D01*
X7802480Y-21049149D02*
X7773908Y-21034863D01*
X7759623Y-21006291D01*
X7759623Y-20749149D01*
X8031051Y-21034863D02*
X8002480Y-21049149D01*
X7945337Y-21049149D01*
X7916766Y-21034863D01*
X7902480Y-21006291D01*
X7902480Y-20892006D01*
X7916766Y-20863434D01*
X7945337Y-20849149D01*
X8002480Y-20849149D01*
X8031051Y-20863434D01*
X8045337Y-20892006D01*
X8045337Y-20920577D01*
X7902480Y-20949149D01*
X8159623Y-21034863D02*
X8188194Y-21049149D01*
X8245337Y-21049149D01*
X8273908Y-21034863D01*
X8288194Y-21006291D01*
X8288194Y-20992006D01*
X8273908Y-20963434D01*
X8245337Y-20949149D01*
X8202480Y-20949149D01*
X8173908Y-20934863D01*
X8159623Y-20906291D01*
X8159623Y-20892006D01*
X8173908Y-20863434D01*
X8202480Y-20849149D01*
X8245337Y-20849149D01*
X8273908Y-20863434D01*
X8388194Y-21163434D02*
X8402480Y-21149149D01*
X8431051Y-21106291D01*
X8445337Y-21077720D01*
X8459623Y-21034863D01*
X8473909Y-20963434D01*
X8473909Y-20906291D01*
X8459623Y-20834863D01*
X8445337Y-20792006D01*
X8431051Y-20763434D01*
X8402480Y-20720577D01*
X8388194Y-20706291D01*
X1800166Y-21258634D02*
X1901766Y-21360234D01*
X1901766Y-21258634D02*
X1800166Y-21360234D01*
X1850966Y-21258634D02*
X1850966Y-21360234D01*
X1800166Y-21309434D02*
X1901766Y-21309434D01*
X2345337Y-21445149D02*
X2173909Y-21445149D01*
X2259623Y-21445149D02*
X2259623Y-21145149D01*
X2231051Y-21188006D01*
X2202480Y-21216577D01*
X2173909Y-21230863D01*
X2473909Y-21416577D02*
X2488194Y-21430863D01*
X2473909Y-21445149D01*
X2459623Y-21430863D01*
X2473909Y-21416577D01*
X2473909Y-21445149D01*
X2673909Y-21145149D02*
X2702480Y-21145149D01*
X2731051Y-21159434D01*
X2745337Y-21173720D01*
X2759623Y-21202291D01*
X2773909Y-21259434D01*
X2773909Y-21330863D01*
X2759623Y-21388006D01*
X2745337Y-21416577D01*
X2731051Y-21430863D01*
X2702480Y-21445149D01*
X2673909Y-21445149D01*
X2645337Y-21430863D01*
X2631051Y-21416577D01*
X2616766Y-21388006D01*
X2602480Y-21330863D01*
X2602480Y-21259434D01*
X2616766Y-21202291D01*
X2631051Y-21173720D01*
X2645337Y-21159434D01*
X2673909Y-21145149D01*
X2888194Y-21173720D02*
X2902480Y-21159434D01*
X2931051Y-21145149D01*
X3002480Y-21145149D01*
X3031051Y-21159434D01*
X3045337Y-21173720D01*
X3059623Y-21202291D01*
X3059623Y-21230863D01*
X3045337Y-21273720D01*
X2873908Y-21445149D01*
X3059623Y-21445149D01*
X3188194Y-21445149D02*
X3188194Y-21245149D01*
X3188194Y-21273720D02*
X3202480Y-21259434D01*
X3231051Y-21245149D01*
X3273908Y-21245149D01*
X3302480Y-21259434D01*
X3316766Y-21288006D01*
X3316766Y-21445149D01*
X3316766Y-21288006D02*
X3331051Y-21259434D01*
X3359623Y-21245149D01*
X3402480Y-21245149D01*
X3431051Y-21259434D01*
X3445337Y-21288006D01*
X3445337Y-21445149D01*
X3588194Y-21445149D02*
X3588194Y-21245149D01*
X3588194Y-21273720D02*
X3602480Y-21259434D01*
X3631051Y-21245149D01*
X3673908Y-21245149D01*
X3702480Y-21259434D01*
X3716766Y-21288006D01*
X3716766Y-21445149D01*
X3716766Y-21288006D02*
X3731051Y-21259434D01*
X3759623Y-21245149D01*
X3802480Y-21245149D01*
X3831051Y-21259434D01*
X3845337Y-21288006D01*
X3845337Y-21445149D01*
X4431051Y-21130863D02*
X4173908Y-21516577D01*
X4816766Y-21145149D02*
X4845337Y-21145149D01*
X4873909Y-21159434D01*
X4888194Y-21173720D01*
X4902480Y-21202291D01*
X4916766Y-21259434D01*
X4916766Y-21330863D01*
X4902480Y-21388006D01*
X4888194Y-21416577D01*
X4873909Y-21430863D01*
X4845337Y-21445149D01*
X4816766Y-21445149D01*
X4788194Y-21430863D01*
X4773909Y-21416577D01*
X4759623Y-21388006D01*
X4745337Y-21330863D01*
X4745337Y-21259434D01*
X4759623Y-21202291D01*
X4773909Y-21173720D01*
X4788194Y-21159434D01*
X4816766Y-21145149D01*
X5045337Y-21416577D02*
X5059623Y-21430863D01*
X5045337Y-21445149D01*
X5031051Y-21430863D01*
X5045337Y-21416577D01*
X5045337Y-21445149D01*
X5245337Y-21145149D02*
X5273909Y-21145149D01*
X5302480Y-21159434D01*
X5316766Y-21173720D01*
X5331051Y-21202291D01*
X5345337Y-21259434D01*
X5345337Y-21330863D01*
X5331051Y-21388006D01*
X5316766Y-21416577D01*
X5302480Y-21430863D01*
X5273909Y-21445149D01*
X5245337Y-21445149D01*
X5216766Y-21430863D01*
X5202480Y-21416577D01*
X5188194Y-21388006D01*
X5173909Y-21330863D01*
X5173909Y-21259434D01*
X5188194Y-21202291D01*
X5202480Y-21173720D01*
X5216766Y-21159434D01*
X5245337Y-21145149D01*
X5602480Y-21245149D02*
X5602480Y-21445149D01*
X5531051Y-21130863D02*
X5459623Y-21345149D01*
X5645337Y-21345149D01*
X5816766Y-21145149D02*
X5845337Y-21145149D01*
X5873908Y-21159434D01*
X5888194Y-21173720D01*
X5902480Y-21202291D01*
X5916766Y-21259434D01*
X5916766Y-21330863D01*
X5902480Y-21388006D01*
X5888194Y-21416577D01*
X5873908Y-21430863D01*
X5845337Y-21445149D01*
X5816766Y-21445149D01*
X5788194Y-21430863D01*
X5773908Y-21416577D01*
X5759623Y-21388006D01*
X5745337Y-21330863D01*
X5745337Y-21259434D01*
X5759623Y-21202291D01*
X5773908Y-21173720D01*
X5788194Y-21159434D01*
X5816766Y-21145149D01*
X6031051Y-21145149D02*
X6031051Y-21202291D01*
X6145337Y-21145149D02*
X6145337Y-21202291D01*
X6588194Y-21559434D02*
X6573908Y-21545149D01*
X6545337Y-21502291D01*
X6531051Y-21473720D01*
X6516766Y-21430863D01*
X6502480Y-21359434D01*
X6502480Y-21302291D01*
X6516766Y-21230863D01*
X6531051Y-21188006D01*
X6545337Y-21159434D01*
X6573908Y-21116577D01*
X6588194Y-21102291D01*
X6831051Y-21245149D02*
X6831051Y-21445149D01*
X6759623Y-21130863D02*
X6688194Y-21345149D01*
X6873908Y-21345149D01*
X7116766Y-21145149D02*
X7059623Y-21145149D01*
X7031051Y-21159434D01*
X7016766Y-21173720D01*
X6988194Y-21216577D01*
X6973908Y-21273720D01*
X6973908Y-21388006D01*
X6988194Y-21416577D01*
X7002480Y-21430863D01*
X7031051Y-21445149D01*
X7088194Y-21445149D01*
X7116766Y-21430863D01*
X7131051Y-21416577D01*
X7145337Y-21388006D01*
X7145337Y-21316577D01*
X7131051Y-21288006D01*
X7116766Y-21273720D01*
X7088194Y-21259434D01*
X7031051Y-21259434D01*
X7002480Y-21273720D01*
X6988194Y-21288006D01*
X6973908Y-21316577D01*
X7502480Y-21445149D02*
X7502480Y-21145149D01*
X7631051Y-21445149D02*
X7631051Y-21288006D01*
X7616766Y-21259434D01*
X7588194Y-21245149D01*
X7545337Y-21245149D01*
X7516766Y-21259434D01*
X7502480Y-21273720D01*
X7816766Y-21445149D02*
X7788194Y-21430863D01*
X7773908Y-21416577D01*
X7759623Y-21388006D01*
X7759623Y-21302291D01*
X7773908Y-21273720D01*
X7788194Y-21259434D01*
X7816766Y-21245149D01*
X7859623Y-21245149D01*
X7888194Y-21259434D01*
X7902480Y-21273720D01*
X7916766Y-21302291D01*
X7916766Y-21388006D01*
X7902480Y-21416577D01*
X7888194Y-21430863D01*
X7859623Y-21445149D01*
X7816766Y-21445149D01*
X8088194Y-21445149D02*
X8059623Y-21430863D01*
X8045337Y-21402291D01*
X8045337Y-21145149D01*
X8316766Y-21430863D02*
X8288194Y-21445149D01*
X8231051Y-21445149D01*
X8202480Y-21430863D01*
X8188194Y-21402291D01*
X8188194Y-21288006D01*
X8202480Y-21259434D01*
X8231051Y-21245149D01*
X8288194Y-21245149D01*
X8316766Y-21259434D01*
X8331051Y-21288006D01*
X8331051Y-21316577D01*
X8188194Y-21345149D01*
X8445337Y-21430863D02*
X8473909Y-21445149D01*
X8531051Y-21445149D01*
X8559623Y-21430863D01*
X8573909Y-21402291D01*
X8573909Y-21388006D01*
X8559623Y-21359434D01*
X8531051Y-21345149D01*
X8488194Y-21345149D01*
X8459623Y-21330863D01*
X8445337Y-21302291D01*
X8445337Y-21288006D01*
X8459623Y-21259434D01*
X8488194Y-21245149D01*
X8531051Y-21245149D01*
X8559623Y-21259434D01*
X8673909Y-21559434D02*
X8688194Y-21545149D01*
X8716766Y-21502291D01*
X8731051Y-21473720D01*
X8745337Y-21430863D01*
X8759623Y-21359434D01*
X8759623Y-21302291D01*
X8745337Y-21230863D01*
X8731051Y-21188006D01*
X8716766Y-21159434D01*
X8688194Y-21116577D01*
X8673909Y-21102291D01*
M02*
