%FSLAX45Y45*%
G04 Gerber Fmt 4.5, Leading zero omitted, Abs format (unit mm)*
G04 Created by KiCad (PCBNEW (2016-12-18 revision 3ffa37c)-master) date Tuesday, December 20, 2016 'PMt' 08:39:23 PM*
%MOMM*%
%LPD*%
G01*
G04 APERTURE LIST*
%ADD10C,0.127000*%
%ADD11C,0.150000*%
%ADD12C,0.200000*%
%ADD13C,0.300000*%
G04 APERTURE END LIST*
D10*
D11*
X17254734Y-10293200D02*
G75*
G03X17254734Y-10293200I-7672734J0D01*
G01*
D12*
X2264750Y-10604750D02*
X2295250Y-10635250D01*
X2295250Y-10604750D02*
X2264750Y-10635250D01*
X3084750Y-12559750D02*
X3115250Y-12590250D01*
X3115250Y-12559750D02*
X3084750Y-12590250D01*
X3164750Y-7724750D02*
X3195250Y-7755250D01*
X3195250Y-7724750D02*
X3164750Y-7755250D01*
X3168120Y-10384450D02*
X3198620Y-10414950D01*
X3198620Y-10384450D02*
X3168120Y-10414950D01*
X3191500Y-12922670D02*
X3222000Y-12953170D01*
X3222000Y-12922670D02*
X3191500Y-12953170D01*
X3384750Y-12559750D02*
X3415250Y-12590250D01*
X3415250Y-12559750D02*
X3384750Y-12590250D01*
X3644750Y-6964750D02*
X3675250Y-6995250D01*
X3675250Y-6964750D02*
X3644750Y-6995250D01*
X3724750Y-6164750D02*
X3755250Y-6195250D01*
X3755250Y-6164750D02*
X3724750Y-6195250D01*
X3738730Y-12813750D02*
X3769230Y-12844250D01*
X3769230Y-12813750D02*
X3738730Y-12844250D01*
X4615550Y-14958150D02*
X4646050Y-14988650D01*
X4646050Y-14958150D02*
X4615550Y-14988650D01*
X4968580Y-13086550D02*
X4999080Y-13117050D01*
X4999080Y-13086550D02*
X4968580Y-13117050D01*
X4968580Y-15150750D02*
X4999080Y-15181250D01*
X4999080Y-15150750D02*
X4968580Y-15181250D01*
X5316350Y-6096740D02*
X5346850Y-6127240D01*
X5346850Y-6096740D02*
X5316350Y-6127240D01*
X5488750Y-7176720D02*
X5519250Y-7207220D01*
X5519250Y-7176720D02*
X5488750Y-7207220D01*
X5709870Y-4686700D02*
X5740370Y-4717200D01*
X5740370Y-4686700D02*
X5709870Y-4717200D01*
X5756930Y-8738060D02*
X5787430Y-8768560D01*
X5787430Y-8738060D02*
X5756930Y-8768560D01*
X6163150Y-14214950D02*
X6193650Y-14245450D01*
X6193650Y-14214950D02*
X6163150Y-14245450D01*
X7434750Y-6459750D02*
X7465250Y-6490250D01*
X7465250Y-6459750D02*
X7434750Y-6490250D01*
X7631810Y-10095650D02*
X7662310Y-10126150D01*
X7662310Y-10095650D02*
X7631810Y-10126150D01*
X7770340Y-9048380D02*
X7800840Y-9078880D01*
X7800840Y-9048380D02*
X7770340Y-9078880D01*
X7770340Y-9614340D02*
X7800840Y-9644840D01*
X7800840Y-9614340D02*
X7770340Y-9644840D01*
X7864750Y-11604750D02*
X7895250Y-11635250D01*
X7895250Y-11604750D02*
X7864750Y-11635250D01*
X7908060Y-8780790D02*
X7938560Y-8811290D01*
X7938560Y-8780790D02*
X7908060Y-8811290D01*
X7908060Y-9340060D02*
X7938560Y-9370560D01*
X7938560Y-9340060D02*
X7908060Y-9370560D01*
X7959750Y-5934750D02*
X7990250Y-5965250D01*
X7990250Y-5934750D02*
X7959750Y-5965250D01*
X8194750Y-16854750D02*
X8225250Y-16885250D01*
X8225250Y-16854750D02*
X8194750Y-16885250D01*
X8194750Y-17264750D02*
X8225250Y-17295250D01*
X8225250Y-17264750D02*
X8194750Y-17295250D01*
X8209750Y-5834750D02*
X8240250Y-5865250D01*
X8240250Y-5834750D02*
X8209750Y-5865250D01*
X8309750Y-15334750D02*
X8340250Y-15365250D01*
X8340250Y-15334750D02*
X8309750Y-15365250D01*
X8384750Y-11304750D02*
X8415250Y-11335250D01*
X8415250Y-11304750D02*
X8384750Y-11335250D01*
X8388800Y-10227950D02*
X8419300Y-10258450D01*
X8419300Y-10227950D02*
X8388800Y-10258450D01*
X8476370Y-9744860D02*
X8506870Y-9775360D01*
X8506870Y-9744860D02*
X8476370Y-9775360D01*
X8536910Y-10805450D02*
X8567410Y-10835950D01*
X8567410Y-10805450D02*
X8536910Y-10835950D01*
X8637270Y-9174720D02*
X8667770Y-9205220D01*
X8667770Y-9174720D02*
X8637270Y-9205220D01*
X8648090Y-9570020D02*
X8678590Y-9600520D01*
X8678590Y-9570020D02*
X8648090Y-9600520D01*
X8670210Y-10302050D02*
X8700710Y-10332550D01*
X8700710Y-10302050D02*
X8670210Y-10332550D01*
X8684750Y-11604750D02*
X8715250Y-11635250D01*
X8715250Y-11604750D02*
X8684750Y-11635250D01*
X8741890Y-9997150D02*
X8772390Y-10027650D01*
X8772390Y-9997150D02*
X8741890Y-10027650D01*
X8764410Y-9500460D02*
X8794910Y-9530960D01*
X8794910Y-9500460D02*
X8764410Y-9530960D01*
X8785320Y-10247150D02*
X8815820Y-10277650D01*
X8815820Y-10247150D02*
X8785320Y-10277650D01*
X8821160Y-9783190D02*
X8851660Y-9813690D01*
X8851660Y-9783190D02*
X8821160Y-9813690D01*
X8959750Y-14734750D02*
X8990250Y-14765250D01*
X8990250Y-14734750D02*
X8959750Y-14765250D01*
X8969070Y-8688030D02*
X8999570Y-8718530D01*
X8999570Y-8688030D02*
X8969070Y-8718530D01*
X8987150Y-10639650D02*
X9017650Y-10670150D01*
X9017650Y-10639650D02*
X8987150Y-10670150D01*
X9020570Y-10102450D02*
X9051070Y-10132950D01*
X9051070Y-10102450D02*
X9020570Y-10132950D01*
X9041610Y-9591830D02*
X9072110Y-9622330D01*
X9072110Y-9591830D02*
X9041610Y-9622330D01*
X9041610Y-9892780D02*
X9072110Y-9923280D01*
X9072110Y-9892780D02*
X9041610Y-9923280D01*
X9061150Y-10708150D02*
X9091650Y-10738650D01*
X9091650Y-10708150D02*
X9061150Y-10738650D01*
X9125110Y-16915020D02*
X9155610Y-16945520D01*
X9155610Y-16915020D02*
X9125110Y-16945520D01*
X9161140Y-9303080D02*
X9191640Y-9333580D01*
X9191640Y-9303080D02*
X9161140Y-9333580D01*
X9225020Y-10658350D02*
X9255520Y-10688850D01*
X9255520Y-10658350D02*
X9225020Y-10688850D01*
X9284750Y-15359750D02*
X9315250Y-15390250D01*
X9315250Y-15359750D02*
X9284750Y-15390250D01*
X9288910Y-10474750D02*
X9319410Y-10505250D01*
X9319410Y-10474750D02*
X9288910Y-10505250D01*
X9362240Y-10500740D02*
X9392740Y-10531240D01*
X9392740Y-10500740D02*
X9362240Y-10531240D01*
X9384750Y-15184750D02*
X9415250Y-15215250D01*
X9415250Y-15184750D02*
X9384750Y-15215250D01*
X9386660Y-10727570D02*
X9417160Y-10758070D01*
X9417160Y-10727570D02*
X9386660Y-10758070D01*
X9399690Y-10642190D02*
X9430190Y-10672690D01*
X9430190Y-10642190D02*
X9399690Y-10672690D01*
X9492240Y-10228350D02*
X9522740Y-10258850D01*
X9522740Y-10228350D02*
X9492240Y-10258850D01*
X9509750Y-3284750D02*
X9540250Y-3315250D01*
X9540250Y-3284750D02*
X9509750Y-3315250D01*
X9546620Y-10702520D02*
X9577120Y-10733020D01*
X9577120Y-10702520D02*
X9546620Y-10733020D01*
X9588170Y-10303880D02*
X9618670Y-10334380D01*
X9618670Y-10303880D02*
X9588170Y-10334380D01*
X9625310Y-10645750D02*
X9655810Y-10676250D01*
X9655810Y-10645750D02*
X9625310Y-10676250D01*
X9625310Y-11116650D02*
X9655810Y-11147150D01*
X9655810Y-11116650D02*
X9625310Y-11147150D01*
X9732570Y-10937950D02*
X9763070Y-10968450D01*
X9763070Y-10937950D02*
X9732570Y-10968450D01*
X9759750Y-15809750D02*
X9790250Y-15840250D01*
X9790250Y-15809750D02*
X9759750Y-15840250D01*
X9813640Y-9069290D02*
X9844140Y-9099790D01*
X9844140Y-9069290D02*
X9813640Y-9099790D01*
X9820870Y-8688030D02*
X9851370Y-8718530D01*
X9851370Y-8688030D02*
X9820870Y-8718530D01*
X9919100Y-9814150D02*
X9949600Y-9844650D01*
X9949600Y-9814150D02*
X9919100Y-9844650D01*
X9921520Y-9671050D02*
X9952020Y-9701550D01*
X9952020Y-9671050D02*
X9921520Y-9701550D01*
X9922140Y-10160050D02*
X9952640Y-10190550D01*
X9952640Y-10160050D02*
X9922140Y-10190550D01*
X9955510Y-9528550D02*
X9986010Y-9559050D01*
X9986010Y-9528550D02*
X9955510Y-9559050D01*
X9959750Y-15809750D02*
X9990250Y-15840250D01*
X9990250Y-15809750D02*
X9959750Y-15840250D01*
X9984750Y-5509750D02*
X10015250Y-5540250D01*
X10015250Y-5509750D02*
X9984750Y-5540250D01*
X10070850Y-10240050D02*
X10101350Y-10270550D01*
X10101350Y-10240050D02*
X10070850Y-10270550D01*
X10151950Y-10154850D02*
X10182450Y-10185350D01*
X10182450Y-10154850D02*
X10151950Y-10185350D01*
X10209750Y-6134750D02*
X10240250Y-6165250D01*
X10240250Y-6134750D02*
X10209750Y-6165250D01*
X10209750Y-6309750D02*
X10240250Y-6340250D01*
X10240250Y-6309750D02*
X10209750Y-6340250D01*
X10221250Y-6817370D02*
X10251750Y-6847870D01*
X10251750Y-6817370D02*
X10221250Y-6847870D01*
X10295750Y-12260540D02*
X10326250Y-12291040D01*
X10326250Y-12260540D02*
X10295750Y-12291040D01*
X10332450Y-12192150D02*
X10362950Y-12222650D01*
X10362950Y-12192150D02*
X10332450Y-12222650D01*
X10342550Y-7484750D02*
X10373050Y-7515250D01*
X10373050Y-7484750D02*
X10342550Y-7515250D01*
X10342550Y-8704380D02*
X10373050Y-8734880D01*
X10373050Y-8704380D02*
X10342550Y-8734880D01*
X10449550Y-12261950D02*
X10480050Y-12292450D01*
X10480050Y-12261950D02*
X10449550Y-12292450D01*
X10509750Y-5959750D02*
X10540250Y-5990250D01*
X10540250Y-5959750D02*
X10509750Y-5990250D01*
X10567150Y-7958880D02*
X10597650Y-7989380D01*
X10597650Y-7958880D02*
X10567150Y-7989380D01*
X10584750Y-13734750D02*
X10615250Y-13765250D01*
X10615250Y-13734750D02*
X10584750Y-13765250D01*
X10612250Y-11863350D02*
X10642750Y-11893850D01*
X10642750Y-11863350D02*
X10612250Y-11893850D01*
X10623750Y-10277250D02*
X10654250Y-10307750D01*
X10654250Y-10277250D02*
X10623750Y-10307750D01*
X10732250Y-12478750D02*
X10762750Y-12509250D01*
X10762750Y-12478750D02*
X10732250Y-12509250D01*
X10732750Y-7689210D02*
X10763250Y-7719710D01*
X10763250Y-7689210D02*
X10732750Y-7719710D01*
X10759750Y-5709750D02*
X10790250Y-5740250D01*
X10790250Y-5709750D02*
X10759750Y-5740250D01*
X10759750Y-5834750D02*
X10790250Y-5865250D01*
X10790250Y-5834750D02*
X10759750Y-5865250D01*
X10884750Y-14409750D02*
X10915250Y-14440250D01*
X10915250Y-14409750D02*
X10884750Y-14440250D01*
X11048650Y-11863350D02*
X11079150Y-11893850D01*
X11079150Y-11863350D02*
X11048650Y-11893850D01*
X11159750Y-16184750D02*
X11190250Y-16215250D01*
X11190250Y-16184750D02*
X11159750Y-16215250D01*
X11344750Y-11404750D02*
X11375250Y-11435250D01*
X11375250Y-11404750D02*
X11344750Y-11435250D01*
X11514750Y-6784750D02*
X11545250Y-6815250D01*
X11545250Y-6784750D02*
X11514750Y-6815250D01*
X11619750Y-16529750D02*
X11650250Y-16560250D01*
X11650250Y-16529750D02*
X11619750Y-16560250D01*
X11751750Y-17058950D02*
X11782250Y-17089450D01*
X11782250Y-17058950D02*
X11751750Y-17089450D01*
X11945650Y-15707750D02*
X11976150Y-15738250D01*
X11976150Y-15707750D02*
X11945650Y-15738250D01*
X11945650Y-16184750D02*
X11976150Y-16215250D01*
X11976150Y-16184750D02*
X11945650Y-16215250D01*
X12172250Y-11775150D02*
X12202750Y-11805650D01*
X12202750Y-11775150D02*
X12172250Y-11805650D01*
X12208350Y-5832950D02*
X12238850Y-5863450D01*
X12238850Y-5832950D02*
X12208350Y-5863450D01*
X12254750Y-7384750D02*
X12285250Y-7415250D01*
X12285250Y-7384750D02*
X12254750Y-7415250D01*
X12322050Y-12696050D02*
X12352550Y-12726550D01*
X12352550Y-12696050D02*
X12322050Y-12726550D01*
X12324750Y-15707750D02*
X12355250Y-15738250D01*
X12355250Y-15707750D02*
X12324750Y-15738250D01*
X12478250Y-13822250D02*
X12508750Y-13852750D01*
X12508750Y-13822250D02*
X12478250Y-13852750D01*
X12825250Y-13922750D02*
X12855750Y-13953250D01*
X12855750Y-13922750D02*
X12825250Y-13953250D01*
X12884750Y-4084750D02*
X12915250Y-4115250D01*
X12915250Y-4084750D02*
X12884750Y-4115250D01*
X13324550Y-15908250D02*
X13355050Y-15938750D01*
X13355050Y-15908250D02*
X13324550Y-15938750D01*
X13732350Y-4943950D02*
X13762850Y-4974450D01*
X13762850Y-4943950D02*
X13732350Y-4974450D01*
X13823250Y-14030450D02*
X13853750Y-14060950D01*
X13853750Y-14030450D02*
X13823250Y-14060950D01*
X13834750Y-8309750D02*
X13865250Y-8340250D01*
X13865250Y-8309750D02*
X13834750Y-8340250D01*
X14005950Y-12472650D02*
X14036450Y-12503150D01*
X14036450Y-12472650D02*
X14005950Y-12503150D01*
X14294750Y-4812780D02*
X14325250Y-4843280D01*
X14325250Y-4812780D02*
X14294750Y-4843280D01*
X14384750Y-12984750D02*
X14415250Y-13015250D01*
X14415250Y-12984750D02*
X14384750Y-13015250D01*
X14459750Y-10934750D02*
X14490250Y-10965250D01*
X14490250Y-10934750D02*
X14459750Y-10965250D01*
X14589750Y-12240250D02*
X14620250Y-12270750D01*
X14620250Y-12240250D02*
X14589750Y-12270750D01*
X14624550Y-13204750D02*
X14655050Y-13235250D01*
X14655050Y-13204750D02*
X14624550Y-13235250D01*
X14722550Y-11684750D02*
X14753050Y-11715250D01*
X14753050Y-11684750D02*
X14722550Y-11715250D01*
X14757750Y-12497750D02*
X14788250Y-12528250D01*
X14788250Y-12497750D02*
X14757750Y-12528250D01*
X14984750Y-13978550D02*
X15015250Y-14009050D01*
X15015250Y-13978550D02*
X14984750Y-14009050D01*
X15082650Y-11684750D02*
X15113150Y-11715250D01*
X15113150Y-11684750D02*
X15082650Y-11715250D01*
X15324750Y-6684750D02*
X15355250Y-6715250D01*
X15355250Y-6684750D02*
X15324750Y-6715250D01*
X15324750Y-7484750D02*
X15355250Y-7515250D01*
X15355250Y-7484750D02*
X15324750Y-7515250D01*
X15336940Y-8995290D02*
X15367440Y-9025790D01*
X15367440Y-8995290D02*
X15336940Y-9025790D01*
X15436750Y-10352350D02*
X15467250Y-10382850D01*
X15467250Y-10352350D02*
X15436750Y-10382850D01*
X11374910Y-17213746D02*
G75*
G03X11374910Y-17213746I-25000J0D01*
G01*
X11364910Y-17246246D02*
X11364910Y-17181246D01*
X11334910Y-17246246D02*
X11334910Y-17181246D01*
X11364910Y-17181246D02*
G75*
G03X11334910Y-17181246I-15000J0D01*
G01*
X11334910Y-17246246D02*
G75*
G03X11364910Y-17246246I15000J0D01*
G01*
X12074910Y-17213746D02*
G75*
G03X12074910Y-17213746I-25000J0D01*
G01*
X12064910Y-17246246D02*
X12064910Y-17181246D01*
X12034910Y-17246246D02*
X12034910Y-17181246D01*
X12064910Y-17181246D02*
G75*
G03X12034910Y-17181246I-15000J0D01*
G01*
X12034910Y-17246246D02*
G75*
G03X12064910Y-17246246I15000J0D01*
G01*
X11449910Y-16916246D02*
X11449910Y-16971246D01*
X11422410Y-16943746D02*
X11477410Y-16943746D01*
X11434910Y-16961246D02*
X11464910Y-16961246D01*
X11434910Y-16926246D02*
X11464910Y-16926246D01*
X11464910Y-16961246D02*
G75*
G03X11464910Y-16926246I0J17500D01*
G01*
X11434910Y-16926246D02*
G75*
G03X11434910Y-16961246I0J-17500D01*
G01*
X11949910Y-16916246D02*
X11949910Y-16971246D01*
X11922410Y-16943746D02*
X11977410Y-16943746D01*
X11934910Y-16961246D02*
X11964910Y-16961246D01*
X11934910Y-16926246D02*
X11964910Y-16926246D01*
X11964910Y-16961246D02*
G75*
G03X11964910Y-16926246I0J17500D01*
G01*
X11934910Y-16926246D02*
G75*
G03X11934910Y-16961246I0J-17500D01*
G01*
X15545981Y-8564981D02*
X15545981Y-8519019D01*
X15500019Y-8519019D01*
X15500019Y-8564981D01*
X15545981Y-8564981D01*
X15545981Y-8691981D02*
X15545981Y-8646019D01*
X15500019Y-8646019D01*
X15500019Y-8691981D01*
X15545981Y-8691981D01*
X15545981Y-8818981D02*
X15545981Y-8773019D01*
X15500019Y-8773019D01*
X15500019Y-8818981D01*
X15545981Y-8818981D01*
X15545981Y-8945981D02*
X15545981Y-8900019D01*
X15500019Y-8900019D01*
X15500019Y-8945981D01*
X15545981Y-8945981D01*
X15545981Y-9072981D02*
X15545981Y-9027019D01*
X15500019Y-9027019D01*
X15500019Y-9072981D01*
X15545981Y-9072981D01*
X15672981Y-8564981D02*
X15672981Y-8519019D01*
X15627019Y-8519019D01*
X15627019Y-8564981D01*
X15672981Y-8564981D01*
X15672981Y-8691981D02*
X15672981Y-8646019D01*
X15627019Y-8646019D01*
X15627019Y-8691981D01*
X15672981Y-8691981D01*
X15672981Y-8818981D02*
X15672981Y-8773019D01*
X15627019Y-8773019D01*
X15627019Y-8818981D01*
X15672981Y-8818981D01*
X15672981Y-8945981D02*
X15672981Y-8900019D01*
X15627019Y-8900019D01*
X15627019Y-8945981D01*
X15672981Y-8945981D01*
X15672981Y-9072981D02*
X15672981Y-9027019D01*
X15627019Y-9027019D01*
X15627019Y-9072981D01*
X15672981Y-9072981D01*
X6096000Y-15913100D02*
X6134100Y-15875000D01*
X6096000Y-15836900D01*
X6057900Y-15875000D01*
X6096000Y-15913100D01*
X7096000Y-15913100D02*
X7134100Y-15875000D01*
X7096000Y-15836900D01*
X7057900Y-15875000D01*
X7096000Y-15913100D01*
X6560000Y-13560000D02*
X6640000Y-13640000D01*
X6640000Y-13560000D02*
X6560000Y-13640000D01*
X6640000Y-13600000D02*
G75*
G03X6640000Y-13600000I-40000J0D01*
G01*
X6860000Y-14110000D02*
X6940000Y-14190000D01*
X6940000Y-14110000D02*
X6860000Y-14190000D01*
X6940000Y-14150000D02*
G75*
G03X6940000Y-14150000I-40000J0D01*
G01*
X7060000Y-13560000D02*
X7140000Y-13640000D01*
X7140000Y-13560000D02*
X7060000Y-13640000D01*
X7140000Y-13600000D02*
G75*
G03X7140000Y-13600000I-40000J0D01*
G01*
X7560000Y-13560000D02*
X7640000Y-13640000D01*
X7640000Y-13560000D02*
X7560000Y-13640000D01*
X7640000Y-13600000D02*
G75*
G03X7640000Y-13600000I-40000J0D01*
G01*
X7560000Y-14110000D02*
X7640000Y-14190000D01*
X7640000Y-14110000D02*
X7560000Y-14190000D01*
X7640000Y-14150000D02*
G75*
G03X7640000Y-14150000I-40000J0D01*
G01*
X7760000Y-4010000D02*
X7840000Y-4090000D01*
X7840000Y-4010000D02*
X7760000Y-4090000D01*
X7840000Y-4050000D02*
G75*
G03X7840000Y-4050000I-40000J0D01*
G01*
X7760000Y-4710000D02*
X7840000Y-4790000D01*
X7840000Y-4710000D02*
X7760000Y-4790000D01*
X7840000Y-4750000D02*
G75*
G03X7840000Y-4750000I-40000J0D01*
G01*
X7764000Y-5351000D02*
X7844000Y-5431000D01*
X7844000Y-5351000D02*
X7764000Y-5431000D01*
X7844000Y-5391000D02*
G75*
G03X7844000Y-5391000I-40000J0D01*
G01*
X8160000Y-13560000D02*
X8240000Y-13640000D01*
X8240000Y-13560000D02*
X8160000Y-13640000D01*
X8240000Y-13600000D02*
G75*
G03X8240000Y-13600000I-40000J0D01*
G01*
X8560000Y-3960000D02*
X8640000Y-4040000D01*
X8640000Y-3960000D02*
X8560000Y-4040000D01*
X8640000Y-4000000D02*
G75*
G03X8640000Y-4000000I-40000J0D01*
G01*
X13785000Y-14585000D02*
X13865000Y-14665000D01*
X13865000Y-14585000D02*
X13785000Y-14665000D01*
X13865000Y-14625000D02*
G75*
G03X13865000Y-14625000I-40000J0D01*
G01*
X14585000Y-14585000D02*
X14665000Y-14665000D01*
X14665000Y-14585000D02*
X14585000Y-14665000D01*
X14665000Y-14625000D02*
G75*
G03X14665000Y-14625000I-40000J0D01*
G01*
X14000000Y-7085000D02*
X14100000Y-7185000D01*
X14100000Y-7085000D02*
X14000000Y-7185000D01*
X14050000Y-7085000D02*
X14050000Y-7185000D01*
X14000000Y-7135000D02*
X14100000Y-7135000D01*
X14000000Y-7300000D02*
X14100000Y-7400000D01*
X14100000Y-7300000D02*
X14000000Y-7400000D01*
X14050000Y-7300000D02*
X14050000Y-7400000D01*
X14000000Y-7350000D02*
X14100000Y-7350000D01*
X14000000Y-7515000D02*
X14100000Y-7615000D01*
X14100000Y-7515000D02*
X14000000Y-7615000D01*
X14050000Y-7515000D02*
X14050000Y-7615000D01*
X14000000Y-7565000D02*
X14100000Y-7565000D01*
X5199200Y-7643200D02*
X5300800Y-7744800D01*
X5300800Y-7643200D02*
X5199200Y-7744800D01*
X5285921Y-7729921D02*
X5285921Y-7658079D01*
X5214079Y-7658079D01*
X5214079Y-7729921D01*
X5285921Y-7729921D01*
X5199200Y-7897200D02*
X5300800Y-7998800D01*
X5300800Y-7897200D02*
X5199200Y-7998800D01*
X5285921Y-7983921D02*
X5285921Y-7912079D01*
X5214079Y-7912079D01*
X5214079Y-7983921D01*
X5285921Y-7983921D01*
X5199200Y-8151200D02*
X5300800Y-8252800D01*
X5300800Y-8151200D02*
X5199200Y-8252800D01*
X5285921Y-8237921D02*
X5285921Y-8166079D01*
X5214079Y-8166079D01*
X5214079Y-8237921D01*
X5285921Y-8237921D01*
X5199200Y-8405200D02*
X5300800Y-8506800D01*
X5300800Y-8405200D02*
X5199200Y-8506800D01*
X5285921Y-8491921D02*
X5285921Y-8420079D01*
X5214079Y-8420079D01*
X5214079Y-8491921D01*
X5285921Y-8491921D01*
X5199200Y-8659200D02*
X5300800Y-8760800D01*
X5300800Y-8659200D02*
X5199200Y-8760800D01*
X5285921Y-8745921D02*
X5285921Y-8674079D01*
X5214079Y-8674079D01*
X5214079Y-8745921D01*
X5285921Y-8745921D01*
X5199200Y-8913200D02*
X5300800Y-9014800D01*
X5300800Y-8913200D02*
X5199200Y-9014800D01*
X5285921Y-8999921D02*
X5285921Y-8928079D01*
X5214079Y-8928079D01*
X5214079Y-8999921D01*
X5285921Y-8999921D01*
X5199200Y-9167200D02*
X5300800Y-9268800D01*
X5300800Y-9167200D02*
X5199200Y-9268800D01*
X5285921Y-9253921D02*
X5285921Y-9182079D01*
X5214079Y-9182079D01*
X5214079Y-9253921D01*
X5285921Y-9253921D01*
X5199200Y-9421200D02*
X5300800Y-9522800D01*
X5300800Y-9421200D02*
X5199200Y-9522800D01*
X5285921Y-9507921D02*
X5285921Y-9436079D01*
X5214079Y-9436079D01*
X5214079Y-9507921D01*
X5285921Y-9507921D01*
X5199200Y-9675200D02*
X5300800Y-9776800D01*
X5300800Y-9675200D02*
X5199200Y-9776800D01*
X5285921Y-9761921D02*
X5285921Y-9690079D01*
X5214079Y-9690079D01*
X5214079Y-9761921D01*
X5285921Y-9761921D01*
X5199200Y-9929200D02*
X5300800Y-10030800D01*
X5300800Y-9929200D02*
X5199200Y-10030800D01*
X5285921Y-10015921D02*
X5285921Y-9944079D01*
X5214079Y-9944079D01*
X5214079Y-10015921D01*
X5285921Y-10015921D01*
X5199200Y-10183200D02*
X5300800Y-10284800D01*
X5300800Y-10183200D02*
X5199200Y-10284800D01*
X5285921Y-10269921D02*
X5285921Y-10198079D01*
X5214079Y-10198079D01*
X5214079Y-10269921D01*
X5285921Y-10269921D01*
X5199200Y-10437200D02*
X5300800Y-10538800D01*
X5300800Y-10437200D02*
X5199200Y-10538800D01*
X5285921Y-10523921D02*
X5285921Y-10452079D01*
X5214079Y-10452079D01*
X5214079Y-10523921D01*
X5285921Y-10523921D01*
X5199200Y-10691200D02*
X5300800Y-10792800D01*
X5300800Y-10691200D02*
X5199200Y-10792800D01*
X5285921Y-10777921D02*
X5285921Y-10706079D01*
X5214079Y-10706079D01*
X5214079Y-10777921D01*
X5285921Y-10777921D01*
X5199200Y-10945200D02*
X5300800Y-11046800D01*
X5300800Y-10945200D02*
X5199200Y-11046800D01*
X5285921Y-11031921D02*
X5285921Y-10960079D01*
X5214079Y-10960079D01*
X5214079Y-11031921D01*
X5285921Y-11031921D01*
X5199200Y-11199200D02*
X5300800Y-11300800D01*
X5300800Y-11199200D02*
X5199200Y-11300800D01*
X5285921Y-11285921D02*
X5285921Y-11214079D01*
X5214079Y-11214079D01*
X5214079Y-11285921D01*
X5285921Y-11285921D01*
X5199200Y-11453200D02*
X5300800Y-11554800D01*
X5300800Y-11453200D02*
X5199200Y-11554800D01*
X5285921Y-11539921D02*
X5285921Y-11468079D01*
X5214079Y-11468079D01*
X5214079Y-11539921D01*
X5285921Y-11539921D01*
X5199200Y-11707200D02*
X5300800Y-11808800D01*
X5300800Y-11707200D02*
X5199200Y-11808800D01*
X5285921Y-11793921D02*
X5285921Y-11722079D01*
X5214079Y-11722079D01*
X5214079Y-11793921D01*
X5285921Y-11793921D01*
X5199200Y-11961200D02*
X5300800Y-12062800D01*
X5300800Y-11961200D02*
X5199200Y-12062800D01*
X5285921Y-12047921D02*
X5285921Y-11976079D01*
X5214079Y-11976079D01*
X5214079Y-12047921D01*
X5285921Y-12047921D01*
X5199200Y-12215200D02*
X5300800Y-12316800D01*
X5300800Y-12215200D02*
X5199200Y-12316800D01*
X5285921Y-12301921D02*
X5285921Y-12230079D01*
X5214079Y-12230079D01*
X5214079Y-12301921D01*
X5285921Y-12301921D01*
X5199200Y-12469200D02*
X5300800Y-12570800D01*
X5300800Y-12469200D02*
X5199200Y-12570800D01*
X5285921Y-12555921D02*
X5285921Y-12484079D01*
X5214079Y-12484079D01*
X5214079Y-12555921D01*
X5285921Y-12555921D01*
X5453200Y-7643200D02*
X5554800Y-7744800D01*
X5554800Y-7643200D02*
X5453200Y-7744800D01*
X5539921Y-7729921D02*
X5539921Y-7658079D01*
X5468079Y-7658079D01*
X5468079Y-7729921D01*
X5539921Y-7729921D01*
X5453200Y-7897200D02*
X5554800Y-7998800D01*
X5554800Y-7897200D02*
X5453200Y-7998800D01*
X5539921Y-7983921D02*
X5539921Y-7912079D01*
X5468079Y-7912079D01*
X5468079Y-7983921D01*
X5539921Y-7983921D01*
X5453200Y-8151200D02*
X5554800Y-8252800D01*
X5554800Y-8151200D02*
X5453200Y-8252800D01*
X5539921Y-8237921D02*
X5539921Y-8166079D01*
X5468079Y-8166079D01*
X5468079Y-8237921D01*
X5539921Y-8237921D01*
X5453200Y-8405200D02*
X5554800Y-8506800D01*
X5554800Y-8405200D02*
X5453200Y-8506800D01*
X5539921Y-8491921D02*
X5539921Y-8420079D01*
X5468079Y-8420079D01*
X5468079Y-8491921D01*
X5539921Y-8491921D01*
X5453200Y-8659200D02*
X5554800Y-8760800D01*
X5554800Y-8659200D02*
X5453200Y-8760800D01*
X5539921Y-8745921D02*
X5539921Y-8674079D01*
X5468079Y-8674079D01*
X5468079Y-8745921D01*
X5539921Y-8745921D01*
X5453200Y-8913200D02*
X5554800Y-9014800D01*
X5554800Y-8913200D02*
X5453200Y-9014800D01*
X5539921Y-8999921D02*
X5539921Y-8928079D01*
X5468079Y-8928079D01*
X5468079Y-8999921D01*
X5539921Y-8999921D01*
X5453200Y-9167200D02*
X5554800Y-9268800D01*
X5554800Y-9167200D02*
X5453200Y-9268800D01*
X5539921Y-9253921D02*
X5539921Y-9182079D01*
X5468079Y-9182079D01*
X5468079Y-9253921D01*
X5539921Y-9253921D01*
X5453200Y-9421200D02*
X5554800Y-9522800D01*
X5554800Y-9421200D02*
X5453200Y-9522800D01*
X5539921Y-9507921D02*
X5539921Y-9436079D01*
X5468079Y-9436079D01*
X5468079Y-9507921D01*
X5539921Y-9507921D01*
X5453200Y-9675200D02*
X5554800Y-9776800D01*
X5554800Y-9675200D02*
X5453200Y-9776800D01*
X5539921Y-9761921D02*
X5539921Y-9690079D01*
X5468079Y-9690079D01*
X5468079Y-9761921D01*
X5539921Y-9761921D01*
X5453200Y-9929200D02*
X5554800Y-10030800D01*
X5554800Y-9929200D02*
X5453200Y-10030800D01*
X5539921Y-10015921D02*
X5539921Y-9944079D01*
X5468079Y-9944079D01*
X5468079Y-10015921D01*
X5539921Y-10015921D01*
X5453200Y-10183200D02*
X5554800Y-10284800D01*
X5554800Y-10183200D02*
X5453200Y-10284800D01*
X5539921Y-10269921D02*
X5539921Y-10198079D01*
X5468079Y-10198079D01*
X5468079Y-10269921D01*
X5539921Y-10269921D01*
X5453200Y-10437200D02*
X5554800Y-10538800D01*
X5554800Y-10437200D02*
X5453200Y-10538800D01*
X5539921Y-10523921D02*
X5539921Y-10452079D01*
X5468079Y-10452079D01*
X5468079Y-10523921D01*
X5539921Y-10523921D01*
X5453200Y-10691200D02*
X5554800Y-10792800D01*
X5554800Y-10691200D02*
X5453200Y-10792800D01*
X5539921Y-10777921D02*
X5539921Y-10706079D01*
X5468079Y-10706079D01*
X5468079Y-10777921D01*
X5539921Y-10777921D01*
X5453200Y-10945200D02*
X5554800Y-11046800D01*
X5554800Y-10945200D02*
X5453200Y-11046800D01*
X5539921Y-11031921D02*
X5539921Y-10960079D01*
X5468079Y-10960079D01*
X5468079Y-11031921D01*
X5539921Y-11031921D01*
X5453200Y-11199200D02*
X5554800Y-11300800D01*
X5554800Y-11199200D02*
X5453200Y-11300800D01*
X5539921Y-11285921D02*
X5539921Y-11214079D01*
X5468079Y-11214079D01*
X5468079Y-11285921D01*
X5539921Y-11285921D01*
X5453200Y-11453200D02*
X5554800Y-11554800D01*
X5554800Y-11453200D02*
X5453200Y-11554800D01*
X5539921Y-11539921D02*
X5539921Y-11468079D01*
X5468079Y-11468079D01*
X5468079Y-11539921D01*
X5539921Y-11539921D01*
X5453200Y-11707200D02*
X5554800Y-11808800D01*
X5554800Y-11707200D02*
X5453200Y-11808800D01*
X5539921Y-11793921D02*
X5539921Y-11722079D01*
X5468079Y-11722079D01*
X5468079Y-11793921D01*
X5539921Y-11793921D01*
X5453200Y-11961200D02*
X5554800Y-12062800D01*
X5554800Y-11961200D02*
X5453200Y-12062800D01*
X5539921Y-12047921D02*
X5539921Y-11976079D01*
X5468079Y-11976079D01*
X5468079Y-12047921D01*
X5539921Y-12047921D01*
X5453200Y-12215200D02*
X5554800Y-12316800D01*
X5554800Y-12215200D02*
X5453200Y-12316800D01*
X5539921Y-12301921D02*
X5539921Y-12230079D01*
X5468079Y-12230079D01*
X5468079Y-12301921D01*
X5539921Y-12301921D01*
X5453200Y-12469200D02*
X5554800Y-12570800D01*
X5554800Y-12469200D02*
X5453200Y-12570800D01*
X5539921Y-12555921D02*
X5539921Y-12484079D01*
X5468079Y-12484079D01*
X5468079Y-12555921D01*
X5539921Y-12555921D01*
X7149200Y-6199200D02*
X7250800Y-6300800D01*
X7250800Y-6199200D02*
X7149200Y-6300800D01*
X7235921Y-6285921D02*
X7235921Y-6214079D01*
X7164079Y-6214079D01*
X7164079Y-6285921D01*
X7235921Y-6285921D01*
X7403200Y-6199200D02*
X7504800Y-6300800D01*
X7504800Y-6199200D02*
X7403200Y-6300800D01*
X7489921Y-6285921D02*
X7489921Y-6214079D01*
X7418079Y-6214079D01*
X7418079Y-6285921D01*
X7489921Y-6285921D01*
X7657200Y-6199200D02*
X7758800Y-6300800D01*
X7758800Y-6199200D02*
X7657200Y-6300800D01*
X7743921Y-6285921D02*
X7743921Y-6214079D01*
X7672079Y-6214079D01*
X7672079Y-6285921D01*
X7743921Y-6285921D01*
X7911200Y-6199200D02*
X8012800Y-6300800D01*
X8012800Y-6199200D02*
X7911200Y-6300800D01*
X7997921Y-6285921D02*
X7997921Y-6214079D01*
X7926079Y-6214079D01*
X7926079Y-6285921D01*
X7997921Y-6285921D01*
X8165200Y-6199200D02*
X8266800Y-6300800D01*
X8266800Y-6199200D02*
X8165200Y-6300800D01*
X8251921Y-6285921D02*
X8251921Y-6214079D01*
X8180079Y-6214079D01*
X8180079Y-6285921D01*
X8251921Y-6285921D01*
X8419200Y-6199200D02*
X8520800Y-6300800D01*
X8520800Y-6199200D02*
X8419200Y-6300800D01*
X8505921Y-6285921D02*
X8505921Y-6214079D01*
X8434079Y-6214079D01*
X8434079Y-6285921D01*
X8505921Y-6285921D01*
D13*
X2188194Y-18439149D02*
X2188194Y-18139149D01*
X2259623Y-18139149D01*
X2302480Y-18153434D01*
X2331051Y-18182006D01*
X2345337Y-18210577D01*
X2359623Y-18267720D01*
X2359623Y-18310577D01*
X2345337Y-18367720D01*
X2331051Y-18396291D01*
X2302480Y-18424863D01*
X2259623Y-18439149D01*
X2188194Y-18439149D01*
X2488194Y-18439149D02*
X2488194Y-18239149D01*
X2488194Y-18296291D02*
X2502480Y-18267720D01*
X2516766Y-18253434D01*
X2545337Y-18239149D01*
X2573909Y-18239149D01*
X2673909Y-18439149D02*
X2673909Y-18239149D01*
X2673909Y-18139149D02*
X2659623Y-18153434D01*
X2673909Y-18167720D01*
X2688194Y-18153434D01*
X2673909Y-18139149D01*
X2673909Y-18167720D01*
X2859623Y-18439149D02*
X2831051Y-18424863D01*
X2816766Y-18396291D01*
X2816766Y-18139149D01*
X3016766Y-18439149D02*
X2988194Y-18424863D01*
X2973908Y-18396291D01*
X2973908Y-18139149D01*
X3359623Y-18439149D02*
X3359623Y-18139149D01*
X3459623Y-18353434D01*
X3559623Y-18139149D01*
X3559623Y-18439149D01*
X3831051Y-18439149D02*
X3831051Y-18282006D01*
X3816766Y-18253434D01*
X3788194Y-18239149D01*
X3731051Y-18239149D01*
X3702480Y-18253434D01*
X3831051Y-18424863D02*
X3802480Y-18439149D01*
X3731051Y-18439149D01*
X3702480Y-18424863D01*
X3688194Y-18396291D01*
X3688194Y-18367720D01*
X3702480Y-18339149D01*
X3731051Y-18324863D01*
X3802480Y-18324863D01*
X3831051Y-18310577D01*
X3973908Y-18239149D02*
X3973908Y-18539149D01*
X3973908Y-18253434D02*
X4002480Y-18239149D01*
X4059623Y-18239149D01*
X4088194Y-18253434D01*
X4102480Y-18267720D01*
X4116766Y-18296291D01*
X4116766Y-18382006D01*
X4102480Y-18410577D01*
X4088194Y-18424863D01*
X4059623Y-18439149D01*
X4002480Y-18439149D01*
X3973908Y-18424863D01*
X4245337Y-18410577D02*
X4259623Y-18424863D01*
X4245337Y-18439149D01*
X4231051Y-18424863D01*
X4245337Y-18410577D01*
X4245337Y-18439149D01*
X4245337Y-18253434D02*
X4259623Y-18267720D01*
X4245337Y-18282006D01*
X4231051Y-18267720D01*
X4245337Y-18253434D01*
X4245337Y-18282006D01*
X1871266Y-18918184D02*
X1901766Y-18948684D01*
X1901766Y-18918184D02*
X1871266Y-18948684D01*
X2245337Y-18769149D02*
X2273909Y-18769149D01*
X2302480Y-18783434D01*
X2316766Y-18797720D01*
X2331051Y-18826291D01*
X2345337Y-18883434D01*
X2345337Y-18954863D01*
X2331051Y-19012006D01*
X2316766Y-19040577D01*
X2302480Y-19054863D01*
X2273909Y-19069149D01*
X2245337Y-19069149D01*
X2216766Y-19054863D01*
X2202480Y-19040577D01*
X2188194Y-19012006D01*
X2173909Y-18954863D01*
X2173909Y-18883434D01*
X2188194Y-18826291D01*
X2202480Y-18797720D01*
X2216766Y-18783434D01*
X2245337Y-18769149D01*
X2473909Y-19040577D02*
X2488194Y-19054863D01*
X2473909Y-19069149D01*
X2459623Y-19054863D01*
X2473909Y-19040577D01*
X2473909Y-19069149D01*
X2588194Y-18769149D02*
X2773909Y-18769149D01*
X2673909Y-18883434D01*
X2716766Y-18883434D01*
X2745337Y-18897720D01*
X2759623Y-18912006D01*
X2773909Y-18940577D01*
X2773909Y-19012006D01*
X2759623Y-19040577D01*
X2745337Y-19054863D01*
X2716766Y-19069149D01*
X2631051Y-19069149D01*
X2602480Y-19054863D01*
X2588194Y-19040577D01*
X2959623Y-18769149D02*
X2988194Y-18769149D01*
X3016766Y-18783434D01*
X3031051Y-18797720D01*
X3045337Y-18826291D01*
X3059623Y-18883434D01*
X3059623Y-18954863D01*
X3045337Y-19012006D01*
X3031051Y-19040577D01*
X3016766Y-19054863D01*
X2988194Y-19069149D01*
X2959623Y-19069149D01*
X2931051Y-19054863D01*
X2916766Y-19040577D01*
X2902480Y-19012006D01*
X2888194Y-18954863D01*
X2888194Y-18883434D01*
X2902480Y-18826291D01*
X2916766Y-18797720D01*
X2931051Y-18783434D01*
X2959623Y-18769149D01*
X3188194Y-19069149D02*
X3188194Y-18869149D01*
X3188194Y-18897720D02*
X3202480Y-18883434D01*
X3231051Y-18869149D01*
X3273908Y-18869149D01*
X3302480Y-18883434D01*
X3316766Y-18912006D01*
X3316766Y-19069149D01*
X3316766Y-18912006D02*
X3331051Y-18883434D01*
X3359623Y-18869149D01*
X3402480Y-18869149D01*
X3431051Y-18883434D01*
X3445337Y-18912006D01*
X3445337Y-19069149D01*
X3588194Y-19069149D02*
X3588194Y-18869149D01*
X3588194Y-18897720D02*
X3602480Y-18883434D01*
X3631051Y-18869149D01*
X3673908Y-18869149D01*
X3702480Y-18883434D01*
X3716766Y-18912006D01*
X3716766Y-19069149D01*
X3716766Y-18912006D02*
X3731051Y-18883434D01*
X3759623Y-18869149D01*
X3802480Y-18869149D01*
X3831051Y-18883434D01*
X3845337Y-18912006D01*
X3845337Y-19069149D01*
X4431051Y-18754863D02*
X4173908Y-19140577D01*
X4816766Y-18769149D02*
X4845337Y-18769149D01*
X4873909Y-18783434D01*
X4888194Y-18797720D01*
X4902480Y-18826291D01*
X4916766Y-18883434D01*
X4916766Y-18954863D01*
X4902480Y-19012006D01*
X4888194Y-19040577D01*
X4873909Y-19054863D01*
X4845337Y-19069149D01*
X4816766Y-19069149D01*
X4788194Y-19054863D01*
X4773909Y-19040577D01*
X4759623Y-19012006D01*
X4745337Y-18954863D01*
X4745337Y-18883434D01*
X4759623Y-18826291D01*
X4773909Y-18797720D01*
X4788194Y-18783434D01*
X4816766Y-18769149D01*
X5045337Y-19040577D02*
X5059623Y-19054863D01*
X5045337Y-19069149D01*
X5031051Y-19054863D01*
X5045337Y-19040577D01*
X5045337Y-19069149D01*
X5245337Y-18769149D02*
X5273909Y-18769149D01*
X5302480Y-18783434D01*
X5316766Y-18797720D01*
X5331051Y-18826291D01*
X5345337Y-18883434D01*
X5345337Y-18954863D01*
X5331051Y-19012006D01*
X5316766Y-19040577D01*
X5302480Y-19054863D01*
X5273909Y-19069149D01*
X5245337Y-19069149D01*
X5216766Y-19054863D01*
X5202480Y-19040577D01*
X5188194Y-19012006D01*
X5173909Y-18954863D01*
X5173909Y-18883434D01*
X5188194Y-18826291D01*
X5202480Y-18797720D01*
X5216766Y-18783434D01*
X5245337Y-18769149D01*
X5631051Y-19069149D02*
X5459623Y-19069149D01*
X5545337Y-19069149D02*
X5545337Y-18769149D01*
X5516766Y-18812006D01*
X5488194Y-18840577D01*
X5459623Y-18854863D01*
X5745337Y-18797720D02*
X5759623Y-18783434D01*
X5788194Y-18769149D01*
X5859623Y-18769149D01*
X5888194Y-18783434D01*
X5902480Y-18797720D01*
X5916766Y-18826291D01*
X5916766Y-18854863D01*
X5902480Y-18897720D01*
X5731051Y-19069149D01*
X5916766Y-19069149D01*
X6031051Y-18769149D02*
X6031051Y-18826291D01*
X6145337Y-18769149D02*
X6145337Y-18826291D01*
X6588194Y-19183434D02*
X6573908Y-19169149D01*
X6545337Y-19126291D01*
X6531051Y-19097720D01*
X6516766Y-19054863D01*
X6502480Y-18983434D01*
X6502480Y-18926291D01*
X6516766Y-18854863D01*
X6531051Y-18812006D01*
X6545337Y-18783434D01*
X6573908Y-18740577D01*
X6588194Y-18726291D01*
X6859623Y-19069149D02*
X6688194Y-19069149D01*
X6773908Y-19069149D02*
X6773908Y-18769149D01*
X6745337Y-18812006D01*
X6716766Y-18840577D01*
X6688194Y-18854863D01*
X6973908Y-18797720D02*
X6988194Y-18783434D01*
X7016766Y-18769149D01*
X7088194Y-18769149D01*
X7116766Y-18783434D01*
X7131051Y-18797720D01*
X7145337Y-18826291D01*
X7145337Y-18854863D01*
X7131051Y-18897720D01*
X6959623Y-19069149D01*
X7145337Y-19069149D01*
X7245337Y-18769149D02*
X7445337Y-18769149D01*
X7316766Y-19069149D01*
X7788194Y-19069149D02*
X7788194Y-18769149D01*
X7916766Y-19069149D02*
X7916766Y-18912006D01*
X7902480Y-18883434D01*
X7873908Y-18869149D01*
X7831051Y-18869149D01*
X7802480Y-18883434D01*
X7788194Y-18897720D01*
X8102480Y-19069149D02*
X8073908Y-19054863D01*
X8059623Y-19040577D01*
X8045337Y-19012006D01*
X8045337Y-18926291D01*
X8059623Y-18897720D01*
X8073908Y-18883434D01*
X8102480Y-18869149D01*
X8145337Y-18869149D01*
X8173908Y-18883434D01*
X8188194Y-18897720D01*
X8202480Y-18926291D01*
X8202480Y-19012006D01*
X8188194Y-19040577D01*
X8173908Y-19054863D01*
X8145337Y-19069149D01*
X8102480Y-19069149D01*
X8373908Y-19069149D02*
X8345337Y-19054863D01*
X8331051Y-19026291D01*
X8331051Y-18769149D01*
X8602480Y-19054863D02*
X8573909Y-19069149D01*
X8516766Y-19069149D01*
X8488194Y-19054863D01*
X8473909Y-19026291D01*
X8473909Y-18912006D01*
X8488194Y-18883434D01*
X8516766Y-18869149D01*
X8573909Y-18869149D01*
X8602480Y-18883434D01*
X8616766Y-18912006D01*
X8616766Y-18940577D01*
X8473909Y-18969149D01*
X8731051Y-19054863D02*
X8759623Y-19069149D01*
X8816766Y-19069149D01*
X8845337Y-19054863D01*
X8859623Y-19026291D01*
X8859623Y-19012006D01*
X8845337Y-18983434D01*
X8816766Y-18969149D01*
X8773909Y-18969149D01*
X8745337Y-18954863D01*
X8731051Y-18926291D01*
X8731051Y-18912006D01*
X8745337Y-18883434D01*
X8773909Y-18869149D01*
X8816766Y-18869149D01*
X8845337Y-18883434D01*
X8959623Y-19183434D02*
X8973909Y-19169149D01*
X9002480Y-19126291D01*
X9016766Y-19097720D01*
X9031051Y-19054863D01*
X9045337Y-18983434D01*
X9045337Y-18926291D01*
X9031051Y-18854863D01*
X9016766Y-18812006D01*
X9002480Y-18783434D01*
X8973909Y-18740577D01*
X8959623Y-18726291D01*
X1901766Y-19329434D02*
G75*
G03X1901766Y-19329434I-25000J0D01*
G01*
X2245337Y-19165149D02*
X2273909Y-19165149D01*
X2302480Y-19179434D01*
X2316766Y-19193720D01*
X2331051Y-19222291D01*
X2345337Y-19279434D01*
X2345337Y-19350863D01*
X2331051Y-19408006D01*
X2316766Y-19436577D01*
X2302480Y-19450863D01*
X2273909Y-19465149D01*
X2245337Y-19465149D01*
X2216766Y-19450863D01*
X2202480Y-19436577D01*
X2188194Y-19408006D01*
X2173909Y-19350863D01*
X2173909Y-19279434D01*
X2188194Y-19222291D01*
X2202480Y-19193720D01*
X2216766Y-19179434D01*
X2245337Y-19165149D01*
X2473909Y-19436577D02*
X2488194Y-19450863D01*
X2473909Y-19465149D01*
X2459623Y-19450863D01*
X2473909Y-19436577D01*
X2473909Y-19465149D01*
X2759623Y-19165149D02*
X2616766Y-19165149D01*
X2602480Y-19308006D01*
X2616766Y-19293720D01*
X2645337Y-19279434D01*
X2716766Y-19279434D01*
X2745337Y-19293720D01*
X2759623Y-19308006D01*
X2773909Y-19336577D01*
X2773909Y-19408006D01*
X2759623Y-19436577D01*
X2745337Y-19450863D01*
X2716766Y-19465149D01*
X2645337Y-19465149D01*
X2616766Y-19450863D01*
X2602480Y-19436577D01*
X2959623Y-19165149D02*
X2988194Y-19165149D01*
X3016766Y-19179434D01*
X3031051Y-19193720D01*
X3045337Y-19222291D01*
X3059623Y-19279434D01*
X3059623Y-19350863D01*
X3045337Y-19408006D01*
X3031051Y-19436577D01*
X3016766Y-19450863D01*
X2988194Y-19465149D01*
X2959623Y-19465149D01*
X2931051Y-19450863D01*
X2916766Y-19436577D01*
X2902480Y-19408006D01*
X2888194Y-19350863D01*
X2888194Y-19279434D01*
X2902480Y-19222291D01*
X2916766Y-19193720D01*
X2931051Y-19179434D01*
X2959623Y-19165149D01*
X3188194Y-19465149D02*
X3188194Y-19265149D01*
X3188194Y-19293720D02*
X3202480Y-19279434D01*
X3231051Y-19265149D01*
X3273908Y-19265149D01*
X3302480Y-19279434D01*
X3316766Y-19308006D01*
X3316766Y-19465149D01*
X3316766Y-19308006D02*
X3331051Y-19279434D01*
X3359623Y-19265149D01*
X3402480Y-19265149D01*
X3431051Y-19279434D01*
X3445337Y-19308006D01*
X3445337Y-19465149D01*
X3588194Y-19465149D02*
X3588194Y-19265149D01*
X3588194Y-19293720D02*
X3602480Y-19279434D01*
X3631051Y-19265149D01*
X3673908Y-19265149D01*
X3702480Y-19279434D01*
X3716766Y-19308006D01*
X3716766Y-19465149D01*
X3716766Y-19308006D02*
X3731051Y-19279434D01*
X3759623Y-19265149D01*
X3802480Y-19265149D01*
X3831051Y-19279434D01*
X3845337Y-19308006D01*
X3845337Y-19465149D01*
X4431051Y-19150863D02*
X4173908Y-19536577D01*
X4816766Y-19165149D02*
X4845337Y-19165149D01*
X4873909Y-19179434D01*
X4888194Y-19193720D01*
X4902480Y-19222291D01*
X4916766Y-19279434D01*
X4916766Y-19350863D01*
X4902480Y-19408006D01*
X4888194Y-19436577D01*
X4873909Y-19450863D01*
X4845337Y-19465149D01*
X4816766Y-19465149D01*
X4788194Y-19450863D01*
X4773909Y-19436577D01*
X4759623Y-19408006D01*
X4745337Y-19350863D01*
X4745337Y-19279434D01*
X4759623Y-19222291D01*
X4773909Y-19193720D01*
X4788194Y-19179434D01*
X4816766Y-19165149D01*
X5045337Y-19436577D02*
X5059623Y-19450863D01*
X5045337Y-19465149D01*
X5031051Y-19450863D01*
X5045337Y-19436577D01*
X5045337Y-19465149D01*
X5245337Y-19165149D02*
X5273909Y-19165149D01*
X5302480Y-19179434D01*
X5316766Y-19193720D01*
X5331051Y-19222291D01*
X5345337Y-19279434D01*
X5345337Y-19350863D01*
X5331051Y-19408006D01*
X5316766Y-19436577D01*
X5302480Y-19450863D01*
X5273909Y-19465149D01*
X5245337Y-19465149D01*
X5216766Y-19450863D01*
X5202480Y-19436577D01*
X5188194Y-19408006D01*
X5173909Y-19350863D01*
X5173909Y-19279434D01*
X5188194Y-19222291D01*
X5202480Y-19193720D01*
X5216766Y-19179434D01*
X5245337Y-19165149D01*
X5459623Y-19193720D02*
X5473909Y-19179434D01*
X5502480Y-19165149D01*
X5573909Y-19165149D01*
X5602480Y-19179434D01*
X5616766Y-19193720D01*
X5631051Y-19222291D01*
X5631051Y-19250863D01*
X5616766Y-19293720D01*
X5445337Y-19465149D01*
X5631051Y-19465149D01*
X5816766Y-19165149D02*
X5845337Y-19165149D01*
X5873908Y-19179434D01*
X5888194Y-19193720D01*
X5902480Y-19222291D01*
X5916766Y-19279434D01*
X5916766Y-19350863D01*
X5902480Y-19408006D01*
X5888194Y-19436577D01*
X5873908Y-19450863D01*
X5845337Y-19465149D01*
X5816766Y-19465149D01*
X5788194Y-19450863D01*
X5773908Y-19436577D01*
X5759623Y-19408006D01*
X5745337Y-19350863D01*
X5745337Y-19279434D01*
X5759623Y-19222291D01*
X5773908Y-19193720D01*
X5788194Y-19179434D01*
X5816766Y-19165149D01*
X6031051Y-19165149D02*
X6031051Y-19222291D01*
X6145337Y-19165149D02*
X6145337Y-19222291D01*
X6588194Y-19579434D02*
X6573908Y-19565149D01*
X6545337Y-19522291D01*
X6531051Y-19493720D01*
X6516766Y-19450863D01*
X6502480Y-19379434D01*
X6502480Y-19322291D01*
X6516766Y-19250863D01*
X6531051Y-19208006D01*
X6545337Y-19179434D01*
X6573908Y-19136577D01*
X6588194Y-19122291D01*
X6759623Y-19165149D02*
X6788194Y-19165149D01*
X6816766Y-19179434D01*
X6831051Y-19193720D01*
X6845337Y-19222291D01*
X6859623Y-19279434D01*
X6859623Y-19350863D01*
X6845337Y-19408006D01*
X6831051Y-19436577D01*
X6816766Y-19450863D01*
X6788194Y-19465149D01*
X6759623Y-19465149D01*
X6731051Y-19450863D01*
X6716766Y-19436577D01*
X6702480Y-19408006D01*
X6688194Y-19350863D01*
X6688194Y-19279434D01*
X6702480Y-19222291D01*
X6716766Y-19193720D01*
X6731051Y-19179434D01*
X6759623Y-19165149D01*
X7216766Y-19465149D02*
X7216766Y-19165149D01*
X7345337Y-19465149D02*
X7345337Y-19308006D01*
X7331051Y-19279434D01*
X7302480Y-19265149D01*
X7259623Y-19265149D01*
X7231051Y-19279434D01*
X7216766Y-19293720D01*
X7531051Y-19465149D02*
X7502480Y-19450863D01*
X7488194Y-19436577D01*
X7473908Y-19408006D01*
X7473908Y-19322291D01*
X7488194Y-19293720D01*
X7502480Y-19279434D01*
X7531051Y-19265149D01*
X7573908Y-19265149D01*
X7602480Y-19279434D01*
X7616766Y-19293720D01*
X7631051Y-19322291D01*
X7631051Y-19408006D01*
X7616766Y-19436577D01*
X7602480Y-19450863D01*
X7573908Y-19465149D01*
X7531051Y-19465149D01*
X7802480Y-19465149D02*
X7773908Y-19450863D01*
X7759623Y-19422291D01*
X7759623Y-19165149D01*
X8031051Y-19450863D02*
X8002480Y-19465149D01*
X7945337Y-19465149D01*
X7916766Y-19450863D01*
X7902480Y-19422291D01*
X7902480Y-19308006D01*
X7916766Y-19279434D01*
X7945337Y-19265149D01*
X8002480Y-19265149D01*
X8031051Y-19279434D01*
X8045337Y-19308006D01*
X8045337Y-19336577D01*
X7902480Y-19365149D01*
X8159623Y-19450863D02*
X8188194Y-19465149D01*
X8245337Y-19465149D01*
X8273908Y-19450863D01*
X8288194Y-19422291D01*
X8288194Y-19408006D01*
X8273908Y-19379434D01*
X8245337Y-19365149D01*
X8202480Y-19365149D01*
X8173908Y-19350863D01*
X8159623Y-19322291D01*
X8159623Y-19308006D01*
X8173908Y-19279434D01*
X8202480Y-19265149D01*
X8245337Y-19265149D01*
X8273908Y-19279434D01*
X8645337Y-19350863D02*
X8873909Y-19350863D01*
X8759623Y-19465149D02*
X8759623Y-19236577D01*
X9231051Y-19193720D02*
X9245337Y-19179434D01*
X9273909Y-19165149D01*
X9345337Y-19165149D01*
X9373909Y-19179434D01*
X9388194Y-19193720D01*
X9402480Y-19222291D01*
X9402480Y-19250863D01*
X9388194Y-19293720D01*
X9216766Y-19465149D01*
X9402480Y-19465149D01*
X9745337Y-19450863D02*
X9773909Y-19465149D01*
X9831051Y-19465149D01*
X9859623Y-19450863D01*
X9873909Y-19422291D01*
X9873909Y-19408006D01*
X9859623Y-19379434D01*
X9831051Y-19365149D01*
X9788194Y-19365149D01*
X9759623Y-19350863D01*
X9745337Y-19322291D01*
X9745337Y-19308006D01*
X9759623Y-19279434D01*
X9788194Y-19265149D01*
X9831051Y-19265149D01*
X9859623Y-19279434D01*
X10045337Y-19465149D02*
X10016766Y-19450863D01*
X10002480Y-19422291D01*
X10002480Y-19165149D01*
X10202480Y-19465149D02*
X10173909Y-19450863D01*
X10159623Y-19436577D01*
X10145337Y-19408006D01*
X10145337Y-19322291D01*
X10159623Y-19293720D01*
X10173909Y-19279434D01*
X10202480Y-19265149D01*
X10245337Y-19265149D01*
X10273909Y-19279434D01*
X10288194Y-19293720D01*
X10302480Y-19322291D01*
X10302480Y-19408006D01*
X10288194Y-19436577D01*
X10273909Y-19450863D01*
X10245337Y-19465149D01*
X10202480Y-19465149D01*
X10388194Y-19265149D02*
X10502480Y-19265149D01*
X10431051Y-19165149D02*
X10431051Y-19422291D01*
X10445337Y-19450863D01*
X10473909Y-19465149D01*
X10502480Y-19465149D01*
X10588194Y-19450863D02*
X10616766Y-19465149D01*
X10673909Y-19465149D01*
X10702480Y-19450863D01*
X10716766Y-19422291D01*
X10716766Y-19408006D01*
X10702480Y-19379434D01*
X10673909Y-19365149D01*
X10631051Y-19365149D01*
X10602480Y-19350863D01*
X10588194Y-19322291D01*
X10588194Y-19308006D01*
X10602480Y-19279434D01*
X10631051Y-19265149D01*
X10673909Y-19265149D01*
X10702480Y-19279434D01*
X10816766Y-19579434D02*
X10831051Y-19565149D01*
X10859623Y-19522291D01*
X10873909Y-19493720D01*
X10888194Y-19450863D01*
X10902480Y-19379434D01*
X10902480Y-19322291D01*
X10888194Y-19250863D01*
X10873909Y-19208006D01*
X10859623Y-19179434D01*
X10831051Y-19136577D01*
X10816766Y-19122291D01*
X1874266Y-19697934D02*
X1874266Y-19752934D01*
X1846766Y-19725434D02*
X1901766Y-19725434D01*
X2245337Y-19561149D02*
X2273909Y-19561149D01*
X2302480Y-19575434D01*
X2316766Y-19589720D01*
X2331051Y-19618291D01*
X2345337Y-19675434D01*
X2345337Y-19746863D01*
X2331051Y-19804006D01*
X2316766Y-19832577D01*
X2302480Y-19846863D01*
X2273909Y-19861149D01*
X2245337Y-19861149D01*
X2216766Y-19846863D01*
X2202480Y-19832577D01*
X2188194Y-19804006D01*
X2173909Y-19746863D01*
X2173909Y-19675434D01*
X2188194Y-19618291D01*
X2202480Y-19589720D01*
X2216766Y-19575434D01*
X2245337Y-19561149D01*
X2473909Y-19832577D02*
X2488194Y-19846863D01*
X2473909Y-19861149D01*
X2459623Y-19846863D01*
X2473909Y-19832577D01*
X2473909Y-19861149D01*
X2759623Y-19561149D02*
X2616766Y-19561149D01*
X2602480Y-19704006D01*
X2616766Y-19689720D01*
X2645337Y-19675434D01*
X2716766Y-19675434D01*
X2745337Y-19689720D01*
X2759623Y-19704006D01*
X2773909Y-19732577D01*
X2773909Y-19804006D01*
X2759623Y-19832577D01*
X2745337Y-19846863D01*
X2716766Y-19861149D01*
X2645337Y-19861149D01*
X2616766Y-19846863D01*
X2602480Y-19832577D01*
X3045337Y-19561149D02*
X2902480Y-19561149D01*
X2888194Y-19704006D01*
X2902480Y-19689720D01*
X2931051Y-19675434D01*
X3002480Y-19675434D01*
X3031051Y-19689720D01*
X3045337Y-19704006D01*
X3059623Y-19732577D01*
X3059623Y-19804006D01*
X3045337Y-19832577D01*
X3031051Y-19846863D01*
X3002480Y-19861149D01*
X2931051Y-19861149D01*
X2902480Y-19846863D01*
X2888194Y-19832577D01*
X3188194Y-19861149D02*
X3188194Y-19661149D01*
X3188194Y-19689720D02*
X3202480Y-19675434D01*
X3231051Y-19661149D01*
X3273908Y-19661149D01*
X3302480Y-19675434D01*
X3316766Y-19704006D01*
X3316766Y-19861149D01*
X3316766Y-19704006D02*
X3331051Y-19675434D01*
X3359623Y-19661149D01*
X3402480Y-19661149D01*
X3431051Y-19675434D01*
X3445337Y-19704006D01*
X3445337Y-19861149D01*
X3588194Y-19861149D02*
X3588194Y-19661149D01*
X3588194Y-19689720D02*
X3602480Y-19675434D01*
X3631051Y-19661149D01*
X3673908Y-19661149D01*
X3702480Y-19675434D01*
X3716766Y-19704006D01*
X3716766Y-19861149D01*
X3716766Y-19704006D02*
X3731051Y-19675434D01*
X3759623Y-19661149D01*
X3802480Y-19661149D01*
X3831051Y-19675434D01*
X3845337Y-19704006D01*
X3845337Y-19861149D01*
X4431051Y-19546863D02*
X4173908Y-19932577D01*
X4816766Y-19561149D02*
X4845337Y-19561149D01*
X4873909Y-19575434D01*
X4888194Y-19589720D01*
X4902480Y-19618291D01*
X4916766Y-19675434D01*
X4916766Y-19746863D01*
X4902480Y-19804006D01*
X4888194Y-19832577D01*
X4873909Y-19846863D01*
X4845337Y-19861149D01*
X4816766Y-19861149D01*
X4788194Y-19846863D01*
X4773909Y-19832577D01*
X4759623Y-19804006D01*
X4745337Y-19746863D01*
X4745337Y-19675434D01*
X4759623Y-19618291D01*
X4773909Y-19589720D01*
X4788194Y-19575434D01*
X4816766Y-19561149D01*
X5045337Y-19832577D02*
X5059623Y-19846863D01*
X5045337Y-19861149D01*
X5031051Y-19846863D01*
X5045337Y-19832577D01*
X5045337Y-19861149D01*
X5245337Y-19561149D02*
X5273909Y-19561149D01*
X5302480Y-19575434D01*
X5316766Y-19589720D01*
X5331051Y-19618291D01*
X5345337Y-19675434D01*
X5345337Y-19746863D01*
X5331051Y-19804006D01*
X5316766Y-19832577D01*
X5302480Y-19846863D01*
X5273909Y-19861149D01*
X5245337Y-19861149D01*
X5216766Y-19846863D01*
X5202480Y-19832577D01*
X5188194Y-19804006D01*
X5173909Y-19746863D01*
X5173909Y-19675434D01*
X5188194Y-19618291D01*
X5202480Y-19589720D01*
X5216766Y-19575434D01*
X5245337Y-19561149D01*
X5459623Y-19589720D02*
X5473909Y-19575434D01*
X5502480Y-19561149D01*
X5573909Y-19561149D01*
X5602480Y-19575434D01*
X5616766Y-19589720D01*
X5631051Y-19618291D01*
X5631051Y-19646863D01*
X5616766Y-19689720D01*
X5445337Y-19861149D01*
X5631051Y-19861149D01*
X5745337Y-19589720D02*
X5759623Y-19575434D01*
X5788194Y-19561149D01*
X5859623Y-19561149D01*
X5888194Y-19575434D01*
X5902480Y-19589720D01*
X5916766Y-19618291D01*
X5916766Y-19646863D01*
X5902480Y-19689720D01*
X5731051Y-19861149D01*
X5916766Y-19861149D01*
X6031051Y-19561149D02*
X6031051Y-19618291D01*
X6145337Y-19561149D02*
X6145337Y-19618291D01*
X6588194Y-19975434D02*
X6573908Y-19961149D01*
X6545337Y-19918291D01*
X6531051Y-19889720D01*
X6516766Y-19846863D01*
X6502480Y-19775434D01*
X6502480Y-19718291D01*
X6516766Y-19646863D01*
X6531051Y-19604006D01*
X6545337Y-19575434D01*
X6573908Y-19532577D01*
X6588194Y-19518291D01*
X6759623Y-19561149D02*
X6788194Y-19561149D01*
X6816766Y-19575434D01*
X6831051Y-19589720D01*
X6845337Y-19618291D01*
X6859623Y-19675434D01*
X6859623Y-19746863D01*
X6845337Y-19804006D01*
X6831051Y-19832577D01*
X6816766Y-19846863D01*
X6788194Y-19861149D01*
X6759623Y-19861149D01*
X6731051Y-19846863D01*
X6716766Y-19832577D01*
X6702480Y-19804006D01*
X6688194Y-19746863D01*
X6688194Y-19675434D01*
X6702480Y-19618291D01*
X6716766Y-19589720D01*
X6731051Y-19575434D01*
X6759623Y-19561149D01*
X7216766Y-19861149D02*
X7216766Y-19561149D01*
X7345337Y-19861149D02*
X7345337Y-19704006D01*
X7331051Y-19675434D01*
X7302480Y-19661149D01*
X7259623Y-19661149D01*
X7231051Y-19675434D01*
X7216766Y-19689720D01*
X7531051Y-19861149D02*
X7502480Y-19846863D01*
X7488194Y-19832577D01*
X7473908Y-19804006D01*
X7473908Y-19718291D01*
X7488194Y-19689720D01*
X7502480Y-19675434D01*
X7531051Y-19661149D01*
X7573908Y-19661149D01*
X7602480Y-19675434D01*
X7616766Y-19689720D01*
X7631051Y-19718291D01*
X7631051Y-19804006D01*
X7616766Y-19832577D01*
X7602480Y-19846863D01*
X7573908Y-19861149D01*
X7531051Y-19861149D01*
X7802480Y-19861149D02*
X7773908Y-19846863D01*
X7759623Y-19818291D01*
X7759623Y-19561149D01*
X8031051Y-19846863D02*
X8002480Y-19861149D01*
X7945337Y-19861149D01*
X7916766Y-19846863D01*
X7902480Y-19818291D01*
X7902480Y-19704006D01*
X7916766Y-19675434D01*
X7945337Y-19661149D01*
X8002480Y-19661149D01*
X8031051Y-19675434D01*
X8045337Y-19704006D01*
X8045337Y-19732577D01*
X7902480Y-19761149D01*
X8159623Y-19846863D02*
X8188194Y-19861149D01*
X8245337Y-19861149D01*
X8273908Y-19846863D01*
X8288194Y-19818291D01*
X8288194Y-19804006D01*
X8273908Y-19775434D01*
X8245337Y-19761149D01*
X8202480Y-19761149D01*
X8173908Y-19746863D01*
X8159623Y-19718291D01*
X8159623Y-19704006D01*
X8173908Y-19675434D01*
X8202480Y-19661149D01*
X8245337Y-19661149D01*
X8273908Y-19675434D01*
X8645337Y-19746863D02*
X8873909Y-19746863D01*
X8759623Y-19861149D02*
X8759623Y-19632577D01*
X9231051Y-19589720D02*
X9245337Y-19575434D01*
X9273909Y-19561149D01*
X9345337Y-19561149D01*
X9373909Y-19575434D01*
X9388194Y-19589720D01*
X9402480Y-19618291D01*
X9402480Y-19646863D01*
X9388194Y-19689720D01*
X9216766Y-19861149D01*
X9402480Y-19861149D01*
X9745337Y-19846863D02*
X9773909Y-19861149D01*
X9831051Y-19861149D01*
X9859623Y-19846863D01*
X9873909Y-19818291D01*
X9873909Y-19804006D01*
X9859623Y-19775434D01*
X9831051Y-19761149D01*
X9788194Y-19761149D01*
X9759623Y-19746863D01*
X9745337Y-19718291D01*
X9745337Y-19704006D01*
X9759623Y-19675434D01*
X9788194Y-19661149D01*
X9831051Y-19661149D01*
X9859623Y-19675434D01*
X10045337Y-19861149D02*
X10016766Y-19846863D01*
X10002480Y-19818291D01*
X10002480Y-19561149D01*
X10202480Y-19861149D02*
X10173909Y-19846863D01*
X10159623Y-19832577D01*
X10145337Y-19804006D01*
X10145337Y-19718291D01*
X10159623Y-19689720D01*
X10173909Y-19675434D01*
X10202480Y-19661149D01*
X10245337Y-19661149D01*
X10273909Y-19675434D01*
X10288194Y-19689720D01*
X10302480Y-19718291D01*
X10302480Y-19804006D01*
X10288194Y-19832577D01*
X10273909Y-19846863D01*
X10245337Y-19861149D01*
X10202480Y-19861149D01*
X10388194Y-19661149D02*
X10502480Y-19661149D01*
X10431051Y-19561149D02*
X10431051Y-19818291D01*
X10445337Y-19846863D01*
X10473909Y-19861149D01*
X10502480Y-19861149D01*
X10588194Y-19846863D02*
X10616766Y-19861149D01*
X10673909Y-19861149D01*
X10702480Y-19846863D01*
X10716766Y-19818291D01*
X10716766Y-19804006D01*
X10702480Y-19775434D01*
X10673909Y-19761149D01*
X10631051Y-19761149D01*
X10602480Y-19746863D01*
X10588194Y-19718291D01*
X10588194Y-19704006D01*
X10602480Y-19675434D01*
X10631051Y-19661149D01*
X10673909Y-19661149D01*
X10702480Y-19675434D01*
X10816766Y-19975434D02*
X10831051Y-19961149D01*
X10859623Y-19918291D01*
X10873909Y-19889720D01*
X10888194Y-19846863D01*
X10902480Y-19775434D01*
X10902480Y-19718291D01*
X10888194Y-19646863D01*
X10873909Y-19604006D01*
X10859623Y-19575434D01*
X10831051Y-19532577D01*
X10816766Y-19518291D01*
X1892247Y-20144416D02*
X1892247Y-20098453D01*
X1846284Y-20098453D01*
X1846284Y-20144416D01*
X1892247Y-20144416D01*
X2245337Y-19957149D02*
X2273909Y-19957149D01*
X2302480Y-19971434D01*
X2316766Y-19985720D01*
X2331051Y-20014291D01*
X2345337Y-20071434D01*
X2345337Y-20142863D01*
X2331051Y-20200006D01*
X2316766Y-20228577D01*
X2302480Y-20242863D01*
X2273909Y-20257149D01*
X2245337Y-20257149D01*
X2216766Y-20242863D01*
X2202480Y-20228577D01*
X2188194Y-20200006D01*
X2173909Y-20142863D01*
X2173909Y-20071434D01*
X2188194Y-20014291D01*
X2202480Y-19985720D01*
X2216766Y-19971434D01*
X2245337Y-19957149D01*
X2473909Y-20228577D02*
X2488194Y-20242863D01*
X2473909Y-20257149D01*
X2459623Y-20242863D01*
X2473909Y-20228577D01*
X2473909Y-20257149D01*
X2745337Y-19957149D02*
X2688194Y-19957149D01*
X2659623Y-19971434D01*
X2645337Y-19985720D01*
X2616766Y-20028577D01*
X2602480Y-20085720D01*
X2602480Y-20200006D01*
X2616766Y-20228577D01*
X2631051Y-20242863D01*
X2659623Y-20257149D01*
X2716766Y-20257149D01*
X2745337Y-20242863D01*
X2759623Y-20228577D01*
X2773909Y-20200006D01*
X2773909Y-20128577D01*
X2759623Y-20100006D01*
X2745337Y-20085720D01*
X2716766Y-20071434D01*
X2659623Y-20071434D01*
X2631051Y-20085720D01*
X2616766Y-20100006D01*
X2602480Y-20128577D01*
X3045337Y-19957149D02*
X2902480Y-19957149D01*
X2888194Y-20100006D01*
X2902480Y-20085720D01*
X2931051Y-20071434D01*
X3002480Y-20071434D01*
X3031051Y-20085720D01*
X3045337Y-20100006D01*
X3059623Y-20128577D01*
X3059623Y-20200006D01*
X3045337Y-20228577D01*
X3031051Y-20242863D01*
X3002480Y-20257149D01*
X2931051Y-20257149D01*
X2902480Y-20242863D01*
X2888194Y-20228577D01*
X3188194Y-20257149D02*
X3188194Y-20057149D01*
X3188194Y-20085720D02*
X3202480Y-20071434D01*
X3231051Y-20057149D01*
X3273908Y-20057149D01*
X3302480Y-20071434D01*
X3316766Y-20100006D01*
X3316766Y-20257149D01*
X3316766Y-20100006D02*
X3331051Y-20071434D01*
X3359623Y-20057149D01*
X3402480Y-20057149D01*
X3431051Y-20071434D01*
X3445337Y-20100006D01*
X3445337Y-20257149D01*
X3588194Y-20257149D02*
X3588194Y-20057149D01*
X3588194Y-20085720D02*
X3602480Y-20071434D01*
X3631051Y-20057149D01*
X3673908Y-20057149D01*
X3702480Y-20071434D01*
X3716766Y-20100006D01*
X3716766Y-20257149D01*
X3716766Y-20100006D02*
X3731051Y-20071434D01*
X3759623Y-20057149D01*
X3802480Y-20057149D01*
X3831051Y-20071434D01*
X3845337Y-20100006D01*
X3845337Y-20257149D01*
X4431051Y-19942863D02*
X4173908Y-20328577D01*
X4816766Y-19957149D02*
X4845337Y-19957149D01*
X4873909Y-19971434D01*
X4888194Y-19985720D01*
X4902480Y-20014291D01*
X4916766Y-20071434D01*
X4916766Y-20142863D01*
X4902480Y-20200006D01*
X4888194Y-20228577D01*
X4873909Y-20242863D01*
X4845337Y-20257149D01*
X4816766Y-20257149D01*
X4788194Y-20242863D01*
X4773909Y-20228577D01*
X4759623Y-20200006D01*
X4745337Y-20142863D01*
X4745337Y-20071434D01*
X4759623Y-20014291D01*
X4773909Y-19985720D01*
X4788194Y-19971434D01*
X4816766Y-19957149D01*
X5045337Y-20228577D02*
X5059623Y-20242863D01*
X5045337Y-20257149D01*
X5031051Y-20242863D01*
X5045337Y-20228577D01*
X5045337Y-20257149D01*
X5245337Y-19957149D02*
X5273909Y-19957149D01*
X5302480Y-19971434D01*
X5316766Y-19985720D01*
X5331051Y-20014291D01*
X5345337Y-20071434D01*
X5345337Y-20142863D01*
X5331051Y-20200006D01*
X5316766Y-20228577D01*
X5302480Y-20242863D01*
X5273909Y-20257149D01*
X5245337Y-20257149D01*
X5216766Y-20242863D01*
X5202480Y-20228577D01*
X5188194Y-20200006D01*
X5173909Y-20142863D01*
X5173909Y-20071434D01*
X5188194Y-20014291D01*
X5202480Y-19985720D01*
X5216766Y-19971434D01*
X5245337Y-19957149D01*
X5459623Y-19985720D02*
X5473909Y-19971434D01*
X5502480Y-19957149D01*
X5573909Y-19957149D01*
X5602480Y-19971434D01*
X5616766Y-19985720D01*
X5631051Y-20014291D01*
X5631051Y-20042863D01*
X5616766Y-20085720D01*
X5445337Y-20257149D01*
X5631051Y-20257149D01*
X5888194Y-19957149D02*
X5831051Y-19957149D01*
X5802480Y-19971434D01*
X5788194Y-19985720D01*
X5759623Y-20028577D01*
X5745337Y-20085720D01*
X5745337Y-20200006D01*
X5759623Y-20228577D01*
X5773908Y-20242863D01*
X5802480Y-20257149D01*
X5859623Y-20257149D01*
X5888194Y-20242863D01*
X5902480Y-20228577D01*
X5916766Y-20200006D01*
X5916766Y-20128577D01*
X5902480Y-20100006D01*
X5888194Y-20085720D01*
X5859623Y-20071434D01*
X5802480Y-20071434D01*
X5773908Y-20085720D01*
X5759623Y-20100006D01*
X5745337Y-20128577D01*
X6031051Y-19957149D02*
X6031051Y-20014291D01*
X6145337Y-19957149D02*
X6145337Y-20014291D01*
X6588194Y-20371434D02*
X6573908Y-20357149D01*
X6545337Y-20314291D01*
X6531051Y-20285720D01*
X6516766Y-20242863D01*
X6502480Y-20171434D01*
X6502480Y-20114291D01*
X6516766Y-20042863D01*
X6531051Y-20000006D01*
X6545337Y-19971434D01*
X6573908Y-19928577D01*
X6588194Y-19914291D01*
X6859623Y-20257149D02*
X6688194Y-20257149D01*
X6773908Y-20257149D02*
X6773908Y-19957149D01*
X6745337Y-20000006D01*
X6716766Y-20028577D01*
X6688194Y-20042863D01*
X7045337Y-19957149D02*
X7073908Y-19957149D01*
X7102480Y-19971434D01*
X7116766Y-19985720D01*
X7131051Y-20014291D01*
X7145337Y-20071434D01*
X7145337Y-20142863D01*
X7131051Y-20200006D01*
X7116766Y-20228577D01*
X7102480Y-20242863D01*
X7073908Y-20257149D01*
X7045337Y-20257149D01*
X7016766Y-20242863D01*
X7002480Y-20228577D01*
X6988194Y-20200006D01*
X6973908Y-20142863D01*
X6973908Y-20071434D01*
X6988194Y-20014291D01*
X7002480Y-19985720D01*
X7016766Y-19971434D01*
X7045337Y-19957149D01*
X7502480Y-20257149D02*
X7502480Y-19957149D01*
X7631051Y-20257149D02*
X7631051Y-20100006D01*
X7616766Y-20071434D01*
X7588194Y-20057149D01*
X7545337Y-20057149D01*
X7516766Y-20071434D01*
X7502480Y-20085720D01*
X7816766Y-20257149D02*
X7788194Y-20242863D01*
X7773908Y-20228577D01*
X7759623Y-20200006D01*
X7759623Y-20114291D01*
X7773908Y-20085720D01*
X7788194Y-20071434D01*
X7816766Y-20057149D01*
X7859623Y-20057149D01*
X7888194Y-20071434D01*
X7902480Y-20085720D01*
X7916766Y-20114291D01*
X7916766Y-20200006D01*
X7902480Y-20228577D01*
X7888194Y-20242863D01*
X7859623Y-20257149D01*
X7816766Y-20257149D01*
X8088194Y-20257149D02*
X8059623Y-20242863D01*
X8045337Y-20214291D01*
X8045337Y-19957149D01*
X8316766Y-20242863D02*
X8288194Y-20257149D01*
X8231051Y-20257149D01*
X8202480Y-20242863D01*
X8188194Y-20214291D01*
X8188194Y-20100006D01*
X8202480Y-20071434D01*
X8231051Y-20057149D01*
X8288194Y-20057149D01*
X8316766Y-20071434D01*
X8331051Y-20100006D01*
X8331051Y-20128577D01*
X8188194Y-20157149D01*
X8445337Y-20242863D02*
X8473909Y-20257149D01*
X8531051Y-20257149D01*
X8559623Y-20242863D01*
X8573909Y-20214291D01*
X8573909Y-20200006D01*
X8559623Y-20171434D01*
X8531051Y-20157149D01*
X8488194Y-20157149D01*
X8459623Y-20142863D01*
X8445337Y-20114291D01*
X8445337Y-20100006D01*
X8459623Y-20071434D01*
X8488194Y-20057149D01*
X8531051Y-20057149D01*
X8559623Y-20071434D01*
X8673909Y-20371434D02*
X8688194Y-20357149D01*
X8716766Y-20314291D01*
X8731051Y-20285720D01*
X8745337Y-20242863D01*
X8759623Y-20171434D01*
X8759623Y-20114291D01*
X8745337Y-20042863D01*
X8731051Y-20000006D01*
X8716766Y-19971434D01*
X8688194Y-19928577D01*
X8673909Y-19914291D01*
X1863666Y-20555534D02*
X1901766Y-20517434D01*
X1863666Y-20479334D01*
X1825566Y-20517434D01*
X1863666Y-20555534D01*
X2245337Y-20353149D02*
X2273909Y-20353149D01*
X2302480Y-20367434D01*
X2316766Y-20381720D01*
X2331051Y-20410291D01*
X2345337Y-20467434D01*
X2345337Y-20538863D01*
X2331051Y-20596006D01*
X2316766Y-20624577D01*
X2302480Y-20638863D01*
X2273909Y-20653149D01*
X2245337Y-20653149D01*
X2216766Y-20638863D01*
X2202480Y-20624577D01*
X2188194Y-20596006D01*
X2173909Y-20538863D01*
X2173909Y-20467434D01*
X2188194Y-20410291D01*
X2202480Y-20381720D01*
X2216766Y-20367434D01*
X2245337Y-20353149D01*
X2473909Y-20624577D02*
X2488194Y-20638863D01*
X2473909Y-20653149D01*
X2459623Y-20638863D01*
X2473909Y-20624577D01*
X2473909Y-20653149D01*
X2588194Y-20353149D02*
X2788194Y-20353149D01*
X2659623Y-20653149D01*
X3031051Y-20353149D02*
X2973908Y-20353149D01*
X2945337Y-20367434D01*
X2931051Y-20381720D01*
X2902480Y-20424577D01*
X2888194Y-20481720D01*
X2888194Y-20596006D01*
X2902480Y-20624577D01*
X2916766Y-20638863D01*
X2945337Y-20653149D01*
X3002480Y-20653149D01*
X3031051Y-20638863D01*
X3045337Y-20624577D01*
X3059623Y-20596006D01*
X3059623Y-20524577D01*
X3045337Y-20496006D01*
X3031051Y-20481720D01*
X3002480Y-20467434D01*
X2945337Y-20467434D01*
X2916766Y-20481720D01*
X2902480Y-20496006D01*
X2888194Y-20524577D01*
X3188194Y-20653149D02*
X3188194Y-20453149D01*
X3188194Y-20481720D02*
X3202480Y-20467434D01*
X3231051Y-20453149D01*
X3273908Y-20453149D01*
X3302480Y-20467434D01*
X3316766Y-20496006D01*
X3316766Y-20653149D01*
X3316766Y-20496006D02*
X3331051Y-20467434D01*
X3359623Y-20453149D01*
X3402480Y-20453149D01*
X3431051Y-20467434D01*
X3445337Y-20496006D01*
X3445337Y-20653149D01*
X3588194Y-20653149D02*
X3588194Y-20453149D01*
X3588194Y-20481720D02*
X3602480Y-20467434D01*
X3631051Y-20453149D01*
X3673908Y-20453149D01*
X3702480Y-20467434D01*
X3716766Y-20496006D01*
X3716766Y-20653149D01*
X3716766Y-20496006D02*
X3731051Y-20467434D01*
X3759623Y-20453149D01*
X3802480Y-20453149D01*
X3831051Y-20467434D01*
X3845337Y-20496006D01*
X3845337Y-20653149D01*
X4431051Y-20338863D02*
X4173908Y-20724577D01*
X4816766Y-20353149D02*
X4845337Y-20353149D01*
X4873909Y-20367434D01*
X4888194Y-20381720D01*
X4902480Y-20410291D01*
X4916766Y-20467434D01*
X4916766Y-20538863D01*
X4902480Y-20596006D01*
X4888194Y-20624577D01*
X4873909Y-20638863D01*
X4845337Y-20653149D01*
X4816766Y-20653149D01*
X4788194Y-20638863D01*
X4773909Y-20624577D01*
X4759623Y-20596006D01*
X4745337Y-20538863D01*
X4745337Y-20467434D01*
X4759623Y-20410291D01*
X4773909Y-20381720D01*
X4788194Y-20367434D01*
X4816766Y-20353149D01*
X5045337Y-20624577D02*
X5059623Y-20638863D01*
X5045337Y-20653149D01*
X5031051Y-20638863D01*
X5045337Y-20624577D01*
X5045337Y-20653149D01*
X5245337Y-20353149D02*
X5273909Y-20353149D01*
X5302480Y-20367434D01*
X5316766Y-20381720D01*
X5331051Y-20410291D01*
X5345337Y-20467434D01*
X5345337Y-20538863D01*
X5331051Y-20596006D01*
X5316766Y-20624577D01*
X5302480Y-20638863D01*
X5273909Y-20653149D01*
X5245337Y-20653149D01*
X5216766Y-20638863D01*
X5202480Y-20624577D01*
X5188194Y-20596006D01*
X5173909Y-20538863D01*
X5173909Y-20467434D01*
X5188194Y-20410291D01*
X5202480Y-20381720D01*
X5216766Y-20367434D01*
X5245337Y-20353149D01*
X5445337Y-20353149D02*
X5631051Y-20353149D01*
X5531051Y-20467434D01*
X5573909Y-20467434D01*
X5602480Y-20481720D01*
X5616766Y-20496006D01*
X5631051Y-20524577D01*
X5631051Y-20596006D01*
X5616766Y-20624577D01*
X5602480Y-20638863D01*
X5573909Y-20653149D01*
X5488194Y-20653149D01*
X5459623Y-20638863D01*
X5445337Y-20624577D01*
X5816766Y-20353149D02*
X5845337Y-20353149D01*
X5873908Y-20367434D01*
X5888194Y-20381720D01*
X5902480Y-20410291D01*
X5916766Y-20467434D01*
X5916766Y-20538863D01*
X5902480Y-20596006D01*
X5888194Y-20624577D01*
X5873908Y-20638863D01*
X5845337Y-20653149D01*
X5816766Y-20653149D01*
X5788194Y-20638863D01*
X5773908Y-20624577D01*
X5759623Y-20596006D01*
X5745337Y-20538863D01*
X5745337Y-20467434D01*
X5759623Y-20410291D01*
X5773908Y-20381720D01*
X5788194Y-20367434D01*
X5816766Y-20353149D01*
X6031051Y-20353149D02*
X6031051Y-20410291D01*
X6145337Y-20353149D02*
X6145337Y-20410291D01*
X6588194Y-20767434D02*
X6573908Y-20753149D01*
X6545337Y-20710291D01*
X6531051Y-20681720D01*
X6516766Y-20638863D01*
X6502480Y-20567434D01*
X6502480Y-20510291D01*
X6516766Y-20438863D01*
X6531051Y-20396006D01*
X6545337Y-20367434D01*
X6573908Y-20324577D01*
X6588194Y-20310291D01*
X6688194Y-20381720D02*
X6702480Y-20367434D01*
X6731051Y-20353149D01*
X6802480Y-20353149D01*
X6831051Y-20367434D01*
X6845337Y-20381720D01*
X6859623Y-20410291D01*
X6859623Y-20438863D01*
X6845337Y-20481720D01*
X6673908Y-20653149D01*
X6859623Y-20653149D01*
X7216766Y-20653149D02*
X7216766Y-20353149D01*
X7345337Y-20653149D02*
X7345337Y-20496006D01*
X7331051Y-20467434D01*
X7302480Y-20453149D01*
X7259623Y-20453149D01*
X7231051Y-20467434D01*
X7216766Y-20481720D01*
X7531051Y-20653149D02*
X7502480Y-20638863D01*
X7488194Y-20624577D01*
X7473908Y-20596006D01*
X7473908Y-20510291D01*
X7488194Y-20481720D01*
X7502480Y-20467434D01*
X7531051Y-20453149D01*
X7573908Y-20453149D01*
X7602480Y-20467434D01*
X7616766Y-20481720D01*
X7631051Y-20510291D01*
X7631051Y-20596006D01*
X7616766Y-20624577D01*
X7602480Y-20638863D01*
X7573908Y-20653149D01*
X7531051Y-20653149D01*
X7802480Y-20653149D02*
X7773908Y-20638863D01*
X7759623Y-20610291D01*
X7759623Y-20353149D01*
X8031051Y-20638863D02*
X8002480Y-20653149D01*
X7945337Y-20653149D01*
X7916766Y-20638863D01*
X7902480Y-20610291D01*
X7902480Y-20496006D01*
X7916766Y-20467434D01*
X7945337Y-20453149D01*
X8002480Y-20453149D01*
X8031051Y-20467434D01*
X8045337Y-20496006D01*
X8045337Y-20524577D01*
X7902480Y-20553149D01*
X8159623Y-20638863D02*
X8188194Y-20653149D01*
X8245337Y-20653149D01*
X8273908Y-20638863D01*
X8288194Y-20610291D01*
X8288194Y-20596006D01*
X8273908Y-20567434D01*
X8245337Y-20553149D01*
X8202480Y-20553149D01*
X8173908Y-20538863D01*
X8159623Y-20510291D01*
X8159623Y-20496006D01*
X8173908Y-20467434D01*
X8202480Y-20453149D01*
X8245337Y-20453149D01*
X8273908Y-20467434D01*
X8388194Y-20767434D02*
X8402480Y-20753149D01*
X8431051Y-20710291D01*
X8445337Y-20681720D01*
X8459623Y-20638863D01*
X8473909Y-20567434D01*
X8473909Y-20510291D01*
X8459623Y-20438863D01*
X8445337Y-20396006D01*
X8431051Y-20367434D01*
X8402480Y-20324577D01*
X8388194Y-20310291D01*
X1821766Y-20873434D02*
X1901766Y-20953434D01*
X1901766Y-20873434D02*
X1821766Y-20953434D01*
X1901766Y-20913434D02*
G75*
G03X1901766Y-20913434I-40000J0D01*
G01*
X2245337Y-20749149D02*
X2273909Y-20749149D01*
X2302480Y-20763434D01*
X2316766Y-20777720D01*
X2331051Y-20806291D01*
X2345337Y-20863434D01*
X2345337Y-20934863D01*
X2331051Y-20992006D01*
X2316766Y-21020577D01*
X2302480Y-21034863D01*
X2273909Y-21049149D01*
X2245337Y-21049149D01*
X2216766Y-21034863D01*
X2202480Y-21020577D01*
X2188194Y-20992006D01*
X2173909Y-20934863D01*
X2173909Y-20863434D01*
X2188194Y-20806291D01*
X2202480Y-20777720D01*
X2216766Y-20763434D01*
X2245337Y-20749149D01*
X2473909Y-21020577D02*
X2488194Y-21034863D01*
X2473909Y-21049149D01*
X2459623Y-21034863D01*
X2473909Y-21020577D01*
X2473909Y-21049149D01*
X2659623Y-20877720D02*
X2631051Y-20863434D01*
X2616766Y-20849149D01*
X2602480Y-20820577D01*
X2602480Y-20806291D01*
X2616766Y-20777720D01*
X2631051Y-20763434D01*
X2659623Y-20749149D01*
X2716766Y-20749149D01*
X2745337Y-20763434D01*
X2759623Y-20777720D01*
X2773909Y-20806291D01*
X2773909Y-20820577D01*
X2759623Y-20849149D01*
X2745337Y-20863434D01*
X2716766Y-20877720D01*
X2659623Y-20877720D01*
X2631051Y-20892006D01*
X2616766Y-20906291D01*
X2602480Y-20934863D01*
X2602480Y-20992006D01*
X2616766Y-21020577D01*
X2631051Y-21034863D01*
X2659623Y-21049149D01*
X2716766Y-21049149D01*
X2745337Y-21034863D01*
X2759623Y-21020577D01*
X2773909Y-20992006D01*
X2773909Y-20934863D01*
X2759623Y-20906291D01*
X2745337Y-20892006D01*
X2716766Y-20877720D01*
X2959623Y-20749149D02*
X2988194Y-20749149D01*
X3016766Y-20763434D01*
X3031051Y-20777720D01*
X3045337Y-20806291D01*
X3059623Y-20863434D01*
X3059623Y-20934863D01*
X3045337Y-20992006D01*
X3031051Y-21020577D01*
X3016766Y-21034863D01*
X2988194Y-21049149D01*
X2959623Y-21049149D01*
X2931051Y-21034863D01*
X2916766Y-21020577D01*
X2902480Y-20992006D01*
X2888194Y-20934863D01*
X2888194Y-20863434D01*
X2902480Y-20806291D01*
X2916766Y-20777720D01*
X2931051Y-20763434D01*
X2959623Y-20749149D01*
X3188194Y-21049149D02*
X3188194Y-20849149D01*
X3188194Y-20877720D02*
X3202480Y-20863434D01*
X3231051Y-20849149D01*
X3273908Y-20849149D01*
X3302480Y-20863434D01*
X3316766Y-20892006D01*
X3316766Y-21049149D01*
X3316766Y-20892006D02*
X3331051Y-20863434D01*
X3359623Y-20849149D01*
X3402480Y-20849149D01*
X3431051Y-20863434D01*
X3445337Y-20892006D01*
X3445337Y-21049149D01*
X3588194Y-21049149D02*
X3588194Y-20849149D01*
X3588194Y-20877720D02*
X3602480Y-20863434D01*
X3631051Y-20849149D01*
X3673908Y-20849149D01*
X3702480Y-20863434D01*
X3716766Y-20892006D01*
X3716766Y-21049149D01*
X3716766Y-20892006D02*
X3731051Y-20863434D01*
X3759623Y-20849149D01*
X3802480Y-20849149D01*
X3831051Y-20863434D01*
X3845337Y-20892006D01*
X3845337Y-21049149D01*
X4431051Y-20734863D02*
X4173908Y-21120577D01*
X4816766Y-20749149D02*
X4845337Y-20749149D01*
X4873909Y-20763434D01*
X4888194Y-20777720D01*
X4902480Y-20806291D01*
X4916766Y-20863434D01*
X4916766Y-20934863D01*
X4902480Y-20992006D01*
X4888194Y-21020577D01*
X4873909Y-21034863D01*
X4845337Y-21049149D01*
X4816766Y-21049149D01*
X4788194Y-21034863D01*
X4773909Y-21020577D01*
X4759623Y-20992006D01*
X4745337Y-20934863D01*
X4745337Y-20863434D01*
X4759623Y-20806291D01*
X4773909Y-20777720D01*
X4788194Y-20763434D01*
X4816766Y-20749149D01*
X5045337Y-21020577D02*
X5059623Y-21034863D01*
X5045337Y-21049149D01*
X5031051Y-21034863D01*
X5045337Y-21020577D01*
X5045337Y-21049149D01*
X5245337Y-20749149D02*
X5273909Y-20749149D01*
X5302480Y-20763434D01*
X5316766Y-20777720D01*
X5331051Y-20806291D01*
X5345337Y-20863434D01*
X5345337Y-20934863D01*
X5331051Y-20992006D01*
X5316766Y-21020577D01*
X5302480Y-21034863D01*
X5273909Y-21049149D01*
X5245337Y-21049149D01*
X5216766Y-21034863D01*
X5202480Y-21020577D01*
X5188194Y-20992006D01*
X5173909Y-20934863D01*
X5173909Y-20863434D01*
X5188194Y-20806291D01*
X5202480Y-20777720D01*
X5216766Y-20763434D01*
X5245337Y-20749149D01*
X5445337Y-20749149D02*
X5631051Y-20749149D01*
X5531051Y-20863434D01*
X5573909Y-20863434D01*
X5602480Y-20877720D01*
X5616766Y-20892006D01*
X5631051Y-20920577D01*
X5631051Y-20992006D01*
X5616766Y-21020577D01*
X5602480Y-21034863D01*
X5573909Y-21049149D01*
X5488194Y-21049149D01*
X5459623Y-21034863D01*
X5445337Y-21020577D01*
X5916766Y-21049149D02*
X5745337Y-21049149D01*
X5831051Y-21049149D02*
X5831051Y-20749149D01*
X5802480Y-20792006D01*
X5773908Y-20820577D01*
X5745337Y-20834863D01*
X6031051Y-20749149D02*
X6031051Y-20806291D01*
X6145337Y-20749149D02*
X6145337Y-20806291D01*
X6588194Y-21163434D02*
X6573908Y-21149149D01*
X6545337Y-21106291D01*
X6531051Y-21077720D01*
X6516766Y-21034863D01*
X6502480Y-20963434D01*
X6502480Y-20906291D01*
X6516766Y-20834863D01*
X6531051Y-20792006D01*
X6545337Y-20763434D01*
X6573908Y-20720577D01*
X6588194Y-20706291D01*
X6859623Y-21049149D02*
X6688194Y-21049149D01*
X6773908Y-21049149D02*
X6773908Y-20749149D01*
X6745337Y-20792006D01*
X6716766Y-20820577D01*
X6688194Y-20834863D01*
X6973908Y-20777720D02*
X6988194Y-20763434D01*
X7016766Y-20749149D01*
X7088194Y-20749149D01*
X7116766Y-20763434D01*
X7131051Y-20777720D01*
X7145337Y-20806291D01*
X7145337Y-20834863D01*
X7131051Y-20877720D01*
X6959623Y-21049149D01*
X7145337Y-21049149D01*
X7502480Y-21049149D02*
X7502480Y-20749149D01*
X7631051Y-21049149D02*
X7631051Y-20892006D01*
X7616766Y-20863434D01*
X7588194Y-20849149D01*
X7545337Y-20849149D01*
X7516766Y-20863434D01*
X7502480Y-20877720D01*
X7816766Y-21049149D02*
X7788194Y-21034863D01*
X7773908Y-21020577D01*
X7759623Y-20992006D01*
X7759623Y-20906291D01*
X7773908Y-20877720D01*
X7788194Y-20863434D01*
X7816766Y-20849149D01*
X7859623Y-20849149D01*
X7888194Y-20863434D01*
X7902480Y-20877720D01*
X7916766Y-20906291D01*
X7916766Y-20992006D01*
X7902480Y-21020577D01*
X7888194Y-21034863D01*
X7859623Y-21049149D01*
X7816766Y-21049149D01*
X8088194Y-21049149D02*
X8059623Y-21034863D01*
X8045337Y-21006291D01*
X8045337Y-20749149D01*
X8316766Y-21034863D02*
X8288194Y-21049149D01*
X8231051Y-21049149D01*
X8202480Y-21034863D01*
X8188194Y-21006291D01*
X8188194Y-20892006D01*
X8202480Y-20863434D01*
X8231051Y-20849149D01*
X8288194Y-20849149D01*
X8316766Y-20863434D01*
X8331051Y-20892006D01*
X8331051Y-20920577D01*
X8188194Y-20949149D01*
X8445337Y-21034863D02*
X8473909Y-21049149D01*
X8531051Y-21049149D01*
X8559623Y-21034863D01*
X8573909Y-21006291D01*
X8573909Y-20992006D01*
X8559623Y-20963434D01*
X8531051Y-20949149D01*
X8488194Y-20949149D01*
X8459623Y-20934863D01*
X8445337Y-20906291D01*
X8445337Y-20892006D01*
X8459623Y-20863434D01*
X8488194Y-20849149D01*
X8531051Y-20849149D01*
X8559623Y-20863434D01*
X8673909Y-21163434D02*
X8688194Y-21149149D01*
X8716766Y-21106291D01*
X8731051Y-21077720D01*
X8745337Y-21034863D01*
X8759623Y-20963434D01*
X8759623Y-20906291D01*
X8745337Y-20834863D01*
X8731051Y-20792006D01*
X8716766Y-20763434D01*
X8688194Y-20720577D01*
X8673909Y-20706291D01*
X1801766Y-21259434D02*
X1901766Y-21359434D01*
X1901766Y-21259434D02*
X1801766Y-21359434D01*
X1851766Y-21259434D02*
X1851766Y-21359434D01*
X1801766Y-21309434D02*
X1901766Y-21309434D01*
X2345337Y-21445149D02*
X2173909Y-21445149D01*
X2259623Y-21445149D02*
X2259623Y-21145149D01*
X2231051Y-21188006D01*
X2202480Y-21216577D01*
X2173909Y-21230863D01*
X2473909Y-21416577D02*
X2488194Y-21430863D01*
X2473909Y-21445149D01*
X2459623Y-21430863D01*
X2473909Y-21416577D01*
X2473909Y-21445149D01*
X2673909Y-21145149D02*
X2702480Y-21145149D01*
X2731051Y-21159434D01*
X2745337Y-21173720D01*
X2759623Y-21202291D01*
X2773909Y-21259434D01*
X2773909Y-21330863D01*
X2759623Y-21388006D01*
X2745337Y-21416577D01*
X2731051Y-21430863D01*
X2702480Y-21445149D01*
X2673909Y-21445149D01*
X2645337Y-21430863D01*
X2631051Y-21416577D01*
X2616766Y-21388006D01*
X2602480Y-21330863D01*
X2602480Y-21259434D01*
X2616766Y-21202291D01*
X2631051Y-21173720D01*
X2645337Y-21159434D01*
X2673909Y-21145149D01*
X2959623Y-21145149D02*
X2988194Y-21145149D01*
X3016766Y-21159434D01*
X3031051Y-21173720D01*
X3045337Y-21202291D01*
X3059623Y-21259434D01*
X3059623Y-21330863D01*
X3045337Y-21388006D01*
X3031051Y-21416577D01*
X3016766Y-21430863D01*
X2988194Y-21445149D01*
X2959623Y-21445149D01*
X2931051Y-21430863D01*
X2916766Y-21416577D01*
X2902480Y-21388006D01*
X2888194Y-21330863D01*
X2888194Y-21259434D01*
X2902480Y-21202291D01*
X2916766Y-21173720D01*
X2931051Y-21159434D01*
X2959623Y-21145149D01*
X3188194Y-21445149D02*
X3188194Y-21245149D01*
X3188194Y-21273720D02*
X3202480Y-21259434D01*
X3231051Y-21245149D01*
X3273908Y-21245149D01*
X3302480Y-21259434D01*
X3316766Y-21288006D01*
X3316766Y-21445149D01*
X3316766Y-21288006D02*
X3331051Y-21259434D01*
X3359623Y-21245149D01*
X3402480Y-21245149D01*
X3431051Y-21259434D01*
X3445337Y-21288006D01*
X3445337Y-21445149D01*
X3588194Y-21445149D02*
X3588194Y-21245149D01*
X3588194Y-21273720D02*
X3602480Y-21259434D01*
X3631051Y-21245149D01*
X3673908Y-21245149D01*
X3702480Y-21259434D01*
X3716766Y-21288006D01*
X3716766Y-21445149D01*
X3716766Y-21288006D02*
X3731051Y-21259434D01*
X3759623Y-21245149D01*
X3802480Y-21245149D01*
X3831051Y-21259434D01*
X3845337Y-21288006D01*
X3845337Y-21445149D01*
X4431051Y-21130863D02*
X4173908Y-21516577D01*
X4816766Y-21145149D02*
X4845337Y-21145149D01*
X4873909Y-21159434D01*
X4888194Y-21173720D01*
X4902480Y-21202291D01*
X4916766Y-21259434D01*
X4916766Y-21330863D01*
X4902480Y-21388006D01*
X4888194Y-21416577D01*
X4873909Y-21430863D01*
X4845337Y-21445149D01*
X4816766Y-21445149D01*
X4788194Y-21430863D01*
X4773909Y-21416577D01*
X4759623Y-21388006D01*
X4745337Y-21330863D01*
X4745337Y-21259434D01*
X4759623Y-21202291D01*
X4773909Y-21173720D01*
X4788194Y-21159434D01*
X4816766Y-21145149D01*
X5045337Y-21416577D02*
X5059623Y-21430863D01*
X5045337Y-21445149D01*
X5031051Y-21430863D01*
X5045337Y-21416577D01*
X5045337Y-21445149D01*
X5245337Y-21145149D02*
X5273909Y-21145149D01*
X5302480Y-21159434D01*
X5316766Y-21173720D01*
X5331051Y-21202291D01*
X5345337Y-21259434D01*
X5345337Y-21330863D01*
X5331051Y-21388006D01*
X5316766Y-21416577D01*
X5302480Y-21430863D01*
X5273909Y-21445149D01*
X5245337Y-21445149D01*
X5216766Y-21430863D01*
X5202480Y-21416577D01*
X5188194Y-21388006D01*
X5173909Y-21330863D01*
X5173909Y-21259434D01*
X5188194Y-21202291D01*
X5202480Y-21173720D01*
X5216766Y-21159434D01*
X5245337Y-21145149D01*
X5445337Y-21145149D02*
X5631051Y-21145149D01*
X5531051Y-21259434D01*
X5573909Y-21259434D01*
X5602480Y-21273720D01*
X5616766Y-21288006D01*
X5631051Y-21316577D01*
X5631051Y-21388006D01*
X5616766Y-21416577D01*
X5602480Y-21430863D01*
X5573909Y-21445149D01*
X5488194Y-21445149D01*
X5459623Y-21430863D01*
X5445337Y-21416577D01*
X5773908Y-21445149D02*
X5831051Y-21445149D01*
X5859623Y-21430863D01*
X5873908Y-21416577D01*
X5902480Y-21373720D01*
X5916766Y-21316577D01*
X5916766Y-21202291D01*
X5902480Y-21173720D01*
X5888194Y-21159434D01*
X5859623Y-21145149D01*
X5802480Y-21145149D01*
X5773908Y-21159434D01*
X5759623Y-21173720D01*
X5745337Y-21202291D01*
X5745337Y-21273720D01*
X5759623Y-21302291D01*
X5773908Y-21316577D01*
X5802480Y-21330863D01*
X5859623Y-21330863D01*
X5888194Y-21316577D01*
X5902480Y-21302291D01*
X5916766Y-21273720D01*
X6031051Y-21145149D02*
X6031051Y-21202291D01*
X6145337Y-21145149D02*
X6145337Y-21202291D01*
X6588194Y-21559434D02*
X6573908Y-21545149D01*
X6545337Y-21502291D01*
X6531051Y-21473720D01*
X6516766Y-21430863D01*
X6502480Y-21359434D01*
X6502480Y-21302291D01*
X6516766Y-21230863D01*
X6531051Y-21188006D01*
X6545337Y-21159434D01*
X6573908Y-21116577D01*
X6588194Y-21102291D01*
X6673908Y-21145149D02*
X6859623Y-21145149D01*
X6759623Y-21259434D01*
X6802480Y-21259434D01*
X6831051Y-21273720D01*
X6845337Y-21288006D01*
X6859623Y-21316577D01*
X6859623Y-21388006D01*
X6845337Y-21416577D01*
X6831051Y-21430863D01*
X6802480Y-21445149D01*
X6716766Y-21445149D01*
X6688194Y-21430863D01*
X6673908Y-21416577D01*
X7216766Y-21445149D02*
X7216766Y-21145149D01*
X7345337Y-21445149D02*
X7345337Y-21288006D01*
X7331051Y-21259434D01*
X7302480Y-21245149D01*
X7259623Y-21245149D01*
X7231051Y-21259434D01*
X7216766Y-21273720D01*
X7531051Y-21445149D02*
X7502480Y-21430863D01*
X7488194Y-21416577D01*
X7473908Y-21388006D01*
X7473908Y-21302291D01*
X7488194Y-21273720D01*
X7502480Y-21259434D01*
X7531051Y-21245149D01*
X7573908Y-21245149D01*
X7602480Y-21259434D01*
X7616766Y-21273720D01*
X7631051Y-21302291D01*
X7631051Y-21388006D01*
X7616766Y-21416577D01*
X7602480Y-21430863D01*
X7573908Y-21445149D01*
X7531051Y-21445149D01*
X7802480Y-21445149D02*
X7773908Y-21430863D01*
X7759623Y-21402291D01*
X7759623Y-21145149D01*
X8031051Y-21430863D02*
X8002480Y-21445149D01*
X7945337Y-21445149D01*
X7916766Y-21430863D01*
X7902480Y-21402291D01*
X7902480Y-21288006D01*
X7916766Y-21259434D01*
X7945337Y-21245149D01*
X8002480Y-21245149D01*
X8031051Y-21259434D01*
X8045337Y-21288006D01*
X8045337Y-21316577D01*
X7902480Y-21345149D01*
X8159623Y-21430863D02*
X8188194Y-21445149D01*
X8245337Y-21445149D01*
X8273908Y-21430863D01*
X8288194Y-21402291D01*
X8288194Y-21388006D01*
X8273908Y-21359434D01*
X8245337Y-21345149D01*
X8202480Y-21345149D01*
X8173908Y-21330863D01*
X8159623Y-21302291D01*
X8159623Y-21288006D01*
X8173908Y-21259434D01*
X8202480Y-21245149D01*
X8245337Y-21245149D01*
X8273908Y-21259434D01*
X8388194Y-21559434D02*
X8402480Y-21545149D01*
X8431051Y-21502291D01*
X8445337Y-21473720D01*
X8459623Y-21430863D01*
X8473909Y-21359434D01*
X8473909Y-21302291D01*
X8459623Y-21230863D01*
X8445337Y-21188006D01*
X8431051Y-21159434D01*
X8402480Y-21116577D01*
X8388194Y-21102291D01*
X1800166Y-21654634D02*
X1901766Y-21756234D01*
X1901766Y-21654634D02*
X1800166Y-21756234D01*
X1886887Y-21741356D02*
X1886887Y-21669513D01*
X1815044Y-21669513D01*
X1815044Y-21741356D01*
X1886887Y-21741356D01*
X2345337Y-21841149D02*
X2173909Y-21841149D01*
X2259623Y-21841149D02*
X2259623Y-21541149D01*
X2231051Y-21584006D01*
X2202480Y-21612577D01*
X2173909Y-21626863D01*
X2473909Y-21812577D02*
X2488194Y-21826863D01*
X2473909Y-21841149D01*
X2459623Y-21826863D01*
X2473909Y-21812577D01*
X2473909Y-21841149D01*
X2673909Y-21541149D02*
X2702480Y-21541149D01*
X2731051Y-21555434D01*
X2745337Y-21569720D01*
X2759623Y-21598291D01*
X2773909Y-21655434D01*
X2773909Y-21726863D01*
X2759623Y-21784006D01*
X2745337Y-21812577D01*
X2731051Y-21826863D01*
X2702480Y-21841149D01*
X2673909Y-21841149D01*
X2645337Y-21826863D01*
X2631051Y-21812577D01*
X2616766Y-21784006D01*
X2602480Y-21726863D01*
X2602480Y-21655434D01*
X2616766Y-21598291D01*
X2631051Y-21569720D01*
X2645337Y-21555434D01*
X2673909Y-21541149D01*
X2888194Y-21569720D02*
X2902480Y-21555434D01*
X2931051Y-21541149D01*
X3002480Y-21541149D01*
X3031051Y-21555434D01*
X3045337Y-21569720D01*
X3059623Y-21598291D01*
X3059623Y-21626863D01*
X3045337Y-21669720D01*
X2873908Y-21841149D01*
X3059623Y-21841149D01*
X3188194Y-21841149D02*
X3188194Y-21641149D01*
X3188194Y-21669720D02*
X3202480Y-21655434D01*
X3231051Y-21641149D01*
X3273908Y-21641149D01*
X3302480Y-21655434D01*
X3316766Y-21684006D01*
X3316766Y-21841149D01*
X3316766Y-21684006D02*
X3331051Y-21655434D01*
X3359623Y-21641149D01*
X3402480Y-21641149D01*
X3431051Y-21655434D01*
X3445337Y-21684006D01*
X3445337Y-21841149D01*
X3588194Y-21841149D02*
X3588194Y-21641149D01*
X3588194Y-21669720D02*
X3602480Y-21655434D01*
X3631051Y-21641149D01*
X3673908Y-21641149D01*
X3702480Y-21655434D01*
X3716766Y-21684006D01*
X3716766Y-21841149D01*
X3716766Y-21684006D02*
X3731051Y-21655434D01*
X3759623Y-21641149D01*
X3802480Y-21641149D01*
X3831051Y-21655434D01*
X3845337Y-21684006D01*
X3845337Y-21841149D01*
X4431051Y-21526863D02*
X4173908Y-21912577D01*
X4816766Y-21541149D02*
X4845337Y-21541149D01*
X4873909Y-21555434D01*
X4888194Y-21569720D01*
X4902480Y-21598291D01*
X4916766Y-21655434D01*
X4916766Y-21726863D01*
X4902480Y-21784006D01*
X4888194Y-21812577D01*
X4873909Y-21826863D01*
X4845337Y-21841149D01*
X4816766Y-21841149D01*
X4788194Y-21826863D01*
X4773909Y-21812577D01*
X4759623Y-21784006D01*
X4745337Y-21726863D01*
X4745337Y-21655434D01*
X4759623Y-21598291D01*
X4773909Y-21569720D01*
X4788194Y-21555434D01*
X4816766Y-21541149D01*
X5045337Y-21812577D02*
X5059623Y-21826863D01*
X5045337Y-21841149D01*
X5031051Y-21826863D01*
X5045337Y-21812577D01*
X5045337Y-21841149D01*
X5245337Y-21541149D02*
X5273909Y-21541149D01*
X5302480Y-21555434D01*
X5316766Y-21569720D01*
X5331051Y-21598291D01*
X5345337Y-21655434D01*
X5345337Y-21726863D01*
X5331051Y-21784006D01*
X5316766Y-21812577D01*
X5302480Y-21826863D01*
X5273909Y-21841149D01*
X5245337Y-21841149D01*
X5216766Y-21826863D01*
X5202480Y-21812577D01*
X5188194Y-21784006D01*
X5173909Y-21726863D01*
X5173909Y-21655434D01*
X5188194Y-21598291D01*
X5202480Y-21569720D01*
X5216766Y-21555434D01*
X5245337Y-21541149D01*
X5602480Y-21641149D02*
X5602480Y-21841149D01*
X5531051Y-21526863D02*
X5459623Y-21741149D01*
X5645337Y-21741149D01*
X5816766Y-21541149D02*
X5845337Y-21541149D01*
X5873908Y-21555434D01*
X5888194Y-21569720D01*
X5902480Y-21598291D01*
X5916766Y-21655434D01*
X5916766Y-21726863D01*
X5902480Y-21784006D01*
X5888194Y-21812577D01*
X5873908Y-21826863D01*
X5845337Y-21841149D01*
X5816766Y-21841149D01*
X5788194Y-21826863D01*
X5773908Y-21812577D01*
X5759623Y-21784006D01*
X5745337Y-21726863D01*
X5745337Y-21655434D01*
X5759623Y-21598291D01*
X5773908Y-21569720D01*
X5788194Y-21555434D01*
X5816766Y-21541149D01*
X6031051Y-21541149D02*
X6031051Y-21598291D01*
X6145337Y-21541149D02*
X6145337Y-21598291D01*
X6588194Y-21955434D02*
X6573908Y-21941149D01*
X6545337Y-21898291D01*
X6531051Y-21869720D01*
X6516766Y-21826863D01*
X6502480Y-21755434D01*
X6502480Y-21698291D01*
X6516766Y-21626863D01*
X6531051Y-21584006D01*
X6545337Y-21555434D01*
X6573908Y-21512577D01*
X6588194Y-21498291D01*
X6831051Y-21641149D02*
X6831051Y-21841149D01*
X6759623Y-21526863D02*
X6688194Y-21741149D01*
X6873908Y-21741149D01*
X7116766Y-21541149D02*
X7059623Y-21541149D01*
X7031051Y-21555434D01*
X7016766Y-21569720D01*
X6988194Y-21612577D01*
X6973908Y-21669720D01*
X6973908Y-21784006D01*
X6988194Y-21812577D01*
X7002480Y-21826863D01*
X7031051Y-21841149D01*
X7088194Y-21841149D01*
X7116766Y-21826863D01*
X7131051Y-21812577D01*
X7145337Y-21784006D01*
X7145337Y-21712577D01*
X7131051Y-21684006D01*
X7116766Y-21669720D01*
X7088194Y-21655434D01*
X7031051Y-21655434D01*
X7002480Y-21669720D01*
X6988194Y-21684006D01*
X6973908Y-21712577D01*
X7502480Y-21841149D02*
X7502480Y-21541149D01*
X7631051Y-21841149D02*
X7631051Y-21684006D01*
X7616766Y-21655434D01*
X7588194Y-21641149D01*
X7545337Y-21641149D01*
X7516766Y-21655434D01*
X7502480Y-21669720D01*
X7816766Y-21841149D02*
X7788194Y-21826863D01*
X7773908Y-21812577D01*
X7759623Y-21784006D01*
X7759623Y-21698291D01*
X7773908Y-21669720D01*
X7788194Y-21655434D01*
X7816766Y-21641149D01*
X7859623Y-21641149D01*
X7888194Y-21655434D01*
X7902480Y-21669720D01*
X7916766Y-21698291D01*
X7916766Y-21784006D01*
X7902480Y-21812577D01*
X7888194Y-21826863D01*
X7859623Y-21841149D01*
X7816766Y-21841149D01*
X8088194Y-21841149D02*
X8059623Y-21826863D01*
X8045337Y-21798291D01*
X8045337Y-21541149D01*
X8316766Y-21826863D02*
X8288194Y-21841149D01*
X8231051Y-21841149D01*
X8202480Y-21826863D01*
X8188194Y-21798291D01*
X8188194Y-21684006D01*
X8202480Y-21655434D01*
X8231051Y-21641149D01*
X8288194Y-21641149D01*
X8316766Y-21655434D01*
X8331051Y-21684006D01*
X8331051Y-21712577D01*
X8188194Y-21741149D01*
X8445337Y-21826863D02*
X8473909Y-21841149D01*
X8531051Y-21841149D01*
X8559623Y-21826863D01*
X8573909Y-21798291D01*
X8573909Y-21784006D01*
X8559623Y-21755434D01*
X8531051Y-21741149D01*
X8488194Y-21741149D01*
X8459623Y-21726863D01*
X8445337Y-21698291D01*
X8445337Y-21684006D01*
X8459623Y-21655434D01*
X8488194Y-21641149D01*
X8531051Y-21641149D01*
X8559623Y-21655434D01*
X8673909Y-21955434D02*
X8688194Y-21941149D01*
X8716766Y-21898291D01*
X8731051Y-21869720D01*
X8745337Y-21826863D01*
X8759623Y-21755434D01*
X8759623Y-21698291D01*
X8745337Y-21626863D01*
X8731051Y-21584006D01*
X8716766Y-21555434D01*
X8688194Y-21512577D01*
X8673909Y-21498291D01*
M02*
