%FSLAX45Y45*%
G04 Gerber Fmt 4.5, Leading zero omitted, Abs format (unit mm)*
G04 Created by KiCad (PCBNEW (2016-12-18 revision 3ffa37c)-master) date Friday, December 30, 2016 'PMt' 10:14:34 PM*
%MOMM*%
%LPD*%
G01*
G04 APERTURE LIST*
%ADD10C,0.127000*%
%ADD11C,0.150000*%
%ADD12C,0.200000*%
%ADD13C,0.300000*%
G04 APERTURE END LIST*
D10*
D11*
X17254734Y-10293200D02*
G75*
G03X17254734Y-10293200I-7672734J0D01*
G01*
D12*
X14555000Y-14955000D02*
X14645000Y-15045000D01*
X14645000Y-14955000D02*
X14555000Y-15045000D01*
X14855000Y-14955000D02*
X14945000Y-15045000D01*
X14945000Y-14955000D02*
X14855000Y-15045000D01*
X6530000Y-7300000D02*
G75*
G03X6530000Y-7300000I-160000J0D01*
G01*
X6530000Y-12900000D02*
G75*
G03X6530000Y-12900000I-160000J0D01*
G01*
X8860000Y-3000000D02*
G75*
G03X8860000Y-3000000I-160000J0D01*
G01*
X10510000Y-3000000D02*
G75*
G03X10510000Y-3000000I-160000J0D01*
G01*
X13180000Y-7300000D02*
G75*
G03X13180000Y-7300000I-160000J0D01*
G01*
X13180000Y-12900000D02*
G75*
G03X13180000Y-12900000I-160000J0D01*
G01*
D13*
X2188194Y-18439149D02*
X2188194Y-18139149D01*
X2259623Y-18139149D01*
X2302480Y-18153434D01*
X2331051Y-18182006D01*
X2345337Y-18210577D01*
X2359623Y-18267720D01*
X2359623Y-18310577D01*
X2345337Y-18367720D01*
X2331051Y-18396291D01*
X2302480Y-18424863D01*
X2259623Y-18439149D01*
X2188194Y-18439149D01*
X2488194Y-18439149D02*
X2488194Y-18239149D01*
X2488194Y-18296291D02*
X2502480Y-18267720D01*
X2516766Y-18253434D01*
X2545337Y-18239149D01*
X2573909Y-18239149D01*
X2673909Y-18439149D02*
X2673909Y-18239149D01*
X2673909Y-18139149D02*
X2659623Y-18153434D01*
X2673909Y-18167720D01*
X2688194Y-18153434D01*
X2673909Y-18139149D01*
X2673909Y-18167720D01*
X2859623Y-18439149D02*
X2831051Y-18424863D01*
X2816766Y-18396291D01*
X2816766Y-18139149D01*
X3016766Y-18439149D02*
X2988194Y-18424863D01*
X2973908Y-18396291D01*
X2973908Y-18139149D01*
X3359623Y-18439149D02*
X3359623Y-18139149D01*
X3459623Y-18353434D01*
X3559623Y-18139149D01*
X3559623Y-18439149D01*
X3831051Y-18439149D02*
X3831051Y-18282006D01*
X3816766Y-18253434D01*
X3788194Y-18239149D01*
X3731051Y-18239149D01*
X3702480Y-18253434D01*
X3831051Y-18424863D02*
X3802480Y-18439149D01*
X3731051Y-18439149D01*
X3702480Y-18424863D01*
X3688194Y-18396291D01*
X3688194Y-18367720D01*
X3702480Y-18339149D01*
X3731051Y-18324863D01*
X3802480Y-18324863D01*
X3831051Y-18310577D01*
X3973908Y-18239149D02*
X3973908Y-18539149D01*
X3973908Y-18253434D02*
X4002480Y-18239149D01*
X4059623Y-18239149D01*
X4088194Y-18253434D01*
X4102480Y-18267720D01*
X4116766Y-18296291D01*
X4116766Y-18382006D01*
X4102480Y-18410577D01*
X4088194Y-18424863D01*
X4059623Y-18439149D01*
X4002480Y-18439149D01*
X3973908Y-18424863D01*
X4245337Y-18410577D02*
X4259623Y-18424863D01*
X4245337Y-18439149D01*
X4231051Y-18424863D01*
X4245337Y-18410577D01*
X4245337Y-18439149D01*
X4245337Y-18253434D02*
X4259623Y-18267720D01*
X4245337Y-18282006D01*
X4231051Y-18267720D01*
X4245337Y-18253434D01*
X4245337Y-18282006D01*
X1811766Y-18888434D02*
X1901766Y-18978434D01*
X1901766Y-18888434D02*
X1811766Y-18978434D01*
X2245337Y-18769149D02*
X2273909Y-18769149D01*
X2302480Y-18783434D01*
X2316766Y-18797720D01*
X2331051Y-18826291D01*
X2345337Y-18883434D01*
X2345337Y-18954863D01*
X2331051Y-19012006D01*
X2316766Y-19040577D01*
X2302480Y-19054863D01*
X2273909Y-19069149D01*
X2245337Y-19069149D01*
X2216766Y-19054863D01*
X2202480Y-19040577D01*
X2188194Y-19012006D01*
X2173909Y-18954863D01*
X2173909Y-18883434D01*
X2188194Y-18826291D01*
X2202480Y-18797720D01*
X2216766Y-18783434D01*
X2245337Y-18769149D01*
X2473909Y-19040577D02*
X2488194Y-19054863D01*
X2473909Y-19069149D01*
X2459623Y-19054863D01*
X2473909Y-19040577D01*
X2473909Y-19069149D01*
X2631051Y-19069149D02*
X2688194Y-19069149D01*
X2716766Y-19054863D01*
X2731051Y-19040577D01*
X2759623Y-18997720D01*
X2773909Y-18940577D01*
X2773909Y-18826291D01*
X2759623Y-18797720D01*
X2745337Y-18783434D01*
X2716766Y-18769149D01*
X2659623Y-18769149D01*
X2631051Y-18783434D01*
X2616766Y-18797720D01*
X2602480Y-18826291D01*
X2602480Y-18897720D01*
X2616766Y-18926291D01*
X2631051Y-18940577D01*
X2659623Y-18954863D01*
X2716766Y-18954863D01*
X2745337Y-18940577D01*
X2759623Y-18926291D01*
X2773909Y-18897720D01*
X2959623Y-18769149D02*
X2988194Y-18769149D01*
X3016766Y-18783434D01*
X3031051Y-18797720D01*
X3045337Y-18826291D01*
X3059623Y-18883434D01*
X3059623Y-18954863D01*
X3045337Y-19012006D01*
X3031051Y-19040577D01*
X3016766Y-19054863D01*
X2988194Y-19069149D01*
X2959623Y-19069149D01*
X2931051Y-19054863D01*
X2916766Y-19040577D01*
X2902480Y-19012006D01*
X2888194Y-18954863D01*
X2888194Y-18883434D01*
X2902480Y-18826291D01*
X2916766Y-18797720D01*
X2931051Y-18783434D01*
X2959623Y-18769149D01*
X3188194Y-19069149D02*
X3188194Y-18869149D01*
X3188194Y-18897720D02*
X3202480Y-18883434D01*
X3231051Y-18869149D01*
X3273908Y-18869149D01*
X3302480Y-18883434D01*
X3316766Y-18912006D01*
X3316766Y-19069149D01*
X3316766Y-18912006D02*
X3331051Y-18883434D01*
X3359623Y-18869149D01*
X3402480Y-18869149D01*
X3431051Y-18883434D01*
X3445337Y-18912006D01*
X3445337Y-19069149D01*
X3588194Y-19069149D02*
X3588194Y-18869149D01*
X3588194Y-18897720D02*
X3602480Y-18883434D01*
X3631051Y-18869149D01*
X3673908Y-18869149D01*
X3702480Y-18883434D01*
X3716766Y-18912006D01*
X3716766Y-19069149D01*
X3716766Y-18912006D02*
X3731051Y-18883434D01*
X3759623Y-18869149D01*
X3802480Y-18869149D01*
X3831051Y-18883434D01*
X3845337Y-18912006D01*
X3845337Y-19069149D01*
X4431051Y-18754863D02*
X4173908Y-19140577D01*
X4816766Y-18769149D02*
X4845337Y-18769149D01*
X4873909Y-18783434D01*
X4888194Y-18797720D01*
X4902480Y-18826291D01*
X4916766Y-18883434D01*
X4916766Y-18954863D01*
X4902480Y-19012006D01*
X4888194Y-19040577D01*
X4873909Y-19054863D01*
X4845337Y-19069149D01*
X4816766Y-19069149D01*
X4788194Y-19054863D01*
X4773909Y-19040577D01*
X4759623Y-19012006D01*
X4745337Y-18954863D01*
X4745337Y-18883434D01*
X4759623Y-18826291D01*
X4773909Y-18797720D01*
X4788194Y-18783434D01*
X4816766Y-18769149D01*
X5045337Y-19040577D02*
X5059623Y-19054863D01*
X5045337Y-19069149D01*
X5031051Y-19054863D01*
X5045337Y-19040577D01*
X5045337Y-19069149D01*
X5245337Y-18769149D02*
X5273909Y-18769149D01*
X5302480Y-18783434D01*
X5316766Y-18797720D01*
X5331051Y-18826291D01*
X5345337Y-18883434D01*
X5345337Y-18954863D01*
X5331051Y-19012006D01*
X5316766Y-19040577D01*
X5302480Y-19054863D01*
X5273909Y-19069149D01*
X5245337Y-19069149D01*
X5216766Y-19054863D01*
X5202480Y-19040577D01*
X5188194Y-19012006D01*
X5173909Y-18954863D01*
X5173909Y-18883434D01*
X5188194Y-18826291D01*
X5202480Y-18797720D01*
X5216766Y-18783434D01*
X5245337Y-18769149D01*
X5445337Y-18769149D02*
X5631051Y-18769149D01*
X5531051Y-18883434D01*
X5573909Y-18883434D01*
X5602480Y-18897720D01*
X5616766Y-18912006D01*
X5631051Y-18940577D01*
X5631051Y-19012006D01*
X5616766Y-19040577D01*
X5602480Y-19054863D01*
X5573909Y-19069149D01*
X5488194Y-19069149D01*
X5459623Y-19054863D01*
X5445337Y-19040577D01*
X5902480Y-18769149D02*
X5759623Y-18769149D01*
X5745337Y-18912006D01*
X5759623Y-18897720D01*
X5788194Y-18883434D01*
X5859623Y-18883434D01*
X5888194Y-18897720D01*
X5902480Y-18912006D01*
X5916766Y-18940577D01*
X5916766Y-19012006D01*
X5902480Y-19040577D01*
X5888194Y-19054863D01*
X5859623Y-19069149D01*
X5788194Y-19069149D01*
X5759623Y-19054863D01*
X5745337Y-19040577D01*
X6031051Y-18769149D02*
X6031051Y-18826291D01*
X6145337Y-18769149D02*
X6145337Y-18826291D01*
X6588194Y-19183434D02*
X6573908Y-19169149D01*
X6545337Y-19126291D01*
X6531051Y-19097720D01*
X6516766Y-19054863D01*
X6502480Y-18983434D01*
X6502480Y-18926291D01*
X6516766Y-18854863D01*
X6531051Y-18812006D01*
X6545337Y-18783434D01*
X6573908Y-18740577D01*
X6588194Y-18726291D01*
X6688194Y-18797720D02*
X6702480Y-18783434D01*
X6731051Y-18769149D01*
X6802480Y-18769149D01*
X6831051Y-18783434D01*
X6845337Y-18797720D01*
X6859623Y-18826291D01*
X6859623Y-18854863D01*
X6845337Y-18897720D01*
X6673908Y-19069149D01*
X6859623Y-19069149D01*
X7216766Y-19069149D02*
X7216766Y-18769149D01*
X7345337Y-19069149D02*
X7345337Y-18912006D01*
X7331051Y-18883434D01*
X7302480Y-18869149D01*
X7259623Y-18869149D01*
X7231051Y-18883434D01*
X7216766Y-18897720D01*
X7531051Y-19069149D02*
X7502480Y-19054863D01*
X7488194Y-19040577D01*
X7473908Y-19012006D01*
X7473908Y-18926291D01*
X7488194Y-18897720D01*
X7502480Y-18883434D01*
X7531051Y-18869149D01*
X7573908Y-18869149D01*
X7602480Y-18883434D01*
X7616766Y-18897720D01*
X7631051Y-18926291D01*
X7631051Y-19012006D01*
X7616766Y-19040577D01*
X7602480Y-19054863D01*
X7573908Y-19069149D01*
X7531051Y-19069149D01*
X7802480Y-19069149D02*
X7773908Y-19054863D01*
X7759623Y-19026291D01*
X7759623Y-18769149D01*
X8031051Y-19054863D02*
X8002480Y-19069149D01*
X7945337Y-19069149D01*
X7916766Y-19054863D01*
X7902480Y-19026291D01*
X7902480Y-18912006D01*
X7916766Y-18883434D01*
X7945337Y-18869149D01*
X8002480Y-18869149D01*
X8031051Y-18883434D01*
X8045337Y-18912006D01*
X8045337Y-18940577D01*
X7902480Y-18969149D01*
X8159623Y-19054863D02*
X8188194Y-19069149D01*
X8245337Y-19069149D01*
X8273908Y-19054863D01*
X8288194Y-19026291D01*
X8288194Y-19012006D01*
X8273908Y-18983434D01*
X8245337Y-18969149D01*
X8202480Y-18969149D01*
X8173908Y-18954863D01*
X8159623Y-18926291D01*
X8159623Y-18912006D01*
X8173908Y-18883434D01*
X8202480Y-18869149D01*
X8245337Y-18869149D01*
X8273908Y-18883434D01*
X8388194Y-19183434D02*
X8402480Y-19169149D01*
X8431051Y-19126291D01*
X8445337Y-19097720D01*
X8459623Y-19054863D01*
X8473909Y-18983434D01*
X8473909Y-18926291D01*
X8459623Y-18854863D01*
X8445337Y-18812006D01*
X8431051Y-18783434D01*
X8402480Y-18740577D01*
X8388194Y-18726291D01*
X8931051Y-19183434D02*
X8916766Y-19169149D01*
X8888194Y-19126291D01*
X8873909Y-19097720D01*
X8859623Y-19054863D01*
X8845337Y-18983434D01*
X8845337Y-18926291D01*
X8859623Y-18854863D01*
X8873909Y-18812006D01*
X8888194Y-18783434D01*
X8916766Y-18740577D01*
X8931051Y-18726291D01*
X9045337Y-18869149D02*
X9045337Y-19069149D01*
X9045337Y-18897720D02*
X9059623Y-18883434D01*
X9088194Y-18869149D01*
X9131051Y-18869149D01*
X9159623Y-18883434D01*
X9173909Y-18912006D01*
X9173909Y-19069149D01*
X9359623Y-19069149D02*
X9331051Y-19054863D01*
X9316766Y-19040577D01*
X9302480Y-19012006D01*
X9302480Y-18926291D01*
X9316766Y-18897720D01*
X9331051Y-18883434D01*
X9359623Y-18869149D01*
X9402480Y-18869149D01*
X9431051Y-18883434D01*
X9445337Y-18897720D01*
X9459623Y-18926291D01*
X9459623Y-19012006D01*
X9445337Y-19040577D01*
X9431051Y-19054863D01*
X9402480Y-19069149D01*
X9359623Y-19069149D01*
X9545337Y-18869149D02*
X9659623Y-18869149D01*
X9588194Y-18769149D02*
X9588194Y-19026291D01*
X9602480Y-19054863D01*
X9631051Y-19069149D01*
X9659623Y-19069149D01*
X9988194Y-18869149D02*
X9988194Y-19169149D01*
X9988194Y-18883434D02*
X10016766Y-18869149D01*
X10073909Y-18869149D01*
X10102480Y-18883434D01*
X10116766Y-18897720D01*
X10131051Y-18926291D01*
X10131051Y-19012006D01*
X10116766Y-19040577D01*
X10102480Y-19054863D01*
X10073909Y-19069149D01*
X10016766Y-19069149D01*
X9988194Y-19054863D01*
X10302480Y-19069149D02*
X10273909Y-19054863D01*
X10259623Y-19026291D01*
X10259623Y-18769149D01*
X10545337Y-19069149D02*
X10545337Y-18912006D01*
X10531051Y-18883434D01*
X10502480Y-18869149D01*
X10445337Y-18869149D01*
X10416766Y-18883434D01*
X10545337Y-19054863D02*
X10516766Y-19069149D01*
X10445337Y-19069149D01*
X10416766Y-19054863D01*
X10402480Y-19026291D01*
X10402480Y-18997720D01*
X10416766Y-18969149D01*
X10445337Y-18954863D01*
X10516766Y-18954863D01*
X10545337Y-18940577D01*
X10645337Y-18869149D02*
X10759623Y-18869149D01*
X10688194Y-18769149D02*
X10688194Y-19026291D01*
X10702480Y-19054863D01*
X10731051Y-19069149D01*
X10759623Y-19069149D01*
X10973909Y-19054863D02*
X10945337Y-19069149D01*
X10888194Y-19069149D01*
X10859623Y-19054863D01*
X10845337Y-19026291D01*
X10845337Y-18912006D01*
X10859623Y-18883434D01*
X10888194Y-18869149D01*
X10945337Y-18869149D01*
X10973909Y-18883434D01*
X10988194Y-18912006D01*
X10988194Y-18940577D01*
X10845337Y-18969149D01*
X11245337Y-19069149D02*
X11245337Y-18769149D01*
X11245337Y-19054863D02*
X11216766Y-19069149D01*
X11159623Y-19069149D01*
X11131051Y-19054863D01*
X11116766Y-19040577D01*
X11102480Y-19012006D01*
X11102480Y-18926291D01*
X11116766Y-18897720D01*
X11131051Y-18883434D01*
X11159623Y-18869149D01*
X11216766Y-18869149D01*
X11245337Y-18883434D01*
X11359623Y-19183434D02*
X11373908Y-19169149D01*
X11402480Y-19126291D01*
X11416766Y-19097720D01*
X11431051Y-19054863D01*
X11445337Y-18983434D01*
X11445337Y-18926291D01*
X11431051Y-18854863D01*
X11416766Y-18812006D01*
X11402480Y-18783434D01*
X11373908Y-18740577D01*
X11359623Y-18726291D01*
X1901766Y-19329434D02*
G75*
G03X1901766Y-19329434I-160000J0D01*
G01*
X2159623Y-19165149D02*
X2345337Y-19165149D01*
X2245337Y-19279434D01*
X2288194Y-19279434D01*
X2316766Y-19293720D01*
X2331051Y-19308006D01*
X2345337Y-19336577D01*
X2345337Y-19408006D01*
X2331051Y-19436577D01*
X2316766Y-19450863D01*
X2288194Y-19465149D01*
X2202480Y-19465149D01*
X2173909Y-19450863D01*
X2159623Y-19436577D01*
X2473909Y-19436577D02*
X2488194Y-19450863D01*
X2473909Y-19465149D01*
X2459623Y-19450863D01*
X2473909Y-19436577D01*
X2473909Y-19465149D01*
X2602480Y-19193720D02*
X2616766Y-19179434D01*
X2645337Y-19165149D01*
X2716766Y-19165149D01*
X2745337Y-19179434D01*
X2759623Y-19193720D01*
X2773909Y-19222291D01*
X2773909Y-19250863D01*
X2759623Y-19293720D01*
X2588194Y-19465149D01*
X2773909Y-19465149D01*
X2959623Y-19165149D02*
X2988194Y-19165149D01*
X3016766Y-19179434D01*
X3031051Y-19193720D01*
X3045337Y-19222291D01*
X3059623Y-19279434D01*
X3059623Y-19350863D01*
X3045337Y-19408006D01*
X3031051Y-19436577D01*
X3016766Y-19450863D01*
X2988194Y-19465149D01*
X2959623Y-19465149D01*
X2931051Y-19450863D01*
X2916766Y-19436577D01*
X2902480Y-19408006D01*
X2888194Y-19350863D01*
X2888194Y-19279434D01*
X2902480Y-19222291D01*
X2916766Y-19193720D01*
X2931051Y-19179434D01*
X2959623Y-19165149D01*
X3188194Y-19465149D02*
X3188194Y-19265149D01*
X3188194Y-19293720D02*
X3202480Y-19279434D01*
X3231051Y-19265149D01*
X3273908Y-19265149D01*
X3302480Y-19279434D01*
X3316766Y-19308006D01*
X3316766Y-19465149D01*
X3316766Y-19308006D02*
X3331051Y-19279434D01*
X3359623Y-19265149D01*
X3402480Y-19265149D01*
X3431051Y-19279434D01*
X3445337Y-19308006D01*
X3445337Y-19465149D01*
X3588194Y-19465149D02*
X3588194Y-19265149D01*
X3588194Y-19293720D02*
X3602480Y-19279434D01*
X3631051Y-19265149D01*
X3673908Y-19265149D01*
X3702480Y-19279434D01*
X3716766Y-19308006D01*
X3716766Y-19465149D01*
X3716766Y-19308006D02*
X3731051Y-19279434D01*
X3759623Y-19265149D01*
X3802480Y-19265149D01*
X3831051Y-19279434D01*
X3845337Y-19308006D01*
X3845337Y-19465149D01*
X4431051Y-19150863D02*
X4173908Y-19536577D01*
X4816766Y-19165149D02*
X4845337Y-19165149D01*
X4873909Y-19179434D01*
X4888194Y-19193720D01*
X4902480Y-19222291D01*
X4916766Y-19279434D01*
X4916766Y-19350863D01*
X4902480Y-19408006D01*
X4888194Y-19436577D01*
X4873909Y-19450863D01*
X4845337Y-19465149D01*
X4816766Y-19465149D01*
X4788194Y-19450863D01*
X4773909Y-19436577D01*
X4759623Y-19408006D01*
X4745337Y-19350863D01*
X4745337Y-19279434D01*
X4759623Y-19222291D01*
X4773909Y-19193720D01*
X4788194Y-19179434D01*
X4816766Y-19165149D01*
X5045337Y-19436577D02*
X5059623Y-19450863D01*
X5045337Y-19465149D01*
X5031051Y-19450863D01*
X5045337Y-19436577D01*
X5045337Y-19465149D01*
X5345337Y-19465149D02*
X5173909Y-19465149D01*
X5259623Y-19465149D02*
X5259623Y-19165149D01*
X5231051Y-19208006D01*
X5202480Y-19236577D01*
X5173909Y-19250863D01*
X5459623Y-19193720D02*
X5473909Y-19179434D01*
X5502480Y-19165149D01*
X5573909Y-19165149D01*
X5602480Y-19179434D01*
X5616766Y-19193720D01*
X5631051Y-19222291D01*
X5631051Y-19250863D01*
X5616766Y-19293720D01*
X5445337Y-19465149D01*
X5631051Y-19465149D01*
X5888194Y-19165149D02*
X5831051Y-19165149D01*
X5802480Y-19179434D01*
X5788194Y-19193720D01*
X5759623Y-19236577D01*
X5745337Y-19293720D01*
X5745337Y-19408006D01*
X5759623Y-19436577D01*
X5773908Y-19450863D01*
X5802480Y-19465149D01*
X5859623Y-19465149D01*
X5888194Y-19450863D01*
X5902480Y-19436577D01*
X5916766Y-19408006D01*
X5916766Y-19336577D01*
X5902480Y-19308006D01*
X5888194Y-19293720D01*
X5859623Y-19279434D01*
X5802480Y-19279434D01*
X5773908Y-19293720D01*
X5759623Y-19308006D01*
X5745337Y-19336577D01*
X6031051Y-19165149D02*
X6031051Y-19222291D01*
X6145337Y-19165149D02*
X6145337Y-19222291D01*
X6588194Y-19579434D02*
X6573908Y-19565149D01*
X6545337Y-19522291D01*
X6531051Y-19493720D01*
X6516766Y-19450863D01*
X6502480Y-19379434D01*
X6502480Y-19322291D01*
X6516766Y-19250863D01*
X6531051Y-19208006D01*
X6545337Y-19179434D01*
X6573908Y-19136577D01*
X6588194Y-19122291D01*
X6831051Y-19165149D02*
X6773908Y-19165149D01*
X6745337Y-19179434D01*
X6731051Y-19193720D01*
X6702480Y-19236577D01*
X6688194Y-19293720D01*
X6688194Y-19408006D01*
X6702480Y-19436577D01*
X6716766Y-19450863D01*
X6745337Y-19465149D01*
X6802480Y-19465149D01*
X6831051Y-19450863D01*
X6845337Y-19436577D01*
X6859623Y-19408006D01*
X6859623Y-19336577D01*
X6845337Y-19308006D01*
X6831051Y-19293720D01*
X6802480Y-19279434D01*
X6745337Y-19279434D01*
X6716766Y-19293720D01*
X6702480Y-19308006D01*
X6688194Y-19336577D01*
X7216766Y-19465149D02*
X7216766Y-19165149D01*
X7345337Y-19465149D02*
X7345337Y-19308006D01*
X7331051Y-19279434D01*
X7302480Y-19265149D01*
X7259623Y-19265149D01*
X7231051Y-19279434D01*
X7216766Y-19293720D01*
X7531051Y-19465149D02*
X7502480Y-19450863D01*
X7488194Y-19436577D01*
X7473908Y-19408006D01*
X7473908Y-19322291D01*
X7488194Y-19293720D01*
X7502480Y-19279434D01*
X7531051Y-19265149D01*
X7573908Y-19265149D01*
X7602480Y-19279434D01*
X7616766Y-19293720D01*
X7631051Y-19322291D01*
X7631051Y-19408006D01*
X7616766Y-19436577D01*
X7602480Y-19450863D01*
X7573908Y-19465149D01*
X7531051Y-19465149D01*
X7802480Y-19465149D02*
X7773908Y-19450863D01*
X7759623Y-19422291D01*
X7759623Y-19165149D01*
X8031051Y-19450863D02*
X8002480Y-19465149D01*
X7945337Y-19465149D01*
X7916766Y-19450863D01*
X7902480Y-19422291D01*
X7902480Y-19308006D01*
X7916766Y-19279434D01*
X7945337Y-19265149D01*
X8002480Y-19265149D01*
X8031051Y-19279434D01*
X8045337Y-19308006D01*
X8045337Y-19336577D01*
X7902480Y-19365149D01*
X8159623Y-19450863D02*
X8188194Y-19465149D01*
X8245337Y-19465149D01*
X8273908Y-19450863D01*
X8288194Y-19422291D01*
X8288194Y-19408006D01*
X8273908Y-19379434D01*
X8245337Y-19365149D01*
X8202480Y-19365149D01*
X8173908Y-19350863D01*
X8159623Y-19322291D01*
X8159623Y-19308006D01*
X8173908Y-19279434D01*
X8202480Y-19265149D01*
X8245337Y-19265149D01*
X8273908Y-19279434D01*
X8388194Y-19579434D02*
X8402480Y-19565149D01*
X8431051Y-19522291D01*
X8445337Y-19493720D01*
X8459623Y-19450863D01*
X8473909Y-19379434D01*
X8473909Y-19322291D01*
X8459623Y-19250863D01*
X8445337Y-19208006D01*
X8431051Y-19179434D01*
X8402480Y-19136577D01*
X8388194Y-19122291D01*
X8931051Y-19579434D02*
X8916766Y-19565149D01*
X8888194Y-19522291D01*
X8873909Y-19493720D01*
X8859623Y-19450863D01*
X8845337Y-19379434D01*
X8845337Y-19322291D01*
X8859623Y-19250863D01*
X8873909Y-19208006D01*
X8888194Y-19179434D01*
X8916766Y-19136577D01*
X8931051Y-19122291D01*
X9045337Y-19265149D02*
X9045337Y-19465149D01*
X9045337Y-19293720D02*
X9059623Y-19279434D01*
X9088194Y-19265149D01*
X9131051Y-19265149D01*
X9159623Y-19279434D01*
X9173909Y-19308006D01*
X9173909Y-19465149D01*
X9359623Y-19465149D02*
X9331051Y-19450863D01*
X9316766Y-19436577D01*
X9302480Y-19408006D01*
X9302480Y-19322291D01*
X9316766Y-19293720D01*
X9331051Y-19279434D01*
X9359623Y-19265149D01*
X9402480Y-19265149D01*
X9431051Y-19279434D01*
X9445337Y-19293720D01*
X9459623Y-19322291D01*
X9459623Y-19408006D01*
X9445337Y-19436577D01*
X9431051Y-19450863D01*
X9402480Y-19465149D01*
X9359623Y-19465149D01*
X9545337Y-19265149D02*
X9659623Y-19265149D01*
X9588194Y-19165149D02*
X9588194Y-19422291D01*
X9602480Y-19450863D01*
X9631051Y-19465149D01*
X9659623Y-19465149D01*
X9988194Y-19265149D02*
X9988194Y-19565149D01*
X9988194Y-19279434D02*
X10016766Y-19265149D01*
X10073909Y-19265149D01*
X10102480Y-19279434D01*
X10116766Y-19293720D01*
X10131051Y-19322291D01*
X10131051Y-19408006D01*
X10116766Y-19436577D01*
X10102480Y-19450863D01*
X10073909Y-19465149D01*
X10016766Y-19465149D01*
X9988194Y-19450863D01*
X10302480Y-19465149D02*
X10273909Y-19450863D01*
X10259623Y-19422291D01*
X10259623Y-19165149D01*
X10545337Y-19465149D02*
X10545337Y-19308006D01*
X10531051Y-19279434D01*
X10502480Y-19265149D01*
X10445337Y-19265149D01*
X10416766Y-19279434D01*
X10545337Y-19450863D02*
X10516766Y-19465149D01*
X10445337Y-19465149D01*
X10416766Y-19450863D01*
X10402480Y-19422291D01*
X10402480Y-19393720D01*
X10416766Y-19365149D01*
X10445337Y-19350863D01*
X10516766Y-19350863D01*
X10545337Y-19336577D01*
X10645337Y-19265149D02*
X10759623Y-19265149D01*
X10688194Y-19165149D02*
X10688194Y-19422291D01*
X10702480Y-19450863D01*
X10731051Y-19465149D01*
X10759623Y-19465149D01*
X10973909Y-19450863D02*
X10945337Y-19465149D01*
X10888194Y-19465149D01*
X10859623Y-19450863D01*
X10845337Y-19422291D01*
X10845337Y-19308006D01*
X10859623Y-19279434D01*
X10888194Y-19265149D01*
X10945337Y-19265149D01*
X10973909Y-19279434D01*
X10988194Y-19308006D01*
X10988194Y-19336577D01*
X10845337Y-19365149D01*
X11245337Y-19465149D02*
X11245337Y-19165149D01*
X11245337Y-19450863D02*
X11216766Y-19465149D01*
X11159623Y-19465149D01*
X11131051Y-19450863D01*
X11116766Y-19436577D01*
X11102480Y-19408006D01*
X11102480Y-19322291D01*
X11116766Y-19293720D01*
X11131051Y-19279434D01*
X11159623Y-19265149D01*
X11216766Y-19265149D01*
X11245337Y-19279434D01*
X11359623Y-19579434D02*
X11373908Y-19565149D01*
X11402480Y-19522291D01*
X11416766Y-19493720D01*
X11431051Y-19450863D01*
X11445337Y-19379434D01*
X11445337Y-19322291D01*
X11431051Y-19250863D01*
X11416766Y-19208006D01*
X11402480Y-19179434D01*
X11373908Y-19136577D01*
X11359623Y-19122291D01*
M02*
