%FSLAX45Y45*%
G04 Gerber Fmt 4.5, Leading zero omitted, Abs format (unit mm)*
G04 Created by KiCad (PCBNEW (2016-12-18 revision 3ffa37c)-master) date Monday, December 19, 2016 'PMt' 05:37:41 PM*
%MOMM*%
%LPD*%
G01*
G04 APERTURE LIST*
%ADD10C,0.127000*%
%ADD11C,0.150000*%
%ADD12C,0.200000*%
%ADD13C,0.300000*%
G04 APERTURE END LIST*
D10*
D11*
X17254734Y-10344000D02*
G75*
G03X17254734Y-10344000I-7672734J0D01*
G01*
D12*
X6295000Y-7225000D02*
X6445000Y-7375000D01*
X6445000Y-7225000D02*
X6295000Y-7375000D01*
X6295000Y-12825000D02*
X6445000Y-12975000D01*
X6445000Y-12825000D02*
X6295000Y-12975000D01*
X12945000Y-7225000D02*
X13095000Y-7375000D01*
X13095000Y-7225000D02*
X12945000Y-7375000D01*
X12945000Y-12825000D02*
X13095000Y-12975000D01*
X13095000Y-12825000D02*
X12945000Y-12975000D01*
D13*
X2188194Y-18489949D02*
X2188194Y-18189949D01*
X2259623Y-18189949D01*
X2302480Y-18204234D01*
X2331051Y-18232806D01*
X2345337Y-18261377D01*
X2359623Y-18318520D01*
X2359623Y-18361377D01*
X2345337Y-18418520D01*
X2331051Y-18447091D01*
X2302480Y-18475663D01*
X2259623Y-18489949D01*
X2188194Y-18489949D01*
X2488194Y-18489949D02*
X2488194Y-18289949D01*
X2488194Y-18347091D02*
X2502480Y-18318520D01*
X2516766Y-18304234D01*
X2545337Y-18289949D01*
X2573909Y-18289949D01*
X2673909Y-18489949D02*
X2673909Y-18289949D01*
X2673909Y-18189949D02*
X2659623Y-18204234D01*
X2673909Y-18218520D01*
X2688194Y-18204234D01*
X2673909Y-18189949D01*
X2673909Y-18218520D01*
X2859623Y-18489949D02*
X2831051Y-18475663D01*
X2816766Y-18447091D01*
X2816766Y-18189949D01*
X3016766Y-18489949D02*
X2988194Y-18475663D01*
X2973908Y-18447091D01*
X2973908Y-18189949D01*
X3359623Y-18489949D02*
X3359623Y-18189949D01*
X3459623Y-18404234D01*
X3559623Y-18189949D01*
X3559623Y-18489949D01*
X3831051Y-18489949D02*
X3831051Y-18332806D01*
X3816766Y-18304234D01*
X3788194Y-18289949D01*
X3731051Y-18289949D01*
X3702480Y-18304234D01*
X3831051Y-18475663D02*
X3802480Y-18489949D01*
X3731051Y-18489949D01*
X3702480Y-18475663D01*
X3688194Y-18447091D01*
X3688194Y-18418520D01*
X3702480Y-18389949D01*
X3731051Y-18375663D01*
X3802480Y-18375663D01*
X3831051Y-18361377D01*
X3973908Y-18289949D02*
X3973908Y-18589949D01*
X3973908Y-18304234D02*
X4002480Y-18289949D01*
X4059623Y-18289949D01*
X4088194Y-18304234D01*
X4102480Y-18318520D01*
X4116766Y-18347091D01*
X4116766Y-18432806D01*
X4102480Y-18461377D01*
X4088194Y-18475663D01*
X4059623Y-18489949D01*
X4002480Y-18489949D01*
X3973908Y-18475663D01*
X4245337Y-18461377D02*
X4259623Y-18475663D01*
X4245337Y-18489949D01*
X4231051Y-18475663D01*
X4245337Y-18461377D01*
X4245337Y-18489949D01*
X4245337Y-18304234D02*
X4259623Y-18318520D01*
X4245337Y-18332806D01*
X4231051Y-18318520D01*
X4245337Y-18304234D01*
X4245337Y-18332806D01*
X1751766Y-18909234D02*
X1901766Y-19059234D01*
X1901766Y-18909234D02*
X1751766Y-19059234D01*
X2345337Y-19119949D02*
X2173909Y-19119949D01*
X2259623Y-19119949D02*
X2259623Y-18819949D01*
X2231051Y-18862806D01*
X2202480Y-18891377D01*
X2173909Y-18905663D01*
X2473909Y-19091377D02*
X2488194Y-19105663D01*
X2473909Y-19119949D01*
X2459623Y-19105663D01*
X2473909Y-19091377D01*
X2473909Y-19119949D01*
X2759623Y-18819949D02*
X2616766Y-18819949D01*
X2602480Y-18962806D01*
X2616766Y-18948520D01*
X2645337Y-18934234D01*
X2716766Y-18934234D01*
X2745337Y-18948520D01*
X2759623Y-18962806D01*
X2773909Y-18991377D01*
X2773909Y-19062806D01*
X2759623Y-19091377D01*
X2745337Y-19105663D01*
X2716766Y-19119949D01*
X2645337Y-19119949D01*
X2616766Y-19105663D01*
X2602480Y-19091377D01*
X2959623Y-18819949D02*
X2988194Y-18819949D01*
X3016766Y-18834234D01*
X3031051Y-18848520D01*
X3045337Y-18877091D01*
X3059623Y-18934234D01*
X3059623Y-19005663D01*
X3045337Y-19062806D01*
X3031051Y-19091377D01*
X3016766Y-19105663D01*
X2988194Y-19119949D01*
X2959623Y-19119949D01*
X2931051Y-19105663D01*
X2916766Y-19091377D01*
X2902480Y-19062806D01*
X2888194Y-19005663D01*
X2888194Y-18934234D01*
X2902480Y-18877091D01*
X2916766Y-18848520D01*
X2931051Y-18834234D01*
X2959623Y-18819949D01*
X3188194Y-19119949D02*
X3188194Y-18919949D01*
X3188194Y-18948520D02*
X3202480Y-18934234D01*
X3231051Y-18919949D01*
X3273908Y-18919949D01*
X3302480Y-18934234D01*
X3316766Y-18962806D01*
X3316766Y-19119949D01*
X3316766Y-18962806D02*
X3331051Y-18934234D01*
X3359623Y-18919949D01*
X3402480Y-18919949D01*
X3431051Y-18934234D01*
X3445337Y-18962806D01*
X3445337Y-19119949D01*
X3588194Y-19119949D02*
X3588194Y-18919949D01*
X3588194Y-18948520D02*
X3602480Y-18934234D01*
X3631051Y-18919949D01*
X3673908Y-18919949D01*
X3702480Y-18934234D01*
X3716766Y-18962806D01*
X3716766Y-19119949D01*
X3716766Y-18962806D02*
X3731051Y-18934234D01*
X3759623Y-18919949D01*
X3802480Y-18919949D01*
X3831051Y-18934234D01*
X3845337Y-18962806D01*
X3845337Y-19119949D01*
X4431051Y-18805663D02*
X4173908Y-19191377D01*
X4816766Y-18819949D02*
X4845337Y-18819949D01*
X4873909Y-18834234D01*
X4888194Y-18848520D01*
X4902480Y-18877091D01*
X4916766Y-18934234D01*
X4916766Y-19005663D01*
X4902480Y-19062806D01*
X4888194Y-19091377D01*
X4873909Y-19105663D01*
X4845337Y-19119949D01*
X4816766Y-19119949D01*
X4788194Y-19105663D01*
X4773909Y-19091377D01*
X4759623Y-19062806D01*
X4745337Y-19005663D01*
X4745337Y-18934234D01*
X4759623Y-18877091D01*
X4773909Y-18848520D01*
X4788194Y-18834234D01*
X4816766Y-18819949D01*
X5045337Y-19091377D02*
X5059623Y-19105663D01*
X5045337Y-19119949D01*
X5031051Y-19105663D01*
X5045337Y-19091377D01*
X5045337Y-19119949D01*
X5245337Y-18819949D02*
X5273909Y-18819949D01*
X5302480Y-18834234D01*
X5316766Y-18848520D01*
X5331051Y-18877091D01*
X5345337Y-18934234D01*
X5345337Y-19005663D01*
X5331051Y-19062806D01*
X5316766Y-19091377D01*
X5302480Y-19105663D01*
X5273909Y-19119949D01*
X5245337Y-19119949D01*
X5216766Y-19105663D01*
X5202480Y-19091377D01*
X5188194Y-19062806D01*
X5173909Y-19005663D01*
X5173909Y-18934234D01*
X5188194Y-18877091D01*
X5202480Y-18848520D01*
X5216766Y-18834234D01*
X5245337Y-18819949D01*
X5616766Y-18819949D02*
X5473909Y-18819949D01*
X5459623Y-18962806D01*
X5473909Y-18948520D01*
X5502480Y-18934234D01*
X5573909Y-18934234D01*
X5602480Y-18948520D01*
X5616766Y-18962806D01*
X5631051Y-18991377D01*
X5631051Y-19062806D01*
X5616766Y-19091377D01*
X5602480Y-19105663D01*
X5573909Y-19119949D01*
X5502480Y-19119949D01*
X5473909Y-19105663D01*
X5459623Y-19091377D01*
X5773908Y-19119949D02*
X5831051Y-19119949D01*
X5859623Y-19105663D01*
X5873908Y-19091377D01*
X5902480Y-19048520D01*
X5916766Y-18991377D01*
X5916766Y-18877091D01*
X5902480Y-18848520D01*
X5888194Y-18834234D01*
X5859623Y-18819949D01*
X5802480Y-18819949D01*
X5773908Y-18834234D01*
X5759623Y-18848520D01*
X5745337Y-18877091D01*
X5745337Y-18948520D01*
X5759623Y-18977091D01*
X5773908Y-18991377D01*
X5802480Y-19005663D01*
X5859623Y-19005663D01*
X5888194Y-18991377D01*
X5902480Y-18977091D01*
X5916766Y-18948520D01*
X6031051Y-18819949D02*
X6031051Y-18877091D01*
X6145337Y-18819949D02*
X6145337Y-18877091D01*
X6588194Y-19234234D02*
X6573908Y-19219949D01*
X6545337Y-19177091D01*
X6531051Y-19148520D01*
X6516766Y-19105663D01*
X6502480Y-19034234D01*
X6502480Y-18977091D01*
X6516766Y-18905663D01*
X6531051Y-18862806D01*
X6545337Y-18834234D01*
X6573908Y-18791377D01*
X6588194Y-18777091D01*
X6831051Y-18919949D02*
X6831051Y-19119949D01*
X6759623Y-18805663D02*
X6688194Y-19019949D01*
X6873908Y-19019949D01*
X7216766Y-19119949D02*
X7216766Y-18819949D01*
X7345337Y-19119949D02*
X7345337Y-18962806D01*
X7331051Y-18934234D01*
X7302480Y-18919949D01*
X7259623Y-18919949D01*
X7231051Y-18934234D01*
X7216766Y-18948520D01*
X7531051Y-19119949D02*
X7502480Y-19105663D01*
X7488194Y-19091377D01*
X7473908Y-19062806D01*
X7473908Y-18977091D01*
X7488194Y-18948520D01*
X7502480Y-18934234D01*
X7531051Y-18919949D01*
X7573908Y-18919949D01*
X7602480Y-18934234D01*
X7616766Y-18948520D01*
X7631051Y-18977091D01*
X7631051Y-19062806D01*
X7616766Y-19091377D01*
X7602480Y-19105663D01*
X7573908Y-19119949D01*
X7531051Y-19119949D01*
X7802480Y-19119949D02*
X7773908Y-19105663D01*
X7759623Y-19077091D01*
X7759623Y-18819949D01*
X8031051Y-19105663D02*
X8002480Y-19119949D01*
X7945337Y-19119949D01*
X7916766Y-19105663D01*
X7902480Y-19077091D01*
X7902480Y-18962806D01*
X7916766Y-18934234D01*
X7945337Y-18919949D01*
X8002480Y-18919949D01*
X8031051Y-18934234D01*
X8045337Y-18962806D01*
X8045337Y-18991377D01*
X7902480Y-19019949D01*
X8159623Y-19105663D02*
X8188194Y-19119949D01*
X8245337Y-19119949D01*
X8273908Y-19105663D01*
X8288194Y-19077091D01*
X8288194Y-19062806D01*
X8273908Y-19034234D01*
X8245337Y-19019949D01*
X8202480Y-19019949D01*
X8173908Y-19005663D01*
X8159623Y-18977091D01*
X8159623Y-18962806D01*
X8173908Y-18934234D01*
X8202480Y-18919949D01*
X8245337Y-18919949D01*
X8273908Y-18934234D01*
X8388194Y-19234234D02*
X8402480Y-19219949D01*
X8431051Y-19177091D01*
X8445337Y-19148520D01*
X8459623Y-19105663D01*
X8473909Y-19034234D01*
X8473909Y-18977091D01*
X8459623Y-18905663D01*
X8445337Y-18862806D01*
X8431051Y-18834234D01*
X8402480Y-18791377D01*
X8388194Y-18777091D01*
X8931051Y-19234234D02*
X8916766Y-19219949D01*
X8888194Y-19177091D01*
X8873909Y-19148520D01*
X8859623Y-19105663D01*
X8845337Y-19034234D01*
X8845337Y-18977091D01*
X8859623Y-18905663D01*
X8873909Y-18862806D01*
X8888194Y-18834234D01*
X8916766Y-18791377D01*
X8931051Y-18777091D01*
X9045337Y-18919949D02*
X9045337Y-19119949D01*
X9045337Y-18948520D02*
X9059623Y-18934234D01*
X9088194Y-18919949D01*
X9131051Y-18919949D01*
X9159623Y-18934234D01*
X9173909Y-18962806D01*
X9173909Y-19119949D01*
X9359623Y-19119949D02*
X9331051Y-19105663D01*
X9316766Y-19091377D01*
X9302480Y-19062806D01*
X9302480Y-18977091D01*
X9316766Y-18948520D01*
X9331051Y-18934234D01*
X9359623Y-18919949D01*
X9402480Y-18919949D01*
X9431051Y-18934234D01*
X9445337Y-18948520D01*
X9459623Y-18977091D01*
X9459623Y-19062806D01*
X9445337Y-19091377D01*
X9431051Y-19105663D01*
X9402480Y-19119949D01*
X9359623Y-19119949D01*
X9545337Y-18919949D02*
X9659623Y-18919949D01*
X9588194Y-18819949D02*
X9588194Y-19077091D01*
X9602480Y-19105663D01*
X9631051Y-19119949D01*
X9659623Y-19119949D01*
X9988194Y-18919949D02*
X9988194Y-19219949D01*
X9988194Y-18934234D02*
X10016766Y-18919949D01*
X10073909Y-18919949D01*
X10102480Y-18934234D01*
X10116766Y-18948520D01*
X10131051Y-18977091D01*
X10131051Y-19062806D01*
X10116766Y-19091377D01*
X10102480Y-19105663D01*
X10073909Y-19119949D01*
X10016766Y-19119949D01*
X9988194Y-19105663D01*
X10302480Y-19119949D02*
X10273909Y-19105663D01*
X10259623Y-19077091D01*
X10259623Y-18819949D01*
X10545337Y-19119949D02*
X10545337Y-18962806D01*
X10531051Y-18934234D01*
X10502480Y-18919949D01*
X10445337Y-18919949D01*
X10416766Y-18934234D01*
X10545337Y-19105663D02*
X10516766Y-19119949D01*
X10445337Y-19119949D01*
X10416766Y-19105663D01*
X10402480Y-19077091D01*
X10402480Y-19048520D01*
X10416766Y-19019949D01*
X10445337Y-19005663D01*
X10516766Y-19005663D01*
X10545337Y-18991377D01*
X10645337Y-18919949D02*
X10759623Y-18919949D01*
X10688194Y-18819949D02*
X10688194Y-19077091D01*
X10702480Y-19105663D01*
X10731051Y-19119949D01*
X10759623Y-19119949D01*
X10973909Y-19105663D02*
X10945337Y-19119949D01*
X10888194Y-19119949D01*
X10859623Y-19105663D01*
X10845337Y-19077091D01*
X10845337Y-18962806D01*
X10859623Y-18934234D01*
X10888194Y-18919949D01*
X10945337Y-18919949D01*
X10973909Y-18934234D01*
X10988194Y-18962806D01*
X10988194Y-18991377D01*
X10845337Y-19019949D01*
X11245337Y-19119949D02*
X11245337Y-18819949D01*
X11245337Y-19105663D02*
X11216766Y-19119949D01*
X11159623Y-19119949D01*
X11131051Y-19105663D01*
X11116766Y-19091377D01*
X11102480Y-19062806D01*
X11102480Y-18977091D01*
X11116766Y-18948520D01*
X11131051Y-18934234D01*
X11159623Y-18919949D01*
X11216766Y-18919949D01*
X11245337Y-18934234D01*
X11359623Y-19234234D02*
X11373908Y-19219949D01*
X11402480Y-19177091D01*
X11416766Y-19148520D01*
X11431051Y-19105663D01*
X11445337Y-19034234D01*
X11445337Y-18977091D01*
X11431051Y-18905663D01*
X11416766Y-18862806D01*
X11402480Y-18834234D01*
X11373908Y-18791377D01*
X11359623Y-18777091D01*
M02*
