G04 #@! TF.GenerationSoftware,KiCad,Pcbnew,(2016-12-18 revision 3ffa37c)-master*
G04 #@! TF.CreationDate,2016-12-30T22:14:27-08:00*
G04 #@! TF.ProjectId,badge-kicad,62616467652D6B696361642E6B696361,rev?*
G04 #@! TF.FileFunction,Paste,Top*
G04 #@! TF.FilePolarity,Positive*
%FSLAX46Y46*%
G04 Gerber Fmt 4.6, Leading zero omitted, Abs format (unit mm)*
G04 Created by KiCad (PCBNEW (2016-12-18 revision 3ffa37c)-master) date Friday, December 30, 2016 'PMt' 10:14:27 PM*
%MOMM*%
%LPD*%
G01*
G04 APERTURE LIST*
%ADD10C,0.150000*%
%ADD11R,1.500000X1.250000*%
%ADD12R,1.000000X1.600000*%
%ADD13R,1.198880X0.599440*%
%ADD14R,1.000000X0.800000*%
%ADD15R,0.700000X1.500000*%
%ADD16R,0.899160X0.797560*%
%ADD17R,1.498600X0.899160*%
%ADD18R,1.049020X0.647700*%
%ADD19R,1.198880X1.198880*%
%ADD20R,0.700000X1.300000*%
%ADD21R,4.100000X1.000000*%
%ADD22R,4.100000X0.700000*%
%ADD23R,1.250000X1.500000*%
%ADD24R,1.300000X0.700000*%
%ADD25R,0.500000X1.000000*%
%ADD26R,1.750000X0.450000*%
%ADD27R,0.406400X0.406400*%
%ADD28O,2.819400X2.946400*%
%ADD29R,2.667000X2.667000*%
%ADD30R,0.304800X0.406400*%
%ADD31R,0.406400X0.304800*%
G04 APERTURE END LIST*
D10*
D11*
X117300000Y-151800000D03*
X114800000Y-151800000D03*
D12*
X139470000Y-121920000D03*
X142470000Y-121920000D03*
X155400000Y-136600000D03*
X152400000Y-136600000D03*
D13*
X96500000Y-93075440D03*
X96500000Y-91673360D03*
X97750000Y-87597960D03*
X97750000Y-89000040D03*
X99500000Y-74402040D03*
X99500000Y-72999960D03*
X100000000Y-47097960D03*
X100000000Y-48500040D03*
X99500000Y-62500040D03*
X99500000Y-61097960D03*
D14*
X143850000Y-148900000D03*
X151150000Y-148900000D03*
X151150000Y-151100000D03*
X143850000Y-151100000D03*
D15*
X149750000Y-148250000D03*
X148250000Y-148250000D03*
X145250000Y-148250000D03*
D11*
X101000000Y-84000000D03*
X103500000Y-84000000D03*
X88950000Y-81400000D03*
X86450000Y-81400000D03*
X89050000Y-88000000D03*
X86550000Y-88000000D03*
D16*
X49000020Y-140499960D03*
X49000020Y-138600040D03*
X47003580Y-139550000D03*
D17*
X137397560Y-44071540D03*
X137397560Y-47368460D03*
X132500440Y-47368460D03*
X132500440Y-44071540D03*
X156301440Y-71376540D03*
X156301440Y-74673460D03*
X161198560Y-74673460D03*
X161198560Y-71376540D03*
X166238560Y-99621540D03*
X166238560Y-102918460D03*
X161341440Y-102918460D03*
X161341440Y-99621540D03*
X156261440Y-128831540D03*
X156261440Y-132128460D03*
X161158560Y-132128460D03*
X161158560Y-128831540D03*
X139568560Y-154231540D03*
X139568560Y-157528460D03*
X134671440Y-157528460D03*
X134671440Y-154231540D03*
X92801440Y-169801540D03*
X92801440Y-173098460D03*
X97698560Y-173098460D03*
X97698560Y-169801540D03*
X50113560Y-149786540D03*
X50113560Y-153083460D03*
X45216440Y-153083460D03*
X45216440Y-149786540D03*
X30531440Y-128831540D03*
X30531440Y-132128460D03*
X35428560Y-132128460D03*
X35428560Y-128831540D03*
X27848560Y-99451540D03*
X27848560Y-102748460D03*
X22951440Y-102748460D03*
X22951440Y-99451540D03*
X29351440Y-71551540D03*
X29351440Y-74848460D03*
X34248560Y-74848460D03*
X34248560Y-71551540D03*
X59598560Y-44071540D03*
X59598560Y-47368460D03*
X54701440Y-47368460D03*
X54701440Y-44071540D03*
X92500040Y-31703040D03*
X92500040Y-34999960D03*
X97397160Y-34999960D03*
X97397160Y-31703040D03*
D18*
X45895240Y-59250020D03*
X41749960Y-59250020D03*
X45895240Y-57101180D03*
X41749960Y-57101180D03*
D19*
X96549020Y-152500000D03*
X94450980Y-152500000D03*
X139499980Y-108500000D03*
X141598020Y-108500000D03*
X141598020Y-91000000D03*
X139499980Y-91000000D03*
X139499980Y-85000000D03*
X141598020Y-85000000D03*
X96598020Y-163000000D03*
X94499980Y-163000000D03*
X139499980Y-103000000D03*
X141598020Y-103000000D03*
X141598020Y-97500000D03*
X139499980Y-97500000D03*
X94401980Y-157500000D03*
X96500020Y-157500000D03*
D20*
X136450000Y-97500000D03*
X134550000Y-97500000D03*
D21*
X104000000Y-96000000D03*
D22*
X104000000Y-94500000D03*
X104000000Y-97500000D03*
D23*
X130175000Y-157230000D03*
X130175000Y-154730000D03*
X88500000Y-170250000D03*
X88500000Y-172750000D03*
X55245000Y-152785000D03*
X55245000Y-150285000D03*
X41275000Y-129330000D03*
X41275000Y-131830000D03*
X32000000Y-102500000D03*
X32000000Y-100000000D03*
X38100000Y-71775000D03*
X38100000Y-74275000D03*
X64770000Y-46970000D03*
X64770000Y-44470000D03*
D11*
X93250000Y-40250000D03*
X95750000Y-40250000D03*
X142000000Y-116000000D03*
X139500000Y-116000000D03*
X120000000Y-116250000D03*
X122500000Y-116250000D03*
D23*
X157480000Y-102620000D03*
X157480000Y-100120000D03*
D11*
X69500000Y-88000000D03*
X72000000Y-88000000D03*
X80750000Y-88000000D03*
X78250000Y-88000000D03*
X78500000Y-95000000D03*
X81000000Y-95000000D03*
D23*
X97500000Y-80500000D03*
X97500000Y-78000000D03*
D11*
X99500000Y-68000000D03*
X102000000Y-68000000D03*
X105500000Y-56500000D03*
X103000000Y-56500000D03*
D23*
X99750000Y-54000000D03*
X99750000Y-56500000D03*
D11*
X105500000Y-51000000D03*
X103000000Y-51000000D03*
X103000000Y-46000000D03*
X105500000Y-46000000D03*
X106750000Y-171000000D03*
X104250000Y-171000000D03*
X118150000Y-159450000D03*
X115650000Y-159450000D03*
D23*
X128500000Y-95000000D03*
X128500000Y-92500000D03*
X147650000Y-132200000D03*
X147650000Y-129700000D03*
X129000000Y-44500000D03*
X129000000Y-47000000D03*
X150500000Y-74500000D03*
X150500000Y-72000000D03*
D20*
X87950000Y-157500000D03*
X86050000Y-157500000D03*
X81600000Y-157550000D03*
X83500000Y-157550000D03*
X134600000Y-84900000D03*
X136500000Y-84900000D03*
X134600000Y-91000000D03*
X136500000Y-91000000D03*
X87950000Y-152500000D03*
X86050000Y-152500000D03*
D24*
X78000000Y-163350000D03*
X78000000Y-161450000D03*
D20*
X136550000Y-102800000D03*
X134650000Y-102800000D03*
X81050000Y-124000000D03*
X82950000Y-124000000D03*
X128400000Y-85000000D03*
X126500000Y-85000000D03*
X87950000Y-163000000D03*
X86050000Y-163000000D03*
D24*
X151810000Y-123230000D03*
X151810000Y-125130000D03*
D20*
X80400000Y-100500000D03*
X78500000Y-100500000D03*
X157150000Y-119500000D03*
X155250000Y-119500000D03*
X136500000Y-108500000D03*
X134600000Y-108500000D03*
D25*
X109500000Y-39900000D03*
X109500000Y-36100000D03*
X119700000Y-36100000D03*
X119700000Y-39900000D03*
X119700000Y-38000000D03*
X109500000Y-38000000D03*
X114600000Y-36100000D03*
X114600000Y-39900000D03*
D26*
X118200000Y-99250000D03*
X118200000Y-99900000D03*
X118200000Y-100550000D03*
X118200000Y-101200000D03*
X118200000Y-101850000D03*
X118200000Y-102500000D03*
X118200000Y-103150000D03*
X118200000Y-103800000D03*
X118200000Y-104450000D03*
X118200000Y-105100000D03*
X118200000Y-105750000D03*
X118200000Y-106400000D03*
X118200000Y-107050000D03*
X118200000Y-107700000D03*
X125400000Y-107700000D03*
X125400000Y-107050000D03*
X125400000Y-106400000D03*
X125400000Y-105750000D03*
X125400000Y-105100000D03*
X125400000Y-104450000D03*
X125400000Y-103800000D03*
X125400000Y-103150000D03*
X125400000Y-102500000D03*
X125400000Y-101850000D03*
X125400000Y-101200000D03*
X125400000Y-100550000D03*
X125400000Y-99900000D03*
X125400000Y-99250000D03*
D27*
X94749806Y-104749804D03*
X94749806Y-103749806D03*
X95749804Y-103749806D03*
X95749804Y-104749804D03*
D28*
X91500130Y-103399794D03*
D29*
X94499870Y-100500130D03*
D30*
X89750070Y-98275090D03*
X90250196Y-98275090D03*
X90750068Y-98275090D03*
X91250194Y-98275090D03*
X91750066Y-98275090D03*
X92250192Y-98275090D03*
X92750064Y-98275090D03*
X93249936Y-98275090D03*
X93749808Y-98275090D03*
X94249934Y-98275090D03*
X94749806Y-98275090D03*
X95249932Y-98275090D03*
X95749804Y-98275090D03*
X96249930Y-98275090D03*
D31*
X96724910Y-98750070D03*
X96724910Y-99250196D03*
X96724910Y-99750068D03*
X96724910Y-100250194D03*
X96724910Y-100750066D03*
X96724910Y-101250192D03*
X96724910Y-101750064D03*
X96724910Y-102249936D03*
X96724910Y-102749808D03*
X96724910Y-103249934D03*
X96724910Y-103749806D03*
X96724910Y-104249932D03*
X96724910Y-104749804D03*
X96724910Y-105249930D03*
D30*
X96249930Y-105724910D03*
X95749804Y-105724910D03*
X95249932Y-105724910D03*
X94749806Y-105724910D03*
X94249934Y-105724910D03*
X93749808Y-105724910D03*
X93249936Y-105724910D03*
X92750064Y-105724910D03*
X92250192Y-105724910D03*
X91750066Y-105724910D03*
X91250194Y-105724910D03*
X90750068Y-105724910D03*
X90250196Y-105724910D03*
X89750070Y-105724910D03*
D31*
X89275090Y-105249930D03*
X89275090Y-104749804D03*
X89275090Y-104249932D03*
X89275090Y-103749806D03*
X89275090Y-103249934D03*
X89275090Y-102749808D03*
X89275090Y-102249936D03*
X89275090Y-101750064D03*
X89275090Y-101250192D03*
X89275090Y-100750066D03*
X89275090Y-100250194D03*
X89275090Y-99750068D03*
X89275090Y-99250196D03*
D27*
X89275090Y-98750070D03*
M02*
