G04 #@! TF.GenerationSoftware,KiCad,Pcbnew,(2016-12-18 revision 3ffa37c)-master*
G04 #@! TF.CreationDate,2017-05-23T14:06:46-07:00*
G04 #@! TF.ProjectId,badge-kicad,62616467652D6B696361642E6B696361,rev?*
G04 #@! TF.FileFunction,Profile,NP*
%FSLAX46Y46*%
G04 Gerber Fmt 4.6, Leading zero omitted, Abs format (unit mm)*
G04 Created by KiCad (PCBNEW (2016-12-18 revision 3ffa37c)-master) date Tuesday, May 23, 2017 'PMt' 02:06:46 PM*
%MOMM*%
%LPD*%
G01*
G04 APERTURE LIST*
%ADD10C,0.150000*%
G04 APERTURE END LIST*
D10*
X134038715Y-50644941D02*
X136660551Y-50645160D01*
X136660551Y-50645160D02*
X139433943Y-50645432D01*
X139433943Y-50645432D02*
X142363242Y-50645700D01*
X142363242Y-50645700D02*
X145452795Y-50645908D01*
X145452795Y-50645908D02*
X148706951Y-50646000D01*
X148706951Y-50646000D02*
X149000000Y-50646000D01*
X149000000Y-50646000D02*
X152251951Y-50646032D01*
X152251951Y-50646032D02*
X155338890Y-50646138D01*
X155338890Y-50646138D02*
X158265134Y-50646332D01*
X158265134Y-50646332D02*
X161035005Y-50646626D01*
X161035005Y-50646626D02*
X163652822Y-50647033D01*
X163652822Y-50647033D02*
X166122906Y-50647568D01*
X166122906Y-50647568D02*
X168449575Y-50648242D01*
X168449575Y-50648242D02*
X170637151Y-50649070D01*
X170637151Y-50649070D02*
X172689952Y-50650065D01*
X172689952Y-50650065D02*
X174612299Y-50651239D01*
X174612299Y-50651239D02*
X176408512Y-50652606D01*
X176408512Y-50652606D02*
X178082911Y-50654180D01*
X178082911Y-50654180D02*
X179639814Y-50655973D01*
X179639814Y-50655973D02*
X181083544Y-50658000D01*
X181083544Y-50658000D02*
X182418418Y-50660272D01*
X182418418Y-50660272D02*
X183648758Y-50662803D01*
X183648758Y-50662803D02*
X184778882Y-50665607D01*
X184778882Y-50665607D02*
X185813112Y-50668697D01*
X185813112Y-50668697D02*
X186755767Y-50672086D01*
X186755767Y-50672086D02*
X187611166Y-50675788D01*
X187611166Y-50675788D02*
X188383630Y-50679814D01*
X188383630Y-50679814D02*
X189077479Y-50684180D01*
X189077479Y-50684180D02*
X189697032Y-50688898D01*
X189697032Y-50688898D02*
X190246609Y-50693980D01*
X190246609Y-50693980D02*
X190730531Y-50699442D01*
X190730531Y-50699442D02*
X191153116Y-50705295D01*
X191153116Y-50705295D02*
X191518686Y-50711553D01*
X191518686Y-50711553D02*
X191831560Y-50718230D01*
X191831560Y-50718230D02*
X192096058Y-50725338D01*
X192096058Y-50725338D02*
X192316499Y-50732890D01*
X192316499Y-50732890D02*
X192497204Y-50740901D01*
X192497204Y-50740901D02*
X192642493Y-50749383D01*
X192642493Y-50749383D02*
X192756685Y-50758349D01*
X192756685Y-50758349D02*
X192844100Y-50767814D01*
X192844100Y-50767814D02*
X192909059Y-50777789D01*
X192909059Y-50777789D02*
X192923804Y-50780674D01*
X192923804Y-50780674D02*
X193903085Y-51064999D01*
X193903085Y-51064999D02*
X194797455Y-51490220D01*
X194797455Y-51490220D02*
X195598292Y-52046058D01*
X195598292Y-52046058D02*
X196296980Y-52722236D01*
X196296980Y-52722236D02*
X196884897Y-53508475D01*
X196884897Y-53508475D02*
X197353424Y-54394499D01*
X197353424Y-54394499D02*
X197693943Y-55370029D01*
X197693943Y-55370029D02*
X197897834Y-56424789D01*
X197897834Y-56424789D02*
X197930733Y-56750922D01*
X197930733Y-56750922D02*
X197969518Y-57181513D01*
X197969518Y-57181513D02*
X198011061Y-57484889D01*
X198011061Y-57484889D02*
X198065690Y-57702997D01*
X198065690Y-57702997D02*
X198143734Y-57877786D01*
X198143734Y-57877786D02*
X198248412Y-58041124D01*
X198248412Y-58041124D02*
X198416782Y-58256724D01*
X198416782Y-58256724D02*
X198598897Y-58425119D01*
X198598897Y-58425119D02*
X198822632Y-58557715D01*
X198822632Y-58557715D02*
X199115863Y-58665920D01*
X199115863Y-58665920D02*
X199506466Y-58761140D01*
X199506466Y-58761140D02*
X200022316Y-58854782D01*
X200022316Y-58854782D02*
X200372117Y-58910143D01*
X200372117Y-58910143D02*
X201929829Y-59185768D01*
X201929829Y-59185768D02*
X203390163Y-59524717D01*
X203390163Y-59524717D02*
X204818782Y-59944579D01*
X204818782Y-59944579D02*
X206281348Y-60462942D01*
X206281348Y-60462942D02*
X206535599Y-60561155D01*
X206535599Y-60561155D02*
X208515918Y-61424409D01*
X208515918Y-61424409D02*
X210417420Y-62433462D01*
X210417420Y-62433462D02*
X212234004Y-63581187D01*
X212234004Y-63581187D02*
X213959568Y-64860456D01*
X213959568Y-64860456D02*
X215588011Y-66264141D01*
X215588011Y-66264141D02*
X217113230Y-67785117D01*
X217113230Y-67785117D02*
X218529125Y-69416255D01*
X218529125Y-69416255D02*
X219829593Y-71150428D01*
X219829593Y-71150428D02*
X221008533Y-72980509D01*
X221008533Y-72980509D02*
X222059842Y-74899371D01*
X222059842Y-74899371D02*
X222977421Y-76899887D01*
X222977421Y-76899887D02*
X223755165Y-78974929D01*
X223755165Y-78974929D02*
X224386975Y-81117370D01*
X224386975Y-81117370D02*
X224490627Y-81533988D01*
X224490627Y-81533988D02*
X224935033Y-83728031D01*
X224935033Y-83728031D02*
X225222569Y-85967903D01*
X225222569Y-85967903D02*
X225352962Y-88235003D01*
X225352962Y-88235003D02*
X225325938Y-90510731D01*
X225325938Y-90510731D02*
X225141225Y-92776486D01*
X225141225Y-92776486D02*
X224798549Y-95013667D01*
X224798549Y-95013667D02*
X224696075Y-95528409D01*
X224696075Y-95528409D02*
X224155804Y-97715397D01*
X224155804Y-97715397D02*
X223457064Y-99853043D01*
X223457064Y-99853043D02*
X222605222Y-101931414D01*
X222605222Y-101931414D02*
X221605649Y-103940578D01*
X221605649Y-103940578D02*
X220463712Y-105870603D01*
X220463712Y-105870603D02*
X219184780Y-107711558D01*
X219184780Y-107711558D02*
X217774221Y-109453510D01*
X217774221Y-109453510D02*
X216342590Y-110982334D01*
X216342590Y-110982334D02*
X214722899Y-112478515D01*
X214722899Y-112478515D02*
X213008482Y-113839119D01*
X213008482Y-113839119D02*
X211207404Y-115060107D01*
X211207404Y-115060107D02*
X209327731Y-116137444D01*
X209327731Y-116137444D02*
X207377529Y-117067094D01*
X207377529Y-117067094D02*
X205364864Y-117845019D01*
X205364864Y-117845019D02*
X203297800Y-118467183D01*
X203297800Y-118467183D02*
X201184404Y-118929549D01*
X201184404Y-118929549D02*
X200126812Y-119097606D01*
X200126812Y-119097606D02*
X199615330Y-119174870D01*
X199615330Y-119174870D02*
X199238037Y-119249843D01*
X199238037Y-119249843D02*
X198960344Y-119333928D01*
X198960344Y-119333928D02*
X198747664Y-119438529D01*
X198747664Y-119438529D02*
X198565407Y-119575051D01*
X198565407Y-119575051D02*
X198501274Y-119633553D01*
X198501274Y-119633553D02*
X198290238Y-119864732D01*
X198290238Y-119864732D02*
X198140424Y-120118518D01*
X198140424Y-120118518D02*
X198037301Y-120434932D01*
X198037301Y-120434932D02*
X197966340Y-120853997D01*
X197966340Y-120853997D02*
X197929996Y-121207041D01*
X197929996Y-121207041D02*
X197846771Y-121926116D01*
X197846771Y-121926116D02*
X197724970Y-122538740D01*
X197724970Y-122538740D02*
X197548733Y-123106264D01*
X197548733Y-123106264D02*
X197302201Y-123690042D01*
X197302201Y-123690042D02*
X197271168Y-123755666D01*
X197271168Y-123755666D02*
X196757320Y-124640127D01*
X196757320Y-124640127D02*
X196112641Y-125423707D01*
X196112641Y-125423707D02*
X195349400Y-126096064D01*
X195349400Y-126096064D02*
X194479863Y-126646856D01*
X194479863Y-126646856D02*
X193516297Y-127065739D01*
X193516297Y-127065739D02*
X193238333Y-127155868D01*
X193238333Y-127155868D02*
X193195897Y-127167312D01*
X193195897Y-127167312D02*
X193143509Y-127178175D01*
X193143509Y-127178175D02*
X193076807Y-127188476D01*
X193076807Y-127188476D02*
X192991433Y-127198230D01*
X192991433Y-127198230D02*
X192883027Y-127207453D01*
X192883027Y-127207453D02*
X192747229Y-127216162D01*
X192747229Y-127216162D02*
X192579678Y-127224374D01*
X192579678Y-127224374D02*
X192376017Y-127232105D01*
X192376017Y-127232105D02*
X192131884Y-127239371D01*
X192131884Y-127239371D02*
X191842920Y-127246189D01*
X191842920Y-127246189D02*
X191504765Y-127252575D01*
X191504765Y-127252575D02*
X191113059Y-127258545D01*
X191113059Y-127258545D02*
X190663443Y-127264117D01*
X190663443Y-127264117D02*
X190151556Y-127269307D01*
X190151556Y-127269307D02*
X189573040Y-127274131D01*
X189573040Y-127274131D02*
X188923534Y-127278605D01*
X188923534Y-127278605D02*
X188198679Y-127282746D01*
X188198679Y-127282746D02*
X187394114Y-127286570D01*
X187394114Y-127286570D02*
X186505481Y-127290094D01*
X186505481Y-127290094D02*
X185528418Y-127293335D01*
X185528418Y-127293335D02*
X184458567Y-127296308D01*
X184458567Y-127296308D02*
X183291568Y-127299031D01*
X183291568Y-127299031D02*
X182023060Y-127301519D01*
X182023060Y-127301519D02*
X180648685Y-127303789D01*
X180648685Y-127303789D02*
X179164082Y-127305857D01*
X179164082Y-127305857D02*
X177564892Y-127307741D01*
X177564892Y-127307741D02*
X175846755Y-127309456D01*
X175846755Y-127309456D02*
X174005311Y-127311019D01*
X174005311Y-127311019D02*
X172036200Y-127312446D01*
X172036200Y-127312446D02*
X169935062Y-127313754D01*
X169935062Y-127313754D02*
X167697539Y-127314959D01*
X167697539Y-127314959D02*
X165319269Y-127316078D01*
X165319269Y-127316078D02*
X162795894Y-127317126D01*
X162795894Y-127317126D02*
X160123053Y-127318122D01*
X160123053Y-127318122D02*
X157296387Y-127319080D01*
X157296387Y-127319080D02*
X154311536Y-127320018D01*
X154311536Y-127320018D02*
X151164140Y-127320951D01*
X151164140Y-127320951D02*
X149338667Y-127321476D01*
X149338667Y-127321476D02*
X146145868Y-127322231D01*
X146145868Y-127322231D02*
X143048519Y-127322654D01*
X143048519Y-127322654D02*
X140049772Y-127322750D01*
X140049772Y-127322750D02*
X137152776Y-127322523D01*
X137152776Y-127322523D02*
X134360683Y-127321979D01*
X134360683Y-127321979D02*
X131676643Y-127321123D01*
X131676643Y-127321123D02*
X129103806Y-127319958D01*
X129103806Y-127319958D02*
X126645325Y-127318489D01*
X126645325Y-127318489D02*
X124304348Y-127316723D01*
X124304348Y-127316723D02*
X122084027Y-127314662D01*
X122084027Y-127314662D02*
X119987513Y-127312313D01*
X119987513Y-127312313D02*
X118017956Y-127309679D01*
X118017956Y-127309679D02*
X116178507Y-127306766D01*
X116178507Y-127306766D02*
X114472316Y-127303578D01*
X114472316Y-127303578D02*
X112902535Y-127300121D01*
X112902535Y-127300121D02*
X111472314Y-127296398D01*
X111472314Y-127296398D02*
X110184803Y-127292414D01*
X110184803Y-127292414D02*
X109043154Y-127288175D01*
X109043154Y-127288175D02*
X108050517Y-127283686D01*
X108050517Y-127283686D02*
X107210042Y-127278950D01*
X107210042Y-127278950D02*
X106524881Y-127273972D01*
X106524881Y-127273972D02*
X105998184Y-127268759D01*
X105998184Y-127268759D02*
X105633101Y-127263313D01*
X105633101Y-127263313D02*
X105432784Y-127257640D01*
X105432784Y-127257640D02*
X105397246Y-127255016D01*
X105397246Y-127255016D02*
X104452078Y-127035809D01*
X104452078Y-127035809D02*
X103557027Y-126663047D01*
X103557027Y-126663047D02*
X102727876Y-126148993D01*
X102727876Y-126148993D02*
X101980411Y-125505906D01*
X101980411Y-125505906D02*
X101330415Y-124746051D01*
X101330415Y-124746051D02*
X100793674Y-123881688D01*
X100793674Y-123881688D02*
X100634982Y-123555616D01*
X100634982Y-123555616D02*
X100455255Y-123082773D01*
X100455255Y-123082773D02*
X100293797Y-122518245D01*
X100293797Y-122518245D02*
X100165283Y-121927104D01*
X100165283Y-121927104D02*
X100084384Y-121374419D01*
X100084384Y-121374419D02*
X100063779Y-121022447D01*
X100063779Y-121022447D02*
X99990047Y-120475234D01*
X99990047Y-120475234D02*
X99783511Y-119986530D01*
X99783511Y-119986530D02*
X99461933Y-119588044D01*
X99461933Y-119588044D02*
X99128356Y-119352673D01*
X99128356Y-119352673D02*
X98961361Y-119297127D01*
X98961361Y-119297127D02*
X98668458Y-119230313D01*
X98668458Y-119230313D02*
X98291895Y-119160888D01*
X98291895Y-119160888D02*
X97900690Y-119101159D01*
X97900690Y-119101159D02*
X95785459Y-118725774D01*
X95785459Y-118725774D02*
X93714150Y-118190154D01*
X93714150Y-118190154D02*
X91694437Y-117499469D01*
X91694437Y-117499469D02*
X89733992Y-116658892D01*
X89733992Y-116658892D02*
X87840490Y-115673594D01*
X87840490Y-115673594D02*
X86021604Y-114548749D01*
X86021604Y-114548749D02*
X84285008Y-113289526D01*
X84285008Y-113289526D02*
X82638375Y-111901100D01*
X82638375Y-111901100D02*
X81089379Y-110388641D01*
X81089379Y-110388641D02*
X79645693Y-108757321D01*
X79645693Y-108757321D02*
X78314992Y-107012313D01*
X78314992Y-107012313D02*
X77104948Y-105158789D01*
X77104948Y-105158789D02*
X77030854Y-105035012D01*
X77030854Y-105035012D02*
X75944905Y-103055214D01*
X75944905Y-103055214D02*
X75013679Y-101021324D01*
X75013679Y-101021324D02*
X74234665Y-98925756D01*
X74234665Y-98925756D02*
X73605349Y-96760922D01*
X73605349Y-96760922D02*
X73123222Y-94519231D01*
X73123222Y-94519231D02*
X72788498Y-92217333D01*
X72788498Y-92217333D02*
X72748598Y-91744152D01*
X72748598Y-91744152D02*
X72717921Y-91136955D01*
X72717921Y-91136955D02*
X72696467Y-90430762D01*
X72696467Y-90430762D02*
X72684235Y-89660590D01*
X72684235Y-89660590D02*
X72681327Y-88888316D01*
X72681327Y-88888316D02*
X72681225Y-88861459D01*
X72681225Y-88861459D02*
X72687436Y-88068386D01*
X72687436Y-88068386D02*
X72702868Y-87316391D01*
X72702868Y-87316391D02*
X72727521Y-86640492D01*
X72727521Y-86640492D02*
X72761393Y-86075708D01*
X72761393Y-86075708D02*
X72788591Y-85782666D01*
X72788591Y-85782666D02*
X73124063Y-83467624D01*
X73124063Y-83467624D02*
X73598951Y-81243848D01*
X73598951Y-81243848D02*
X74216818Y-79101520D01*
X74216818Y-79101520D02*
X74981229Y-77030821D01*
X74981229Y-77030821D02*
X75895747Y-75021933D01*
X75895747Y-75021933D02*
X76963937Y-73065037D01*
X76963937Y-73065037D02*
X77997780Y-71431666D01*
X77997780Y-71431666D02*
X79278243Y-69677982D01*
X79278243Y-69677982D02*
X80684123Y-68026421D01*
X80684123Y-68026421D02*
X82205296Y-66484411D01*
X82205296Y-66484411D02*
X83831640Y-65059380D01*
X83831640Y-65059380D02*
X85553034Y-63758757D01*
X85553034Y-63758757D02*
X87359355Y-62589970D01*
X87359355Y-62589970D02*
X89240480Y-61560446D01*
X89240480Y-61560446D02*
X91186289Y-60677615D01*
X91186289Y-60677615D02*
X93186657Y-59948904D01*
X93186657Y-59948904D02*
X93969355Y-59710971D01*
X93969355Y-59710971D02*
X95042023Y-59427378D01*
X95042023Y-59427378D02*
X96165306Y-59174798D01*
X96165306Y-59174798D02*
X97265380Y-58968804D01*
X97265380Y-58968804D02*
X98030667Y-58854263D01*
X98030667Y-58854263D02*
X98602975Y-58757673D01*
X98602975Y-58757673D02*
X99039372Y-58628874D01*
X99039372Y-58628874D02*
X99372210Y-58454649D01*
X99372210Y-58454649D02*
X99633843Y-58221785D01*
X99633843Y-58221785D02*
X99663740Y-58187196D01*
X99663740Y-58187196D02*
X99827879Y-57954799D01*
X99827879Y-57954799D02*
X99944395Y-57687015D01*
X99944395Y-57687015D02*
X100024364Y-57344695D01*
X100024364Y-57344695D02*
X100078863Y-56888690D01*
X100078863Y-56888690D02*
X100096584Y-56657333D01*
X100096584Y-56657333D02*
X100248170Y-55608401D01*
X100248170Y-55608401D02*
X100550527Y-54624602D01*
X100550527Y-54624602D02*
X100995702Y-53717763D01*
X100995702Y-53717763D02*
X101575743Y-52899708D01*
X101575743Y-52899708D02*
X102282699Y-52182264D01*
X102282699Y-52182264D02*
X103108618Y-51577257D01*
X103108618Y-51577257D02*
X103745667Y-51230606D01*
X103745667Y-51230606D02*
X103830859Y-51187199D01*
X103830859Y-51187199D02*
X103902352Y-51145980D01*
X103902352Y-51145980D02*
X103964493Y-51106892D01*
X103964493Y-51106892D02*
X104021631Y-51069879D01*
X104021631Y-51069879D02*
X104078115Y-51034884D01*
X104078115Y-51034884D02*
X104138295Y-51001853D01*
X104138295Y-51001853D02*
X104206518Y-50970728D01*
X104206518Y-50970728D02*
X104287135Y-50941453D01*
X104287135Y-50941453D02*
X104384493Y-50913972D01*
X104384493Y-50913972D02*
X104502942Y-50888229D01*
X104502942Y-50888229D02*
X104646830Y-50864168D01*
X104646830Y-50864168D02*
X104820506Y-50841733D01*
X104820506Y-50841733D02*
X105028320Y-50820867D01*
X105028320Y-50820867D02*
X105274620Y-50801514D01*
X105274620Y-50801514D02*
X105563755Y-50783618D01*
X105563755Y-50783618D02*
X105900074Y-50767123D01*
X105900074Y-50767123D02*
X106287925Y-50751973D01*
X106287925Y-50751973D02*
X106731658Y-50738111D01*
X106731658Y-50738111D02*
X107235622Y-50725481D01*
X107235622Y-50725481D02*
X107804164Y-50714028D01*
X107804164Y-50714028D02*
X108441635Y-50703694D01*
X108441635Y-50703694D02*
X109152383Y-50694425D01*
X109152383Y-50694425D02*
X109940757Y-50686163D01*
X109940757Y-50686163D02*
X110811106Y-50678852D01*
X110811106Y-50678852D02*
X111767779Y-50672437D01*
X111767779Y-50672437D02*
X112815124Y-50666860D01*
X112815124Y-50666860D02*
X113957490Y-50662067D01*
X113957490Y-50662067D02*
X115199227Y-50658000D01*
X115199227Y-50658000D02*
X116544683Y-50654604D01*
X116544683Y-50654604D02*
X117998207Y-50651822D01*
X117998207Y-50651822D02*
X119564148Y-50649598D01*
X119564148Y-50649598D02*
X121246855Y-50647876D01*
X121246855Y-50647876D02*
X123050677Y-50646600D01*
X123050677Y-50646600D02*
X124979962Y-50645715D01*
X124979962Y-50645715D02*
X127039059Y-50645162D01*
X127039059Y-50645162D02*
X129232318Y-50644886D01*
X129232318Y-50644886D02*
X131564087Y-50644831D01*
X131564087Y-50644831D02*
X134038715Y-50644941D01*
M02*
