G04 #@! TF.GenerationSoftware,KiCad,Pcbnew,(2016-12-18 revision 3ffa37c)-master*
G04 #@! TF.CreationDate,2017-04-20T19:48:47-07:00*
G04 #@! TF.ProjectId,badge-kicad,62616467652D6B696361642E6B696361,rev?*
G04 #@! TF.FileFunction,Soldermask,Bot*
G04 #@! TF.FilePolarity,Negative*
%FSLAX46Y46*%
G04 Gerber Fmt 4.6, Leading zero omitted, Abs format (unit mm)*
G04 Created by KiCad (PCBNEW (2016-12-18 revision 3ffa37c)-master) date Thursday, April 20, 2017 'PMt' 07:48:47 PM*
%MOMM*%
%LPD*%
G01*
G04 APERTURE LIST*
%ADD10C,0.150000*%
%ADD11O,2.127200X2.432000*%
%ADD12R,2.127200X2.432000*%
%ADD13C,1.900000*%
%ADD14C,3.600000*%
%ADD15R,0.652780X1.602740*%
%ADD16O,1.299160X1.997660*%
%ADD17R,1.997660X1.799540*%
%ADD18R,2.299920X2.299920*%
%ADD19O,0.500006X1.200006*%
%ADD20C,1.924000*%
%ADD21R,3.800000X2.000000*%
%ADD22R,3.900000X1.400000*%
%ADD23C,1.450000*%
%ADD24R,1.450000X1.450000*%
%ADD25O,2.127200X2.127200*%
%ADD26R,2.127200X2.127200*%
%ADD27R,1.400000X1.200000*%
%ADD28R,1.100000X1.900000*%
%ADD29C,1.300000*%
G04 APERTURE END LIST*
D10*
D11*
X144330000Y-110262000D03*
X146870000Y-110262000D03*
X149410000Y-110262000D03*
X151950000Y-110262000D03*
X154490000Y-110262000D03*
D12*
X157030000Y-110262000D03*
D13*
X109868000Y-99276000D03*
X168034000Y-96990000D03*
X133930000Y-83362000D03*
X132474000Y-96736000D03*
X109868000Y-89370000D03*
X125362000Y-92926000D03*
X109868000Y-96482000D03*
D14*
X76340000Y-89116000D03*
D15*
X188427940Y-122792000D03*
X187777700Y-122792000D03*
X187130000Y-122792000D03*
X186482300Y-122792000D03*
X185832060Y-122792000D03*
D16*
X190429460Y-125461540D03*
X183830540Y-125461540D03*
D17*
X190327860Y-122792000D03*
X183932140Y-122792000D03*
D18*
X188328880Y-125466620D03*
X185931120Y-125466620D03*
D19*
X190430000Y-125462000D03*
X183830000Y-125462000D03*
D13*
X128530000Y-110162000D03*
X128530000Y-107762000D03*
X125530000Y-110162000D03*
X196736000Y-70320000D03*
X200800000Y-70320000D03*
X198768000Y-70320000D03*
X125530000Y-107762000D03*
X122330000Y-110162000D03*
X149780000Y-72012000D03*
X122330000Y-107762000D03*
X119530000Y-107762000D03*
D20*
X206930000Y-76762000D03*
X214530000Y-76762000D03*
D21*
X120305000Y-72562000D03*
X120305000Y-65762000D03*
D22*
X114755000Y-70162000D03*
X114755000Y-68162000D03*
D23*
X135180000Y-109642000D03*
X140260000Y-109642000D03*
X138990000Y-109642000D03*
X137720000Y-109642000D03*
X136450000Y-109642000D03*
X140260000Y-110912000D03*
X138990000Y-110912000D03*
X137720000Y-110912000D03*
X136450000Y-110912000D03*
D24*
X135180000Y-110912000D03*
D25*
X106940000Y-63640000D03*
X104400000Y-63640000D03*
X106940000Y-66180000D03*
X104400000Y-66180000D03*
X106940000Y-68720000D03*
X104400000Y-68720000D03*
X106940000Y-71260000D03*
X104400000Y-71260000D03*
X106940000Y-73800000D03*
X104400000Y-73800000D03*
X106940000Y-76340000D03*
X104400000Y-76340000D03*
X106940000Y-78880000D03*
X104400000Y-78880000D03*
X106940000Y-81420000D03*
X104400000Y-81420000D03*
X106940000Y-83960000D03*
X104400000Y-83960000D03*
X106940000Y-86500000D03*
X104400000Y-86500000D03*
X106940000Y-89040000D03*
X104400000Y-89040000D03*
X106940000Y-91580000D03*
X104400000Y-91580000D03*
X106940000Y-94120000D03*
X104400000Y-94120000D03*
X106940000Y-96660000D03*
X104400000Y-96660000D03*
X106940000Y-99200000D03*
X104400000Y-99200000D03*
X106940000Y-101740000D03*
X104400000Y-101740000D03*
X106940000Y-104280000D03*
X104400000Y-104280000D03*
X106940000Y-106820000D03*
X104400000Y-106820000D03*
X106940000Y-109360000D03*
X104400000Y-109360000D03*
X106940000Y-111900000D03*
D26*
X104400000Y-111900000D03*
D27*
X110930000Y-122987000D03*
X103630000Y-122987000D03*
X103630000Y-125187000D03*
X110930000Y-125187000D03*
D28*
X105030000Y-122337000D03*
X106530000Y-122337000D03*
X109530000Y-122337000D03*
D29*
X105780000Y-124087000D03*
X108780000Y-124087000D03*
D14*
X115330000Y-59762000D03*
X181830000Y-59662000D03*
X115330000Y-115662000D03*
X181830000Y-115662000D03*
X104530000Y-54762000D03*
X193530000Y-54762000D03*
D11*
X194210000Y-115162000D03*
X191670000Y-115162000D03*
D12*
X189130000Y-115162000D03*
D20*
X126730000Y-88712000D03*
X126730000Y-86562000D03*
X126730000Y-84412000D03*
M02*
