G04 #@! TF.GenerationSoftware,KiCad,Pcbnew,(2016-12-18 revision 3ffa37c)-master*
G04 #@! TF.CreationDate,2017-04-20T19:48:47-07:00*
G04 #@! TF.ProjectId,badge-kicad,62616467652D6B696361642E6B696361,rev?*
G04 #@! TF.FileFunction,Soldermask,Top*
G04 #@! TF.FilePolarity,Negative*
%FSLAX46Y46*%
G04 Gerber Fmt 4.6, Leading zero omitted, Abs format (unit mm)*
G04 Created by KiCad (PCBNEW (2016-12-18 revision 3ffa37c)-master) date Thursday, April 20, 2017 'PMt' 07:48:47 PM*
%MOMM*%
%LPD*%
G01*
G04 APERTURE LIST*
%ADD10C,0.150000*%
%ADD11R,0.564400X0.626900*%
%ADD12O,0.457200X0.914400*%
%ADD13O,0.914400X0.457200*%
%ADD14R,3.270000X3.270000*%
%ADD15R,3.120000X3.120000*%
%ADD16R,1.100000X1.700000*%
%ADD17R,1.650000X1.900000*%
%ADD18O,2.127200X2.432000*%
%ADD19R,2.127200X2.432000*%
%ADD20C,1.900000*%
%ADD21R,1.900000X1.650000*%
%ADD22R,1.600000X1.150000*%
%ADD23R,1.150000X1.600000*%
%ADD24C,3.600000*%
%ADD25O,1.299160X1.997660*%
%ADD26O,0.500006X1.200006*%
%ADD27R,2.753360X1.851660*%
%ADD28R,1.851660X2.753360*%
%ADD29R,1.997660X3.597860*%
%ADD30R,1.700000X1.100000*%
%ADD31R,1.543000X0.908000*%
%ADD32C,1.924000*%
%ADD33R,1.800000X1.600000*%
%ADD34R,0.900000X1.400000*%
%ADD35C,1.450000*%
%ADD36R,1.450000X1.450000*%
%ADD37O,2.127200X2.127200*%
%ADD38R,2.127200X2.127200*%
%ADD39C,1.300000*%
%ADD40R,2.150000X0.850000*%
%ADD41R,1.050000X1.460000*%
%ADD42R,1.400000X2.000000*%
%ADD43R,1.598880X1.598880*%
%ADD44R,1.598880X0.999440*%
%ADD45R,0.999440X1.598880*%
%ADD46R,0.901700X1.303020*%
%ADD47R,1.303020X0.901700*%
%ADD48R,1.102360X1.701800*%
G04 APERTURE END LIST*
D10*
D11*
X150539300Y-91932050D03*
X150539300Y-90932050D03*
X151539300Y-90932050D03*
X151539300Y-91932050D03*
D12*
X145539300Y-85304150D03*
X146039200Y-85304150D03*
X146539100Y-85304150D03*
X147039000Y-85304150D03*
X147538900Y-85304150D03*
X148038800Y-85304150D03*
X148538700Y-85304150D03*
X149038600Y-85304150D03*
X149538500Y-85304150D03*
X150038400Y-85304150D03*
X150538300Y-85304150D03*
X151038200Y-85304150D03*
X151538100Y-85304150D03*
X152038000Y-85304150D03*
X145539300Y-93059750D03*
X146039300Y-93059750D03*
X146539300Y-93059750D03*
X147039300Y-93059750D03*
X147539300Y-93059750D03*
X148039300Y-93059750D03*
X148539300Y-93059750D03*
X149039300Y-93059750D03*
X149539300Y-93059750D03*
X150039300Y-93059750D03*
X150539300Y-93059750D03*
X151039300Y-93059750D03*
X151539300Y-93059750D03*
X152039300Y-93059750D03*
D13*
X144900000Y-85932050D03*
X144900000Y-86432050D03*
X144900000Y-86932050D03*
X144900000Y-87432050D03*
X144900000Y-87932050D03*
X144900000Y-88432050D03*
X144900000Y-88932050D03*
X144900000Y-89432050D03*
X144900000Y-89932050D03*
X144900000Y-90432050D03*
X144900000Y-90932050D03*
X144900000Y-91432050D03*
X144900000Y-91932050D03*
X144900000Y-92432050D03*
X152655600Y-85932050D03*
X152655600Y-86432050D03*
X152655600Y-86932050D03*
X152655600Y-87432050D03*
X152655600Y-87932050D03*
X152655600Y-88432050D03*
X152655600Y-88932050D03*
X152655600Y-89432050D03*
X152655600Y-89932050D03*
X152655600Y-90432050D03*
X152655600Y-90932050D03*
X152655600Y-91432050D03*
X152655600Y-91932050D03*
X152655600Y-92432050D03*
D14*
X147277800Y-90600050D03*
D15*
X150227800Y-87631950D03*
D16*
X174080000Y-88362000D03*
X175980000Y-88362000D03*
D17*
X163170000Y-75902000D03*
X163170000Y-78402000D03*
D18*
X144330000Y-110262000D03*
X146870000Y-110262000D03*
X149410000Y-110262000D03*
X151950000Y-110262000D03*
X154490000Y-110262000D03*
D19*
X157030000Y-110262000D03*
D20*
X109868000Y-99276000D03*
X168034000Y-96990000D03*
X133930000Y-83362000D03*
X132474000Y-96736000D03*
X109868000Y-89370000D03*
X125362000Y-92926000D03*
X109868000Y-96482000D03*
D17*
X139770000Y-83622000D03*
X139770000Y-86122000D03*
X158355000Y-83737000D03*
X158355000Y-86237000D03*
D21*
X141990000Y-80762000D03*
X144490000Y-80762000D03*
D22*
X175880000Y-64962000D03*
X173980000Y-64962000D03*
D23*
X134030000Y-68312000D03*
X134030000Y-70212000D03*
D22*
X139480000Y-65262000D03*
X137580000Y-65262000D03*
D23*
X142030000Y-68312000D03*
X142030000Y-70212000D03*
D22*
X158080000Y-65062000D03*
X156180000Y-65062000D03*
D24*
X76340000Y-89116000D03*
D25*
X190429460Y-125461540D03*
X183830540Y-125461540D03*
D26*
X190430000Y-125462000D03*
X183830000Y-125462000D03*
D21*
X173400000Y-83592000D03*
X175900000Y-83592000D03*
D17*
X170320000Y-86462000D03*
X170320000Y-83962000D03*
X166220000Y-78492000D03*
X166220000Y-75992000D03*
D27*
X172902480Y-73072000D03*
X176397520Y-73072000D03*
D28*
X191430000Y-62809520D03*
X191430000Y-59314480D03*
D29*
X197130000Y-76864520D03*
X197130000Y-82259480D03*
D20*
X128530000Y-110162000D03*
X128530000Y-107762000D03*
X125530000Y-110162000D03*
X196736000Y-70320000D03*
X200800000Y-70320000D03*
X198768000Y-70320000D03*
X125530000Y-107762000D03*
X122330000Y-110162000D03*
X149780000Y-72012000D03*
X122330000Y-107762000D03*
X119530000Y-107762000D03*
D30*
X163170000Y-80762000D03*
X163170000Y-82662000D03*
X166170000Y-73692000D03*
X166170000Y-71792000D03*
D16*
X175080000Y-67962000D03*
X173180000Y-67962000D03*
D30*
X166270000Y-82642000D03*
X166270000Y-80742000D03*
D31*
X171625000Y-77417000D03*
X171625000Y-78687000D03*
X171625000Y-79957000D03*
X171625000Y-81227000D03*
X177975000Y-81227000D03*
X177975000Y-79957000D03*
X177975000Y-78687000D03*
X177975000Y-77417000D03*
D32*
X206930000Y-76762000D03*
X214530000Y-76762000D03*
D33*
X148830000Y-75362000D03*
X151030000Y-75362000D03*
X151030000Y-76962000D03*
X148830000Y-76962000D03*
D34*
X84430000Y-71262000D03*
X84430000Y-67462000D03*
X94630000Y-67462000D03*
X94630000Y-71262000D03*
X94630000Y-69362000D03*
X84430000Y-69362000D03*
X89530000Y-67462000D03*
X89530000Y-71262000D03*
D35*
X135180000Y-109642000D03*
X140260000Y-109642000D03*
X138990000Y-109642000D03*
X137720000Y-109642000D03*
X136450000Y-109642000D03*
X140260000Y-110912000D03*
X138990000Y-110912000D03*
X137720000Y-110912000D03*
X136450000Y-110912000D03*
D36*
X135180000Y-110912000D03*
D37*
X106940000Y-63640000D03*
X104400000Y-63640000D03*
X106940000Y-66180000D03*
X104400000Y-66180000D03*
X106940000Y-68720000D03*
X104400000Y-68720000D03*
X106940000Y-71260000D03*
X104400000Y-71260000D03*
X106940000Y-73800000D03*
X104400000Y-73800000D03*
X106940000Y-76340000D03*
X104400000Y-76340000D03*
X106940000Y-78880000D03*
X104400000Y-78880000D03*
X106940000Y-81420000D03*
X104400000Y-81420000D03*
X106940000Y-83960000D03*
X104400000Y-83960000D03*
X106940000Y-86500000D03*
X104400000Y-86500000D03*
X106940000Y-89040000D03*
X104400000Y-89040000D03*
X106940000Y-91580000D03*
X104400000Y-91580000D03*
X106940000Y-94120000D03*
X104400000Y-94120000D03*
X106940000Y-96660000D03*
X104400000Y-96660000D03*
X106940000Y-99200000D03*
X104400000Y-99200000D03*
X106940000Y-101740000D03*
X104400000Y-101740000D03*
X106940000Y-104280000D03*
X104400000Y-104280000D03*
X106940000Y-106820000D03*
X104400000Y-106820000D03*
X106940000Y-109360000D03*
X104400000Y-109360000D03*
X106940000Y-111900000D03*
D38*
X104400000Y-111900000D03*
D39*
X105780000Y-124087000D03*
X108780000Y-124087000D03*
D40*
X176130000Y-102537000D03*
X176130000Y-103187000D03*
X176130000Y-103837000D03*
X176130000Y-104487000D03*
X176130000Y-105137000D03*
X176130000Y-105787000D03*
X176130000Y-106437000D03*
X176130000Y-107087000D03*
X176130000Y-107737000D03*
X176130000Y-108387000D03*
X176130000Y-109037000D03*
X176130000Y-109687000D03*
X176130000Y-110337000D03*
X176130000Y-110987000D03*
X168930000Y-110987000D03*
X168930000Y-110337000D03*
X168930000Y-109687000D03*
X168930000Y-109037000D03*
X168930000Y-108387000D03*
X168930000Y-107737000D03*
X168930000Y-107087000D03*
X168930000Y-106437000D03*
X168930000Y-105787000D03*
X168930000Y-105137000D03*
X168930000Y-104487000D03*
X168930000Y-103837000D03*
X168930000Y-103187000D03*
X168930000Y-102537000D03*
D41*
X114580000Y-97862000D03*
X115530000Y-97862000D03*
X116480000Y-97862000D03*
X116480000Y-95662000D03*
X114580000Y-95662000D03*
X114330000Y-84662000D03*
X116230000Y-84662000D03*
X116230000Y-86862000D03*
X115280000Y-86862000D03*
X114330000Y-86862000D03*
D17*
X119530000Y-53512000D03*
X119530000Y-56012000D03*
X129030000Y-56012000D03*
X129030000Y-53512000D03*
X139030000Y-56012000D03*
X139030000Y-53512000D03*
X149030000Y-53512000D03*
X149030000Y-56012000D03*
X159030000Y-56012000D03*
X159030000Y-53512000D03*
X169030000Y-53512000D03*
X169030000Y-56012000D03*
X169030000Y-123512000D03*
X169030000Y-121012000D03*
X159030000Y-121012000D03*
X159030000Y-123512000D03*
X149030000Y-123512000D03*
X149030000Y-121012000D03*
X139030000Y-121262000D03*
X139030000Y-123762000D03*
X128930000Y-123812000D03*
X128930000Y-121312000D03*
X119530000Y-121012000D03*
X119530000Y-123512000D03*
D21*
X123530000Y-95262000D03*
X121030000Y-95262000D03*
D42*
X113780000Y-80512000D03*
X116780000Y-80512000D03*
X114030000Y-91512000D03*
X117030000Y-91512000D03*
D21*
X158280000Y-68012000D03*
X155780000Y-68012000D03*
D17*
X145030000Y-74512000D03*
X145030000Y-77012000D03*
D21*
X167280000Y-68012000D03*
X164780000Y-68012000D03*
X164780000Y-65012000D03*
X167280000Y-65012000D03*
X130280000Y-73262000D03*
X127780000Y-73262000D03*
D17*
X125370000Y-68072000D03*
X125370000Y-65572000D03*
D21*
X119280000Y-65762000D03*
X121780000Y-65762000D03*
D17*
X98030000Y-78012000D03*
X98030000Y-75512000D03*
X84530000Y-75012000D03*
X84530000Y-77512000D03*
D21*
X202780000Y-63762000D03*
X205280000Y-63762000D03*
X176280000Y-98262000D03*
X173780000Y-98262000D03*
X167780000Y-91762000D03*
X165280000Y-91762000D03*
D17*
X180030000Y-109512000D03*
X180030000Y-107012000D03*
X155030000Y-77012000D03*
X155030000Y-74512000D03*
D43*
X188579020Y-65762000D03*
X186480980Y-65762000D03*
X188579020Y-70762000D03*
X186480980Y-70762000D03*
X188579020Y-75762000D03*
X186480980Y-75762000D03*
X186480980Y-80762000D03*
X188579020Y-80762000D03*
X186480980Y-85762000D03*
X188579020Y-85762000D03*
X188579020Y-90762000D03*
X186480980Y-90762000D03*
X186480980Y-95762000D03*
X188579020Y-95762000D03*
X186480980Y-100762000D03*
X188579020Y-100762000D03*
D24*
X115330000Y-59762000D03*
X181830000Y-59662000D03*
X115330000Y-115662000D03*
X181830000Y-115662000D03*
X104530000Y-54762000D03*
X193530000Y-54762000D03*
D44*
X146280000Y-64810960D03*
X146280000Y-66213040D03*
X150780000Y-66213040D03*
X150780000Y-64810960D03*
D45*
X132828960Y-65262000D03*
X134231040Y-65262000D03*
X129731040Y-65262000D03*
X128328960Y-65262000D03*
D44*
X92030000Y-76463040D03*
X92030000Y-75060960D03*
D18*
X194210000Y-115162000D03*
X191670000Y-115162000D03*
D19*
X189130000Y-115162000D03*
D16*
X122080000Y-80762000D03*
X123980000Y-80762000D03*
X175980000Y-93262000D03*
X174080000Y-93262000D03*
X121830000Y-90262000D03*
X123730000Y-90262000D03*
X121980000Y-86562000D03*
X123880000Y-86562000D03*
X197580000Y-103262000D03*
X199480000Y-103262000D03*
X183980000Y-70762000D03*
X182080000Y-70762000D03*
X183980000Y-100762000D03*
X182080000Y-100762000D03*
X183980000Y-95762000D03*
X182080000Y-95762000D03*
X183980000Y-65762000D03*
X182080000Y-65762000D03*
X183980000Y-75762000D03*
X182080000Y-75762000D03*
X183980000Y-80762000D03*
X182080000Y-80762000D03*
X183980000Y-90762000D03*
X182080000Y-90762000D03*
X182080000Y-85762000D03*
X183980000Y-85762000D03*
D46*
X116354420Y-120689360D03*
X116354420Y-124834640D03*
X114205580Y-120689360D03*
X114205580Y-124834640D03*
D32*
X126730000Y-88712000D03*
X126730000Y-86562000D03*
X126730000Y-84412000D03*
D47*
X86779360Y-82999580D03*
X90924640Y-82999580D03*
X86779360Y-85148420D03*
X90924640Y-85148420D03*
X90924640Y-94800420D03*
X86779360Y-94800420D03*
X90924640Y-92651580D03*
X86779360Y-92651580D03*
X81191360Y-88079580D03*
X85336640Y-88079580D03*
X81191360Y-90228420D03*
X85336640Y-90228420D03*
X96258640Y-90228420D03*
X92113360Y-90228420D03*
X96258640Y-88079580D03*
X92113360Y-88079580D03*
X207957360Y-88187580D03*
X212102640Y-88187580D03*
X207957360Y-90336420D03*
X212102640Y-90336420D03*
D48*
X122381540Y-52313440D03*
X125678460Y-52313440D03*
X125678460Y-57210560D03*
X122381540Y-57210560D03*
X132381540Y-57210560D03*
X135678460Y-57210560D03*
X135678460Y-52313440D03*
X132381540Y-52313440D03*
X142381540Y-52313440D03*
X145678460Y-52313440D03*
X145678460Y-57210560D03*
X142381540Y-57210560D03*
X152381540Y-57210560D03*
X155678460Y-57210560D03*
X155678460Y-52313440D03*
X152381540Y-52313440D03*
X162381540Y-52313440D03*
X165678460Y-52313440D03*
X165678460Y-57210560D03*
X162381540Y-57210560D03*
X172381540Y-57210560D03*
X175678460Y-57210560D03*
X175678460Y-52313440D03*
X172381540Y-52313440D03*
X172381540Y-119813440D03*
X175678460Y-119813440D03*
X175678460Y-124710560D03*
X172381540Y-124710560D03*
X162381540Y-124710560D03*
X165678460Y-124710560D03*
X165678460Y-119813440D03*
X162381540Y-119813440D03*
X152381540Y-124710560D03*
X155678460Y-124710560D03*
X155678460Y-119813440D03*
X152381540Y-119813440D03*
X142381540Y-119913440D03*
X145678460Y-119913440D03*
X145678460Y-124810560D03*
X142381540Y-124810560D03*
X132381540Y-120063440D03*
X135678460Y-120063440D03*
X135678460Y-124960560D03*
X132381540Y-124960560D03*
X122381540Y-124960560D03*
X125678460Y-124960560D03*
X125678460Y-120063440D03*
X122381540Y-120063440D03*
M02*
