M48
;DRILL file {KiCad (2016-12-18 revision 3ffa37c)-master} date Thursday, March 23, 2017 'AMt' 02:18:01 AM
;FORMAT={-:-/ absolute / inch / decimal}
FMAT,2
INCH,TZ
T1C0.016
T2C0.020
T3C0.026
T4C0.031
T5C0.035
T6C0.039
T7C0.040
%
G90
G05
M72
T1
X4.2655Y-3.6555
X4.2755Y-3.9523
X4.3255Y-2.2685
X4.4254Y-3.2555
X4.4292Y-3.8723
X4.4555Y-3.7785
X4.4669Y-3.4302
X4.4855Y-3.6885
X4.5573Y-3.0553
X4.6196Y-3.836
X4.6247Y-3.0055
X4.708Y-3.8731
X4.7968Y-4.8627
X4.8182Y-2.1098
X4.8419Y-3.1796
X4.9563Y-3.5369
X5.0047Y-3.7377
X5.0325Y-4.1999
X5.0823Y-4.1749
X5.2055Y-4.4585
X5.2955Y-3.6285
X5.3255Y-3.7885
X5.3635Y-3.5843
X5.3954Y-3.5574
X5.4011Y-3.5187
X5.4374Y-3.5625
X5.4924Y-3.6449
X5.5024Y-3.6764
X5.5516Y-3.6776
X5.5578Y-4.1029
X5.5751Y-3.8734
X5.5866Y-4.2753
X5.5898Y-3.7772
X5.6082Y-3.8566
X5.6242Y-3.6954
X5.6715Y-4.2094
X5.6819Y-4.1422
X5.7024Y-4.2406
X5.7374Y-3.806
X5.7423Y-3.2692
X5.7614Y-3.2103
X5.7882Y-3.9824
X5.7886Y-3.2741
X5.8045Y-3.7833
X5.8445Y-3.9511
X5.8457Y-3.7261
X5.8618Y-3.2418
X5.8902Y-4.1761
X5.8957Y-3.9578
X5.9415Y-3.269
X5.945Y-3.7717
X5.9979Y-3.8653
X6.0018Y-2.6068
X6.01Y-3.3149
X6.0335Y-3.8296
X6.0433Y-3.9847
X6.0483Y-3.2106
X6.0577Y-4.1745
X6.072Y-2.7111
X6.0798Y-3.2116
X6.0807Y-3.7249
X6.1039Y-3.2396
X6.1066Y-3.6317
X6.1075Y-3.1166
X6.1147Y-3.9186
X6.1205Y-3.5169
X6.1469Y-3.3331
X6.1722Y-3.5735
X6.201Y-4.7771
X6.2245Y-3.5212
X6.322Y-3.4109
X6.4579Y-4.8839
X6.4787Y-4.0881
X6.4997Y-4.0004
X6.513Y-3.3347
X6.5332Y-2.6107
X6.5858Y-2.7223
X6.7127Y-2.7878
X6.7263Y-2.2394
X6.8201Y-4.6748
X6.8548Y-4.2672
X6.8555Y-4.3785
X6.9122Y-3.1053
X6.9289Y-2.302
X6.9291Y-3.7678
X6.9912Y-4.2492
X7.0396Y-3.4491
X7.0426Y-4.344
X7.0598Y-4.022
X7.0642Y-3.7269
X7.0783Y-3.9182
X7.401Y-2.8654
X7.4033Y-3.3117
X7.4461Y-4.26
X7.485Y-2.3352
X7.4955Y-2.8485
X7.4955Y-3.6885
X7.4981Y-4.7481
X8.1114Y-3.4158
T3
X5.322Y-4.3166
X5.322Y-4.3666
X5.372Y-4.3166
X5.372Y-4.3666
X5.422Y-4.3166
X5.422Y-4.3666
X5.472Y-4.3166
X5.472Y-4.3666
X5.522Y-4.3166
X5.522Y-4.3666
T4
X4.3255Y-3.5185
X4.3255Y-3.7985
X4.3255Y-3.9085
X4.7059Y-4.2426
X4.8161Y-4.2426
X4.8161Y-4.3371
X4.9355Y-3.6585
X4.9421Y-4.2426
X4.9421Y-4.3371
X5.0602Y-4.2426
X5.0602Y-4.3371
X5.2155Y-3.8085
X5.2728Y-3.282
X5.8969Y-2.8351
X6.6155Y-3.8185
X7.7455Y-2.7685
X7.8255Y-2.7685
X7.9055Y-2.7685
T5
X8.1469Y-3.0221
X8.4461Y-3.0221
T6
X4.9894Y-3.3233
X4.9894Y-3.408
X4.9894Y-3.4926
T7
X4.1102Y-2.5055
X4.1102Y-2.6055
X4.1102Y-2.7055
X4.1102Y-2.8055
X4.1102Y-2.9055
X4.1102Y-3.0055
X4.1102Y-3.1055
X4.1102Y-3.2055
X4.1102Y-3.3055
X4.1102Y-3.4055
X4.1102Y-3.5055
X4.1102Y-3.6055
X4.1102Y-3.7055
X4.1102Y-3.8055
X4.1102Y-3.9055
X4.1102Y-4.0055
X4.1102Y-4.1055
X4.1102Y-4.2055
X4.1102Y-4.3055
X4.1102Y-4.4055
X4.2102Y-2.5055
X4.2102Y-2.6055
X4.2102Y-2.7055
X4.2102Y-2.8055
X4.2102Y-2.9055
X4.2102Y-3.0055
X4.2102Y-3.1055
X4.2102Y-3.2055
X4.2102Y-3.3055
X4.2102Y-3.4055
X4.2102Y-3.5055
X4.2102Y-3.6055
X4.2102Y-3.7055
X4.2102Y-3.8055
X4.2102Y-3.9055
X4.2102Y-4.0055
X4.2102Y-4.1055
X4.2102Y-4.2055
X4.2102Y-4.3055
X4.2102Y-4.4055
X5.6823Y-4.341
X5.7823Y-4.341
X5.8823Y-4.341
X5.9823Y-4.341
X6.0823Y-4.341
X6.1823Y-4.341
X7.4461Y-4.5339
X7.5461Y-4.5339
X7.6461Y-4.5339
T2
X7.2374Y-4.9532G85X7.2374Y-4.9257
G05
X7.4972Y-4.9532G85X7.4972Y-4.9257
G05
T0
M30
