M48
;DRILL file {KiCad (2016-12-18 revision 3ffa37c)-master} date Wednesday, March 22, 2017 'PMt' 10:47:32 PM
;FORMAT={2:4/ absolute / inch / suppress leading zeros}
FMAT,2
INCH,TZ
T1C0.016
T2C0.020
T3C0.026
T4C0.031
T5C0.035
T6C0.039
T7C0.040
T8C0.035
T9C0.126
%
G90
G05
M72
T1
X42655Y-36555
X42755Y-39523
X43255Y-22685
X44254Y-32555
X44292Y-38723
X44555Y-37785
X44669Y-34302
X44855Y-36885
X45573Y-30553
X46196Y-38360
X46247Y-30055
X47080Y-38731
X47968Y-48627
X48182Y-21098
X48419Y-31796
X49563Y-35369
X50047Y-37377
X50325Y-41999
X50823Y-41749
X52055Y-44585
X52955Y-36285
X53255Y-37885
X53635Y-35843
X53954Y-35574
X54011Y-35187
X54374Y-35625
X54924Y-36449
X55024Y-36764
X55516Y-36776
X55578Y-41029
X55751Y-38734
X55866Y-42753
X55898Y-37772
X56082Y-38566
X56242Y-36954
X56715Y-42094
X56819Y-41422
X57024Y-42406
X57374Y-38060
X57423Y-32692
X57614Y-32103
X57882Y-39824
X57886Y-32741
X58045Y-37833
X58445Y-39511
X58457Y-37261
X58618Y-32418
X58902Y-41761
X58957Y-39578
X59415Y-32690
X59450Y-37717
X59979Y-38653
X60018Y-26068
X60100Y-33149
X60335Y-38296
X60433Y-39847
X60483Y-32106
X60577Y-41745
X60720Y-27111
X60798Y-32116
X60807Y-37249
X61039Y-32396
X61066Y-36317
X61075Y-31166
X61147Y-39186
X61205Y-35169
X61469Y-33331
X61722Y-35735
X62010Y-47771
X62245Y-35212
X63220Y-34109
X64579Y-48839
X64787Y-40881
X64997Y-40004
X65130Y-33347
X65332Y-26107
X65858Y-27223
X67127Y-27878
X67263Y-22394
X68201Y-46748
X68548Y-42672
X68555Y-43785
X69122Y-31053
X69289Y-23020
X69291Y-37678
X69912Y-42492
X70396Y-34491
X70426Y-43440
X70598Y-40220
X70642Y-37269
X70783Y-39182
X74010Y-28654
X74033Y-33117
X74461Y-42600
X74850Y-23352
X74955Y-28485
X74955Y-36885
X74981Y-47481
X81114Y-34158
T3
X53220Y-43166
X53220Y-43666
X53720Y-43166
X53720Y-43666
X54220Y-43166
X54220Y-43666
X54720Y-43166
X54720Y-43666
X55220Y-43166
X55220Y-43666
T4
X43255Y-35185
X43255Y-37985
X43255Y-39085
X47059Y-42426
X48161Y-42426
X48161Y-43371
X49355Y-36585
X49421Y-42426
X49421Y-43371
X50602Y-42426
X50602Y-43371
X52155Y-38085
X52728Y-32820
X58969Y-28351
X66155Y-38185
X77455Y-27685
X78255Y-27685
X79055Y-27685
T5
X81469Y-30221
X84461Y-30221
T6
X49894Y-33233
X49894Y-34080
X49894Y-34926
T7
X41102Y-25055
X41102Y-26055
X41102Y-27055
X41102Y-28055
X41102Y-29055
X41102Y-30055
X41102Y-31055
X41102Y-32055
X41102Y-33055
X41102Y-34055
X41102Y-35055
X41102Y-36055
X41102Y-37055
X41102Y-38055
X41102Y-39055
X41102Y-40055
X41102Y-41055
X41102Y-42055
X41102Y-43055
X41102Y-44055
X42102Y-25055
X42102Y-26055
X42102Y-27055
X42102Y-28055
X42102Y-29055
X42102Y-30055
X42102Y-31055
X42102Y-32055
X42102Y-33055
X42102Y-34055
X42102Y-35055
X42102Y-36055
X42102Y-37055
X42102Y-38055
X42102Y-39055
X42102Y-40055
X42102Y-41055
X42102Y-42055
X42102Y-43055
X42102Y-44055
X56823Y-43410
X57823Y-43410
X58823Y-43410
X59823Y-43410
X60823Y-43410
X61823Y-43410
X74461Y-45339
X75461Y-45339
X76461Y-45339
T8
X41646Y-48853
X42827Y-48853
T9
X30055Y-35085
X41154Y-21560
X45406Y-23528
X45406Y-45536
X71587Y-23489
X71587Y-45536
X76193Y-21560
T2
X72374Y-49532G85X72374Y-49257
G05
X74972Y-49532G85X74972Y-49257
G05
T0
M30
